<svg width="52" height="52" viewBox="0 0 52 52" fill="none" xmlns="http://www.w3.org/2000/svg">
<path d="M4.75 51.5C4.75 51.5 0.5 51.5 0.5 47.25C0.5 43 4.75 30.25 26 30.25C47.25 30.25 51.5 43 51.5 47.25C51.5 51.5 47.25 51.5 47.25 51.5H4.75ZM26 26C29.3815 26 32.6245 24.6567 35.0156 22.2656C37.4067 19.8745 38.75 16.6315 38.75 13.25C38.75 9.86849 37.4067 6.62548 35.0156 4.23439C32.6245 1.8433 29.3815 0.5 26 0.5C22.6185 0.5 19.3755 1.8433 16.9844 4.23439C14.5933 6.62548 13.25 9.86849 13.25 13.25C13.25 16.6315 14.5933 19.8745 16.9844 22.2656C19.3755 24.6567 22.6185 26 26 26Z" fill="white"/>
<path d="M4.75 51.5C4.75 51.5 0.5 51.5 0.5 47.25C0.5 43 4.75 30.25 26 30.25C47.25 30.25 51.5 43 51.5 47.25C51.5 51.5 47.25 51.5 47.25 51.5H4.75ZM26 26C29.3815 26 32.6245 24.6567 35.0156 22.2656C37.4067 19.8745 38.75 16.6315 38.75 13.25C38.75 9.86849 37.4067 6.62548 35.0156 4.23439C32.6245 1.8433 29.3815 0.5 26 0.5C22.6185 0.5 19.3755 1.8433 16.9844 4.23439C14.5933 6.62548 13.25 9.86849 13.25 13.25C13.25 16.6315 14.5933 19.8745 16.9844 22.2656C19.3755 24.6567 22.6185 26 26 26Z" fill="url(#paint0_linear_10744_25522)" fill-opacity="0.8"/>
<path d="M4.75 51.5C4.75 51.5 0.5 51.5 0.5 47.25C0.5 43 4.75 30.25 26 30.25C47.25 30.25 51.5 43 51.5 47.25C51.5 51.5 47.25 51.5 47.25 51.5H4.75ZM26 26C29.3815 26 32.6245 24.6567 35.0156 22.2656C37.4067 19.8745 38.75 16.6315 38.75 13.25C38.75 9.86849 37.4067 6.62548 35.0156 4.23439C32.6245 1.8433 29.3815 0.5 26 0.5C22.6185 0.5 19.3755 1.8433 16.9844 4.23439C14.5933 6.62548 13.25 9.86849 13.25 13.25C13.25 16.6315 14.5933 19.8745 16.9844 22.2656C19.3755 24.6567 22.6185 26 26 26Z" fill="url(#paint1_linear_10744_25522)" fill-opacity="0.8"/>
<defs>
<linearGradient id="paint0_linear_10744_25522" x1="51.5" y1="51.5" x2="0.5" y2="0.5" gradientUnits="userSpaceOnUse">
<stop stop-color="#252117"/>
<stop offset="1" stop-opacity="0"/>
</linearGradient>
<linearGradient id="paint1_linear_10744_25522" x1="0.5" y1="0.5" x2="50.5288" y2="51.5" gradientUnits="userSpaceOnUse">
<stop offset="0.484375" stop-color="#4BAA73"/>
<stop offset="1" stop-opacity="0"/>
</linearGradient>
</defs>
</svg>
