<svg width="32" height="32" viewBox="0 0 32 32" fill="none" xmlns="http://www.w3.org/2000/svg">
<path d="M16 32C24.8366 32 32 24.8366 32 16C32 7.16344 24.8366 0 16 0C7.16345 0 0 7.16344 0 16C0 24.8366 7.16345 32 16 32Z" fill="#252117"/>
<path d="M23.0136 14.4657H17.5342V8.98627C17.5342 8.10956 16.8767 7.45203 16 7.45203C15.1232 7.45203 14.4657 8.10956 14.4657 8.98627V14.4657H8.98627C8.10955 14.4657 7.45203 15.1233 7.45203 16C7.45203 16.8767 8.10955 17.5342 8.98627 17.5342H14.4657V23.0137C14.4657 23.8904 15.1232 24.5479 16 24.5479C16.8767 24.5479 17.5342 23.8904 17.5342 23.0137V17.315H23.0136C23.8904 17.315 24.5479 16.6575 24.5479 15.7808C24.5479 14.9041 23.6712 14.4657 23.0136 14.4657Z" fill="white"/>
</svg>
