<svg width="32" height="32" viewBox="0 0 32 32" fill="none" xmlns="http://www.w3.org/2000/svg">
<path d="M16 32C24.8365 32 32 24.8366 32 16C32 7.16344 24.8365 0 16 0C7.16342 0 0 7.16344 0 16C0 24.8366 7.16342 32 16 32Z" fill="white"/>
<path d="M17.9734 15.9998L21.9186 12.0546C22.5762 11.3971 22.5762 10.5204 21.9186 10.082C21.2611 9.64366 20.3844 9.42448 19.946 10.082L16.0008 14.0272L12.0556 10.082C11.3981 9.42448 10.5214 9.42448 10.083 10.082C9.64464 10.7396 9.42546 11.6163 10.083 12.0546L14.0282 15.9998L10.083 19.945C9.42546 20.6026 9.42546 21.4793 10.083 21.9176C10.3022 22.1368 10.7405 22.356 11.1789 22.356C11.6172 22.356 11.8364 22.1368 12.2748 21.9176L16.22 17.9724L20.1652 21.9176C20.3844 22.1368 20.8227 22.356 21.2611 22.356C21.6995 22.356 21.9186 22.1368 22.357 21.9176C23.0145 21.2601 23.0145 20.3834 22.357 19.945L17.9734 15.9998Z" fill="#252117"/>
</svg>
