<svg width="60" height="60" viewBox="0 0 60 60" fill="none" xmlns="http://www.w3.org/2000/svg">
<rect width="60" height="60" rx="30" fill="white"/>
<path d="M60 30C60 46.5685 46.5685 60 30 60C13.4315 60 0 46.5685 0 30C0 13.4315 13.4315 0 30 0C46.5685 0 60 13.4315 60 30ZM3.7262 30C3.7262 44.5106 15.4894 56.2738 30 56.2738C44.5106 56.2738 56.2738 44.5106 56.2738 30C56.2738 15.4894 44.5106 3.7262 30 3.7262C15.4894 3.7262 3.7262 15.4894 3.7262 30Z" fill="#02903C"/>
<path d="M26.688 29.44H29.936V25.856L26.688 29.44ZM29.936 31.104H24.352V29.856L30.624 22.8H31.92V29.44H34.256V31.104H31.92V34H29.936V31.104Z" fill="#252117"/>
</svg>
