<svg width="38" height="39" viewBox="0 0 38 39" fill="none" xmlns="http://www.w3.org/2000/svg">
<rect x="37" width="1" height="39" fill="#DCDCDC"/>
<path d="M4.908 16.548C5.64 16.548 6.3 16.56 7.5 17.316L7.968 16.392C7.056 15.708 6.084 15.468 4.908 15.468C2.508 15.468 0.552 17.4 0.552 19.824C0.552 22.188 2.424 24.132 5.016 24.132C5.856 24.132 7.08 23.928 8.148 22.956V19.8H4.692V20.772H7.056V22.488C6.48 22.86 5.844 23.052 5.076 23.052C2.868 23.052 1.776 21.444 1.776 19.812C1.776 17.988 3.18 16.548 4.908 16.548ZM11.2002 24V20.82H13.3602C14.9562 20.82 15.8922 19.656 15.8922 18.24C15.8922 16.824 14.9682 15.6 13.3602 15.6H10.0002V24H11.2002ZM11.2002 19.86V16.584H13.1082C14.0562 16.584 14.6442 17.256 14.6442 18.228C14.6442 19.188 14.0682 19.86 13.1082 19.86H11.2002ZM23.5859 23.016H18.1499L23.3099 16.512V15.6H16.9259V16.584H21.7259L16.6139 23.088V24H23.5859V23.016Z" fill="#C8C8C8"/>
</svg>
