<svg width="54" height="32" viewBox="0 0 54 32" fill="none" xmlns="http://www.w3.org/2000/svg">
<path d="M13.97 5.45709V3.25826C13.97 2.84226 13.5916 2.4857 13.1501 2.4857H5.64522L5.26683 1.47542C5.14069 1.17828 4.82536 1 4.51003 1H1.16752C0.726054 1 0.347656 1.29714 0.347656 1.77256V2.54512V4.09025V13.3016L3.69017 5.99194C3.8163 5.6948 4.13163 5.51652 4.44696 5.51652H13.97V5.45709Z" fill="black"/>
<path d="M13.9727 5.45703V13.2421L17.0629 6.52673C17.3152 5.99188 16.8737 5.45703 16.3061 5.45703H13.9727Z" fill="#D1CDB2"/>
<path d="M3.69017 5.93245L0.347656 13.3015H13.97V5.45703H4.44696C4.13163 5.45703 3.8163 5.69474 3.69017 5.93245Z" fill="#D1CDB2"/>
<g clip-path="url(#clip0_4606_8650)">
<path d="M31.6 14.3008V10.6008C31.6 9.90078 31 9.30078 30.3 9.30078H18.4L17.8 7.60078C17.6 7.10078 17.1 6.80078 16.6 6.80078H11.3C10.6 6.80078 10 7.30078 10 8.10078V9.40078V12.0008V27.5008L15.3 15.2008C15.5 14.7008 16 14.4008 16.5 14.4008H31.6V14.3008Z" fill="black"/>
<path d="M31.6016 14.3008V27.4008L36.5016 16.1008C36.9016 15.2008 36.2016 14.3008 35.3016 14.3008H31.6016Z" fill="#D1CDB2"/>
<path d="M15.3 15.1008L10 27.5008H31.6V14.3008H16.5C16 14.3008 15.5 14.7008 15.3 15.1008Z" fill="#D1CDB2"/>
</g>
<path d="M48.9895 23.4571V21.2583C48.9895 20.8423 48.6111 20.4857 48.1696 20.4857H40.6648L40.2864 19.4754C40.1602 19.1783 39.8449 19 39.5296 19H36.187C35.7456 19 35.3672 19.2971 35.3672 19.7726V20.5451V22.0902V31.3016L38.7097 23.9919C38.8358 23.6948 39.1512 23.5165 39.4665 23.5165H48.9895V23.4571Z" fill="black"/>
<path d="M48.9922 23.457V31.2421L52.0824 24.5267C52.3347 23.9919 51.8932 23.457 51.3256 23.457H48.9922Z" fill="#D1CDB2"/>
<path d="M38.7097 23.9325L35.3672 31.3015H48.9895V23.457H39.4665C39.1512 23.457 38.8358 23.6947 38.7097 23.9325Z" fill="#D1CDB2"/>
<path d="M48.418 9.40078V0.800781" stroke="black" stroke-width="1.5" stroke-miterlimit="10" stroke-linecap="round" stroke-linejoin="round"/>
<path d="M43.8555 5.10156H52.982" stroke="black" stroke-width="1.5" stroke-miterlimit="10" stroke-linecap="round" stroke-linejoin="round"/>
<defs>
<clipPath id="clip0_4606_8650">
<rect width="29.5" height="27.5" fill="white" transform="translate(10)"/>
</clipPath>
</defs>
</svg>
