<svg width="60" height="60" viewBox="0 0 60 60" fill="none" xmlns="http://www.w3.org/2000/svg">
<rect width="60" height="60" rx="30" fill="white"/>
<path d="M29.0257 58.12C28.9901 59.1484 28.1266 59.9591 27.1024 59.8597C23.8087 59.5401 20.5861 58.6773 17.5667 57.3022C13.9813 55.6695 10.7526 53.3465 8.06499 50.466C5.37736 47.5854 3.28342 44.2037 1.90271 40.5139C0.739954 37.4066 0.10221 34.132 0.0113172 30.824C-0.0169449 29.7954 0.851627 28.9901 1.87997 29.0257V29.0257C2.90831 29.0614 3.70616 29.9247 3.74348 30.953C3.84577 33.7713 4.40135 36.5591 5.39258 39.208C6.60179 42.4395 8.43565 45.4012 10.7895 47.9239C13.1433 50.4467 15.9709 52.4812 19.111 53.9111C21.685 55.0833 24.4275 55.8305 27.2321 56.1276C28.2553 56.236 29.0614 57.0917 29.0257 58.12V58.12Z" fill="#02903C"/>
<path d="M26.688 28.16L29.152 27.136V36H31.136V24.8H30.064L26.192 26.576L26.688 28.16Z" fill="#252117"/>
</svg>
