<svg width="16" height="16" viewBox="0 0 16 16" fill="none" xmlns="http://www.w3.org/2000/svg">
<path fill-rule="evenodd" clip-rule="evenodd" d="M0.667969 8.66797H2.03792C2.34535 11.449 4.55356 13.6573 7.33463 13.9647V15.3346H8.66797V13.9647C11.449 13.6573 13.6573 11.449 13.9647 8.66797H15.3346V7.33463H13.9647C13.6573 4.55356 11.449 2.34535 8.66797 2.03792V0.667969H7.33463V2.03792C4.55356 2.34535 2.34535 4.55356 2.03792 7.33463H0.667969V8.66797ZM3.33594 8.00163C3.33594 5.4243 5.42528 3.33496 8.0026 3.33496C10.5799 3.33496 12.6693 5.4243 12.6693 8.00163C12.6693 10.579 10.5799 12.6683 8.0026 12.6683C5.42528 12.6683 3.33594 10.579 3.33594 8.00163ZM8.0026 5.33496C9.47536 5.33496 10.6693 6.52887 10.6693 8.00163C10.6693 9.47439 9.47536 10.6683 8.0026 10.6683C6.52984 10.6683 5.33594 9.47439 5.33594 8.00163C5.33594 6.52887 6.52984 5.33496 8.0026 5.33496ZM6.66797 8.0013C6.66797 7.26492 7.26492 6.66797 8.0013 6.66797C8.73768 6.66797 9.33463 7.26492 9.33463 8.0013C9.33463 8.73768 8.73768 9.33463 8.0013 9.33463C7.26492 9.33463 6.66797 8.73768 6.66797 8.0013Z" fill="#C8C8C8"/>
</svg>
