<svg width="341" height="376" viewBox="0 0 341 376" fill="none" xmlns="http://www.w3.org/2000/svg">
<rect x="0.5" y="0.5" width="340" height="375" rx="11.5" fill="white"/>
<path d="M219.421 170.591V148.593C219.421 144.431 215.854 140.864 211.692 140.864H140.941L137.374 130.756C136.185 127.784 133.212 126 130.24 126H98.729C94.5672 126 91 128.973 91 133.729V141.458V156.916V249.07L122.511 175.941C123.7 172.969 126.672 171.185 129.645 171.185H219.421V170.591Z" fill="black"/>
<path d="M219.422 170.592V248.477L248.554 181.294C250.933 175.943 246.771 170.592 241.42 170.592H219.422Z" fill="white"/>
<path d="M219.422 170.592V248.477L248.554 181.294C250.933 175.943 246.771 170.592 241.42 170.592H219.422Z" fill="url(#paint0_linear_2950_30902)" fill-opacity="0.8"/>
<path d="M219.422 170.592V248.477L248.554 181.294C250.933 175.943 246.771 170.592 241.42 170.592H219.422Z" fill="url(#paint1_linear_2950_30902)" fill-opacity="0.8"/>
<path d="M122.511 175.346L91 249.069H219.421V170.59H129.645C126.672 170.59 123.7 172.968 122.511 175.346Z" fill="white"/>
<path d="M122.511 175.346L91 249.069H219.421V170.59H129.645C126.672 170.59 123.7 172.968 122.511 175.346Z" fill="url(#paint2_linear_2950_30902)" fill-opacity="0.8"/>
<path d="M122.511 175.346L91 249.069H219.421V170.59H129.645C126.672 170.59 123.7 172.968 122.511 175.346Z" fill="url(#paint3_linear_2950_30902)" fill-opacity="0.8"/>
<rect x="0.5" y="0.5" width="340" height="375" rx="11.5" stroke="#E2E8F0"/>
<defs>
<linearGradient id="paint0_linear_2950_30902" x1="249.239" y1="248.477" x2="197.228" y2="228.564" gradientUnits="userSpaceOnUse">
<stop stop-color="#252117"/>
<stop offset="1" stop-opacity="0"/>
</linearGradient>
<linearGradient id="paint1_linear_2950_30902" x1="219.422" y1="170.592" x2="271.184" y2="190.793" gradientUnits="userSpaceOnUse">
<stop offset="0.484375" stop-color="#D1CDB2"/>
<stop offset="1" stop-opacity="0"/>
</linearGradient>
<linearGradient id="paint2_linear_2950_30902" x1="219.421" y1="249.069" x2="149.583" y2="134.789" gradientUnits="userSpaceOnUse">
<stop stop-color="#252117"/>
<stop offset="1" stop-opacity="0"/>
</linearGradient>
<linearGradient id="paint3_linear_2950_30902" x1="91" y1="170.59" x2="158.912" y2="283.876" gradientUnits="userSpaceOnUse">
<stop offset="0.484375" stop-color="#D1CDB2"/>
<stop offset="1" stop-opacity="0"/>
</linearGradient>
</defs>
</svg>
