<svg width="60" height="60" viewBox="0 0 60 60" fill="none" xmlns="http://www.w3.org/2000/svg">
<rect width="60" height="60" rx="30" fill="white"/>
<path d="M29.0257 58.12C28.9901 59.1484 28.1265 59.9591 27.1023 59.8597C21.8381 59.3489 16.7903 57.4538 12.4792 54.352C7.6628 50.8867 3.98217 46.071 1.90271 40.5139C-0.176744 34.9568 -0.561625 28.9078 0.796741 23.132C2.15511 17.3561 5.19571 12.1128 9.53404 8.06499C13.8724 4.01721 19.3136 1.34679 25.1696 0.39143C31.0256 -0.563929 37.0335 0.238678 42.4333 2.69776C47.8332 5.15684 52.3826 9.16194 55.5062 14.2066C58.3022 18.7221 59.8435 23.8889 59.9887 29.1759C60.0169 30.2045 59.1484 31.0099 58.12 30.9743C57.0917 30.9386 56.2938 30.0753 56.2565 29.047C56.0914 24.4974 54.7461 20.057 52.3382 16.1682C49.6025 11.7502 45.6182 8.24252 40.889 6.08887C36.1599 3.93523 30.8982 3.23231 25.7696 4.06901C20.6409 4.90571 15.8755 7.24444 12.076 10.7895C8.27656 14.3345 5.61362 18.9266 4.42398 23.985C3.23433 29.0435 3.5714 34.3411 5.39258 39.208C7.21375 44.0749 10.4372 48.2925 14.6554 51.3273C18.3682 53.9986 22.7048 55.648 27.232 56.1276C28.2553 56.236 29.0614 57.0917 29.0257 58.12Z" fill="#02903C"/>
<path d="M28.464 32.464C29.2427 32.464 29.872 32.24 30.352 31.792C30.832 31.344 31.072 30.8427 31.072 30.288C31.072 29.7013 30.8533 29.216 30.416 28.832C29.9787 28.448 29.4453 28.256 28.816 28.256C28.208 28.256 27.6907 28.3947 27.264 28.672L26.416 27.584L29.856 24.448H25.024V22.8H32.72V24L29.504 26.832C30.464 26.832 31.296 27.1627 32 27.824C32.7147 28.4853 33.072 29.3013 33.072 30.272C33.072 31.3813 32.6507 32.3093 31.808 33.056C30.976 33.8027 29.856 34.176 28.448 34.176C26.752 34.176 25.424 33.7387 24.464 32.864L25.52 31.584C26.3947 32.1707 27.376 32.464 28.464 32.464Z" fill="#252117"/>
</svg>
