<svg width="60" height="60" viewBox="0 0 60 60" fill="none" xmlns="http://www.w3.org/2000/svg">
<rect width="60" height="60" rx="30" fill="white"/>
<path d="M29.0257 58.12C28.9901 59.1484 28.1264 59.9591 27.1022 59.8598C19.8452 59.1558 13.0679 55.828 8.06499 50.466C2.63708 44.6484 -0.257511 36.9129 0.0179896 28.9612C0.29349 21.0095 3.71652 13.4929 9.53404 8.06499C14.8961 3.06208 21.8875 0.211305 29.1757 0.0112744C30.2043 -0.0169552 31.0099 0.851627 30.9743 1.87997C30.9386 2.90831 30.0752 3.70615 29.0469 3.74343C22.7474 3.97185 16.7153 6.46088 12.076 10.7895C6.9811 15.5432 3.98323 22.1262 3.74195 29.0902C3.50067 36.0543 6.03574 42.829 10.7895 47.924C15.1181 52.5632 20.9633 55.4638 27.232 56.1276C28.2552 56.236 29.0614 57.0917 29.0257 58.12Z" fill="#02903C"/>
<path d="M31.576 33.968C32.632 33.04 33.752 31.888 33.752 30.16C33.752 28 32.168 26.624 29.752 26.624C26.664 26.624 25.704 28.768 25.704 30.128H27.672C27.672 29.392 28.088 28.336 29.752 28.336C31 28.336 31.8 29.024 31.8 30.176C31.8 31.136 31.064 32 30.264 32.688L25.8 36.752L26.024 38H34.152V36.368H30.92C30.76 36.368 29.384 36.384 28.776 36.448C28.776 36.432 28.776 36.416 28.776 36.416L31.576 33.968Z" fill="#252117"/>
</svg>
