<svg width="35" height="35" viewBox="0 0 35 35" fill="none" xmlns="http://www.w3.org/2000/svg">
<rect x="0.0703125" width="34.07" height="34.07" rx="4" fill="#C8C8C8"/>
<path d="M23.1406 26.5352H11.1406C10.6102 26.5352 10.1015 26.335 9.72641 25.9787C9.35134 25.6223 9.14062 25.1391 9.14062 24.6352V9.43516C9.14062 8.93124 9.35134 8.44797 9.72641 8.09165C10.1015 7.73533 10.6102 7.53516 11.1406 7.53516H23.1406C23.6711 7.53516 24.1798 7.73533 24.5548 8.09165C24.9299 8.44797 25.1406 8.93124 25.1406 9.43516V24.6352C25.1406 25.1391 24.9299 25.6223 24.5548 25.9787C24.1798 26.335 23.6711 26.5352 23.1406 26.5352ZM11.1406 9.43516V24.6352H23.1406V9.43516H11.1406Z" fill="white"/>
<path d="M5.47396 24.5352H2.14062V22.6602H5.47396V11.4102H2.14062V9.53516H5.47396C5.91599 9.53516 6.33991 9.7327 6.65247 10.0843C6.96503 10.436 7.14062 10.9129 7.14062 11.4102V22.6602C7.14062 23.1574 6.96503 23.6344 6.65247 23.986C6.33991 24.3376 5.91599 24.5352 5.47396 24.5352Z" fill="white"/>
<path d="M32.1406 24.5352H28.1406C27.6102 24.5352 27.1015 24.3376 26.7264 23.986C26.3513 23.6344 26.1406 23.1574 26.1406 22.6602V11.4102C26.1406 10.9129 26.3513 10.436 26.7264 10.0843C27.1015 9.7327 27.6102 9.53516 28.1406 9.53516H32.1406V11.4102H28.1406V22.6602H32.1406V24.5352Z" fill="white"/>
</svg>
