<svg width="16" height="17" viewBox="0 0 16 17" fill="none" xmlns="http://www.w3.org/2000/svg">
<path d="M8 0.5C3.584 0.5 0 4.084 0 8.5C0 12.916 3.584 16.5 8 16.5C12.416 16.5 16 12.916 16 8.5C16 4.084 12.416 0.5 8 0.5ZM8 14.9C4.472 14.9 1.6 12.028 1.6 8.5C1.6 4.972 4.472 2.1 8 2.1C11.528 2.1 14.4 4.972 14.4 8.5C14.4 12.028 11.528 14.9 8 14.9ZM3.6 12.9L9.608 10.108L12.4 4.1L6.392 6.892L3.6 12.9ZM8 7.62C8.488 7.62 8.88 8.012 8.88 8.5C8.88 8.988 8.488 9.38 8 9.38C7.512 9.38 7.12 8.988 7.12 8.5C7.12 8.012 7.512 7.62 8 7.62Z" fill="#C8C8C8"/>
</svg>