<svg width="20" height="17" viewBox="0 0 20 17" fill="none" xmlns="http://www.w3.org/2000/svg">
<path d="M19.541 16.1688C19.6817 16.0347 19.7934 15.8753 19.8695 15.6999C19.9457 15.5245 19.9849 15.3365 19.9849 15.1466C19.9849 14.9567 19.9457 14.7686 19.8695 14.5932C19.7934 14.4178 19.6817 14.2584 19.541 14.1243L13.6661 8.49827L19.5562 2.87224C19.6967 2.738 19.8082 2.57862 19.8842 2.40323C19.9603 2.22783 19.9995 2.03984 19.9995 1.84998C19.9995 1.66013 19.9603 1.47214 19.8842 1.29674C19.8082 1.12135 19.6967 0.961974 19.5562 0.827729C19.4156 0.693485 19.2488 0.586996 19.0651 0.514344C18.8815 0.441691 18.6847 0.404297 18.4859 0.404297C18.2872 0.404297 18.0904 0.441691 17.9067 0.514344C17.7231 0.586996 17.5562 0.693485 17.4157 0.827729L10.4479 7.48327C10.3071 7.61741 10.1955 7.77675 10.1193 7.95216C10.0431 8.12758 10.0039 8.31562 10.0039 8.50552C10.0039 8.69543 10.0431 8.88347 10.1193 9.05888C10.1955 9.23429 10.3071 9.39363 10.4479 9.52778L17.4157 16.1833C17.9926 16.7343 18.9489 16.7343 19.541 16.1688Z" fill="#A0AFBF"/>
<path d="M9.53706 16.1688C9.67779 16.0347 9.78944 15.8753 9.86562 15.6999C9.9418 15.5245 9.98101 15.3365 9.98101 15.1466C9.98101 14.9567 9.9418 14.7686 9.86562 14.5932C9.78944 14.4178 9.67779 14.2584 9.53706 14.1243L3.66221 8.49827L9.55224 2.87224C9.83608 2.60112 9.99555 2.23341 9.99555 1.84998C9.99555 1.46656 9.83608 1.09885 9.55224 0.827729C9.2684 0.55661 8.88343 0.404297 8.48202 0.404297C8.08061 0.404297 7.69563 0.55661 7.41179 0.827729L0.443945 7.48327C0.303216 7.61741 0.191567 7.77675 0.115389 7.95216C0.0392115 8.12758 0 8.31562 0 8.50552C0 8.69543 0.0392115 8.88347 0.115389 9.05888C0.191567 9.23429 0.303216 9.39363 0.443945 9.52778L7.41179 16.1833C7.98865 16.7343 8.94502 16.7343 9.53706 16.1688Z" fill="#A0AFBF"/>
</svg>