<svg width="15" height="13" viewBox="0 0 15 13" fill="none" xmlns="http://www.w3.org/2000/svg">
<path d="M2.85242 6.6C2.05242 6.6 1.45242 7.2 1.45242 8C1.45242 8.8 2.05242 9.4 2.85242 9.4H6.45242V10.3C6.45242 11.3 7.25243 12.1 8.25243 12.1C9.25243 12.1 10.0524 11.3 10.0524 10.3V9.4V6.6V3.8V1H2.85242C2.05242 1 1.45242 1.6 1.45242 2.4C1.45242 3.2 2.05242 3.8 2.85242 3.8C2.05242 3.8 1.45242 4.4 1.45242 5.2C1.35242 5.9 2.05242 6.6 2.85242 6.6Z" stroke="#C82C20" stroke-width="1.5" stroke-miterlimit="10" stroke-linecap="round" stroke-linejoin="round"/>
<path d="M13.7522 1H10.0522V9.7H13.7522V1Z" stroke="#C82C20" stroke-width="1.5" stroke-miterlimit="10" stroke-linecap="round" stroke-linejoin="round"/>
</svg>
