<svg width="15" height="13" viewBox="0 0 15 13" fill="none" xmlns="http://www.w3.org/2000/svg">
<path d="M2.40955 6.6C1.60955 6.6 1.00955 7.2 1.00955 8C1.00955 8.8 1.60955 9.4 2.40955 9.4H6.00955V10.3C6.00955 11.3 6.80955 12.1 7.80955 12.1C8.80955 12.1 9.60955 11.3 9.60955 10.3V9.4V6.6V3.8V1H2.40955C1.60955 1 1.00955 1.6 1.00955 2.4C1.00955 3.2 1.60955 3.8 2.40955 3.8C1.60955 3.8 1.00955 4.4 1.00955 5.2C0.909553 5.9 1.60955 6.6 2.40955 6.6Z" fill="#FBCFCC" stroke="#F8938B" stroke-width="1.5" stroke-miterlimit="10" stroke-linecap="round" stroke-linejoin="round"/>
<path d="M13.3094 1H9.60938V9.7H13.3094V1Z" fill="#FBCFCC" stroke="#F8938B" stroke-width="1.5" stroke-miterlimit="10" stroke-linecap="round" stroke-linejoin="round"/>
</svg>
