<svg width="16" height="12" viewBox="0 0 16 12" fill="none" xmlns="http://www.w3.org/2000/svg">
<g clip-path="url(#clip0_4793:8525)">
<path d="M11.6734 10.1571C9.92402 11.209 8.48383 11.3692 6.86199 10.6922C6.16297 10.4024 5.42936 9.95735 4.58546 9.3104C3.89253 8.34663 3.52175 7.17778 3.52867 5.97896C3.53559 4.78014 3.91984 3.6159 4.62385 2.66067C5.45153 2.02818 6.17541 1.59484 6.86253 1.30836C8.48437 0.63137 9.92402 0.791021 11.674 1.8435C11.7237 1.87334 11.7786 1.89282 11.8356 1.90082C11.8926 1.90882 11.9506 1.90519 12.0063 1.89013C12.0619 1.87507 12.1141 1.84888 12.1599 1.81306C12.2057 1.77724 12.2443 1.73248 12.2733 1.68134C12.3023 1.63021 12.3212 1.57369 12.329 1.51503C12.3367 1.45637 12.3332 1.3967 12.3186 1.33944C12.3039 1.28218 12.2785 1.22845 12.2437 1.18131C12.2089 1.13417 12.1654 1.09455 12.1157 1.06471C10.1322 -0.126835 8.41084 -0.30985 6.53329 0.473387C4.85307 1.1743 3.0139 2.64287 0.18649 5.53829C0.127384 5.59881 0.0804826 5.67076 0.0484788 5.75C0.016475 5.82923 0 5.91419 0 6C0 6.0858 0.016475 6.17076 0.0484788 6.24999C0.0804826 6.32923 0.127384 6.40118 0.18649 6.4617C3.0139 9.35879 4.85307 10.8263 6.53329 11.5272C7.29015 11.8415 8.0162 12.0006 8.74981 12C9.8386 12 10.9317 11.6484 12.1178 10.9347C12.2182 10.8745 12.2912 10.7756 12.3207 10.66C12.3503 10.5444 12.334 10.4214 12.2754 10.3181C12.2168 10.2148 12.1208 10.1397 12.0084 10.1093C11.896 10.0789 11.7765 10.0957 11.6761 10.1559L11.6734 10.1571Z" fill="#C8C8C8"/>
<path d="M15.9145 1.59375C15.6766 1.67775 15.4355 1.76397 15.2041 1.87189L15.029 1.95199C14.9711 1.97925 14.9154 2.0104 14.8581 2.03988C14.7457 2.10052 14.6289 2.15726 14.5175 2.22179C14.0706 2.48086 13.6411 2.77059 13.232 3.08902C12.8227 3.40721 12.434 3.74821 12.0556 4.10089L11.7799 4.37124C11.6869 4.46136 11.5961 4.55203 11.5096 4.64437L11.2425 4.92251L10.9798 5.20065C10.6689 5.54053 10.3343 5.86039 10.0137 6.18859C9.9753 6.15522 9.93638 6.1224 9.89745 6.09069C9.66445 5.90402 9.41031 5.74712 9.14059 5.62342C8.87426 5.49978 8.59266 5.41443 8.30372 5.36976C8.23128 5.35919 8.15722 5.35251 8.08477 5.34695C8.01233 5.34139 7.93664 5.34194 7.8642 5.34361C7.79037 5.34671 7.71675 5.35377 7.64363 5.36475C7.57044 5.37837 7.4982 5.39695 7.42739 5.42038L7.39062 5.61674C7.44036 5.67237 7.48848 5.71298 7.53281 5.76082C7.57714 5.80866 7.62093 5.85427 7.66255 5.90267C7.74581 5.99779 7.82474 6.09125 7.89772 6.18581C7.93448 6.23421 7.97124 6.27927 8.00584 6.32655C8.04044 6.37383 8.07612 6.42112 8.11018 6.46729C8.14424 6.51346 8.17668 6.56297 8.20911 6.6097C8.24155 6.65642 8.27237 6.70482 8.30426 6.74988C8.42806 6.93679 8.54213 7.12091 8.64161 7.30059C8.73537 7.46667 8.81722 7.63958 8.8865 7.81793C8.90542 7.85854 8.91461 7.89748 8.92921 7.9353L8.93948 7.96367L8.94489 7.97758V7.98092L8.9503 7.99316C8.96039 8.01504 8.9712 8.03618 8.98273 8.05657C9.07601 8.23041 9.20929 8.37805 9.37089 8.48657C9.61217 8.64871 9.90215 8.71596 10.1877 8.67602C10.4732 8.63607 10.7352 8.4916 10.9257 8.26907C10.9414 8.25127 10.956 8.23291 10.9706 8.21344L10.9857 8.19397L10.9998 8.17506L11.0279 8.13723C11.1744 7.93409 11.3101 7.72295 11.4344 7.50474C11.5593 7.28557 11.6788 7.06529 11.8015 6.84611C11.9242 6.62694 12.0529 6.41389 12.1891 6.20806L12.394 5.89877L12.6016 5.59338C12.7384 5.38756 12.8806 5.18952 13.0211 4.98759C13.1617 4.78567 13.3044 4.58707 13.4536 4.39405C13.5271 4.29725 13.598 4.19546 13.6742 4.10144L13.9018 3.81441C13.9775 3.71873 14.0575 3.62805 14.1359 3.53627L14.2516 3.39386L14.3743 3.25869C14.4564 3.16968 14.5365 3.07511 14.6213 2.98889C14.7062 2.90267 14.7916 2.81533 14.877 2.72689C14.9625 2.63844 15.0538 2.56 15.143 2.47489C15.1879 2.43373 15.2322 2.39034 15.2782 2.35029L15.4187 2.23236L15.5598 2.11442C15.5831 2.0944 15.6063 2.07382 15.6307 2.05435L15.7042 1.99872C15.8026 1.92455 15.9011 1.84945 15.9999 1.77343L15.9145 1.59375ZM9.37306 6.92955L9.36981 6.93401L9.37576 6.92566L9.37306 6.92955Z" fill="#C8C8C8"/>
</g>
<defs>
<clipPath id="clip0_4793:8525">
<rect width="16" height="12" fill="white"/>
</clipPath>
</defs>
</svg>
