<svg width="17" height="16" viewBox="0 0 17 16" fill="none" xmlns="http://www.w3.org/2000/svg">
<path d="M10.5 10.5H6.5C6.23478 10.5 5.98043 10.3946 5.79289 10.2071C5.60536 10.0196 5.5 9.76522 5.5 9.5V8.5C5.5 8.23478 5.60536 7.98043 5.79289 7.79289C5.98043 7.60536 6.23478 7.5 6.5 7.5H10.5C10.7652 7.5 11.0196 7.60536 11.2071 7.79289C11.3946 7.98043 11.5 8.23478 11.5 8.5V9.5C11.5 9.76522 11.3946 10.0196 11.2071 10.2071C11.0196 10.3946 10.7652 10.5 10.5 10.5ZM6.5 8.5V9.5H10.5V8.5H6.5Z" fill="#4BAA73"/>
<path d="M14.5 2H2.5C2.23478 2 1.98043 2.10536 1.79289 2.29289C1.60536 2.48043 1.5 2.73478 1.5 3V5C1.5 5.26522 1.60536 5.51957 1.79289 5.70711C1.98043 5.89464 2.23478 6 2.5 6V14C2.5 14.2652 2.60536 14.5196 2.79289 14.7071C2.98043 14.8946 3.23478 15 3.5 15H13.5C13.7652 15 14.0196 14.8946 14.2071 14.7071C14.3946 14.5196 14.5 14.2652 14.5 14V6C14.7652 6 15.0196 5.89464 15.2071 5.70711C15.3946 5.51957 15.5 5.26522 15.5 5V3C15.5 2.73478 15.3946 2.48043 15.2071 2.29289C15.0196 2.10536 14.7652 2 14.5 2ZM13.5 14H3.5V6H13.5V14ZM14.5 5H2.5V3H14.5V5Z" fill="#4BAA73"/>
</svg>
