<svg width="154" height="154" viewBox="0 0 154 154" fill="none" xmlns="http://www.w3.org/2000/svg">
<circle cx="77" cy="77" r="77" fill="#F0F5F3"/>
<path d="M107.899 67.5761V55.9452C107.899 53.7448 106.013 51.8587 103.813 51.8587H66.4052L64.5191 46.5148C63.8904 44.943 62.3187 44 60.7469 44H44.0865C41.8861 44 40 45.5717 40 48.0865V52.173V60.3461V109.07L56.6604 70.4052C57.2891 68.8335 58.8609 67.8904 60.4326 67.8904H107.899V67.5761Z" fill="black"/>
<path d="M107.898 67.5742V108.754L123.301 73.2325C124.559 70.4033 122.358 67.5742 119.529 67.5742H107.898Z" fill="white"/>
<path d="M107.898 67.5742V108.754L123.301 73.2325C124.559 70.4033 122.358 67.5742 119.529 67.5742H107.898Z" fill="url(#paint0_linear_8660_19215)" fill-opacity="0.8"/>
<path d="M107.898 67.5742V108.754L123.301 73.2325C124.559 70.4033 122.358 67.5742 119.529 67.5742H107.898Z" fill="url(#paint1_linear_8660_19215)" fill-opacity="0.8"/>
<path d="M56.6604 70.089L40 109.068H107.899V67.5742H60.4326C58.8609 67.5742 57.2891 68.8316 56.6604 70.089Z" fill="white"/>
<path d="M56.6604 70.089L40 109.068H107.899V67.5742H60.4326C58.8609 67.5742 57.2891 68.8316 56.6604 70.089Z" fill="url(#paint2_linear_8660_19215)" fill-opacity="0.8"/>
<path d="M56.6604 70.089L40 109.068H107.899V67.5742H60.4326C58.8609 67.5742 57.2891 68.8316 56.6604 70.089Z" fill="url(#paint3_linear_8660_19215)" fill-opacity="0.8"/>
<defs>
<linearGradient id="paint0_linear_8660_19215" x1="123.664" y1="108.754" x2="96.1638" y2="98.2257" gradientUnits="userSpaceOnUse">
<stop stop-color="#252117"/>
<stop offset="1" stop-opacity="0"/>
</linearGradient>
<linearGradient id="paint1_linear_8660_19215" x1="107.898" y1="67.5742" x2="135.266" y2="78.2551" gradientUnits="userSpaceOnUse">
<stop offset="0.484375" stop-color="#4BAA73"/>
<stop offset="1" stop-opacity="0"/>
</linearGradient>
<linearGradient id="paint2_linear_8660_19215" x1="107.899" y1="109.068" x2="70.9742" y2="48.6455" gradientUnits="userSpaceOnUse">
<stop stop-color="#252117"/>
<stop offset="1" stop-opacity="0"/>
</linearGradient>
<linearGradient id="paint3_linear_8660_19215" x1="40" y1="67.5742" x2="75.9068" y2="127.471" gradientUnits="userSpaceOnUse">
<stop offset="0.484375" stop-color="#4BAA73"/>
<stop offset="1" stop-opacity="0"/>
</linearGradient>
</defs>
</svg>
