<svg width="16" height="16" viewBox="0 0 16 16" fill="none" xmlns="http://www.w3.org/2000/svg">
<path d="M7.93893 15.8779C12.3235 15.8779 15.8779 12.3235 15.8779 7.93893C15.8779 3.55438 12.3235 0 7.93893 0C3.55438 0 0 3.55438 0 7.93893C0 12.3235 3.55438 15.8779 7.93893 15.8779Z" fill="#F0F5F3"/>
<path d="M4.03088 9.03832C4.63797 9.03832 5.13011 8.54617 5.13011 7.93908C5.13011 7.33199 4.63797 6.83984 4.03088 6.83984C3.42379 6.83984 2.93164 7.33199 2.93164 7.93908C2.93164 8.54617 3.42379 9.03832 4.03088 9.03832Z" fill="#4BAA73"/>
<path d="M7.93908 9.03832C8.54617 9.03832 9.03832 8.54617 9.03832 7.93908C9.03832 7.33199 8.54617 6.83984 7.93908 6.83984C7.33199 6.83984 6.83984 7.33199 6.83984 7.93908C6.83984 8.54617 7.33199 9.03832 7.93908 9.03832Z" fill="#4BAA73"/>
<path d="M11.9703 9.03832C12.5774 9.03832 13.0696 8.54617 13.0696 7.93908C13.0696 7.33199 12.5774 6.83984 11.9703 6.83984C11.3632 6.83984 10.8711 7.33199 10.8711 7.93908C10.8711 8.54617 11.3632 9.03832 11.9703 9.03832Z" fill="#4BAA73"/>
</svg>
