<svg width="8" height="10" viewBox="0 0 8 10" fill="none" xmlns="http://www.w3.org/2000/svg">
<path d="M2.4 4.19211V3.38431H1.236C1.788 2.419 2.82 1.76873 4 1.76873C5.488 1.76873 6.74 2.8027 7.096 4.19211H7.92C7.548 2.35034 5.936 0.960938 4 0.960938C2.692 0.960938 1.528 1.59909 0.8 2.58056V1.76873H0V4.19211H2.4ZM5.6 5.80769V6.61548H6.764C6.212 7.58079 5.18 8.23106 4 8.23106C2.512 8.23106 1.26 7.19709 0.904 5.80769H0.08C0.452 7.64945 2.064 9.03886 4 9.03886C5.308 9.03886 6.472 8.4007 7.2 7.41923V8.23106H8V5.80769H5.6Z" fill="white"/>
<path d="M2.4 4.19211V3.38431H1.236C1.788 2.419 2.82 1.76873 4 1.76873C5.488 1.76873 6.74 2.8027 7.096 4.19211H7.92C7.548 2.35034 5.936 0.960938 4 0.960938C2.692 0.960938 1.528 1.59909 0.8 2.58056V1.76873H0V4.19211H2.4ZM5.6 5.80769V6.61548H6.764C6.212 7.58079 5.18 8.23106 4 8.23106C2.512 8.23106 1.26 7.19709 0.904 5.80769H0.08C0.452 7.64945 2.064 9.03886 4 9.03886C5.308 9.03886 6.472 8.4007 7.2 7.41923V8.23106H8V5.80769H5.6Z" fill="url(#paint0_linear_9670_39490)" fill-opacity="0.8"/>
<path d="M2.4 4.19211V3.38431H1.236C1.788 2.419 2.82 1.76873 4 1.76873C5.488 1.76873 6.74 2.8027 7.096 4.19211H7.92C7.548 2.35034 5.936 0.960938 4 0.960938C2.692 0.960938 1.528 1.59909 0.8 2.58056V1.76873H0V4.19211H2.4ZM5.6 5.80769V6.61548H6.764C6.212 7.58079 5.18 8.23106 4 8.23106C2.512 8.23106 1.26 7.19709 0.904 5.80769H0.08C0.452 7.64945 2.064 9.03886 4 9.03886C5.308 9.03886 6.472 8.4007 7.2 7.41923V8.23106H8V5.80769H5.6Z" fill="url(#paint1_linear_9670_39490)" fill-opacity="0.8"/>
<defs>
<linearGradient id="paint0_linear_9670_39490" x1="8" y1="9.03886" x2="-0.0775396" y2="1.03923" gradientUnits="userSpaceOnUse">
<stop stop-color="#252117"/>
<stop offset="1" stop-opacity="0"/>
</linearGradient>
<linearGradient id="paint1_linear_9670_39490" x1="0" y1="0.960938" x2="7.9252" y2="8.96205" gradientUnits="userSpaceOnUse">
<stop offset="0.484375" stop-color="#4BAA73"/>
<stop offset="1" stop-opacity="0"/>
</linearGradient>
</defs>
</svg>
