<svg width="14" height="18" viewBox="0 0 14 18" fill="none" xmlns="http://www.w3.org/2000/svg">
<path fill-rule="evenodd" clip-rule="evenodd" d="M13.8899 17.2451H0.889893C0.889893 13.6997 3.79072 10.7988 7.33617 10.7988C10.9891 10.7988 13.8899 13.6997 13.8899 17.2451Z" fill="#C8C8C8"/>
<path d="M7.33588 2.31079C8.94745 2.31079 10.3441 3.60005 10.3441 5.31905C10.3441 6.93062 9.05489 8.32732 7.33588 8.32732C5.61687 8.32732 4.43506 6.93062 4.43506 5.31905C4.43506 3.60005 5.72431 2.31079 7.33588 2.31079ZM7.33588 0.699219C4.86481 0.699219 2.82349 2.74054 2.82349 5.31905C2.82349 7.89757 4.86481 9.93889 7.44332 9.93889C10.0218 9.93889 12.0632 7.89757 12.0632 5.31905C11.9557 2.74054 9.9144 0.699219 7.33588 0.699219Z" fill="#C8C8C8"/>
</svg>
