<svg width="35" height="35" viewBox="0 0 35 35" fill="none" xmlns="http://www.w3.org/2000/svg">
<path d="M13.4032 9.82423L10.6672 8.91123C10.3665 8.81108 10.0463 8.78382 9.73306 8.83169C9.4198 8.87956 9.12239 9.00118 8.86535 9.18654C8.6083 9.3719 8.39899 9.61569 8.25465 9.89781C8.11031 10.1799 8.03508 10.4923 8.03516 10.8092V22.5922C8.03506 23.0122 8.16713 23.4215 8.41267 23.7621C8.65821 24.1028 9.00474 24.3575 9.40316 24.4902L13.4032 25.8232C13.8134 25.9599 14.2569 25.9599 14.6672 25.8232L19.4032 24.2452C19.8134 24.1086 20.2569 24.1086 20.6672 24.2452L23.4032 25.1572C23.7039 25.2574 24.0242 25.2846 24.3375 25.2367C24.6508 25.1888 24.9483 25.0671 25.2054 24.8816C25.4624 24.6961 25.6717 24.4522 25.816 24.17C25.9603 23.8877 26.0354 23.5752 26.0352 23.2582V11.4762C26.0353 11.0564 25.9034 10.6472 25.658 10.3066C25.4127 9.9659 25.0664 9.7111 24.6682 9.57823L20.6682 8.24523C20.2576 8.10836 19.8137 8.10836 19.4032 8.24523L14.6662 9.82323C14.2559 9.95987 13.8124 9.95987 13.4022 9.82323L13.4032 9.82423Z" stroke="#EBEBEB" stroke-width="1.5" stroke-linecap="round" stroke-linejoin="round"/>
<path d="M14.0352 10.0352V26.0352" stroke="#EBEBEB" stroke-width="1.5" stroke-linejoin="round"/>
<path d="M20.0352 8.03516V24.0352" stroke="#EBEBEB" stroke-width="1.5" stroke-linejoin="round"/>
</svg>
