<svg width="35" height="35" viewBox="0 0 35 35" fill="none" xmlns="http://www.w3.org/2000/svg">
<path d="M23.5 27H11.5C10.9696 27 10.4609 26.7998 10.0858 26.4435C9.71071 26.0872 9.5 25.6039 9.5 25.1V9.9C9.5 9.39609 9.71071 8.91282 10.0858 8.5565C10.4609 8.20018 10.9696 8 11.5 8H23.5C24.0304 8 24.5391 8.20018 24.9142 8.5565C25.2893 8.91282 25.5 9.39609 25.5 9.9V25.1C25.5 25.6039 25.2893 26.0872 24.9142 26.4435C24.5391 26.7998 24.0304 27 23.5 27ZM11.5 9.9V25.1H23.5V9.9H11.5Z" fill="#EBEBEB"/>
<path d="M5.83333 25H2.5V23.125H5.83333V11.875H2.5V10H5.83333C6.27536 10 6.69928 10.1975 7.01184 10.5492C7.32441 10.9008 7.5 11.3777 7.5 11.875V23.125C7.5 23.6223 7.32441 24.0992 7.01184 24.4508C6.69928 24.8025 6.27536 25 5.83333 25Z" fill="#EBEBEB"/>
<path d="M32.5 25H28.5C27.9696 25 27.4609 24.8025 27.0858 24.4508C26.7107 24.0992 26.5 23.6223 26.5 23.125V11.875C26.5 11.3777 26.7107 10.9008 27.0858 10.5492C27.4609 10.1975 27.9696 10 28.5 10H32.5V11.875H28.5V23.125H32.5V25Z" fill="#EBEBEB"/>
</svg>
