<svg width="18" height="18" viewBox="0 0 18 18" fill="none" xmlns="http://www.w3.org/2000/svg">
<g clip-path="url(#clip0)">
<path d="M9.49697 4.81745C11.7906 4.81745 13.5446 6.70634 13.5446 8.86507C13.5446 11.0238 11.6557 12.9127 9.49697 12.9127C7.33824 12.9127 5.44935 11.0238 5.44935 8.86507C5.44935 6.70634 7.20331 4.81745 9.49697 4.81745ZM9.49697 2.79364C6.12395 2.79364 3.42554 5.49205 3.42554 8.86507C3.42554 12.2381 6.12395 14.9365 9.49697 14.9365C12.87 14.9365 15.5684 12.2381 15.5684 8.86507C15.5684 5.49205 12.87 2.79364 9.49697 2.79364Z" fill="#C8C8C8"/>
<path d="M9.49707 3.06349V0.5" stroke="#C8C8C8" stroke-width="2" stroke-miterlimit="10"/>
<path d="M9.49704 4.81745C10.5764 4.81745 11.6558 5.22221 12.3304 6.03173C13.9494 7.65078 13.9494 10.2143 12.3304 11.8333C11.6558 12.6428 10.5764 13.0476 9.49704 13.0476C8.41768 13.0476 7.33831 12.6428 6.52879 11.8333C5.04466 10.2143 5.04466 7.65078 6.52879 6.03173C7.33831 5.35713 8.41768 4.81745 9.49704 4.81745ZM9.49704 2.79364C7.878 2.79364 6.39387 3.46824 5.17958 4.68253C2.75101 7.1111 2.75101 10.8889 5.17958 13.3174C6.39387 14.5317 7.878 15.0714 9.49704 15.0714C11.1161 15.0714 12.6002 14.5317 13.8145 13.3174C16.2431 10.8889 16.2431 7.1111 13.8145 4.68253C12.6002 3.46824 10.9812 2.79364 9.49704 2.79364Z" fill="#C8C8C8"/>
<path d="M5.31443 4.81736L3.42554 2.92847" stroke="#C8C8C8" stroke-width="2" stroke-miterlimit="10"/>
<path d="M9.49697 4.81745C11.7906 4.81745 13.5446 6.70634 13.5446 8.86507C13.5446 11.0238 11.6557 12.9127 9.49697 12.9127C7.33824 12.9127 5.44935 11.0238 5.44935 8.86507C5.44935 6.70634 7.20331 4.81745 9.49697 4.81745ZM9.49697 2.79364C6.12395 2.79364 3.42554 5.49205 3.42554 8.86507C3.42554 12.2381 6.12395 14.9365 9.49697 14.9365C12.87 14.9365 15.5684 12.2381 15.5684 8.86507C15.5684 5.49205 12.87 2.79364 9.49697 2.79364Z" fill="#C8C8C8"/>
<path d="M3.56056 8.99994H0.99707" stroke="#C8C8C8" stroke-width="2" stroke-miterlimit="10"/>
<path d="M9.49704 4.81745C10.5764 4.81745 11.6558 5.22221 12.3304 6.03173C13.9494 7.65078 13.9494 10.2143 12.3304 11.8333C11.6558 12.6428 10.5764 13.0476 9.49704 13.0476C8.41768 13.0476 7.33831 12.6428 6.52879 11.8333C5.04466 10.2143 5.04466 7.65078 6.52879 6.03173C7.33831 5.35713 8.41768 4.81745 9.49704 4.81745ZM9.49704 2.79364C7.878 2.79364 6.39387 3.46824 5.17958 4.68253C2.75101 7.1111 2.75101 10.8889 5.17958 13.3174C6.39387 14.5317 7.878 15.0714 9.49704 15.0714C11.1161 15.0714 12.6002 14.5317 13.8145 13.3174C16.2431 10.8889 16.2431 7.1111 13.8145 4.68253C12.6002 3.46824 10.9812 2.79364 9.49704 2.79364Z" fill="#C8C8C8"/>
<path d="M5.31443 13.1826L3.42554 14.9366" stroke="#C8C8C8" stroke-width="2" stroke-miterlimit="10"/>
<path d="M9.49697 4.81745C11.7906 4.81745 13.5446 6.70634 13.5446 8.86507C13.5446 11.0238 11.6557 12.9127 9.49697 12.9127C7.33824 12.9127 5.44935 11.0238 5.44935 8.86507C5.44935 6.70634 7.20331 4.81745 9.49697 4.81745ZM9.49697 2.79364C6.12395 2.79364 3.42554 5.49205 3.42554 8.86507C3.42554 12.2381 6.12395 14.9365 9.49697 14.9365C12.87 14.9365 15.5684 12.2381 15.5684 8.86507C15.5684 5.49205 12.87 2.79364 9.49697 2.79364Z" fill="#C8C8C8"/>
<path d="M9.49707 14.9366V17.5001" stroke="#C8C8C8" stroke-width="2" stroke-miterlimit="10"/>
<path d="M9.49704 4.81745C10.5764 4.81745 11.6558 5.22221 12.3304 6.03173C13.9494 7.65078 13.9494 10.2143 12.3304 11.8333C11.6558 12.6428 10.5764 13.0476 9.49704 13.0476C8.41768 13.0476 7.33831 12.6428 6.52879 11.8333C5.04466 10.2143 5.04466 7.65078 6.52879 6.03173C7.33831 5.35713 8.41768 4.81745 9.49704 4.81745ZM9.49704 2.79364C7.878 2.79364 6.39387 3.46824 5.17958 4.68253C2.75101 7.1111 2.75101 10.8889 5.17958 13.3174C6.39387 14.5317 7.878 15.0714 9.49704 15.0714C11.1161 15.0714 12.6002 14.5317 13.8145 13.3174C16.2431 10.8889 16.2431 7.1111 13.8145 4.68253C12.6002 3.46824 10.9812 2.79364 9.49704 2.79364Z" fill="#C8C8C8"/>
<path d="M13.6797 13.1826L15.4337 14.9366" stroke="#C8C8C8" stroke-width="2" stroke-miterlimit="10"/>
<path d="M9.49697 4.81745C11.7906 4.81745 13.5446 6.70634 13.5446 8.86507C13.5446 11.0238 11.6557 12.9127 9.49697 12.9127C7.33824 12.9127 5.44935 11.0238 5.44935 8.86507C5.44935 6.70634 7.20331 4.81745 9.49697 4.81745ZM9.49697 2.79364C6.12395 2.79364 3.42554 5.49205 3.42554 8.86507C3.42554 12.2381 6.12395 14.9365 9.49697 14.9365C12.87 14.9365 15.5684 12.2381 15.5684 8.86507C15.5684 5.49205 12.87 2.79364 9.49697 2.79364Z" fill="#C8C8C8"/>
<path d="M15.4336 8.99994H17.9971" stroke="#C8C8C8" stroke-width="2" stroke-miterlimit="10"/>
<path d="M9.49704 4.81745C10.5764 4.81745 11.6558 5.22221 12.3304 6.03173C13.9494 7.65078 13.9494 10.2143 12.3304 11.8333C11.6558 12.6428 10.5764 13.0476 9.49704 13.0476C8.41768 13.0476 7.33831 12.6428 6.52879 11.8333C5.04466 10.2143 5.04466 7.65078 6.52879 6.03173C7.33831 5.35713 8.41768 4.81745 9.49704 4.81745ZM9.49704 2.79364C7.878 2.79364 6.39387 3.46824 5.17958 4.68253C2.75101 7.1111 2.75101 10.8889 5.17958 13.3174C6.39387 14.5317 7.878 15.0714 9.49704 15.0714C11.1161 15.0714 12.6002 14.5317 13.8145 13.3174C16.2431 10.8889 16.2431 7.1111 13.8145 4.68253C12.6002 3.46824 10.9812 2.79364 9.49704 2.79364Z" fill="#C8C8C8"/>
<path d="M13.6797 4.81736L15.4337 2.92847" stroke="#C8C8C8" stroke-width="2" stroke-miterlimit="10"/>
</g>
<defs>
<clipPath id="clip0">
<rect width="17" height="17" fill="white" transform="translate(0.99707 0.5)"/>
</clipPath>
</defs>
</svg>
