<svg width="15" height="13" viewBox="0 0 15 13" fill="none" xmlns="http://www.w3.org/2000/svg">
<path d="M11.8996 6.5C12.6996 6.5 13.2996 5.9 13.2996 5.1C13.2996 4.3 12.6996 3.7 11.8996 3.7H8.19961V2.8C8.19961 1.8 7.39961 1 6.39961 1C5.39961 1 4.59961 1.8 4.59961 2.8V3.7V6.5V9.3V12.1H11.7996C12.5996 12.1 13.1996 11.5 13.1996 10.7C13.1996 9.9 12.5996 9.3 11.7996 9.3C12.5996 9.3 13.1996 8.7 13.1996 7.9C13.2996 7.1 12.5996 6.5 11.8996 6.5Z" fill="#CAF9CC" stroke="#02903C" stroke-width="1.5" stroke-miterlimit="10" stroke-linecap="round" stroke-linejoin="round"/>
<path d="M4.7 3.40039H1V12.1004H4.7V3.40039Z" fill="#CAF9CC" stroke="#02903C" stroke-width="1.5" stroke-miterlimit="10" stroke-linecap="round" stroke-linejoin="round"/>
</svg>
