<svg width="15" height="13" viewBox="0 0 15 13" fill="none" xmlns="http://www.w3.org/2000/svg">
<path d="M12.343 6.5C13.143 6.5 13.743 5.9 13.743 5.1C13.743 4.3 13.143 3.7 12.343 3.7H8.64297V2.8C8.64297 1.8 7.84297 1 6.84297 1C5.84297 1 5.04297 1.8 5.04297 2.8V3.7V6.5V9.3V12.1H12.243C13.043 12.1 13.643 11.5 13.643 10.7C13.643 9.9 13.043 9.3 12.243 9.3C13.043 9.3 13.643 8.7 13.643 7.9C13.743 7.1 13.043 6.5 12.343 6.5Z" stroke="#02903C" stroke-width="1.5" stroke-miterlimit="10" stroke-linecap="round" stroke-linejoin="round"/>
<path d="M5.14287 3.3999H1.44287V12.0999H5.14287V3.3999Z" stroke="#02903C" stroke-width="1.5" stroke-miterlimit="10" stroke-linecap="round" stroke-linejoin="round"/>
</svg>
