<svg width="1440" height="808" viewBox="0 0 1440 808" fill="none" xmlns="http://www.w3.org/2000/svg">
<path fill-rule="evenodd" clip-rule="evenodd" d="M-58.8399 44.7479C-163.185 97.4786 -244.15 188.442 -286.763 256.21L-289 255.312C-246.271 187.359 -165.045 96.0511 -60.1782 43.0569C-7.72714 16.5508 50.6867 -0.394064 113.179 0.0069658C175.685 0.408087 242.154 18.1626 310.697 60.8956C481.561 167.42 640.415 249.111 792.464 287.57C944.45 326.014 1089.62 321.26 1233.24 254.895C1253.86 245.371 1274.91 235.225 1296.33 224.905C1353.72 197.249 1413.72 168.336 1474.83 146.746C1558.77 117.088 1645.08 101.143 1730 121.249L1729.29 123.168C1645.2 103.258 1559.56 118.999 1475.84 148.576C1414.89 170.11 1355.1 198.922 1297.75 226.556C1276.3 236.892 1255.2 247.063 1234.5 256.627C1090.17 323.314 944.261 328.064 791.709 289.478C639.219 250.907 480.077 169.033 309.157 62.4731C240.987 19.9725 175.041 2.4048 113.159 2.00769C51.2627 1.61049 -6.68488 18.3914 -58.8399 44.7479ZM-58.8399 94.7676C-163.185 147.498 -244.15 238.462 -286.763 306.23L-289 305.331C-246.271 237.379 -165.045 146.071 -60.1782 93.0766C-7.72714 66.5705 50.6867 49.6257 113.179 50.0267C175.685 50.4278 242.154 68.1824 310.697 110.915C481.561 217.44 640.415 299.13 792.464 337.59C944.45 376.033 1089.62 371.28 1233.24 304.915C1253.86 295.39 1274.91 285.245 1296.33 274.924C1353.72 247.269 1413.72 218.355 1474.83 196.766C1558.77 167.108 1645.08 151.163 1730 171.269L1729.29 173.187C1645.2 153.278 1559.56 169.019 1475.84 198.596C1414.89 220.13 1355.1 248.941 1297.75 276.576C1276.3 286.911 1255.2 297.083 1234.5 306.647C1090.17 373.334 944.261 378.084 791.709 339.497C639.219 300.926 480.077 219.052 309.157 112.493C240.987 69.9922 175.041 52.4245 113.159 52.0274C51.2627 51.6302 -6.68488 68.4112 -58.8399 94.7676ZM-58.8399 144.787C-163.185 197.518 -244.15 288.482 -286.763 356.25L-289 355.351C-246.271 287.399 -165.045 196.091 -60.1782 143.096C-7.72714 116.59 50.6867 99.6454 113.179 100.046C175.685 100.448 242.154 118.202 310.697 160.935C481.561 267.46 640.415 349.15 792.464 387.61C944.45 426.053 1089.62 421.299 1233.24 354.934C1253.86 345.41 1274.91 335.264 1296.33 324.944C1353.72 297.288 1413.72 268.375 1474.83 246.785C1558.77 217.128 1645.08 201.182 1730 221.289L1729.29 223.207C1645.2 203.297 1559.56 219.038 1475.84 248.615C1414.89 270.15 1355.1 298.961 1297.75 326.595C1276.3 336.931 1255.2 347.102 1234.5 356.666C1090.17 423.354 944.261 428.104 791.709 389.517C639.219 350.946 480.077 269.072 309.157 162.513C240.987 120.012 175.041 102.444 113.159 102.047C51.2627 101.65 -6.68488 118.431 -58.8399 144.787ZM-58.8399 194.807C-163.185 247.538 -244.15 338.501 -286.763 406.269L-289 405.371C-246.271 337.419 -165.045 246.11 -60.1782 193.116C-7.72714 166.61 50.6867 149.665 113.179 150.066C175.685 150.467 242.154 168.222 310.697 210.955C481.561 317.479 640.415 399.17 792.464 437.629C944.45 476.073 1089.62 471.319 1233.24 404.954C1253.86 395.43 1274.91 385.284 1296.33 374.964C1353.72 347.308 1413.72 318.395 1474.83 296.805C1558.77 267.147 1645.08 251.202 1730 271.308L1729.29 273.227C1645.2 253.317 1559.56 269.058 1475.84 298.635C1414.89 320.169 1355.1 348.981 1297.75 376.615C1276.3 386.951 1255.2 397.122 1234.5 406.686C1090.17 473.374 944.261 478.124 791.709 439.537C639.219 400.966 480.077 319.092 309.157 212.532C240.987 170.032 175.041 152.464 113.159 152.067C51.2627 151.67 -6.68488 168.451 -58.8399 194.807ZM-58.8399 244.827C-163.185 297.558 -244.15 388.521 -286.763 456.289L-289 455.391C-246.271 387.438 -165.045 296.13 -60.1782 243.136C-7.72714 216.63 50.6867 199.685 113.179 200.086C175.685 200.487 242.154 218.242 310.697 260.975C481.561 367.499 640.415 449.19 792.464 487.649C944.45 526.093 1089.62 521.339 1233.24 454.974C1253.86 445.449 1274.91 435.304 1296.33 424.983C1353.72 397.328 1413.72 368.414 1474.83 346.825C1558.77 317.167 1645.08 301.222 1730 321.328L1729.29 323.246C1645.2 303.337 1559.56 319.078 1475.84 348.655C1414.89 370.189 1355.1 399 1297.75 426.635C1276.3 436.971 1255.2 447.142 1234.5 456.706C1090.17 523.393 944.261 528.143 791.709 489.557C639.219 450.986 480.077 369.112 309.157 262.552C240.987 220.051 175.041 202.484 113.159 202.087C51.2627 201.689 -6.68488 218.47 -58.8399 244.827ZM-58.8399 294.846C-163.185 347.577 -244.15 438.541 -286.763 506.309L-289 505.41C-246.271 437.458 -165.045 346.15 -60.1782 293.155C-7.72714 266.649 50.6867 249.705 113.179 250.106C175.685 250.507 242.154 268.261 310.697 310.994C481.561 417.519 640.415 499.209 792.464 537.669C944.45 576.112 1089.62 571.359 1233.24 504.993C1253.86 495.469 1274.91 485.324 1296.33 475.003C1353.72 447.348 1413.72 418.434 1474.83 396.845C1558.77 367.187 1645.08 351.242 1730 371.348L1729.29 373.266C1645.2 353.356 1559.56 369.097 1475.84 398.675C1414.89 420.209 1355.1 449.02 1297.75 476.654C1276.3 486.99 1255.2 497.161 1234.5 506.726C1090.17 573.413 944.261 578.163 791.709 539.576C639.219 501.005 480.077 419.131 309.157 312.572C240.987 270.071 175.041 252.503 113.159 252.106C51.2627 251.709 -6.68488 268.49 -58.8399 294.846ZM-58.8399 344.866C-163.185 397.597 -244.15 488.561 -286.763 556.328L-289 555.43C-246.271 487.478 -165.045 396.169 -60.1782 343.175C-7.72714 316.669 50.6867 299.724 113.179 300.125C175.685 300.526 242.154 318.281 310.697 361.014C481.561 467.538 640.415 549.229 792.464 587.688C944.45 626.132 1089.62 621.378 1233.24 555.013C1253.86 545.489 1274.91 535.344 1296.33 525.023C1353.72 497.368 1413.72 468.454 1474.83 446.864C1558.77 417.206 1645.08 401.261 1730 421.367L1729.29 423.286C1645.2 403.376 1559.56 419.117 1475.84 448.694C1414.89 470.228 1355.1 499.04 1297.75 526.674C1276.3 537.01 1255.2 547.181 1234.5 556.745C1090.17 623.433 944.261 628.183 791.709 589.596C639.219 551.025 480.077 469.151 309.157 362.591C240.987 320.091 175.041 302.523 113.159 302.126C51.2627 301.729 -6.68488 318.51 -58.8399 344.866ZM-58.8399 394.886C-163.185 447.617 -244.15 538.58 -286.763 606.348L-289 605.45C-246.271 537.497 -165.045 446.189 -60.1782 393.195C-7.72714 366.689 50.6867 349.744 113.179 350.145C175.685 350.546 242.154 368.301 310.697 411.034C481.561 517.558 640.415 599.249 792.464 637.708C944.45 676.152 1089.62 671.398 1233.24 605.033C1253.86 595.509 1274.91 585.363 1296.33 575.043C1353.72 547.387 1413.72 518.474 1474.83 496.884C1558.77 467.226 1645.08 451.281 1730 471.387L1729.29 473.306C1645.2 453.396 1559.56 469.137 1475.84 498.714C1414.89 520.248 1355.1 549.06 1297.75 576.694C1276.3 587.03 1255.2 597.201 1234.5 606.765C1090.17 673.453 944.261 678.202 791.709 639.616C639.219 601.045 480.077 519.171 309.157 412.611C240.987 370.111 175.041 352.543 113.159 352.146C51.2627 351.749 -6.68488 368.529 -58.8399 394.886ZM-58.8399 444.906C-163.185 497.636 -244.15 588.6 -286.763 656.368L-289 655.47C-246.271 587.517 -165.045 496.209 -60.1782 443.215C-7.72714 416.709 50.6867 399.764 113.179 400.165C175.685 400.566 242.154 418.32 310.697 461.053C481.561 567.578 640.415 649.268 792.464 687.728C944.45 726.171 1089.62 721.418 1233.24 655.053C1253.86 645.528 1274.91 635.383 1296.33 625.062C1353.72 597.407 1413.72 568.493 1474.83 546.904C1558.77 517.246 1645.08 501.301 1730 521.407L1729.29 523.325C1645.2 503.416 1559.56 519.157 1475.84 548.734C1414.89 570.268 1355.1 599.079 1297.75 626.714C1276.3 637.049 1255.2 647.221 1234.5 656.785C1090.17 723.472 944.261 728.222 791.709 689.635C639.219 651.065 480.077 569.19 309.157 462.631C240.987 420.13 175.041 402.563 113.159 402.165C51.2627 401.768 -6.68488 418.549 -58.8399 444.906ZM-58.8399 494.925C-163.185 547.656 -244.15 638.62 -286.763 706.388L-289 705.489C-246.271 637.537 -165.045 546.229 -60.1782 493.234C-7.72714 466.728 50.6867 449.783 113.179 450.184C175.685 450.586 242.154 468.34 310.697 511.073C481.561 617.598 640.415 699.288 792.464 737.748C944.45 776.191 1089.62 771.437 1233.24 705.072C1253.86 695.548 1274.91 685.403 1296.33 675.082C1353.72 647.427 1413.72 618.513 1474.83 596.924C1558.77 567.266 1645.08 551.321 1730 571.427L1729.29 573.345C1645.2 553.435 1559.56 569.176 1475.84 598.753C1414.89 620.288 1355.1 649.099 1297.75 676.733C1276.3 687.069 1255.2 697.24 1234.5 706.804C1090.17 773.492 944.261 778.242 791.709 739.655C639.219 701.084 480.077 619.21 309.157 512.651C240.987 470.15 175.041 452.582 113.159 452.185C51.2627 451.788 -6.68488 468.569 -58.8399 494.925ZM-58.8399 544.945C-163.185 597.676 -244.15 688.64 -286.763 756.407L-289 755.509C-246.271 687.557 -165.045 596.248 -60.1782 543.254C-7.72714 516.748 50.6867 499.803 113.179 500.204C175.685 500.605 242.154 518.36 310.697 561.093C481.561 667.617 640.415 749.308 792.464 787.767C944.45 826.211 1089.62 821.457 1233.24 755.092C1253.86 745.568 1274.91 735.422 1296.33 725.102C1353.72 697.446 1413.72 668.533 1474.83 646.943C1558.77 617.285 1645.08 601.34 1730 621.446L1729.29 623.365C1645.2 603.455 1559.56 619.196 1475.84 648.773C1414.89 670.307 1355.1 699.119 1297.75 726.753C1276.3 737.089 1255.2 747.26 1234.5 756.824C1090.17 823.512 944.261 828.262 791.709 789.675C639.219 751.104 480.077 669.23 309.157 562.67C240.987 520.17 175.041 502.602 113.159 502.205C51.2627 501.808 -6.68488 518.589 -58.8399 544.945Z" fill="#61B684"/>
</svg>
