<svg width="55" height="64" viewBox="0 0 55 64" fill="none" xmlns="http://www.w3.org/2000/svg">
<path d="M1.14003 15.9336L0.164062 16.3239L19.2497 63.3518H20.3341L1.14003 15.9336Z" fill="#94989B"/>
<path d="M22.0676 63.3514L2.65659 15.4453L1.78906 15.738L20.9832 63.3514H22.0676Z" fill="#94989B"/>
<path d="M45.0733 1.58231C27.0721 -3.49124 20.7825 20.5106 2.78125 15.437C6.03448 23.5352 9.28772 31.5358 12.541 39.634C30.5422 44.7075 36.8318 20.7057 54.833 25.7793C51.5798 17.6811 48.3265 9.68049 45.0733 1.58231" fill="#252117"/>
<path d="M1.16016 15.93L1.81087 15.7349L1.16016 15.93Z" fill="#D0D0D0"/>
<path d="M21.0049 63.3482L1.8108 15.7349L1.16016 15.93L20.3542 63.3482H21.0049Z" fill="#D0D0D0"/>
</svg>
