<svg width="55" height="64" viewBox="0 0 55 64" fill="none" xmlns="http://www.w3.org/2000/svg">
<path d="M27.4634 0.874023V27.6501H0.355469V63.3514H27.4634H54.5714V0.874023H27.4634ZM10.2951 47.6258H3.96987V41.6756H10.2951V47.6258ZM10.2951 36.5754H3.96987V30.2002H10.2951V36.5754ZM22.4936 47.6258H15.7167V41.6756H22.0418V47.6258H22.4936ZM22.4936 36.5754H15.7167V30.2002H22.0418V36.5754H22.4936ZM38.7584 33.6003H31.9814V27.225H38.3066V33.6003H38.7584ZM38.7584 22.1248H31.9814V15.7496H38.3066V22.1248H38.7584ZM38.7584 10.6494H31.9814V4.27416H38.3066V10.6494H38.7584ZM50.5052 33.6003H44.18V27.225H50.5052V33.6003ZM50.5052 22.1248H44.18V15.7496H50.5052V22.1248ZM50.5052 10.6494H44.18V4.27416H50.5052V10.6494Z" fill="#252117"/>
</svg>
