<svg width="50" height="56" viewBox="0 0 50 56" fill="none" xmlns="http://www.w3.org/2000/svg">
<path fill-rule="evenodd" clip-rule="evenodd" d="M49.3631 55.8798H0.769531C0.769531 43.9797 11.6127 34.2432 24.8655 34.2432C38.5199 34.2432 49.3631 43.9797 49.3631 55.8798Z" fill="#252117"/>
<path d="M24.8672 5.75389C30.8912 5.75389 36.112 10.0812 36.112 15.851C36.112 21.2602 31.2928 25.9481 24.8672 25.9481C18.4416 25.9481 14.024 21.2602 14.024 15.851C14.024 10.0812 18.8432 5.75389 24.8672 5.75389ZM24.8672 0.344727C15.6304 0.344727 8 7.19633 8 15.851C8 24.5057 15.6304 31.3573 25.2688 31.3573C34.9072 31.3573 42.5376 24.5057 42.5376 15.851C42.136 7.19633 34.5056 0.344727 24.8672 0.344727Z" fill="#252117"/>
</svg>
