<svg width="40" height="40" fill="none" xmlns="http://www.w3.org/2000/svg"><rect width="40" height="40" rx="20" fill="#F0F5F3"/><g clip-path="url(#a)"><path d="M16.58 11.778v16.11h-6.472v-16.11h6.472ZM19.353 9H7.334v21.667h12.02V9Z" fill="#fff"/><path d="M16.58 11.778v16.11h-6.472v-16.11h6.472ZM19.353 9H7.334v21.667h12.02V9Z" fill="url(#b)" fill-opacity=".8"/><path d="M16.58 11.778v16.11h-6.472v-16.11h6.472ZM19.353 9H7.334v21.667h12.02V9Z" fill="url(#c)" fill-opacity=".8"/><path d="M32.668 9h-12.02v8.889h12.02V9Z" fill="#fff"/><path d="M32.668 9h-12.02v8.889h12.02V9Z" fill="url(#d)" fill-opacity=".8"/><path d="M32.668 9h-12.02v8.889h12.02V9Z" fill="url(#e)" fill-opacity=".8"/><path d="M29.894 22.332v5.556h-6.472v-5.556h6.472Zm2.774-2.777h-12.02v11.11h12.02v-11.11Z" fill="#fff"/><path d="M29.894 22.332v5.556h-6.472v-5.556h6.472Zm2.774-2.777h-12.02v11.11h12.02v-11.11Z" fill="url(#f)" fill-opacity=".8"/><path d="M29.894 22.332v5.556h-6.472v-5.556h6.472Zm2.774-2.777h-12.02v11.11h12.02v-11.11Z" fill="url(#g)" fill-opacity=".8"/></g><defs><linearGradient id="b" x1="19.353" y1="30.667" x2=".971" y2="20.469" gradientUnits="userSpaceOnUse"><stop stop-color="#252117"/><stop offset="1" stop-opacity="0"/></linearGradient><linearGradient id="c" x1="7.334" y1="9" x2="25.551" y2="19.302" gradientUnits="userSpaceOnUse"><stop offset=".484" stop-color="#4BAA73"/><stop offset="1" stop-opacity="0"/></linearGradient><linearGradient id="d" x1="32.668" y1="17.889" x2="24.169" y2="6.397" gradientUnits="userSpaceOnUse"><stop stop-color="#252117"/><stop offset="1" stop-opacity="0"/></linearGradient><linearGradient id="e" x1="20.648" y1="9" x2="28.939" y2="20.428" gradientUnits="userSpaceOnUse"><stop offset=".484" stop-color="#4BAA73"/><stop offset="1" stop-opacity="0"/></linearGradient><linearGradient id="f" x1="32.668" y1="30.666" x2="21.591" y2="18.683" gradientUnits="userSpaceOnUse"><stop stop-color="#252117"/><stop offset="1" stop-opacity="0"/></linearGradient><linearGradient id="g" x1="20.648" y1="19.555" x2="31.498" y2="31.519" gradientUnits="userSpaceOnUse"><stop offset=".484" stop-color="#4BAA73"/><stop offset="1" stop-opacity="0"/></linearGradient><clipPath id="a"><path fill="#fff" transform="translate(7.334 9)" d="M0 0h25.333v21.667H0z"/></clipPath></defs></svg>