<svg width="40" height="40" viewBox="0 0 40 40" fill="none" xmlns="http://www.w3.org/2000/svg">
<rect width="40" height="40" rx="20" fill="#F0F5F3"/>
<path d="M20.1303 8C14.2402 8 10.3812 14.2963 13.2247 19.5771L20.1303 32.779L27.0359 19.5771C29.8794 14.2963 26.0204 8 20.1303 8ZM19.9272 20.1864C17.2868 20.1864 15.0527 18.1553 15.0527 15.5149C15.0527 12.8746 17.2868 10.6404 19.9272 10.6404C22.5676 10.6404 24.8018 12.8746 24.8018 15.5149C24.8018 18.1553 22.5676 20.1864 19.9272 20.1864Z" fill="white"/>
<path d="M20.1303 8C14.2402 8 10.3812 14.2963 13.2247 19.5771L20.1303 32.779L27.0359 19.5771C29.8794 14.2963 26.0204 8 20.1303 8ZM19.9272 20.1864C17.2868 20.1864 15.0527 18.1553 15.0527 15.5149C15.0527 12.8746 17.2868 10.6404 19.9272 10.6404C22.5676 10.6404 24.8018 12.8746 24.8018 15.5149C24.8018 18.1553 22.5676 20.1864 19.9272 20.1864Z" fill="url(#paint0_linear_11310_23653)" fill-opacity="0.8"/>
<path d="M20.1303 8C14.2402 8 10.3812 14.2963 13.2247 19.5771L20.1303 32.779L27.0359 19.5771C29.8794 14.2963 26.0204 8 20.1303 8ZM19.9272 20.1864C17.2868 20.1864 15.0527 18.1553 15.0527 15.5149C15.0527 12.8746 17.2868 10.6404 19.9272 10.6404C22.5676 10.6404 24.8018 12.8746 24.8018 15.5149C24.8018 18.1553 22.5676 20.1864 19.9272 20.1864Z" fill="url(#paint1_linear_11310_23653)" fill-opacity="0.8"/>
<defs>
<linearGradient id="paint0_linear_11310_23653" x1="27.9911" y1="32.779" x2="5.57263" y2="18.5551" gradientUnits="userSpaceOnUse">
<stop stop-color="#252117"/>
<stop offset="1" stop-opacity="0"/>
</linearGradient>
<linearGradient id="paint1_linear_11310_23653" x1="12.2695" y1="8" x2="34.4427" y2="22.3413" gradientUnits="userSpaceOnUse">
<stop offset="0.484375" stop-color="#4BAA73"/>
<stop offset="1" stop-opacity="0"/>
</linearGradient>
</defs>
</svg>
