<svg width="20" height="20" viewBox="0 0 20 20" fill="none" xmlns="http://www.w3.org/2000/svg">
<path d="M15 20H5C2.2 20 0 17.8 0 15V5C0 2.2 2.2 0 5 0H15C17.8 0 20 2.2 20 5V15C20 17.8 17.8 20 15 20Z" fill="#226AF5"/>
<path d="M10 3.59998C11.6 3.59998 13 4.89998 13 6.59998V7.69998H7V6.59998C7 4.99998 8.4 3.59998 10 3.59998ZM10 2.09998C7.5 2.09998 5.5 4.09998 5.5 6.59998V7.69998V9.19998H7H13H14.5V7.69998V6.59998C14.5 4.09998 12.5 2.09998 10 2.09998Z" fill="white"/>
<path fill-rule="evenodd" clip-rule="evenodd" d="M12.4 11.7L17 7L18.7 8.6L14.1 13.2L10.8 14.8L12.4 11.7Z" fill="white"/>
<path fill-rule="evenodd" clip-rule="evenodd" d="M16.5419 11.2562C16.7095 11.7709 16.8 12.3225 16.8 12.8976C16.7 15.6976 14.4 18.0976 11.5 18.0976H8.5C5.6 18.0976 3.3 15.7976 3.3 12.8976C3.3 9.99763 5.6 7.69763 8.5 7.69763H11.6C12.8441 7.69763 13.9777 8.1209 14.8667 8.83324L12.2 11.5L12.1 11.6V11.7L10.9 14.2L10.3 15.5L11.6 14.9L14.1 13.7H14.2L14.3 13.6L16.5419 11.2562ZM16.2846 10.6154L13.8 13.1L11.3 14.3L12.5 11.8L15.1873 9.11265C15.6382 9.53969 16.0113 10.0479 16.2846 10.6154Z" fill="white"/>
</svg>
