<svg width="20" height="20" viewBox="0 0 20 20" fill="none" xmlns="http://www.w3.org/2000/svg">
<path d="M15 20H5C2.2 20 0 17.8 0 15V5C0 2.2 2.2 0 5 0H15C17.8 0 20 2.2 20 5V15C20 17.8 17.8 20 15 20Z" fill="#E6B33F"/>
<path fill-rule="evenodd" clip-rule="evenodd" d="M15.6 17.6H3.5C3.5 14.3 6.2 11.6 9.5 11.6C12.9 11.6 15.6 14.3 15.6 17.6Z" fill="white"/>
<path d="M9.5 10.8C11.8748 10.8 13.8 8.87478 13.8 6.49995C13.8 4.12513 11.8748 2.19995 9.5 2.19995C7.12517 2.19995 5.2 4.12513 5.2 6.49995C5.2 8.87478 7.12517 10.8 9.5 10.8Z" fill="white"/>
<path fill-rule="evenodd" clip-rule="evenodd" d="M10.5 16L15.2 11.3L16.9 12.9L12.2 17.5L9 19.1L10.5 16Z" fill="white"/>
<path d="M15.2 11.6L16.5 12.9L12 17.4L9.5 18.6L10.7 16.1L15.2 11.6ZM15.2 10.9L14.8 11.3L10.3 15.8L10.2 15.9V16L9 18.5L8.4 19.8L9.7 19L12.2 17.8H12.3L12.4 17.7L16.9 13.2L17.3 12.8L16.9 12.4L15.6 11.1L15.2 10.9Z" fill="#E6B33F"/>
</svg>
