<svg width="20" height="20" viewBox="0 0 20 20" fill="none" xmlns="http://www.w3.org/2000/svg">
<path d="M15 20H5C2.2 20 0 17.8 0 15V5C0 2.2 2.2 0 5 0H15C17.8 0 20 2.2 20 5V15C20 17.8 17.8 20 15 20Z" fill="#C82C20"/>
<path d="M7.33268 12.6654C7.33268 13.019 7.19221 13.3581 6.94216 13.6082C6.69211 13.8582 6.35297 13.9987 5.99935 13.9987C5.64573 13.9987 5.30659 13.8582 5.05654 13.6082C4.80649 13.3581 4.66602 13.019 4.66602 12.6654C4.66602 12.3117 4.80649 11.9726 5.05654 11.7226C5.30659 11.4725 5.64573 11.332 5.99935 11.332C6.35297 11.332 6.69211 11.4725 6.94216 11.7226C7.19221 11.9726 7.33268 12.3117 7.33268 12.6654Z" fill="white"/>
<path fill-rule="evenodd" clip-rule="evenodd" d="M9.99935 9.33333C9.82402 9.33333 9.66602 9.46533 9.66602 9.64067V15.6667C9.66602 15.7551 9.70113 15.8399 9.76365 15.9024C9.82616 15.9649 9.91094 16 9.99935 16C10.0878 16 10.1725 15.9649 10.2351 15.9024C10.2976 15.8399 10.3327 15.7551 10.3327 15.6667V9.64067C10.3327 9.46533 10.1747 9.33333 9.99935 9.33333ZM9.66602 7C9.66602 7.184 9.82402 7.33333 10.008 7.33333C10.1923 7.33333 10.3327 7.184 10.3327 7V4.33333C10.3327 4.24493 10.2976 4.16014 10.2351 4.09763C10.1725 4.03512 10.0878 4 9.99935 4C9.91094 4 9.82616 4.03512 9.76365 4.09763C9.70113 4.16014 9.66602 4.24493 9.66602 4.33333V7ZM13.9993 13C13.824 13 13.666 13.132 13.666 13.3073V15.6667C13.666 15.7551 13.7011 15.8399 13.7636 15.9024C13.8262 15.9649 13.9109 16 13.9993 16C14.0878 16 14.1725 15.9649 14.2351 15.9024C14.2976 15.8399 14.3327 15.7551 14.3327 15.6667V13.3073C14.3327 13.132 14.1747 13 13.9993 13ZM13.666 10.6667C13.666 10.8507 13.824 11 14.008 11C14.1923 11 14.3327 10.8507 14.3327 10.6667V4.33333C14.3327 4.24493 14.2976 4.16014 14.2351 4.09763C14.1725 4.03512 14.0878 4 13.9993 4C13.9109 4 13.8262 4.03512 13.7636 4.09763C13.7011 4.16014 13.666 4.24493 13.666 4.33333V10.6667ZM5.99935 14.6667C5.82402 14.6667 5.66602 14.7987 5.66602 14.974V15.6667C5.66602 15.7551 5.70113 15.8399 5.76365 15.9024C5.82616 15.9649 5.91094 16 5.99935 16C6.08775 16 6.17254 15.9649 6.23505 15.9024C6.29756 15.8399 6.33268 15.7551 6.33268 15.6667V14.974C6.33268 14.7987 6.17468 14.6667 5.99935 14.6667ZM5.66602 12.3333C5.66602 12.5173 5.82402 12.6667 6.00802 12.6667C6.19235 12.6667 6.33268 12.5173 6.33268 12.3333V4.33333C6.33268 4.24493 6.29756 4.16014 6.23505 4.09763C6.17254 4.03512 6.08775 4 5.99935 4C5.91094 4 5.82616 4.03512 5.76365 4.09763C5.70113 4.16014 5.66602 4.24493 5.66602 4.33333V12.3333Z" fill="white"/>
<path d="M11.3327 7.33333C11.3327 7.68696 11.1922 8.02609 10.9422 8.27614C10.6921 8.52619 10.353 8.66667 9.99935 8.66667C9.64573 8.66667 9.30659 8.52619 9.05654 8.27614C8.80649 8.02609 8.66602 7.68696 8.66602 7.33333C8.66602 6.97971 8.80649 6.64057 9.05654 6.39052C9.30659 6.14048 9.64573 6 9.99935 6C10.353 6 10.6921 6.14048 10.9422 6.39052C11.1922 6.64057 11.3327 6.97971 11.3327 7.33333ZM15.3327 11C15.3327 11.3536 15.1922 11.6928 14.9422 11.9428C14.6921 12.1929 14.353 12.3333 13.9993 12.3333C13.6457 12.3333 13.3066 12.1929 13.0565 11.9428C12.8065 11.6928 12.666 11.3536 12.666 11C12.666 10.6464 12.8065 10.3072 13.0565 10.0572C13.3066 9.80714 13.6457 9.66667 13.9993 9.66667C14.353 9.66667 14.6921 9.80714 14.9422 10.0572C15.1922 10.3072 15.3327 10.6464 15.3327 11Z" fill="white"/>
</svg>
