<svg width="20" height="20" viewBox="0 0 20 20" fill="none" xmlns="http://www.w3.org/2000/svg">
<path d="M15 20H5C2.2 20 0 17.8 0 15V5C0 2.2 2.2 0 5 0H15C17.8 0 20 2.2 20 5V15C20 17.8 17.8 20 15 20Z" fill="#E4AA24"/>
<path d="M8 13.7V13.2H7.5H6.7C4.37614 13.2 2.5 11.3239 2.5 9V7.7C2.5 5.37614 4.37614 3.5 6.7 3.5H12.4C14.7239 3.5 16.6 5.37614 16.6 7.7V9C16.6 11.3239 14.7239 13.2 12.4 13.2H12H11.8064L11.6633 13.3304L8 16.668V13.7ZM11.3345 12.9716L11.3443 12.9629L11.3536 12.9536C11.4623 12.8448 11.5548 12.7877 11.642 12.7542C11.7314 12.7198 11.8417 12.7 12 12.7H12.4C14.4761 12.7 16.1 11.0761 16.1 9V7.7C16.1 5.62386 14.4761 4 12.4 4H6.7C4.62385 4 3 5.62386 3 7.7V9C3 11.0761 4.62385 12.7 6.7 12.7H7.5C8.02386 12.7 8.5 13.1761 8.5 13.7V14.4V15.5227L9.33448 14.7716L11.3345 12.9716Z" fill="#E4AA24" stroke="white"/>
<path d="M6.60078 8.50156C6.60078 8.72248 6.4217 8.90156 6.20078 8.90156C5.97987 8.90156 5.80078 8.72248 5.80078 8.50156C5.80078 8.28065 5.97987 8.10156 6.20078 8.10156C6.4217 8.10156 6.60078 8.28065 6.60078 8.50156Z" fill="#E4AA24" stroke="white"/>
<path d="M9.8 8.50156C9.8 8.72248 9.62091 8.90156 9.4 8.90156C9.17909 8.90156 9 8.72248 9 8.50156C9 8.28065 9.17909 8.10156 9.4 8.10156C9.62091 8.10156 9.8 8.28064 9.8 8.50156Z" fill="white" stroke="white"/>
<path d="M12.7008 9.40156C13.1978 9.40156 13.6008 8.99862 13.6008 8.50156C13.6008 8.00451 13.1978 7.60156 12.7008 7.60156C12.2037 7.60156 11.8008 8.00451 11.8008 8.50156C11.8008 8.99862 12.2037 9.40156 12.7008 9.40156Z" fill="white"/>
</svg>
