<svg width="18" height="18" viewBox="0 0 18 18" fill="none" xmlns="http://www.w3.org/2000/svg">
<path d="M13.5938 1.5H4.40625C4.03341 1.5004 3.67596 1.64868 3.41232 1.91232C3.14868 2.17596 3.0004 2.53341 3 2.90625V12.0938C3 12.8693 3.63075 13.5 4.40625 13.5H8.25V15H5.25V16.5H12.75V15H9.75V13.5H13.5938C13.9666 13.4996 14.324 13.3513 14.5877 13.0877C14.8513 12.824 14.9996 12.4666 15 12.0938V2.90625C14.9996 2.53341 14.8513 2.17596 14.5877 1.91232C14.324 1.64868 13.9666 1.5004 13.5938 1.5ZM13.5 12H4.5V3H13.5V12Z" fill="#A0AFBF"/>
<path d="M9 10.5C10.6545 10.5 12 9.1545 12 7.5C12 5.8455 10.6545 4.5 9 4.5C7.3455 4.5 6 5.8455 6 7.5C6 9.1545 7.3455 10.5 9 10.5ZM9 6C9.82725 6 10.5 6.67275 10.5 7.5C10.5 8.32725 9.82725 9 9 9C8.17275 9 7.5 8.32725 7.5 7.5C7.5 6.67275 8.17275 6 9 6Z" fill="#A0AFBF"/>
</svg>
