<svg width="20" height="20" viewBox="0 0 20 20" fill="none" xmlns="http://www.w3.org/2000/svg">
<path d="M15 20H5C2.2 20 0 17.8 0 15V5C0 2.2 2.2 0 5 0H15C17.8 0 20 2.2 20 5V15C20 17.8 17.8 20 15 20Z" fill="#C82C20"/>
<path d="M8.5 7.82V12.18C8.5 12.43 8.774 12.583 8.987 12.453L12.246 10.461C12.325 10.4128 12.3904 10.3451 12.4357 10.2643C12.481 10.1836 12.5048 10.0926 12.5048 10C12.5048 9.90742 12.481 9.81639 12.4357 9.73566C12.3904 9.65493 12.325 9.58721 12.246 9.539L8.986 7.548C8.93751 7.51858 8.88208 7.50257 8.82537 7.50162C8.76867 7.50067 8.71273 7.5148 8.66328 7.54258C8.61383 7.57036 8.57266 7.61077 8.54397 7.6597C8.51528 7.70862 8.5001 7.76429 8.5 7.821V7.82ZM6.5 5C5.83696 5 5.20107 5.26339 4.73223 5.73223C4.26339 6.20107 4 6.83696 4 7.5V12.5C4 13.163 4.26339 13.7989 4.73223 14.2678C5.20107 14.7366 5.83696 15 6.5 15H13.5C14.163 15 14.7989 14.7366 15.2678 14.2678C15.7366 13.7989 16 13.163 16 12.5V7.5C16 6.83696 15.7366 6.20107 15.2678 5.73223C14.7989 5.26339 14.163 5 13.5 5H6.5ZM5 7.5C5 7.10218 5.15804 6.72064 5.43934 6.43934C5.72064 6.15804 6.10218 6 6.5 6H13.5C13.8978 6 14.2794 6.15804 14.5607 6.43934C14.842 6.72064 15 7.10218 15 7.5V12.5C15 12.8978 14.842 13.2794 14.5607 13.5607C14.2794 13.842 13.8978 14 13.5 14H6.5C6.10218 14 5.72064 13.842 5.43934 13.5607C5.15804 13.2794 5 12.8978 5 12.5V7.5Z" fill="white"/>
</svg>
