<svg width="119" height="30" viewBox="0 0 119 30" fill="none" xmlns="http://www.w3.org/2000/svg">
<path d="M21.8945 15.6943C21.8828 13.6963 22.7881 12.1904 24.6162 11.0801C23.5938 9.61524 22.0469 8.80957 20.0078 8.6543C18.0771 8.50195 15.9648 9.7793 15.1914 9.7793C14.374 9.7793 12.5049 8.70703 11.0342 8.70703C7.99902 8.75391 4.77344 11.127 4.77344 15.9551C4.77344 17.3818 5.03418 18.8555 5.55566 20.373C6.25293 22.3711 8.7666 27.2666 11.3887 27.1875C12.7598 27.1553 13.7295 26.2148 15.5137 26.2148C17.2451 26.2148 18.1416 27.1875 19.6709 27.1875C22.3164 27.1494 24.5898 22.6992 25.252 20.6953C21.7041 19.0225 21.8945 15.7969 21.8945 15.6943ZM21.584 23.5166C21.165 24.0996 20.7432 24.5596 20.3564 24.8555C20.0488 25.0898 19.8115 25.1895 19.6533 25.1953C19.3896 25.1924 19.1348 25.1279 18.6367 24.9375C18.6016 24.9229 18.5635 24.9082 18.5137 24.8906L18.3848 24.8408C17.875 24.6445 17.5703 24.5391 17.1807 24.4365C16.6357 24.2959 16.0937 24.2197 15.5137 24.2197C14.9219 24.2197 14.3652 24.293 13.8115 24.4307C13.4043 24.5332 13.0615 24.6475 12.5605 24.835C12.54 24.8438 12.3232 24.9258 12.2617 24.9492C12.1592 24.9873 12.0801 25.0166 12.0068 25.043C11.7021 25.1484 11.5088 25.1924 11.3359 25.1953C11.3154 25.1953 11.2979 25.1924 11.2832 25.1895C11.251 25.1836 11.21 25.1719 11.1631 25.1514C11.0312 25.0986 10.873 25.002 10.6943 24.8643C10.2842 24.5449 9.83301 24.0439 9.37305 23.4023C8.56738 22.2715 7.80566 20.7715 7.43945 19.7197C6.98828 18.4072 6.76562 17.1504 6.76562 15.9521C6.76562 14.1885 7.28711 12.8467 8.18359 11.9355C8.9541 11.1562 9.99121 10.7197 11.0488 10.6963C11.2217 10.6992 11.4736 10.7402 11.793 10.8281C12.0449 10.8955 12.3203 10.9863 12.6924 11.1182C12.8037 11.1592 13.1875 11.2969 13.2344 11.3145C13.46 11.3965 13.6299 11.4551 13.7969 11.5078C14.3301 11.6777 14.7432 11.7715 15.1914 11.7715C15.6455 11.7715 16.0352 11.6748 16.5889 11.4844C16.7969 11.4141 17.5527 11.1328 17.6875 11.0859C18.4375 10.8193 18.9912 10.6758 19.4687 10.6406C19.6094 10.6289 19.7354 10.6289 19.8555 10.6377C20.5205 10.6904 21.0889 10.8223 21.5723 11.042C20.4707 12.3135 19.9023 13.8691 19.9053 15.6826C19.8965 16.1133 19.9316 16.6113 20.0547 17.2002C20.2422 18.0938 20.5996 18.9785 21.165 19.8076C21.5957 20.4375 22.1289 21.0059 22.7676 21.501C22.4307 22.1953 22.0176 22.9131 21.584 23.5166ZM18.8154 6.75879C20.3008 4.99512 20.166 3.38965 20.1221 2.8125C18.8096 2.88867 17.292 3.70605 16.4277 4.71094C15.4756 5.78906 14.916 7.12207 15.0361 8.625C16.4541 8.7334 17.749 8.00391 18.8154 6.75879Z" fill="#434240"/>
<path d="M42 6.74H44.82L43.4 2.96L42 6.74ZM45.12 7.55H41.7L41.16 9H40.13L42.82 2H43.98L46.68 9H45.67L45.12 7.55ZM51.6939 4L49.7639 9H48.6639L46.7339 4H47.7539L49.2139 7.93L50.6739 4H51.6939ZM52.838 8.36C52.378 7.85333 52.148 7.23333 52.148 6.5C52.148 5.76667 52.378 5.15 52.838 4.65C53.298 4.14333 53.8947 3.89 54.628 3.89C55.408 3.89 56.0114 4.19333 56.438 4.8V4H57.408V9H56.438V8.2C56.0114 8.80667 55.408 9.11 54.628 9.11C53.8947 9.11 53.298 8.86 52.838 8.36ZM55.978 7.76C56.298 7.42667 56.458 7.00667 56.458 6.5C56.458 5.99333 56.298 5.57667 55.978 5.25C55.658 4.91667 55.248 4.75 54.748 4.75C54.248 4.75 53.8514 4.92 53.558 5.26C53.2647 5.59333 53.118 6.00667 53.118 6.5C53.118 6.99333 53.2647 7.41 53.558 7.75C53.8514 8.08333 54.248 8.25 54.748 8.25C55.248 8.25 55.658 8.08667 55.978 7.76ZM59.9438 9V4H58.9738V9H59.9438ZM58.9738 2.87C58.8472 2.74333 58.7838 2.58333 58.7838 2.39C58.7838 2.19667 58.8472 2.03667 58.9738 1.91C59.1005 1.77667 59.2605 1.71 59.4538 1.71C59.6472 1.71 59.8072 1.77667 59.9338 1.91C60.0672 2.03667 60.1338 2.19667 60.1338 2.39C60.1338 2.58333 60.0672 2.74333 59.9338 2.87C59.8072 2.99667 59.6472 3.06 59.4538 3.06C59.2605 3.06 59.1005 2.99667 58.9738 2.87ZM62.5122 1.77V9H61.5422V1.77H62.5122ZM64.4005 8.36C63.9405 7.85333 63.7105 7.23333 63.7105 6.5C63.7105 5.76667 63.9405 5.15 64.4005 4.65C64.8605 4.14333 65.4572 3.89 66.1905 3.89C66.9705 3.89 67.5739 4.19333 68.0005 4.8V4H68.9705V9H68.0005V8.2C67.5739 8.80667 66.9705 9.11 66.1905 9.11C65.4572 9.11 64.8605 8.86 64.4005 8.36ZM67.5405 7.76C67.8605 7.42667 68.0205 7.00667 68.0205 6.5C68.0205 5.99333 67.8605 5.57667 67.5405 5.25C67.2205 4.91667 66.8105 4.75 66.3105 4.75C65.8105 4.75 65.4139 4.92 65.1205 5.26C64.8272 5.59333 64.6805 6.00667 64.6805 6.5C64.6805 6.99333 64.8272 7.41 65.1205 7.75C65.4139 8.08333 65.8105 8.25 66.3105 8.25C66.8105 8.25 67.2205 8.08667 67.5405 7.76ZM75.0763 4.65C75.5363 5.15 75.7663 5.76667 75.7663 6.5C75.7663 7.23333 75.5363 7.85333 75.0763 8.36C74.6163 8.86 74.0197 9.11 73.2863 9.11C72.5063 9.11 71.903 8.80667 71.4763 8.2V9H70.5063V1.77H71.4763V4.8C71.903 4.19333 72.5063 3.89 73.2863 3.89C74.0197 3.89 74.6163 4.14333 75.0763 4.65ZM71.9363 5.25C71.6163 5.57667 71.4563 5.99333 71.4563 6.5C71.4563 7.00667 71.6163 7.42667 71.9363 7.76C72.263 8.08667 72.673 8.25 73.1663 8.25C73.6663 8.25 74.063 8.08333 74.3563 7.75C74.6497 7.41 74.7963 6.99333 74.7963 6.5C74.7963 6.00667 74.6497 5.59333 74.3563 5.26C74.063 4.92 73.6663 4.75 73.1663 4.75C72.673 4.75 72.263 4.91667 71.9363 5.25ZM77.9419 1.77V9H76.9719V1.77H77.9419ZM83.6002 7.62L84.1402 8.18C83.5869 8.8 82.8569 9.11 81.9502 9.11C81.1036 9.11 80.4202 8.86 79.9002 8.36C79.3869 7.86 79.1302 7.24667 79.1302 6.52C79.1302 5.78 79.3836 5.15667 79.8902 4.65C80.4036 4.14333 81.0469 3.89 81.8202 3.89C82.5336 3.89 83.1369 4.12333 83.6302 4.59C84.1236 5.05 84.3702 5.71667 84.3702 6.59H80.1002C80.0869 7.07 80.2536 7.46667 80.6002 7.78C80.9536 8.09333 81.4069 8.25 81.9602 8.25C82.5602 8.25 83.1069 8.04 83.6002 7.62ZM81.8402 4.74C81.4936 4.74 81.1669 4.82667 80.8602 5C80.5602 5.16667 80.3369 5.44667 80.1902 5.84H83.3702C83.1502 5.10667 82.6402 4.74 81.8402 4.74ZM88.4842 8.35C87.9709 7.83667 87.7142 7.22 87.7142 6.5C87.7142 5.78 87.9709 5.16667 88.4842 4.66C88.9976 4.14667 89.6142 3.89 90.3342 3.89C91.0609 3.89 91.6809 4.14667 92.1942 4.66C92.7076 5.16667 92.9642 5.78 92.9642 6.5C92.9642 7.22 92.7076 7.83667 92.1942 8.35C91.6809 8.85667 91.0609 9.11 90.3342 9.11C89.6142 9.11 88.9976 8.85667 88.4842 8.35ZM89.1642 5.27C88.8442 5.61667 88.6842 6.03 88.6842 6.51C88.6842 6.99 88.8442 7.4 89.1642 7.74C89.4909 8.08 89.8809 8.25 90.3342 8.25C90.7942 8.25 91.1842 8.08 91.5042 7.74C91.8309 7.4 91.9942 6.99 91.9942 6.51C91.9942 6.03 91.8309 5.61667 91.5042 5.27C91.1842 4.92333 90.7942 4.75 90.3342 4.75C89.8809 4.75 89.4909 4.92333 89.1642 5.27ZM97.7196 9V6.18C97.7196 5.68667 97.6229 5.32667 97.4296 5.1C97.2363 4.86667 96.9929 4.75 96.6996 4.75C96.5463 4.75 96.3863 4.78 96.2196 4.84C96.0596 4.89333 95.8896 4.98667 95.7096 5.12C95.5296 5.25333 95.3796 5.45667 95.2596 5.73C95.1463 5.99667 95.0896 6.31333 95.0896 6.68V9H94.1196V4H95.0896V5C95.1963 4.64667 95.3963 4.37333 95.6896 4.18C95.9896 3.98667 96.3496 3.89 96.7696 3.89C97.3429 3.89 97.8063 4.08 98.1596 4.46C98.5129 4.84 98.6896 5.41333 98.6896 6.18V9H97.7196ZM104.001 4.76V7.49C104.001 8.00333 104.201 8.26 104.601 8.26C104.768 8.26 104.911 8.21333 105.031 8.12C105.151 8.02 105.211 7.88333 105.211 7.71C105.211 7.55 105.185 7.41333 105.131 7.3H105.981C106.028 7.42 106.055 7.53333 106.061 7.64C106.068 7.68667 106.071 7.75333 106.071 7.84C106.071 8.21333 105.941 8.52 105.681 8.76C105.421 8.99333 105.058 9.11 104.591 9.11C104.145 9.11 103.771 8.97667 103.471 8.71C103.178 8.44333 103.031 8.01333 103.031 7.42V4.76H102.211V4H103.031L103.251 2.56H104.001V4H105.591V4.76H104.001ZM110.581 9V6.18C110.581 5.68667 110.484 5.32667 110.291 5.1C110.098 4.86667 109.854 4.75 109.561 4.75C109.408 4.75 109.248 4.78 109.081 4.84C108.921 4.89333 108.751 4.98667 108.571 5.12C108.391 5.25333 108.241 5.45667 108.121 5.73C108.008 5.99667 107.951 6.31333 107.951 6.68V9H106.981V1.77H107.951V5C108.058 4.64667 108.258 4.37333 108.551 4.18C108.851 3.98667 109.211 3.89 109.631 3.89C110.204 3.89 110.668 4.08 111.021 4.46C111.374 4.84 111.551 5.41333 111.551 6.18V9H110.581ZM117.096 7.62L117.636 8.18C117.083 8.8 116.353 9.11 115.446 9.11C114.6 9.11 113.916 8.86 113.396 8.36C112.883 7.86 112.626 7.24667 112.626 6.52C112.626 5.78 112.88 5.15667 113.386 4.65C113.9 4.14333 114.543 3.89 115.316 3.89C116.03 3.89 116.633 4.12333 117.126 4.59C117.62 5.05 117.866 5.71667 117.866 6.59H113.596C113.583 7.07 113.75 7.46667 114.096 7.78C114.45 8.09333 114.903 8.25 115.456 8.25C116.056 8.25 116.603 8.04 117.096 7.62ZM115.336 4.74C114.99 4.74 114.663 4.82667 114.356 5C114.056 5.16667 113.833 5.44667 113.686 5.84H116.866C116.646 5.10667 116.136 4.74 115.336 4.74Z" fill="#434240"/>
<path d="M42.115 26H40.135L44.185 15.5H46.18L50.26 26H48.295L47.5 23.945H42.88L42.115 26ZM46.945 22.385L45.19 17.45L43.42 22.385H46.945ZM53.2807 29.435H51.4357V18.41H53.2807V19.55C53.8407 18.68 54.7057 18.245 55.8757 18.245C56.9857 18.245 57.8807 18.625 58.5607 19.385C59.2507 20.145 59.5957 21.095 59.5957 22.235C59.5957 23.345 59.2557 24.28 58.5757 25.04C57.8957 25.79 56.9907 26.165 55.8607 26.165C54.7407 26.165 53.8807 25.735 53.2807 24.875V29.435ZM57.7357 22.22C57.7357 21.52 57.5307 20.94 57.1207 20.48C56.7207 20.02 56.1807 19.79 55.5007 19.79C54.8507 19.79 54.3107 20 53.8807 20.42C53.4507 20.84 53.2357 21.415 53.2357 22.145C53.2357 22.875 53.4507 23.47 53.8807 23.93C54.3107 24.39 54.8657 24.62 55.5457 24.62C56.2157 24.62 56.7457 24.39 57.1357 23.93C57.5357 23.47 57.7357 22.9 57.7357 22.22ZM63.0513 29.435H61.2063V18.41H63.0513V19.55C63.6113 18.68 64.4763 18.245 65.6463 18.245C66.7563 18.245 67.6513 18.625 68.3313 19.385C69.0213 20.145 69.3663 21.095 69.3663 22.235C69.3663 23.345 69.0263 24.28 68.3463 25.04C67.6663 25.79 66.7613 26.165 65.6313 26.165C64.5113 26.165 63.6513 25.735 63.0513 24.875V29.435ZM67.5063 22.22C67.5063 21.52 67.3013 20.94 66.8913 20.48C66.4913 20.02 65.9513 19.79 65.2713 19.79C64.6213 19.79 64.0813 20 63.6513 20.42C63.2213 20.84 63.0063 21.415 63.0063 22.145C63.0063 22.875 63.2213 23.47 63.6513 23.93C64.0813 24.39 64.6363 24.62 65.3163 24.62C65.9863 24.62 66.5163 24.39 66.9063 23.93C67.3063 23.47 67.5063 22.9 67.5063 22.22ZM74.1854 23.315L75.9254 22.925C76.0454 23.385 76.2954 23.76 76.6754 24.05C77.0654 24.33 77.5404 24.47 78.1004 24.47C78.6604 24.47 79.1154 24.35 79.4654 24.11C79.8154 23.87 79.9904 23.545 79.9904 23.135C79.9904 22.535 79.5304 22.07 78.6104 21.74L77.2604 21.275C75.5404 20.715 74.6804 19.73 74.6804 18.32C74.6804 17.42 75.0154 16.7 75.6854 16.16C76.3554 15.61 77.1804 15.335 78.1604 15.335C79.0304 15.335 79.7654 15.545 80.3654 15.965C80.9754 16.385 81.4004 16.975 81.6404 17.735L80.0204 18.41C79.7204 17.5 79.1004 17.045 78.1604 17.045C77.7104 17.045 77.3354 17.155 77.0354 17.375C76.7454 17.585 76.6004 17.89 76.6004 18.29C76.6004 18.87 77.0154 19.305 77.8454 19.595L79.1954 20.09C80.1354 20.39 80.8204 20.815 81.2504 21.365C81.6804 21.905 81.8954 22.47 81.8954 23.06C81.8954 24.03 81.5354 24.79 80.8154 25.34C80.0954 25.89 79.2054 26.165 78.1454 26.165C77.1254 26.165 76.2454 25.9 75.5054 25.37C74.7654 24.84 74.3254 24.155 74.1854 23.315ZM85.7226 16.385V18.41H87.9876V19.82H85.7226V23.795C85.7226 24.345 85.9676 24.62 86.4576 24.62C86.6876 24.62 86.8676 24.55 86.9976 24.41C87.1376 24.26 87.2076 24.07 87.2076 23.84C87.2076 23.57 87.1726 23.36 87.1026 23.21H88.6176C88.7276 23.44 88.7826 23.725 88.7826 24.065C88.7826 24.665 88.5776 25.165 88.1676 25.565C87.7576 25.965 87.1626 26.165 86.3826 26.165C85.6526 26.165 85.0526 25.97 84.5826 25.58C84.1126 25.18 83.8776 24.5 83.8776 23.54V19.82H82.6926V18.41H83.9676L84.2976 16.385H85.7226ZM90.6804 25.01C89.8704 24.23 89.4654 23.295 89.4654 22.205C89.4654 21.115 89.8704 20.185 90.6804 19.415C91.5004 18.635 92.4654 18.245 93.5754 18.245C94.6854 18.245 95.6504 18.635 96.4704 19.415C97.2904 20.195 97.7004 21.125 97.7004 22.205C97.7004 23.295 97.2904 24.23 96.4704 25.01C95.6604 25.78 94.6954 26.165 93.5754 26.165C92.4654 26.165 91.5004 25.78 90.6804 25.01ZM91.9704 20.525C91.5404 20.985 91.3254 21.545 91.3254 22.205C91.3254 22.865 91.5404 23.43 91.9704 23.9C92.4104 24.36 92.9454 24.59 93.5754 24.59C94.2154 24.59 94.7504 24.36 95.1804 23.9C95.6204 23.43 95.8404 22.865 95.8404 22.205C95.8404 21.545 95.6204 20.985 95.1804 20.525C94.7504 20.055 94.2154 19.82 93.5754 19.82C92.9454 19.82 92.4104 20.055 91.9704 20.525ZM101.093 18.41V20.09C101.203 19.49 101.458 19.035 101.858 18.725C102.268 18.405 102.703 18.245 103.163 18.245C103.323 18.245 103.533 18.28 103.793 18.35V20.165C103.523 20.065 103.233 20.015 102.923 20.015C102.723 20.015 102.528 20.05 102.338 20.12C102.158 20.18 101.968 20.295 101.768 20.465C101.578 20.625 101.423 20.88 101.303 21.23C101.183 21.58 101.123 22 101.123 22.49V26H99.2775V18.41H101.093ZM111.113 23.675L112.163 24.71C111.293 25.68 110.148 26.165 108.728 26.165C107.408 26.165 106.348 25.79 105.548 25.04C104.758 24.28 104.363 23.345 104.363 22.235C104.363 21.105 104.758 20.16 105.548 19.4C106.338 18.63 107.328 18.245 108.518 18.245C109.628 18.245 110.568 18.605 111.338 19.325C112.118 20.035 112.508 21.08 112.508 22.46H106.208C106.208 23.08 106.443 23.595 106.913 24.005C107.393 24.405 108.028 24.605 108.818 24.605C109.668 24.605 110.433 24.295 111.113 23.675ZM108.518 19.715C108.038 19.715 107.593 19.83 107.183 20.06C106.783 20.29 106.488 20.675 106.298 21.215H110.618C110.488 20.685 110.223 20.305 109.823 20.075C109.423 19.835 108.988 19.715 108.518 19.715Z" fill="#434240"/>
</svg>
