<svg width="1440" height="574" viewBox="0 0 1440 574" fill="none" xmlns="http://www.w3.org/2000/svg">
<path fill-rule="evenodd" clip-rule="evenodd" d="M-59.8399 -110.252C-164.185 -57.5214 -245.15 33.4423 -287.763 101.21L-290 100.312C-247.271 32.3593 -166.045 -58.9489 -61.1782 -111.943C-8.72714 -138.449 49.6867 -155.394 112.179 -154.993C174.685 -154.592 241.154 -136.837 309.697 -94.1044C480.561 12.4201 639.415 94.1106 791.464 132.57C943.45 171.014 1088.62 166.26 1232.24 99.8949C1252.86 90.3707 1273.91 80.2252 1295.33 69.9045C1352.72 42.2491 1412.72 13.3356 1473.83 -8.25397C1557.77 -37.9119 1644.08 -53.8569 1729 -33.7508L1728.29 -31.8325C1644.2 -51.7421 1558.56 -36.0012 1474.84 -6.42407C1413.89 15.1102 1354.1 43.9215 1296.75 71.5557C1275.3 81.8916 1254.2 92.0627 1233.5 101.627C1089.17 168.314 943.261 173.064 790.709 134.478C638.219 95.9067 479.077 14.0327 308.157 -92.5269C239.987 -135.027 174.041 -152.595 112.159 -152.992C50.2627 -153.39 -7.68488 -136.609 -59.8399 -110.252ZM-59.8399 -60.2324C-164.185 -7.50165 -245.15 83.462 -287.763 151.23L-290 150.331C-247.271 82.3791 -166.045 -8.92912 -61.1782 -61.9234C-8.72714 -88.4295 49.6867 -105.374 112.179 -104.973C174.685 -104.572 241.154 -86.8176 309.697 -44.0846C480.561 62.4399 639.415 144.13 791.464 182.59C943.45 221.033 1088.62 216.28 1232.24 149.915C1252.86 140.39 1273.91 130.245 1295.33 119.924C1352.72 92.2687 1412.72 63.3553 1473.83 41.7658C1557.77 12.1078 1644.08 -3.83723 1729 16.2689L1728.29 18.1872C1644.2 -1.72241 1558.56 14.0185 1474.84 43.5957C1413.89 65.1299 1354.1 93.9413 1296.75 121.576C1275.3 131.911 1254.2 142.083 1233.5 151.647C1089.17 218.334 943.261 223.084 790.709 184.497C638.219 145.926 479.077 64.0524 308.157 -42.5072C239.987 -85.0078 174.041 -102.575 112.159 -102.973C50.2627 -103.37 -7.68488 -86.5888 -59.8399 -60.2324ZM-59.8399 -10.2127C-164.185 42.5181 -245.15 133.482 -287.763 201.25L-290 200.351C-247.271 132.399 -166.045 41.0906 -61.1782 -11.9037C-8.72714 -38.4098 49.6867 -55.3546 112.179 -54.9536C174.685 -54.5525 241.154 -36.7979 309.697 5.93509C480.561 112.46 639.415 194.15 791.464 232.61C943.45 271.053 1088.62 266.299 1232.24 199.934C1252.86 190.41 1273.91 180.265 1295.33 169.944C1352.72 142.288 1412.72 113.375 1473.83 91.7855C1557.77 62.1275 1644.08 46.1825 1729 66.2886L1728.29 68.207C1644.2 48.2973 1558.56 64.0383 1474.84 93.6154C1413.89 115.15 1354.1 143.961 1296.75 171.595C1275.3 181.931 1254.2 192.102 1233.5 201.666C1089.17 268.354 943.261 273.104 790.709 234.517C638.219 195.946 479.077 114.072 308.157 7.51256C239.987 -34.988 174.041 -52.5558 112.159 -52.9529C50.2627 -53.3501 -7.68488 -36.5691 -59.8399 -10.2127ZM-59.8399 39.807C-164.185 92.5378 -245.15 183.501 -287.763 251.269L-290 250.371C-247.271 182.419 -166.045 91.1103 -61.1782 38.116C-8.72714 11.61 49.6867 -5.33488 112.179 -4.93387C174.685 -4.53275 241.154 13.2218 309.697 55.9548C480.561 162.479 639.415 244.17 791.464 282.629C943.45 321.073 1088.62 316.319 1232.24 249.954C1252.86 240.43 1273.91 230.284 1295.33 219.964C1352.72 192.308 1412.72 163.395 1473.83 141.805C1557.77 112.147 1644.08 96.2022 1729 116.308L1728.29 118.227C1644.2 98.317 1558.56 114.058 1474.84 143.635C1413.89 165.169 1354.1 193.981 1296.75 221.615C1275.3 231.951 1254.2 242.122 1233.5 251.686C1089.17 318.374 943.261 323.124 790.709 284.537C638.219 245.966 479.077 164.092 308.157 57.5323C239.987 15.0317 174.041 -2.53603 112.159 -2.93314C50.2627 -3.33035 -7.68488 13.4506 -59.8399 39.807ZM-59.8399 89.8268C-164.185 142.558 -245.15 233.521 -287.763 301.289L-290 300.391C-247.271 232.438 -166.045 141.13 -61.1782 88.1358C-8.72714 61.6297 49.6867 44.6848 112.179 45.0859C174.685 45.487 241.154 63.2415 309.697 105.975C480.561 212.499 639.415 294.19 791.464 332.649C943.45 371.093 1088.62 366.339 1232.24 299.974C1252.86 290.449 1273.91 280.304 1295.33 269.983C1352.72 242.328 1412.72 213.414 1473.83 191.825C1557.77 162.167 1644.08 146.222 1729 166.328L1728.29 168.246C1644.2 148.337 1558.56 164.078 1474.84 193.655C1413.89 215.189 1354.1 244 1296.75 271.635C1275.3 281.971 1254.2 292.142 1233.5 301.706C1089.17 368.393 943.261 373.143 790.709 334.557C638.219 295.986 479.077 214.112 308.157 107.552C239.987 65.0514 174.041 47.4837 112.159 47.0866C50.2627 46.6894 -7.68488 63.4703 -59.8399 89.8268ZM-59.8399 139.846C-164.185 192.577 -245.15 283.541 -287.763 351.309L-290 350.41C-247.271 282.458 -166.045 191.15 -61.1782 138.155C-8.72714 111.649 49.6867 94.7046 112.179 95.1056C174.685 95.5067 241.154 113.261 309.697 155.994C480.561 262.519 639.415 344.209 791.464 382.669C943.45 421.112 1088.62 416.359 1232.24 349.993C1252.86 340.469 1273.91 330.324 1295.33 320.003C1352.72 292.348 1412.72 263.434 1473.83 241.845C1557.77 212.187 1644.08 196.242 1729 216.348L1728.29 218.266C1644.2 198.356 1558.56 214.097 1474.84 243.675C1413.89 265.209 1354.1 294.02 1296.75 321.654C1275.3 331.99 1254.2 342.161 1233.5 351.726C1089.17 418.413 943.261 423.163 790.709 384.576C638.219 346.005 479.077 264.131 308.157 157.572C239.987 115.071 174.041 97.5034 112.159 97.1063C50.2627 96.7091 -7.68488 113.49 -59.8399 139.846ZM-59.8399 189.866C-164.185 242.597 -245.15 333.561 -287.763 401.328L-290 400.43C-247.271 332.478 -166.045 241.169 -61.1782 188.175C-8.72714 161.669 49.6867 144.724 112.179 145.125C174.685 145.526 241.154 163.281 309.697 206.014C480.561 312.538 639.415 394.229 791.464 432.688C943.45 471.132 1088.62 466.378 1232.24 400.013C1252.86 390.489 1273.91 380.344 1295.33 370.023C1352.72 342.368 1412.72 313.454 1473.83 291.864C1557.77 262.206 1644.08 246.261 1729 266.367L1728.29 268.286C1644.2 248.376 1558.56 264.117 1474.84 293.694C1413.89 315.228 1354.1 344.04 1296.75 371.674C1275.3 382.01 1254.2 392.181 1233.5 401.745C1089.17 468.433 943.261 473.183 790.709 434.596C638.219 396.025 479.077 314.151 308.157 207.591C239.987 165.091 174.041 147.523 112.159 147.126C50.2627 146.729 -7.68488 163.51 -59.8399 189.866ZM-59.8399 239.886C-164.185 292.617 -245.15 383.58 -287.763 451.348L-290 450.45C-247.271 382.497 -166.045 291.189 -61.1782 238.195C-8.72714 211.689 49.6867 194.744 112.179 195.145C174.685 195.546 241.154 213.301 309.697 256.034C480.561 362.558 639.415 444.249 791.464 482.708C943.45 521.152 1088.62 516.398 1232.24 450.033C1252.86 440.509 1273.91 430.363 1295.33 420.043C1352.72 392.387 1412.72 363.474 1473.83 341.884C1557.77 312.226 1644.08 296.281 1729 316.387L1728.29 318.306C1644.2 298.396 1558.56 314.137 1474.84 343.714C1413.89 365.248 1354.1 394.06 1296.75 421.694C1275.3 432.03 1254.2 442.201 1233.5 451.765C1089.17 518.453 943.261 523.202 790.709 484.616C638.219 446.045 479.077 364.171 308.157 257.611C239.987 215.111 174.041 197.543 112.159 197.146C50.2627 196.749 -7.68488 213.53 -59.8399 239.886ZM-59.8399 289.906C-164.185 342.636 -245.15 433.6 -287.763 501.368L-290 500.47C-247.271 432.517 -166.045 341.209 -61.1782 288.215C-8.72714 261.709 49.6867 244.764 112.179 245.165C174.685 245.566 241.154 263.32 309.697 306.053C480.561 412.578 639.415 494.268 791.464 532.728C943.45 571.171 1088.62 566.418 1232.24 500.053C1252.86 490.528 1273.91 480.383 1295.33 470.062C1352.72 442.407 1412.72 413.493 1473.83 391.904C1557.77 362.246 1644.08 346.301 1729 366.407L1728.29 368.325C1644.2 348.416 1558.56 364.157 1474.84 393.734C1413.89 415.268 1354.1 444.079 1296.75 471.714C1275.3 482.049 1254.2 492.221 1233.5 501.785C1089.17 568.472 943.261 573.222 790.709 534.635C638.219 496.065 479.077 414.19 308.157 307.631C239.987 265.13 174.041 247.563 112.159 247.165C50.2627 246.768 -7.68488 263.549 -59.8399 289.906ZM-59.8399 339.925C-164.185 392.656 -245.15 483.62 -287.763 551.388L-290 550.489C-247.271 482.537 -166.045 391.229 -61.1782 338.234C-8.72714 311.728 49.6867 294.783 112.179 295.184C174.685 295.586 241.154 313.34 309.697 356.073C480.561 462.598 639.415 544.288 791.464 582.748C943.45 621.191 1088.62 616.437 1232.24 550.072C1252.86 540.548 1273.91 530.403 1295.33 520.082C1352.72 492.427 1412.72 463.513 1473.83 441.924C1557.77 412.266 1644.08 396.321 1729 416.427L1728.29 418.345C1644.2 398.435 1558.56 414.176 1474.84 443.753C1413.89 465.288 1354.1 494.099 1296.75 521.733C1275.3 532.069 1254.2 542.24 1233.5 551.804C1089.17 618.492 943.261 623.242 790.709 584.655C638.219 546.084 479.077 464.21 308.157 357.651C239.987 315.15 174.041 297.582 112.159 297.185C50.2627 296.788 -7.68488 313.569 -59.8399 339.925ZM-59.8399 389.945C-164.185 442.676 -245.15 533.64 -287.763 601.407L-290 600.509C-247.271 532.557 -166.045 441.248 -61.1782 388.254C-8.72714 361.748 49.6867 344.803 112.179 345.204C174.685 345.605 241.154 363.36 309.697 406.093C480.561 512.617 639.415 594.308 791.464 632.767C943.45 671.211 1088.62 666.457 1232.24 600.092C1252.86 590.568 1273.91 580.422 1295.33 570.102C1352.72 542.446 1412.72 513.533 1473.83 491.943C1557.77 462.285 1644.08 446.34 1729 466.446L1728.29 468.365C1644.2 448.455 1558.56 464.196 1474.84 493.773C1413.89 515.307 1354.1 544.119 1296.75 571.753C1275.3 582.089 1254.2 592.26 1233.5 601.824C1089.17 668.512 943.261 673.262 790.709 634.675C638.219 596.104 479.077 514.23 308.157 407.67C239.987 365.17 174.041 347.602 112.159 347.205C50.2627 346.808 -7.68488 363.589 -59.8399 389.945Z" fill="#474642"/>
</svg>
