<svg width="7" height="13" viewBox="0 0 7 13" fill="none" xmlns="http://www.w3.org/2000/svg">
<path d="M6.425 6.5001C6.425 6.7001 6.325 6.9001 6.125 7.0001L1.325 11.8001C1.025 12.1001 0.525 12.1001 0.225 11.8001C-0.075 11.5001 -0.075 11.0001 0.225 10.7001L4.425 6.5001L0.325 2.3001C0.025 2.0001 0.025 1.5001 0.325 1.2001C0.625 0.900098 1.125 0.900098 1.425 1.2001L6.125 6.0001C6.325 6.1001 6.425 6.3001 6.425 6.5001Z" fill="white"/>
<path d="M6.425 6.5001C6.425 6.7001 6.325 6.9001 6.125 7.0001L1.325 11.8001C1.025 12.1001 0.525 12.1001 0.225 11.8001C-0.075 11.5001 -0.075 11.0001 0.225 10.7001L4.425 6.5001L0.325 2.3001C0.025 2.0001 0.025 1.5001 0.325 1.2001C0.625 0.900098 1.125 0.900098 1.425 1.2001L6.125 6.0001C6.325 6.1001 6.425 6.3001 6.425 6.5001Z" fill="url(#paint0_linear_9970_7441)" fill-opacity="0.8"/>
<path d="M6.425 6.5001C6.425 6.7001 6.325 6.9001 6.125 7.0001L1.325 11.8001C1.025 12.1001 0.525 12.1001 0.225 11.8001C-0.075 11.5001 -0.075 11.0001 0.225 10.7001L4.425 6.5001L0.325 2.3001C0.025 2.0001 0.025 1.5001 0.325 1.2001C0.625 0.900098 1.125 0.900098 1.425 1.2001L6.125 6.0001C6.325 6.1001 6.425 6.3001 6.425 6.5001Z" fill="url(#paint1_linear_9970_7441)" fill-opacity="0.8"/>
<defs>
<linearGradient id="paint0_linear_9970_7441" x1="6.425" y1="12.0251" x2="-3.1783" y2="6.44128" gradientUnits="userSpaceOnUse">
<stop stop-color="#252117"/>
<stop offset="1" stop-opacity="0"/>
</linearGradient>
<linearGradient id="paint1_linear_9970_7441" x1="0" y1="0.975098" x2="9.51087" y2="6.61253" gradientUnits="userSpaceOnUse">
<stop offset="0.484375" stop-color="#E4AA24"/>
<stop offset="1" stop-opacity="0"/>
</linearGradient>
</defs>
</svg>
