<svg width="1440" height="814" viewBox="0 0 1440 814" fill="none" xmlns="http://www.w3.org/2000/svg">
<path fill-rule="evenodd" clip-rule="evenodd" d="M-348.84 44.7479C-453.185 97.4786 -534.15 188.442 -576.763 256.21L-579 255.312C-536.271 187.359 -455.045 96.0511 -350.178 43.0569C-297.727 16.5508 -239.313 -0.394064 -176.821 0.00696579C-114.315 0.408087 -47.8457 18.1626 20.6974 60.8956C191.561 167.42 350.415 249.111 502.464 287.57C654.45 326.014 799.618 321.26 943.243 254.895C963.856 245.371 984.909 235.225 1006.33 224.905C1063.72 197.249 1123.72 168.336 1184.83 146.746C1268.77 117.088 1355.08 101.143 1440 121.249L1439.29 123.168C1355.2 103.258 1269.56 118.999 1185.84 148.576C1124.89 170.11 1065.1 198.921 1007.75 226.556C986.303 236.892 965.195 247.063 944.497 256.627C800.173 323.314 654.261 328.064 501.709 289.478C349.219 250.907 190.077 169.033 19.1572 62.4731C-49.0132 19.9725 -114.959 2.4048 -176.841 2.00769C-238.737 1.61049 -296.685 18.3914 -348.84 44.7479ZM-348.84 94.7676C-453.185 147.498 -534.15 238.462 -576.763 306.23L-579 305.331C-536.271 237.379 -455.045 146.071 -350.178 93.0766C-297.727 66.5705 -239.313 49.6257 -176.821 50.0267C-114.315 50.4278 -47.8457 68.1824 20.6974 110.915C191.561 217.44 350.415 299.13 502.464 337.59C654.45 376.033 799.618 371.28 943.243 304.915C963.856 295.39 984.91 285.245 1006.33 274.924C1063.72 247.269 1123.72 218.355 1184.83 196.766C1268.77 167.108 1355.08 151.163 1440 171.269L1439.29 173.187C1355.2 153.278 1269.56 169.019 1185.84 198.596C1124.89 220.13 1065.1 248.941 1007.75 276.576C986.303 286.911 965.195 297.083 944.497 306.647C800.173 373.334 654.261 378.084 501.709 339.497C349.219 300.926 190.077 219.052 19.1572 112.493C-49.0132 69.9922 -114.959 52.4245 -176.841 52.0274C-238.737 51.6302 -296.685 68.4112 -348.84 94.7676ZM-348.84 144.787C-453.185 197.518 -534.15 288.482 -576.763 356.25L-579 355.351C-536.271 287.399 -455.045 196.091 -350.178 143.096C-297.727 116.59 -239.313 99.6454 -176.821 100.046C-114.315 100.448 -47.8457 118.202 20.6974 160.935C191.561 267.46 350.415 349.15 502.464 387.61C654.45 426.053 799.618 421.299 943.243 354.934C963.856 345.41 984.91 335.265 1006.33 324.944C1063.72 297.288 1123.72 268.375 1184.83 246.785C1268.77 217.128 1355.08 201.182 1440 221.289L1439.29 223.207C1355.2 203.297 1269.56 219.038 1185.84 248.615C1124.89 270.15 1065.1 298.961 1007.75 326.595C986.303 336.931 965.195 347.102 944.497 356.666C800.173 423.354 654.261 428.104 501.709 389.517C349.219 350.946 190.077 269.072 19.1572 162.513C-49.0132 120.012 -114.959 102.444 -176.841 102.047C-238.737 101.65 -296.685 118.431 -348.84 144.787ZM-348.84 194.807C-453.185 247.538 -534.15 338.501 -576.763 406.269L-579 405.371C-536.271 337.419 -455.045 246.11 -350.178 193.116C-297.727 166.61 -239.313 149.665 -176.821 150.066C-114.315 150.467 -47.8457 168.222 20.6974 210.955C191.561 317.479 350.415 399.17 502.464 437.629C654.45 476.073 799.618 471.319 943.243 404.954C963.856 395.43 984.91 385.284 1006.33 374.964C1063.72 347.308 1123.72 318.395 1184.83 296.805C1268.77 267.147 1355.08 251.202 1440 271.308L1439.29 273.227C1355.2 253.317 1269.56 269.058 1185.84 298.635C1124.89 320.169 1065.1 348.981 1007.75 376.615C986.303 386.951 965.195 397.122 944.497 406.686C800.173 473.374 654.261 478.124 501.709 439.537C349.219 400.966 190.077 319.092 19.1572 212.532C-49.0132 170.032 -114.959 152.464 -176.841 152.067C-238.737 151.67 -296.685 168.451 -348.84 194.807ZM-348.84 244.827C-453.185 297.558 -534.15 388.521 -576.763 456.289L-579 455.391C-536.271 387.438 -455.045 296.13 -350.178 243.136C-297.727 216.63 -239.313 199.685 -176.821 200.086C-114.315 200.487 -47.8457 218.242 20.6974 260.975C191.561 367.499 350.415 449.19 502.464 487.649C654.45 526.093 799.618 521.339 943.243 454.974C963.856 445.449 984.91 435.304 1006.33 424.983C1063.72 397.328 1123.72 368.414 1184.83 346.825C1268.77 317.167 1355.08 301.222 1440 321.328L1439.29 323.246C1355.2 303.337 1269.56 319.078 1185.84 348.655C1124.89 370.189 1065.1 399 1007.75 426.635C986.303 436.971 965.195 447.142 944.497 456.706C800.173 523.393 654.261 528.143 501.709 489.557C349.219 450.986 190.077 369.112 19.1572 262.552C-49.0132 220.051 -114.959 202.484 -176.841 202.087C-238.737 201.689 -296.685 218.47 -348.84 244.827ZM-348.84 294.846C-453.185 347.577 -534.15 438.541 -576.763 506.309L-579 505.41C-536.271 437.458 -455.045 346.15 -350.178 293.155C-297.727 266.649 -239.313 249.705 -176.821 250.106C-114.315 250.507 -47.8457 268.261 20.6974 310.994C191.561 417.519 350.415 499.209 502.464 537.669C654.45 576.112 799.618 571.359 943.243 504.993C963.856 495.469 984.91 485.324 1006.33 475.003C1063.72 447.348 1123.72 418.434 1184.83 396.845C1268.77 367.187 1355.08 351.242 1440 371.348L1439.29 373.266C1355.2 353.356 1269.56 369.097 1185.84 398.675C1124.89 420.209 1065.1 449.02 1007.75 476.654C986.303 486.99 965.195 497.161 944.497 506.726C800.173 573.413 654.261 578.163 501.709 539.576C349.219 501.005 190.077 419.131 19.1572 312.572C-49.0132 270.071 -114.959 252.503 -176.841 252.106C-238.737 251.709 -296.685 268.49 -348.84 294.846ZM-348.84 344.866C-453.185 397.597 -534.15 488.561 -576.763 556.328L-579 555.43C-536.271 487.478 -455.045 396.169 -350.178 343.175C-297.727 316.669 -239.313 299.724 -176.821 300.125C-114.315 300.526 -47.8457 318.281 20.6974 361.014C191.561 467.538 350.415 549.229 502.464 587.688C654.45 626.132 799.618 621.378 943.243 555.013C963.855 545.489 984.909 535.344 1006.33 525.023C1063.72 497.368 1123.72 468.454 1184.83 446.864C1268.77 417.206 1355.08 401.261 1440 421.367L1439.29 423.286C1355.2 403.376 1269.56 419.117 1185.84 448.694C1124.89 470.228 1065.1 499.04 1007.75 526.674C986.303 537.01 965.195 547.181 944.497 556.745C800.173 623.433 654.261 628.183 501.709 589.596C349.219 551.025 190.077 469.151 19.1572 362.591C-49.0132 320.091 -114.959 302.523 -176.841 302.126C-238.737 301.729 -296.685 318.51 -348.84 344.866ZM-348.84 394.886C-453.185 447.617 -534.15 538.58 -576.763 606.348L-579 605.45C-536.271 537.497 -455.045 446.189 -350.178 393.195C-297.727 366.689 -239.313 349.744 -176.821 350.145C-114.315 350.546 -47.8457 368.301 20.6974 411.034C191.561 517.558 350.415 599.249 502.464 637.708C654.45 676.152 799.618 671.398 943.243 605.033C963.855 595.509 984.909 585.363 1006.33 575.043C1063.72 547.387 1123.72 518.474 1184.83 496.884C1268.77 467.226 1355.08 451.281 1440 471.387L1439.29 473.306C1355.2 453.396 1269.56 469.137 1185.84 498.714C1124.89 520.248 1065.1 549.06 1007.75 576.694C986.303 587.03 965.195 597.201 944.497 606.765C800.173 673.453 654.261 678.202 501.709 639.616C349.219 601.045 190.077 519.171 19.1572 412.611C-49.0132 370.111 -114.959 352.543 -176.841 352.146C-238.737 351.749 -296.685 368.53 -348.84 394.886ZM-348.84 444.906C-453.185 497.636 -534.15 588.6 -576.763 656.368L-579 655.47C-536.271 587.517 -455.045 496.209 -350.178 443.215C-297.727 416.709 -239.313 399.764 -176.821 400.165C-114.315 400.566 -47.8457 418.32 20.6974 461.053C191.561 567.578 350.415 649.268 502.464 687.728C654.45 726.171 799.618 721.418 943.243 655.053C963.855 645.528 984.909 635.383 1006.33 625.062C1063.72 597.407 1123.72 568.493 1184.83 546.904C1268.77 517.246 1355.08 501.301 1440 521.407L1439.29 523.325C1355.2 503.416 1269.56 519.157 1185.84 548.734C1124.89 570.268 1065.1 599.079 1007.75 626.714C986.303 637.049 965.195 647.221 944.497 656.785C800.173 723.472 654.261 728.222 501.709 689.635C349.219 651.065 190.077 569.19 19.1572 462.631C-49.0132 420.13 -114.959 402.563 -176.841 402.165C-238.737 401.768 -296.685 418.549 -348.84 444.906ZM-348.84 494.925C-453.185 547.656 -534.15 638.62 -576.763 706.388L-579 705.489C-536.271 637.537 -455.045 546.229 -350.178 493.234C-297.727 466.728 -239.313 449.783 -176.821 450.184C-114.315 450.586 -47.8457 468.34 20.6974 511.073C191.561 617.598 350.415 699.288 502.464 737.748C654.45 776.191 799.618 771.437 943.243 705.072C963.855 695.548 984.909 685.403 1006.33 675.082C1063.72 647.427 1123.72 618.513 1184.83 596.924C1268.77 567.266 1355.08 551.321 1440 571.427L1439.29 573.345C1355.2 553.435 1269.56 569.176 1185.84 598.753C1124.89 620.288 1065.1 649.099 1007.75 676.733C986.303 687.069 965.195 697.24 944.497 706.804C800.173 773.492 654.261 778.242 501.709 739.655C349.219 701.084 190.077 619.21 19.1572 512.651C-49.0132 470.15 -114.959 452.582 -176.841 452.185C-238.737 451.788 -296.685 468.569 -348.84 494.925ZM-348.84 544.945C-453.185 597.676 -534.15 688.64 -576.763 756.407L-579 755.509C-536.271 687.557 -455.045 596.248 -350.178 543.254C-297.727 516.748 -239.313 499.803 -176.821 500.204C-114.315 500.605 -47.8457 518.36 20.6974 561.093C191.561 667.617 350.415 749.308 502.464 787.767C654.45 826.211 799.618 821.457 943.243 755.092C963.855 745.568 984.909 735.422 1006.33 725.102C1063.72 697.446 1123.72 668.533 1184.83 646.943C1268.77 617.285 1355.08 601.34 1440 621.446L1439.29 623.365C1355.2 603.455 1269.56 619.196 1185.84 648.773C1124.89 670.307 1065.1 699.119 1007.75 726.753C986.303 737.089 965.195 747.26 944.497 756.824C800.173 823.512 654.261 828.262 501.709 789.675C349.219 751.104 190.077 669.23 19.1572 562.67C-49.0132 520.17 -114.959 502.602 -176.841 502.205C-238.737 501.808 -296.685 518.589 -348.84 544.945Z" fill="#F9F9F9"/>
</svg>
