<svg width="24" height="24" viewBox="0 0 24 24" fill="none" xmlns="http://www.w3.org/2000/svg">
<g clip-path="url(#clip0)">
<path d="M20.4491 20.4485H16.8931V14.8795C16.8931 13.5515 16.8694 11.842 15.0436 11.842C13.1915 11.842 12.9081 13.2889 12.9081 14.7828V20.4481H9.35213V8.99599H12.7658V10.5611H12.8137C13.1553 9.9769 13.649 9.49634 14.2421 9.17057C14.8353 8.84479 15.5057 8.68599 16.1819 8.71108C19.7861 8.71108 20.4506 11.0818 20.4506 14.166L20.4491 20.4485ZM5.33963 7.43064C4.19991 7.43083 3.27581 6.50702 3.27562 5.3673C3.27544 4.22758 4.19916 3.30349 5.33887 3.3033C6.47859 3.30302 7.40269 4.22683 7.40287 5.36655C7.40297 5.91387 7.18566 6.43881 6.79872 6.8259C6.41179 7.21299 5.88694 7.43052 5.33963 7.43064ZM7.11769 20.4486H3.55791V8.99599H7.11759V20.4485L7.11769 20.4486ZM22.2219 0.000770177H1.77103C0.804469 -0.0101048 0.0118125 0.764176 0 1.73074V22.267C0.0114375 23.234 0.804 24.009 1.77094 23.9989H22.2219C23.1909 24.0109 23.9866 23.2359 24 22.267V1.72915C23.9862 0.760708 23.1905 -0.0134798 22.2219 -0.000823573" fill="#0A66C2"/>
</g>
<defs>
<clipPath id="clip0">
<rect width="24" height="24" fill="white"/>
</clipPath>
</defs>
</svg>
