<svg width="129" height="30" viewBox="0 0 129 30" fill="none" xmlns="http://www.w3.org/2000/svg">
<g clip-path="url(#clip0)">
<path d="M3 1.0003L3.504 0.136296C3.35203 0.0476156 3.17935 0.000603072 3.00339 5.76358e-06C2.82744 -0.000591544 2.65445 0.0452475 2.50188 0.132894C2.3493 0.220541 2.22256 0.346893 2.13444 0.499191C2.04632 0.65149 1.99995 0.824343 2 1.0003H3ZM3 29.0003H2C1.99995 29.1763 2.04632 29.3491 2.13444 29.5014C2.22256 29.6537 2.3493 29.7801 2.50188 29.8677C2.65445 29.9553 2.82744 30.0012 3.00339 30.0006C3.17935 30 3.35203 29.953 3.504 29.8643L3 29.0003ZM27 15.0003L27.504 15.8643C27.6551 15.7763 27.7804 15.6502 27.8675 15.4985C27.9547 15.3469 28.0005 15.1752 28.0005 15.0003C28.0005 14.8254 27.9547 14.6537 27.8675 14.502C27.7804 14.3504 27.6551 14.2243 27.504 14.1363L27 15.0003ZM2 1.0003V29.0003H4V1.0003H2ZM3.504 29.8643L27.504 15.8643L26.496 14.1363L2.496 28.1363L3.504 29.8643ZM27.504 14.1363L3.504 0.136296L2.496 1.8643L26.496 15.8643L27.504 14.1363ZM3.658 25.7523L19.658 11.7523L18.342 10.2483L2.342 24.2483L3.658 25.7523ZM2.342 5.7523L18.342 19.7523L19.658 18.2483L3.658 4.2483L2.342 5.7523Z" fill="#434240"/>
</g>
<path d="M44.09 2.79C43.37 2.79 42.7533 3.05333 42.24 3.58C41.7333 4.10667 41.48 4.75 41.48 5.51C41.48 6.24333 41.72 6.87667 42.2 7.41C42.6867 7.94333 43.3633 8.21 44.23 8.21C44.8433 8.21 45.3933 8.05333 45.88 7.74V6.31H43.91V5.5H46.79V8.13C46.07 8.78333 45.2 9.11 44.18 9.11C43.12 9.11 42.2333 8.76333 41.52 8.07C40.8133 7.37 40.46 6.52 40.46 5.52C40.46 4.51333 40.8133 3.65667 41.52 2.95C42.2333 2.24333 43.09 1.89 44.09 1.89C45.1033 1.89 45.9533 2.14667 46.64 2.66L46.25 3.43C45.9433 3.23 45.65 3.08 45.37 2.98C45.09 2.88 44.8733 2.82333 44.72 2.81C44.5667 2.79667 44.3567 2.79 44.09 2.79ZM52.2135 7.62L52.7535 8.18C52.2002 8.8 51.4702 9.11 50.5635 9.11C49.7168 9.11 49.0335 8.86 48.5135 8.36C48.0002 7.86 47.7435 7.24667 47.7435 6.52C47.7435 5.78 47.9968 5.15667 48.5035 4.65C49.0168 4.14333 49.6602 3.89 50.4335 3.89C51.1468 3.89 51.7502 4.12333 52.2435 4.59C52.7368 5.05 52.9835 5.71667 52.9835 6.59H48.7135C48.7002 7.07 48.8668 7.46667 49.2135 7.78C49.5668 8.09333 50.0202 8.25 50.5735 8.25C51.1735 8.25 51.7202 8.04 52.2135 7.62ZM50.4535 4.74C50.1068 4.74 49.7802 4.82667 49.4735 5C49.1735 5.16667 48.9502 5.44667 48.8035 5.84H51.9835C51.7635 5.10667 51.2535 4.74 50.4535 4.74ZM55.2417 4.76V7.49C55.2417 8.00333 55.4417 8.26 55.8417 8.26C56.0084 8.26 56.1517 8.21333 56.2717 8.12C56.3917 8.02 56.4517 7.88333 56.4517 7.71C56.4517 7.55 56.4251 7.41333 56.3717 7.3H57.2217C57.2684 7.42 57.2951 7.53333 57.3017 7.64C57.3084 7.68667 57.3117 7.75333 57.3117 7.84C57.3117 8.21333 57.1817 8.52 56.9217 8.76C56.6617 8.99333 56.2984 9.11 55.8317 9.11C55.3851 9.11 55.0117 8.97667 54.7117 8.71C54.4184 8.44333 54.2717 8.01333 54.2717 7.42V4.76H53.4517V4H54.2717L54.4917 2.56H55.2417V4H56.8317V4.76H55.2417ZM61.8579 9V4H60.8879V9H61.8579ZM60.8879 2.87C60.7612 2.74333 60.6979 2.58333 60.6979 2.39C60.6979 2.19667 60.7612 2.03667 60.8879 1.91C61.0146 1.77667 61.1746 1.71 61.3679 1.71C61.5612 1.71 61.7212 1.77667 61.8479 1.91C61.9812 2.03667 62.0479 2.19667 62.0479 2.39C62.0479 2.58333 61.9812 2.74333 61.8479 2.87C61.7212 2.99667 61.5612 3.06 61.3679 3.06C61.1746 3.06 61.0146 2.99667 60.8879 2.87ZM64.6363 4.76V7.49C64.6363 8.00333 64.8363 8.26 65.2363 8.26C65.4029 8.26 65.5463 8.21333 65.6663 8.12C65.7863 8.02 65.8463 7.88333 65.8463 7.71C65.8463 7.55 65.8196 7.41333 65.7663 7.3H66.6163C66.6629 7.42 66.6896 7.53333 66.6963 7.64C66.7029 7.68667 66.7063 7.75333 66.7063 7.84C66.7063 8.21333 66.5763 8.52 66.3163 8.76C66.0563 8.99333 65.6929 9.11 65.2262 9.11C64.7796 9.11 64.4063 8.97667 64.1063 8.71C63.8129 8.44333 63.6663 8.01333 63.6663 7.42V4.76H62.8463V4H63.6663L63.8863 2.56H64.6363V4H66.2263V4.76H64.6363ZM70.6424 8.35C70.1291 7.83667 69.8724 7.22 69.8724 6.5C69.8724 5.78 70.1291 5.16667 70.6424 4.66C71.1558 4.14667 71.7724 3.89 72.4924 3.89C73.2191 3.89 73.8391 4.14667 74.3524 4.66C74.8658 5.16667 75.1224 5.78 75.1224 6.5C75.1224 7.22 74.8658 7.83667 74.3524 8.35C73.8391 8.85667 73.2191 9.11 72.4924 9.11C71.7724 9.11 71.1558 8.85667 70.6424 8.35ZM71.3224 5.27C71.0024 5.61667 70.8424 6.03 70.8424 6.51C70.8424 6.99 71.0024 7.4 71.3224 7.74C71.6491 8.08 72.0391 8.25 72.4924 8.25C72.9524 8.25 73.3424 8.08 73.6624 7.74C73.9891 7.4 74.1524 6.99 74.1524 6.51C74.1524 6.03 73.9891 5.61667 73.6624 5.27C73.3424 4.92333 72.9524 4.75 72.4924 4.75C72.0391 4.75 71.6491 4.92333 71.3224 5.27ZM79.8778 9V6.18C79.8778 5.68667 79.7811 5.32667 79.5878 5.1C79.3945 4.86667 79.1511 4.75 78.8578 4.75C78.7045 4.75 78.5445 4.78 78.3778 4.84C78.2178 4.89333 78.0478 4.98667 77.8678 5.12C77.6878 5.25333 77.5378 5.45667 77.4178 5.73C77.3045 5.99667 77.2478 6.31333 77.2478 6.68V9H76.2778V4H77.2478V5C77.3545 4.64667 77.5545 4.37333 77.8478 4.18C78.1478 3.98667 78.5078 3.89 78.9278 3.89C79.5011 3.89 79.9645 4.08 80.3178 4.46C80.6711 4.84 80.8478 5.41333 80.8478 6.18V9H79.8778Z" fill="#434240"/>
<path d="M46.27 17.06C45.15 17.06 44.255 17.43 43.585 18.17C42.925 18.9 42.595 19.77 42.595 20.78C42.595 21.8 42.925 22.665 43.585 23.375C44.255 24.075 45.155 24.425 46.285 24.425C47.115 24.425 47.85 24.245 48.49 23.885V22.055H45.685V20.525H50.26V24.635C49.15 25.655 47.815 26.165 46.255 26.165C44.655 26.165 43.315 25.64 42.235 24.59C41.165 23.54 40.63 22.265 40.63 20.765C40.63 19.255 41.16 17.975 42.22 16.925C43.29 15.865 44.625 15.335 46.225 15.335C47.635 15.335 48.905 15.755 50.035 16.595L49.165 18.035C48.215 17.385 47.25 17.06 46.27 17.06ZM52.7849 25.01C51.9749 24.23 51.5699 23.295 51.5699 22.205C51.5699 21.115 51.9749 20.185 52.7849 19.415C53.6049 18.635 54.5699 18.245 55.6799 18.245C56.7899 18.245 57.7549 18.635 58.5749 19.415C59.3949 20.195 59.8049 21.125 59.8049 22.205C59.8049 23.295 59.3949 24.23 58.5749 25.01C57.7649 25.78 56.7999 26.165 55.6799 26.165C54.5699 26.165 53.6049 25.78 52.7849 25.01ZM54.0749 20.525C53.6449 20.985 53.4299 21.545 53.4299 22.205C53.4299 22.865 53.6449 23.43 54.0749 23.9C54.5149 24.36 55.0499 24.59 55.6799 24.59C56.3199 24.59 56.8549 24.36 57.2849 23.9C57.7249 23.43 57.9449 22.865 57.9449 22.205C57.9449 21.545 57.7249 20.985 57.2849 20.525C56.8549 20.055 56.3199 19.82 55.6799 19.82C55.0499 19.82 54.5149 20.055 54.0749 20.525ZM62.072 25.01C61.262 24.23 60.857 23.295 60.857 22.205C60.857 21.115 61.262 20.185 62.072 19.415C62.892 18.635 63.857 18.245 64.967 18.245C66.077 18.245 67.042 18.635 67.862 19.415C68.682 20.195 69.092 21.125 69.092 22.205C69.092 23.295 68.682 24.23 67.862 25.01C67.052 25.78 66.087 26.165 64.967 26.165C63.857 26.165 62.892 25.78 62.072 25.01ZM63.362 20.525C62.932 20.985 62.717 21.545 62.717 22.205C62.717 22.865 62.932 23.43 63.362 23.9C63.802 24.36 64.337 24.59 64.967 24.59C65.607 24.59 66.142 24.36 66.572 23.9C67.012 23.43 67.232 22.865 67.232 22.205C67.232 21.545 67.012 20.985 66.572 20.525C66.142 20.055 65.607 19.82 64.967 19.82C64.337 19.82 63.802 20.055 63.362 20.525ZM72.0341 22.19C72.0341 22.89 72.2341 23.47 72.6341 23.93C73.0441 24.39 73.5891 24.62 74.2691 24.62C74.9191 24.62 75.4591 24.41 75.8891 23.99C76.3191 23.57 76.5341 22.995 76.5341 22.265C76.5341 21.525 76.3191 20.93 75.8891 20.48C75.4691 20.02 74.9141 19.79 74.2241 19.79C73.5541 19.79 73.0191 20.02 72.6191 20.48C72.2291 20.94 72.0341 21.51 72.0341 22.19ZM70.8641 28.52C71.0341 28.2 71.2791 27.72 71.5991 27.08C71.9091 27.35 72.2841 27.57 72.7241 27.74C73.1741 27.91 73.6241 27.995 74.0741 27.995C74.7841 27.995 75.3641 27.815 75.8141 27.455C76.2641 27.095 76.4891 26.53 76.4891 25.76V24.875C76.2291 25.275 75.8641 25.59 75.3941 25.82C74.9341 26.05 74.4341 26.165 73.8941 26.165C72.7941 26.165 71.8991 25.785 71.2091 25.025C70.5191 24.255 70.1741 23.305 70.1741 22.175C70.1741 21.065 70.5141 20.135 71.1941 19.385C71.8741 18.625 72.7791 18.245 73.9091 18.245C75.0291 18.245 75.8891 18.675 76.4891 19.535V18.41H78.3341V25.175C78.3341 26.685 77.9741 27.8 77.2541 28.52C76.5441 29.24 75.5591 29.6 74.2991 29.6C72.9091 29.6 71.7641 29.24 70.8641 28.52ZM82.3 26H80.455V15.155H82.3V26ZM90.649 23.675L91.699 24.71C90.829 25.68 89.684 26.165 88.264 26.165C86.944 26.165 85.884 25.79 85.084 25.04C84.294 24.28 83.899 23.345 83.899 22.235C83.899 21.105 84.294 20.16 85.084 19.4C85.874 18.63 86.864 18.245 88.054 18.245C89.164 18.245 90.104 18.605 90.874 19.325C91.654 20.035 92.044 21.08 92.044 22.46H85.744C85.744 23.08 85.979 23.595 86.449 24.005C86.929 24.405 87.564 24.605 88.354 24.605C89.204 24.605 89.969 24.295 90.649 23.675ZM88.054 19.715C87.574 19.715 87.129 19.83 86.719 20.06C86.319 20.29 86.024 20.675 85.834 21.215H90.154C90.024 20.685 89.759 20.305 89.359 20.075C88.959 19.835 88.524 19.715 88.054 19.715ZM99.5346 26H97.6146V15.5H102.025C103.035 15.5 103.835 15.825 104.425 16.475C105.015 17.125 105.31 17.925 105.31 18.875C105.31 19.815 105.015 20.6 104.425 21.23C103.845 21.85 103.045 22.16 102.025 22.16H99.5346V26ZM99.5346 20.645H101.725C102.225 20.645 102.62 20.485 102.91 20.165C103.2 19.835 103.345 19.4 103.345 18.86C103.345 18.31 103.2 17.87 102.91 17.54C102.62 17.21 102.225 17.045 101.725 17.045H99.5346V20.645ZM108.711 26H106.866V15.155H108.711V26ZM116.655 18.41H118.5V26H116.655V24.86C116.095 25.73 115.23 26.165 114.06 26.165C112.96 26.165 112.065 25.785 111.375 25.025C110.685 24.255 110.34 23.305 110.34 22.175C110.34 21.065 110.68 20.135 111.36 19.385C112.04 18.625 112.945 18.245 114.075 18.245C115.195 18.245 116.055 18.675 116.655 19.535V18.41ZM112.2 22.19C112.2 22.89 112.4 23.47 112.8 23.93C113.21 24.39 113.755 24.62 114.435 24.62C115.085 24.62 115.625 24.41 116.055 23.99C116.485 23.57 116.7 22.995 116.7 22.265C116.7 21.525 116.485 20.93 116.055 20.48C115.635 20.02 115.08 19.79 114.39 19.79C113.72 19.79 113.185 20.02 112.785 20.48C112.395 20.94 112.2 21.51 112.2 22.19ZM123.921 23.615L125.901 18.41H127.971L123.261 29.435H121.446L122.991 25.55L119.766 18.41H121.851L123.921 23.615Z" fill="#434240"/>
<defs>
<clipPath id="clip0">
<rect width="30" height="30" fill="white"/>
</clipPath>
</defs>
</svg>
