<svg width="24" height="26" viewBox="0 0 24 26" fill="none" xmlns="http://www.w3.org/2000/svg">
<path d="M8.04079 3.40965C7.2902 2.63756 6.05036 2.63734 5.2995 3.40917C4.57767 4.15114 4.57746 5.33284 5.29903 6.07507L10.8028 11.7364C11.4592 12.4117 12.5437 12.4117 13.2002 11.7364L18.7039 6.07508C19.4255 5.33284 19.4253 4.15114 18.7035 3.40917C17.9526 2.63734 16.7128 2.63756 15.9622 3.40965L12.0015 7.48378L8.04079 3.40965Z" fill="#D3E1D9"/>
<path d="M8.03782 16.4402C7.28723 15.6682 6.0474 15.6679 5.29654 16.4398C4.57471 17.1817 4.5745 18.3634 5.29607 19.1057L10.7998 24.767C11.4563 25.4423 12.5407 25.4423 13.1972 24.767L18.701 19.1057C19.4225 18.3634 19.4223 17.1817 18.7005 16.4398C17.9496 15.6679 16.7098 15.6682 15.9592 16.4402L11.9985 20.5144L8.03782 16.4402Z" fill="#D3E1D9"/>
</svg>
