<svg width="16" height="16" viewBox="0 0 16 16" fill="none" xmlns="http://www.w3.org/2000/svg">
<g clip-path="url(#clip0_12202_25505)">
<path d="M8 1.33398V7.00065" stroke="#4BAA73" stroke-width="1.33333" stroke-linecap="round" stroke-linejoin="round"/>
<path d="M7.9987 1.33398C4.3168 1.33398 1.33203 4.31875 1.33203 8.00065C1.33203 11.6826 4.3168 14.6673 7.9987 14.6673C11.6806 14.6673 14.6654 11.6826 14.6654 8.00065C14.6654 6.45875 14.1419 5.03912 13.263 3.90975" stroke="#4BAA73" stroke-width="1.33333" stroke-linecap="round"/>
<path d="M7.9987 4.33398C5.97366 4.33398 4.33203 5.97562 4.33203 8.00065C4.33203 10.0257 5.97366 11.6673 7.9987 11.6673C10.0237 11.6673 11.6654 10.0257 11.6654 8.00065C11.6654 7.15262 11.3775 6.37182 10.8941 5.75065" stroke="#4BAA73" stroke-width="1.33333" stroke-linecap="round"/>
<path d="M8 9C8.55228 9 9 8.55228 9 8C9 7.44772 8.55228 7 8 7C7.44772 7 7 7.44772 7 8C7 8.55228 7.44772 9 8 9Z" stroke="#4BAA73" stroke-width="1.33333"/>
</g>
<defs>
<clipPath id="clip0_12202_25505">
<rect width="16" height="16" fill="white"/>
</clipPath>
</defs>
</svg>
