<svg width="38" height="38" viewBox="0 0 38 38" fill="none" xmlns="http://www.w3.org/2000/svg">
<rect x="0.5" y="0.5" width="37" height="37" rx="6.5" fill="white" stroke="white"/>
<path d="M15.368 11.7891L12.632 10.8761C12.3313 10.7759 12.0112 10.7487 11.6979 10.7965C11.3846 10.8444 11.0872 10.966 10.8302 11.1514C10.5731 11.3367 10.3638 11.5805 10.2195 11.8627C10.0752 12.1448 9.99992 12.4572 10 12.7741V24.5571C9.9999 24.977 10.132 25.3863 10.3775 25.727C10.6231 26.0676 10.9696 26.3224 11.368 26.4551L15.368 27.7881C15.7783 27.9247 16.2217 27.9247 16.632 27.7881L21.368 26.2101C21.7783 26.0734 22.2217 26.0734 22.632 26.2101L25.368 27.1221C25.6687 27.2222 25.989 27.2495 26.3023 27.2016C26.6157 27.1536 26.9132 27.0319 27.1702 26.8465C27.4273 26.661 27.6366 26.4171 27.7808 26.1348C27.9251 25.8526 28.0002 25.5401 28 25.2231V13.4411C28.0002 13.0213 27.8682 12.612 27.6229 12.2714C27.3775 11.9307 27.0312 11.6759 26.633 11.5431L22.633 10.2101C22.2224 10.0732 21.7786 10.0732 21.368 10.2101L16.631 11.7881C16.2207 11.9247 15.7773 11.9247 15.367 11.7881L15.368 11.7891Z" stroke="#DCDCDC" stroke-width="1.5" stroke-linecap="round" stroke-linejoin="round"/>
<path d="M16 12V28" stroke="#DCDCDC" stroke-width="1.5" stroke-linejoin="round"/>
<path d="M22 10V26" stroke="#DCDCDC" stroke-width="1.5" stroke-linejoin="round"/>
</svg>
