<svg width="31" height="24" viewBox="0 0 31 24" fill="none" xmlns="http://www.w3.org/2000/svg">
<path d="M21.8595 18.5014C20.9398 18.5014 20.195 17.7556 20.195 16.8372C20.195 15.9182 20.9398 15.1746 21.8595 15.1746C22.78 15.1746 23.5243 15.9182 23.5243 16.8372C23.5243 17.7556 22.78 18.5014 21.8595 18.5014ZM29.0846 17.7255C28.455 16.8762 24.3898 11.6926 18.6894 11.6926C13.74 11.6926 8.44562 16.1826 8.44562 16.1826C8.44562 16.1826 6.45588 12.1106 2.38772 11.7196C2.36307 11.7196 2.33834 11.7142 2.31045 11.7142H2.28638C2.20125 11.7196 2.12172 11.8013 2.13056 11.8757C2.14166 11.946 2.19363 12.0246 2.19363 12.0246C2.71865 12.8944 4.05698 15.3726 4.05698 17.8459C4.05698 20.3296 2.71046 22.8131 2.19047 23.6801L2.15561 23.7346C2.14045 23.7609 2.13056 23.7878 2.13056 23.8201C2.13056 23.9066 2.19744 23.9737 2.2807 23.981L2.3244 23.9769C2.33834 23.9769 2.35294 23.9769 2.36745 23.9737C6.44826 23.5921 8.44562 19.51 8.44562 19.51C8.44562 19.51 13.74 24 18.6894 24C24.3898 24 28.455 18.8165 29.0846 17.9677C29.1017 17.944 29.115 17.9244 29.128 17.9086C29.1356 17.8886 29.1413 17.8712 29.1413 17.8459C29.1413 17.8246 29.1356 17.8024 29.128 17.7851C29.115 17.7677 29.1017 17.7471 29.0846 17.7255Z" fill="white"/>
<path d="M0.568093 0.968535C0.554473 0.966022 0.544339 0.96059 0.533232 0.96059C0.431325 0.96059 0.348633 1.04458 0.348633 1.14746V2.42596C0.348633 2.47752 0.368576 2.52568 0.402788 2.55827C3.50191 5.24919 6.43596 2.7277 7.11526 2.06016C7.12921 2.03957 7.14372 2.02149 7.16399 2.00787C7.19414 1.98987 7.22738 1.97398 7.26533 1.97398C7.31316 1.97398 7.3588 1.99368 7.39042 2.02465C7.39301 2.0279 7.39682 2.03106 7.39934 2.03163C10.9009 5.37363 14.571 2.66755 15.3345 2.03163L15.4102 1.96361C15.4321 1.95347 15.4552 1.95023 15.4799 1.95023C15.5055 1.95023 15.5324 1.95347 15.5527 1.96361L15.6278 2.03163C16.3919 2.66755 20.0626 5.37363 23.5633 2.03163C23.5639 2.03106 23.5683 2.0279 23.5699 2.02465C23.6032 1.99368 23.6459 1.97398 23.6947 1.97398C23.7327 1.97398 23.7675 1.98987 23.796 2.00787C23.817 2.02149 23.8324 2.03957 23.8477 2.06016C24.5263 2.7277 27.4582 5.24919 30.5595 2.55827C30.5921 2.52568 30.6133 2.47752 30.6133 2.42596V1.14746C30.6133 1.04458 30.5328 0.96059 30.4315 0.96059C30.4179 0.96059 30.4056 0.966022 30.3919 0.968535C30.3628 0.984992 30.3334 1.00023 30.2989 1.01766C29.3456 1.49331 26.3897 2.63017 23.7061 0.091989C23.6798 0.0675864 23.6542 0.043833 23.6281 0.0169172C23.6032 0.006459 23.5794 0.000135422 23.5493 0.000135422C23.53 0.000135422 23.5103 0.00483871 23.4936 0.00800061C23.454 0.0247824 23.4223 0.0501571 23.4005 0.0802345C22.6009 0.689892 18.9301 3.17587 15.6604 0.12677L15.6129 0.0792623C15.5786 0.0485361 15.5324 0.0247824 15.4799 0.0247824C15.4321 0.0247824 15.3839 0.0485361 15.3522 0.0792623L15.3013 0.12677C12.0344 3.17587 8.35825 0.689892 7.55986 0.0802345C7.53894 0.0501571 7.50887 0.0247824 7.46865 0.00800061C7.45033 0.00483871 7.4316 0.000135422 7.41069 0.000135422C7.38442 0.000135422 7.3588 0.006459 7.33343 0.0169172C7.31 0.043833 7.28154 0.0675864 7.25495 0.091989C4.57165 2.63017 1.61667 1.49331 0.662137 1.01766C0.628897 1.00023 0.597522 0.984992 0.568093 0.968535Z" fill="white"/>
<path d="M7.11591 6.70797C7.13042 6.68803 7.14372 6.67157 7.16431 6.6573C7.19414 6.63833 7.2286 6.62155 7.26565 6.62155C7.31348 6.62155 7.3588 6.64214 7.39107 6.67384C7.39301 6.677 7.39617 6.67951 7.39966 6.6817C10.8994 10.0189 14.571 7.31349 15.3357 6.6817L15.4102 6.60979C15.4321 6.60193 15.4548 6.59877 15.4799 6.59877C15.5068 6.59877 15.5315 6.60193 15.5533 6.60979L15.6284 6.6817C16.3919 7.31349 20.0626 10.0189 23.5636 6.6817C23.5642 6.67951 23.5673 6.677 23.5699 6.67384C23.6032 6.64214 23.6462 6.62155 23.6937 6.62155C23.733 6.62155 23.7678 6.63833 23.7951 6.6573C23.8173 6.67157 23.8318 6.68803 23.8483 6.70797C24.526 7.37527 27.4572 9.90016 30.5598 7.20364C30.5924 7.1704 30.6142 7.12759 30.6142 7.07441V5.79275C30.6142 5.69141 30.5323 5.60977 30.4309 5.60977C30.4179 5.60977 30.4059 5.61448 30.3913 5.61699C30.3628 5.63126 30.3328 5.64707 30.2989 5.66361C29.3463 6.14177 26.3887 7.2749 23.7055 4.73882C23.6804 4.71507 23.6542 4.69132 23.6281 4.66537C23.6032 4.65175 23.5797 4.64705 23.549 4.64705C23.5303 4.64705 23.511 4.65175 23.4939 4.66124C23.453 4.67016 23.4223 4.69707 23.4005 4.73031C22.6012 5.33835 18.9292 7.82432 15.6597 4.77531L15.612 4.7278C15.5781 4.69448 15.5315 4.67648 15.4799 4.67648C15.4321 4.67648 15.3839 4.69448 15.3516 4.7278L15.3015 4.77531C12.0334 7.82432 8.35825 5.33835 7.55986 4.73031C7.53894 4.69707 7.50797 4.67016 7.46995 4.66124C7.45065 4.65175 7.43128 4.64705 7.41069 4.64705C7.3841 4.64705 7.3588 4.65175 7.33472 4.66537C7.30935 4.69132 7.28211 4.71507 7.25495 4.73882C4.57165 7.2749 1.61667 6.14177 0.662461 5.66361C0.629221 5.64707 0.597522 5.63126 0.568093 5.61699C0.5535 5.61448 0.544987 5.60977 0.533232 5.60977C0.431325 5.60977 0.348633 5.69141 0.348633 5.79275V7.07441C0.348633 7.12759 0.368577 7.1704 0.401816 7.20364C3.50158 9.90016 6.43661 7.37527 7.11591 6.70797Z" fill="white"/>
</svg>
