<svg width="33" height="18" viewBox="0 0 33 18" fill="none" xmlns="http://www.w3.org/2000/svg">
<path d="M22.8969 10.4017C22.7178 10.3531 21.9682 9.31727 22.5609 8.63527C22.6592 8.52224 22.3625 8.19279 22.4433 8.186C22.7676 8.16042 22.9397 8.36296 23.0253 8.65233C23.0314 8.78042 23.0365 8.90883 23.0365 9.03942C23.0365 9.50624 22.9879 9.96161 22.8969 10.4017ZM21.0691 13.7716C21.0017 13.7533 20.9331 13.7314 20.8592 13.6938C20.4952 13.5082 20.5385 13.8056 20.3593 13.7392C20.1787 13.6724 20.5611 13.2573 20.0231 13.6079C19.4875 13.9588 19.6316 13.554 19.3982 12.96C19.1619 12.3663 19.6671 11.6872 20.0885 11.5335C20.6686 11.3237 21.0292 11.2819 21.3005 11.2143C22.1028 11.0136 22.2721 10.539 22.4177 10.8277C22.4449 10.8819 22.4712 10.9329 22.4955 10.9828C22.542 11.0684 22.5964 11.2441 22.5989 11.4168C22.2585 12.3084 21.7331 13.1102 21.0691 13.7716ZM16.3609 15.7147C15.7084 15.7147 15.0798 15.6199 14.4847 15.4455C14.3995 15.3763 14.3504 15.2601 14.4039 15.1198C14.6106 14.5812 15.2255 14.3702 15.711 14.324C16.7932 14.2177 18.2163 15.0266 18.4422 14.8961C18.6695 14.766 19.1269 14.1708 19.7987 14.1963C20.2565 14.2129 20.2528 14.2899 20.4067 14.3478C19.2844 15.2048 17.8825 15.7147 16.3609 15.7147ZM15.4533 11.3638C15.3619 11.514 15.1102 12.6361 14.9422 12.506C14.7727 12.3747 15.0103 11.204 15.0592 11.1145C15.3227 10.6315 15.8933 10.6551 15.4533 11.3638ZM18.1796 10.0382C18.0476 10.1554 17.7104 10.1129 17.5416 9.98153C17.3736 9.85101 17.6481 9.63384 17.7483 9.62606C17.973 9.60664 18.3101 9.92028 18.1796 10.0382ZM21.1254 10.0496C21.0535 10.0236 20.9898 9.95483 20.935 9.79069C20.8808 9.6273 21.0185 9.53294 21.1534 9.59936C21.2905 9.66913 21.468 9.87335 21.468 9.98277C21.468 10.0922 21.1991 10.0783 21.1254 10.0496ZM21.4092 10.2558C21.6334 10.2369 21.9701 10.5476 21.8388 10.6679C21.7075 10.7858 21.3707 10.7421 21.202 10.6101C21.034 10.48 21.3083 10.2624 21.4092 10.2558ZM14.2488 12.9169C14.119 13.4268 13.9675 13.6111 13.8381 13.7721C13.7093 13.935 13.2318 14.1429 12.9286 14.1204C12.6251 14.0974 12.5826 13.2877 12.5826 12.8712C12.5826 12.7261 12.3786 13.1533 12.2725 12.286C12.2048 11.7316 11.8483 12.3443 11.8233 11.9736C11.7977 11.6052 11.6197 11.6787 11.4325 11.4472C11.246 11.2167 11.0141 11.4703 10.7532 11.5858C10.495 11.7017 10.6015 11.7621 10.2329 11.6458C10.2234 11.6434 10.2193 11.6405 10.2098 11.6368C9.87182 10.8386 9.68509 9.96037 9.68509 9.03942C9.68509 8.81397 9.69773 8.59276 9.71796 8.37317C9.73128 8.35132 9.74373 8.32941 9.75947 8.31117C10.1128 7.89371 10.1045 7.79524 10.1045 7.79524L10.4955 7.66079C10.4955 7.66079 11.1194 7.75634 11.5886 7.93311C11.976 8.07851 12.5853 8.40672 12.9392 8.26138C13.1958 8.15631 13.3961 8.01651 13.3718 7.80302C13.3434 7.53556 13.1323 7.47114 12.877 7.65183C12.7832 7.71793 12.5826 7.24868 12.425 7.27302C12.2682 7.29611 12.62 7.82443 12.486 7.84678C12.353 7.87062 12.0834 7.29611 12.0379 7.2025C11.9924 7.11081 11.7853 6.88107 11.5986 7.0566C11.2052 7.42981 10.566 7.40746 10.4371 7.504C10.0464 7.79574 9.94359 7.40746 9.9523 7.17088C9.96786 7.11741 9.98392 7.0622 10.0012 7.00917C10.1288 6.86819 10.5864 6.82151 10.7442 6.92601C10.9163 7.04154 11.0401 6.89614 11.1082 6.82636C11.1765 6.75752 11.1522 6.64691 11.1094 6.55455C11.0649 6.46211 11.1957 6.39477 11.2847 6.36975C11.3744 6.34616 11.672 6.13826 11.7907 6.06899C11.9113 6.00089 12.5279 5.92552 12.805 6.06289C13.0813 6.20269 13.3343 6.08841 13.4707 5.92844C13.6415 5.72615 13.8581 5.57297 13.9544 5.52554C14.0516 5.4806 13.7168 5.16814 13.4411 5.50905C13.1651 5.84771 13.0244 5.87859 12.895 5.87859C12.7656 5.87859 11.9949 5.68725 11.8998 5.44288C11.8057 5.19976 12.1405 5.01789 12.425 4.88002C12.7095 4.74439 13.4875 4.74632 13.6869 4.70132C14.0915 4.61256 14.6082 4.40958 14.8688 4.58636C15.1279 4.7602 13.781 5.06774 14.224 5.30601C14.3813 5.39309 15.0935 4.89707 15.3376 4.76991C15.9113 4.47401 14.781 4.37554 14.9274 3.77377C15.0935 3.0947 13.5406 3.35724 12.7664 3.41438C13.8046 2.74944 15.0375 2.36284 16.3609 2.36284C19.5105 2.36284 22.1481 4.54453 22.8514 7.47842C22.8561 7.62314 22.8335 7.72764 22.8191 7.78721C22.7586 8.02672 22.302 8.23412 22.0372 7.84678C21.9694 7.74905 21.6832 7.47917 21.6924 7.94163C21.7019 8.40479 22.1427 8.45172 21.7155 8.72889C21.2898 9.0073 21.2115 8.93921 21.0143 9.01023C20.8174 9.0795 20.627 9.55604 20.6742 9.81136C20.7216 10.0654 21.3304 10.7616 20.8784 10.7329C20.7727 10.7255 19.9751 10.1797 19.8431 9.82959C19.7046 9.46074 19.5526 9.10017 19.4451 8.82175C19.336 8.54533 19.0544 8.47363 18.8161 8.63701C18.5793 8.80065 18.8828 8.96161 18.7118 9.30999C18.5419 9.65693 18.4198 9.96697 18.1689 9.68077C17.5173 8.93435 16.5705 9.30146 16.4217 8.47045C16.3419 8.02137 15.9542 8.06394 15.6301 7.80912C15.3038 7.55579 15.1227 7.41717 15.0679 7.60073C15.0193 7.76244 16.0881 8.60975 16.1642 8.82667C16.2773 9.1476 15.8442 9.43279 15.5267 9.50867C15.2111 9.58523 15.0716 9.3319 14.7603 9.0078C14.4499 8.68438 14.3137 8.45296 14.2923 8.70629C14.2615 9.07415 14.5875 9.61317 14.9043 9.81497C15.1744 9.98638 15.4771 10.0638 15.3899 10.3409C15.3014 10.6198 15.3879 10.4625 15.0854 10.7616C14.7822 11.0623 14.7246 11.1595 14.7467 11.5748C14.7686 11.9918 14.6599 12.0161 14.595 12.3614C14.5303 12.7083 14.3796 12.4088 14.2488 12.9169ZM10.663 5.56083C10.6778 5.54185 10.6919 5.52728 10.6973 5.52C10.8179 5.38263 11.0579 5.35419 11.2239 5.32792C11.39 5.29947 11.6115 5.38263 11.6385 5.49274C11.6664 5.60266 11.2213 5.80396 11.1403 5.87983C10.9093 6.09258 10.5492 6.52486 10.3379 6.57154C10.2691 6.58735 10.212 6.5759 10.1658 6.5528C10.3046 6.20804 10.47 5.87448 10.663 5.56083ZM11.0048 4.88002C11.0912 4.75286 11.378 4.39135 11.4131 4.3456C11.4872 4.2508 11.6334 4.23089 11.7359 4.21308C11.8376 4.19242 11.9733 4.2508 11.9896 4.32693C12.0076 4.40274 11.9504 4.69939 11.9006 4.75118C11.7598 4.89707 11.3939 5.10254 11.1928 5.07017C11.0365 5.04583 10.9755 4.92552 11.0048 4.88002ZM32.2246 8.82493C31.0855 7.22559 25.9308 0.844423 16.3502 0.844423C6.7672 0.844423 1.61489 7.22559 0.473362 8.82493C0.424731 8.89227 0.383153 8.95134 0.348633 9.0017C0.383153 9.05348 0.424731 9.1123 0.473362 9.18164C1.61489 10.7786 6.7672 17.1602 16.3502 17.1602C25.9308 17.1602 31.0855 10.7786 32.2246 9.18164C32.2745 9.1123 32.3156 9.05348 32.3486 9.0017C32.3156 8.95134 32.2745 8.89227 32.2246 8.82493Z" fill="white"/>
</svg>
