<svg width="26" height="24" viewBox="0 0 26 24" fill="none" xmlns="http://www.w3.org/2000/svg">
<path d="M23.043 5.67947L17.7073 10.2449C17.5056 10.4255 17.4023 10.558 17.4023 10.9315V23.7262C17.4023 23.876 17.5385 24 17.7073 24H23.2189C23.3871 24 23.5226 23.876 23.5226 23.7262V5.7948C23.5226 5.64226 23.3913 5.3673 23.043 5.67947Z" fill="white"/>
<path d="M7.67048 11.6248L2.33308 16.1905C2.1323 16.3703 2.0293 16.5024 2.0293 16.8757V23.7237C2.0293 23.8735 2.16592 23.9961 2.33308 23.9961H7.84631C8.01462 23.9961 8.14981 23.8735 8.14981 23.7237V11.7404C8.14981 11.5892 8.01741 11.312 7.67048 11.6248Z" fill="white"/>
<path d="M25.4688 0.142919C25.4705 0.104282 25.4568 0.0664358 25.4238 0.0379066C25.3958 0.0123882 25.3599 0.00206661 25.325 -0.000729561L25.2953 0.0012064L25.2515 0.00263977L21.166 0.83227L21.0916 0.839294C21.0628 0.844312 21.0347 0.858005 21.0118 0.875638C20.9516 0.931692 20.9516 1.01986 21.0118 1.07448L21.0582 1.11505L21.9918 1.95421L12.7327 10.2823L8.45624 6.43511C8.40749 6.39167 8.3308 6.39167 8.28205 6.43511L7.1214 7.4787C7.1209 7.4787 7.1209 7.48035 7.1209 7.48035L0.265305 13.6452C0.218857 13.6877 0.218857 13.7594 0.265305 13.8025L1.42818 14.8464C1.4752 14.8897 1.55247 14.8897 1.60064 14.8464L8.37022 8.75913L11.4735 11.5516C11.4769 11.555 11.4783 11.5591 11.4833 11.5642L12.6439 12.6069C12.6918 12.6497 12.7699 12.6497 12.8181 12.6069L23.3257 3.15486L24.3063 4.03689C24.3665 4.09151 24.4645 4.09151 24.5233 4.03689C24.5527 4.01087 24.5669 3.97861 24.5684 3.94586L24.5692 3.93467L25.4669 0.182631L25.4688 0.142919Z" fill="white"/>
<path d="M15.3867 12.4297L12.8048 14.7711C12.7556 14.807 12.6839 14.8062 12.6385 14.7649L10.2989 12.6207C9.87072 12.2374 9.77832 12.5479 9.77832 12.6985V23.727C9.77832 23.8768 9.91329 24 10.0802 24H15.594C15.7611 24 15.8978 23.8768 15.8978 23.727V12.5157C15.8978 12.3654 15.765 12.0882 15.3867 12.4297Z" fill="white"/>
</svg>
