<svg width="28" height="22" viewBox="0 0 28 22" fill="none" xmlns="http://www.w3.org/2000/svg">
<g clip-path="url(#clip0)">
<path d="M20.4544 17.5768C19.6685 17.8091 18.8893 18.0415 18.1034 18.2738C17.1843 18.546 16.2718 18.8248 15.3528 19.097C14.2072 19.4422 13.0617 19.7808 11.9162 20.126C11.7363 20.1791 11.7363 20.1791 11.7363 19.9932C11.7363 15.5388 11.7363 11.0843 11.7363 6.62988C11.7363 6.50375 11.7496 6.41745 11.8962 6.33779C12.6421 5.90628 13.388 5.48142 14.1406 5.04992C14.8399 4.65161 15.5326 4.23338 16.2385 3.83507C16.8513 3.48323 17.4773 3.13803 18.0901 2.78619C18.7294 2.41443 19.3688 2.04267 20.0082 1.67092C20.1547 1.58462 20.3012 1.51159 20.4477 1.42529C20.501 1.46512 20.4744 1.52487 20.4744 1.57134C20.4744 6.85559 20.4744 12.1398 20.4744 17.4174C20.481 17.4772 20.501 17.5303 20.4544 17.5768Z" fill="#FEFEFE"/>
<path d="M2.11914 1.44922C2.28564 1.49569 2.41218 1.59527 2.54539 1.66829C3.611 2.27903 4.67661 2.88977 5.74223 3.50715C7.39393 4.45646 9.03897 5.4124 10.6907 6.35507C10.8039 6.42146 10.7972 6.50112 10.7972 6.59406C10.7972 10.5373 10.7972 14.4806 10.7972 18.4305C10.7972 18.955 10.7972 19.4794 10.7972 20.0105C10.7972 20.0702 10.8106 20.13 10.7773 20.1831C10.351 20.0636 9.93143 19.9441 9.50518 19.818C9.11889 19.7051 8.73927 19.5723 8.35298 19.4595C7.95338 19.3466 7.56043 19.2271 7.16083 19.1076C6.7812 18.9948 6.40158 18.8819 6.02861 18.7558C5.62901 18.623 5.22274 18.5234 4.82314 18.404C4.55673 18.3243 4.29699 18.2314 4.03059 18.1517C3.73754 18.0654 3.4445 17.9857 3.15145 17.8994C2.83843 17.8065 2.52541 17.7003 2.20572 17.6073C2.14578 17.5874 2.11914 17.5542 2.1258 17.4878C2.1258 17.4613 2.1258 17.4347 2.1258 17.4082C2.1258 12.1438 2.1258 6.87288 2.1258 1.60854C2.11914 1.55543 2.11914 1.50897 2.11914 1.44922Z" fill="#FEFEFE"/>
<path d="M22.286 18.6935C21.7199 18.8263 21.1738 19.0188 20.621 19.1914C17.7305 20.1075 14.84 21.0236 11.9496 21.9397C11.863 21.9663 11.7764 21.9729 11.6831 21.9796C10.8107 22.0791 10.0181 21.7738 9.20559 21.5547C6.28848 20.7514 3.37802 19.9482 0.460897 19.1449C0.314375 19.1051 0.274414 19.0453 0.274414 18.8993C0.281074 13.3694 0.281074 7.8329 0.274414 2.30303C0.274414 2.17026 0.307715 2.0906 0.414276 2.01094C0.640719 1.84497 0.860502 1.66573 1.08028 1.49313C1.11359 1.46658 1.14689 1.42011 1.21349 1.42675C1.21349 1.48649 1.21349 1.55288 1.21349 1.61263C1.21349 7.16241 1.21349 12.7122 1.20683 18.2554C1.20683 18.3948 1.24679 18.4479 1.37999 18.4877C2.5122 18.7997 3.64442 19.1184 4.77663 19.4304C5.93549 19.7557 7.09435 20.0743 8.2532 20.393C9.06573 20.6187 9.8716 20.8842 10.6975 21.0701C11.1037 21.163 11.5499 21.163 11.9695 21.0302C13.3349 20.5921 14.7002 20.154 16.0588 19.7092C17.7971 19.1516 19.5354 18.5873 21.267 18.0296C21.3536 18.0031 21.3869 17.9699 21.3869 17.877C21.3802 17.6778 21.3869 17.4853 21.3869 17.2861C21.3869 12.055 21.3869 6.82385 21.3869 1.59935C21.3869 1.5396 21.3869 1.48649 21.3869 1.39355C21.7066 1.63918 22.0063 1.86489 22.306 2.09724C22.3393 2.14371 22.326 2.20345 22.326 2.24992C22.326 7.66694 22.326 13.0906 22.326 18.5076C22.3326 18.574 22.3659 18.647 22.286 18.6935Z" fill="#FEFEFE"/>
<path d="M26.2291 20.8105C26.056 20.2197 25.8828 19.6222 25.7163 19.0314C25.5698 18.5202 25.4299 18.009 25.2767 17.5045C25.2368 17.3651 25.2168 17.2257 25.2168 17.0797C25.2168 12.4261 25.2168 7.76583 25.2168 3.11224C25.2168 2.94628 25.2634 2.91309 25.4166 2.91973C25.9827 2.92637 26.5488 2.92637 27.1083 2.91973C27.2415 2.91973 27.2748 2.95292 27.2748 3.08569C27.2681 7.06215 27.2748 11.0386 27.2748 15.0151C27.2748 15.6922 27.2748 16.376 27.2748 17.0531C27.2748 17.2058 27.2548 17.3585 27.2082 17.5045C26.8951 18.5733 26.5954 19.6421 26.2824 20.7109C26.2758 20.7441 26.2824 20.7906 26.2291 20.8105Z" fill="#FEFEFE"/>
<path d="M25.2164 0.888864C25.2963 0.351145 25.6493 0.0457741 26.1421 0.00594304C26.6017 -0.033888 27.0279 0.191821 27.2077 0.689709C27.2477 0.795925 27.2677 0.902141 27.2677 1.015C27.2677 1.34692 27.261 1.67221 27.2677 2.00413C27.2677 2.11035 27.241 2.1369 27.1345 2.1369C26.4951 2.13026 25.8557 2.1369 25.2164 2.1369C25.1764 1.93775 25.203 1.73859 25.203 1.53944C25.2097 1.31373 25.1964 1.1013 25.2164 0.888864Z" fill="#FEFEFE"/>
</g>
<defs>
<clipPath id="clip0">
<rect width="27" height="22" fill="white" transform="translate(0.274414)"/>
</clipPath>
</defs>
</svg>
