<svg width="26" height="26" viewBox="0 0 26 26" fill="none" xmlns="http://www.w3.org/2000/svg">
<g clip-path="url(#clip0)">
<path d="M6.91305 2.08728C7.1519 2.13457 7.30645 2.26291 7.42588 2.46556C7.91764 3.30992 8.42345 4.14078 8.92223 4.97839C9.17514 5.3972 9.01356 5.78223 8.52883 5.93084C8.4656 5.94435 8.39535 5.94435 8.33212 5.93084C8.01599 5.91733 7.88954 5.68766 7.75606 5.46475C7.46101 4.96488 7.17298 4.46502 6.86387 3.97866C6.64609 3.62741 6.44939 3.26939 6.25269 2.91814C6.07706 2.60066 6.30186 2.19536 6.70932 2.08728C6.77957 2.07377 6.8428 2.07377 6.91305 2.08728Z" fill="#FEFEFE"/>
<path d="M13.6214 23.3926C13.6214 23.8857 13.6214 24.3788 13.6214 24.8652C13.6214 25.23 13.3544 25.5002 13.0032 25.5002C12.6519 25.5002 12.3779 25.2232 12.3779 24.8719C12.3779 23.8722 12.3779 22.8725 12.3779 21.8728C12.3779 21.5147 12.6519 21.2378 12.9961 21.2378C13.3474 21.2378 13.6143 21.508 13.6143 21.8728C13.6214 22.3794 13.6214 22.886 13.6214 23.3926Z" fill="#FEFEFE"/>
<path d="M13.6214 2.6278C13.6214 3.12767 13.6214 3.63429 13.6214 4.13415C13.6214 4.48541 13.3614 4.75561 13.0102 4.75561C12.6519 4.76236 12.3779 4.49216 12.3779 4.13415C12.3779 3.12767 12.3779 2.12794 12.3779 1.12145C12.3779 0.763442 12.6449 0.5 13.0102 0.5C13.3614 0.5 13.6214 0.763442 13.6214 1.12145C13.6214 1.62132 13.6214 2.12118 13.6214 2.6278Z" fill="#FEFEFE"/>
<path d="M2.21994 12.4023C2.7398 12.4023 3.26668 12.4023 3.78654 12.4023C4.14483 12.4023 4.42583 12.6658 4.42583 12.9968C4.42583 13.3278 4.14483 13.598 3.78654 13.598C2.73278 13.598 1.68603 13.598 0.632262 13.598C0.281005 13.598 0 13.3345 0 12.9968C0 12.6658 0.281005 12.4023 0.639287 12.4023C1.16617 12.4023 1.69306 12.4023 2.21994 12.4023Z" fill="#FEFEFE"/>
<path d="M23.7873 12.4023C24.3141 12.4023 24.841 12.4023 25.3679 12.4023C25.7192 12.4023 25.9932 12.659 25.9932 12.99C25.9932 13.321 25.7262 13.5912 25.382 13.5912C24.3212 13.598 23.2604 13.598 22.1996 13.5912C21.8413 13.5912 21.5673 13.3143 21.5744 12.9833C21.5814 12.6523 21.8554 12.4023 22.2066 12.4023C22.7335 12.4023 23.2604 12.4023 23.7873 12.4023Z" fill="#FEFEFE"/>
<path d="M19.7901 23.3055C19.7831 23.596 19.6075 23.8256 19.3405 23.8932C19.0665 23.9675 18.7785 23.8527 18.638 23.6095C18.1111 22.7381 17.5912 21.86 17.0714 20.9886C16.8887 20.6778 16.973 20.3063 17.2751 20.1442C17.5842 19.9753 17.9565 20.0834 18.1462 20.4009C18.6591 21.2588 19.1719 22.1099 19.6847 22.9678C19.748 23.0758 19.8112 23.1839 19.7901 23.3055Z" fill="#FEFEFE"/>
<path d="M20.3662 17.4548C20.3732 16.9414 20.865 16.6442 21.2584 16.8604C22.2068 17.3738 23.1482 17.8939 24.0895 18.414C24.3635 18.5694 24.4478 18.9409 24.2862 19.2111C24.1317 19.4745 23.7523 19.5961 23.4783 19.4475C22.53 18.9342 21.5816 18.4073 20.6332 17.8804C20.4365 17.7723 20.3662 17.5832 20.3662 17.4548Z" fill="#FEFEFE"/>
<path d="M19.7612 2.70243C19.7682 2.79025 19.7331 2.87806 19.6839 2.96588C19.157 3.85753 18.6302 4.74242 18.0963 5.63407C17.9277 5.91778 17.5342 6.01235 17.2462 5.85023C16.9652 5.68811 16.8598 5.32335 17.0214 5.0464C17.5483 4.15475 18.0752 3.26985 18.6091 2.3782C18.7566 2.13502 19.0446 2.02694 19.3327 2.10125C19.5926 2.16204 19.7682 2.39846 19.7612 2.70243Z" fill="#FEFEFE"/>
<path d="M6.83497 23.9193C6.38536 23.9193 6.07626 23.4465 6.29404 23.0682C6.82795 22.1563 7.36888 21.2511 7.90982 20.3459C8.0714 20.0825 8.45778 19.9947 8.73878 20.1501C9.01979 20.3054 9.13922 20.6702 8.97764 20.9404C8.44373 21.8523 7.90279 22.7575 7.35483 23.6626C7.24946 23.8517 7.05978 23.9193 6.83497 23.9193Z" fill="#FEFEFE"/>
<path d="M1.65137 18.8789C1.66542 18.7033 1.74972 18.5276 1.96047 18.4061C2.88076 17.8994 3.79403 17.3928 4.71432 16.8862C5.00938 16.7241 5.39576 16.8186 5.56436 17.1024C5.73296 17.3793 5.63461 17.7508 5.33253 17.9197C4.41224 18.4331 3.48492 18.9464 2.56463 19.4531C2.15718 19.676 1.65137 19.3855 1.65137 18.8789Z" fill="#FEFEFE"/>
<path d="M20.3584 8.59244C20.3584 8.35602 20.4638 8.18039 20.6745 8.06556C21.5878 7.56569 22.5011 7.05232 23.4143 6.55245C23.7164 6.39034 24.0958 6.4849 24.2644 6.76186C24.433 7.04556 24.3346 7.41709 24.0396 7.5792C23.1193 8.09258 22.192 8.60595 21.2717 9.11257C20.8572 9.34224 20.3584 9.05853 20.3584 8.59244Z" fill="#FEFEFE"/>
<path d="M5.6407 8.70798C5.5564 9.16056 5.02249 9.31592 4.64313 9.09301C3.78607 8.59315 2.90793 8.12706 2.03681 7.65421C1.77688 7.51236 1.62935 7.32322 1.65043 7.03276C1.6715 6.73554 1.86118 6.58018 2.12814 6.49912C2.21946 6.47885 2.30376 6.48561 2.39509 6.49912C2.88685 6.72879 3.35753 7.01249 3.83524 7.27594C4.31998 7.53262 4.79066 7.80957 5.28242 8.06626C5.47912 8.16759 5.59152 8.31619 5.64773 8.51884C5.65475 8.57964 5.64773 8.64043 5.6407 8.70798Z" fill="#FEFEFE"/>
<path d="M13.0244 5.86914C8.97795 5.86914 5.67614 8.92237 5.53563 12.7862C5.39513 16.8594 8.64777 20.1626 12.898 20.2369C17.0568 20.3112 20.4219 17.1026 20.4781 13.151C20.5273 9.25336 17.2887 5.90292 13.0244 5.86914ZM12.4484 8.79403C12.4484 8.46303 12.6872 8.21986 12.9963 8.21986C13.3195 8.21986 13.5513 8.46303 13.5513 8.80078C13.5513 9.18581 13.5513 9.56409 13.5513 9.94912C13.5513 10.3341 13.5513 10.7124 13.5513 11.0975C13.5513 11.4217 13.3054 11.6716 12.9963 11.6649C12.6802 11.6649 12.4484 11.4149 12.4484 11.0907C12.4484 10.3274 12.4484 9.56409 12.4484 8.79403ZM13.6075 16.6838C11.4086 16.9945 9.43458 15.5625 9.14655 13.4347C8.91472 11.7527 10.0177 10.0437 11.6826 9.48978C11.7318 9.47627 11.781 9.46276 11.8442 9.44925C11.8442 9.89508 11.8442 10.3274 11.8442 10.753C11.8442 10.8475 11.7599 10.861 11.7037 10.8948C10.2003 11.7662 10.0177 13.7927 11.3665 14.8667C12.1955 15.5287 13.1438 15.6503 14.1063 15.1977C15.0758 14.7519 15.5675 13.9683 15.5464 12.928C15.5324 12.0296 15.0898 11.3541 14.303 10.8881C14.1976 10.8273 14.1625 10.7597 14.1625 10.6449C14.1695 10.2936 14.1695 9.94236 14.1625 9.59111C14.1555 9.44925 14.1976 9.42899 14.3311 9.48303C15.8696 10.0842 16.7407 11.1718 16.8812 12.7659C17.0358 14.6573 15.5605 16.4068 13.6075 16.6838Z" fill="#FEFEFE"/>
</g>
<defs>
<clipPath id="clip0">
<rect width="26" height="25" fill="white" transform="translate(0 0.5)"/>
</clipPath>
</defs>
</svg>
