<svg width="18" height="24" viewBox="0 0 18 24" fill="none" xmlns="http://www.w3.org/2000/svg">
<g clip-path="url(#clip0)">
<path d="M18.0009 0.184846C18.0009 0.0481999 17.9632 -0.00770077 17.8124 -0.00148959C15.9904 0.00472159 14.1747 0.00472159 12.3527 -0.00148959C12.2145 -0.00148959 12.1705 0.0357775 12.1705 0.172423C12.1768 0.725218 12.1831 1.27801 12.1705 1.8246C12.1705 1.98609 12.227 2.01093 12.3715 2.01093C13.0124 2.00472 13.6595 2.00472 14.3003 2.01093C14.3506 2.01093 14.4072 1.9923 14.5014 2.06062C14.4511 2.08547 14.4072 2.1041 14.3757 2.13516C13.6155 2.8805 12.8616 3.63205 12.1077 4.3836C12.026 4.46435 11.982 4.46435 11.8878 4.40224C9.38097 2.65068 6.72338 2.41466 3.97783 3.7687C1.32024 5.08547 -0.263003 8.01093 0.0385677 10.9364C0.245897 12.9488 1.13804 14.6072 2.70872 15.9053C3.75794 16.7687 4.96422 17.3029 6.31501 17.5016C6.42809 17.5202 6.47207 17.5513 6.47207 17.6755C6.46579 18.2904 6.46579 18.9053 6.47207 19.5265C6.47207 19.6445 6.43438 19.6755 6.32129 19.6755C5.65532 19.6693 4.98307 19.6755 4.3171 19.6693C4.19773 19.6693 4.16003 19.7066 4.16632 19.8246C4.1726 20.4271 4.1726 21.0296 4.16632 21.6258C4.16632 21.7687 4.21029 21.8122 4.3548 21.8122C5.01448 21.806 5.67417 21.8122 6.32757 21.806C6.44694 21.806 6.47836 21.837 6.47836 21.955C6.47207 22.5824 6.47836 23.2097 6.47207 23.8308C6.47207 23.955 6.50977 23.9923 6.63542 23.9923C7.24485 23.9861 7.85427 23.9861 8.45741 23.9923C8.6082 23.9923 8.6459 23.9426 8.6459 23.806C8.63961 23.1911 8.6459 22.5762 8.63961 21.955C8.63961 21.8308 8.67731 21.7998 8.80296 21.7998C9.45637 21.806 10.1098 21.7998 10.7632 21.806C10.9014 21.806 10.9579 21.7749 10.9579 21.6258C10.9517 21.0296 10.9517 20.4333 10.9579 19.837C10.9579 19.6942 10.9077 19.6631 10.7757 19.6631C10.1098 19.6693 9.45008 19.6631 8.78412 19.6693C8.68359 19.6693 8.6459 19.6445 8.6459 19.5389C8.65218 18.8991 8.65218 18.2594 8.6459 17.6134C8.6459 17.5078 8.68359 17.4768 8.77783 17.4644C12.2019 16.8681 14.7967 13.8681 14.8595 10.4271C14.8909 8.86186 14.4637 7.42708 13.5778 6.12895C13.515 6.04199 13.5401 5.99851 13.603 5.9364C14.3569 5.19727 15.1045 4.45814 15.8522 3.7128C15.8836 3.68174 15.9024 3.63826 15.9653 3.63826C15.9653 3.68795 15.9653 3.73764 15.9653 3.78733C15.9653 4.3836 15.9653 4.97988 15.9653 5.57615C15.9653 5.70659 16.003 5.75006 16.1349 5.75006C16.7003 5.74385 17.2595 5.74385 17.825 5.75006C17.9757 5.75006 18.0134 5.70037 18.0134 5.55752C17.9946 3.77491 17.9946 1.97988 18.0009 0.184846ZM12.8867 10.3836C12.8176 13.1848 10.4993 15.6445 7.42705 15.6507C4.42391 15.6569 1.97993 13.2283 1.97993 10.2532C1.97993 7.25938 4.43019 4.84944 7.47731 4.86186C10.5433 4.87429 12.9558 7.42087 12.8867 10.3836Z" fill="#FEFEFE"/>
<path d="M7.45126 9.75649C6.3832 9.75649 5.30886 9.75649 4.24079 9.75649C4.10886 9.75649 4.05859 9.72544 4.05859 9.58258C4.06488 9.12295 4.06488 8.65711 4.05859 8.19749C4.05859 8.07947 4.09001 8.02979 4.21566 8.02979C6.37064 8.036 8.52561 8.02979 10.6806 8.02979C10.8 8.02979 10.8377 8.06084 10.8377 8.18506C10.8314 8.65711 10.8314 9.12916 10.8377 9.60121C10.8377 9.73165 10.7937 9.75649 10.668 9.75649C9.59996 9.75028 8.52561 9.75649 7.45126 9.75649Z" fill="#FEFEFE"/>
<path d="M7.44503 12.5876C6.38325 12.5876 5.31518 12.5876 4.2534 12.5876C4.11518 12.5876 4.05864 12.5565 4.06492 12.4074C4.0712 11.9478 4.0712 11.4944 4.06492 11.0348C4.06492 10.9105 4.09005 10.8608 4.22827 10.8608C6.37697 10.8671 8.52566 10.8671 10.6743 10.8608C10.7937 10.8608 10.844 10.8919 10.8377 11.0223C10.8314 11.4944 10.8314 11.9664 10.8377 12.4385C10.8377 12.5565 10.7937 12.5876 10.6806 12.5876C9.60629 12.5813 8.52566 12.5876 7.44503 12.5876Z" fill="#FEFEFE"/>
</g>
<defs>
<clipPath id="clip0">
<rect width="18" height="24" fill="white"/>
</clipPath>
</defs>
</svg>
