<svg width="28" height="18" viewBox="0 0 28 18" fill="none" xmlns="http://www.w3.org/2000/svg">
<g clip-path="url(#clip0)">
<path d="M13.6638 7.89915C13.9135 7.9573 14.0301 8.12117 14.0689 8.35906C14.1466 8.82426 14.2354 9.28417 14.3186 9.74937C14.4185 10.315 14.5239 10.8806 14.6238 11.4463C14.7292 12.0172 14.8291 12.5881 14.9345 13.1538C15.0344 13.7194 15.1343 14.285 15.2397 14.8507C15.2785 15.0621 15.3118 15.2736 15.3506 15.485C15.3562 15.5062 15.3673 15.5221 15.3895 15.5591C15.506 15.189 15.6114 14.8401 15.7224 14.4912C15.8167 14.1899 15.9222 13.8886 16.0165 13.582C16.1053 13.2912 16.1941 12.9952 16.2828 12.7044C16.3494 12.493 16.4216 12.2868 16.4881 12.0806C16.5658 11.8428 16.6324 11.6049 16.7101 11.367C16.7767 11.1608 16.8433 10.9494 16.9098 10.7432C17.0097 10.426 17.1151 10.1036 17.215 9.78637C17.3093 9.48505 17.4092 9.17844 17.5035 8.87712C17.5979 8.58108 17.6811 8.28505 17.7754 7.98901C17.842 7.78285 17.9142 7.57668 17.9807 7.36523C18.0584 7.12205 18.125 6.87888 18.2027 6.641C18.297 6.35025 18.3913 6.0595 18.4857 5.77404C18.5855 5.45685 18.691 5.13439 18.7908 4.81192C18.8852 4.51589 18.974 4.21985 19.0683 3.92381C19.1626 3.62249 19.2569 3.31589 19.3513 3.01456C19.4179 2.80311 19.49 2.59694 19.5566 2.39078C19.6564 2.06831 19.7563 1.74056 19.8562 1.41809C19.945 1.12734 20.0393 0.83659 20.1392 0.551128C20.1669 0.466546 20.1836 0.381965 20.2169 0.302669C20.2834 0.138793 20.4111 0.0383522 20.5997 0.0172069C20.6441 0.00663417 20.6885 0.00663417 20.7329 0.0172069C20.916 0.0594976 21.0381 0.165224 21.1213 0.329101C21.9425 1.9573 22.7693 3.5802 23.596 5.2084C23.6793 5.36699 23.7236 5.52558 23.6349 5.69474C23.5516 5.85333 23.4074 5.93263 23.2298 5.93791C23.0412 5.9432 22.8913 5.85862 22.8081 5.70003C22.6361 5.36699 22.4696 5.03395 22.2976 4.69562C21.8038 3.71765 21.31 2.73967 20.8161 1.76699C20.8106 1.75113 20.7995 1.74056 20.7773 1.70355C20.7273 1.85685 20.683 1.9943 20.6386 2.13174C19.0072 7.2965 17.3704 12.4665 15.7391 17.6313C15.6558 17.8956 15.4949 18.0225 15.2508 18.0119C15.0288 18.0066 14.8513 17.8586 14.8124 17.6366C14.6127 16.5423 14.4185 15.448 14.2243 14.3538C14.019 13.1961 13.8081 12.0384 13.5973 10.8859C13.5307 10.5053 13.4585 10.1247 13.3864 9.73879C13.3309 9.76523 13.3198 9.8128 13.2976 9.84981C12.6096 11.0657 11.9215 12.2815 11.2335 13.4921C11.0726 13.7776 10.723 13.8463 10.4844 13.6454C10.3901 13.5661 10.3513 13.4604 10.3291 13.3441C10.0794 11.663 9.82969 9.98197 9.57445 8.30091C9.52451 7.96787 9.47457 7.63483 9.41353 7.26478C9.35805 7.38108 9.31366 7.46567 9.27482 7.55553C8.76988 8.63923 8.2594 9.72293 7.76002 10.8066C7.66569 11.0181 7.50478 11.1185 7.26619 11.1185C5.10774 11.1185 2.94929 11.1185 0.796393 11.1185C0.441276 11.1185 0.213779 10.8436 0.313656 10.537C0.374692 10.3467 0.55225 10.2304 0.779747 10.2304C1.8451 10.2304 2.91045 10.2304 3.9758 10.2304C4.92463 10.2304 5.87346 10.2304 6.82784 10.2357C6.95546 10.2357 7.01649 10.2093 7.07198 10.0877C7.32722 9.51677 7.59356 8.94584 7.8599 8.37492C8.25385 7.53967 8.64226 6.70443 9.03622 5.87448C9.09726 5.7476 9.15275 5.62073 9.21378 5.49915C9.31921 5.28241 9.49676 5.19782 9.72981 5.23483C9.94621 5.27183 10.0849 5.41985 10.1182 5.63659C10.1904 6.14408 10.2736 6.64628 10.3513 7.15377C10.4179 7.59782 10.4789 8.04188 10.5455 8.48593C10.6176 8.97756 10.6953 9.4639 10.773 9.95553C10.8506 10.4577 10.9228 10.9652 11.0005 11.4674C11.0171 11.5943 11.0393 11.7212 11.0615 11.8692C11.1558 11.8005 11.1836 11.7053 11.2335 11.626C11.6608 10.8806 12.0769 10.1353 12.4986 9.3899C12.7261 8.98285 12.9647 8.58108 13.1811 8.16875C13.2588 8.02602 13.3698 7.94672 13.5251 7.92029C13.5584 7.88857 13.6139 7.88857 13.6638 7.89915Z" fill="#FEFEFE"/>
<path d="M22.3301 7.57152C22.5964 7.55566 22.8572 7.69839 23.1069 7.85698C23.3566 8.02086 23.5785 8.21645 23.7894 8.42262C23.856 8.49134 23.8892 8.48077 23.9503 8.42262C24.15 8.22174 24.3664 8.04729 24.605 7.8887C25.3208 7.40764 26.1698 7.50808 26.7524 8.13187C27.4737 8.90368 27.4404 10.1883 26.6747 10.9283C25.7703 11.8006 24.8547 12.6623 23.9503 13.5345C23.8837 13.598 23.8449 13.5927 23.7838 13.5292C22.8794 12.6676 21.9749 11.8059 21.0761 10.9442C20.1661 10.072 20.2826 8.55478 21.3036 7.87284C21.5921 7.67725 21.925 7.57681 22.3301 7.57152Z" fill="#FEFEFE"/>
</g>
<defs>
<clipPath id="clip0">
<rect width="27" height="18" fill="white" transform="translate(0.274414)"/>
</clipPath>
</defs>
</svg>
