<svg width="23" height="20" viewBox="0 0 23 20" fill="none" xmlns="http://www.w3.org/2000/svg">
<path d="M11.1438 10.0625C14.7074 10.0625 18.2768 10.0625 21.8404 10.0625C21.8973 10.0625 21.96 10.0625 22.0169 10.0682C22.2047 10.0967 22.3015 10.2276 22.2674 10.4211C22.108 11.3434 21.8347 12.2257 21.4135 13.0626C20.1212 15.63 18.0718 17.3549 15.4133 18.3909C15.2881 18.4422 15.1572 18.4877 15.0262 18.5276C14.9408 18.5503 14.9181 18.5959 14.9181 18.6813C14.9238 18.8521 14.9181 19.0171 14.9181 19.1879C14.9181 19.3872 14.8213 19.4896 14.6163 19.4953C14.5822 19.4953 14.5537 19.4953 14.5196 19.4953C12.3222 19.4953 10.1305 19.4953 7.9331 19.4953C7.61431 19.4953 7.53461 19.4156 7.53461 19.1025C7.53461 18.9488 7.58015 18.761 7.51184 18.6471C7.44352 18.5276 7.23859 18.5333 7.09627 18.482C5.44538 17.8957 3.98804 16.9962 2.75842 15.7438C1.31816 14.2694 0.378859 12.5331 0.0145244 10.4951C-0.0424028 10.1877 0.0657589 10.0625 0.378858 10.0625C3.97666 10.0625 7.56307 10.0625 11.1438 10.0625Z" fill="#FEFEFE"/>
<path d="M7.69439 9.17594C7.48376 9.17594 7.27313 9.17594 7.06819 9.17594C7.00557 9.17594 6.97711 9.17025 7.00557 9.09055C7.38698 8.10002 7.07958 7.26319 6.43061 6.50606C6.10043 6.11895 5.78733 5.72616 5.59378 5.25366C5.23513 4.38837 5.23513 3.506 5.46284 2.61793C5.62793 1.98035 5.89549 1.38261 6.25982 0.830417C6.48753 0.483161 6.98849 0.403463 7.32436 0.653943C7.58053 0.841803 7.63177 1.14352 7.46099 1.41107C7.03973 2.08282 6.7494 2.8001 6.70386 3.60277C6.65262 4.39975 6.89172 5.08857 7.43252 5.68061C7.89933 6.19296 8.26935 6.76792 8.44583 7.45105C8.58245 7.98047 8.57676 8.5099 8.45152 9.04501C8.42875 9.14179 8.3889 9.17594 8.28643 9.17594C8.08149 9.17025 7.88794 9.18164 7.69439 9.17594Z" fill="#FEFEFE"/>
<path d="M12.0089 9.17652C11.7983 9.17652 11.5877 9.17652 11.3827 9.17652C11.3144 9.17652 11.2917 9.16513 11.3201 9.09113C11.7015 8.11198 11.3998 7.26946 10.7508 6.51802C10.3637 6.06829 10.0108 5.5958 9.81724 5.02653C9.51552 4.12708 9.57814 3.23332 9.85139 2.34525C10.0165 1.81014 10.2556 1.30349 10.5687 0.836684C10.7964 0.495121 11.2803 0.40973 11.6218 0.643132C11.8894 0.830992 11.952 1.13271 11.7755 1.40596C11.3884 2.01508 11.1209 2.66974 11.0298 3.39272C10.9273 4.25232 11.1379 5.01514 11.73 5.66411C12.2594 6.24477 12.6636 6.89374 12.8059 7.68503C12.8913 8.14614 12.8685 8.59586 12.7604 9.05128C12.7376 9.13667 12.7034 9.18221 12.6067 9.17652C12.4074 9.17083 12.2082 9.17652 12.0089 9.17652Z" fill="#FEFEFE"/>
<path d="M16.3296 9.17493C16.1247 9.17493 15.9197 9.17493 15.7148 9.17493C15.6408 9.17493 15.6009 9.16924 15.6408 9.07816C15.9823 8.20717 15.766 7.42727 15.2252 6.70999C15.0715 6.50505 14.8893 6.31719 14.7299 6.11225C13.9785 5.14449 13.7906 4.04579 14.0411 2.86171C14.1948 2.13304 14.4851 1.45561 14.895 0.835099C15.1398 0.470765 15.6806 0.408145 16.0108 0.698474C16.2214 0.886333 16.2556 1.16528 16.0962 1.41576C15.7375 1.97364 15.4871 2.57138 15.3789 3.23173C15.2252 4.16534 15.4301 4.99648 16.0848 5.70807C16.6028 6.27165 16.9843 6.90923 17.1266 7.67205C17.2177 8.13886 17.1949 8.60566 17.081 9.06677C17.0583 9.15216 17.0241 9.18632 16.933 9.18063C16.7338 9.17493 16.5288 9.17493 16.3296 9.17493Z" fill="#FEFEFE"/>
</svg>
