<svg width="25" height="24" viewBox="0 0 25 24" fill="none" xmlns="http://www.w3.org/2000/svg">
<path d="M23.4733 20.0822L18.4804 22.9631V17.1993L23.4733 14.3167V20.0822ZM6.97894 22.9631V17.6384L11.5917 20.3017L6.97894 22.9631ZM6.22103 22.9631L1.22793 20.0822V14.3167L6.22103 17.1993V22.9631ZM11.5917 7.01953L6.97894 9.68352V4.35649L11.5917 7.01953ZM17.7217 9.68352L13.1098 7.01953L17.7217 4.35649V9.68352ZM13.1098 13.6605L18.1007 10.7785L23.0935 13.6599L18.1007 16.5434L13.1098 13.6605ZM11.9712 13.0023L7.35878 10.3403L11.9712 7.67695V13.0023ZM17.3419 10.3403L12.73 13.0014V7.67695L17.3419 10.3403ZM11.9712 19.6438L7.35789 16.9798L11.9712 14.3167V19.6438ZM24.042 13.3312L18.4804 10.1214V3.69937C18.4804 3.56331 18.4083 3.43917 18.2907 3.37099L12.5396 0.0513515C12.4226 -0.0171185 12.2782 -0.0171185 12.1607 0.0513515L6.40995 3.37099C6.29298 3.43917 6.22103 3.56331 6.22103 3.69937V10.1214L0.659758 13.3312C0.541968 13.3994 0.469727 13.5244 0.469727 13.6599V20.3017C0.469727 20.4369 0.541968 20.5623 0.659758 20.6293L6.40995 23.9495C6.46918 23.9832 6.53447 24 6.59969 24C6.66557 24 6.73057 23.9832 6.7892 23.9495L12.3502 20.7393L17.9115 23.9495C17.9704 23.9832 18.0354 24 18.1007 24C18.1671 24 18.2321 23.9832 18.2907 23.9495L24.042 20.6293C24.1602 20.5623 24.2323 20.4369 24.2323 20.3017V13.6599C24.2323 13.5244 24.1602 13.3994 24.042 13.3312Z" fill="white"/>
</svg>
