<svg width="26" height="24" viewBox="0 0 26 24" fill="none" xmlns="http://www.w3.org/2000/svg">
<path d="M8.72077 14.2912C8.77519 14.2912 8.81984 14.3347 8.81984 14.3908V17.6854C8.81984 17.7411 8.77519 17.7852 8.72077 17.7852H7.3879C7.33175 17.7852 7.28711 17.7411 7.28711 17.6854V14.3908C7.28711 14.3347 7.33175 14.2912 7.3879 14.2912H8.72077Z" fill="white"/>
<path d="M24.9832 19.3487H0.724899C0.66451 19.3487 0.614258 19.4006 0.614258 19.4629V20.9452C0.614258 21.0055 0.66451 21.0547 0.724899 21.0547H24.9832C25.0431 21.0547 25.0947 21.0055 25.0947 20.9452V19.4629C25.0947 19.4006 25.0431 19.3487 24.9832 19.3487Z" fill="white"/>
<path d="M24.9832 22.294H0.724899C0.66451 22.294 0.614258 22.3417 0.614258 22.4013V23.8896C0.614258 23.9495 0.66451 24 0.724899 24H24.9832C25.0431 24 25.0947 23.9495 25.0947 23.8896V22.4013C25.0947 22.3417 25.0431 22.294 24.9832 22.294Z" fill="white"/>
<path d="M20.3674 9.90065C20.0639 9.66419 19.2551 9.11006 18.2691 9.11006C17.5636 9.11006 16.9079 9.38813 16.3213 9.93796C16.2797 9.97728 16.2559 10.0326 16.2559 10.0902V10.223C16.2559 10.2876 16.2775 10.348 16.3258 10.3879C16.378 10.428 16.4334 10.4426 16.496 10.428C16.5103 10.4257 16.5274 10.4224 16.5412 10.4168C16.5864 10.4013 16.6283 10.3738 16.6625 10.3395C16.79 10.2544 17.1374 10.1379 17.6347 10.1379C18.148 10.1379 19.1582 10.275 20.1335 11.1848L20.1568 11.2045C20.2113 11.2621 20.2874 11.293 20.3674 11.293C20.4435 11.293 20.5228 11.2612 20.5727 11.2065L20.5924 11.1868C21.5736 10.275 22.5817 10.1379 23.0957 10.1379C23.5958 10.1379 23.9415 10.2544 24.0698 10.3395C24.1041 10.3738 24.1474 10.4019 24.2035 10.4224C24.2249 10.428 24.2866 10.4406 24.3456 10.4257C24.4355 10.4013 24.4981 10.3199 24.4981 10.2264V10.1093C24.4981 10.0536 24.4745 9.99748 24.4335 9.9596C23.8413 9.3946 23.1782 9.10869 22.4615 9.10869C21.4846 9.10869 20.6794 9.65435 20.3674 9.90065Z" fill="white"/>
<path d="M18.8614 0.230803C18.81 0.254096 18.773 0.30097 18.7555 0.358555L18.7312 0.439433C18.7126 0.503201 18.725 0.570059 18.7629 0.621174C18.8002 0.6697 18.8541 0.699249 18.9131 0.702556C18.9238 0.704857 18.9353 0.707659 18.9432 0.704855C18.9856 0.702555 19.0232 0.693569 19.0606 0.674517C19.0818 0.66891 19.1268 0.658486 19.2077 0.658486C19.3164 0.658486 20.2939 0.690766 20.9407 1.7902L20.9488 1.80429C20.9845 1.86885 21.0387 1.91242 21.1044 1.92924C21.1232 1.93629 21.1589 1.94247 21.1814 1.94247C21.2265 1.94247 21.2712 1.92924 21.3035 1.91155L21.32 1.90451C21.6739 1.72701 22.0404 1.63635 22.4018 1.63635C23.0146 1.63635 23.415 1.88625 23.5083 1.9902C23.527 2.02615 23.5566 2.05699 23.5897 2.08007C23.6105 2.09265 23.6465 2.11033 23.668 2.11882C23.6796 2.12162 23.6917 2.12299 23.7037 2.12356C23.7104 2.125 23.7188 2.125 23.7265 2.125C23.7585 2.125 23.7907 2.11738 23.8217 2.10113C23.8714 2.07525 23.909 2.03089 23.9253 1.97698L23.9455 1.90537C23.9514 1.88711 23.9542 1.86605 23.9542 1.84642C23.9542 1.8071 23.9438 1.77194 23.9261 1.74167C23.4544 0.923908 22.7708 0.752591 22.2796 0.752591C21.9146 0.752591 21.5952 0.846625 21.4071 0.917439C21.1847 0.617795 20.6233 -4.05312e-05 19.7705 -4.05312e-05C19.4716 -4.05312e-05 19.1661 0.0771708 18.8614 0.230803Z" fill="white"/>
<path d="M13.7366 3.96128L13.7439 4.06998C13.7467 4.13878 13.7827 4.19773 13.8403 4.23368C13.8883 4.26459 13.9495 4.27358 14.0034 4.25898C14.0155 4.25618 14.0292 4.25107 14.0393 4.2469C14.0812 4.23001 14.1162 4.20334 14.1444 4.17048C14.2472 4.09521 14.5794 3.95991 15.0697 3.95991C15.5403 3.95991 16.2573 4.08544 16.9869 4.6858L17.004 4.7032C17.0565 4.74763 17.1228 4.77344 17.191 4.77344H17.2093C17.2854 4.76783 17.3562 4.73275 17.3994 4.68221L17.416 4.66337C18.2239 3.80822 19.0956 3.68047 19.5424 3.68047C19.8612 3.68047 20.0869 3.74647 20.1748 3.79614C20.2085 3.82512 20.2495 3.84755 20.3012 3.86077C20.3155 3.86494 20.3512 3.87199 20.3894 3.86775C20.4054 3.86581 20.4253 3.8602 20.4405 3.85596C20.5275 3.82512 20.5842 3.74 20.5786 3.64675L20.5727 3.55186C20.5691 3.49513 20.5433 3.44459 20.5 3.40721C20.017 3.00225 19.4963 2.79728 18.9481 2.79728C18.0947 2.79728 17.4146 3.30052 17.1329 3.54848C16.8746 3.37213 16.2483 3.01073 15.5137 3.01073C14.868 3.01073 14.2896 3.27888 13.7925 3.80599C13.754 3.84755 13.7338 3.90427 13.7366 3.96128Z" fill="white"/>
<path d="M2.05762 7.03367C2.05762 5.71798 3.12449 4.65168 4.43931 4.65168C4.491 4.65168 4.54154 4.65593 4.59179 4.65873C4.71732 2.99394 6.10432 1.68055 7.80161 1.68055C9.5815 1.68055 11.0246 3.12457 11.0246 4.90302C11.0246 5.4077 10.9053 5.88312 10.6989 6.30713C12.3114 6.66522 13.5184 8.10082 13.5184 9.82169C13.5184 11.8105 11.9065 13.4219 9.91766 13.4219C9.77222 13.4219 5.11214 13.3943 5.11214 13.3943C3.70329 13.3943 2.56143 12.2528 2.56143 10.8445C2.56143 10.1677 2.82679 9.55548 3.25677 9.09854C2.54123 8.68775 2.05762 7.91908 2.05762 7.03367Z" fill="white"/>
</svg>
