<svg width="25" height="24" viewBox="0 0 25 24" fill="none" xmlns="http://www.w3.org/2000/svg">
<path d="M17.1132 11.1436C18.3798 9.96753 19.1747 8.29095 19.1747 6.42963C19.1747 6.15121 19.1554 5.87737 19.1209 5.60827C21.6947 5.88276 23.7065 8.06718 23.7065 10.7151C23.7065 12.2181 23.0529 13.569 22.019 14.508C21.0501 12.6953 19.2402 11.3983 17.1132 11.1436ZM21.479 17.5266C21.479 20.3582 19.1747 22.6615 16.3424 22.6615C15.421 22.6615 14.5581 22.4142 13.8096 21.9888C14.9026 20.836 15.5766 19.2787 15.5766 17.5688C15.5766 17.1495 15.5329 16.7372 15.4562 16.3393C16.3792 16.8529 17.4408 17.1453 18.5696 17.1453C19.5757 17.1453 20.5275 16.9136 21.375 16.5007C21.4428 16.8321 21.479 17.1751 21.479 17.5266ZM4.00885 17.5688C4.00885 17.2028 4.04722 16.849 4.12168 16.5055C4.96701 16.9155 5.91624 17.1453 6.91718 17.1453C8.04314 17.1453 9.10103 16.8529 10.0221 16.3432C9.95053 16.7266 9.91215 17.1233 9.91215 17.5266C9.91215 19.2636 10.6063 20.8414 11.7291 21.9993C10.9691 22.4445 10.087 22.7047 9.14513 22.7047C6.31256 22.7047 4.00885 20.4004 4.00885 17.5688ZM1.78066 10.7151C1.78066 8.06718 3.79253 5.8844 6.36688 5.60827C6.33268 5.87737 6.31256 6.15121 6.31256 6.42963C6.31256 8.31042 7.12369 10.0033 8.41385 11.182C6.28057 11.4245 4.46146 12.7135 3.48253 14.5231C2.4406 13.5819 1.78066 12.2252 1.78066 10.7151ZM12.7434 1.29434C14.8463 1.29434 16.6578 2.56732 17.451 4.38225C15.3609 4.75075 13.6179 6.12985 12.7434 7.99527C11.8697 6.12985 10.1253 4.75075 8.03512 4.38225C8.82874 2.56732 10.6393 1.29434 12.7434 1.29434ZM13.9662 12.9772C14.678 12.6048 15.4839 12.3897 16.3424 12.3897C18.3613 12.3897 20.1079 13.5652 20.9458 15.2629C20.2341 15.6362 19.4272 15.8519 18.5696 15.8519C16.5507 15.8519 14.8051 14.6758 13.9662 12.9772ZM11.5037 13.0123C10.6584 14.6934 8.92299 15.8519 6.91718 15.8519C6.06646 15.8519 5.26523 15.6394 4.55735 15.2728C5.40268 13.5898 7.13931 12.4313 9.14513 12.4313C9.99585 12.4313 10.7964 12.6448 11.5037 13.0123ZM7.67464 5.63985C10.147 6.00934 12.0525 8.14008 12.0525 10.7151C12.0525 10.9839 12.0263 11.2466 11.9854 11.5029C9.51232 11.1353 7.60788 9.00455 7.60788 6.42963C7.60788 6.16086 7.63504 5.89872 7.67464 5.63985ZM12.7662 21.2058C11.8054 20.2709 11.2055 18.9686 11.2055 17.5266C11.2055 16.106 11.7866 14.8197 12.7194 13.8887C13.6801 14.8228 14.2816 16.1277 14.2816 17.5688C14.2816 18.9888 13.7016 20.2751 12.7662 21.2058ZM17.8797 6.42963C17.8797 9.00455 15.9739 11.1353 13.5012 11.5029C13.4613 11.2466 13.4347 10.9839 13.4347 10.7151C13.4347 8.14008 15.3395 6.00934 17.8116 5.63985C17.8525 5.89872 17.8797 6.16086 17.8797 6.42963ZM25.0009 10.7151C25.0009 7.24681 22.2428 4.41359 18.8065 4.28898C17.9235 1.79194 15.5392 0 12.7434 0C9.94856 0 7.56533 1.79194 6.68008 4.28898C3.24379 4.41457 0.486328 7.24681 0.486328 10.7151C0.486328 12.7716 1.45945 14.6055 2.96798 15.7848C2.80435 16.3511 2.71386 16.9504 2.71386 17.5688C2.71386 21.115 5.59822 24 9.14513 24C10.4903 24 11.7403 23.5829 12.7757 22.8734C13.7959 23.5574 15.0225 23.9569 16.3424 23.9569C19.8879 23.9569 22.7733 21.0716 22.7733 17.5266C22.7733 16.92 22.6864 16.3335 22.5298 15.7768C24.0325 14.5991 25.0009 12.7678 25.0009 10.7151Z" fill="white"/>
</svg>
