<svg width="25" height="24" viewBox="0 0 25 24" fill="none" xmlns="http://www.w3.org/2000/svg">
<path d="M21.012 0.190435C21.012 0.190435 20.5097 0.857689 20.6554 1.50651C20.8023 2.15609 21.5431 2.54297 21.5431 2.54297C21.5431 2.54297 22.045 1.87628 21.8988 1.22614C21.7519 0.576058 21.012 0.190435 21.012 0.190435Z" fill="white"/>
<path d="M20.1933 3.99609C20.1933 3.99609 20.6953 3.3289 20.5496 2.67882C20.4019 2.02943 19.6608 1.64381 19.6608 1.64381C19.6608 1.64381 19.1588 2.30981 19.305 2.95989C19.4527 3.60922 20.1933 3.99609 20.1933 3.99609Z" fill="white"/>
<path d="M22.2568 3.28122C22.2568 3.28122 22.7869 3.81571 23.3905 3.76181C23.9936 3.70846 24.4417 3.08653 24.4417 3.08653C24.4417 3.08653 23.912 2.55228 23.308 2.60613C22.7045 2.65997 22.2568 3.28122 22.2568 3.28122Z" fill="white"/>
<path d="M23.1255 0.428107C22.6341 0.926369 22.7036 1.80862 22.7036 1.80862C22.7036 1.80862 23.5694 1.88253 24.0613 1.38502C24.5522 0.887192 24.4832 0.00575209 24.4832 0.00575209C24.4832 0.00575209 23.6169 -0.0694036 23.1255 0.428107Z" fill="white"/>
<path d="M22.0415 5.26674C22.6431 5.3377 23.2087 4.82107 23.2087 4.82107C23.2087 4.82107 22.7993 4.18936 22.1982 4.11834C21.5956 4.04732 21.0303 4.56401 21.0303 4.56401C21.0303 4.56401 21.4397 5.19522 22.0415 5.26674Z" fill="white"/>
<path d="M22.5789 15.7163H18.0822C17.7306 15.7163 17.4453 16.0003 17.4453 16.3517C17.4453 16.7035 17.7306 16.9883 18.0822 16.9883H22.5789C22.93 16.9883 23.2148 16.7035 23.2148 16.3517C23.2148 16.0003 22.93 15.7163 22.5789 15.7163Z" fill="white"/>
<path d="M22.5789 22.728H18.0822C17.7306 22.728 17.4453 23.012 17.4453 23.3641C17.4453 23.7155 17.7306 24 18.0822 24H22.5789C22.93 24 23.2148 23.7155 23.2148 23.3641C23.2148 23.012 22.93 22.728 22.5789 22.728Z" fill="white"/>
<path d="M2.35519 14.1719C2.24919 14.1388 2.14464 14.1102 2.04297 14.0911C2.04297 14.0911 2.15805 14.1274 2.35519 14.1719Z" fill="white"/>
<path d="M9.6432 16.9224C9.9395 16.9273 10.237 16.9187 10.5345 16.8986V19.248L9.6432 19.2272V16.9224ZM22.4123 17.4312H18.2462C18.0466 17.4312 17.8833 17.5933 17.8833 17.7935V19.0545L15.1635 19.3538L11.19 19.2627V16.8349C11.7171 16.7676 12.2468 16.6628 12.7712 16.5154C16.5958 15.4349 17.4303 12.2726 17.3471 10.0844C17.2638 7.85619 17.9768 6.99061 19.0015 6.60624C19.2941 6.49604 19.5855 6.42552 19.8512 6.38146C19.8622 6.92868 19.9724 7.56409 20.218 8.32261C20.309 8.31772 20.3996 8.30963 20.489 8.30061C20.2307 7.52491 20.1205 6.88587 20.1151 6.34297C20.644 6.27985 21.0223 6.31533 21.0223 6.31533C21.0223 6.31533 20.6641 6.12315 20.158 5.70073C20.3305 4.64541 20.9591 3.99727 21.6068 3.33422C21.963 2.97016 22.3311 2.59356 22.6205 2.14425L22.3944 1.99927C22.1209 2.42532 21.7605 2.79189 21.4141 3.14642C20.7816 3.79406 20.145 4.45322 19.9288 5.50071C19.7233 5.31511 19.501 5.09716 19.2738 4.84129C18.3299 3.78428 17.1169 4.56047 15.385 6.17329C13.6515 7.78517 11.4735 7.83951 9.34621 5.66281C6.53923 2.78944 4.08998 2.80536 2.41147 2.96821C3.55987 3.45789 3.96142 4.53107 4.54342 7.25926C5.15263 10.1216 6.68954 11.4176 8.79116 11.5968C7.62244 12.0094 7.56396 12.6693 5.99734 13.751C4.77309 14.5958 3.05371 14.3281 2.35518 14.1702C3.63622 14.57 5.15338 15.9136 6.51109 16.3807C7.3012 16.6525 8.13418 16.8215 8.98823 16.8881V19.2117L1.86914 19.0496V20.6706L15.1635 20.367L17.8833 20.6669V21.9267C17.8833 22.1262 18.0466 22.2891 18.2462 22.2891H22.4123C22.6119 22.2891 22.7752 22.1262 22.7752 21.9267V17.7935C22.7752 17.5933 22.6119 17.4312 22.4123 17.4312Z" fill="white"/>
<path d="M1.48007 20.4052C1.48007 20.7468 1.24181 21.0234 0.94752 21.0234H0.627527C0.334173 21.0234 0.0947266 20.7468 0.0947266 20.4052V19.2845C0.0947266 18.9422 0.334173 18.6655 0.627527 18.6655H0.94752C1.24181 18.6655 1.48007 18.9422 1.48007 19.2845V20.4052Z" fill="white"/>
</svg>
