<svg width="33" height="18" viewBox="0 0 33 18" fill="none" xmlns="http://www.w3.org/2000/svg">
<path d="M29.5678 2.53529C27.6323 1.00792 25.311 0.841761 24.4029 0.841761C23.925 0.841761 23.4817 0.884445 23.1575 0.961824L23.0295 0.991943C21.8036 1.28138 19.7529 1.7656 17.3636 4.72957L17.2945 4.81678C17.2545 4.87278 17.2337 4.93282 17.2337 4.99633C17.2337 5.05022 17.2478 5.10171 17.2755 5.15293L17.3305 5.24179C17.7245 5.90207 18.0519 6.47432 18.3128 6.96038C18.4062 7.14123 18.6543 7.19914 18.8229 7.03189C18.8397 7.00969 18.8565 6.98702 18.8683 6.96919C20.9307 4.11518 22.5479 3.7358 23.6177 3.48419L23.7506 3.45223C23.8978 3.41699 24.1358 3.39753 24.4047 3.39753C24.9023 3.39753 26.6315 3.47969 27.9801 4.54469C29.1801 5.49257 29.7892 7.00436 29.7892 9.04074C29.7892 12.4533 28.137 13.7854 26.7516 14.3008C26.2228 14.4991 25.6533 14.5991 25.0576 14.5991C23.6319 14.5991 22.5338 14.0282 22.5192 14.0202L22.4199 13.9714C21.2287 13.4538 19.4488 12.376 17.7672 8.99806C14.3183 2.07163 11.4218 1.41531 9.50423 0.982588L9.40315 0.958614C9.25611 0.926584 8.84128 0.847906 8.16714 0.847906C7.05651 0.847906 4.92042 1.06666 3.08846 2.5286C1.83912 3.52503 0.348633 5.46238 0.348633 9.0266C0.348633 11.1995 0.79597 12.6334 1.94232 14.1429C2.15793 14.4364 4.1566 17.0175 7.99291 17.0175C8.5612 17.0175 9.15155 16.9593 9.74511 16.8459C10.4454 16.7112 11.5265 16.3652 12.7336 15.48L13.7423 16.3897C13.8554 16.4924 14.051 16.4818 14.1518 16.3711C14.2012 16.3185 14.227 16.2478 14.2249 16.179L15.0047 11.3724L15.0055 11.3164C15.0039 11.2342 14.9687 11.1568 14.9122 11.1074C14.8599 11.0581 14.7948 11.0322 14.7099 11.0322H14.7073L10.0279 12.3267L9.93907 12.3408C9.87986 12.3534 9.82782 12.384 9.79053 12.4267C9.73712 12.4848 9.70994 12.5609 9.71445 12.6388C9.71848 12.717 9.75317 12.789 9.80999 12.8383L10.7797 13.7152C10.2699 14.0282 9.76034 14.2342 9.26493 14.331C8.8434 14.4115 8.42509 14.4524 8.02358 14.4524C5.37261 14.4524 4.06802 12.7116 4.01393 12.6382L3.98805 12.6028C3.18182 11.5423 2.90809 10.6406 2.90809 9.0266C2.90809 6.98435 3.50649 5.46983 4.68514 4.52864C5.9982 3.48098 7.68695 3.40019 8.17383 3.40019C8.43923 3.40019 8.68072 3.4202 8.83623 3.45565L8.9395 3.47887C10.4713 3.82567 12.5677 4.30006 15.4742 10.1385C17.0096 13.2212 18.9344 15.238 21.3549 16.3004C21.6364 16.4439 23.1368 17.1602 25.0604 17.1602C25.9596 17.1602 26.8292 17.006 27.6461 16.7013C29.0609 16.1736 32.3486 14.371 32.3486 9.04074C32.3486 5.47973 30.8355 3.53705 29.5678 2.53529Z" fill="white"/>
</svg>
