<svg width="33" height="24" viewBox="0 0 33 24" fill="none" xmlns="http://www.w3.org/2000/svg">
<path d="M0.442261 17.3555H7.55784C7.6541 17.3555 7.73171 17.2764 7.73171 17.1804C7.73171 17.1352 7.71442 17.0954 7.68651 17.0642L7.67589 17.0536L4.13593 12.4739L4.10189 12.4351C4.06949 12.4005 4.02422 12.3787 3.97296 12.3787C3.92932 12.3787 3.88997 12.3974 3.85886 12.4239L3.83728 12.4486L3.80406 12.4856L0.350563 17.0177L0.297328 17.0829C0.277926 17.11 0.267578 17.144 0.267578 17.1804C0.267578 17.2764 0.345185 17.3555 0.442261 17.3555Z" fill="white"/>
<path d="M7.53651 18.0001H0.405811C0.310913 18.0001 0.232422 18.0781 0.232422 18.1751V23.7542C0.232422 23.8507 0.310913 23.9297 0.405811 23.9297H2.70154V20.4187C2.70154 20.3224 2.77996 20.2448 2.8752 20.2448H5.00626C5.10279 20.2448 5.18128 20.3224 5.18128 20.4187V23.9297H7.53651C7.63304 23.9297 7.71153 23.8507 7.71153 23.7542V18.1751C7.71153 18.0781 7.63304 18.0001 7.53651 18.0001Z" fill="white"/>
<path d="M31.5383 18.8239C31.5383 18.9161 31.4612 18.9919 31.3655 18.9919H29.2575C29.1615 18.9919 29.0839 18.9161 29.0839 18.8239V17.5421C29.0839 17.449 29.1615 17.374 29.2575 17.374H31.3655C31.4612 17.374 31.5383 17.449 31.5383 17.5421V18.8239ZM31.5383 21.1911C31.5383 21.2849 31.4612 21.3607 31.3655 21.3607H29.2575C29.1615 21.3607 29.0839 21.2849 29.0839 21.1911V19.9101C29.0839 19.817 29.1615 19.7418 29.2575 19.7418H31.3655C31.4612 19.7418 31.5383 19.817 31.5383 19.9101V21.1911ZM28.3166 18.8239C28.3166 18.9161 28.2396 18.9919 28.1438 18.9919H26.0364C25.9398 18.9919 25.8628 18.9161 25.8628 18.8239V17.5421C25.8628 17.449 25.9398 17.374 26.0364 17.374H28.1438C28.2396 17.374 28.3166 17.449 28.3166 17.5421V18.8239ZM28.3166 21.1911C28.3166 21.2849 28.2396 21.3607 28.1438 21.3607H26.0364C25.9398 21.3607 25.8628 21.2849 25.8628 21.1911V19.9101C25.8628 19.817 25.9398 19.7418 26.0364 19.7418H28.1438C28.2396 19.7418 28.3166 19.817 28.3166 19.9101V21.1911ZM32.1779 16.5404H25.1211C25.0254 16.5404 24.9482 16.6135 24.9482 16.7071V23.8325C24.9482 23.9255 25.0254 24 25.1211 24H32.1779C32.2731 24 32.3494 23.9255 32.3494 23.8325V16.7071C32.3494 16.6135 32.2731 16.5404 32.1779 16.5404Z" fill="white"/>
<path d="M14.7662 5.06364C14.7662 5.11205 14.725 5.1533 14.6753 5.1533H13.0944C13.0444 5.1533 13.004 5.11205 13.004 5.06364V3.30116C13.004 3.25064 13.0444 3.21021 13.0944 3.21021H14.6753C14.725 3.21021 14.7662 3.25064 14.7662 3.30116V5.06364ZM14.7662 9.10886C14.7662 9.1589 14.725 9.19981 14.6753 9.19981H13.0944C13.0444 9.19981 13.004 9.1589 13.004 9.10886V7.34664C13.004 7.29606 13.0444 7.25672 13.0944 7.25672H14.6753C14.725 7.25672 14.7662 7.29606 14.7662 7.34664V9.10886ZM14.7662 13.1562C14.7662 13.2062 14.725 13.2467 14.6753 13.2467H13.0944C13.0444 13.2467 13.004 13.2062 13.004 13.1562V11.394C13.004 11.3435 13.0444 11.3027 13.0944 11.3027H14.6753C14.725 11.3027 14.7662 11.3435 14.7662 11.394V13.1562ZM14.7662 17.2022C14.7662 17.2527 14.725 17.2926 14.6753 17.2926H13.0944C13.0444 17.2926 13.004 17.2527 13.004 17.2022V15.4413C13.004 15.39 13.0444 15.3493 13.0944 15.3493H14.6753C14.725 15.3493 14.7662 15.39 14.7662 15.4413V17.2022ZM14.7662 21.2487C14.7662 21.2988 14.725 21.3399 14.6753 21.3399H13.0944C13.0444 21.3399 13.004 21.2988 13.004 21.2487V19.4865C13.004 19.4373 13.0444 19.3966 13.0944 19.3966H14.6753C14.725 19.3966 14.7662 19.4373 14.7662 19.4865V21.2487ZM11.6656 5.06364C11.6656 5.11205 11.6252 5.1533 11.5752 5.1533H9.9943C9.94378 5.1533 9.90253 5.11205 9.90253 5.06364V3.30116C9.90253 3.25064 9.94378 3.21021 9.9943 3.21021H11.5752C11.6252 3.21021 11.6656 3.25064 11.6656 3.30116V5.06364ZM11.6656 9.10886C11.6656 9.1589 11.6252 9.19981 11.5752 9.19981H9.9943C9.94378 9.19981 9.90253 9.1589 9.90253 9.10886V7.34664C9.90253 7.29606 9.94378 7.25672 9.9943 7.25672H11.5752C11.6252 7.25672 11.6656 7.29606 11.6656 7.34664V9.10886ZM11.6656 13.1562C11.6656 13.2062 11.6252 13.2467 11.5752 13.2467H9.9943C9.94378 13.2467 9.90253 13.2062 9.90253 13.1562V11.394C9.90253 11.3435 9.94378 11.3027 9.9943 11.3027H11.5752C11.6252 11.3027 11.6656 11.3435 11.6656 11.394V13.1562ZM11.6656 17.2022C11.6656 17.2527 11.6252 17.2926 11.5752 17.2926H9.9943C9.94378 17.2926 9.90253 17.2527 9.90253 17.2022V15.4413C9.90253 15.39 9.94378 15.3493 9.9943 15.3493H11.5752C11.6252 15.3493 11.6656 15.39 11.6656 15.4413V17.2022ZM11.6656 21.2487C11.6656 21.2988 11.6252 21.3399 11.5752 21.3399H9.9943C9.94378 21.3399 9.90253 21.2988 9.90253 21.2487V19.4865C9.90253 19.4373 9.94378 19.3966 9.9943 19.3966H11.5752C11.6252 19.3966 11.6656 19.4373 11.6656 19.4865V21.2487ZM15.7728 -0.000806808H8.8673C8.77553 -0.000806808 8.69922 0.0746918 8.69922 0.168568V23.7684C8.69922 23.8622 8.77553 23.9375 8.8673 23.9375H15.7728C15.8659 23.9375 15.943 23.8622 15.943 23.7684V0.168568C15.943 0.0746918 15.8659 -0.000806808 15.7728 -0.000806808Z" fill="white"/>
<path d="M32.3416 15.8226C32.3416 15.9011 32.2791 15.9648 32.2001 15.9648H25.0966C25.0197 15.9648 24.9551 15.9011 24.9551 15.8226V14.4026C24.9551 14.3241 25.0197 14.2603 25.0966 14.2603H32.2001C32.2791 14.2603 32.3416 14.3241 32.3416 14.4026V15.8226Z" fill="white"/>
<path d="M23.3298 11.6666C23.3298 11.7607 23.2541 11.836 23.1618 11.836H21.1035C21.0097 11.836 20.9329 11.7607 20.9329 11.6666V10.3782C20.9329 10.2851 21.0097 10.2085 21.1035 10.2085H23.1618C23.2541 10.2085 23.3298 10.2851 23.3298 10.3782V11.6666ZM23.3298 14.0476C23.3298 14.1407 23.2541 14.216 23.1618 14.216H21.1035C21.0097 14.216 20.9329 14.1407 20.9329 14.0476V12.7587C20.9329 12.6656 21.0097 12.5907 21.1035 12.5907H23.1618C23.2541 12.5907 23.3298 12.6656 23.3298 12.7587V14.0476ZM23.3298 16.4285C23.3298 16.5215 23.2541 16.5968 23.1618 16.5968H21.1035C21.0097 16.5968 20.9329 16.5215 20.9329 16.4285V15.1392C20.9329 15.0462 21.0097 14.9707 21.1035 14.9707H23.1618C23.2541 14.9707 23.3298 15.0462 23.3298 15.1392V16.4285ZM23.3298 18.8093C23.3298 18.9034 23.2541 18.9773 23.1618 18.9773H21.1035C21.0097 18.9773 20.9329 18.9034 20.9329 18.8093V17.5214C20.9329 17.4262 21.0097 17.3517 21.1035 17.3517H23.1618C23.2541 17.3517 23.3298 17.4262 23.3298 17.5214V18.8093ZM23.3298 21.1885C23.3298 21.2828 23.2541 21.3573 23.1618 21.3573H21.1035C21.0097 21.3573 20.9329 21.2828 20.9329 21.1885V19.9014C20.9329 19.8077 21.0097 19.7333 21.1035 19.7333H23.1618C23.2541 19.7333 23.3298 19.8077 23.3298 19.9014V21.1885ZM20.1896 11.2124V14.0497C20.1896 14.1442 20.1125 14.2186 20.0213 14.2186H17.9631C17.8686 14.2186 17.7929 14.1442 17.7929 14.0497V13.7072V13.6926C17.7942 13.67 17.7982 13.6496 17.8061 13.6301C17.8096 13.6222 17.8101 13.6203 17.8159 13.6102C17.8208 13.603 17.8261 13.5951 17.8322 13.5871C17.8367 13.5796 17.8447 13.5693 17.8505 13.5605C18.1138 13.1837 19.3006 11.7211 19.7984 11.1108L19.8497 11.0502C19.8851 11.0058 19.9396 10.9771 20.0013 10.9771C20.0952 10.9771 20.1715 11.0475 20.1896 11.1366V11.2124ZM20.1835 16.4285C20.1835 16.5215 20.1082 16.5968 20.0154 16.5968H17.9572C17.8633 16.5968 17.788 16.5215 17.788 16.4285V15.1392C17.788 15.0462 17.8633 14.9707 17.9572 14.9707H20.0154C20.1082 14.9707 20.1835 15.0462 20.1835 15.1392V16.4285ZM20.1835 18.8093C20.1835 18.9034 20.1082 18.9773 20.0154 18.9773H17.9572C17.8633 18.9773 17.788 18.9034 17.788 18.8093V17.5214C17.788 17.4262 17.8633 17.3517 17.9572 17.3517H20.0154C20.1082 17.3517 20.1835 17.4262 20.1835 17.5214V18.8093ZM20.1835 21.1885C20.1835 21.2828 20.1082 21.3573 20.0154 21.3573H17.9572C17.8633 21.3573 17.788 21.2828 17.788 21.1885V19.9014C17.788 19.8077 17.8633 19.7333 17.9572 19.7333H20.0154C20.1082 19.7333 20.1835 19.8077 20.1835 19.9014V21.1885ZM21.2578 9.13104L21.3065 9.07038C21.7702 8.4739 22.5534 7.51076 22.9344 7.04349L22.9841 6.98372C23.0214 6.94035 23.0754 6.91244 23.1366 6.91244C23.2304 6.91244 23.3067 6.98025 23.3245 7.06929V7.14588V7.2081V9.24725C23.3245 9.35358 23.2411 9.43786 23.1379 9.44215C23.1344 9.44215 23.1312 9.44344 23.1291 9.44344C23.1259 9.44344 23.1232 9.44215 23.1198 9.44215H21.5086H21.424C21.4208 9.44215 21.4187 9.44344 21.4147 9.44344C21.4125 9.44344 21.4107 9.44215 21.4072 9.44215C21.303 9.43786 21.2187 9.35358 21.2187 9.24725C21.2187 9.2047 21.2338 9.16344 21.2578 9.13104ZM24.1152 4.45612C24.092 4.38029 24.0247 4.32419 23.9409 4.32419C23.9045 4.32419 23.8723 4.33699 23.8439 4.35693C23.8386 4.35959 23.8346 4.36224 23.8306 4.3649L23.7716 4.43937L16.9849 13.0481L16.9538 13.0906C16.9188 13.1244 16.8966 13.1714 16.8945 13.2246V13.236V23.8046C16.8945 23.8977 16.9704 23.9727 17.0642 23.9727H23.9627C24.0566 23.9727 24.1319 23.8977 24.1319 23.8046V4.52712C24.1319 4.50132 24.1244 4.47709 24.1152 4.45612Z" fill="white"/>
</svg>
