<svg width="17" height="24" viewBox="0 0 17 24" fill="none" xmlns="http://www.w3.org/2000/svg">
<g clip-path="url(#clip0)">
<path d="M16.7022 0.5C11.2291 0.5 5.76237 0.5 0.295604 0.5C0.0241595 0.5 -0.0326544 0.562196 0.0115342 0.823418C0.276666 2.40941 0.541798 4.00162 0.813242 5.58762C1.16044 7.65874 1.50763 9.72364 1.85483 11.7948C2.16415 13.6233 2.46716 15.4519 2.77017 17.2804C2.80173 17.4857 2.84592 17.5168 3.06055 17.5168C4.10845 17.5168 5.15004 17.5168 6.19794 17.5168C6.40626 17.5168 6.40626 17.5168 6.4252 17.7282C6.49464 18.5181 6.55776 19.3142 6.63352 20.1041C6.64614 20.2161 6.60195 20.2285 6.50726 20.2285C6.1285 20.2285 5.74974 20.2285 5.37098 20.2285C5.32679 20.2285 5.26998 20.2098 5.22579 20.2534C5.26367 20.2907 5.29523 20.328 5.32679 20.3591C6.36838 21.3853 7.40366 22.4054 8.43894 23.4316C8.53363 23.5249 8.57781 23.5187 8.6725 23.4316C9.70778 22.4054 10.7494 21.3853 11.7846 20.3591C11.8225 20.3218 11.873 20.2907 11.892 20.2223C11.8415 20.2223 11.791 20.2161 11.7405 20.2161C11.3933 20.2161 11.0461 20.2223 10.6989 20.2285C10.4716 20.2285 10.4716 20.2285 10.4969 20.0108C10.4969 19.9984 10.5032 19.9797 10.5032 19.9673C10.5663 19.2085 10.6421 18.4497 10.6989 17.6909C10.7115 17.5416 10.7557 17.5168 10.8946 17.5168C11.974 17.523 13.0535 17.523 14.133 17.5168C14.316 17.5168 14.3728 17.4732 14.3981 17.3177C14.5117 16.6149 14.619 15.9121 14.7327 15.2093C14.9978 13.5051 15.2629 11.801 15.5344 10.0968C15.7806 8.52326 16.0331 6.94348 16.2793 5.36993C16.5191 3.85857 16.7527 2.34721 16.9926 0.829638C17.0305 0.568415 16.9737 0.5 16.7022 0.5ZM11.2354 12.7401C10.9072 13.8721 9.83403 14.6184 8.62832 14.5625C8.59675 14.5625 8.56519 14.5625 8.52731 14.5625C7.93392 14.5998 7.3721 14.463 6.87971 14.1147C6.0275 13.5176 5.6803 12.6842 5.78131 11.6641C5.83812 11.1106 6.04013 10.6068 6.33682 10.1341C7.03121 9.03948 7.75717 7.96349 8.48312 6.88751C8.53994 6.80665 8.56519 6.79421 8.622 6.88129C9.36059 7.99459 10.1307 9.08924 10.8251 10.2336C11.2923 11.0111 11.4943 11.8445 11.2354 12.7401ZM16.2414 1.4205C16.1025 2.26014 15.9636 3.09978 15.8247 3.93321C15.8184 3.98296 15.8311 4.06382 15.7237 4.03272C15.2124 3.87101 14.7137 3.97052 14.234 4.15711C13.609 4.4059 12.9714 4.63602 12.3149 4.79151C10.9198 5.13359 9.56259 4.95944 8.23062 4.47431C7.63723 4.25663 7.05646 3.98918 6.44414 3.82126C5.71187 3.61601 4.99854 3.62223 4.27889 3.89589C3.5845 4.15711 2.8838 4.38724 2.1389 4.48053C1.92427 4.50541 1.70964 4.53029 1.4887 4.53029C1.41294 4.53029 1.37507 4.51163 1.35613 4.43077C1.15413 3.39832 0.952121 2.36587 0.743803 1.3272C0.724865 1.24635 0.756428 1.22769 0.825867 1.23391C0.870056 1.23391 0.914245 1.23391 0.964746 1.23391C3.47087 1.23391 5.98331 1.23391 8.48944 1.23391C11.0145 1.23391 13.5396 1.23391 16.0646 1.23391C16.2729 1.22769 16.2729 1.22769 16.2414 1.4205Z" fill="#FEFEFE"/>
</g>
<defs>
<clipPath id="clip0">
<rect width="17" height="23" fill="white" transform="translate(0 0.5)"/>
</clipPath>
</defs>
</svg>
