<svg width="32" height="32" viewBox="0 0 32 32" fill="none" xmlns="http://www.w3.org/2000/svg">
<circle cx="16" cy="16" r="16" fill="#F9F9F9"/>
<circle cx="14.5" cy="15.5" r="7" fill="#4BAA73" stroke="#434240"/>
<path d="M16.5665 19.25L12.6956 13.7V19.25H11.6875V11.75H12.4335L16.2944 17.2786V11.75H17.3125V19.25H16.5665Z" fill="white"/>
<path d="M9.8125 14.9297L19.1875 14.9297L19.1875 13.9922L9.8125 13.9922L9.8125 14.9297Z" fill="white"/>
<path d="M9.8125 16.8047L19.1875 16.8047L19.1875 15.8672L9.8125 15.8672L9.8125 16.8047Z" fill="white"/>
<path d="M22.7725 14.607L20.4975 12.332V20.0169C20.4975 21.0552 19.241 21.5767 18.506 20.8417L16.9951 19.332C16.4118 18.7487 15.0106 18.3987 14.0761 19.332C13.1428 20.2654 13.4928 21.6654 14.0761 22.2487L18.2796 27.382C18.6081 27.7834 19.0216 28.1067 19.4903 28.3286C19.959 28.5506 20.4712 28.6656 20.9898 28.6654H23.9998C24.3092 28.6654 24.606 28.5424 24.8248 28.3237C25.0435 28.1049 25.1665 27.8081 25.1665 27.4987V20.382C25.1662 19.3094 24.9547 18.2473 24.5439 17.2564C24.1332 16.2655 23.5312 15.3652 22.7725 14.607Z" fill="#989898" stroke="#434240" stroke-linecap="round" stroke-linejoin="round"/>
</svg>
