<svg width="32" height="32" viewBox="0 0 32 32" fill="none" xmlns="http://www.w3.org/2000/svg">
<circle cx="16" cy="16" r="16" fill="#F9F9F9"/>
<path d="M27 19.5C27 22.2614 24.7614 24.5 22 24.5C21.1045 24.5 20.2641 24.2646 19.5371 23.8523C18.2572 23.1265 17.329 21.8523 17.0718 20.3491C17.0246 20.0731 17 19.7895 17 19.5C17 18.2162 17.4839 17.0453 18.2793 16.1599C19.1946 15.1409 20.5224 14.5 22 14.5C24.7614 14.5 27 16.7386 27 19.5Z" fill="#4BAA73" stroke="#434240" stroke-width="1.66667" stroke-linecap="round" stroke-linejoin="round"/>
<path d="M22 10V14V14.5C20.5224 14.5 19.1946 15.1409 18.2793 16.1599C17.4839 17.0453 17 18.2162 17 19.5C17 19.7894 17.0246 20.0731 17.0718 20.3491C17.329 21.8523 18.2572 23.1265 19.5371 23.8523C18.2058 24.2548 16.4388 24.5 14.5 24.5C10.3579 24.5 7 23.3807 7 22V18V14V10" stroke="#434240" stroke-width="1.66667" stroke-linecap="round" stroke-linejoin="round"/>
<path d="M22 10C22 11.3807 18.6421 12.5 14.5 12.5C10.3579 12.5 7 11.3807 7 10C7 8.61929 10.3579 7.5 14.5 7.5C18.6421 7.5 22 8.61929 22 10Z" fill="#4BAA73" stroke="#434240" stroke-width="1.66667" stroke-linecap="round" stroke-linejoin="round"/>
<path d="M7 18C7 19.3807 10.3579 20.5 14.5 20.5C15.4035 20.5 16.2697 20.4467 17.0718 20.3491" stroke="#434240" stroke-width="1.66667" stroke-linecap="round" stroke-linejoin="round"/>
<path d="M7 14C7 15.3807 10.3579 16.5 14.5 16.5C15.8782 16.5 17.1695 16.3761 18.2793 16.1599" stroke="#434240" stroke-width="1.66667" stroke-linecap="round" stroke-linejoin="round"/>
<path d="M23.48 21.882L21.0026 18.33V21.882H20.3574V17.082H20.8348L23.3058 20.6203V17.082H23.9574V21.882H23.48Z" fill="white"/>
<path d="M19.1582 19.1234L25.1582 19.1234L25.1582 18.5234L19.1582 18.5234L19.1582 19.1234Z" fill="white"/>
<path d="M19.1582 20.3227L25.1582 20.3227L25.1582 19.7227L19.1582 19.7227L19.1582 20.3227Z" fill="white"/>
</svg>
