<svg width="32" height="32" viewBox="0 0 32 32" fill="none" xmlns="http://www.w3.org/2000/svg">
<circle cx="16" cy="16" r="16" fill="#F9F9F9"/>
<path d="M9.09079 19.7791C9.28559 19.0744 9.46091 18.4083 9.64597 17.7325C9.83103 17.0664 10.0258 16.4099 10.2109 15.7438C10.3667 15.1839 10.5226 14.6143 10.6784 14.0447C10.8635 13.3786 11.0583 12.7125 11.2433 12.0367C11.2531 11.9885 11.2726 11.9498 11.2726 11.9016C11.2726 11.7664 11.2141 11.6409 11.0778 11.5926C10.9219 11.5444 10.8537 11.6795 10.8148 11.7954C10.6784 12.2298 10.5615 12.6739 10.4252 13.1083C10.133 14.0834 9.84077 15.068 9.53883 16.0431C9.39273 16.5065 8.99339 16.8057 8.48691 16.632C8.20445 16.5354 8.04861 16.3134 8.00965 16.0238C7.96095 15.6183 8.10705 15.2611 8.21419 14.8943C8.37977 14.344 8.54535 13.7937 8.72067 13.2531C8.87651 12.7801 9.01287 12.2877 9.17845 11.8147C9.33429 11.3803 9.43169 10.9169 9.60701 10.4921C9.79207 10.0287 10.0648 9.63291 10.4836 9.35295C10.7369 9.17918 11.0193 9.10195 11.3213 9.10195C12.6556 9.09229 13.9803 9.10195 15.3147 9.10195C15.714 9.10195 16.0549 9.25641 16.3471 9.52672C16.7075 9.85495 16.9705 10.2508 17.1166 10.7238C17.5938 12.2588 18.0711 13.8034 18.5483 15.3384C18.6263 15.5797 18.6847 15.8307 18.6263 16.0914C18.5483 16.4389 18.2951 16.6609 17.925 16.6996C17.6133 16.7285 17.3211 16.5644 17.175 16.2651C17.0094 15.9079 16.912 15.5218 16.8049 15.1453C16.6588 14.6529 16.5127 14.1606 16.3666 13.6779C16.2107 13.1662 16.0646 12.6546 15.9088 12.1429C15.8796 12.0367 15.8504 11.9209 15.8017 11.8243C15.753 11.7085 15.6848 11.5926 15.5387 11.612C15.3828 11.6313 15.3536 11.7664 15.3634 11.8919C15.4023 12.2588 15.5387 12.6063 15.6361 12.9538C16.0939 14.6143 16.5516 16.2748 17.0192 17.9352C17.175 18.4952 17.3211 19.0454 17.4964 19.5957C17.5451 19.7695 17.4964 19.7888 17.3406 19.7888C16.8244 19.7791 16.3081 19.7984 15.8017 19.7791C15.5971 19.7695 15.5289 19.8178 15.5289 20.0398C15.5387 21.7678 15.5387 23.4959 15.5289 25.2239C15.5289 25.7742 15.2757 26.1217 14.8082 26.2569C14.214 26.4307 13.6491 25.9769 13.6004 25.4749C13.5907 25.3687 13.5809 25.2625 13.5809 25.1564C13.5809 23.4476 13.5809 21.7485 13.5809 20.0398C13.5809 19.9529 13.6394 19.8274 13.5128 19.7984C13.3764 19.7695 13.2108 19.7695 13.0745 19.8081C13.0063 19.8274 13.0452 19.9433 13.0452 20.0205C13.0452 21.7678 13.0258 23.5055 13.055 25.2529C13.0647 25.8514 12.5874 26.4307 11.7693 26.2762C11.4381 26.2086 11.0972 25.7549 11.0972 25.3977C11.0972 23.6117 11.0972 21.8354 11.107 20.0495C11.107 19.8178 11.0388 19.7695 10.8148 19.7695C10.2596 19.7888 9.68493 19.7791 9.09079 19.7791Z" fill="#434240"/>
<path d="M21.3111 17.3104C21.5212 17.32 21.7408 17.32 21.9509 17.3296C22.5525 17.3487 22.9441 17.6458 23.1637 18.2112C23.517 19.1311 23.8895 20.0414 24.2523 20.9614C24.2905 21.0476 24.3287 21.1243 24.3574 21.2201C24.4815 21.6034 24.1664 21.9963 23.7653 21.9675C23.6125 21.958 23.5266 21.8813 23.4597 21.7376C23.1542 20.9997 22.9154 20.2427 22.6385 19.4952C22.6098 19.4186 22.6003 19.3323 22.5239 19.2557C22.438 19.3419 22.4762 19.4377 22.4762 19.5336C22.4762 21.5076 22.4762 23.4912 22.4762 25.4652C22.4762 26.0785 21.9414 26.4522 21.4066 26.2414C21.101 26.1168 20.9196 25.8485 20.9196 25.4843C20.9196 24.7082 20.9196 23.932 20.9196 23.1654C20.9196 22.9929 20.9578 22.7533 20.6904 22.7437C20.4135 22.7437 20.4612 22.9833 20.4612 23.1558C20.4612 23.932 20.4612 24.7082 20.4612 25.4748C20.4612 25.8868 20.2034 26.203 19.8405 26.2797C19.4967 26.3468 19.1243 26.1743 18.9811 25.8581C18.8951 25.6856 18.8856 25.4843 18.8856 25.2927C18.8856 23.3666 18.8856 21.4501 18.8856 19.524C18.8856 19.4377 18.9047 19.3419 18.8665 19.2557C18.7423 19.2748 18.7423 19.3898 18.7232 19.4665C18.4749 20.2523 18.2267 21.038 17.9784 21.8238C17.8924 22.0921 17.6919 22.2263 17.4532 22.1975C17.1285 22.1592 16.947 21.8909 17.033 21.5651C17.0903 21.3543 17.1667 21.1434 17.2431 20.9326C17.5773 20.0989 17.8733 19.2557 18.2458 18.4507C18.2649 18.4124 18.284 18.3645 18.3031 18.3262C18.5991 17.6075 19.0957 17.2146 19.9169 17.3008C20.2607 17.3392 20.6045 17.3008 20.9482 17.3008C21.0724 17.2912 21.1965 17.2912 21.3111 17.3104Z" fill="#434240"/>
<path d="M21.3111 17.3104C21.5212 17.32 21.7408 17.32 21.9509 17.3296C22.5525 17.3487 22.9441 17.6458 23.1637 18.2112C23.517 19.1311 23.8895 20.0414 24.2523 20.9614C24.2905 21.0476 24.3287 21.1243 24.3574 21.2201C24.4815 21.6034 24.1664 21.9963 23.7653 21.9675C23.6125 21.958 23.5266 21.8813 23.4597 21.7376C23.1542 20.9997 22.9154 20.2427 22.6385 19.4952C22.6098 19.4186 22.6003 19.3323 22.5239 19.2557C22.438 19.3419 22.4762 19.4377 22.4762 19.5336C22.4762 21.5076 22.4762 23.4912 22.4762 25.4652C22.4762 26.0785 21.9414 26.4522 21.4066 26.2414C21.101 26.1168 20.9196 25.8485 20.9196 25.4843C20.9196 24.7082 20.9196 23.932 20.9196 23.1654C20.9196 22.9929 20.9578 22.7533 20.6904 22.7437C20.4135 22.7437 20.4612 22.9833 20.4612 23.1558C20.4612 23.932 20.4612 24.7082 20.4612 25.4748C20.4612 25.8868 20.2034 26.203 19.8405 26.2797C19.4967 26.3468 19.1243 26.1743 18.9811 25.8581C18.8951 25.6856 18.8856 25.4843 18.8856 25.2927C18.8856 23.3666 18.8856 21.4501 18.8856 19.524C18.8856 19.4377 18.9047 19.3419 18.8665 19.2557C18.7423 19.2748 18.7423 19.3898 18.7232 19.4665C18.4749 20.2523 18.2267 21.038 17.9784 21.8238C17.8924 22.0921 17.6919 22.2263 17.4532 22.1975C17.1285 22.1592 16.947 21.8909 17.033 21.5651C17.0903 21.3543 17.1667 21.1434 17.2431 20.9326C17.5773 20.0989 17.8733 19.2557 18.2458 18.4507C18.2649 18.4124 18.284 18.3645 18.3031 18.3262C18.5991 17.6075 19.0957 17.2146 19.9169 17.3008C20.2607 17.3392 20.6045 17.3008 20.9482 17.3008C21.0724 17.2912 21.1965 17.2912 21.3111 17.3104Z" fill="#4BAA73"/>
<path d="M12.9268 8.27692C12.0065 8.27692 11.2669 7.54585 11.2755 6.63416C11.2755 5.73107 12.0151 5 12.9182 5C13.8212 5 14.5522 5.73107 14.5522 6.64276C14.5608 7.55445 13.8384 8.27692 12.9268 8.27692Z" fill="#434240"/>
<path d="M20.9288 17.2716C20.0005 17.2099 19.5261 16.4289 19.4745 15.7814C19.4126 15.0312 19.8561 14.3528 20.5471 14.1062C21.4754 13.7876 22.4552 14.3015 22.6924 15.247C22.94 16.2028 22.3005 17.1072 21.2691 17.2819C21.1557 17.2922 21.0422 17.2922 20.9288 17.2716Z" fill="#434240"/>
<path d="M20.9288 17.2716C20.0005 17.2099 19.5261 16.4289 19.4745 15.7814C19.4126 15.0312 19.8561 14.3528 20.5471 14.1062C21.4754 13.7876 22.4552 14.3015 22.6924 15.247C22.94 16.2028 22.3005 17.1072 21.2691 17.2819C21.1557 17.2922 21.0422 17.2922 20.9288 17.2716Z" fill="#4BAA73"/>
</svg>
