<svg width="16" height="16" viewBox="0 0 16 16" fill="none" xmlns="http://www.w3.org/2000/svg">
<path d="M11.3004 0.599609H5.60039C3.00039 0.599609 0.900391 2.69961 0.900391 5.29961V6.59961C0.900391 9.19961 3.00039 11.2996 5.60039 11.2996H6.40039V15.3996L10.9004 11.2996H11.3004C13.9004 11.2996 16.0004 9.19961 16.0004 6.59961V5.29961C16.0004 2.69961 13.9004 0.599609 11.3004 0.599609ZM14.5004 6.59961C14.5004 8.39961 13.1004 9.79961 11.3004 9.79961H10.9004C10.5004 9.79961 10.2004 9.89961 9.90039 10.1996L7.90039 11.9996V11.2996C7.90039 10.4996 7.20039 9.79961 6.40039 9.79961H5.60039C3.80039 9.79961 2.40039 8.39961 2.40039 6.59961V5.29961C2.40039 3.49961 3.80039 2.09961 5.60039 2.09961H11.3004C13.1004 2.09961 14.5004 3.49961 14.5004 5.29961V6.59961Z" fill="#989898"/>
<path d="M5.10117 6.99922C5.59823 6.99922 6.00117 6.59628 6.00117 6.09922C6.00117 5.60216 5.59823 5.19922 5.10117 5.19922C4.60412 5.19922 4.20117 5.60216 4.20117 6.09922C4.20117 6.59628 4.60412 6.99922 5.10117 6.99922Z" fill="#989898"/>
<path d="M8.30039 6.99922C8.79745 6.99922 9.20039 6.59628 9.20039 6.09922C9.20039 5.60216 8.79745 5.19922 8.30039 5.19922C7.80334 5.19922 7.40039 5.60216 7.40039 6.09922C7.40039 6.59628 7.80334 6.99922 8.30039 6.99922Z" fill="#989898"/>
<path d="M11.6012 6.99922C12.0982 6.99922 12.5012 6.59628 12.5012 6.09922C12.5012 5.60216 12.0982 5.19922 11.6012 5.19922C11.1041 5.19922 10.7012 5.60216 10.7012 6.09922C10.7012 6.59628 11.1041 6.99922 11.6012 6.99922Z" fill="#989898"/>
</svg>
