<svg width="32" height="32" viewBox="0 0 32 32" fill="none" xmlns="http://www.w3.org/2000/svg">
<circle cx="16" cy="16" r="16" fill="#F9F9F9"/>
<path d="M18.8125 12.25H13.1875C12.6719 12.25 12.25 12.6719 12.25 13.1875V18.8125C12.25 19.3281 12.6719 19.75 13.1875 19.75H18.8125C19.3281 19.75 19.75 19.3281 19.75 18.8125V13.1875C19.75 12.6719 19.3281 12.25 18.8125 12.25ZM16 6C10.4766 6 6 10.4766 6 16C6 21.5234 10.4766 26 16 26C21.5234 26 26 21.5234 26 16C26 10.4766 21.5234 6 16 6ZM16 24.125C11.5195 24.125 7.875 20.4801 7.875 16C7.875 11.5199 11.5195 7.875 16 7.875C20.4805 7.875 24.125 11.5199 24.125 16C24.125 20.4801 20.4805 24.125 16 24.125Z" fill="#4BAA73"/>
<path d="M16 6C10.4766 6 6 10.4766 6 16C6 21.5234 10.4766 26 16 26C21.5234 26 26 21.5234 26 16C26 10.4766 21.5234 6 16 6ZM16 24.125C11.5195 24.125 7.875 20.4801 7.875 16C7.875 11.5199 11.5195 7.875 16 7.875C20.4805 7.875 24.125 11.5199 24.125 16C24.125 20.4801 20.4805 24.125 16 24.125Z" fill="#434240"/>
</svg>
