<svg width="40" height="40" viewBox="0 0 40 40" fill="none" xmlns="http://www.w3.org/2000/svg">
<rect y="0.5" width="40" height="39" rx="19.5" fill="black" fill-opacity="0.4"/>
<path d="M16.6074 20C16.6073 19.8971 16.6275 19.7952 16.6669 19.7002C16.7062 19.6052 16.764 19.5189 16.8368 19.4462L22.0582 14.2249C22.2054 14.08 22.404 13.9992 22.6106 14C22.8172 14.0008 23.0151 14.0833 23.1612 14.2294C23.3073 14.3755 23.3898 14.5734 23.3906 14.78C23.3915 14.9866 23.3106 15.1852 23.1657 15.3325L18.4983 20L23.1657 24.6675C23.3106 24.8148 23.3915 25.0134 23.3906 25.22C23.3898 25.4266 23.3073 25.6245 23.1612 25.7706C23.0151 25.9167 22.8172 25.9992 22.6106 26C22.404 26.0008 22.2054 25.92 22.0582 25.7751L16.8368 20.5538C16.764 20.4811 16.7062 20.3948 16.6669 20.2998C16.6275 20.2048 16.6073 20.1029 16.6074 20Z" fill="white"/>
</svg>
