<svg width="16" height="5" viewBox="0 0 16 5" fill="none" xmlns="http://www.w3.org/2000/svg">
<path d="M2.04729 4.05748C2.95793 4.05748 3.69615 3.31926 3.69615 2.40862C3.69615 1.49798 2.95793 0.759766 2.04729 0.759766C1.13665 0.759766 0.398438 1.49798 0.398438 2.40862C0.398438 3.31926 1.13665 4.05748 2.04729 4.05748Z" fill="black"/>
<path d="M7.91057 4.05748C8.82121 4.05748 9.55943 3.31926 9.55943 2.40862C9.55943 1.49798 8.82121 0.759766 7.91057 0.759766C6.99994 0.759766 6.26172 1.49798 6.26172 2.40862C6.26172 3.31926 6.99994 4.05748 7.91057 4.05748Z" fill="black"/>
<path d="M13.9574 4.05748C14.8681 4.05748 15.6063 3.31926 15.6063 2.40862C15.6063 1.49798 14.8681 0.759766 13.9574 0.759766C13.0468 0.759766 12.3086 1.49798 12.3086 2.40862C12.3086 3.31926 13.0468 4.05748 13.9574 4.05748Z" fill="black"/>
</svg>
