<svg width="547" height="279" viewBox="0 0 547 279" fill="none" xmlns="http://www.w3.org/2000/svg">
<g clip-path="url(#clip0_8304_17267)">
<path d="M331.06 220.221C339.394 220.221 346.151 213.464 346.151 205.13C346.151 196.795 339.394 190.039 331.06 190.039C322.725 190.039 315.969 196.795 315.969 205.13C315.969 213.464 322.725 220.221 331.06 220.221Z" fill="white"/>
<path d="M331.062 220.476C328.028 220.476 325.061 219.576 322.538 217.89C320.015 216.204 318.048 213.808 316.887 211.004C315.725 208.2 315.422 205.115 316.014 202.139C316.606 199.163 318.067 196.429 320.213 194.283C322.359 192.137 325.092 190.676 328.069 190.084C331.045 189.492 334.13 189.796 336.934 190.957C339.737 192.118 342.134 194.085 343.82 196.608C345.506 199.131 346.406 202.098 346.406 205.132C346.401 209.2 344.783 213.1 341.906 215.977C339.03 218.853 335.13 220.471 331.062 220.476ZM331.062 190.294C328.127 190.294 325.259 191.164 322.818 192.795C320.378 194.425 318.476 196.743 317.353 199.454C316.23 202.165 315.936 205.149 316.509 208.027C317.081 210.906 318.495 213.55 320.57 215.625C322.645 217.7 325.289 219.113 328.167 219.686C331.046 220.258 334.029 219.964 336.741 218.841C339.452 217.718 341.769 215.816 343.4 213.376C345.03 210.936 345.9 208.067 345.9 205.132C345.896 201.198 344.331 197.427 341.55 194.645C338.768 191.863 334.996 190.299 331.062 190.294Z" fill="#3F3D56"/>
<path d="M328.515 216.593L328.414 216.549C328.357 216.525 327.004 215.914 327.49 213.387L327.499 213.359L327.679 212.958C328.208 211.773 328.467 210.486 328.436 209.19C327.349 209.165 321.777 209.007 321.125 208.401C320.906 208.199 320.774 207.92 320.756 207.623L320.723 207.092C320.713 206.929 320.736 206.766 320.791 206.612C320.847 206.459 320.933 206.318 321.044 206.2C321.156 206.081 321.291 205.986 321.441 205.921C321.59 205.857 321.752 205.823 321.915 205.823H322.235L322.008 205.563C321.826 205.356 321.726 205.089 321.726 204.813V204.373C321.726 204.17 321.781 203.971 321.884 203.795C321.987 203.62 322.135 203.476 322.313 203.377L322.495 203.276L322.39 203.171C322.243 203.024 322.139 202.839 322.089 202.637C322.039 202.435 322.046 202.223 322.108 202.025C322.17 201.826 322.285 201.649 322.441 201.511C322.597 201.373 322.787 201.281 322.992 201.243L324.185 201.026C324.21 200.598 324.385 200.192 324.68 199.881C324.974 199.569 325.369 199.371 325.795 199.322L329.205 198.929C330.969 198.614 332.767 198.535 334.552 198.692L335.074 198.739L340.35 198.109V205.162L335.471 205.832L331.362 210.594C330.669 212.604 329.764 214.533 328.662 216.351L328.515 216.593Z" fill="#BE6F46"/>
<path opacity="0.2" d="M328.068 216.028L327.838 215.925L328.631 214.152L329.56 214.439L329.486 214.68L328.77 214.46L328.068 216.028Z" fill="black"/>
<path d="M318.68 199.601L317.065 177.191L317.372 169.711L311.076 171.112L313.395 200.476C313.132 201.017 313.024 201.621 313.081 202.22C313.138 202.819 313.358 203.39 313.719 203.872C314.079 204.354 314.564 204.728 315.123 204.953C315.681 205.177 316.29 205.244 316.884 205.146C317.477 205.047 318.032 204.788 318.488 204.395C318.944 204.002 319.284 203.492 319.469 202.92C319.654 202.347 319.679 201.735 319.54 201.149C319.4 200.564 319.103 200.028 318.68 199.601V199.601Z" fill="#8A4621"/>
<path d="M287.719 178.991L287.319 171.482L283.278 168.199L280.938 175.152L267.846 192.613C267.227 192.712 266.65 192.986 266.182 193.403C265.714 193.82 265.375 194.363 265.206 194.966C265.037 195.57 265.044 196.209 265.227 196.809C265.409 197.409 265.76 197.943 266.237 198.35C266.714 198.756 267.298 199.018 267.919 199.103C268.54 199.188 269.172 199.094 269.741 198.831C270.31 198.568 270.792 198.148 271.13 197.62C271.467 197.091 271.647 196.478 271.646 195.851C271.646 195.807 271.641 195.764 271.64 195.72L287.719 178.991Z" fill="#8A4621"/>
<path d="M288.446 176.582L278.584 166.057L285.907 150.736C286.055 150.422 286.264 150.141 286.524 149.91C286.783 149.679 287.086 149.502 287.414 149.391C287.738 149.28 288.08 149.236 288.421 149.26C288.762 149.285 289.094 149.378 289.398 149.534L289.47 149.57L288.446 176.582Z" fill="white"/>
<path d="M288.446 176.582L278.584 166.057L285.907 150.736C286.055 150.422 286.264 150.141 286.524 149.91C286.783 149.679 287.086 149.502 287.414 149.391C287.738 149.28 288.08 149.236 288.421 149.26C288.762 149.285 289.094 149.378 289.398 149.534L289.47 149.57L288.446 176.582Z" fill="url(#paint0_linear_8304_17267)" fill-opacity="0.8"/>
<path d="M288.446 176.582L278.584 166.057L285.907 150.736C286.055 150.422 286.264 150.141 286.524 149.91C286.783 149.679 287.086 149.502 287.414 149.391C287.738 149.28 288.08 149.236 288.421 149.26C288.762 149.285 289.094 149.378 289.398 149.534L289.47 149.57L288.446 176.582Z" fill="url(#paint1_linear_8304_17267)" fill-opacity="0.8"/>
<path d="M310.451 174.926L308.699 164.656L308.706 164.63L312.847 148.35L313.235 148.305C314.354 148.181 315.479 148.48 316.389 149.142C317.3 149.804 317.931 150.781 318.159 151.884L322.061 171.314L310.451 174.926Z" fill="white"/>
<path d="M310.451 174.926L308.699 164.656L308.706 164.63L312.847 148.35L313.235 148.305C314.354 148.181 315.479 148.48 316.389 149.142C317.3 149.804 317.931 150.781 318.159 151.884L322.061 171.314L310.451 174.926Z" fill="url(#paint2_linear_8304_17267)" fill-opacity="0.8"/>
<path d="M310.451 174.926L308.699 164.656L308.706 164.63L312.847 148.35L313.235 148.305C314.354 148.181 315.479 148.48 316.389 149.142C317.3 149.804 317.931 150.781 318.159 151.884L322.061 171.314L310.451 174.926Z" fill="url(#paint3_linear_8304_17267)" fill-opacity="0.8"/>
<path d="M312.682 143.953H291.723V134.484C291.723 131.704 292.827 129.039 294.792 127.073C296.757 125.108 299.423 124.004 302.202 124.004C304.982 124.004 307.647 125.108 309.613 127.073C311.578 129.039 312.682 131.704 312.682 134.484V143.953Z" fill="#0E0A01"/>
<path d="M339.459 261.909L335.912 264.894L322.709 252.633L327.944 248.227L339.459 261.909Z" fill="#8A4621"/>
<path d="M343.258 264.585L331.821 274.211L331.699 274.067C330.705 272.886 330.221 271.359 330.353 269.821C330.486 268.284 331.223 266.862 332.404 265.868L332.404 265.868L339.39 259.988L343.258 264.585Z" fill="#0E0A01"/>
<path d="M286.289 273.508L281.653 273.508L279.447 255.625L286.29 255.625L286.289 273.508Z" fill="#8A4621"/>
<path d="M287.471 277.997L272.521 277.996V277.807C272.522 276.264 273.135 274.784 274.226 273.693C275.317 272.601 276.797 271.988 278.34 271.988H278.341L287.471 271.989L287.471 277.997Z" fill="#0E0A01"/>
<path d="M265.955 269.016L268.263 242.6C269.433 229.222 272.188 216.03 276.469 203.3L286.133 174.576L286.977 167.886C284.405 162.554 287.129 158.493 287.443 158.055L287.107 151.41C287.101 151.279 287.091 151.153 287.083 151.031C286.986 149.725 287.056 148.973 289.604 148.691L310.743 148.039C313.418 148.028 315.039 148.473 315.698 149.421C316.456 150.512 315.855 152.093 315.273 153.623C315.213 153.782 315.152 153.941 315.093 154.1L306.72 176.582C310.772 184.415 309.991 196.394 309.983 196.515L310.279 200.058L341.015 250.287L322.842 267.256L322.761 267.124L293.487 219.521L293.236 267.501L293.117 267.507L265.955 269.016Z" fill="#0E0A01"/>
<path d="M309.475 139.779C311.744 135.628 310.219 130.424 306.068 128.155C301.916 125.885 296.712 127.411 294.443 131.562C292.174 135.713 293.699 140.918 297.85 143.187C302.001 145.456 307.206 143.93 309.475 139.779Z" fill="#8A4621"/>
<path d="M306.097 128.404C309.246 128.404 311.799 125.851 311.799 122.702C311.799 119.553 309.246 117 306.097 117C302.947 117 300.395 119.553 300.395 122.702C300.395 125.851 302.947 128.404 306.097 128.404Z" fill="#0E0A01"/>
<path d="M313.692 136.126H292.732V135.999C292.732 133.22 293.837 130.554 295.802 128.589C297.767 126.624 300.433 125.52 303.212 125.52C305.992 125.52 308.657 126.624 310.623 128.589C312.588 130.554 313.692 133.22 313.692 135.999V136.126Z" fill="#0E0A01"/>
<path d="M259.345 199.01C267.679 199.01 274.436 192.253 274.436 183.919C274.436 175.585 267.679 168.828 259.345 168.828C251.01 168.828 244.254 175.585 244.254 183.919C244.254 192.253 251.01 199.01 259.345 199.01Z" fill="white"/>
<path d="M259.343 199.261C256.309 199.261 253.342 198.361 250.819 196.675C248.296 194.989 246.329 192.593 245.168 189.789C244.007 186.986 243.703 183.901 244.295 180.924C244.887 177.948 246.348 175.214 248.494 173.068C250.64 170.922 253.374 169.461 256.35 168.869C259.326 168.277 262.411 168.581 265.215 169.742C268.019 170.903 270.415 172.87 272.101 175.393C273.787 177.916 274.687 180.883 274.687 183.918C274.682 187.986 273.064 191.886 270.188 194.762C267.311 197.638 263.411 199.256 259.343 199.261ZM259.343 169.079C256.409 169.079 253.54 169.95 251.1 171.58C248.659 173.21 246.758 175.528 245.635 178.239C244.511 180.951 244.218 183.934 244.79 186.812C245.363 189.691 246.776 192.335 248.851 194.41C250.926 196.485 253.57 197.898 256.449 198.471C259.327 199.043 262.31 198.75 265.022 197.626C267.733 196.503 270.051 194.602 271.681 192.161C273.311 189.721 274.182 186.852 274.182 183.918C274.177 179.984 272.613 176.212 269.831 173.43C267.049 170.648 263.277 169.084 259.343 169.079Z" fill="#3F3D56"/>
<path d="M250.055 190.94V183.888L254.934 183.218L259.042 178.455C259.735 176.446 260.64 174.516 261.742 172.699L261.889 172.457L261.99 172.5C262.048 172.525 263.4 173.136 262.914 175.663L262.905 175.69L262.725 176.092C262.196 177.276 261.938 178.563 261.968 179.86C263.055 179.885 268.627 180.043 269.279 180.649C269.498 180.851 269.63 181.13 269.648 181.427L269.681 181.958C269.691 182.121 269.668 182.284 269.613 182.438C269.558 182.591 269.471 182.731 269.36 182.85C269.248 182.969 269.113 183.064 268.964 183.129C268.814 183.193 268.653 183.227 268.49 183.227H268.169L268.396 183.486C268.578 183.694 268.678 183.961 268.678 184.237V184.676C268.678 184.88 268.623 185.079 268.52 185.254C268.417 185.43 268.269 185.574 268.092 185.673L267.909 185.774L268.014 185.879C268.161 186.026 268.265 186.211 268.315 186.413C268.365 186.615 268.358 186.826 268.296 187.025C268.234 187.223 268.119 187.401 267.963 187.539C267.807 187.677 267.617 187.769 267.412 187.806L266.219 188.023C266.194 188.452 266.019 188.857 265.725 189.169C265.43 189.481 265.035 189.679 264.609 189.728L261.199 190.121C259.435 190.435 257.637 190.515 255.853 190.357L255.33 190.311L250.055 190.94Z" fill="#BE6F46"/>
<path opacity="0.2" d="M261.775 174.895L260.846 174.609L260.92 174.368L261.635 174.588L262.337 173.02L262.568 173.123L261.775 174.895Z" fill="black"/>
<path d="M377.867 245.676L371.509 255.672L375.212 242.659C367.393 234.5 356.568 228.531 356.568 228.531C356.568 228.531 343.238 250.438 346.826 263.914C350.414 277.39 359.677 279.962 369.56 277.331C379.442 274.7 386.2 267.862 382.613 254.387C381.814 251.387 380.08 248.443 377.867 245.676Z" fill="#F2F2F2"/>
<path d="M369.455 256.671L369.632 257.335C371.648 265.066 371.95 271.437 370.524 276.359C370.504 276.432 370.481 276.501 370.461 276.573L370.129 276.475L369.81 276.377C371.425 271.042 370.704 264.3 368.948 257.556C368.893 257.338 368.838 257.117 368.776 256.897C368.007 254.049 367.065 251.211 366.04 248.484C365.962 248.272 365.88 248.058 365.799 247.844C364.427 244.251 362.927 240.868 361.538 237.953C361.441 237.746 361.341 237.541 361.241 237.338C358.87 232.413 356.86 228.923 356.408 228.152C356.355 228.057 356.323 228.006 356.316 227.993L356.605 227.822L356.608 227.817L356.9 227.645C356.906 227.657 357.012 227.829 357.197 228.153C357.896 229.362 359.751 232.654 361.89 237.077C361.985 237.277 362.086 237.483 362.183 237.689C363.313 240.054 364.511 242.715 365.65 245.538C365.937 246.247 366.212 246.949 366.474 247.643C366.559 247.856 366.641 248.071 366.718 248.282C367.827 251.23 368.739 254.026 369.455 256.671Z" fill="white"/>
<path d="M361.89 237.076C361.678 237.164 361.462 237.253 361.241 237.337C360.642 237.564 360.031 237.761 359.412 237.926C356.773 238.632 354.009 238.738 351.324 238.234C351.233 238.445 351.141 238.656 351.047 238.871C353.878 239.427 356.799 239.329 359.587 238.584C360.248 238.407 360.9 238.196 361.539 237.951C361.756 237.869 361.972 237.78 362.183 237.688C363.933 236.943 365.559 235.937 367.006 234.704C366.816 234.56 366.631 234.42 366.449 234.281C365.076 235.432 363.539 236.374 361.89 237.076Z" fill="white"/>
<path d="M366.474 247.643C366.25 247.716 366.025 247.783 365.798 247.844C365.73 247.865 365.658 247.885 365.589 247.903C362.728 248.665 359.726 248.723 356.838 248.074C353.95 247.425 351.262 246.086 349.003 244.174C348.923 244.403 348.843 244.632 348.768 244.863C351.103 246.785 353.863 248.123 356.819 248.766C359.774 249.409 362.841 249.339 365.764 248.561C365.856 248.536 365.948 248.512 366.039 248.484C366.268 248.419 366.494 248.352 366.718 248.282C370.181 247.168 373.25 245.079 375.557 242.267C375.4 242.101 375.243 241.935 375.083 241.77C372.846 244.523 369.854 246.565 366.474 247.643Z" fill="white"/>
<path d="M369.454 256.67C369.229 256.751 369.003 256.826 368.775 256.897C368.531 256.972 368.286 257.045 368.039 257.11C364.195 258.129 360.123 257.875 356.435 256.387C352.746 254.898 349.639 252.254 347.579 248.852C347.502 249.158 347.424 249.46 347.354 249.764C349.548 253.122 352.745 255.702 356.49 257.139C360.235 258.576 364.337 258.796 368.215 257.768C368.461 257.702 368.707 257.633 368.947 257.555C369.179 257.487 369.405 257.412 369.631 257.335C374.184 255.733 377.957 252.461 380.188 248.182C380.054 247.957 379.912 247.738 379.768 247.516C377.651 251.792 373.952 255.076 369.454 256.67Z" fill="white"/>
<path d="M345.109 18.0317L338.751 28.0279L342.455 15.0147C334.635 6.85547 323.81 0.886719 323.81 0.886719C323.81 0.886719 310.481 22.7938 314.068 36.2696C317.656 49.7453 326.92 52.3178 336.802 49.6869C346.684 47.056 353.442 40.218 349.855 26.7422C349.056 23.7428 347.322 20.7981 345.109 18.0317Z" fill="#F2F2F2"/>
<path d="M336.695 29.0261L336.872 29.6904C338.888 37.4219 339.19 43.7928 337.764 48.7149C337.744 48.787 337.721 48.8567 337.701 48.9288L337.369 48.8307L337.05 48.7324C338.665 43.3971 337.945 36.6554 336.188 29.9113C336.133 29.6933 336.078 29.4722 336.016 29.2527C335.247 26.4044 334.305 23.5669 333.28 20.8397C333.202 20.6279 333.121 20.4137 333.039 20.1995C331.667 16.6067 330.168 13.2239 328.779 10.3082C328.681 10.1016 328.581 9.89599 328.481 9.69362C326.11 4.76816 324.1 1.27837 323.648 0.50769C323.595 0.412746 323.563 0.361236 323.557 0.348965L323.845 0.177007L323.848 0.172839L324.14 0C324.147 0.0122872 324.252 0.184849 324.437 0.508902C325.136 1.71739 326.991 5.00897 329.13 9.43283C329.226 9.63278 329.326 9.83844 329.423 10.045C330.553 12.4099 331.751 15.0702 332.89 17.8939C333.177 18.6027 333.452 19.3042 333.714 19.9985C333.799 20.2118 333.881 20.426 333.958 20.6378C335.067 23.5858 335.979 26.3819 336.695 29.0261Z" fill="white"/>
<path d="M329.13 9.43162C328.918 9.5199 328.702 9.60901 328.482 9.69241C327.882 9.91988 327.272 10.1165 326.652 10.2815C324.013 10.9878 321.25 11.093 318.565 10.5894C318.473 10.8005 318.381 11.0115 318.287 11.2267C321.119 11.7828 324.04 11.6844 326.827 10.9392C327.489 10.763 328.14 10.5519 328.779 10.3069C328.996 10.2244 329.212 10.1352 329.424 10.0437C331.173 9.29871 332.799 8.29237 334.246 7.05913C334.056 6.91591 333.871 6.77511 333.69 6.63672C332.316 7.78777 330.78 8.72957 329.13 9.43162Z" fill="white"/>
<path d="M333.716 19.9984C333.492 20.0719 333.267 20.1389 333.04 20.1993C332.972 20.221 332.9 20.2402 332.831 20.2586C329.97 21.0202 326.968 21.0788 324.08 20.4294C321.192 19.78 318.504 18.4419 316.245 16.5292C316.165 16.7582 316.085 16.9872 316.01 17.2187C318.345 19.1408 321.105 20.4787 324.061 21.1218C327.017 21.7648 330.083 21.6944 333.006 20.9163C333.098 20.8918 333.19 20.8673 333.281 20.8395C333.511 20.7749 333.736 20.7079 333.96 20.6376C337.423 19.5231 340.492 17.4347 342.799 14.6221C342.643 14.4561 342.486 14.2901 342.326 14.125C340.088 16.8788 337.096 18.92 333.716 19.9984Z" fill="white"/>
<path d="M336.696 29.0258C336.471 29.1068 336.245 29.1812 336.017 29.2524C335.773 29.3279 335.528 29.4002 335.282 29.4658C331.437 30.4847 327.365 30.2307 323.677 28.742C319.989 27.2533 316.882 24.6099 314.821 21.2077C314.744 21.5134 314.666 21.8159 314.596 22.1199C316.79 25.4772 319.987 28.0576 323.732 29.4943C327.477 30.9311 331.58 31.1513 335.457 30.1235C335.703 30.0578 335.949 29.9889 336.189 29.911C336.421 29.8422 336.647 29.7678 336.873 29.6901C341.426 28.0885 345.2 24.8168 347.43 20.5374C347.297 20.3125 347.154 20.0934 347.01 19.8711C344.893 24.1477 341.194 27.4315 336.696 29.0258Z" fill="white"/>
<path d="M170.264 262.457L158.417 262.51L171.367 258.592C174.005 247.603 173.176 235.27 173.176 235.27C173.176 235.27 147.54 235.896 138.141 246.198C128.743 256.5 131.586 265.685 139.141 272.577C146.696 279.469 156.102 281.459 165.5 271.157C167.592 268.864 169.132 265.813 170.264 262.457Z" fill="#F2F2F2"/>
<path d="M156.47 261.32L156.006 261.828C150.591 267.703 145.394 271.4 140.482 272.861C140.411 272.884 140.34 272.902 140.269 272.924L140.171 272.591L140.082 272.27C145.444 270.745 150.726 266.495 155.451 261.371C155.605 261.208 155.761 261.042 155.912 260.871C157.893 258.685 159.771 256.358 161.511 254.021C161.647 253.842 161.783 253.657 161.92 253.473C164.201 250.377 166.236 247.287 167.939 244.542C168.06 244.349 168.179 244.153 168.295 243.96C171.157 239.302 173.007 235.725 173.411 234.928C173.462 234.832 173.489 234.778 173.495 234.766L173.796 234.916L173.801 234.915L174.104 235.068C174.097 235.08 174.009 235.262 173.837 235.593C173.197 236.834 171.431 240.174 168.865 244.365C168.749 244.553 168.63 244.749 168.509 244.942C167.13 247.171 165.539 249.617 163.779 252.101C163.338 252.726 162.896 253.337 162.454 253.933C162.32 254.119 162.184 254.304 162.048 254.483C160.167 257.01 158.307 259.289 156.47 261.32Z" fill="white"/>
<path d="M168.864 244.365C168.674 244.234 168.483 244.101 168.293 243.96C167.778 243.579 167.283 243.171 166.809 242.74C164.788 240.901 163.206 238.633 162.178 236.102C161.951 236.138 161.724 236.175 161.492 236.213C162.555 238.895 164.216 241.3 166.35 243.242C166.856 243.703 167.386 244.137 167.937 244.543C168.124 244.681 168.316 244.814 168.507 244.943C170.079 246.012 171.805 246.836 173.624 247.386C173.642 247.15 173.661 246.918 173.679 246.69C171.968 246.157 170.345 245.373 168.864 244.365Z" fill="white"/>
<path d="M162.453 253.933C162.27 253.785 162.092 253.632 161.919 253.474C161.864 253.428 161.808 253.377 161.756 253.329C159.569 251.334 157.897 248.84 156.882 246.059C155.868 243.279 155.54 240.294 155.929 237.359C155.693 237.416 155.457 237.473 155.221 237.534C154.866 240.538 155.233 243.583 156.289 246.417C157.346 249.252 159.062 251.793 161.297 253.832C161.367 253.896 161.438 253.961 161.51 254.022C161.689 254.18 161.867 254.333 162.047 254.484C164.857 256.795 168.272 258.248 171.886 258.67C171.941 258.448 171.996 258.226 172.048 258.002C168.522 257.608 165.187 256.194 162.453 253.933Z" fill="white"/>
<path d="M156.47 261.322C156.28 261.176 156.095 261.026 155.912 260.873C155.717 260.708 155.524 260.541 155.335 260.369C152.4 257.685 150.413 254.122 149.671 250.215C148.93 246.307 149.475 242.264 151.224 238.691C150.925 238.792 150.628 238.89 150.334 238.995C148.696 242.656 148.253 246.74 149.068 250.668C149.884 254.595 151.916 258.165 154.876 260.872C155.065 261.044 155.256 261.213 155.451 261.373C155.634 261.531 155.819 261.681 156.007 261.829C159.815 264.794 164.607 266.201 169.413 265.764C169.53 265.53 169.637 265.292 169.747 265.051C165.005 265.581 160.242 264.244 156.47 261.322Z" fill="white"/>
<path d="M130.935 271.752L137.742 271.752L140.98 245.496L130.934 245.497L130.935 271.752Z" fill="#BE6F46"/>
<path d="M129.197 269.528L142.603 269.527H142.603C144.869 269.527 147.042 270.428 148.644 272.03C150.246 273.632 151.146 275.805 151.146 278.07V278.348L129.198 278.349L129.197 269.528Z" fill="#0E0A01"/>
<path d="M77.0773 271.752L83.8844 271.752L87.1224 245.496L77.0762 245.497L77.0773 271.752Z" fill="#BE6F46"/>
<path d="M75.3418 269.528L88.7472 269.527H88.7478C91.0134 269.527 93.1863 270.428 94.7884 272.03C96.3905 273.632 97.2906 275.805 97.2907 278.07V278.348L75.3422 278.349L75.3418 269.528Z" fill="#0E0A01"/>
<path d="M88.6222 163.902L84.0344 168.125L78.8635 219.137L75.3828 259.756L85.9016 261.174L111.415 191.771L130.084 260.845L142.67 261.174L134.316 171.009L88.6222 163.902Z" fill="#0E0A01"/>
<path d="M110.793 88.4719C118.01 88.4719 123.861 82.6212 123.861 75.4039C123.861 68.1867 118.01 62.3359 110.793 62.3359C103.575 62.3359 97.7246 68.1867 97.7246 75.4039C97.7246 82.6212 103.575 88.4719 110.793 88.4719Z" fill="#BE6F46"/>
<path d="M104.104 69.3386C104.104 69.3386 102.546 72.7102 108.778 71.3616C108.778 71.3616 111.115 72.7102 111.115 70.6872C111.115 70.6872 114.231 74.0588 115.01 72.0359C115.789 70.0129 117.347 72.7102 117.347 72.7102L118.905 69.3386L120.463 71.3616H125.916C125.916 71.3616 127.474 57.8751 108.778 59.2237C90.0825 60.5724 99.2797 81.9404 99.2797 81.9404C99.2797 81.9404 99.4303 78.1048 100.988 80.1278C102.546 82.1508 104.104 69.3386 104.104 69.3386Z" fill="#0E0A01"/>
<path d="M120.749 92.7395L102.321 91.5859L85.9001 95.9419L88.3892 138.257L84.0332 168.127C84.0332 168.127 107.933 182.736 135.061 171.238L132.484 164.46C132.484 164.46 132.395 154.085 130.219 152.055C128.042 150.024 128.215 133.279 128.215 133.279L136.305 102.165L120.749 92.7395Z" fill="#989898"/>
<path d="M90.2875 97.2768L85.901 95.9414C85.901 95.9414 79.0693 96.1695 75.5172 103.941C71.965 111.713 69.7441 122.817 69.7441 122.817L92.3052 123.633L90.2875 97.2768Z" fill="#989898"/>
<path d="M142.653 171.459L141.923 125.594L132.176 127.056L134.329 170.51C133.443 171.237 132.79 172.21 132.453 173.305C132.116 174.401 132.11 175.572 132.434 176.672C132.759 177.771 133.4 178.751 134.278 179.488C135.156 180.226 136.231 180.688 137.37 180.818C138.509 180.948 139.661 180.739 140.683 180.218C141.704 179.697 142.549 178.887 143.113 177.889C143.676 176.89 143.933 175.748 143.851 174.604C143.77 173.461 143.353 172.367 142.653 171.459Z" fill="#8A4621"/>
<path d="M130.818 106.16L136.305 102.164C136.305 102.164 146.848 110.41 146.884 128.551L132.176 132.118L123.859 120.157L130.818 106.16Z" fill="#989898"/>
<path d="M426.73 271.725L433.537 271.724L436.775 245.469L426.729 245.469L426.73 271.725Z" fill="#8A4621"/>
<path d="M424.994 269.504L438.4 269.504H438.4C440.666 269.504 442.839 270.404 444.441 272.006C446.043 273.608 446.943 275.781 446.943 278.047V278.324L424.995 278.325L424.994 269.504Z" fill="#0E0A01"/>
<path d="M386.441 265.935L392.931 267.989L403.938 243.932L394.359 240.902L386.441 265.935Z" fill="#8A4621"/>
<path d="M385.455 263.293L398.236 267.336L398.237 267.336C400.397 268.019 402.197 269.533 403.241 271.544C404.286 273.554 404.488 275.897 403.805 278.058L403.722 278.322L382.795 271.703L385.455 263.293Z" fill="#0E0A01"/>
<path d="M401.767 151.812L397.989 162.466L397.882 219.981L387.17 259.359L400.32 263.028L414.845 225.899L419.504 193.285L425.643 226.088L424.798 265.076H438.595L439.637 204.995C439.929 188.122 436.977 171.349 430.94 155.59L401.767 151.812Z" fill="#0E0A01"/>
<path d="M397.268 108.656H419.569L428.886 117.975L431.67 156.491L397.989 161.911L387.17 125.161L393.062 109.542L397.268 108.656Z" fill="white"/>
<path d="M397.268 108.656H419.569L428.886 117.975L431.67 156.491L397.989 161.911L387.17 125.161L393.062 109.542L397.268 108.656Z" fill="url(#paint4_linear_8304_17267)" fill-opacity="0.8"/>
<path d="M397.268 108.656H419.569L428.886 117.975L431.67 156.491L397.989 161.911L387.17 125.161L393.062 109.542L397.268 108.656Z" fill="url(#paint5_linear_8304_17267)" fill-opacity="0.8"/>
<path d="M389.249 125.53L354.913 112.612L354.02 107.272L375.673 88.9492L382.881 94.3549L369.817 108.658L393.063 109.544L389.249 125.53Z" fill="white"/>
<path d="M389.249 125.53L354.913 112.612L354.02 107.272L375.673 88.9492L382.881 94.3549L369.817 108.658L393.063 109.544L389.249 125.53Z" fill="url(#paint6_linear_8304_17267)" fill-opacity="0.8"/>
<path d="M389.249 125.53L354.913 112.612L354.02 107.272L375.673 88.9492L382.881 94.3549L369.817 108.658L393.063 109.544L389.249 125.53Z" fill="url(#paint7_linear_8304_17267)" fill-opacity="0.8"/>
<path d="M379.837 96.4444C382.904 96.4444 385.39 93.9585 385.39 90.8921C385.39 87.8257 382.904 85.3398 379.837 85.3398C376.771 85.3398 374.285 87.8257 374.285 90.8921C374.285 93.9585 376.771 96.4444 379.837 96.4444Z" fill="#8A4621"/>
<path d="M392.715 97.8838L395.224 86.5705C396.119 82.553 398.572 79.0552 402.044 76.8455C405.517 74.6359 409.724 73.8952 413.743 74.7863C417.761 75.6774 421.261 78.1274 423.474 81.5979C425.687 85.0683 426.431 89.2753 425.544 93.2944L423.035 104.608C422.914 105.147 422.585 105.617 422.119 105.915C421.652 106.212 421.087 106.312 420.547 106.192L394.3 100.372C393.76 100.251 393.29 99.9219 392.993 99.4555C392.696 98.9891 392.596 98.4238 392.715 97.8838Z" fill="#0E0A01"/>
<path d="M406.832 102.601C413.12 102.601 418.217 97.5044 418.217 91.2168C418.217 84.9291 413.12 79.832 406.832 79.832C400.544 79.832 395.447 84.9291 395.447 91.2168C395.447 97.5044 400.544 102.601 406.832 102.601Z" fill="#8A4621"/>
<path d="M391.437 86.68C392.146 83.5014 394.086 80.7337 396.833 78.9841C399.58 77.2344 402.908 76.6458 406.089 77.3473L408.351 77.8491C411.53 78.5578 414.298 80.4984 416.047 83.2451C417.797 85.9919 418.385 89.3205 417.684 92.5007L417.634 92.727L412.852 91.6665L412.234 86.738L410.895 91.2325L408.424 90.6845L408.112 88.1978L407.436 90.4655L391.387 86.9063L391.437 86.68Z" fill="#0E0A01"/>
<path d="M402.933 103.624C402.776 103.27 402.722 102.879 402.777 102.496C402.832 102.113 402.995 101.753 403.246 101.458C406.655 97.4295 411.881 89.7469 408.577 83.5617L408.34 83.1172L421.277 85.9861L416.969 105.409L404.757 104.876C404.634 104.871 404.511 104.855 404.39 104.828C404.069 104.757 403.77 104.611 403.516 104.401C403.263 104.192 403.063 103.926 402.933 103.624Z" fill="#0E0A01"/>
<path d="M545.502 279.002H0.661137C0.486134 279.001 0.318472 278.931 0.194905 278.808C0.0713382 278.684 0.00195312 278.516 0.00195312 278.341C0.00195312 278.166 0.0713382 277.998 0.194905 277.874C0.318472 277.75 0.486134 277.68 0.661137 277.68H545.502C545.677 277.68 545.846 277.749 545.969 277.873C546.093 277.997 546.163 278.165 546.163 278.341C546.163 278.516 546.093 278.684 545.969 278.808C545.846 278.932 545.677 279.002 545.502 279.002Z" fill="#CACACA"/>
<path d="M275.37 115.332H99.1882C97.8508 115.332 96.5264 115.595 95.2908 116.107C94.0552 116.619 92.9325 117.369 91.9868 118.315C91.0411 119.261 90.2909 120.383 89.7791 121.619C89.2673 122.855 89.0039 124.179 89.0039 125.516V167.888C89.0039 169.226 89.2673 170.55 89.7791 171.786C90.2909 173.021 91.0411 174.144 91.9868 175.09C92.9325 176.035 94.0552 176.786 95.2908 177.297C96.5264 177.809 97.8508 178.073 99.1882 178.073H101.774V185.728C101.774 186.192 101.912 186.647 102.17 187.033C102.428 187.419 102.795 187.72 103.224 187.898C103.653 188.076 104.125 188.122 104.581 188.031C105.037 187.941 105.455 187.717 105.784 187.389L115.1 178.073H275.37C276.707 178.073 278.032 177.809 279.267 177.297C280.503 176.786 281.626 176.035 282.571 175.09C283.517 174.144 284.267 173.021 284.779 171.786C285.291 170.55 285.554 169.226 285.554 167.888V125.516C285.554 124.179 285.291 122.855 284.779 121.619C284.267 120.383 283.517 119.261 282.571 118.315C281.626 117.369 280.503 116.619 279.267 116.107C278.032 115.595 276.707 115.332 275.37 115.332Z" fill="#DCDCDC"/>
<path d="M232.999 172.797H99.189C97.8873 172.795 96.6394 172.277 95.7189 171.357C94.7985 170.436 94.2808 169.188 94.2793 167.887V125.515C94.2808 124.213 94.7985 122.965 95.7189 122.045C96.6393 121.125 97.8872 120.607 99.1888 120.605H275.371C276.672 120.607 277.92 121.125 278.841 122.045C279.761 122.966 280.279 124.214 280.28 125.515C280.266 138.051 275.28 150.069 266.416 158.933C257.552 167.796 245.534 172.782 232.999 172.797Z" fill="white"/>
<path d="M224.663 129.77H150.263C148.423 129.77 146.932 131.261 146.932 133.101V133.101C146.932 134.941 148.423 136.432 150.263 136.432H224.663C226.503 136.432 227.995 134.941 227.995 133.101C227.995 131.261 226.503 129.77 224.663 129.77Z" fill="white"/>
<path d="M224.663 129.77H150.263C148.423 129.77 146.932 131.261 146.932 133.101V133.101C146.932 134.941 148.423 136.432 150.263 136.432H224.663C226.503 136.432 227.995 134.941 227.995 133.101C227.995 131.261 226.503 129.77 224.663 129.77Z" fill="url(#paint8_diamond_8304_17267)" fill-opacity="0.8"/>
<path d="M240.489 143.094H134.441C132.601 143.094 131.109 144.585 131.109 146.425V146.425C131.109 148.265 132.601 149.756 134.441 149.756H240.489C242.329 149.756 243.82 148.265 243.82 146.425C243.82 144.585 242.329 143.094 240.489 143.094Z" fill="#252117"/>
<path d="M240.489 156.418H134.441C132.601 156.418 131.109 157.909 131.109 159.749V159.749C131.109 161.589 132.601 163.081 134.441 163.081H240.489C242.329 163.081 243.82 161.589 243.82 159.749C243.82 157.909 242.329 156.418 240.489 156.418Z" fill="#252117"/>
<path d="M526.375 144.836H398.966C397.999 144.836 397.042 145.026 396.148 145.397C395.254 145.767 394.443 146.309 393.759 146.993C393.075 147.677 392.532 148.489 392.162 149.382C391.792 150.276 391.602 151.234 391.602 152.201V182.843C391.602 183.81 391.792 184.768 392.162 185.661C392.532 186.555 393.075 187.367 393.759 188.051C394.443 188.734 395.254 189.277 396.148 189.647C397.042 190.017 397.999 190.208 398.966 190.208H400.837V195.744C400.837 196.08 400.936 196.408 401.123 196.687C401.309 196.967 401.575 197.184 401.885 197.313C402.195 197.441 402.537 197.475 402.866 197.41C403.196 197.344 403.499 197.182 403.736 196.945L410.473 190.208H526.375C527.342 190.208 528.3 190.017 529.193 189.647C530.087 189.277 530.899 188.735 531.583 188.051C532.266 187.367 532.809 186.555 533.179 185.661C533.549 184.768 533.74 183.81 533.74 182.843V152.201C533.74 151.234 533.549 150.276 533.179 149.382C532.809 148.489 532.266 147.677 531.582 146.993C530.899 146.309 530.087 145.767 529.193 145.397C528.3 145.026 527.342 144.836 526.375 144.836Z" fill="#DCDCDC"/>
<path d="M526.376 186.471H398.967C398.006 186.47 397.084 186.088 396.403 185.408C395.723 184.728 395.341 183.805 395.34 182.844V152.202C395.341 151.24 395.723 150.318 396.403 149.638C397.084 148.958 398.006 148.575 398.967 148.574H495.734C504.82 148.585 513.53 152.198 519.955 158.623C526.379 165.048 529.993 173.758 530.003 182.844C530.002 183.805 529.619 184.728 528.939 185.408C528.259 186.088 527.337 186.47 526.376 186.471Z" fill="white"/>
<path d="M489.707 155.273H435.903C434.573 155.273 433.494 156.352 433.494 157.683C433.494 159.013 434.573 160.092 435.903 160.092H489.707C491.037 160.092 492.116 159.013 492.116 157.683C492.116 156.352 491.037 155.273 489.707 155.273Z" fill="white"/>
<path d="M489.707 155.273H435.903C434.573 155.273 433.494 156.352 433.494 157.683C433.494 159.013 434.573 160.092 435.903 160.092H489.707C491.037 160.092 492.116 159.013 492.116 157.683C492.116 156.352 491.037 155.273 489.707 155.273Z" fill="url(#paint9_diamond_8304_17267)" fill-opacity="0.8"/>
<path d="M501.15 164.91H424.46C423.129 164.91 422.051 165.989 422.051 167.319C422.051 168.65 423.129 169.728 424.46 169.728H501.15C502.481 169.728 503.559 168.65 503.559 167.319C503.559 165.989 502.481 164.91 501.15 164.91Z" fill="#252117"/>
<path d="M501.15 174.547H424.46C423.129 174.547 422.051 175.625 422.051 176.956C422.051 178.287 423.129 179.365 424.46 179.365H501.15C502.481 179.365 503.559 178.287 503.559 176.956C503.559 175.625 502.481 174.547 501.15 174.547Z" fill="#252117"/>
<path d="M254.609 37.1211H382.017C382.985 37.1211 383.942 37.3116 384.836 37.6817C385.729 38.0518 386.541 38.5943 387.225 39.2782C387.909 39.9621 388.452 40.774 388.822 41.6676C389.192 42.5611 389.382 43.5188 389.382 44.486V75.128C389.382 76.0952 389.192 77.0529 388.822 77.9464C388.452 78.84 387.909 79.6519 387.225 80.3358C386.541 81.0197 385.729 81.5622 384.836 81.9323C383.942 82.3024 382.985 82.4929 382.017 82.4929H380.147V88.0289C380.147 88.3648 380.048 88.6932 379.861 88.9725C379.674 89.2518 379.409 89.4695 379.099 89.5981C378.788 89.7266 378.447 89.7603 378.117 89.6947C377.788 89.6292 377.485 89.4674 377.248 89.2299L370.511 82.4929H254.609C253.642 82.4929 252.684 82.3024 251.791 81.9323C250.897 81.5622 250.085 81.0197 249.401 80.3358C248.717 79.6519 248.175 78.84 247.805 77.9464C247.435 77.0529 247.244 76.0952 247.244 75.128V44.486C247.244 43.5188 247.435 42.5611 247.805 41.6676C248.175 40.774 248.717 39.9621 249.401 39.2782C250.085 38.5943 250.897 38.0518 251.791 37.6817C252.684 37.3116 253.642 37.1211 254.609 37.1211Z" fill="#DCDCDC"/>
<path d="M382.016 78.7561H285.25C276.164 78.7458 267.454 75.1321 261.029 68.7076C254.605 62.2832 250.991 53.5727 250.98 44.4871C250.982 43.5253 251.364 42.6033 252.044 41.9232C252.724 41.2431 253.646 40.8605 254.608 40.8594H382.016C382.978 40.8604 383.9 41.243 384.58 41.923C385.26 42.603 385.643 43.5251 385.644 44.4868V75.1286C385.643 76.0904 385.26 77.0124 384.58 77.6924C383.9 78.3725 382.978 78.755 382.016 78.7561Z" fill="white"/>
<path d="M291.277 52.3789L345.081 52.3789C346.412 52.3789 347.49 51.3003 347.49 49.9698C347.49 48.6393 346.412 47.5607 345.081 47.5607L291.277 47.5607C289.947 47.5607 288.868 48.6393 288.868 49.9698C288.868 51.3003 289.947 52.3789 291.277 52.3789Z" fill="white"/>
<path d="M291.277 52.3789L345.081 52.3789C346.412 52.3789 347.49 51.3003 347.49 49.9698C347.49 48.6393 346.412 47.5607 345.081 47.5607L291.277 47.5607C289.947 47.5607 288.868 48.6393 288.868 49.9698C288.868 51.3003 289.947 52.3789 291.277 52.3789Z" fill="url(#paint10_diamond_8304_17267)" fill-opacity="0.8"/>
<path d="M279.834 62.0156L356.524 62.0156C357.855 62.0156 358.934 60.937 358.934 59.6065C358.934 58.276 357.855 57.1974 356.524 57.1974L279.834 57.1974C278.504 57.1974 277.425 58.276 277.425 59.6065C277.425 60.937 278.504 62.0156 279.834 62.0156Z" fill="#252117"/>
<path d="M279.834 71.6523L356.524 71.6523C357.855 71.6523 358.934 70.5737 358.934 69.2432C358.934 67.9127 357.855 66.8341 356.524 66.8341L279.834 66.8341C278.504 66.8341 277.425 67.9127 277.425 69.2432C277.425 70.5737 278.504 71.6523 279.834 71.6523Z" fill="#252117"/>
<path d="M107.778 114.486C107.778 112.94 107.164 111.457 106.07 110.364C104.977 109.27 103.494 108.656 101.948 108.656C100.402 108.656 98.9189 109.27 97.8256 110.364C96.7322 111.457 96.118 112.94 96.118 114.486C96.118 114.543 96.1248 114.598 96.1264 114.655L85.9016 124.88L86.6792 123.092L75.0194 122.537L73.3185 134.847C73.1695 135.984 73.3769 137.139 73.9122 138.152C74.4476 139.166 75.2843 139.988 76.307 140.506C77.3297 141.023 78.4878 141.21 79.6215 141.042C80.7552 140.873 81.8086 140.356 82.6361 139.563L102.791 120.248C104.176 120.047 105.441 119.353 106.357 118.296C107.273 117.238 107.777 115.885 107.778 114.486Z" fill="#BE6F46"/>
<path d="M418.682 108.891L455.001 114.055L457.032 119.074L439.868 141.657L431.66 137.943L441.309 121.147L418.426 125.324L418.682 108.891Z" fill="white"/>
<path d="M418.682 108.891L455.001 114.055L457.032 119.074L439.868 141.657L431.66 137.943L441.309 121.147L418.426 125.324L418.682 108.891Z" fill="url(#paint11_linear_8304_17267)" fill-opacity="0.8"/>
<path d="M418.682 108.891L455.001 114.055L457.032 119.074L439.868 141.657L431.66 137.943L441.309 121.147L418.426 125.324L418.682 108.891Z" fill="url(#paint12_linear_8304_17267)" fill-opacity="0.8"/>
<path d="M434.806 148.081C437.873 148.081 440.358 145.595 440.358 142.529C440.358 139.462 437.873 136.977 434.806 136.977C431.74 136.977 429.254 139.462 429.254 142.529C429.254 145.595 431.74 148.081 434.806 148.081Z" fill="#8A4621"/>
</g>
<defs>
<linearGradient id="paint0_linear_8304_17267" x1="289.47" y1="176.582" x2="270.68" y2="169.096" gradientUnits="userSpaceOnUse">
<stop stop-color="#252117"/>
<stop offset="1" stop-opacity="0"/>
</linearGradient>
<linearGradient id="paint1_linear_8304_17267" x1="278.584" y1="149.254" x2="297.278" y2="156.845" gradientUnits="userSpaceOnUse">
<stop offset="0.484375" stop-color="#4BAA73"/>
<stop offset="1" stop-opacity="0"/>
</linearGradient>
<linearGradient id="paint2_linear_8304_17267" x1="322.061" y1="174.926" x2="300.706" y2="164.218" gradientUnits="userSpaceOnUse">
<stop stop-color="#252117"/>
<stop offset="1" stop-opacity="0"/>
</linearGradient>
<linearGradient id="paint3_linear_8304_17267" x1="308.699" y1="148.277" x2="329.891" y2="159.11" gradientUnits="userSpaceOnUse">
<stop offset="0.484375" stop-color="#4BAA73"/>
<stop offset="1" stop-opacity="0"/>
</linearGradient>
<linearGradient id="paint4_linear_8304_17267" x1="431.67" y1="161.911" x2="379.263" y2="118.119" gradientUnits="userSpaceOnUse">
<stop stop-color="#252117"/>
<stop offset="1" stop-opacity="0"/>
</linearGradient>
<linearGradient id="paint5_linear_8304_17267" x1="387.17" y1="108.656" x2="438.755" y2="152.599" gradientUnits="userSpaceOnUse">
<stop offset="0.484375" stop-color="#4BAA73"/>
<stop offset="1" stop-opacity="0"/>
</linearGradient>
<linearGradient id="paint6_linear_8304_17267" x1="393.063" y1="125.53" x2="356.559" y2="86.57" gradientUnits="userSpaceOnUse">
<stop stop-color="#252117"/>
<stop offset="1" stop-opacity="0"/>
</linearGradient>
<linearGradient id="paint7_linear_8304_17267" x1="354.02" y1="88.9492" x2="389.783" y2="127.861" gradientUnits="userSpaceOnUse">
<stop offset="0.484375" stop-color="#4BAA73"/>
<stop offset="1" stop-opacity="0"/>
</linearGradient>
<radialGradient id="paint8_diamond_8304_17267" cx="0" cy="0" r="1" gradientUnits="userSpaceOnUse" gradientTransform="translate(186.691 133.101) rotate(4.78947) scale(39.899 13.5392)">
<stop stop-color="#4BAA73"/>
<stop offset="1" stop-color="#F0F5F3"/>
</radialGradient>
<radialGradient id="paint9_diamond_8304_17267" cx="0" cy="0" r="1" gradientUnits="userSpaceOnUse" gradientTransform="translate(462.247 157.683) rotate(4.78949) scale(28.8535 9.79108)">
<stop stop-color="#4BAA73"/>
<stop offset="1" stop-color="#F0F5F3"/>
</radialGradient>
<radialGradient id="paint10_diamond_8304_17267" cx="0" cy="0" r="1" gradientUnits="userSpaceOnUse" gradientTransform="translate(318.737 49.9698) rotate(-175.211) scale(28.8535 9.79107)">
<stop stop-color="#4BAA73"/>
<stop offset="1" stop-color="#F0F5F3"/>
</radialGradient>
<linearGradient id="paint11_linear_8304_17267" x1="457.032" y1="141.657" x2="424.702" y2="103.564" gradientUnits="userSpaceOnUse">
<stop stop-color="#252117"/>
<stop offset="1" stop-opacity="0"/>
</linearGradient>
<linearGradient id="paint12_linear_8304_17267" x1="418.426" y1="108.891" x2="450.042" y2="146.865" gradientUnits="userSpaceOnUse">
<stop offset="0.484375" stop-color="#4BAA73"/>
<stop offset="1" stop-opacity="0"/>
</linearGradient>
<clipPath id="clip0_8304_17267">
<rect width="546.163" height="279" fill="white"/>
</clipPath>
</defs>
</svg>
