<svg width="343" height="250" viewBox="0 0 343 250" fill="none" xmlns="http://www.w3.org/2000/svg">
<path d="M328.332 151.478C328.047 162.109 326.266 172.647 323.042 182.782C322.968 183.017 322.891 183.249 322.814 183.484H303.072C303.093 183.273 303.114 183.038 303.135 182.782C304.452 167.649 312.041 75.5474 302.967 59.7969C303.76 61.0746 329.862 103.394 328.332 151.478Z" fill="#F0F0F0"/>
<path d="M326.852 182.784C326.687 183.019 326.515 183.254 326.339 183.486H311.529C311.642 183.286 311.771 183.051 311.922 182.784C314.369 178.368 321.611 165.166 328.333 151.48C335.557 136.772 342.184 121.506 341.626 115.98C341.798 117.227 346.797 155.215 326.852 182.784Z" fill="#F0F0F0"/>
<path d="M40.0314 0C30.9574 15.7505 38.5466 107.852 39.8629 122.985C39.884 123.241 39.905 123.476 39.9261 123.687H20.1845C20.1072 123.452 20.03 123.22 19.9563 122.985C16.7317 112.85 14.9509 102.312 14.6663 91.6806C13.1359 43.5972 39.238 1.27773 40.0314 0Z" fill="#F0F0F0"/>
<path d="M1.37263 56.1797C0.81447 61.7048 7.44184 76.9709 14.6659 91.6788C21.3881 105.365 28.6297 118.567 31.0763 122.983C31.2273 123.25 31.3571 123.485 31.4695 123.685H16.6597C16.4842 123.454 16.3122 123.218 16.1472 122.983C-3.79803 95.4137 1.20058 57.4258 1.37263 56.1797Z" fill="#F0F0F0"/>
<path d="M322.719 183.066H197.877C196.903 183.065 195.97 182.678 195.282 181.989C194.593 181.301 194.206 180.368 194.205 179.394V16.7851C194.206 15.8116 194.593 14.8783 195.282 14.19C195.97 13.5016 196.903 13.1144 197.877 13.1133H322.719C323.692 13.1144 324.625 13.5016 325.314 14.1899C326.002 14.8783 326.389 15.8116 326.39 16.7851V179.394C326.389 180.368 326.002 181.301 325.314 181.989C324.625 182.678 323.692 183.065 322.719 183.066ZM197.877 14.1624C197.182 14.1632 196.515 14.4398 196.023 14.9315C195.532 15.4231 195.255 16.0898 195.254 16.7851V179.394C195.255 180.089 195.532 180.756 196.023 181.248C196.515 181.739 197.182 182.016 197.877 182.017H322.719C323.414 182.016 324.081 181.739 324.572 181.248C325.064 180.756 325.341 180.089 325.341 179.394V16.7851C325.341 16.0898 325.064 15.4231 324.572 14.9315C324.081 14.4398 323.414 14.1632 322.719 14.1624H197.877Z" fill="#E6E6E6"/>
<path d="M284.54 84.3452H231.56C230.587 84.344 229.654 83.9568 228.965 83.2685C228.277 82.5801 227.89 81.6468 227.889 80.6734V39.2343C227.89 38.2608 228.277 37.3275 228.965 36.6392C229.654 35.9508 230.587 35.5636 231.56 35.5625H284.54C285.513 35.5636 286.446 35.9508 287.135 36.6392C287.823 37.3275 288.21 38.2608 288.211 39.2343V80.6734C288.21 81.6468 287.823 82.5801 287.135 83.2685C286.446 83.9568 285.513 84.344 284.54 84.3452Z" fill="#E6E6E6"/>
<path d="M284.428 153.689H231.449C230.476 153.688 229.542 153.301 228.854 152.612C228.166 151.924 227.778 150.991 227.777 150.017V108.578C227.778 107.605 228.166 106.671 228.854 105.983C229.542 105.295 230.476 104.907 231.449 104.906H284.428C285.402 104.907 286.335 105.295 287.023 105.983C287.712 106.671 288.099 107.605 288.1 108.578V150.017C288.099 150.991 287.712 151.924 287.023 152.612C286.335 153.301 285.402 153.688 284.428 153.689ZM231.449 105.955C230.754 105.956 230.087 106.233 229.596 106.724C229.104 107.216 228.827 107.883 228.826 108.578V150.017C228.827 150.712 229.104 151.379 229.596 151.871C230.087 152.362 230.754 152.639 231.449 152.64H284.428C285.124 152.639 285.79 152.362 286.282 151.871C286.774 151.379 287.05 150.712 287.051 150.017V108.578C287.05 107.883 286.774 107.216 286.282 106.724C285.79 106.233 285.124 105.956 284.428 105.955H231.449Z" fill="#252117"/>
<path d="M299.114 165.232H246.135C245.161 165.231 244.228 164.844 243.54 164.155C242.851 163.467 242.464 162.534 242.463 161.56V120.121C242.464 119.148 242.851 118.214 243.54 117.526C244.228 116.838 245.161 116.45 246.135 116.449H299.114C300.087 116.45 301.02 116.838 301.709 117.526C302.397 118.214 302.784 119.148 302.786 120.121V161.56C302.784 162.534 302.397 163.467 301.709 164.155C301.02 164.844 300.087 165.231 299.114 165.232Z" fill="white"/>
<path d="M299.114 165.232H246.135C245.161 165.231 244.228 164.844 243.54 164.155C242.851 163.467 242.464 162.534 242.463 161.56V120.121C242.464 119.148 242.851 118.214 243.54 117.526C244.228 116.838 245.161 116.45 246.135 116.449H299.114C300.087 116.45 301.02 116.838 301.709 117.526C302.397 118.214 302.784 119.148 302.786 120.121V161.56C302.784 162.534 302.397 163.467 301.709 164.155C301.02 164.844 300.087 165.231 299.114 165.232Z" fill="url(#paint0_diamond_8304_17868)" fill-opacity="0.8"/>
<path d="M278.569 153.095H251.972C251.939 153.096 251.906 153.093 251.873 153.088L264.452 131.299C264.529 131.163 264.64 131.05 264.775 130.972C264.91 130.893 265.063 130.852 265.219 130.852C265.375 130.852 265.528 130.893 265.663 130.972C265.797 131.05 265.909 131.163 265.985 131.299L274.428 145.921L274.832 146.62L278.569 153.095Z" fill="white"/>
<path opacity="0.2" d="M278.569 153.097H269.488L273.946 146.622L274.267 146.155L274.427 145.922L274.831 146.622L278.569 153.097Z" fill="black"/>
<path d="M293.377 153.096H270.373L274.831 146.621L275.152 146.155L280.961 137.716C281.063 137.587 281.192 137.482 281.338 137.406C281.485 137.33 281.645 137.285 281.81 137.276C281.974 137.266 282.139 137.291 282.293 137.349C282.448 137.407 282.588 137.496 282.705 137.612C282.735 137.645 282.763 137.68 282.789 137.716L293.377 153.096Z" fill="white"/>
<path d="M292.301 131.216C294.478 131.216 296.242 129.452 296.242 127.276C296.242 125.1 294.478 123.336 292.301 123.336C290.125 123.336 288.361 125.1 288.361 127.276C288.361 129.452 290.125 131.216 292.301 131.216Z" fill="white"/>
<path d="M143.658 183.017H18.8163C17.8429 183.016 16.9096 182.629 16.2212 181.94C15.5329 181.252 15.1457 180.319 15.1445 179.345V137.906C15.1457 136.933 15.5329 135.999 16.2212 135.311C16.9096 134.623 17.8429 134.236 18.8163 134.234H143.658C144.632 134.236 145.565 134.623 146.253 135.311C146.941 135.999 147.329 136.933 147.33 137.906V179.345C147.329 180.319 146.941 181.252 146.253 181.94C145.565 182.629 144.632 183.016 143.658 183.017Z" fill="#E6E6E6"/>
<path d="M143.133 123.745H18.291C17.3175 123.744 16.3842 123.356 15.6958 122.668C15.0075 121.98 14.6203 121.047 14.6191 120.073V18.8359C14.6202 17.8624 15.0074 16.9291 15.6958 16.2407C16.3842 15.5524 17.3175 15.1652 18.291 15.1641H143.133C144.106 15.1652 145.039 15.5524 145.728 16.2408C146.416 16.9291 146.803 17.8624 146.804 18.8359V120.073C146.803 121.046 146.416 121.98 145.728 122.668C145.039 123.356 144.106 123.744 143.133 123.745ZM18.291 16.2132C17.5956 16.214 16.929 16.4906 16.4373 16.9822C15.9456 17.4739 15.669 18.1405 15.6682 18.8359V120.073C15.669 120.768 15.9456 121.435 16.4373 121.927C16.929 122.418 17.5956 122.695 18.291 122.696H143.133C143.828 122.695 144.495 122.418 144.986 121.927C145.478 121.435 145.755 120.768 145.755 120.073V18.8359C145.755 18.1405 145.478 17.4739 144.986 16.9822C144.495 16.4906 143.828 16.214 143.133 16.2132H18.291Z" fill="#252117"/>
<path d="M163.59 142.104H38.748C37.7745 142.103 36.8413 141.716 36.1529 141.027C35.4646 140.339 35.0774 139.406 35.0762 138.432V37.1953C35.0773 36.2218 35.4645 35.2885 36.1529 34.6001C36.8412 33.9118 37.7745 33.5246 38.748 33.5234H163.59C164.563 33.5246 165.496 33.9118 166.185 34.6001C166.873 35.2885 167.26 36.2218 167.261 37.1953V138.432C167.26 139.406 166.873 140.339 166.185 141.027C165.496 141.716 164.563 142.103 163.59 142.104Z" fill="white"/>
<path d="M163.59 142.104H38.748C37.7745 142.103 36.8413 141.716 36.1529 141.027C35.4646 140.339 35.0774 139.406 35.0762 138.432V37.1953C35.0773 36.2218 35.4645 35.2885 36.1529 34.6001C36.8412 33.9118 37.7745 33.5246 38.748 33.5234H163.59C164.563 33.5246 165.496 33.9118 166.185 34.6001C166.873 35.2885 167.26 36.2218 167.261 37.1953V138.432C167.26 139.406 166.873 140.339 166.185 141.027C165.496 141.716 164.563 142.103 163.59 142.104Z" fill="url(#paint1_diamond_8304_17868)" fill-opacity="0.8"/>
<path d="M115.413 117.186H51.6776C51.5978 117.187 51.5181 117.181 51.4395 117.167L81.5832 64.9542C81.7672 64.629 82.0342 64.3584 82.3569 64.1702C82.6797 63.982 83.0466 63.8828 83.4202 63.8828C83.7938 63.8828 84.1607 63.982 84.4835 64.1702C84.8062 64.3584 85.0732 64.629 85.2572 64.9542L105.487 99.9933L106.457 101.67L115.413 117.186Z" fill="white"/>
<path opacity="0.2" d="M115.411 117.185H93.6504L104.333 101.669L105.102 100.551L105.486 99.9922L106.456 101.669L115.411 117.185Z" fill="black"/>
<path d="M150.899 117.186H95.7734L106.456 101.67L107.224 100.552L121.144 80.3309C121.391 80.022 121.699 79.7683 122.049 79.5864C122.4 79.4044 122.785 79.2981 123.179 79.2746C123.573 79.251 123.968 79.3106 124.338 79.4495C124.708 79.5885 125.044 79.8036 125.325 80.081C125.397 80.16 125.464 80.2434 125.526 80.3309L150.899 117.186Z" fill="white"/>
<path d="M147.12 63.6844C152.334 63.6844 156.561 59.4572 156.561 54.2426C156.561 49.028 152.334 44.8008 147.12 44.8008C141.905 44.8008 137.678 49.028 137.678 54.2426C137.678 59.4572 141.905 63.6844 147.12 63.6844Z" fill="white"/>
<path d="M190.21 136.818C191.061 136.35 192.048 136.194 193.002 136.375L207.962 122.395L205.479 109.93L215.301 110.462L216.179 125.592L196.388 141.005C196.301 141.719 196.032 142.398 195.607 142.978C195.182 143.557 194.616 144.018 193.961 144.316C193.307 144.614 192.587 144.738 191.871 144.678C191.155 144.617 190.466 144.374 189.871 143.97C189.276 143.567 188.794 143.018 188.473 142.375C188.151 141.732 188 141.017 188.034 140.299C188.068 139.581 188.286 138.884 188.667 138.275C189.048 137.665 189.579 137.164 190.21 136.818L190.21 136.818Z" fill="#BE6F46"/>
<path d="M173.691 242.047H167.26L164.201 217.242H173.692L173.691 242.047Z" fill="#BE6F46"/>
<path d="M175.331 248.283L154.596 248.282V248.02C154.596 245.88 155.446 243.827 156.96 242.313C158.473 240.8 160.526 239.949 162.667 239.949H162.667L175.332 239.95L175.331 248.283Z" fill="#0E0A01"/>
<path d="M221.949 242.047H215.518L212.459 217.242H221.95L221.949 242.047Z" fill="#BE6F46"/>
<path d="M223.589 248.283L202.854 248.282V248.02C202.854 245.88 203.704 243.827 205.218 242.313C206.731 240.8 208.784 239.949 210.924 239.949H210.925L223.59 239.95L223.589 248.283Z" fill="#0E0A01"/>
<path d="M210.221 102.589C209.445 101.609 208.343 100.938 207.116 100.699C205.889 100.459 204.616 100.666 203.528 101.283C202.453 101.892 201.627 102.862 201.198 104.021C200.768 105.181 200.762 106.454 201.181 107.617L204.334 116.377L217.25 111.469L210.221 102.589Z" fill="white"/>
<path d="M210.221 102.589C209.445 101.609 208.343 100.938 207.116 100.699C205.889 100.459 204.616 100.666 203.528 101.283C202.453 101.892 201.627 102.862 201.198 104.021C200.768 105.181 200.762 106.454 201.181 107.617L204.334 116.377L217.25 111.469L210.221 102.589Z" fill="url(#paint2_linear_8304_17868)" fill-opacity="0.8"/>
<path d="M210.221 102.589C209.445 101.609 208.343 100.938 207.116 100.699C205.889 100.459 204.616 100.666 203.528 101.283C202.453 101.892 201.627 102.862 201.198 104.021C200.768 105.181 200.762 106.454 201.181 107.617L204.334 116.377L217.25 111.469L210.221 102.589Z" fill="url(#paint3_linear_8304_17868)" fill-opacity="0.8"/>
<path d="M209.06 141.275C208.472 140.834 207.84 140.456 207.175 140.145L183.667 143.761L184.184 158.485C172.814 179.946 165.296 204.428 161.193 231.591L175.918 234.949C182.506 209.425 189.99 186.521 199.425 169.335L209.371 234.328L226.291 233.915C224.062 195.708 222.343 151.167 209.06 141.275Z" fill="#0E0A01"/>
<path d="M191.516 98.8915C196.576 98.8915 200.679 94.7893 200.679 89.729C200.679 84.6686 196.576 80.5664 191.516 80.5664C186.456 80.5664 182.354 84.6686 182.354 89.729C182.354 94.7893 186.456 98.8915 191.516 98.8915Z" fill="#BE6F46"/>
<path d="M211.664 113.273C212.083 110.739 211.671 108.137 210.49 105.857C209.308 103.577 207.42 101.74 205.108 100.621L194.775 101.138C193.093 101.573 191.533 102.387 190.213 103.517C188.893 104.646 187.848 106.062 187.157 107.657C182.679 118.139 182.041 131.541 183.926 146.861L208.4 141.039C205.044 133.481 207.742 123.611 211.664 113.273Z" fill="white"/>
<path d="M211.664 113.273C212.083 110.739 211.671 108.137 210.49 105.857C209.308 103.577 207.42 101.74 205.108 100.621L194.775 101.138C193.093 101.573 191.533 102.387 190.213 103.517C188.893 104.646 187.848 106.062 187.157 107.657C182.679 118.139 182.041 131.541 183.926 146.861L208.4 141.039C205.044 133.481 207.742 123.611 211.664 113.273Z" fill="url(#paint4_linear_8304_17868)" fill-opacity="0.8"/>
<path d="M211.664 113.273C212.083 110.739 211.671 108.137 210.49 105.857C209.308 103.577 207.42 101.74 205.108 100.621L194.775 101.138C193.093 101.573 191.533 102.387 190.213 103.517C188.893 104.646 187.848 106.062 187.157 107.657C182.679 118.139 182.041 131.541 183.926 146.861L208.4 141.039C205.044 133.481 207.742 123.611 211.664 113.273Z" fill="url(#paint5_linear_8304_17868)" fill-opacity="0.8"/>
<path d="M180.154 87.4931V87.4931C180.154 86.2532 180.399 85.0254 180.873 83.8799C181.348 82.7343 182.043 81.6935 182.92 80.8167C183.797 79.94 184.837 79.2445 185.983 78.77C187.128 78.2955 188.356 78.0513 189.596 78.0513H190.138C191.848 76.6915 193.968 75.9518 196.153 75.9531C198.727 75.9531 201.195 76.9755 203.015 78.7954C204.835 80.6152 205.857 83.0835 205.857 85.6572V97.984C199.583 97.8277 192.477 99.0645 184.875 101.131C186.791 95.8241 188.064 90.945 187.195 87.4931H180.154Z" fill="#0E0A01"/>
<path d="M160.747 129.981C161.718 129.98 162.66 130.317 163.409 130.934L183.247 125.863L187.059 113.738L195.417 118.925L188.916 132.616L164.154 136.622C163.734 137.206 163.172 137.672 162.521 137.977C161.87 138.281 161.151 138.413 160.434 138.359C159.718 138.306 159.026 138.069 158.427 137.672C157.828 137.275 157.341 136.73 157.013 136.091C156.685 135.451 156.527 134.738 156.554 134.02C156.581 133.301 156.791 132.602 157.166 131.989C157.541 131.375 158.067 130.869 158.694 130.517C159.321 130.166 160.028 129.981 160.747 129.981Z" fill="#BE6F46"/>
<path d="M199.424 110.063C199.782 108.865 199.7 107.578 199.193 106.435C198.686 105.292 197.787 104.368 196.658 103.83C195.542 103.298 194.274 103.178 193.078 103.491C191.882 103.803 190.835 104.528 190.122 105.538L184.752 113.143L196.178 120.913L199.424 110.063Z" fill="white"/>
<path d="M199.424 110.063C199.782 108.865 199.7 107.578 199.193 106.435C198.686 105.292 197.787 104.368 196.658 103.83C195.542 103.298 194.274 103.178 193.078 103.491C191.882 103.803 190.835 104.528 190.122 105.538L184.752 113.143L196.178 120.913L199.424 110.063Z" fill="url(#paint6_linear_8304_17868)" fill-opacity="0.8"/>
<path d="M199.424 110.063C199.782 108.865 199.7 107.578 199.193 106.435C198.686 105.292 197.787 104.368 196.658 103.83C195.542 103.298 194.274 103.178 193.078 103.491C191.882 103.803 190.835 104.528 190.122 105.538L184.752 113.143L196.178 120.913L199.424 110.063Z" fill="url(#paint7_linear_8304_17868)" fill-opacity="0.8"/>
<path d="M250.447 249.151H122.304C122.222 249.152 122.141 249.136 122.065 249.104C121.989 249.073 121.92 249.027 121.861 248.969C121.803 248.911 121.757 248.842 121.725 248.766C121.694 248.69 121.678 248.609 121.678 248.527C121.678 248.445 121.694 248.363 121.725 248.287C121.757 248.212 121.803 248.143 121.861 248.085C121.92 248.027 121.989 247.981 122.065 247.949C122.141 247.918 122.222 247.902 122.304 247.902H250.447C250.529 247.902 250.611 247.918 250.687 247.949C250.763 247.981 250.832 248.027 250.89 248.085C250.948 248.143 250.994 248.212 251.026 248.287C251.057 248.363 251.074 248.445 251.074 248.527C251.074 248.609 251.057 248.69 251.026 248.766C250.994 248.842 250.948 248.911 250.89 248.969C250.832 249.027 250.763 249.073 250.687 249.104C250.611 249.136 250.529 249.152 250.447 249.151Z" fill="#CACACA"/>
<defs>
<radialGradient id="paint0_diamond_8304_17868" cx="0" cy="0" r="1" gradientUnits="userSpaceOnUse" gradientTransform="translate(272.05 140.841) rotate(39.502) scale(38.3448 76.7573)">
<stop stop-color="#4BAA73"/>
<stop offset="1" stop-color="#F0F5F3"/>
</radialGradient>
<radialGradient id="paint1_diamond_8304_17868" cx="0" cy="0" r="1" gradientUnits="userSpaceOnUse" gradientTransform="translate(99.9102 87.8138) rotate(39.942) scale(84.563 169.76)">
<stop stop-color="#4BAA73"/>
<stop offset="1" stop-color="#F0F5F3"/>
</radialGradient>
<linearGradient id="paint2_linear_8304_17868" x1="217.25" y1="116.377" x2="201.486" y2="100.009" gradientUnits="userSpaceOnUse">
<stop stop-color="#252117"/>
<stop offset="1" stop-opacity="0"/>
</linearGradient>
<linearGradient id="paint3_linear_8304_17868" x1="200.871" y1="100.602" x2="216.324" y2="116.957" gradientUnits="userSpaceOnUse">
<stop offset="0.484375" stop-color="#4BAA73"/>
<stop offset="1" stop-opacity="0"/>
</linearGradient>
<linearGradient id="paint4_linear_8304_17868" x1="211.823" y1="146.861" x2="170.263" y2="120.891" gradientUnits="userSpaceOnUse">
<stop stop-color="#252117"/>
<stop offset="1" stop-opacity="0"/>
</linearGradient>
<linearGradient id="paint5_linear_8304_17868" x1="182.93" y1="100.621" x2="224.045" y2="126.811" gradientUnits="userSpaceOnUse">
<stop offset="0.484375" stop-color="#4BAA73"/>
<stop offset="1" stop-opacity="0"/>
</linearGradient>
<linearGradient id="paint6_linear_8304_17868" x1="199.644" y1="120.913" x2="182.292" y2="106.226" gradientUnits="userSpaceOnUse">
<stop stop-color="#252117"/>
<stop offset="1" stop-opacity="0"/>
</linearGradient>
<linearGradient id="paint7_linear_8304_17868" x1="184.752" y1="103.32" x2="201.827" y2="118.054" gradientUnits="userSpaceOnUse">
<stop offset="0.484375" stop-color="#4BAA73"/>
<stop offset="1" stop-opacity="0"/>
</linearGradient>
</defs>
</svg>
