<svg width="406" height="279" viewBox="0 0 406 279" fill="none" xmlns="http://www.w3.org/2000/svg">
<g clip-path="url(#clip0_8304_16736)">
<path d="M203.001 279C314.595 279 405.06 273.044 405.06 265.697C405.06 258.35 314.595 252.395 203.001 252.395C91.4064 252.395 0.941406 258.35 0.941406 265.697C0.941406 273.044 91.4064 279 203.001 279Z" fill="#0E0A01"/>
<path d="M192.933 96.7163C204.45 96.7163 213.786 88.1849 213.786 77.6609C213.786 67.1369 204.45 58.6055 192.933 58.6055C181.416 58.6055 172.08 67.1369 172.08 77.6609C172.08 88.1849 181.416 96.7163 192.933 96.7163Z" fill="white"/>
<path d="M192.933 96.7163C204.45 96.7163 213.786 88.1849 213.786 77.6609C213.786 67.1369 204.45 58.6055 192.933 58.6055C181.416 58.6055 172.08 67.1369 172.08 77.6609C172.08 88.1849 181.416 96.7163 192.933 96.7163Z" fill="url(#paint0_diamond_8304_16736)" fill-opacity="0.8"/>
<path d="M229.786 252.215C229.786 252.215 185.383 270.012 153.924 252.574L154.215 247.541L156.926 200.801L159.489 156.578L162.553 103.727H221.517L224.35 156.578L226.723 200.801L229.229 247.541L229.786 252.215Z" fill="#0E0A01"/>
<path d="M229.786 252.213C229.786 252.213 188.979 270.37 153.924 252.573L154.215 247.539H229.229L229.786 252.213Z" fill="white"/>
<path d="M229.786 252.213C229.786 252.213 188.979 270.37 153.924 252.573L154.215 247.539H229.229L229.786 252.213Z" fill="url(#paint1_diamond_8304_16736)" fill-opacity="0.8"/>
<path d="M226.723 200.801H156.926L159.489 156.578H224.35L226.723 200.801Z" fill="white"/>
<path d="M226.723 200.801H156.926L159.489 156.578H224.35L226.723 200.801Z" fill="url(#paint2_diamond_8304_16736)" fill-opacity="0.8"/>
<path d="M225.112 97.9727H158.957V105.163H225.112V97.9727Z" fill="#0E0A01"/>
<path d="M225.112 73.8828H158.957V81.0735H225.112V73.8828Z" fill="#0E0A01"/>
<path d="M168.666 81.0742H164.711V99.7701H168.666V81.0742Z" fill="#0E0A01"/>
<path d="M179.092 81.0742H175.137V99.7701H179.092V81.0742Z" fill="#0E0A01"/>
<path d="M189.517 81.0742H185.562V99.7701H189.517V81.0742Z" fill="#0E0A01"/>
<path d="M199.945 81.0742H195.99V99.7701H199.945V81.0742Z" fill="#0E0A01"/>
<path d="M210.371 81.0742H206.416V99.7701H210.371V81.0742Z" fill="#0E0A01"/>
<path d="M179.092 52.4922H175.137V77.1204H179.092V52.4922Z" fill="#0E0A01"/>
<path d="M189.517 52.4922H185.562V77.1204H189.517V52.4922Z" fill="#0E0A01"/>
<path d="M199.945 52.4922H195.99V77.1204H199.945V52.4922Z" fill="#0E0A01"/>
<path d="M210.371 52.4922H206.416V77.1204H210.371V52.4922Z" fill="#0E0A01"/>
<path d="M220.799 81.0742H216.844V99.7701H220.799V81.0742Z" fill="#0E0A01"/>
<path d="M168.846 55.3672H164.891V77.2989H168.846V55.3672Z" fill="#0E0A01"/>
<path d="M220.978 55.3672H217.023V77.2989H220.978V55.3672Z" fill="#0E0A01"/>
<path d="M225.291 59.5021H159.137V37.93L192.214 11.1445L225.291 37.93V59.5021Z" fill="#0E0A01"/>
<g opacity="0.3">
<path d="M192.933 132.921C223.65 132.921 248.551 108.019 248.551 77.3021C248.551 46.5848 223.65 21.6836 192.933 21.6836C162.216 21.6836 137.314 46.5848 137.314 77.3021C137.314 108.019 162.216 132.921 192.933 132.921Z" fill="white"/>
<path d="M192.933 132.921C223.65 132.921 248.551 108.019 248.551 77.3021C248.551 46.5848 223.65 21.6836 192.933 21.6836C162.216 21.6836 137.314 46.5848 137.314 77.3021C137.314 108.019 162.216 132.921 192.933 132.921Z" fill="url(#paint3_diamond_8304_16736)" fill-opacity="0.8"/>
</g>
<g opacity="0.3">
<path d="M192.933 154.601C235.625 154.601 270.233 119.992 270.233 77.3003C270.233 34.6085 235.625 0 192.933 0C150.241 0 115.633 34.6085 115.633 77.3003C115.633 119.992 150.241 154.601 192.933 154.601Z" fill="white"/>
<path d="M192.933 154.601C235.625 154.601 270.233 119.992 270.233 77.3003C270.233 34.6085 235.625 0 192.933 0C150.241 0 115.633 34.6085 115.633 77.3003C115.633 119.992 150.241 154.601 192.933 154.601Z" fill="url(#paint4_diamond_8304_16736)" fill-opacity="0.8"/>
</g>
<path d="M19.425 249.062C21.6085 257.133 29.0876 262.132 29.0876 262.132C29.0876 262.132 33.0265 254.045 30.8429 245.973C28.6594 237.901 21.1804 232.902 21.1804 232.902C21.1804 232.902 17.2415 240.99 19.425 249.062Z" fill="white"/>
<path d="M19.425 249.062C21.6085 257.133 29.0876 262.132 29.0876 262.132C29.0876 262.132 33.0265 254.045 30.8429 245.973C28.6594 237.901 21.1804 232.902 21.1804 232.902C21.1804 232.902 17.2415 240.99 19.425 249.062Z" fill="url(#paint5_linear_8304_16736)" fill-opacity="0.8"/>
<path d="M19.425 249.062C21.6085 257.133 29.0876 262.132 29.0876 262.132C29.0876 262.132 33.0265 254.045 30.8429 245.973C28.6594 237.901 21.1804 232.902 21.1804 232.902C21.1804 232.902 17.2415 240.99 19.425 249.062Z" fill="url(#paint6_linear_8304_16736)" fill-opacity="0.8"/>
<path d="M22.6323 247.327C28.6239 253.16 29.3558 262.126 29.3558 262.126C29.3558 262.126 20.3733 261.635 14.3816 255.803C8.39003 249.97 7.6582 241.004 7.6582 241.004C7.6582 241.004 16.6407 241.494 22.6323 247.327Z" fill="#0E0A01"/>
<path d="M114.828 237.439C111.609 249.339 100.583 256.708 100.583 256.708C100.583 256.708 94.7765 244.785 97.9955 232.886C101.214 220.987 112.24 213.617 112.24 213.617C112.24 213.617 118.047 225.54 114.828 237.439Z" fill="white"/>
<path d="M114.828 237.439C111.609 249.339 100.583 256.708 100.583 256.708C100.583 256.708 94.7765 244.785 97.9955 232.886C101.214 220.987 112.24 213.617 112.24 213.617C112.24 213.617 118.047 225.54 114.828 237.439Z" fill="url(#paint7_linear_8304_16736)" fill-opacity="0.8"/>
<path d="M114.828 237.439C111.609 249.339 100.583 256.708 100.583 256.708C100.583 256.708 94.7765 244.785 97.9955 232.886C101.214 220.987 112.24 213.617 112.24 213.617C112.24 213.617 118.047 225.54 114.828 237.439Z" fill="url(#paint8_linear_8304_16736)" fill-opacity="0.8"/>
<path d="M85.5443 237.439C88.7633 249.339 99.7891 256.708 99.7891 256.708C99.7891 256.708 105.596 244.785 102.377 232.886C99.1578 220.987 88.1321 213.617 88.1321 213.617C88.1321 213.617 82.3254 225.54 85.5443 237.439Z" fill="white"/>
<path d="M85.5443 237.439C88.7633 249.339 99.7891 256.708 99.7891 256.708C99.7891 256.708 105.596 244.785 102.377 232.886C99.1578 220.987 88.1321 213.617 88.1321 213.617C88.1321 213.617 82.3254 225.54 85.5443 237.439Z" fill="url(#paint9_linear_8304_16736)" fill-opacity="0.8"/>
<path d="M85.5443 237.439C88.7633 249.339 99.7891 256.708 99.7891 256.708C99.7891 256.708 105.596 244.785 102.377 232.886C99.1578 220.987 88.1321 213.617 88.1321 213.617C88.1321 213.617 82.3254 225.54 85.5443 237.439Z" fill="url(#paint10_linear_8304_16736)" fill-opacity="0.8"/>
<path d="M90.2742 234.884C99.1072 243.482 100.186 256.7 100.186 256.7C100.186 256.7 86.9439 255.977 78.111 247.379C69.2781 238.78 68.1992 225.562 68.1992 225.562C68.1992 225.562 81.4413 226.286 90.2742 234.884Z" fill="#0E0A01"/>
<path d="M110.097 234.884C101.264 243.482 100.186 256.7 100.186 256.7C100.186 256.7 113.428 255.977 122.261 247.379C131.094 238.78 132.172 225.562 132.172 225.562C132.172 225.562 118.93 226.286 110.097 234.884Z" fill="#0E0A01"/>
<path d="M327.745 131.582C324.91 126.792 319.302 126.569 319.302 126.569C319.302 126.569 313.837 125.87 310.331 133.165C307.064 139.964 302.554 146.529 309.605 148.121L310.879 144.157L311.668 148.416C312.672 148.488 313.679 148.506 314.685 148.468C322.236 148.224 329.428 148.539 329.196 145.829C328.888 142.227 330.473 136.191 327.745 131.582Z" fill="#252117"/>
<path d="M319.866 145.201C323.909 145.201 327.186 141.924 327.186 137.882C327.186 133.839 323.909 130.562 319.866 130.562C315.824 130.562 312.547 133.839 312.547 137.882C312.547 141.924 315.824 145.201 319.866 145.201Z" fill="#A0616A"/>
<path d="M316.873 142.65C316.873 142.65 320.2 150.413 315.764 151.965L320.2 166.604L327.741 166.16L329.737 161.281L329.293 153.961L328.628 149.082C328.628 149.082 323.97 150.191 324.414 141.984L316.873 142.65Z" fill="#A0616A"/>
<path d="M315.097 151.745C315.097 151.745 307.778 151.08 308.443 156.403C309.108 161.726 309.774 162.835 309.774 162.835L310.439 170.82L306.447 173.26H302.676C302.676 173.26 291.143 175.921 296.91 178.805C302.676 181.688 304.673 176.587 304.673 176.587C304.673 176.587 315.319 176.587 315.984 174.812C316.65 173.038 315.097 151.745 315.097 151.745Z" fill="#A0616A"/>
<path d="M329.293 149.527C329.293 149.527 336.169 147.087 336.612 152.41C337.056 157.733 337.056 158.177 337.056 158.177L338.387 165.718C338.387 165.718 341.048 172.372 341.048 174.368C341.048 176.364 343.044 182.575 343.044 182.575C343.044 182.575 345.706 191.225 342.823 191.003C339.939 190.781 339.496 181.687 339.496 181.687L333.507 169.71L331.733 162.391L329.293 149.527Z" fill="#A0616A"/>
<path d="M316.207 150.858H314.432L314.21 160.173C314.21 160.173 311.327 164.166 314.876 167.714L315.763 173.481L331.954 172.816L333.063 166.827C333.063 166.827 335.281 161.948 332.176 157.512L329.293 148.418H327.74C327.74 148.418 331.336 161.677 323.748 161.948C317.537 162.169 316.207 150.858 316.207 150.858Z" fill="white"/>
<path d="M316.207 150.858H314.432L314.21 160.173C314.21 160.173 311.327 164.166 314.876 167.714L315.763 173.481L331.954 172.816L333.063 166.827C333.063 166.827 335.281 161.948 332.176 157.512L329.293 148.418H327.74C327.74 148.418 331.336 161.677 323.748 161.948C317.537 162.169 316.207 150.858 316.207 150.858Z" fill="url(#paint11_linear_8304_16736)" fill-opacity="0.8"/>
<path d="M316.207 150.858H314.432L314.21 160.173C314.21 160.173 311.327 164.166 314.876 167.714L315.763 173.481L331.954 172.816L333.063 166.827C333.063 166.827 335.281 161.948 332.176 157.512L329.293 148.418H327.74C327.74 148.418 331.336 161.677 323.748 161.948C317.537 162.169 316.207 150.858 316.207 150.858Z" fill="url(#paint12_linear_8304_16736)" fill-opacity="0.8"/>
<path d="M316.65 172.373L315.319 176.809C315.319 176.809 287.594 254.882 296.022 256.878C304.451 258.874 316.206 261.536 317.315 259.54C318.424 257.543 324.191 199.211 324.191 199.211C324.191 199.211 323.304 260.205 326.187 260.205C329.07 260.205 348.145 260.649 349.254 257.765C350.363 254.882 339.273 177.696 332.841 175.922L331.066 171.93L316.65 172.373Z" fill="#252117"/>
<path d="M332.62 170.152L315.098 170.818C315.098 170.818 314.298 176.806 315.098 176.806C315.319 176.806 333.507 178.359 333.285 175.697C333.063 173.036 332.62 170.152 332.62 170.152Z" fill="#0E0A01"/>
<path d="M319.989 130.645C322.228 130.645 324.044 128.83 324.044 126.59C324.044 124.351 322.228 122.535 319.989 122.535C317.749 122.535 315.934 124.351 315.934 126.59C315.934 128.83 317.749 130.645 319.989 130.645Z" fill="#252117"/>
<path d="M315.507 125.524C315.507 124.522 315.877 123.556 316.547 122.812C317.217 122.067 318.139 121.597 319.135 121.492C318.569 121.431 317.997 121.491 317.456 121.666C316.915 121.841 316.417 122.128 315.994 122.508C315.571 122.889 315.233 123.354 315.002 123.873C314.77 124.393 314.65 124.955 314.65 125.524C314.65 126.093 314.77 126.655 315.002 127.174C315.233 127.694 315.571 128.159 315.994 128.539C316.417 128.919 316.915 129.206 317.456 129.382C317.997 129.557 318.569 129.616 319.135 129.556C318.139 129.451 317.217 128.98 316.547 128.236C315.877 127.491 315.507 126.525 315.507 125.524Z" fill="#252117"/>
<path d="M326.492 131.117L320.951 128.215L313.3 129.402L311.717 136.394L315.658 136.243L316.759 133.674V136.2L318.577 136.13L319.632 132.041L320.292 136.394L326.756 136.262L326.492 131.117Z" fill="#252117"/>
<path d="M295.313 156.041L293.293 156.652L302.461 186.949L304.48 186.337L295.313 156.041Z" fill="#0E0A01"/>
<path d="M301.312 149.405C301.974 151.596 301.739 153.961 300.658 155.979C299.578 157.997 297.74 159.503 295.549 160.166C293.358 160.829 290.993 160.595 288.975 159.514C286.956 158.434 285.45 156.597 284.786 154.406C283.406 149.842 287.913 134.934 287.913 134.934C287.913 134.934 299.931 144.842 301.312 149.405Z" fill="white"/>
<path d="M301.312 149.405C301.974 151.596 301.739 153.961 300.658 155.979C299.578 157.997 297.74 159.503 295.549 160.166C293.358 160.829 290.993 160.595 288.975 159.514C286.956 158.434 285.45 156.597 284.786 154.406C283.406 149.842 287.913 134.934 287.913 134.934C287.913 134.934 299.931 144.842 301.312 149.405Z" fill="url(#paint13_linear_8304_16736)" fill-opacity="0.8"/>
<path d="M301.312 149.405C301.974 151.596 301.739 153.961 300.658 155.979C299.578 157.997 297.74 159.503 295.549 160.166C293.358 160.829 290.993 160.595 288.975 159.514C286.956 158.434 285.45 156.597 284.786 154.406C283.406 149.842 287.913 134.934 287.913 134.934C287.913 134.934 299.931 144.842 301.312 149.405Z" fill="url(#paint14_linear_8304_16736)" fill-opacity="0.8"/>
<path opacity="0.1" d="M298.794 151.996C299.018 152.735 299.093 153.511 299.017 154.279C298.941 155.047 298.714 155.792 298.35 156.472C297.986 157.153 297.491 157.755 296.894 158.244C296.297 158.733 295.61 159.1 294.871 159.323C294.133 159.547 293.357 159.623 292.589 159.547C291.821 159.47 291.076 159.244 290.395 158.88C289.715 158.515 289.113 158.021 288.624 157.424C288.135 156.827 287.768 156.139 287.544 155.401C286.604 152.294 289.673 142.145 289.673 142.145C289.673 142.145 297.854 148.89 298.794 151.996Z" fill="black"/>
</g>
<defs>
<radialGradient id="paint0_diamond_8304_16736" cx="0" cy="0" r="1" gradientUnits="userSpaceOnUse" gradientTransform="translate(192.536 77.6609) rotate(42.9698) scale(27.9563 56.8656)">
<stop stop-color="#4BAA73"/>
<stop offset="1" stop-color="#F0F5F3"/>
</radialGradient>
<radialGradient id="paint1_diamond_8304_16736" cx="0" cy="0" r="1" gradientUnits="userSpaceOnUse" gradientTransform="translate(191.133 253.965) rotate(9.79781) scale(37.7595 25.824)">
<stop stop-color="#4BAA73"/>
<stop offset="1" stop-color="#F0F5F3"/>
</radialGradient>
<radialGradient id="paint2_diamond_8304_16736" cx="0" cy="0" r="1" gradientUnits="userSpaceOnUse" gradientTransform="translate(191.16 178.69) rotate(32.8582) scale(40.7538 75.7522)">
<stop stop-color="#4BAA73"/>
<stop offset="1" stop-color="#F0F5F3"/>
</radialGradient>
<radialGradient id="paint3_diamond_8304_16736" cx="0" cy="0" r="1" gradientUnits="userSpaceOnUse" gradientTransform="translate(191.874 77.3021) rotate(45.5508) scale(77.9111 158.847)">
<stop stop-color="#4BAA73"/>
<stop offset="1" stop-color="#F0F5F3"/>
</radialGradient>
<radialGradient id="paint4_diamond_8304_16736" cx="0" cy="0" r="1" gradientUnits="userSpaceOnUse" gradientTransform="translate(191.461 77.3003) rotate(45.5508) scale(108.283 220.771)">
<stop stop-color="#4BAA73"/>
<stop offset="1" stop-color="#F0F5F3"/>
</radialGradient>
<linearGradient id="paint5_linear_8304_16736" x1="31.5023" y1="262.132" x2="10.0938" y2="252.804" gradientUnits="userSpaceOnUse">
<stop stop-color="#252117"/>
<stop offset="1" stop-opacity="0"/>
</linearGradient>
<linearGradient id="paint6_linear_8304_16736" x1="18.7656" y1="232.902" x2="40.045" y2="242.355" gradientUnits="userSpaceOnUse">
<stop offset="0.484375" stop-color="#4BAA73"/>
<stop offset="1" stop-opacity="0"/>
</linearGradient>
<linearGradient id="paint7_linear_8304_16736" x1="115.8" y1="256.708" x2="84.2393" y2="242.956" gradientUnits="userSpaceOnUse">
<stop stop-color="#252117"/>
<stop offset="1" stop-opacity="0"/>
</linearGradient>
<linearGradient id="paint8_linear_8304_16736" x1="97.0234" y1="213.617" x2="128.394" y2="227.552" gradientUnits="userSpaceOnUse">
<stop offset="0.484375" stop-color="#4BAA73"/>
<stop offset="1" stop-opacity="0"/>
</linearGradient>
<linearGradient id="paint9_linear_8304_16736" x1="103.349" y1="256.708" x2="71.7881" y2="242.956" gradientUnits="userSpaceOnUse">
<stop stop-color="#252117"/>
<stop offset="1" stop-opacity="0"/>
</linearGradient>
<linearGradient id="paint10_linear_8304_16736" x1="84.5723" y1="213.617" x2="115.943" y2="227.552" gradientUnits="userSpaceOnUse">
<stop offset="0.484375" stop-color="#4BAA73"/>
<stop offset="1" stop-opacity="0"/>
</linearGradient>
<linearGradient id="paint11_linear_8304_16736" x1="333.831" y1="173.481" x2="309.214" y2="153.125" gradientUnits="userSpaceOnUse">
<stop stop-color="#252117"/>
<stop offset="1" stop-opacity="0"/>
</linearGradient>
<linearGradient id="paint12_linear_8304_16736" x1="313.105" y1="148.418" x2="337.341" y2="168.848" gradientUnits="userSpaceOnUse">
<stop offset="0.484375" stop-color="#4BAA73"/>
<stop offset="1" stop-opacity="0"/>
</linearGradient>
<linearGradient id="paint13_linear_8304_16736" x1="301.681" y1="160.536" x2="278.001" y2="144.667" gradientUnits="userSpaceOnUse">
<stop stop-color="#252117"/>
<stop offset="1" stop-opacity="0"/>
</linearGradient>
<linearGradient id="paint14_linear_8304_16736" x1="284.523" y1="134.934" x2="307.924" y2="150.92" gradientUnits="userSpaceOnUse">
<stop offset="0.484375" stop-color="#4BAA73"/>
<stop offset="1" stop-opacity="0"/>
</linearGradient>
<clipPath id="clip0_8304_16736">
<rect width="404.119" height="279" fill="white" transform="translate(0.941406)"/>
</clipPath>
</defs>
</svg>
