<svg width="32" height="32" viewBox="0 0 32 32" fill="none" xmlns="http://www.w3.org/2000/svg">
<circle cx="16" cy="16" r="16" fill="#F9F9F9"/>
<path d="M20.5 23.5C21.3284 23.5 22 22.8284 22 22C22 21.1716 21.3284 20.5 20.5 20.5C19.6716 20.5 19 21.1716 19 22C19 22.8284 19.6716 23.5 20.5 23.5Z" fill="#4BAA73"/>
<path d="M26.3328 21.6093C25.8694 20.4287 25.0698 19.41 24.033 18.6796C22.9961 17.9491 21.7678 17.539 20.5001 17.5C19.2324 17.539 18.004 17.9491 16.9672 18.6796C15.9304 19.41 15.1308 20.4287 14.6673 21.6093L14.5001 22L14.6673 22.3908C15.1308 23.5713 15.9304 24.59 16.9672 25.3204C18.004 26.0509 19.2324 26.461 20.5001 26.5C21.7678 26.461 22.9961 26.0509 24.033 25.3204C25.0698 24.59 25.8694 23.5713 26.3328 22.3908L26.5001 22L26.3328 21.6093ZM20.5001 25C19.9068 25 19.3267 24.8241 18.8334 24.4944C18.34 24.1648 17.9555 23.6962 17.7285 23.1481C17.5014 22.5999 17.442 21.9967 17.5577 21.4147C17.6735 20.8328 17.9592 20.2982 18.3788 19.8787C18.7983 19.4591 19.3329 19.1734 19.9148 19.0576C20.4968 18.9419 21.1 19.0013 21.6481 19.2284C22.1963 19.4554 22.6649 19.8399 22.9945 20.3333C23.3241 20.8266 23.5001 21.4067 23.5001 22C23.4991 22.7953 23.1827 23.5578 22.6203 24.1202C22.0579 24.6826 21.2954 24.999 20.5001 25ZM13.0001 22C12.4997 22 12.0072 21.8749 11.5675 21.6359C11.1279 21.397 10.7549 21.0519 10.4827 20.632C10.2105 20.2121 10.0476 19.7308 10.009 19.2318C9.9703 18.7329 10.057 18.2323 10.2613 17.7755C10.4656 17.3186 10.7808 16.9202 11.1785 16.6163C11.5761 16.3125 12.0434 16.1129 12.5378 16.0358C13.0322 15.9587 13.5381 16.0065 14.0093 16.1749C14.4806 16.3432 14.9022 16.6268 15.2358 16.9998L14.1183 18.0003C13.9516 17.8137 13.7408 17.6718 13.5052 17.5876C13.2696 17.5033 13.0166 17.4794 12.7694 17.5179C12.5221 17.5563 12.2884 17.6561 12.0896 17.808C11.8907 17.9598 11.733 18.1591 11.6308 18.3875C11.5287 18.6159 11.4853 18.8662 11.5046 19.1157C11.5239 19.3652 11.6053 19.6059 11.7414 19.8159C11.8775 20.0258 12.0639 20.1984 12.2838 20.3179C12.5036 20.4374 12.7499 20.5 13.0001 20.5V22Z" fill="#434240"/>
<path d="M23.4996 5.50007C23.0142 5.50186 22.5371 5.62565 22.1121 5.86007L9.8196 12.2201C8.27469 12.9423 7.02237 14.1699 6.26955 15.7001C5.51673 17.2303 5.30846 18.9716 5.67915 20.6362C6.04984 22.3008 6.9773 23.7891 8.30831 24.8553C9.63932 25.9215 11.2942 26.5017 12.9996 26.5001V25.0001C12.0138 25.0005 11.0431 24.7581 10.1733 24.2942C9.30351 23.8303 8.56141 23.1592 8.01262 22.3403C7.46384 21.5214 7.12527 20.5799 7.02686 19.599C6.92845 18.6182 7.07323 17.6282 7.4484 16.7166C7.82357 15.805 8.41757 14.9999 9.17787 14.3724C9.93818 13.745 10.8414 13.3145 11.8076 13.1191C12.7738 12.9237 13.7733 12.9694 14.7177 13.2521C15.662 13.5348 16.5222 14.0459 17.2221 14.7401L18.2721 13.6901C17.1717 12.5964 15.7595 11.8706 14.2296 11.6126L20.5146 8.35757C20.5146 8.40257 20.4996 8.44757 20.4996 8.50007C20.4995 8.89406 20.577 9.28421 20.7278 9.64824C20.8785 10.0123 21.0995 10.343 21.3781 10.6216C21.6567 10.9002 21.9874 11.1212 22.3514 11.2719C22.7155 11.4226 23.1056 11.5002 23.4996 11.5001C23.5446 11.5001 23.5896 11.4851 23.6421 11.4851L21.3021 16.0001H22.9821L26.1696 9.84257C26.404 9.38681 26.5169 8.87831 26.4973 8.36618C26.4778 7.85406 26.3265 7.35563 26.0581 6.91905C25.7897 6.48247 25.4132 6.12251 24.965 5.87394C24.5168 5.62537 24.0121 5.4966 23.4996 5.50007ZM23.4996 10.0001C23.2029 10.0001 22.9129 9.9121 22.6662 9.74727C22.4196 9.58245 22.2273 9.34818 22.1138 9.07409C22.0002 8.8 21.9705 8.4984 22.0284 8.20743C22.0863 7.91646 22.2292 7.64919 22.4389 7.43941C22.6487 7.22963 22.916 7.08677 23.207 7.02889C23.4979 6.97101 23.7995 7.00072 24.0736 7.11425C24.3477 7.22778 24.582 7.42004 24.7468 7.66671C24.9116 7.91339 24.9996 8.2034 24.9996 8.50007C24.9984 8.89753 24.84 9.27837 24.5589 9.55942C24.2779 9.84047 23.8971 9.99888 23.4996 10.0001Z" fill="#434240"/>
</svg>
