<svg width="31" height="30" viewBox="0 0 31 30" fill="none" xmlns="http://www.w3.org/2000/svg">
<line x1="6.5" y1="10.5" x2="10.5" y2="10.5" stroke="#F9F9F9" stroke-linecap="round"/>
<path d="M8.5 8L8.5 13" stroke="#F9F9F9" stroke-linecap="round"/>
<path d="M15.2549 19.6653L11.4562 15.8666C12.1349 14.6716 13.1249 13.4878 14.4249 12.3191C16.1012 10.8091 19.0599 8.25658 23.2999 4.66158C23.7295 4.2972 24.2804 4.10772 24.8432 4.13079C25.406 4.15386 25.9396 4.38778 26.3379 4.78609C26.7362 5.1844 26.9701 5.71795 26.9932 6.28078C27.0163 6.8436 26.8268 7.39451 26.4624 7.82408C22.8624 12.0716 20.3112 15.0303 18.8062 16.6991C17.6374 17.9953 16.4537 18.9841 15.2549 19.6653V19.6653ZM9.73492 17.6828L13.4412 21.3878L11.7337 23.7703L5.13867 26.0141L7.35242 19.3891L9.73492 17.6828V17.6828Z" fill="#F9F9F9"/>
</svg>
