<svg width="32" height="32" viewBox="0 0 32 32" fill="none" xmlns="http://www.w3.org/2000/svg">
<circle cx="16" cy="16" r="16" fill="#F9F9F9"/>
<g clip-path="url(#clip0_9594_38175)">
<path d="M8.66602 6.83203V12.332H6.83268V6.83203H8.66602ZM6.83268 25.1654V19.6654H8.66602V25.1654H6.83268ZM9.58268 15.9987C9.58268 17.0162 8.76685 17.832 7.74935 17.832C7.38675 17.832 7.03229 17.7245 6.7308 17.5231C6.42931 17.3216 6.19433 17.0353 6.05557 16.7003C5.91681 16.3653 5.8805 15.9967 5.95124 15.641C6.02198 15.2854 6.19659 14.9587 6.45299 14.7023C6.70938 14.4459 7.03605 14.2713 7.39168 14.2006C7.74732 14.1299 8.11594 14.1662 8.45094 14.3049C8.78593 14.4437 9.07226 14.6787 9.27371 14.9802C9.47516 15.2816 9.58268 15.6361 9.58268 15.9987ZM19.666 8.66536C23.7177 8.66536 26.9993 11.947 26.9993 15.9987C26.9993 20.0504 23.7177 23.332 19.666 23.332C16.366 23.332 13.5794 21.1504 12.6535 18.1529L10.4993 15.9987L12.6535 13.8445C13.5794 10.847 16.366 8.66536 19.666 8.66536ZM19.666 10.4987C16.6319 10.4987 14.166 12.9645 14.166 15.9987C14.166 19.0329 16.6319 21.4987 19.666 21.4987C22.7002 21.4987 25.166 19.0329 25.166 15.9987C25.166 12.9645 22.7002 10.4987 19.666 10.4987ZM18.7493 16.9154V12.332H20.1243V16.182L22.8743 17.832L22.1227 18.987L18.7493 16.9154Z" fill="#4BAA73"/>
<path d="M9.58268 15.9974C9.58268 17.0149 8.76685 17.8307 7.74935 17.8307C7.38675 17.8307 7.03229 17.7232 6.7308 17.5218C6.42931 17.3203 6.19433 17.034 6.05557 16.699C5.91681 16.364 5.8805 15.9954 5.95124 15.6397C6.02198 15.2841 6.19659 14.9574 6.45299 14.701C6.70938 14.4446 7.03605 14.27 7.39168 14.1993C7.74732 14.1285 8.11594 14.1649 8.45094 14.3036C8.78593 14.4424 9.07226 14.6774 9.27371 14.9788C9.47516 15.2803 9.58268 15.6348 9.58268 15.9974ZM19.666 8.66406C23.7177 8.66406 26.9993 11.9457 26.9993 15.9974C26.9993 20.0491 23.7177 23.3307 19.666 23.3307C16.366 23.3307 13.5793 21.1491 12.6535 18.1516L10.4993 15.9974L12.6535 13.8432C13.5793 10.8457 16.366 8.66406 19.666 8.66406ZM19.666 10.4974C16.6318 10.4974 14.166 12.9632 14.166 15.9974C14.166 19.0316 16.6318 21.4974 19.666 21.4974C22.7002 21.4974 25.166 19.0316 25.166 15.9974C25.166 12.9632 22.7002 10.4974 19.666 10.4974Z" fill="#434240"/>
</g>
<defs>
<clipPath id="clip0_9594_38175">
<rect width="22" height="22" fill="white" transform="translate(5 5)"/>
</clipPath>
</defs>
</svg>
