<svg width="15" height="15" viewBox="0 0 15 15" fill="none" xmlns="http://www.w3.org/2000/svg">
<path d="M7.29999 14.6C11.3317 14.6 14.6 11.3317 14.6 7.3C14.6 3.26832 11.3317 0 7.29999 0C3.26831 0 0 3.26832 0 7.3C0 11.3317 3.26831 14.6 7.29999 14.6Z" fill="#A0AFBF"/>
<path d="M8.20001 7.3L10 5.5C10.3 5.2 10.3 4.8 10 4.6C9.70001 4.4 9.3 4.3 9.1 4.6L7.3 6.4L5.50001 4.6C5.20001 4.3 4.8 4.3 4.6 4.6C4.4 4.9 4.3 5.3 4.6 5.5L6.4 7.3L4.6 9.1C4.3 9.4 4.3 9.8 4.6 10C4.7 10.1 4.9 10.2 5.1 10.2C5.3 10.2 5.4 10.1 5.6 10L7.4 8.2L9.20001 10C9.30001 10.1 9.50001 10.2 9.70001 10.2C9.90001 10.2 10 10.1 10.2 10C10.5 9.7 10.5 9.3 10.2 9.1L8.20001 7.3Z" fill="white"/>
</svg>
