<svg width="26" height="6" viewBox="0 0 26 6" fill="none" xmlns="http://www.w3.org/2000/svg">
<path d="M2.33333 4.33464C3.06971 4.33464 3.66667 3.73768 3.66667 3.0013C3.66667 2.26492 3.06971 1.66797 2.33333 1.66797C1.59695 1.66797 1 2.26492 1 3.0013C1 3.73768 1.59695 4.33464 2.33333 4.33464Z" stroke="white" stroke-width="2"/>
<path d="M12.9993 4.33464C13.7357 4.33464 14.3327 3.73768 14.3327 3.0013C14.3327 2.26492 13.7357 1.66797 12.9993 1.66797C12.263 1.66797 11.666 2.26492 11.666 3.0013C11.666 3.73768 12.263 4.33464 12.9993 4.33464Z" stroke="white" stroke-width="2"/>
<path d="M23.6673 4.33464C24.4037 4.33464 25.0007 3.73768 25.0007 3.0013C25.0007 2.26492 24.4037 1.66797 23.6673 1.66797C22.9309 1.66797 22.334 2.26492 22.334 3.0013C22.334 3.73768 22.9309 4.33464 23.6673 4.33464Z" stroke="white" stroke-width="2"/>
</svg>
