<svg width="40" height="40" viewBox="0 0 40 40" fill="none" xmlns="http://www.w3.org/2000/svg">
<rect width="40" height="40" rx="20" fill="black" fill-opacity="0.4"/>
<path d="M23.3926 20C23.3927 20.1029 23.3725 20.2048 23.3331 20.2998C23.2938 20.3948 23.236 20.4811 23.1632 20.5538L17.9418 25.7751C17.7946 25.92 17.596 26.0008 17.3894 26C17.1828 25.9992 16.9849 25.9167 16.8388 25.7706C16.6927 25.6245 16.6102 25.4266 16.6094 25.22C16.6085 25.0134 16.6894 24.8148 16.8343 24.6675L21.5017 20L16.8343 15.3325C16.6894 15.1852 16.6085 14.9866 16.6094 14.78C16.6102 14.5734 16.6927 14.3755 16.8388 14.2294C16.9849 14.0833 17.1828 14.0008 17.3894 14C17.596 13.9992 17.7946 14.08 17.9418 14.2249L23.1632 19.4462C23.236 19.5189 23.2938 19.6052 23.3331 19.7002C23.3725 19.7952 23.3927 19.8971 23.3926 20Z" fill="white"/>
</svg>
