<svg width="32" height="32" viewBox="0 0 32 32" fill="none" xmlns="http://www.w3.org/2000/svg">
<circle cx="16" cy="16" r="16" fill="#F9F9F9"/>
<path d="M16 26C10.477 26 6 21.523 6 16C6 10.477 10.477 6 16 6C21.523 6 26 10.477 26 16C25.994 21.52 21.52 25.994 16 26ZM8 16.172C8.02273 18.2862 8.88145 20.3054 10.3885 21.7883C11.8955 23.2712 13.9283 24.0972 16.0425 24.0859C18.1568 24.0745 20.1806 23.2267 21.6716 21.7276C23.1626 20.2286 23.9995 18.2003 23.9995 16.086C23.9995 13.9717 23.1626 11.9434 21.6716 10.4444C20.1806 8.94533 18.1568 8.09748 16.0425 8.08612C13.9283 8.07475 11.8955 8.9008 10.3885 10.3837C8.88145 11.8666 8.02273 13.8858 8 16V16.172ZM14 20.5V11.5L20 16L14 20.5Z" fill="#4BAA73"/>
<path d="M16 26C10.477 26 6 21.523 6 16C6 10.477 10.477 6 16 6C21.523 6 26 10.477 26 16C25.994 21.52 21.52 25.994 16 26ZM8 16.172C8.02273 18.2862 8.88145 20.3054 10.3885 21.7883C11.8955 23.2712 13.9283 24.0972 16.0425 24.0859C18.1568 24.0745 20.1806 23.2267 21.6716 21.7276C23.1626 20.2286 23.9995 18.2003 23.9995 16.086C23.9995 13.9717 23.1626 11.9434 21.6716 10.4444C20.1806 8.94533 18.1568 8.09748 16.0425 8.08612C13.9283 8.07475 11.8955 8.9008 10.3885 10.3837C8.88145 11.8666 8.02273 13.8858 8 16V16.172Z" fill="#434240"/>
</svg>
