<svg width="685" height="563" viewBox="0 0 685 563" fill="none" xmlns="http://www.w3.org/2000/svg">
<path d="M48.7629 217.92H107.227V153.408L48.7629 217.92ZM107.227 247.872H6.71491V225.408L119.611 98.4H142.939V217.92H184.987V247.872H142.939V300H107.227V247.872Z" fill="black"/>
<path d="M417.135 167.2C417.135 196.576 408.975 221.248 392.655 241.216C376.335 261.184 354.927 271.168 328.431 271.168C301.743 271.168 280.335 261.28 264.207 241.504C248.079 221.536 240.015 196.768 240.015 167.2C240.015 137.632 247.983 112.96 263.919 93.184C280.047 73.216 301.551 63.232 328.431 63.232C355.119 63.232 376.527 73.216 392.655 93.184C408.975 112.96 417.135 137.632 417.135 167.2ZM381.423 167.2C381.423 146.08 376.623 128.512 367.023 114.496C357.423 100.48 344.559 93.472 328.431 93.472C312.303 93.472 299.439 100.48 289.839 114.496C280.431 128.512 275.727 146.08 275.727 167.2C275.727 188.128 280.431 205.6 289.839 219.616C299.439 233.632 312.303 240.64 328.431 240.64C344.559 240.64 357.423 233.632 367.023 219.616C376.623 205.6 381.423 188.128 381.423 167.2Z" fill="black"/>
<path d="M503.763 196.92H562.227V132.408L503.763 196.92ZM562.227 226.872H461.715V204.408L574.611 77.4H597.939V196.92H639.987V226.872H597.939V279H562.227V226.872Z" fill="black"/>
<path d="M620.685 386.656C600.749 343.855 593.934 296.11 601.099 249.44C602.985 237.336 606.045 224.892 613.9 215.492C621.44 206.463 634.518 201.15 645.354 205.384C638.244 189.869 620.329 181.019 603.126 180.584C585.264 180.133 568.061 187.134 552.169 195.308C536.277 203.482 520.913 213.024 503.852 218.358C475.819 227.119 445.213 223.776 417.133 215.167C389.058 206.552 362.838 192.913 336.115 180.736C309.386 168.558 281.531 157.665 252.272 155.108C223.013 152.556 191.883 159.242 169.881 178.692C147.879 198.142 137.462 231.761 149.828 258.395C157.295 274.482 171.95 286.858 177.096 303.825C183.551 325.125 173.386 347.818 161.162 366.415C148.932 385.011 134.019 402.873 129.476 424.661C125.279 444.771 130.901 465.542 142.078 483.022C147.275 491.126 153.578 498.465 160.805 504.825C183.384 524.689 212.559 535.295 241.588 543.144C346.526 571.528 459.633 568.971 563.183 535.871C581.517 530.013 599.836 523.07 615.225 511.516C625.265 503.981 634 494.214 639.533 483.038C642.519 477.087 644.49 470.68 645.365 464.08C648.844 436.786 632.354 411.572 620.685 386.656Z" fill="white"/>
<path d="M620.685 386.656C600.749 343.855 593.934 296.11 601.099 249.44C602.985 237.336 606.045 224.892 613.9 215.492C621.44 206.463 634.518 201.15 645.354 205.384C638.244 189.869 620.329 181.019 603.126 180.584C585.264 180.133 568.061 187.134 552.169 195.308C536.277 203.482 520.913 213.024 503.852 218.358C475.819 227.119 445.213 223.776 417.133 215.167C389.058 206.552 362.838 192.913 336.115 180.736C309.386 168.558 281.531 157.665 252.272 155.108C223.013 152.556 191.883 159.242 169.881 178.692C147.879 198.142 137.462 231.761 149.828 258.395C157.295 274.482 171.95 286.858 177.096 303.825C183.551 325.125 173.386 347.818 161.162 366.415C148.932 385.011 134.019 402.873 129.476 424.661C125.279 444.771 130.901 465.542 142.078 483.022C147.275 491.126 153.578 498.465 160.805 504.825C183.384 524.689 212.559 535.295 241.588 543.144C346.526 571.528 459.633 568.971 563.183 535.871C581.517 530.013 599.836 523.07 615.225 511.516C625.265 503.981 634 494.214 639.533 483.038C642.519 477.087 644.49 470.68 645.365 464.08C648.844 436.786 632.354 411.572 620.685 386.656Z" fill="url(#paint0_diamond_8666_18671)" fill-opacity="0.8"/>
<g opacity="0.17">
<path opacity="0.17" d="M536.871 246.199C541.923 243.996 531.677 242.713 520.053 242.292C508.429 241.87 494.367 241.894 486.939 240.694C479.754 239.535 480.284 237.472 479.679 235.604C479.075 233.736 476.313 231.82 465.103 231.404C451.133 230.887 428.096 232.879 417.55 231.683C407.709 230.567 413.559 227.066 399.209 226.932C391.015 226.855 380.458 228.009 371.34 228.288C362.78 228.55 356.448 228.008 352.003 227.28C347.559 226.552 344.464 225.629 339.462 224.986C326.331 223.297 300.64 223.865 277.709 226.029C254.779 228.193 235.123 231.739 224.038 235.252C212.953 238.764 209.89 242.223 212.473 245.155C214.121 247.028 218.341 248.779 228.576 249.532C247.72 250.939 281.804 248.516 301.586 249.797C312.612 250.511 317.503 252.28 327.177 253.249C337.569 254.289 352.783 254.344 367.731 254.319C398.854 254.268 430.774 253.948 463.322 253.362C476.916 253.117 491.161 252.798 505.627 251.631C520.093 250.464 534.847 248.212 537.899 246.1" fill="white"/>
</g>
<path d="M646.127 207.212C645.886 206.593 645.624 205.98 645.352 205.383C645.792 205.556 646.232 205.744 646.667 205.949L646.127 207.212Z" fill="white"/>
<path d="M646.127 207.212C645.886 206.593 645.624 205.98 645.352 205.383C645.792 205.556 646.232 205.744 646.667 205.949L646.127 207.212Z" fill="url(#paint1_diamond_8666_18671)" fill-opacity="0.8"/>
<path d="M410.064 281.902C406.046 275.255 401.284 268.159 393.826 265.989C385.19 263.475 376.318 268.468 368.793 273.395C346.288 288.129 324.616 304.097 303.875 321.226L303.898 321.484C320.045 320.37 336.193 319.257 352.341 318.143C364.007 317.338 376.075 316.423 386.385 310.904C390.297 308.81 394.111 306.012 398.544 305.817C404.052 305.575 408.855 309.422 412.629 313.441C434.955 337.214 441.415 373.57 466.462 394.457C450.668 355.507 431.81 317.87 410.064 281.902Z" fill="#F2F2F2"/>
<path d="M547.296 483.544C544.828 480.427 543.819 479.697 541.383 476.55C521.554 450.904 502.917 424.392 485.47 397.014C473.62 378.419 462.357 359.468 451.682 340.159C446.6 330.98 441.657 321.728 436.854 312.404C433.126 305.175 429.482 297.903 425.921 290.587C424.903 288.497 423.913 286.398 422.928 284.294C420.608 279.346 418.331 274.375 415.886 269.494C413.1 263.932 409.709 258.1 404.593 254.363C402.265 252.593 399.481 251.522 396.567 251.275C392.402 251.006 388.559 252.725 384.947 254.604C358.518 268.385 333.775 285.663 311.395 305.324C288.958 325.029 268.903 347.291 251.639 371.656C251.111 372.41 249.862 371.689 250.395 370.93C252.495 367.962 254.635 365.025 256.818 362.121C283.954 326.03 317.228 294.994 355.117 270.431C361.491 266.3 367.986 262.363 374.6 258.619C377.934 256.731 381.282 254.868 384.687 253.119C388.026 251.404 391.571 249.862 395.385 249.805C408.364 249.603 415.084 264.302 419.7 274.192C421.151 277.305 422.619 280.408 424.105 283.502C429.721 295.246 435.552 306.883 441.6 318.414C445.332 325.532 449.146 332.61 453.042 339.645C465.166 361.554 478.052 383.019 491.701 404.041C509.781 431.887 527.717 456.486 548.315 482.526C548.882 483.246 547.868 484.274 547.296 483.544Z" fill="#E4E4E4"/>
<path d="M310.115 298.068C309.361 297.228 308.611 296.387 307.852 295.546C301.867 288.927 295.445 282.385 287.226 278.59C283.307 276.723 279.029 275.732 274.689 275.684C270.202 275.698 265.817 276.875 261.671 278.523C259.712 279.306 257.795 280.194 255.907 281.14C253.75 282.226 251.632 283.384 249.523 284.551C245.565 286.741 241.658 289.028 237.803 291.41C230.131 296.151 222.7 301.254 215.509 306.719C211.782 309.553 208.131 312.48 204.557 315.5C201.233 318.305 197.976 321.186 194.787 324.142C194.105 324.771 193.086 323.753 193.769 323.123C194.609 322.34 195.459 321.562 196.31 320.794C198.711 318.622 201.152 316.493 203.63 314.405C208.15 310.591 212.787 306.924 217.541 303.405C224.934 297.929 232.581 292.824 240.483 288.091C244.431 285.728 248.434 283.464 252.492 281.299C253.717 280.646 254.956 280.007 256.21 279.402C259.054 277.967 262.01 276.764 265.048 275.804C269.352 274.412 273.905 273.964 278.397 274.492C282.735 275.123 286.913 276.569 290.713 278.753C298.783 283.264 305.042 290.238 311.133 297.045C311.748 297.737 310.734 298.76 310.115 298.068Z" fill="#E4E4E4"/>
<path d="M475.459 366.661L494.797 359.588L504.398 356.077C507.525 354.933 510.644 353.631 513.876 352.812C516.686 352.01 519.668 352.048 522.456 352.922C524.942 353.842 527.218 355.252 529.148 357.07C531.119 358.885 532.954 360.845 534.636 362.931C536.727 365.443 538.786 367.982 540.855 370.512C549.393 380.953 557.875 391.44 566.301 401.972C574.727 412.504 583.097 423.081 591.41 433.703C599.744 444.35 608.021 455.042 616.24 465.779C617.246 467.094 618.252 468.41 619.258 469.727C619.813 470.454 621.065 469.737 620.502 468.999C612.222 458.155 603.885 447.355 595.49 436.599C587.074 425.818 578.6 415.082 570.068 404.392C561.536 393.702 552.946 383.059 544.299 372.462C542.145 369.822 539.987 367.184 537.825 364.55C536.002 362.328 534.2 360.082 532.2 358.014C528.529 354.218 523.943 350.863 518.453 350.772C515.226 350.718 512.102 351.742 509.103 352.827C505.871 353.997 502.646 355.188 499.417 356.369L479.944 363.491L475.076 365.272C474.212 365.588 474.585 366.981 475.459 366.661Z" fill="#E4E4E4"/>
<path d="M284.68 286.919C274.853 281.869 262.268 282.858 253.238 289.168C270.463 292.14 287.499 296.116 304.259 301.076C297.299 296.997 291.855 290.607 284.68 286.919Z" fill="#F2F2F2"/>
<path d="M253.142 289.15L251.25 290.688C251.89 290.15 252.555 289.645 253.239 289.168C253.206 289.162 253.174 289.156 253.142 289.15Z" fill="#DCDCDC"/>
<path d="M528.424 366.733C526.52 364.416 524.462 361.99 521.615 361.049L518.957 361.154C539.192 396.91 566.521 428.153 599.267 452.966C575.652 424.222 552.038 395.478 528.424 366.733Z" fill="#F2F2F2"/>
<path d="M639.533 483.041C633.999 494.217 625.265 503.984 615.225 511.519C599.836 523.073 581.517 530.016 563.183 535.874C459.633 568.974 346.526 571.531 241.588 543.147C212.559 535.298 183.384 524.692 160.805 504.828C153.578 498.468 147.275 491.129 142.078 483.025C172.129 466.509 208.551 460.284 243.307 461.044C293.132 462.134 341.795 475.432 391.154 482.312C449.282 490.403 508.303 489.59 566.185 479.902C586.264 476.533 607.046 472.126 626.7 477.46C631.219 478.708 635.539 480.587 639.533 483.041Z" fill="#252117"/>
<path d="M178.157 196.446C192.916 196.446 204.88 184.482 204.88 169.723C204.88 154.964 192.916 143 178.157 143C163.398 143 151.434 154.964 151.434 169.723C151.434 184.482 163.398 196.446 178.157 196.446Z" fill="#DCDCDC"/>
<path d="M259.976 168.333C252.904 160.914 244.69 154.146 234.966 150.569C232.258 149.569 229.45 148.863 226.59 148.464C226.567 148.461 226.545 148.466 226.522 148.464C226.476 148.452 226.429 148.443 226.381 148.436C222.381 147.927 218.322 148.172 214.412 149.159C212.501 149.639 210.636 150.288 208.84 151.1C207.037 151.979 205.291 152.969 203.611 154.064C200.054 156.193 196.138 157.654 192.056 158.374C190.007 158.743 187.931 158.947 185.85 158.983C184.043 159.02 182.34 159.082 180.629 159.735C178.801 160.422 177.158 161.528 175.833 162.962C174.508 164.397 173.537 166.122 172.997 167.998C172.955 168.166 172.968 168.342 173.033 168.501C173.098 168.661 173.211 168.795 173.358 168.886C173.821 169.218 174.272 169.594 174.759 169.889C175.191 170.087 175.653 170.213 176.127 170.262C176.9 170.425 177.674 170.584 178.449 170.737C181.305 171.303 184.173 171.804 187.053 172.24C192.88 173.122 198.739 173.744 204.629 174.104C216.428 174.819 228.268 174.463 240.003 173.041C246.598 172.242 253.149 171.109 259.629 169.647C259.76 169.608 259.879 169.537 259.975 169.439C260.07 169.341 260.138 169.22 260.173 169.088C260.208 168.956 260.208 168.817 260.174 168.684C260.139 168.552 260.071 168.431 259.976 168.333Z" fill="#F0F0F0"/>
<path d="M179.423 186.196C176.715 185.196 173.907 184.49 171.047 184.091C171.024 184.088 171.002 184.093 170.979 184.091C170.933 184.079 170.886 184.07 170.838 184.063C166.838 183.554 162.779 183.799 158.869 184.786C156.958 185.266 155.093 185.915 153.297 186.727C151.494 187.606 149.748 188.596 148.068 189.691C144.511 191.82 140.595 193.281 136.513 194.001C134.464 194.37 132.388 194.574 130.307 194.61C128.5 194.647 126.797 194.709 125.086 195.362C123.258 196.049 121.615 197.154 120.29 198.589C118.965 200.024 117.994 201.749 117.454 203.625C117.412 203.793 117.425 203.969 117.49 204.128C117.555 204.288 117.668 204.422 117.815 204.513C118.278 204.845 118.729 205.221 119.216 205.516C119.648 205.714 120.11 205.84 120.584 205.889C121.357 206.052 122.131 206.211 122.907 206.364C125.763 206.93 128.63 207.431 131.51 207.867C137.337 208.749 143.196 209.371 149.086 209.731C160.885 210.446 172.725 210.09 184.46 208.668C191.055 207.869 197.606 206.736 204.086 205.274C204.217 205.235 204.336 205.164 204.432 205.066C204.527 204.968 204.595 204.847 204.63 204.715C204.665 204.582 204.665 204.444 204.631 204.311C204.596 204.179 204.528 204.058 204.433 203.96C197.361 196.541 189.147 189.773 179.423 186.196Z" fill="#F0F0F0"/>
<path d="M633.024 451.18L647.258 440.373L654.196 447.311L631.008 463.179L633.024 451.18Z" fill="#0E0A01"/>
<path d="M619.749 480.934H571.059L572.766 475.4C583.35 471.569 577.405 463.333 587.473 458.299C612.099 445.986 621.632 409.244 618.026 394.719L634.164 394.037C634.164 394.037 656.45 457.326 619.749 480.934Z" fill="#0E0A01"/>
<path d="M661.317 454.923C659.863 456.202 658.002 456.923 656.066 456.96C654.129 456.996 652.243 456.344 650.742 455.12L650.71 455.095L650.709 455.054C650.691 454.376 650.585 453.703 650.394 453.053C650.385 453.521 650.317 453.986 650.191 454.438L650.15 454.59L650.041 454.477C649.946 454.379 649.855 454.28 649.769 454.183C649.264 453.61 648.841 452.969 648.512 452.279C646.938 449.041 644.656 446.198 641.837 443.959C641.333 443.549 640.865 443.098 640.436 442.611C638.626 440.551 637.607 437.914 637.564 435.172C637.52 432.43 638.455 429.762 640.199 427.645C641.943 425.529 644.384 424.103 647.084 423.622C649.784 423.141 652.567 423.637 654.934 425.021L655.007 425.064L654.969 425.138C654.695 425.707 654.333 426.23 653.896 426.686C654.497 426.362 655.052 425.96 655.549 425.492L655.601 425.443L655.661 425.484C656.438 426.022 657.147 426.653 657.772 427.363L657.839 427.44C658.316 427.985 658.902 428.424 659.56 428.728C660.217 429.031 660.932 429.192 661.656 429.201C662.837 429.221 664.001 429.497 665.065 430.009C666.13 430.522 667.072 431.259 667.824 432.17C668.577 433.08 669.124 434.144 669.427 435.286C669.729 436.428 669.781 437.622 669.578 438.787L669.569 438.841L669.516 438.857C668.598 439.172 667.624 439.293 666.657 439.213C667.465 439.565 668.325 439.781 669.204 439.851L669.317 439.86L669.281 439.968C668.824 441.342 668.009 442.57 666.922 443.526L666.891 443.553L666.858 443.582C666.047 444.28 665.384 445.133 664.907 446.091C664.431 447.048 664.15 448.091 664.082 449.159C664.028 450.255 663.756 451.33 663.281 452.32C662.806 453.309 662.138 454.194 661.317 454.923Z" fill="white"/>
<path d="M661.317 454.923C659.863 456.202 658.002 456.923 656.066 456.96C654.129 456.996 652.243 456.344 650.742 455.12L650.71 455.095L650.709 455.054C650.691 454.376 650.585 453.703 650.394 453.053C650.385 453.521 650.317 453.986 650.191 454.438L650.15 454.59L650.041 454.477C649.946 454.379 649.855 454.28 649.769 454.183C649.264 453.61 648.841 452.969 648.512 452.279C646.938 449.041 644.656 446.198 641.837 443.959C641.333 443.549 640.865 443.098 640.436 442.611C638.626 440.551 637.607 437.914 637.564 435.172C637.52 432.43 638.455 429.762 640.199 427.645C641.943 425.529 644.384 424.103 647.084 423.622C649.784 423.141 652.567 423.637 654.934 425.021L655.007 425.064L654.969 425.138C654.695 425.707 654.333 426.23 653.896 426.686C654.497 426.362 655.052 425.96 655.549 425.492L655.601 425.443L655.661 425.484C656.438 426.022 657.147 426.653 657.772 427.363L657.839 427.44C658.316 427.985 658.902 428.424 659.56 428.728C660.217 429.031 660.932 429.192 661.656 429.201C662.837 429.221 664.001 429.497 665.065 430.009C666.13 430.522 667.072 431.259 667.824 432.17C668.577 433.08 669.124 434.144 669.427 435.286C669.729 436.428 669.781 437.622 669.578 438.787L669.569 438.841L669.516 438.857C668.598 439.172 667.624 439.293 666.657 439.213C667.465 439.565 668.325 439.781 669.204 439.851L669.317 439.86L669.281 439.968C668.824 441.342 668.009 442.57 666.922 443.526L666.891 443.553L666.858 443.582C666.047 444.28 665.384 445.133 664.907 446.091C664.431 447.048 664.15 448.091 664.082 449.159C664.028 450.255 663.756 451.33 663.281 452.32C662.806 453.309 662.138 454.194 661.317 454.923Z" fill="url(#paint2_linear_8666_18671)" fill-opacity="0.8"/>
<path d="M661.317 454.923C659.863 456.202 658.002 456.923 656.066 456.96C654.129 456.996 652.243 456.344 650.742 455.12L650.71 455.095L650.709 455.054C650.691 454.376 650.585 453.703 650.394 453.053C650.385 453.521 650.317 453.986 650.191 454.438L650.15 454.59L650.041 454.477C649.946 454.379 649.855 454.28 649.769 454.183C649.264 453.61 648.841 452.969 648.512 452.279C646.938 449.041 644.656 446.198 641.837 443.959C641.333 443.549 640.865 443.098 640.436 442.611C638.626 440.551 637.607 437.914 637.564 435.172C637.52 432.43 638.455 429.762 640.199 427.645C641.943 425.529 644.384 424.103 647.084 423.622C649.784 423.141 652.567 423.637 654.934 425.021L655.007 425.064L654.969 425.138C654.695 425.707 654.333 426.23 653.896 426.686C654.497 426.362 655.052 425.96 655.549 425.492L655.601 425.443L655.661 425.484C656.438 426.022 657.147 426.653 657.772 427.363L657.839 427.44C658.316 427.985 658.902 428.424 659.56 428.728C660.217 429.031 660.932 429.192 661.656 429.201C662.837 429.221 664.001 429.497 665.065 430.009C666.13 430.522 667.072 431.259 667.824 432.17C668.577 433.08 669.124 434.144 669.427 435.286C669.729 436.428 669.781 437.622 669.578 438.787L669.569 438.841L669.516 438.857C668.598 439.172 667.624 439.293 666.657 439.213C667.465 439.565 668.325 439.781 669.204 439.851L669.317 439.86L669.281 439.968C668.824 441.342 668.009 442.57 666.922 443.526L666.891 443.553L666.858 443.582C666.047 444.28 665.384 445.133 664.907 446.091C664.431 447.048 664.15 448.091 664.082 449.159C664.028 450.255 663.756 451.33 663.281 452.32C662.806 453.309 662.138 454.194 661.317 454.923Z" fill="url(#paint3_linear_8666_18671)" fill-opacity="0.8"/>
<path opacity="0.15" d="M662.807 452.292C662.792 452.587 662.761 452.88 662.715 453.172C663.512 451.947 663.971 450.533 664.045 449.074C664.055 448.85 664.079 448.628 664.11 448.406C663.336 449.561 662.885 450.903 662.807 452.292Z" fill="black"/>
<path opacity="0.15" d="M665.383 442.346C666.033 442.628 666.717 442.821 667.418 442.922C667.688 442.637 667.937 442.332 668.164 442.012C667.269 442.311 666.323 442.425 665.383 442.346Z" fill="black"/>
<path opacity="0.15" d="M668.379 439.662C668.451 440.369 668.431 441.083 668.32 441.785C668.708 441.195 669.018 440.556 669.241 439.886L669.277 439.778L669.164 439.769C668.9 439.747 668.638 439.711 668.379 439.662Z" fill="black"/>
<path opacity="0.15" d="M667.625 431.892C666.871 431.038 665.948 430.349 664.914 429.871C663.88 429.393 662.758 429.136 661.619 429.115C660.895 429.107 660.181 428.945 659.523 428.642C658.865 428.338 658.279 427.899 657.802 427.354L657.735 427.277C657.111 426.567 656.401 425.936 655.624 425.398L655.564 425.357L655.512 425.406C655.015 425.874 654.46 426.276 653.859 426.6C654.296 426.144 654.658 425.621 654.932 425.052L654.97 424.978L654.898 424.935C653.328 424.017 651.563 423.482 649.748 423.375C647.932 423.269 646.117 423.592 644.451 424.321C642.784 425.049 641.313 426.161 640.158 427.566C639.003 428.97 638.197 430.628 637.805 432.404C638.56 431.077 639.571 429.914 640.78 428.98C641.988 428.047 643.37 427.363 644.845 426.968C646.319 426.572 647.858 426.473 649.371 426.677C650.884 426.881 652.342 427.382 653.66 428.153L653.732 428.196L653.695 428.27C653.42 428.839 653.058 429.362 652.622 429.818C653.222 429.494 653.778 429.092 654.274 428.624L654.327 428.575L654.386 428.616C655.164 429.154 655.873 429.785 656.497 430.495L656.565 430.572C657.041 431.118 657.628 431.556 658.285 431.86C658.943 432.163 659.657 432.325 660.381 432.334C662.275 432.366 664.099 433.053 665.542 434.28C666.985 435.506 667.958 437.195 668.295 439.059C668.695 438.987 669.091 438.891 669.479 438.771L669.532 438.755L669.541 438.701C669.754 437.495 669.692 436.256 669.36 435.078C669.028 433.899 668.435 432.81 667.625 431.892Z" fill="black"/>
<path d="M684.849 398.202C684.849 404.438 682.637 410.472 678.606 415.231C674.576 419.989 668.989 423.165 662.838 424.192L662.708 424.213L662.607 424.129C660.93 422.731 659.079 421.556 657.1 420.633C658.212 421.653 659.192 422.808 660.017 424.071L660.297 424.493L659.792 424.517C659.355 424.538 658.922 424.549 658.503 424.549C656.043 424.551 653.595 424.211 651.228 423.54C640.477 420.481 628.932 419.958 616.914 421.985C614.854 422.332 612.768 422.506 610.678 422.506C601.848 422.502 593.307 419.356 586.584 413.63C579.862 407.904 575.398 399.971 573.991 391.254C572.584 382.536 574.326 373.602 578.905 366.052C583.484 358.501 590.602 352.828 598.983 350.046L599.238 349.962L599.339 350.211C600.132 352.084 600.625 354.071 600.799 356.097C601.292 353.955 601.503 351.759 601.427 349.562L601.419 349.33L601.644 349.274C604.599 348.538 607.633 348.165 610.678 348.166L611.008 348.167C613.34 348.174 615.647 347.69 617.779 346.745C619.912 345.8 621.821 344.417 623.382 342.685C625.943 339.871 629.083 337.644 632.586 336.159C636.09 334.674 639.873 333.966 643.676 334.083C647.48 334.2 651.213 335.139 654.618 336.836C658.024 338.533 661.021 340.948 663.404 343.914L663.515 344.052L663.442 344.213C661.903 347.606 660.226 350.077 658.224 351.885C660.793 350.68 663.144 349.057 665.182 347.084L665.445 346.828L665.63 347.145C667.979 351.173 669.216 355.753 669.214 360.416L669.214 360.549C669.213 360.596 669.213 360.643 669.213 360.69C669.213 367.823 671.972 374.584 676.794 379.26C679.33 381.722 681.349 384.666 682.732 387.919C684.115 391.171 684.835 394.668 684.849 398.202Z" fill="white"/>
<path d="M684.849 398.202C684.849 404.438 682.637 410.472 678.606 415.231C674.576 419.989 668.989 423.165 662.838 424.192L662.708 424.213L662.607 424.129C660.93 422.731 659.079 421.556 657.1 420.633C658.212 421.653 659.192 422.808 660.017 424.071L660.297 424.493L659.792 424.517C659.355 424.538 658.922 424.549 658.503 424.549C656.043 424.551 653.595 424.211 651.228 423.54C640.477 420.481 628.932 419.958 616.914 421.985C614.854 422.332 612.768 422.506 610.678 422.506C601.848 422.502 593.307 419.356 586.584 413.63C579.862 407.904 575.398 399.971 573.991 391.254C572.584 382.536 574.326 373.602 578.905 366.052C583.484 358.501 590.602 352.828 598.983 350.046L599.238 349.962L599.339 350.211C600.132 352.084 600.625 354.071 600.799 356.097C601.292 353.955 601.503 351.759 601.427 349.562L601.419 349.33L601.644 349.274C604.599 348.538 607.633 348.165 610.678 348.166L611.008 348.167C613.34 348.174 615.647 347.69 617.779 346.745C619.912 345.8 621.821 344.417 623.382 342.685C625.943 339.871 629.083 337.644 632.586 336.159C636.09 334.674 639.873 333.966 643.676 334.083C647.48 334.2 651.213 335.139 654.618 336.836C658.024 338.533 661.021 340.948 663.404 343.914L663.515 344.052L663.442 344.213C661.903 347.606 660.226 350.077 658.224 351.885C660.793 350.68 663.144 349.057 665.182 347.084L665.445 346.828L665.63 347.145C667.979 351.173 669.216 355.753 669.214 360.416L669.214 360.549C669.213 360.596 669.213 360.643 669.213 360.69C669.213 367.823 671.972 374.584 676.794 379.26C679.33 381.722 681.349 384.666 682.732 387.919C684.115 391.171 684.835 394.668 684.849 398.202Z" fill="url(#paint4_linear_8666_18671)" fill-opacity="0.8"/>
<path d="M684.849 398.202C684.849 404.438 682.637 410.472 678.606 415.231C674.576 419.989 668.989 423.165 662.838 424.192L662.708 424.213L662.607 424.129C660.93 422.731 659.079 421.556 657.1 420.633C658.212 421.653 659.192 422.808 660.017 424.071L660.297 424.493L659.792 424.517C659.355 424.538 658.922 424.549 658.503 424.549C656.043 424.551 653.595 424.211 651.228 423.54C640.477 420.481 628.932 419.958 616.914 421.985C614.854 422.332 612.768 422.506 610.678 422.506C601.848 422.502 593.307 419.356 586.584 413.63C579.862 407.904 575.398 399.971 573.991 391.254C572.584 382.536 574.326 373.602 578.905 366.052C583.484 358.501 590.602 352.828 598.983 350.046L599.238 349.962L599.339 350.211C600.132 352.084 600.625 354.071 600.799 356.097C601.292 353.955 601.503 351.759 601.427 349.562L601.419 349.33L601.644 349.274C604.599 348.538 607.633 348.165 610.678 348.166L611.008 348.167C613.34 348.174 615.647 347.69 617.779 346.745C619.912 345.8 621.821 344.417 623.382 342.685C625.943 339.871 629.083 337.644 632.586 336.159C636.09 334.674 639.873 333.966 643.676 334.083C647.48 334.2 651.213 335.139 654.618 336.836C658.024 338.533 661.021 340.948 663.404 343.914L663.515 344.052L663.442 344.213C661.903 347.606 660.226 350.077 658.224 351.885C660.793 350.68 663.144 349.057 665.182 347.084L665.445 346.828L665.63 347.145C667.979 351.173 669.216 355.753 669.214 360.416L669.214 360.549C669.213 360.596 669.213 360.643 669.213 360.69C669.213 367.823 671.972 374.584 676.794 379.26C679.33 381.722 681.349 384.666 682.732 387.919C684.115 391.171 684.835 394.668 684.849 398.202Z" fill="url(#paint5_linear_8666_18671)" fill-opacity="0.8"/>
<g opacity="0.15">
<path opacity="0.15" d="M652.64 335.939C651.731 337.447 650.614 338.818 649.32 340.012C651.172 339.142 652.914 338.054 654.507 336.77C653.896 336.469 653.273 336.192 652.64 335.939Z" fill="black"/>
<path opacity="0.15" d="M667.891 367.388C669.324 368.778 670.595 370.327 671.68 372.003C670.048 368.455 669.207 364.595 669.215 360.69C669.215 360.643 669.215 360.596 669.215 360.549L669.216 360.416C669.217 355.753 667.981 351.173 665.632 347.145L665.447 346.828L665.184 347.083C663.731 348.487 662.119 349.715 660.379 350.742C660.757 357.024 663.431 362.948 667.891 367.388Z" fill="black"/>
<path opacity="0.15" d="M660.312 348.54L660.312 348.673C660.312 348.72 660.312 348.768 660.312 348.814C660.312 349.073 660.316 349.331 660.324 349.589C661.564 347.919 662.611 346.115 663.444 344.209L663.518 344.048L663.407 343.91C662.017 342.181 660.416 340.632 658.641 339.301C659.746 342.256 660.312 345.385 660.312 348.54Z" fill="black"/>
<path opacity="0.15" d="M676.795 379.261C675.528 378.028 674.402 376.658 673.437 375.176C675.164 378.854 676.016 382.883 675.925 386.946C675.834 391.009 674.804 394.995 672.915 398.593C671.026 402.191 668.33 405.303 665.037 407.685C661.744 410.067 657.945 411.653 653.936 412.321L653.806 412.342L653.705 412.258C652.028 410.86 650.177 409.685 648.198 408.763C649.31 409.782 650.29 410.937 651.115 412.2L651.395 412.622L650.89 412.646C650.453 412.667 650.019 412.678 649.601 412.678C647.141 412.68 644.692 412.341 642.326 411.669C631.575 408.61 620.03 408.087 608.012 410.114C605.952 410.461 603.866 410.635 601.776 410.635C592.668 410.642 583.877 407.289 577.086 401.219C580.098 407.582 584.854 412.96 590.8 416.728C596.747 420.496 603.64 422.5 610.68 422.507C612.77 422.507 614.855 422.333 616.916 421.986C628.934 419.959 640.479 420.482 651.23 423.541C653.596 424.212 656.045 424.552 658.505 424.55C658.923 424.55 659.357 424.539 659.793 424.518L660.299 424.494L660.018 424.072C659.194 422.809 658.214 421.654 657.102 420.634C659.081 421.557 660.932 422.732 662.609 424.13L662.71 424.214L662.84 424.193C667.653 423.392 672.15 421.27 675.827 418.062C679.505 414.855 682.218 410.688 683.666 406.028C685.113 401.368 685.237 396.397 684.024 391.671C682.811 386.944 680.308 382.648 676.795 379.261V379.261Z" fill="black"/>
</g>
<path d="M154.433 436.941L135.144 422.297L125.742 431.699L157.166 453.203L154.433 436.941Z" fill="#0E0A01"/>
<path d="M172.419 477.267H238.403L236.088 469.768C221.745 464.576 229.802 453.415 216.158 446.594C182.786 429.908 169.867 380.115 174.754 360.432L152.884 359.508C152.884 359.508 122.683 445.275 172.419 477.267Z" fill="#0E0A01"/>
<path d="M112.343 434.204C112.251 432.757 111.871 431.344 111.225 430.046C110.579 428.748 109.68 427.593 108.582 426.647C108.567 426.634 108.552 426.621 108.537 426.608L108.495 426.571C107.021 425.275 105.918 423.611 105.297 421.749L105.249 421.603L105.402 421.591C106.593 421.495 107.759 421.203 108.854 420.726C107.543 420.835 106.223 420.67 104.979 420.243L104.908 420.221L104.895 420.148C104.62 418.57 104.69 416.952 105.1 415.404C105.511 413.856 106.251 412.415 107.272 411.181C108.292 409.946 109.567 408.948 111.011 408.253C112.454 407.559 114.03 407.186 115.631 407.159C116.613 407.146 117.58 406.928 118.472 406.516C119.363 406.105 120.157 405.511 120.803 404.772L120.894 404.667C121.741 403.705 122.702 402.85 123.756 402.12L123.836 402.065L123.907 402.132C124.58 402.766 125.333 403.31 126.147 403.75C125.555 403.131 125.064 402.424 124.693 401.652L124.642 401.551L124.74 401.494C127.948 399.618 131.72 398.946 135.379 399.598C139.037 400.249 142.345 402.182 144.709 405.05C147.073 407.918 148.339 411.534 148.28 415.25C148.221 418.966 146.841 422.539 144.387 425.331C143.807 425.991 143.172 426.602 142.49 427.157C138.668 430.191 135.577 434.045 133.443 438.433C132.997 439.367 132.424 440.236 131.74 441.012C131.623 441.145 131.499 441.279 131.371 441.411L131.223 441.564L131.168 441.358C130.998 440.746 130.905 440.115 130.892 439.481C130.634 440.362 130.49 441.274 130.466 442.193L130.465 442.248L130.422 442.283C128.831 443.582 126.91 444.413 124.874 444.683C122.839 444.954 120.768 444.653 118.893 443.815C117.018 442.978 115.412 441.635 114.256 439.938C113.099 438.241 112.437 436.256 112.343 434.204H112.343Z" fill="white"/>
<path d="M112.343 434.204C112.251 432.757 111.871 431.344 111.225 430.046C110.579 428.748 109.68 427.593 108.582 426.647C108.567 426.634 108.552 426.621 108.537 426.608L108.495 426.571C107.021 425.275 105.918 423.611 105.297 421.749L105.249 421.603L105.402 421.591C106.593 421.495 107.759 421.203 108.854 420.726C107.543 420.835 106.223 420.67 104.979 420.243L104.908 420.221L104.895 420.148C104.62 418.57 104.69 416.952 105.1 415.404C105.511 413.856 106.251 412.415 107.272 411.181C108.292 409.946 109.567 408.948 111.011 408.253C112.454 407.559 114.03 407.186 115.631 407.159C116.613 407.146 117.58 406.928 118.472 406.516C119.363 406.105 120.157 405.511 120.803 404.772L120.894 404.667C121.741 403.705 122.702 402.85 123.756 402.12L123.836 402.065L123.907 402.132C124.58 402.766 125.333 403.31 126.147 403.75C125.555 403.131 125.064 402.424 124.693 401.652L124.642 401.551L124.74 401.494C127.948 399.618 131.72 398.946 135.379 399.598C139.037 400.249 142.345 402.182 144.709 405.05C147.073 407.918 148.339 411.534 148.28 415.25C148.221 418.966 146.841 422.539 144.387 425.331C143.807 425.991 143.172 426.602 142.49 427.157C138.668 430.191 135.577 434.045 133.443 438.433C132.997 439.367 132.424 440.236 131.74 441.012C131.623 441.145 131.499 441.279 131.371 441.411L131.223 441.564L131.168 441.358C130.998 440.746 130.905 440.115 130.892 439.481C130.634 440.362 130.49 441.274 130.466 442.193L130.465 442.248L130.422 442.283C128.831 443.582 126.91 444.413 124.874 444.683C122.839 444.954 120.768 444.653 118.893 443.815C117.018 442.978 115.412 441.635 114.256 439.938C113.099 438.241 112.437 436.256 112.343 434.204H112.343Z" fill="url(#paint6_linear_8666_18671)" fill-opacity="0.8"/>
<path d="M112.343 434.204C112.251 432.757 111.871 431.344 111.225 430.046C110.579 428.748 109.68 427.593 108.582 426.647C108.567 426.634 108.552 426.621 108.537 426.608L108.495 426.571C107.021 425.275 105.918 423.611 105.297 421.749L105.249 421.603L105.402 421.591C106.593 421.495 107.759 421.203 108.854 420.726C107.543 420.835 106.223 420.67 104.979 420.243L104.908 420.221L104.895 420.148C104.62 418.57 104.69 416.952 105.1 415.404C105.511 413.856 106.251 412.415 107.272 411.181C108.292 409.946 109.567 408.948 111.011 408.253C112.454 407.559 114.03 407.186 115.631 407.159C116.613 407.146 117.58 406.928 118.472 406.516C119.363 406.105 120.157 405.511 120.803 404.772L120.894 404.667C121.741 403.705 122.702 402.85 123.756 402.12L123.836 402.065L123.907 402.132C124.58 402.766 125.333 403.31 126.147 403.75C125.555 403.131 125.064 402.424 124.693 401.652L124.642 401.551L124.74 401.494C127.948 399.618 131.72 398.946 135.379 399.598C139.037 400.249 142.345 402.182 144.709 405.05C147.073 407.918 148.339 411.534 148.28 415.25C148.221 418.966 146.841 422.539 144.387 425.331C143.807 425.991 143.172 426.602 142.49 427.157C138.668 430.191 135.577 434.045 133.443 438.433C132.997 439.367 132.424 440.236 131.74 441.012C131.623 441.145 131.499 441.279 131.371 441.411L131.223 441.564L131.168 441.358C130.998 440.746 130.905 440.115 130.892 439.481C130.634 440.362 130.49 441.274 130.466 442.193L130.465 442.248L130.422 442.283C128.831 443.582 126.91 444.413 124.874 444.683C122.839 444.954 120.768 444.653 118.893 443.815C117.018 442.978 115.412 441.635 114.256 439.938C113.099 438.241 112.437 436.256 112.343 434.204H112.343Z" fill="url(#paint7_linear_8666_18671)" fill-opacity="0.8"/>
<path opacity="0.15" d="M114.071 438.451C114.091 438.851 114.133 439.248 114.196 439.643C113.115 437.984 112.493 436.068 112.394 434.09C112.379 433.787 112.347 433.486 112.305 433.186C113.355 434.751 113.965 436.569 114.071 438.451Z" fill="black"/>
<path opacity="0.15" d="M110.581 424.979C109.701 425.36 108.773 425.622 107.823 425.758C107.457 425.372 107.119 424.96 106.812 424.525C108.025 424.931 109.307 425.085 110.581 424.979Z" fill="black"/>
<path opacity="0.15" d="M106.519 421.334C106.421 422.292 106.447 423.26 106.598 424.211C106.072 423.411 105.652 422.546 105.35 421.637L105.301 421.491L105.455 421.479C105.811 421.448 106.167 421.4 106.519 421.334Z" fill="black"/>
<path opacity="0.15" d="M107.542 410.807C108.563 409.649 109.814 408.716 111.215 408.068C112.617 407.42 114.137 407.072 115.681 407.044C116.662 407.032 117.63 406.813 118.521 406.402C119.413 405.991 120.207 405.396 120.853 404.657L120.944 404.553C121.791 403.59 122.751 402.735 123.805 402.006L123.886 401.95L123.957 402.017C124.63 402.652 125.383 403.196 126.197 403.635C125.605 403.017 125.114 402.309 124.742 401.538L124.692 401.437L124.789 401.379C126.917 400.134 129.308 399.41 131.768 399.265C134.229 399.121 136.688 399.559 138.947 400.546C141.205 401.533 143.198 403.04 144.763 404.944C146.329 406.848 147.422 409.094 147.953 411.501C146.929 409.703 145.559 408.126 143.922 406.861C142.284 405.596 140.412 404.669 138.413 404.133C136.414 403.598 134.329 403.464 132.279 403.74C130.228 404.015 128.253 404.696 126.467 405.74L126.369 405.798L126.42 405.899C126.791 406.67 127.282 407.378 127.874 407.996C127.06 407.557 126.307 407.013 125.634 406.378L125.563 406.311L125.483 406.367C124.429 407.096 123.468 407.951 122.622 408.914L122.53 409.018C121.884 409.757 121.09 410.352 120.199 410.763C119.308 411.174 118.34 411.393 117.358 411.405C114.792 411.448 112.321 412.381 110.365 414.042C108.409 415.704 107.09 417.993 106.634 420.519C106.091 420.422 105.555 420.291 105.029 420.128L104.958 420.107L104.945 420.033C104.657 418.399 104.741 416.721 105.191 415.124C105.64 413.527 106.444 412.051 107.542 410.807Z" fill="black"/>
<path d="M95.1157 339.483C101.65 333.147 105.388 323.985 105.388 314.319C105.388 314.255 105.388 314.191 105.388 314.127L105.387 313.947C105.385 307.628 107.061 301.422 110.244 295.963L110.494 295.533L110.851 295.879C113.613 298.554 116.8 300.753 120.281 302.386C117.568 299.936 115.295 296.587 113.209 291.989L113.11 291.771L113.26 291.585C116.49 287.565 120.552 284.292 125.167 281.992C129.782 279.692 134.841 278.419 139.995 278.261C145.149 278.103 150.276 279.063 155.024 281.075C159.771 283.088 164.026 286.105 167.497 289.919C169.613 292.266 172.2 294.14 175.09 295.42C177.979 296.7 181.106 297.357 184.266 297.348L184.713 297.346C188.839 297.345 192.951 297.85 196.955 298.848L197.26 298.924L197.249 299.238C197.146 302.215 197.432 305.192 198.1 308.094C198.337 305.348 199.005 302.656 200.079 300.118L200.216 299.78L200.562 299.894C211.92 303.663 221.565 311.352 227.771 321.584C233.976 331.816 236.337 343.923 234.43 355.737C232.523 367.551 226.473 378.3 217.364 386.06C208.254 393.82 196.679 398.084 184.713 398.088C181.881 398.088 179.054 397.852 176.262 397.383C159.976 394.636 144.331 395.345 129.761 399.49C126.554 400.4 123.236 400.86 119.902 400.857C119.335 400.857 118.747 400.842 118.156 400.814L117.471 400.781L117.851 400.209C118.969 398.497 120.296 396.932 121.804 395.551C119.122 396.801 116.613 398.393 114.341 400.288L114.204 400.402L114.028 400.373C107.505 399.288 101.411 396.412 96.4278 392.065C91.4443 387.718 87.7666 382.072 85.8051 375.757C83.8437 369.442 83.6756 362.706 85.3196 356.301C86.9637 349.896 90.3552 344.073 95.1157 339.483Z" fill="white"/>
<path d="M95.1157 339.483C101.65 333.147 105.388 323.985 105.388 314.319C105.388 314.255 105.388 314.191 105.388 314.127L105.387 313.947C105.385 307.628 107.061 301.422 110.244 295.963L110.494 295.533L110.851 295.879C113.613 298.554 116.8 300.753 120.281 302.386C117.568 299.936 115.295 296.587 113.209 291.989L113.11 291.771L113.26 291.585C116.49 287.565 120.552 284.292 125.167 281.992C129.782 279.692 134.841 278.419 139.995 278.261C145.149 278.103 150.276 279.063 155.024 281.075C159.771 283.088 164.026 286.105 167.497 289.919C169.613 292.266 172.2 294.14 175.09 295.42C177.979 296.7 181.106 297.357 184.266 297.348L184.713 297.346C188.839 297.345 192.951 297.85 196.955 298.848L197.26 298.924L197.249 299.238C197.146 302.215 197.432 305.192 198.1 308.094C198.337 305.348 199.005 302.656 200.079 300.118L200.216 299.78L200.562 299.894C211.92 303.663 221.565 311.352 227.771 321.584C233.976 331.816 236.337 343.923 234.43 355.737C232.523 367.551 226.473 378.3 217.364 386.06C208.254 393.82 196.679 398.084 184.713 398.088C181.881 398.088 179.054 397.852 176.262 397.383C159.976 394.636 144.331 395.345 129.761 399.49C126.554 400.4 123.236 400.86 119.902 400.857C119.335 400.857 118.747 400.842 118.156 400.814L117.471 400.781L117.851 400.209C118.969 398.497 120.296 396.932 121.804 395.551C119.122 396.801 116.613 398.393 114.341 400.288L114.204 400.402L114.028 400.373C107.505 399.288 101.411 396.412 96.4278 392.065C91.4443 387.718 87.7666 382.072 85.8051 375.757C83.8437 369.442 83.6756 362.706 85.3196 356.301C86.9637 349.896 90.3552 344.073 95.1157 339.483Z" fill="url(#paint8_linear_8666_18671)" fill-opacity="0.8"/>
<path d="M95.1157 339.483C101.65 333.147 105.388 323.985 105.388 314.319C105.388 314.255 105.388 314.191 105.388 314.127L105.387 313.947C105.385 307.628 107.061 301.422 110.244 295.963L110.494 295.533L110.851 295.879C113.613 298.554 116.8 300.753 120.281 302.386C117.568 299.936 115.295 296.587 113.209 291.989L113.11 291.771L113.26 291.585C116.49 287.565 120.552 284.292 125.167 281.992C129.782 279.692 134.841 278.419 139.995 278.261C145.149 278.103 150.276 279.063 155.024 281.075C159.771 283.088 164.026 286.105 167.497 289.919C169.613 292.266 172.2 294.14 175.09 295.42C177.979 296.7 181.106 297.357 184.266 297.348L184.713 297.346C188.839 297.345 192.951 297.85 196.955 298.848L197.26 298.924L197.249 299.238C197.146 302.215 197.432 305.192 198.1 308.094C198.337 305.348 199.005 302.656 200.079 300.118L200.216 299.78L200.562 299.894C211.92 303.663 221.565 311.352 227.771 321.584C233.976 331.816 236.337 343.923 234.43 355.737C232.523 367.551 226.473 378.3 217.364 386.06C208.254 393.82 196.679 398.084 184.713 398.088C181.881 398.088 179.054 397.852 176.262 397.383C159.976 394.636 144.331 395.345 129.761 399.49C126.554 400.4 123.236 400.86 119.902 400.857C119.335 400.857 118.747 400.842 118.156 400.814L117.471 400.781L117.851 400.209C118.969 398.497 120.296 396.932 121.804 395.551C119.122 396.801 116.613 398.393 114.341 400.288L114.204 400.402L114.028 400.373C107.505 399.288 101.411 396.412 96.4278 392.065C91.4443 387.718 87.7666 382.072 85.8051 375.757C83.8437 369.442 83.6756 362.706 85.3196 356.301C86.9637 349.896 90.3552 344.073 95.1157 339.483Z" fill="url(#paint9_linear_8666_18671)" fill-opacity="0.8"/>
<g opacity="0.15">
<path opacity="0.15" d="M127.847 280.777C129.078 282.82 130.592 284.678 132.345 286.296C129.835 285.117 127.475 283.643 125.316 281.903C126.145 281.495 126.988 281.12 127.847 280.777Z" fill="black"/>
<path opacity="0.15" d="M107.177 323.395C105.235 325.279 103.513 327.378 102.043 329.649C104.255 324.842 105.395 319.611 105.383 314.318C105.383 314.255 105.383 314.191 105.383 314.127L105.382 313.947C105.38 307.628 107.056 301.422 110.239 295.963L110.489 295.533L110.846 295.879C112.814 297.782 115 299.446 117.357 300.838C116.75 309.53 113.121 317.631 107.177 323.395Z" fill="black"/>
<path opacity="0.15" d="M117.449 297.859L117.45 298.039C117.45 298.103 117.45 298.167 117.45 298.23C117.45 298.581 117.444 298.931 117.434 299.28C115.752 297.018 114.334 294.572 113.205 291.989L113.105 291.771L113.256 291.585C115.139 289.241 117.309 287.142 119.715 285.338C118.217 289.343 117.45 293.583 117.449 297.859Z" fill="black"/>
<path opacity="0.15" d="M95.1118 339.484C96.8294 337.813 98.3557 335.956 99.6623 333.947C97.3223 338.933 96.1685 344.392 96.2913 349.898C96.4141 355.403 97.8101 360.806 100.37 365.682C102.93 370.558 106.584 374.775 111.046 378.002C115.509 381.23 120.658 383.38 126.09 384.285L126.266 384.314L126.403 384.2C128.675 382.305 131.184 380.713 133.866 379.463C132.359 380.844 131.031 382.409 129.913 384.121L129.533 384.693L130.218 384.726C130.81 384.754 131.397 384.769 131.965 384.769C135.298 384.772 138.616 384.312 141.824 383.402C156.393 379.257 172.038 378.548 188.324 381.295C191.117 381.764 193.943 382 196.775 382C209.118 382.009 221.031 377.466 230.234 369.24C226.152 377.863 219.707 385.151 211.649 390.257C203.591 395.363 194.249 398.079 184.709 398.088C181.877 398.088 179.05 397.852 176.258 397.383C159.972 394.636 144.327 395.345 129.758 399.49C126.55 400.4 123.232 400.86 119.898 400.857C119.331 400.857 118.744 400.843 118.152 400.814L117.467 400.781L117.847 400.209C118.965 398.497 120.293 396.932 121.8 395.551C119.118 396.801 116.609 398.393 114.337 400.288L114.2 400.402L114.024 400.373C107.501 399.288 101.407 396.412 96.4238 392.065C91.4403 387.718 87.7627 382.072 85.8012 375.757C83.8398 369.442 83.6717 362.706 85.3157 356.301C86.9598 349.896 90.3513 344.073 95.1118 339.484Z" fill="black"/>
</g>
<path d="M325.397 242.556C326.844 242.556 328.017 241.383 328.017 239.936C328.017 238.489 326.844 237.316 325.397 237.316C323.95 237.316 322.777 238.489 322.777 239.936C322.777 241.383 323.95 242.556 325.397 242.556Z" fill="white"/>
<path d="M521.365 304.388C522.233 304.388 522.937 303.684 522.937 302.816C522.937 301.948 522.233 301.244 521.365 301.244C520.497 301.244 519.793 301.948 519.793 302.816C519.793 303.684 520.497 304.388 521.365 304.388Z" fill="white"/>
<path d="M551.759 233.648C552.628 233.648 553.331 232.944 553.331 232.076C553.331 231.208 552.628 230.504 551.759 230.504C550.891 230.504 550.188 231.208 550.188 232.076C550.188 232.944 550.891 233.648 551.759 233.648Z" fill="white"/>
<path d="M270.377 186.492C271.245 186.492 271.949 185.788 271.949 184.92C271.949 184.051 271.245 183.348 270.377 183.348C269.508 183.348 268.805 184.051 268.805 184.92C268.805 185.788 269.508 186.492 270.377 186.492Z" fill="white"/>
<path d="M254.658 249.892C255.526 249.892 256.23 249.188 256.23 248.32C256.23 247.452 255.526 246.748 254.658 246.748C253.79 246.748 253.086 247.452 253.086 248.32C253.086 249.188 253.79 249.892 254.658 249.892Z" fill="white"/>
<path d="M449.056 246.747C449.925 246.747 450.628 246.044 450.628 245.175C450.628 244.307 449.925 243.604 449.056 243.604C448.188 243.604 447.484 244.307 447.484 245.175C447.484 246.044 448.188 246.747 449.056 246.747Z" fill="white"/>
<path d="M609.92 195.923C610.788 195.923 611.492 195.219 611.492 194.351C611.492 193.483 610.788 192.779 609.92 192.779C609.051 192.779 608.348 193.483 608.348 194.351C608.348 195.219 609.051 195.923 609.92 195.923Z" fill="white"/>
<path d="M242.501 333.768C240.511 330.081 240.233 325.25 242.677 321.848C243.886 326.24 246.61 330.064 250.367 332.641C251.819 333.63 253.537 334.579 254.034 336.264C254.296 337.339 254.135 338.472 253.584 339.431C253.035 340.378 252.367 341.251 251.596 342.028L251.525 342.291C247.921 340.156 244.492 337.454 242.501 333.768Z" fill="white"/>
<path d="M242.501 333.768C240.511 330.081 240.233 325.25 242.677 321.848C243.886 326.24 246.61 330.064 250.367 332.641C251.819 333.63 253.537 334.579 254.034 336.264C254.296 337.339 254.135 338.472 253.584 339.431C253.035 340.378 252.367 341.251 251.596 342.028L251.525 342.291C247.921 340.156 244.492 337.454 242.501 333.768Z" fill="url(#paint10_linear_8666_18671)" fill-opacity="0.8"/>
<path d="M242.501 333.768C240.511 330.081 240.233 325.25 242.677 321.848C243.886 326.24 246.61 330.064 250.367 332.641C251.819 333.63 253.537 334.579 254.034 336.264C254.296 337.339 254.135 338.472 253.584 339.431C253.035 340.378 252.367 341.251 251.596 342.028L251.525 342.291C247.921 340.156 244.492 337.454 242.501 333.768Z" fill="url(#paint11_linear_8666_18671)" fill-opacity="0.8"/>
<path d="M547.462 438.037C545.471 434.351 545.194 429.52 547.638 426.117C548.847 430.51 551.571 434.333 555.328 436.911C556.78 437.9 558.498 438.848 558.995 440.534C559.256 441.608 559.095 442.742 558.545 443.701C557.996 444.648 557.328 445.52 556.557 446.297L556.486 446.561C552.882 444.425 549.453 441.723 547.462 438.037Z" fill="white"/>
<path d="M547.462 438.037C545.471 434.351 545.194 429.52 547.638 426.117C548.847 430.51 551.571 434.333 555.328 436.911C556.78 437.9 558.498 438.848 558.995 440.534C559.256 441.608 559.095 442.742 558.545 443.701C557.996 444.648 557.328 445.52 556.557 446.297L556.486 446.561C552.882 444.425 549.453 441.723 547.462 438.037Z" fill="url(#paint12_linear_8666_18671)" fill-opacity="0.8"/>
<path d="M547.462 438.037C545.471 434.351 545.194 429.52 547.638 426.117C548.847 430.51 551.571 434.333 555.328 436.911C556.78 437.9 558.498 438.848 558.995 440.534C559.256 441.608 559.095 442.742 558.545 443.701C557.996 444.648 557.328 445.52 556.557 446.297L556.486 446.561C552.882 444.425 549.453 441.723 547.462 438.037Z" fill="url(#paint13_linear_8666_18671)" fill-opacity="0.8"/>
<path d="M380.31 352.631C378.319 348.945 378.041 344.113 380.486 340.711C381.695 345.104 384.419 348.927 388.175 351.505C389.628 352.494 391.346 353.442 391.843 355.128C392.104 356.202 391.943 357.336 391.393 358.295C390.844 359.242 390.175 360.114 389.404 360.891L389.334 361.155C385.73 359.019 382.301 356.317 380.31 352.631Z" fill="white"/>
<path d="M380.31 352.631C378.319 348.945 378.041 344.113 380.486 340.711C381.695 345.104 384.419 348.927 388.175 351.505C389.628 352.494 391.346 353.442 391.843 355.128C392.104 356.202 391.943 357.336 391.393 358.295C390.844 359.242 390.175 360.114 389.404 360.891L389.334 361.155C385.73 359.019 382.301 356.317 380.31 352.631Z" fill="url(#paint14_linear_8666_18671)" fill-opacity="0.8"/>
<path d="M380.31 352.631C378.319 348.945 378.041 344.113 380.486 340.711C381.695 345.104 384.419 348.927 388.175 351.505C389.628 352.494 391.346 353.442 391.843 355.128C392.104 356.202 391.943 357.336 391.393 358.295C390.844 359.242 390.175 360.114 389.404 360.891L389.334 361.155C385.73 359.019 382.301 356.317 380.31 352.631Z" fill="url(#paint15_linear_8666_18671)" fill-opacity="0.8"/>
<path d="M221.021 413.408C219.03 409.722 218.752 404.891 221.197 401.488C222.406 405.881 225.13 409.704 228.886 412.282C230.339 413.271 232.057 414.219 232.554 415.905C232.815 416.979 232.654 418.113 232.104 419.072C231.555 420.019 230.886 420.891 230.115 421.668L230.045 421.932C226.441 419.796 223.012 417.094 221.021 413.408Z" fill="white"/>
<path d="M221.021 413.408C219.03 409.722 218.752 404.891 221.197 401.488C222.406 405.881 225.13 409.704 228.886 412.282C230.339 413.271 232.057 414.219 232.554 415.905C232.815 416.979 232.654 418.113 232.104 419.072C231.555 420.019 230.886 420.891 230.115 421.668L230.045 421.932C226.441 419.796 223.012 417.094 221.021 413.408Z" fill="url(#paint16_linear_8666_18671)" fill-opacity="0.8"/>
<path d="M221.021 413.408C219.03 409.722 218.752 404.891 221.197 401.488C222.406 405.881 225.13 409.704 228.886 412.282C230.339 413.271 232.057 414.219 232.554 415.905C232.815 416.979 232.654 418.113 232.104 419.072C231.555 420.019 230.886 420.891 230.115 421.668L230.045 421.932C226.441 419.796 223.012 417.094 221.021 413.408Z" fill="url(#paint17_linear_8666_18671)" fill-opacity="0.8"/>
<path d="M201.107 458.475C199.116 454.788 198.838 449.957 201.283 446.555C202.492 450.947 205.215 454.771 208.972 457.348C210.424 458.337 212.143 459.286 212.64 460.971C212.901 462.046 212.74 463.179 212.19 464.138C211.641 465.085 210.972 465.958 210.201 466.735L210.131 466.998C206.527 464.863 203.098 462.161 201.107 458.475Z" fill="white"/>
<path d="M201.107 458.475C199.116 454.788 198.838 449.957 201.283 446.555C202.492 450.947 205.215 454.771 208.972 457.348C210.424 458.337 212.143 459.286 212.64 460.971C212.901 462.046 212.74 463.179 212.19 464.138C211.641 465.085 210.972 465.958 210.201 466.735L210.131 466.998C206.527 464.863 203.098 462.161 201.107 458.475Z" fill="url(#paint18_linear_8666_18671)" fill-opacity="0.8"/>
<path d="M201.107 458.475C199.116 454.788 198.838 449.957 201.283 446.555C202.492 450.947 205.215 454.771 208.972 457.348C210.424 458.337 212.143 459.286 212.64 460.971C212.901 462.046 212.74 463.179 212.19 464.138C211.641 465.085 210.972 465.958 210.201 466.735L210.131 466.998C206.527 464.863 203.098 462.161 201.107 458.475Z" fill="url(#paint19_linear_8666_18671)" fill-opacity="0.8"/>
<path d="M531.846 178.629H526.082V487.255H531.846V178.629Z" fill="#252117"/>
<path d="M529.227 153.479H529.227C518.809 153.479 510.363 161.924 510.363 172.342V172.342C510.363 182.76 518.809 191.205 529.227 191.205H529.227C539.645 191.205 548.09 182.76 548.09 172.342V172.342C548.09 161.924 539.645 153.479 529.227 153.479Z" fill="white"/>
<path d="M529.227 153.479H529.227C518.809 153.479 510.363 161.924 510.363 172.342V172.342C510.363 182.76 518.809 191.205 529.227 191.205H529.227C539.645 191.205 548.09 182.76 548.09 172.342V172.342C548.09 161.924 539.645 153.479 529.227 153.479Z" fill="url(#paint20_linear_8666_18671)" fill-opacity="0.8"/>
<path d="M529.227 153.479H529.227C518.809 153.479 510.363 161.924 510.363 172.342V172.342C510.363 182.76 518.809 191.205 529.227 191.205H529.227C539.645 191.205 548.09 182.76 548.09 172.342V172.342C548.09 161.924 539.645 153.479 529.227 153.479Z" fill="url(#paint21_linear_8666_18671)" fill-opacity="0.8"/>
<path d="M504.066 196.918H562.229V132.406L504.066 196.918ZM562.229 196.918H469.066L483.066 180.5L574.613 77.3984L562.229 123V196.918Z" fill="black"/>
<path d="M289.492 339.306C289.492 345.32 296.05 350.665 302.064 350.665C308.079 350.665 311.271 345.32 311.271 339.306C311.271 336.417 310.124 333.648 308.082 331.605C306.04 329.563 303.27 328.416 300.382 328.416C297.494 328.416 294.724 329.563 292.682 331.605C290.639 333.648 289.492 336.417 289.492 339.306H289.492Z" fill="#0E0A01"/>
<path d="M292.991 396.865L313.215 396.087L314.382 375.086H291.047L292.991 396.865Z" fill="#BE6F46"/>
<path d="M280.153 411.275C280.505 410.957 280.782 410.566 280.965 410.129C281.149 409.693 281.235 409.221 281.217 408.748C281.198 408.275 281.077 407.811 280.86 407.39C280.643 406.969 280.337 406.601 279.962 406.311L283.634 395.4L277.85 396.929L275.25 407.055C274.805 407.717 274.618 408.519 274.724 409.309C274.831 410.099 275.224 410.823 275.828 411.343C276.432 411.863 277.206 412.143 278.004 412.131C278.801 412.118 279.566 411.813 280.153 411.275V411.275Z" fill="#BE6F46"/>
<path d="M302.049 350.667C306.303 350.667 309.751 347.219 309.751 342.965C309.751 338.712 306.303 335.264 302.049 335.264C297.796 335.264 294.348 338.712 294.348 342.965C294.348 347.219 297.796 350.667 302.049 350.667Z" fill="#BE6F46"/>
<path d="M302.237 342.191L296.614 342.043C296.475 342.039 296.341 341.998 296.223 341.926C296.105 341.854 296.009 341.751 295.943 341.63L294.063 338.143C293.975 337.98 293.947 337.791 293.985 337.609C294.023 337.428 294.124 337.266 294.27 337.152L301.628 331.399C301.72 331.327 301.827 331.277 301.941 331.251C302.055 331.226 302.173 331.226 302.287 331.252L308.229 332.606C308.366 332.637 308.492 332.704 308.594 332.801C308.696 332.897 308.77 333.018 308.809 333.153L311.136 341.167C311.171 341.287 311.177 341.414 311.153 341.537C311.129 341.66 311.076 341.775 310.999 341.873C310.921 341.972 310.821 342.05 310.707 342.102C310.593 342.153 310.468 342.177 310.343 342.171L307.43 342.026C307.272 342.017 307.12 341.961 306.994 341.865C306.868 341.769 306.774 341.637 306.724 341.487L306.603 341.121C306.596 341.101 306.582 341.083 306.564 341.072C306.545 341.061 306.524 341.056 306.502 341.06C306.481 341.063 306.462 341.074 306.448 341.091C306.434 341.107 306.426 341.128 306.426 341.149C306.426 341.256 306.404 341.361 306.362 341.459C306.32 341.557 306.259 341.645 306.182 341.719C306.105 341.792 306.013 341.849 305.914 341.886C305.814 341.923 305.708 341.94 305.601 341.934L304.637 341.886C304.462 341.878 304.295 341.811 304.162 341.697C304.03 341.582 303.939 341.427 303.905 341.255L303.489 339.163C303.485 339.141 303.473 339.122 303.456 339.109C303.439 339.096 303.418 339.089 303.397 339.09C303.375 339.091 303.355 339.099 303.339 339.114C303.323 339.128 303.313 339.148 303.31 339.17L303.038 341.497C303.017 341.689 302.925 341.866 302.782 341.994C302.638 342.122 302.452 342.192 302.259 342.192L302.237 342.191Z" fill="#0E0A01"/>
<path d="M296.625 352.639L306.582 352.771L309.823 356.886L315.04 358.117L316.396 365.953C317.074 369.87 316.355 372.351 314.363 375.792L314.124 382.56L314.388 383.04C314.518 383.276 314.557 383.553 314.496 383.816C314.434 384.079 314.278 384.311 314.057 384.466C314.244 384.937 314.265 385.457 314.119 385.941L313.99 386.366C313.99 386.366 313.619 389.333 292.595 386.212C292.149 386.146 291.737 385.937 291.42 385.615C291.104 385.294 290.902 384.878 290.843 384.431C290.614 384.202 290.464 383.906 290.412 383.586C290.361 383.266 290.411 382.938 290.556 382.648L290.599 382.562L290.383 382.308C290.143 382.025 290.004 381.67 289.989 381.299C289.974 380.928 290.083 380.563 290.299 380.261L287.277 358.646L293.519 356.702L296.625 352.639Z" fill="white"/>
<path d="M296.625 352.639L306.582 352.771L309.823 356.886L315.04 358.117L316.396 365.953C317.074 369.87 316.355 372.351 314.363 375.792L314.124 382.56L314.388 383.04C314.518 383.276 314.557 383.553 314.496 383.816C314.434 384.079 314.278 384.311 314.057 384.466C314.244 384.937 314.265 385.457 314.119 385.941L313.99 386.366C313.99 386.366 313.619 389.333 292.595 386.212C292.149 386.146 291.737 385.937 291.42 385.615C291.104 385.294 290.902 384.878 290.843 384.431C290.614 384.202 290.464 383.906 290.412 383.586C290.361 383.266 290.411 382.938 290.556 382.648L290.599 382.562L290.383 382.308C290.143 382.025 290.004 381.67 289.989 381.299C289.974 380.928 290.083 380.563 290.299 380.261L287.277 358.646L293.519 356.702L296.625 352.639Z" fill="url(#paint22_linear_8666_18671)" fill-opacity="0.8"/>
<path d="M296.625 352.639L306.582 352.771L309.823 356.886L315.04 358.117L316.396 365.953C317.074 369.87 316.355 372.351 314.363 375.792L314.124 382.56L314.388 383.04C314.518 383.276 314.557 383.553 314.496 383.816C314.434 384.079 314.278 384.311 314.057 384.466C314.244 384.937 314.265 385.457 314.119 385.941L313.99 386.366C313.99 386.366 313.619 389.333 292.595 386.212C292.149 386.146 291.737 385.937 291.42 385.615C291.104 385.294 290.902 384.878 290.843 384.431C290.614 384.202 290.464 383.906 290.412 383.586C290.361 383.266 290.411 382.938 290.556 382.648L290.599 382.562L290.383 382.308C290.143 382.025 290.004 381.67 289.989 381.299C289.974 380.928 290.083 380.563 290.299 380.261L287.277 358.646L293.519 356.702L296.625 352.639Z" fill="url(#paint23_linear_8666_18671)" fill-opacity="0.8"/>
<path d="M289.771 360.713L287.279 358.645C287.279 358.645 285.063 359.3 283.515 363.665C281.967 368.03 276.656 401.144 276.656 401.144L282.879 398.032L291.702 373.703L289.771 360.713Z" fill="white"/>
<path d="M289.771 360.713L287.279 358.645C287.279 358.645 285.063 359.3 283.515 363.665C281.967 368.03 276.656 401.144 276.656 401.144L282.879 398.032L291.702 373.703L289.771 360.713Z" fill="url(#paint24_linear_8666_18671)" fill-opacity="0.8"/>
<path d="M289.771 360.713L287.279 358.645C287.279 358.645 285.063 359.3 283.515 363.665C281.967 368.03 276.656 401.144 276.656 401.144L282.879 398.032L291.702 373.703L289.771 360.713Z" fill="url(#paint25_linear_8666_18671)" fill-opacity="0.8"/>
<path d="M345.131 395.969C344.663 396.039 344.185 396.005 343.731 395.87C343.277 395.735 342.858 395.502 342.504 395.188C342.15 394.874 341.869 394.486 341.681 394.051C341.493 393.616 341.402 393.146 341.416 392.672L330.652 388.589L335.503 385.088L344.98 389.502C345.774 389.578 346.513 389.941 347.056 390.525C347.599 391.109 347.91 391.871 347.928 392.668C347.947 393.465 347.672 394.242 347.157 394.85C346.641 395.458 345.921 395.856 345.131 395.969Z" fill="#BE6F46"/>
<path d="M312.148 360.522L313.838 357.758C313.838 357.758 316.147 357.661 319.023 361.292C320.497 363.153 330.052 379.116 330.052 379.116L338.888 386.481L331.654 389.065L323.128 385.447L313.568 369.687L312.148 360.522Z" fill="white"/>
<path d="M312.148 360.522L313.838 357.758C313.838 357.758 316.147 357.661 319.023 361.292C320.497 363.153 330.052 379.116 330.052 379.116L338.888 386.481L331.654 389.065L323.128 385.447L313.568 369.687L312.148 360.522Z" fill="url(#paint26_linear_8666_18671)" fill-opacity="0.8"/>
<path d="M312.148 360.522L313.838 357.758C313.838 357.758 316.147 357.661 319.023 361.292C320.497 363.153 330.052 379.116 330.052 379.116L338.888 386.481L331.654 389.065L323.128 385.447L313.568 369.687L312.148 360.522Z" fill="url(#paint27_linear_8666_18671)" fill-opacity="0.8"/>
<path d="M312.423 492.396H317.235L319.524 473.834L312.422 473.834L312.423 492.396Z" fill="#BE6F46"/>
<path d="M270.293 489.404L274.95 490.617L281.847 473.233L274.974 471.441L270.293 489.404Z" fill="#BE6F46"/>
<path d="M311.229 490.024L318.836 489.57V492.83L326.069 497.825C326.426 498.071 326.695 498.426 326.836 498.836C326.978 499.247 326.985 499.691 326.855 500.106C326.726 500.52 326.468 500.883 326.118 501.14C325.769 501.397 325.346 501.536 324.912 501.536H315.855L314.294 498.312L313.684 501.536H310.27L311.229 490.024Z" fill="#0E0A01"/>
<path d="M269.316 486.697L276.792 488.177L275.97 491.331L281.709 497.988C281.992 498.317 282.163 498.728 282.197 499.161C282.23 499.594 282.124 500.026 281.895 500.394C281.665 500.763 281.324 501.048 280.921 501.209C280.517 501.37 280.073 501.397 279.653 501.288L270.889 499.003L270.192 495.49L268.789 498.456L265.484 497.595L269.316 486.697Z" fill="#0E0A01"/>
<path d="M270.886 477.732L284.992 448.739L286.099 414.423C283.046 408.753 292.037 396.245 292.037 396.245V391.4L314.001 395.544C318.494 407.797 320.673 420.778 320.426 433.826L319.541 480.733H319.819C320.047 480.733 320.274 480.777 320.485 480.864C320.696 480.951 320.888 481.079 321.049 481.241C321.211 481.402 321.339 481.594 321.427 481.805C321.514 482.016 321.559 482.242 321.559 482.47C321.559 482.698 321.514 482.925 321.427 483.136C321.339 483.347 321.211 483.538 321.049 483.699C320.888 483.861 320.696 483.989 320.485 484.076C320.274 484.163 320.047 484.208 319.819 484.207H311.133C310.905 484.208 310.679 484.163 310.467 484.076C310.256 483.989 310.065 483.861 309.903 483.699C309.741 483.538 309.613 483.347 309.526 483.136C309.438 482.925 309.393 482.698 309.393 482.47C309.393 482.242 309.438 482.016 309.526 481.805C309.613 481.594 309.741 481.402 309.903 481.241C310.065 481.079 310.256 480.951 310.467 480.864C310.679 480.777 310.905 480.733 311.133 480.733H311.357L305.122 421.06L297.872 450.507L280.351 477.62C280.798 477.655 281.214 477.862 281.512 478.197C281.809 478.532 281.966 478.969 281.948 479.417C281.93 479.865 281.739 480.289 281.415 480.599C281.091 480.909 280.66 481.081 280.212 481.08H271.526C271.122 481.081 270.731 480.94 270.419 480.683C270.108 480.426 269.896 480.068 269.82 479.671C269.744 479.274 269.809 478.863 270.004 478.509C270.198 478.155 270.51 477.88 270.886 477.732Z" fill="#0E0A01"/>
<path d="M270.691 340.437C273.937 337.262 275.98 333.087 278.668 329.428C281.355 325.769 285.141 322.416 289.677 322.212C291.187 322.1 292.693 322.492 293.956 323.328C294.578 323.753 295.079 324.332 295.41 325.009C295.741 325.685 295.891 326.436 295.844 327.188C296.323 325.843 298.463 325.54 299.296 326.699C300.13 327.858 299.162 329.79 297.734 329.816L297.594 329.262C296.889 330.324 295.979 331.235 294.917 331.94C293.855 332.645 292.663 333.131 291.411 333.368C291.145 333.416 290.872 333.394 290.618 333.304C290.363 333.214 290.136 333.06 289.959 332.857C289.782 332.653 289.661 332.408 289.607 332.143C289.553 331.879 289.569 331.605 289.653 331.349C284.751 332.321 286.307 341.462 283.393 345.522C280.48 349.581 272.153 349.187 267.239 350.099C262.495 350.979 257.882 348.345 253.773 345.814C256.817 346.276 259.926 346.032 262.86 345.099C265.793 344.167 268.473 342.572 270.691 340.437Z" fill="#0E0A01"/>
<path d="M454.05 450.794L439.264 444.271V438.663L444.534 438.633C445.351 438.629 446.147 438.368 446.809 437.888C447.471 437.408 447.966 436.733 448.225 435.957L451.926 424.852C452.122 424.264 452.176 423.638 452.082 423.025C451.989 422.411 451.751 421.829 451.388 421.326C451.026 420.823 450.549 420.414 449.997 420.131C449.445 419.848 448.833 419.701 448.213 419.701H439.264V414.483H450.499C451.384 414.483 452.244 414.182 452.936 413.631C453.629 413.079 454.115 412.309 454.313 411.446L456.862 400.357C456.994 399.783 456.995 399.187 456.865 398.613C456.734 398.04 456.476 397.502 456.11 397.042C455.743 396.582 455.277 396.21 454.747 395.954C454.217 395.699 453.636 395.566 453.048 395.566H439.264V394.262C439.264 393.57 438.989 392.906 438.5 392.417C438.011 391.927 437.347 391.652 436.655 391.652C435.963 391.652 435.3 391.927 434.81 392.417C434.321 392.906 434.046 393.57 434.046 394.262V395.566H341.638V394.262C341.638 393.57 341.363 392.906 340.873 392.417C340.384 391.927 339.721 391.652 339.029 391.652C338.337 391.652 337.673 391.927 337.184 392.417C336.694 392.906 336.419 393.57 336.419 394.262V395.566H325.462C324.874 395.566 324.293 395.699 323.763 395.954C323.233 396.21 322.767 396.582 322.401 397.042C322.034 397.502 321.776 398.04 321.646 398.613C321.515 399.187 321.516 399.783 321.648 400.357L324.197 411.446C324.396 412.309 324.881 413.079 325.574 413.631C326.267 414.182 327.126 414.483 328.012 414.483H336.419V419.701H330.297C329.68 419.701 329.072 419.847 328.522 420.126C327.972 420.406 327.497 420.812 327.133 421.31C326.77 421.809 326.53 422.386 326.432 422.995C326.335 423.604 326.383 424.228 326.572 424.815L330.35 436.54C330.605 437.332 331.106 438.022 331.78 438.51C332.453 438.998 333.265 439.258 334.097 439.254L336.419 439.241V444.271L324.461 450.794C323.947 450.794 323.438 450.895 322.963 451.092C322.488 451.288 322.057 451.577 321.693 451.94C321.33 452.303 321.041 452.735 320.845 453.21C320.648 453.685 320.547 454.193 320.547 454.707C320.547 455.745 320.959 456.741 321.693 457.475C322.427 458.209 323.423 458.621 324.461 458.621H336.419V487.322C336.419 488.014 336.694 488.678 337.184 489.167C337.673 489.656 338.337 489.931 339.029 489.931C339.721 489.931 340.384 489.656 340.873 489.167C341.363 488.678 341.638 488.014 341.638 487.322V458.621H434.046V487.322C434.046 488.014 434.321 488.678 434.81 489.167C435.3 489.656 435.963 489.931 436.655 489.931C437.347 489.931 438.011 489.656 438.5 489.167C438.989 488.678 439.264 488.014 439.264 487.322V458.621H454.05C455.088 458.621 456.083 458.209 456.817 457.475C457.551 456.741 457.963 455.745 457.963 454.707C457.963 454.193 457.862 453.685 457.665 453.21C457.469 452.735 457.181 452.303 456.817 451.94C456.454 451.577 456.022 451.288 455.547 451.092C455.073 450.895 454.564 450.794 454.05 450.794ZM341.638 414.483H434.046V419.701H341.638V414.483ZM341.638 444.271V439.211L434.046 438.692V444.271L341.638 444.271Z" fill="#252117"/>
<path d="M178.158 233.648C179.026 233.648 179.73 232.944 179.73 232.076C179.73 231.208 179.026 230.504 178.158 230.504C177.29 230.504 176.586 231.208 176.586 232.076C176.586 232.944 177.29 233.648 178.158 233.648Z" fill="white"/>
<defs>
<radialGradient id="paint0_diamond_8666_18671" cx="0" cy="0" r="1" gradientUnits="userSpaceOnUse" gradientTransform="translate(382.032 358.65) rotate(38.7841) scale(325.776 648.746)">
<stop stop-color="#4BAA73"/>
<stop offset="1" stop-color="#F0F5F3"/>
</radialGradient>
<radialGradient id="paint1_diamond_8666_18671" cx="0" cy="0" r="1" gradientUnits="userSpaceOnUse" gradientTransform="translate(645.997 206.297) rotate(54.7969) scale(1.119 2.14974)">
<stop stop-color="#4BAA73"/>
<stop offset="1" stop-color="#F0F5F3"/>
</radialGradient>
<linearGradient id="paint2_linear_8666_18671" x1="669.7" y1="456.961" x2="636.212" y2="424.852" gradientUnits="userSpaceOnUse">
<stop stop-color="#252117"/>
<stop offset="1" stop-opacity="0"/>
</linearGradient>
<linearGradient id="paint3_linear_8666_18671" x1="637.562" y1="423.443" x2="670.439" y2="455.578" gradientUnits="userSpaceOnUse">
<stop offset="0.484375" stop-color="#4BAA73"/>
<stop offset="1" stop-opacity="0"/>
</linearGradient>
<linearGradient id="paint4_linear_8666_18671" x1="684.849" y1="424.549" x2="596.283" y2="315.568" gradientUnits="userSpaceOnUse">
<stop stop-color="#252117"/>
<stop offset="1" stop-opacity="0"/>
</linearGradient>
<linearGradient id="paint5_linear_8666_18671" x1="573.516" y1="334.07" x2="660.055" y2="442.624" gradientUnits="userSpaceOnUse">
<stop offset="0.484375" stop-color="#4BAA73"/>
<stop offset="1" stop-opacity="0"/>
</linearGradient>
<linearGradient id="paint6_linear_8666_18671" x1="148.282" y1="444.78" x2="102.897" y2="401.267" gradientUnits="userSpaceOnUse">
<stop stop-color="#252117"/>
<stop offset="1" stop-opacity="0"/>
</linearGradient>
<linearGradient id="paint7_linear_8666_18671" x1="104.73" y1="399.355" x2="149.286" y2="442.903" gradientUnits="userSpaceOnUse">
<stop offset="0.484375" stop-color="#4BAA73"/>
<stop offset="1" stop-opacity="0"/>
</linearGradient>
<linearGradient id="paint8_linear_8666_18671" x1="235.074" y1="400.857" x2="115.052" y2="253.171" gradientUnits="userSpaceOnUse">
<stop stop-color="#252117"/>
<stop offset="1" stop-opacity="0"/>
</linearGradient>
<linearGradient id="paint9_linear_8666_18671" x1="84.1992" y1="278.244" x2="201.474" y2="425.352" gradientUnits="userSpaceOnUse">
<stop offset="0.484375" stop-color="#4BAA73"/>
<stop offset="1" stop-opacity="0"/>
</linearGradient>
<linearGradient id="paint10_linear_8666_18671" x1="254.157" y1="342.291" x2="235.506" y2="330.221" gradientUnits="userSpaceOnUse">
<stop stop-color="#252117"/>
<stop offset="1" stop-opacity="0"/>
</linearGradient>
<linearGradient id="paint11_linear_8666_18671" x1="240.926" y1="321.848" x2="259.366" y2="334.013" gradientUnits="userSpaceOnUse">
<stop offset="0.484375" stop-color="#4BAA73"/>
<stop offset="1" stop-opacity="0"/>
</linearGradient>
<linearGradient id="paint12_linear_8666_18671" x1="559.117" y1="446.561" x2="540.467" y2="434.491" gradientUnits="userSpaceOnUse">
<stop stop-color="#252117"/>
<stop offset="1" stop-opacity="0"/>
</linearGradient>
<linearGradient id="paint13_linear_8666_18671" x1="545.887" y1="426.117" x2="564.327" y2="438.283" gradientUnits="userSpaceOnUse">
<stop offset="0.484375" stop-color="#4BAA73"/>
<stop offset="1" stop-opacity="0"/>
</linearGradient>
<linearGradient id="paint14_linear_8666_18671" x1="391.965" y1="361.155" x2="373.315" y2="349.085" gradientUnits="userSpaceOnUse">
<stop stop-color="#252117"/>
<stop offset="1" stop-opacity="0"/>
</linearGradient>
<linearGradient id="paint15_linear_8666_18671" x1="378.734" y1="340.711" x2="397.175" y2="352.877" gradientUnits="userSpaceOnUse">
<stop offset="0.484375" stop-color="#4BAA73"/>
<stop offset="1" stop-opacity="0"/>
</linearGradient>
<linearGradient id="paint16_linear_8666_18671" x1="232.676" y1="421.932" x2="214.026" y2="409.862" gradientUnits="userSpaceOnUse">
<stop stop-color="#252117"/>
<stop offset="1" stop-opacity="0"/>
</linearGradient>
<linearGradient id="paint17_linear_8666_18671" x1="219.445" y1="401.488" x2="237.885" y2="413.654" gradientUnits="userSpaceOnUse">
<stop offset="0.484375" stop-color="#4BAA73"/>
<stop offset="1" stop-opacity="0"/>
</linearGradient>
<linearGradient id="paint18_linear_8666_18671" x1="212.762" y1="466.998" x2="194.112" y2="454.928" gradientUnits="userSpaceOnUse">
<stop stop-color="#252117"/>
<stop offset="1" stop-opacity="0"/>
</linearGradient>
<linearGradient id="paint19_linear_8666_18671" x1="199.531" y1="446.555" x2="217.971" y2="458.72" gradientUnits="userSpaceOnUse">
<stop offset="0.484375" stop-color="#4BAA73"/>
<stop offset="1" stop-opacity="0"/>
</linearGradient>
<linearGradient id="paint20_linear_8666_18671" x1="548.09" y1="191.205" x2="510.363" y2="153.478" gradientUnits="userSpaceOnUse">
<stop stop-color="#252117"/>
<stop offset="1" stop-opacity="0"/>
</linearGradient>
<linearGradient id="paint21_linear_8666_18671" x1="510.363" y1="153.479" x2="547.372" y2="191.205" gradientUnits="userSpaceOnUse">
<stop offset="0.484375" stop-color="#4BAA73"/>
<stop offset="1" stop-opacity="0"/>
</linearGradient>
<linearGradient id="paint22_linear_8666_18671" x1="316.645" y1="387.64" x2="282.176" y2="358.719" gradientUnits="userSpaceOnUse">
<stop stop-color="#252117"/>
<stop offset="1" stop-opacity="0"/>
</linearGradient>
<linearGradient id="paint23_linear_8666_18671" x1="287.277" y1="352.639" x2="321.204" y2="381.657" gradientUnits="userSpaceOnUse">
<stop offset="0.484375" stop-color="#4BAA73"/>
<stop offset="1" stop-opacity="0"/>
</linearGradient>
<linearGradient id="paint24_linear_8666_18671" x1="291.702" y1="401.144" x2="264.962" y2="391.676" gradientUnits="userSpaceOnUse">
<stop stop-color="#252117"/>
<stop offset="1" stop-opacity="0"/>
</linearGradient>
<linearGradient id="paint25_linear_8666_18671" x1="276.656" y1="358.645" x2="303.285" y2="368.255" gradientUnits="userSpaceOnUse">
<stop offset="0.484375" stop-color="#4BAA73"/>
<stop offset="1" stop-opacity="0"/>
</linearGradient>
<linearGradient id="paint26_linear_8666_18671" x1="338.888" y1="389.065" x2="307.967" y2="362.654" gradientUnits="userSpaceOnUse">
<stop stop-color="#252117"/>
<stop offset="1" stop-opacity="0"/>
</linearGradient>
<linearGradient id="paint27_linear_8666_18671" x1="312.148" y1="357.758" x2="342.573" y2="384.248" gradientUnits="userSpaceOnUse">
<stop offset="0.484375" stop-color="#4BAA73"/>
<stop offset="1" stop-opacity="0"/>
</linearGradient>
</defs>
</svg>
