<svg width="769" height="465" viewBox="0 0 769 465" fill="none" xmlns="http://www.w3.org/2000/svg">
<path d="M83.7398 240.352C98.7158 240.352 110.236 236.512 118.3 228.832C126.364 221.152 130.396 211.456 130.396 199.744C130.396 190.336 126.652 181.984 119.164 174.688C111.676 167.2 101.308 163.456 88.0598 163.456C69.8198 163.456 55.1318 168.352 43.9958 178.144L19.5158 168.064L25.8518 66.4H151.42V96.064H57.5318L53.7878 147.04H54.6518C65.7878 138.208 79.5158 133.792 95.8358 133.792C115.804 133.792 132.412 140.32 145.66 153.376C159.1 166.24 165.82 181.696 165.82 199.744C165.82 221.248 158.62 238.528 144.22 251.584C129.82 264.64 109.852 271.168 84.3158 271.168C53.7878 271.168 29.8838 263.296 12.6038 247.552L31.3238 224.512C46.2998 235.072 63.7718 240.352 83.7398 240.352ZM367.796 167.2C367.796 196.576 359.636 221.248 343.316 241.216C326.996 261.184 305.588 271.168 279.092 271.168C252.404 271.168 230.996 261.28 214.868 241.504C198.74 221.536 190.676 196.768 190.676 167.2C190.676 137.632 198.644 112.96 214.58 93.184C230.708 73.216 252.212 63.232 279.092 63.232C305.78 63.232 327.188 73.216 343.316 93.184C359.636 112.96 367.796 137.632 367.796 167.2ZM332.084 167.2C332.084 146.08 327.284 128.512 317.684 114.496C308.084 100.48 295.22 93.472 279.092 93.472C262.964 93.472 250.1 100.48 240.5 114.496C231.092 128.512 226.388 146.08 226.388 167.2C226.388 188.128 231.092 205.6 240.5 219.616C250.1 233.632 262.964 240.64 279.092 240.64C295.22 240.64 308.084 233.632 317.684 219.616C327.284 205.6 332.084 188.128 332.084 167.2ZM572.546 167.2C572.546 196.576 564.386 221.248 548.066 241.216C531.746 261.184 510.338 271.168 483.842 271.168C457.154 271.168 435.746 261.28 419.618 241.504C403.49 221.536 395.426 196.768 395.426 167.2C395.426 137.632 403.394 112.96 419.33 93.184C435.458 73.216 456.962 63.232 483.842 63.232C510.53 63.232 531.938 73.216 548.066 93.184C564.386 112.96 572.546 137.632 572.546 167.2ZM536.834 167.2C536.834 146.08 532.034 128.512 522.434 114.496C512.834 100.48 499.97 93.472 483.842 93.472C467.714 93.472 454.85 100.48 445.25 114.496C435.842 128.512 431.138 146.08 431.138 167.2C431.138 188.128 435.842 205.6 445.25 219.616C454.85 233.632 467.714 240.64 483.842 240.64C499.97 240.64 512.834 233.632 522.434 219.616C532.034 205.6 536.834 188.128 536.834 167.2Z" fill="#0E0A01"/>
<g clip-path="url(#clip0_8654_21180)">
<g opacity="0.1">
<path d="M768.49 315.114C768.501 326.466 767.128 337.778 764.401 348.797C763.483 352.51 762.417 356.146 761.202 359.705C759.716 364.098 757.994 368.407 756.044 372.614C755.06 374.742 754.021 376.828 752.926 378.872C752.944 390.513 750.547 402.032 745.888 412.7C737.464 431.84 722.444 447.316 703.564 456.308C691.759 461.94 678.859 464.902 665.78 464.983H216.607C196.622 465.025 176.983 459.775 159.685 449.766L159.419 449.616C156.956 448.174 154.553 446.647 152.213 445.035C146.947 441.398 142 437.319 137.425 432.844C131.232 426.792 125.775 420.031 121.167 412.7C110.345 395.516 104.612 375.618 104.632 355.31C93.6721 336.079 87.2812 313.044 87.2812 288.29C87.2812 257.059 97.4371 228.569 114.123 207.002C117.601 202.497 121.412 198.257 125.522 194.319C129.578 190.422 133.937 186.854 138.558 183.648C142.256 181.081 146.12 178.762 150.125 176.708C151.797 175.858 153.474 175.054 155.18 174.308C156.678 173.643 158.193 173.024 159.726 172.44C161.565 171.742 163.427 171.1 165.313 170.514C167.198 169.928 169.059 169.415 170.894 168.976C173.593 168.316 176.338 167.78 179.13 167.368C181.443 167.027 183.756 166.789 186.07 166.61C187.909 166.471 189.766 166.396 191.634 166.373H192.646C194.705 166.373 196.752 166.454 198.782 166.593C198.996 166.165 199.227 165.731 199.441 165.309C200.251 163.765 201.09 162.226 201.934 160.722C201.932 160.709 201.932 160.695 201.934 160.682C202.079 160.416 202.223 160.156 202.374 159.901C203.056 158.669 203.768 157.449 204.496 156.24C204.832 155.662 205.161 155.118 205.503 154.575C205.575 154.439 205.654 154.308 205.74 154.181C206.087 153.603 206.44 153.025 206.798 152.446C208.583 149.593 210.44 146.79 212.368 144.037L212.859 143.331C213.16 142.903 213.438 142.487 213.773 142.059C214.571 140.943 215.392 139.821 216.219 138.722C216.798 137.935 217.376 137.155 218.001 136.409C219.505 134.481 221.047 132.553 222.628 130.625C224.208 128.697 225.851 126.794 227.555 124.917C227.787 124.656 228.018 124.402 228.261 124.147L230.73 121.452C230.852 121.325 230.956 121.209 231.072 121.094C231.367 120.776 231.65 120.458 231.968 120.151C233.292 118.746 234.652 117.369 236.017 115.998C242.963 109.08 250.363 102.632 258.167 96.6987C258.474 96.4558 258.786 96.2245 259.093 95.9931C260.562 94.8885 262.054 93.7954 263.546 92.7197C271.754 86.8317 280.333 81.4804 289.231 76.6993C289.844 76.3465 290.469 76.0168 291.099 75.6929C299.076 71.4727 307.28 67.6961 315.673 64.3803C320.248 62.5701 324.927 60.8697 329.635 59.3139C332.769 58.2845 335.916 57.3071 339.102 56.3875C344.084 54.9532 349.1 53.6673 354.151 52.5299C369.032 49.1909 384.17 47.1284 399.402 46.3646C404.028 46.1294 408.707 46.0079 413.438 46.0002C436.266 45.97 459.004 48.8464 481.106 54.5599C481.334 54.9052 481.647 55.1867 482.014 55.3779C482.381 55.5692 482.791 55.6638 483.205 55.653H485.148C485.993 55.8843 486.831 56.1156 487.676 56.3586C492.391 57.7158 497.039 59.1983 501.62 60.8061L502.776 61.2225C514.082 65.2426 525.082 70.0748 535.691 75.6814C545.254 80.7232 554.461 86.412 563.249 92.7081C564.603 93.6797 565.937 94.6591 567.251 95.6461C568.848 94.6244 570.471 93.645 572.121 92.7081C578.494 89.0786 585.263 86.1929 592.294 84.108C606.995 79.7577 622.549 79.1494 637.545 82.3382C656.775 86.4156 674.183 96.5368 688.243 110.932C693.968 116.822 699.064 123.292 703.448 130.237C703.766 130.735 704.084 131.238 704.391 131.747C708.159 137.894 711.398 144.351 714.072 151.047C714.171 151.295 714.269 151.527 714.356 151.77C716.825 158.04 718.816 164.487 720.313 171.058C720.382 171.393 720.463 171.723 720.533 172.058C721.932 178.417 722.883 184.866 723.378 191.358C723.378 191.589 723.378 191.826 723.424 192.069C723.667 195.428 723.791 198.821 723.794 202.248C723.794 205.314 723.69 208.356 723.5 211.375C723.5 211.704 723.453 212.046 723.424 212.387C723.372 213.26 723.297 214.122 723.222 215.001C727.639 218.564 731.773 222.464 735.587 226.666C737.272 228.506 738.903 230.414 740.48 232.392C745.283 238.412 749.505 244.874 753.088 251.692C762.868 270.153 768.49 291.87 768.49 315.114Z" fill="white"/>
<path d="M768.49 315.114C768.501 326.466 767.128 337.778 764.401 348.797C763.483 352.51 762.417 356.146 761.202 359.705C759.716 364.098 757.994 368.407 756.044 372.614C755.06 374.742 754.021 376.828 752.926 378.872C752.944 390.513 750.547 402.032 745.888 412.7C737.464 431.84 722.444 447.316 703.564 456.308C691.759 461.94 678.859 464.902 665.78 464.983H216.607C196.622 465.025 176.983 459.775 159.685 449.766L159.419 449.616C156.956 448.174 154.553 446.647 152.213 445.035C146.947 441.398 142 437.319 137.425 432.844C131.232 426.792 125.775 420.031 121.167 412.7C110.345 395.516 104.612 375.618 104.632 355.31C93.6721 336.079 87.2812 313.044 87.2812 288.29C87.2812 257.059 97.4371 228.569 114.123 207.002C117.601 202.497 121.412 198.257 125.522 194.319C129.578 190.422 133.937 186.854 138.558 183.648C142.256 181.081 146.12 178.762 150.125 176.708C151.797 175.858 153.474 175.054 155.18 174.308C156.678 173.643 158.193 173.024 159.726 172.44C161.565 171.742 163.427 171.1 165.313 170.514C167.198 169.928 169.059 169.415 170.894 168.976C173.593 168.316 176.338 167.78 179.13 167.368C181.443 167.027 183.756 166.789 186.07 166.61C187.909 166.471 189.766 166.396 191.634 166.373H192.646C194.705 166.373 196.752 166.454 198.782 166.593C198.996 166.165 199.227 165.731 199.441 165.309C200.251 163.765 201.09 162.226 201.934 160.722C201.932 160.709 201.932 160.695 201.934 160.682C202.079 160.416 202.223 160.156 202.374 159.901C203.056 158.669 203.768 157.449 204.496 156.24C204.832 155.662 205.161 155.118 205.503 154.575C205.575 154.439 205.654 154.308 205.74 154.181C206.087 153.603 206.44 153.025 206.798 152.446C208.583 149.593 210.44 146.79 212.368 144.037L212.859 143.331C213.16 142.903 213.438 142.487 213.773 142.059C214.571 140.943 215.392 139.821 216.219 138.722C216.798 137.935 217.376 137.155 218.001 136.409C219.505 134.481 221.047 132.553 222.628 130.625C224.208 128.697 225.851 126.794 227.555 124.917C227.787 124.656 228.018 124.402 228.261 124.147L230.73 121.452C230.852 121.325 230.956 121.209 231.072 121.094C231.367 120.776 231.65 120.458 231.968 120.151C233.292 118.746 234.652 117.369 236.017 115.998C242.963 109.08 250.363 102.632 258.167 96.6987C258.474 96.4558 258.786 96.2245 259.093 95.9931C260.562 94.8885 262.054 93.7954 263.546 92.7197C271.754 86.8317 280.333 81.4804 289.231 76.6993C289.844 76.3465 290.469 76.0168 291.099 75.6929C299.076 71.4727 307.28 67.6961 315.673 64.3803C320.248 62.5701 324.927 60.8697 329.635 59.3139C332.769 58.2845 335.916 57.3071 339.102 56.3875C344.084 54.9532 349.1 53.6673 354.151 52.5299C369.032 49.1909 384.17 47.1284 399.402 46.3646C404.028 46.1294 408.707 46.0079 413.438 46.0002C436.266 45.97 459.004 48.8464 481.106 54.5599C481.334 54.9052 481.647 55.1867 482.014 55.3779C482.381 55.5692 482.791 55.6638 483.205 55.653H485.148C485.993 55.8843 486.831 56.1156 487.676 56.3586C492.391 57.7158 497.039 59.1983 501.62 60.8061L502.776 61.2225C514.082 65.2426 525.082 70.0748 535.691 75.6814C545.254 80.7232 554.461 86.412 563.249 92.7081C564.603 93.6797 565.937 94.6591 567.251 95.6461C568.848 94.6244 570.471 93.645 572.121 92.7081C578.494 89.0786 585.263 86.1929 592.294 84.108C606.995 79.7577 622.549 79.1494 637.545 82.3382C656.775 86.4156 674.183 96.5368 688.243 110.932C693.968 116.822 699.064 123.292 703.448 130.237C703.766 130.735 704.084 131.238 704.391 131.747C708.159 137.894 711.398 144.351 714.072 151.047C714.171 151.295 714.269 151.527 714.356 151.77C716.825 158.04 718.816 164.487 720.313 171.058C720.382 171.393 720.463 171.723 720.533 172.058C721.932 178.417 722.883 184.866 723.378 191.358C723.378 191.589 723.378 191.826 723.424 192.069C723.667 195.428 723.791 198.821 723.794 202.248C723.794 205.314 723.69 208.356 723.5 211.375C723.5 211.704 723.453 212.046 723.424 212.387C723.372 213.26 723.297 214.122 723.222 215.001C727.639 218.564 731.773 222.464 735.587 226.666C737.272 228.506 738.903 230.414 740.48 232.392C745.283 238.412 749.505 244.874 753.088 251.692C762.868 270.153 768.49 291.87 768.49 315.114Z" fill="url(#paint0_linear_8654_21180)" fill-opacity="0.8"/>
<path d="M768.49 315.114C768.501 326.466 767.128 337.778 764.401 348.797C763.483 352.51 762.417 356.146 761.202 359.705C759.716 364.098 757.994 368.407 756.044 372.614C755.06 374.742 754.021 376.828 752.926 378.872C752.944 390.513 750.547 402.032 745.888 412.7C737.464 431.84 722.444 447.316 703.564 456.308C691.759 461.94 678.859 464.902 665.78 464.983H216.607C196.622 465.025 176.983 459.775 159.685 449.766L159.419 449.616C156.956 448.174 154.553 446.647 152.213 445.035C146.947 441.398 142 437.319 137.425 432.844C131.232 426.792 125.775 420.031 121.167 412.7C110.345 395.516 104.612 375.618 104.632 355.31C93.6721 336.079 87.2812 313.044 87.2812 288.29C87.2812 257.059 97.4371 228.569 114.123 207.002C117.601 202.497 121.412 198.257 125.522 194.319C129.578 190.422 133.937 186.854 138.558 183.648C142.256 181.081 146.12 178.762 150.125 176.708C151.797 175.858 153.474 175.054 155.18 174.308C156.678 173.643 158.193 173.024 159.726 172.44C161.565 171.742 163.427 171.1 165.313 170.514C167.198 169.928 169.059 169.415 170.894 168.976C173.593 168.316 176.338 167.78 179.13 167.368C181.443 167.027 183.756 166.789 186.07 166.61C187.909 166.471 189.766 166.396 191.634 166.373H192.646C194.705 166.373 196.752 166.454 198.782 166.593C198.996 166.165 199.227 165.731 199.441 165.309C200.251 163.765 201.09 162.226 201.934 160.722C201.932 160.709 201.932 160.695 201.934 160.682C202.079 160.416 202.223 160.156 202.374 159.901C203.056 158.669 203.768 157.449 204.496 156.24C204.832 155.662 205.161 155.118 205.503 154.575C205.575 154.439 205.654 154.308 205.74 154.181C206.087 153.603 206.44 153.025 206.798 152.446C208.583 149.593 210.44 146.79 212.368 144.037L212.859 143.331C213.16 142.903 213.438 142.487 213.773 142.059C214.571 140.943 215.392 139.821 216.219 138.722C216.798 137.935 217.376 137.155 218.001 136.409C219.505 134.481 221.047 132.553 222.628 130.625C224.208 128.697 225.851 126.794 227.555 124.917C227.787 124.656 228.018 124.402 228.261 124.147L230.73 121.452C230.852 121.325 230.956 121.209 231.072 121.094C231.367 120.776 231.65 120.458 231.968 120.151C233.292 118.746 234.652 117.369 236.017 115.998C242.963 109.08 250.363 102.632 258.167 96.6987C258.474 96.4558 258.786 96.2245 259.093 95.9931C260.562 94.8885 262.054 93.7954 263.546 92.7197C271.754 86.8317 280.333 81.4804 289.231 76.6993C289.844 76.3465 290.469 76.0168 291.099 75.6929C299.076 71.4727 307.28 67.6961 315.673 64.3803C320.248 62.5701 324.927 60.8697 329.635 59.3139C332.769 58.2845 335.916 57.3071 339.102 56.3875C344.084 54.9532 349.1 53.6673 354.151 52.5299C369.032 49.1909 384.17 47.1284 399.402 46.3646C404.028 46.1294 408.707 46.0079 413.438 46.0002C436.266 45.97 459.004 48.8464 481.106 54.5599C481.334 54.9052 481.647 55.1867 482.014 55.3779C482.381 55.5692 482.791 55.6638 483.205 55.653H485.148C485.993 55.8843 486.831 56.1156 487.676 56.3586C492.391 57.7158 497.039 59.1983 501.62 60.8061L502.776 61.2225C514.082 65.2426 525.082 70.0748 535.691 75.6814C545.254 80.7232 554.461 86.412 563.249 92.7081C564.603 93.6797 565.937 94.6591 567.251 95.6461C568.848 94.6244 570.471 93.645 572.121 92.7081C578.494 89.0786 585.263 86.1929 592.294 84.108C606.995 79.7577 622.549 79.1494 637.545 82.3382C656.775 86.4156 674.183 96.5368 688.243 110.932C693.968 116.822 699.064 123.292 703.448 130.237C703.766 130.735 704.084 131.238 704.391 131.747C708.159 137.894 711.398 144.351 714.072 151.047C714.171 151.295 714.269 151.527 714.356 151.77C716.825 158.04 718.816 164.487 720.313 171.058C720.382 171.393 720.463 171.723 720.533 172.058C721.932 178.417 722.883 184.866 723.378 191.358C723.378 191.589 723.378 191.826 723.424 192.069C723.667 195.428 723.791 198.821 723.794 202.248C723.794 205.314 723.69 208.356 723.5 211.375C723.5 211.704 723.453 212.046 723.424 212.387C723.372 213.26 723.297 214.122 723.222 215.001C727.639 218.564 731.773 222.464 735.587 226.666C737.272 228.506 738.903 230.414 740.48 232.392C745.283 238.412 749.505 244.874 753.088 251.692C762.868 270.153 768.49 291.87 768.49 315.114Z" fill="url(#paint1_linear_8654_21180)" fill-opacity="0.8"/>
</g>
<g opacity="0.1">
<path d="M703.134 454.168C703.134 458.118 689.526 461.819 665.778 465H216.606C196.621 465.043 176.982 459.793 159.684 449.784L159.418 449.633C166.243 447.146 178.561 444.827 195.328 442.734L196.08 442.641C203.598 441.722 212.002 440.848 221.186 440.021C221.418 440.021 221.655 439.986 221.886 439.958C229.173 439.31 236.925 438.703 245.142 438.136C245.402 438.136 245.656 438.089 245.917 438.078C249.086 437.85 252.321 437.634 255.621 437.43L256.894 437.349C280.924 435.857 308.24 434.666 337.863 433.879H337.898C342.047 433.763 346.24 433.661 350.477 433.573C355.189 433.461 359.958 433.362 364.786 433.278C368.47 433.197 372.2 433.139 375.942 433.081H376.029C392.911 432.826 410.354 432.699 428.191 432.699C472.296 432.699 513.984 433.503 550.923 434.949H551.027C556.707 435.169 562.282 435.412 567.718 435.66L572.345 435.88C578.48 436.173 584.456 436.487 590.274 436.823C658.693 440.715 703.134 447.037 703.134 454.168Z" fill="white"/>
<path d="M703.134 454.168C703.134 458.118 689.526 461.819 665.778 465H216.606C196.621 465.043 176.982 459.793 159.684 449.784L159.418 449.633C166.243 447.146 178.561 444.827 195.328 442.734L196.08 442.641C203.598 441.722 212.002 440.848 221.186 440.021C221.418 440.021 221.655 439.986 221.886 439.958C229.173 439.31 236.925 438.703 245.142 438.136C245.402 438.136 245.656 438.089 245.917 438.078C249.086 437.85 252.321 437.634 255.621 437.43L256.894 437.349C280.924 435.857 308.24 434.666 337.863 433.879H337.898C342.047 433.763 346.24 433.661 350.477 433.573C355.189 433.461 359.958 433.362 364.786 433.278C368.47 433.197 372.2 433.139 375.942 433.081H376.029C392.911 432.826 410.354 432.699 428.191 432.699C472.296 432.699 513.984 433.503 550.923 434.949H551.027C556.707 435.169 562.282 435.412 567.718 435.66L572.345 435.88C578.48 436.173 584.456 436.487 590.274 436.823C658.693 440.715 703.134 447.037 703.134 454.168Z" fill="url(#paint2_linear_8654_21180)" fill-opacity="0.8"/>
<path d="M703.134 454.168C703.134 458.118 689.526 461.819 665.778 465H216.606C196.621 465.043 176.982 459.793 159.684 449.784L159.418 449.633C166.243 447.146 178.561 444.827 195.328 442.734L196.08 442.641C203.598 441.722 212.002 440.848 221.186 440.021C221.418 440.021 221.655 439.986 221.886 439.958C229.173 439.31 236.925 438.703 245.142 438.136C245.402 438.136 245.656 438.089 245.917 438.078C249.086 437.85 252.321 437.634 255.621 437.43L256.894 437.349C280.924 435.857 308.24 434.666 337.863 433.879H337.898C342.047 433.763 346.24 433.661 350.477 433.573C355.189 433.461 359.958 433.362 364.786 433.278C368.47 433.197 372.2 433.139 375.942 433.081H376.029C392.911 432.826 410.354 432.699 428.191 432.699C472.296 432.699 513.984 433.503 550.923 434.949H551.027C556.707 435.169 562.282 435.412 567.718 435.66L572.345 435.88C578.48 436.173 584.456 436.487 590.274 436.823C658.693 440.715 703.134 447.037 703.134 454.168Z" fill="url(#paint3_linear_8654_21180)" fill-opacity="0.8"/>
</g>
<g opacity="0.2">
<path opacity="0.2" d="M480.734 430.046C480.716 430.67 480.644 431.291 480.52 431.903C476.495 431.263 472.447 430.684 468.375 430.168C468.375 430.006 468.375 429.838 468.375 429.67C468.413 427.936 468.912 426.243 469.821 424.766C471.012 422.88 472.823 421.701 474.818 421.764C476.813 421.828 478.542 423.118 479.612 425.067C480.422 426.597 480.809 428.316 480.734 430.046V430.046Z" fill="#252117"/>
<path opacity="0.2" d="M481.068 420.161C481.209 415.689 478.555 411.975 475.139 411.867C471.723 411.759 468.839 415.298 468.697 419.77C468.556 424.243 471.211 427.957 474.627 428.065C478.043 428.173 480.927 424.634 481.068 420.161Z" fill="#252117"/>
<path opacity="0.2" d="M481.38 410.261C481.522 405.788 478.867 402.075 475.451 401.967C472.035 401.859 469.151 405.397 469.01 409.87C468.868 414.343 471.523 418.056 474.939 418.164C478.355 418.272 481.239 414.734 481.38 410.261Z" fill="#252117"/>
<path opacity="0.2" d="M481.693 400.359C481.834 395.886 479.18 392.172 475.764 392.064C472.348 391.957 469.464 395.495 469.322 399.968C469.181 404.441 471.836 408.154 475.252 408.262C478.668 408.37 481.552 404.831 481.693 400.359Z" fill="#252117"/>
<path opacity="0.2" d="M482.002 390.456C482.143 385.984 479.488 382.27 476.072 382.162C472.656 382.054 469.772 385.593 469.631 390.065C469.49 394.538 472.144 398.252 475.56 398.36C478.976 398.467 481.86 394.929 482.002 390.456Z" fill="#252117"/>
<path opacity="0.2" d="M454.766 321.754C453.952 320.651 453.217 319.492 452.569 318.284L468.913 316.127L451.319 315.705C449.749 311.981 448.955 307.975 448.986 303.934C449.017 299.893 449.872 295.9 451.499 292.2L474.702 305.184L453.448 288.505C455.592 285.037 458.428 282.048 461.779 279.726C465.13 277.403 468.924 275.796 472.924 275.006C476.924 274.216 481.044 274.258 485.026 275.132C489.009 276.005 492.768 277.69 496.071 280.082C499.373 282.473 502.146 285.52 504.218 289.032C506.289 292.544 507.615 296.445 508.111 300.492C508.607 304.539 508.264 308.644 507.102 312.552C505.94 316.461 503.985 320.087 501.359 323.206C502.625 324.921 503.702 326.769 504.568 328.718L483.117 339.012L505.864 332.17C507.296 336.897 507.527 341.906 506.536 346.745C505.544 351.583 503.361 356.097 500.184 359.879C503.487 364.36 505.462 369.68 505.883 375.23C506.305 380.78 505.156 386.337 502.568 391.265C499.98 396.193 496.057 400.293 491.248 403.097C486.44 405.9 480.939 407.294 475.376 407.119C469.812 406.943 464.41 405.206 459.788 402.105C455.165 399.004 451.509 394.665 449.237 389.583C446.964 384.502 446.167 378.884 446.938 373.371C447.708 367.859 450.014 362.674 453.592 358.41C449.647 353.056 447.616 346.53 447.825 339.882C448.035 333.234 450.474 326.85 454.749 321.754H454.766Z" fill="#4BAA73"/>
<path opacity="0.1" d="M507.125 341.755C506.922 348.406 504.476 354.794 500.184 359.88C503.487 364.361 505.462 369.681 505.883 375.231C506.305 380.781 505.156 386.338 502.568 391.266C499.98 396.194 496.057 400.294 491.248 403.098C486.44 405.901 480.939 407.295 475.376 407.12C469.812 406.944 464.41 405.207 459.788 402.106C455.165 399.005 451.509 394.666 449.237 389.584C446.964 384.503 446.167 378.885 446.938 373.372C447.708 367.86 450.014 362.675 453.592 358.411C449.792 353.247 507.229 338.429 507.125 341.755Z" fill="#0E0A01"/>
</g>
<g opacity="0.2">
<path opacity="0.2" d="M392.824 430.046C392.806 430.67 392.734 431.291 392.61 431.903C388.585 431.263 384.536 430.684 380.465 430.168C380.465 430.006 380.465 429.838 380.465 429.67C380.503 427.936 381.002 426.243 381.911 424.766C383.102 422.88 384.912 421.701 386.908 421.764C388.903 421.828 390.632 423.118 391.702 425.067C392.512 426.597 392.899 428.316 392.824 430.046V430.046Z" fill="#252117"/>
<path opacity="0.2" d="M393.15 420.165C393.291 415.692 390.637 411.979 387.221 411.871C383.805 411.763 380.921 415.302 380.779 419.774C380.638 424.247 383.293 427.961 386.709 428.069C390.125 428.176 393.009 424.638 393.15 420.165Z" fill="#252117"/>
<path opacity="0.2" d="M393.466 410.263C393.608 405.79 390.953 402.077 387.537 401.969C384.121 401.861 381.237 405.399 381.096 409.872C380.954 414.345 383.609 418.058 387.025 418.166C390.441 418.274 393.325 414.736 393.466 410.263Z" fill="#252117"/>
<path opacity="0.2" d="M393.775 400.361C393.916 395.888 391.262 392.174 387.846 392.066C384.43 391.959 381.546 395.497 381.404 399.97C381.263 404.442 383.918 408.156 387.334 408.264C390.75 408.372 393.634 404.833 393.775 400.361Z" fill="#252117"/>
<path opacity="0.2" d="M394.084 390.46C394.225 385.987 391.57 382.274 388.154 382.166C384.738 382.058 381.854 385.596 381.713 390.069C381.572 394.542 384.226 398.255 387.642 398.363C391.058 398.471 393.942 394.933 394.084 390.46Z" fill="#252117"/>
<path opacity="0.2" d="M366.856 321.754C366.042 320.651 365.307 319.492 364.658 318.284L381.003 316.127L363.409 315.705C361.839 311.981 361.045 307.975 361.076 303.934C361.107 299.893 361.962 295.9 363.588 292.2L386.792 305.184L365.537 288.505C367.682 285.037 370.518 282.048 373.869 279.726C377.22 277.403 381.014 275.796 385.014 275.006C389.013 274.216 393.133 274.258 397.116 275.132C401.099 276.005 404.858 277.69 408.16 280.082C411.462 282.473 414.236 285.52 416.308 289.032C418.379 292.544 419.705 296.445 420.201 300.492C420.697 304.539 420.354 308.644 419.192 312.552C418.03 316.461 416.075 320.087 413.448 323.206C414.715 324.921 415.791 326.769 416.658 328.718L395.207 339.012L417.954 332.17C419.386 336.897 419.617 341.906 418.625 346.745C417.634 351.583 415.451 356.097 412.274 359.879C415.577 364.36 417.552 369.68 417.973 375.23C418.395 380.78 417.246 386.337 414.658 391.265C412.069 396.193 408.147 400.293 403.338 403.097C398.53 405.9 393.029 407.294 387.466 407.119C381.902 406.943 376.5 405.206 371.878 402.105C367.255 399.004 363.599 394.665 361.326 389.583C359.054 384.502 358.257 378.884 359.028 373.371C359.798 367.859 362.104 362.674 365.682 358.41C361.737 353.056 359.706 346.53 359.915 339.882C360.125 333.234 362.564 326.85 366.839 321.754H366.856Z" fill="#4BAA73"/>
<path opacity="0.1" d="M419.214 341.755C419.012 348.406 416.566 354.794 412.274 359.88C415.577 364.361 417.552 369.681 417.973 375.231C418.394 380.781 417.245 386.338 414.657 391.266C412.069 396.194 408.147 400.294 403.338 403.098C398.53 405.901 393.029 407.295 387.466 407.12C381.902 406.944 376.5 405.207 371.878 402.106C367.255 399.005 363.599 394.666 361.326 389.584C359.054 384.503 358.257 378.885 359.028 373.372C359.798 367.86 362.104 362.675 365.682 358.411C361.882 353.247 419.319 338.429 419.214 341.755Z" fill="#0E0A01"/>
</g>
<g opacity="0.2">
<path opacity="0.2" d="M632.957 436.373C632.913 437.554 632.772 438.731 632.535 439.889C624.785 438.651 616.979 437.545 609.117 436.569C609.117 436.257 609.117 435.939 609.117 435.615C609.191 432.275 610.153 429.015 611.905 426.171C614.218 422.544 617.688 420.271 621.523 420.387C625.357 420.503 628.694 422.995 630.777 426.749C632.347 429.706 633.099 433.028 632.957 436.373V436.373Z" fill="#252117"/>
<path opacity="0.2" d="M633.586 417.331C633.859 408.717 628.745 401.566 622.165 401.358C615.585 401.15 610.031 407.964 609.758 416.578C609.486 425.191 614.6 432.342 621.18 432.55C627.759 432.758 633.314 425.944 633.586 417.331Z" fill="#252117"/>
<path opacity="0.2" d="M634.188 398.268C634.46 389.655 629.347 382.503 622.767 382.295C616.187 382.087 610.632 388.902 610.36 397.515C610.088 406.129 615.201 413.28 621.781 413.488C628.361 413.696 633.916 406.882 634.188 398.268Z" fill="#252117"/>
<path opacity="0.2" d="M634.797 379.206C635.07 370.592 629.956 363.441 623.376 363.233C616.796 363.025 611.242 369.839 610.969 378.453C610.697 387.066 615.811 394.217 622.391 394.425C628.97 394.633 634.525 387.819 634.797 379.206Z" fill="#252117"/>
<path opacity="0.2" d="M634.718 359.275C634.977 350.657 629.849 343.511 623.266 343.314C616.683 343.116 611.137 349.942 610.878 358.56C610.62 367.178 615.747 374.324 622.33 374.522C628.913 374.719 634.46 367.893 634.718 359.275Z" fill="#252117"/>
<path opacity="0.2" d="M582.96 227.899C581.399 225.776 579.987 223.548 578.732 221.231L610.195 217.078L576.332 216.263C573.307 209.094 571.777 201.383 571.835 193.603C571.892 185.822 573.537 178.135 576.667 171.012L621.345 196.003L580.432 163.893C584.569 157.232 590.033 151.495 596.485 147.039C602.936 142.583 610.235 139.504 617.929 137.993C625.622 136.481 633.544 136.571 641.202 138.255C648.859 139.94 656.087 143.184 662.436 147.785C668.785 152.385 674.118 158.244 678.103 164.996C682.088 171.748 684.64 179.249 685.6 187.03C686.559 194.812 685.906 202.708 683.68 210.225C681.454 217.743 677.704 224.722 672.663 230.727C675.099 234.032 677.172 237.59 678.845 241.34L637.545 261.172L681.332 247.985C684.092 257.074 684.541 266.707 682.639 276.013C680.738 285.319 676.545 294.003 670.442 301.281C676.798 309.907 680.599 320.147 681.409 330.832C682.22 341.516 680.007 352.213 675.025 361.7C670.042 371.186 662.491 379.079 653.234 384.475C643.977 389.872 633.389 392.555 622.679 392.217C611.969 391.88 601.57 388.535 592.672 382.566C583.773 376.597 576.734 368.244 572.359 358.463C567.984 348.681 566.45 337.866 567.932 327.254C569.413 316.642 573.852 306.661 580.739 298.452C573.148 288.144 569.24 275.584 569.642 262.789C570.045 249.993 574.735 237.704 582.96 227.893V227.899Z" fill="#4BAA73"/>
<path opacity="0.1" d="M683.767 266.393C683.388 279.192 678.701 291.488 670.465 301.291C676.822 309.917 680.622 320.158 681.433 330.843C682.243 341.527 680.031 352.224 675.049 361.71C670.066 371.197 662.515 379.089 653.258 384.486C644.001 389.883 633.412 392.566 622.702 392.228C611.992 391.89 601.594 388.546 592.695 382.577C583.797 376.607 576.757 368.255 572.382 358.473C568.007 348.692 566.473 337.877 567.955 327.265C569.437 316.653 573.875 306.672 580.762 298.463C573.394 288.51 683.97 259.991 683.767 266.393Z" fill="#0E0A01"/>
</g>
<path d="M178.57 437.389L184.637 437.371H193.191L204.006 261.679L311.112 82.9502L306.456 77.9532V65.2988L190.623 257.538L178.57 437.389Z" fill="#D5AD98"/>
<path opacity="0.1" d="M185.285 437.371H193.191L204.006 261.679L311.112 82.9501L306.456 77.9531L195.979 259.001L185.285 437.371Z" fill="#0E0A01"/>
<path d="M160.691 438.853L438.214 460.09L438.452 460.107L707.033 443.589L707.236 443.578V432.236L411.292 426.805L164.387 426.568H162.583L162.386 427.841L160.691 438.853Z" fill="#D5AD98"/>
<path opacity="0.1" d="M160.691 438.853L438.214 460.09L438.452 460.107L707.033 443.589L707.236 443.37V432.473H706.999L438.214 441.449L164.387 426.568H164.347L163.861 426.886L162.386 427.841L160.691 438.853Z" fill="#0E0A01"/>
<path opacity="0.1" d="M160.691 438.853L438.215 460.09V441.45L163.861 426.887L162.386 427.841L160.691 438.853Z" fill="#0E0A01"/>
<path d="M306.418 77.7178L428.769 209.039L424.986 440.033L435.379 441.288L435.553 441.312H445.946L447.189 218.958L676.293 295.485L680.156 431.746L688.519 432.683L691.353 433.001L684.794 286.035L445.298 201.954L313.977 65.4336H306.418V77.7178Z" fill="#D5AD98"/>
<path opacity="0.1" d="M446.25 214.705L447.193 218.956L676.296 295.484L680.159 431.744L688.522 432.681L681.964 292.65L446.25 214.705Z" fill="#0E0A01"/>
<path opacity="0.1" d="M306.418 77.7178L428.769 209.039L424.986 440.033L435.379 441.288L438.213 201.48L306.418 65.4336V77.7178Z" fill="#0E0A01"/>
<path d="M446.695 307.411L530.724 323.957L530.753 323.963L677.927 352.956L684.665 350.255L684.642 349.781L684.202 340.383L446.782 292.408L446.695 307.411Z" fill="#D5AD98"/>
<path opacity="0.1" d="M530.75 323.963L677.924 352.956L684.662 350.255L684.638 349.781L530.75 323.963Z" fill="#0E0A01"/>
<path d="M536.379 248.748L538.652 373.869L539.826 438.061L550.173 437.714L556.685 437.494L554.661 250.558L550.173 249.066L549.189 248.748H536.379Z" fill="#D5AD98"/>
<path opacity="0.1" d="M536.473 248.719V248.748L538.653 373.869L539.827 438.06L550.174 437.713V248.719H536.473Z" fill="#0E0A01"/>
<path d="M374.306 280.702C374.913 281.032 375.493 281.409 376.041 281.829C376.689 282.397 377.27 283.035 377.776 283.732C380.257 286.942 382.547 290.673 382.304 294.721C382.309 295.31 382.198 295.894 381.977 296.44C381.755 296.986 381.428 297.483 381.014 297.902C379.991 298.775 378.522 298.816 377.18 298.816C375.723 298.816 374.19 298.816 372.929 298.064C371.668 297.312 370.616 295.849 369.124 295.884C368.913 295.918 368.698 295.918 368.487 295.884C367.973 295.716 367.868 295.039 367.533 294.611C366.955 293.842 365.734 294.033 364.826 294.368C363.918 294.704 362.912 295.207 362.016 294.819C361.495 294.545 361.07 294.119 360.795 293.599C358.649 290.129 358.193 285.959 357.788 281.928C357.539 279.476 355.642 271.113 360.876 273.015C363.19 273.848 365.353 275.514 367.458 276.734L374.306 280.702Z" fill="#252117"/>
<path d="M369.135 281.529C369.602 281.865 370.169 282.035 370.744 282.012C371.32 281.989 371.871 281.774 372.31 281.402C373.171 280.624 373.72 279.559 373.854 278.406C374.432 278.227 374.727 278.984 375.098 279.447C375.745 280.233 377.064 280.222 377.654 281.06C378.065 281.639 377.972 282.443 378.261 283.096C378.637 283.941 379.568 284.38 380.204 285.063C380.805 285.808 381.239 286.674 381.477 287.602L382.425 290.447C382.879 291.631 383.171 292.87 383.293 294.131C383.353 294.762 383.286 295.398 383.098 296.003C382.909 296.608 382.602 297.169 382.194 297.653C380.922 299.024 378.834 299.169 376.989 299.128C376.373 299.141 375.758 299.069 375.161 298.914C373.524 298.405 372.478 296.757 372.044 295.097C371.61 293.437 371.656 291.696 371.402 289.996C371.127 288.326 370.641 286.697 369.956 285.149C369.447 283.946 368.047 282.154 368.071 280.875C368.487 280.875 368.788 281.257 369.135 281.529Z" fill="#252117"/>
<path d="M371.213 275.67C370.943 274.849 370.786 273.994 370.745 273.131C370.745 271.396 371.537 269.765 372.335 268.215L365.725 269.111C364.927 269.221 364.036 269.383 363.585 270.048C363.414 270.378 363.324 270.744 363.324 271.115C363.324 271.487 363.414 271.853 363.585 272.182C363.916 272.842 364.18 273.534 364.372 274.247C364.387 274.871 364.458 275.492 364.586 276.104C364.791 276.552 365.08 276.959 365.436 277.301C367.327 279.394 368.744 281.864 370.155 284.31C370.115 284.241 374.14 281.124 373.978 280.106C373.885 279.527 372.723 278.833 372.353 278.278C371.842 277.472 371.457 276.593 371.213 275.67V275.67Z" fill="#8A4621"/>
<path d="M427.892 253.074V258.771L330.341 277.799L325.281 280.864H307.82V277.654L403.665 254.497L427.892 253.074Z" fill="#D5AD98"/>
<path opacity="0.1" d="M427.892 258.771L330.341 277.799L325.281 280.865H307.82L404.377 260.2L427.892 258.771Z" fill="#0E0A01"/>
<path d="M349.571 414.793C348.484 413.477 346.984 412.567 345.314 412.212C343.644 411.857 341.903 412.078 340.375 412.838C340.048 412.992 339.759 413.217 339.531 413.497C338.952 414.307 339.322 415.423 339.375 416.424C339.508 418.865 337.564 420.848 335.818 422.554C334.881 423.468 333.926 424.446 333.504 425.689C333.082 426.933 333.394 428.512 334.528 429.159C335.023 429.407 335.561 429.557 336.113 429.599C337.961 429.959 339.857 430.012 341.723 429.755C343.568 429.402 345.378 428.355 346.176 426.655C346.33 426.194 346.585 425.773 346.922 425.423C347.94 424.619 349.501 425.562 350.658 424.989C351.612 424.515 351.653 423.769 351.665 422.786C351.699 420.068 351.294 416.991 349.571 414.793Z" fill="white"/>
<path d="M349.571 414.793C348.484 413.477 346.984 412.567 345.314 412.212C343.644 411.857 341.903 412.078 340.375 412.838C340.048 412.992 339.759 413.217 339.531 413.497C338.952 414.307 339.322 415.423 339.375 416.424C339.508 418.865 337.564 420.848 335.818 422.554C334.881 423.468 333.926 424.446 333.504 425.689C333.082 426.933 333.394 428.512 334.528 429.159C335.023 429.407 335.561 429.557 336.113 429.599C337.961 429.959 339.857 430.012 341.723 429.755C343.568 429.402 345.378 428.355 346.176 426.655C346.33 426.194 346.585 425.773 346.922 425.423C347.94 424.619 349.501 425.562 350.658 424.989C351.612 424.515 351.653 423.769 351.665 422.786C351.699 420.068 351.294 416.991 349.571 414.793Z" fill="url(#paint4_linear_8654_21180)" fill-opacity="0.8"/>
<path d="M349.571 414.793C348.484 413.477 346.984 412.567 345.314 412.212C343.644 411.857 341.903 412.078 340.375 412.838C340.048 412.992 339.759 413.217 339.531 413.497C338.952 414.307 339.322 415.423 339.375 416.424C339.508 418.865 337.564 420.848 335.818 422.554C334.881 423.468 333.926 424.446 333.504 425.689C333.082 426.933 333.394 428.512 334.528 429.159C335.023 429.407 335.561 429.557 336.113 429.599C337.961 429.959 339.857 430.012 341.723 429.755C343.568 429.402 345.378 428.355 346.176 426.655C346.33 426.194 346.585 425.773 346.922 425.423C347.94 424.619 349.501 425.562 350.658 424.989C351.612 424.515 351.653 423.769 351.665 422.786C351.699 420.068 351.294 416.991 349.571 414.793Z" fill="url(#paint5_linear_8654_21180)" fill-opacity="0.8"/>
<path d="M363.45 414.688C364.162 416.562 364.26 418.604 364.353 420.605C364.405 421.762 364.439 422.999 363.815 423.977C363.19 424.954 361.97 425.469 360.801 425.712C358.39 426.209 355.596 425.741 354.04 423.826C352.849 422.363 352.6 420.356 352.82 418.459C353.005 416.904 353.399 415.082 352.282 413.977C351.993 413.682 351.617 413.474 351.351 413.156C350.773 412.45 350.865 411.386 351.178 410.519C351.584 409.689 351.889 408.813 352.086 407.91C352.132 407.482 359.917 408.211 360.634 408.564C361.611 409.044 361.461 409.848 361.756 410.819C362.166 412.173 362.953 413.393 363.45 414.688Z" fill="white"/>
<path d="M363.45 414.688C364.162 416.562 364.26 418.604 364.353 420.605C364.405 421.762 364.439 422.999 363.815 423.977C363.19 424.954 361.97 425.469 360.801 425.712C358.39 426.209 355.596 425.741 354.04 423.826C352.849 422.363 352.6 420.356 352.82 418.459C353.005 416.904 353.399 415.082 352.282 413.977C351.993 413.682 351.617 413.474 351.351 413.156C350.773 412.45 350.865 411.386 351.178 410.519C351.584 409.689 351.889 408.813 352.086 407.91C352.132 407.482 359.917 408.211 360.634 408.564C361.611 409.044 361.461 409.848 361.756 410.819C362.166 412.173 362.953 413.393 363.45 414.688Z" fill="url(#paint6_linear_8654_21180)" fill-opacity="0.8"/>
<path d="M363.45 414.688C364.162 416.562 364.26 418.604 364.353 420.605C364.405 421.762 364.439 422.999 363.815 423.977C363.19 424.954 361.97 425.469 360.801 425.712C358.39 426.209 355.596 425.741 354.04 423.826C352.849 422.363 352.6 420.356 352.82 418.459C353.005 416.904 353.399 415.082 352.282 413.977C351.993 413.682 351.617 413.474 351.351 413.156C350.773 412.45 350.865 411.386 351.178 410.519C351.584 409.689 351.889 408.813 352.086 407.91C352.132 407.482 359.917 408.211 360.634 408.564C361.611 409.044 361.461 409.848 361.756 410.819C362.166 412.173 362.953 413.393 363.45 414.688Z" fill="url(#paint7_linear_8654_21180)" fill-opacity="0.8"/>
<path d="M364.878 331.602C366.405 332.591 366.995 334.534 367.232 336.339C367.886 341.284 366.74 346.281 366.654 351.272C366.573 358.264 368.597 365.384 366.868 372.156C365.832 376.205 366.712 380.832 365.74 384.921C365.451 386.135 364.919 387.28 364.641 388.495C364.063 391.126 364.67 393.879 365.485 396.453C365.746 397.147 365.911 397.872 365.977 398.61C365.938 399.746 365.65 400.86 365.133 401.872L361.663 410.079C361.275 410.999 359.748 411.149 358.771 411.271C356.932 411.49 354.878 411.646 353.415 410.507C351.952 409.368 351.599 407.459 351.374 405.678C350.941 402.258 350.748 398.812 350.795 395.366C350.859 394.466 350.779 393.562 350.558 392.688C350.24 391.699 349.54 390.843 349.349 389.796C349.106 388.443 349.795 387.113 350.049 385.748C350.224 384.501 350.204 383.235 349.991 381.994C349.766 380.143 349.506 378.293 349.211 376.454C348.794 373.88 349.39 371.341 349.789 368.761C350.165 366.338 349.685 363.869 349.211 361.463C349.252 363.415 349.008 365.364 348.488 367.246C348.181 368.166 347.742 369.045 347.476 369.982C346.29 374.186 348.817 378.599 348.459 382.954C348.291 384.99 347.493 387.003 347.718 389.01C347.875 390.479 348.557 391.826 349.026 393.226C349.494 394.625 349.737 396.228 349.026 397.535C347.146 401.086 348.551 405.915 350.234 409.559C350.576 410.205 350.873 410.873 351.125 411.56C351.622 413.202 351.206 414.966 351.339 416.678C350.855 416.757 350.358 416.725 349.888 416.584C349.418 416.443 348.987 416.196 348.626 415.863C348.372 415.597 348.164 415.284 347.915 415.007C347.22 414.344 346.398 413.831 345.498 413.497C344.969 413.201 344.367 413.063 343.762 413.098C343.127 413.276 342.555 413.631 342.114 414.122C341.542 414.625 340.935 415.087 340.298 415.504C340.027 415.713 339.709 415.853 339.373 415.915C339.203 415.941 339.03 415.913 338.878 415.835C338.725 415.757 338.601 415.633 338.523 415.481C338.486 415.384 338.465 415.283 338.459 415.18C338.244 413.434 338.13 411.677 338.118 409.917C338.118 406.892 334.497 404.81 334.04 401.82C333.676 399.408 334.353 396.95 334.127 394.521C334.017 393.272 333.67 392.046 333.693 390.797C333.693 389.987 333.878 389.195 333.942 388.391C333.995 387.498 333.981 386.603 333.902 385.713L333.722 382.92C333.549 380.161 333.358 377.344 332.271 374.823C330.981 371.878 330.218 368.731 330.015 365.523C329.899 363.498 329.974 361.474 329.743 359.444C329.535 357.611 329.072 355.789 329.205 353.95C329.315 352.527 329.784 351.151 329.894 349.728C330.119 346.992 329.078 344.332 328.263 341.712C327.447 339.092 326.846 336.189 327.916 333.661C328.068 333.246 328.323 332.876 328.656 332.585C329.066 332.314 329.533 332.14 330.021 332.076C339.944 329.992 350.115 329.343 360.222 330.151C361.87 330.244 363.469 330.743 364.878 331.602Z" fill="#252117"/>
<path d="M332.046 270.175C337.164 270.175 341.312 266.027 341.312 260.91C341.312 255.793 337.164 251.645 332.046 251.645C326.929 251.645 322.781 255.793 322.781 260.91C322.781 266.027 326.929 270.175 332.046 270.175Z" fill="#8A4621"/>
<path d="M330.254 272.482C330.387 273.012 330.387 273.566 330.254 274.096C330.108 274.466 329.903 274.81 329.647 275.114C328.75 276.271 327.757 277.35 326.68 278.341C327.229 279.567 328.217 280.543 329.45 281.077C330.674 281.598 331.958 281.965 333.273 282.17C333.929 282.342 334.612 282.39 335.286 282.309C335.906 282.153 336.494 281.886 337.021 281.522L342.168 278.44C342.945 278.019 343.664 277.5 344.308 276.895C345.252 275.925 345.786 274.629 345.8 273.275C345.824 273.032 345.758 272.79 345.615 272.592C345.418 272.421 345.17 272.317 344.909 272.297C343.099 271.898 341.671 270.429 340.861 268.764C340.129 267.056 339.655 265.249 339.456 263.402L333.967 266.294C333.151 266.728 332.342 267.162 331.497 267.538C330.959 267.78 329.872 267.983 329.49 268.475C328.762 269.383 330.063 271.389 330.254 272.482Z" fill="#8A4621"/>
<path d="M326.714 276.659C325.933 277.3 325.322 278.124 324.938 279.059C324.58 280.216 324.938 281.436 325.262 282.581C326.78 287.462 327.94 292.447 328.732 297.497C329.218 300.967 329.398 304.489 329.635 308C330.121 315.16 330.826 326.577 331.769 333.69C335.239 333.847 338.622 332.834 342.064 332.464C348.495 331.782 355.117 333.343 361.415 331.886C359.888 325.854 358.362 315.553 356.835 309.527C356.159 307.152 355.691 304.724 355.435 302.268C355.302 300.504 355.383 298.735 355.406 296.959C355.458 293.489 355.267 290.019 355.077 286.549C354.857 282.5 354.637 278.452 353.677 274.49C353.61 273.985 353.373 273.518 353.006 273.166C352.428 272.743 351.676 272.894 350.988 272.986C348.88 273.254 346.747 272.748 344.984 271.564C344.221 271.043 343.197 270.407 342.486 270.985C342.182 271.334 341.982 271.761 341.907 272.217C341.593 273.035 341.107 273.777 340.482 274.392C339.858 275.008 339.11 275.483 338.287 275.786C336.639 276.382 334.913 276.737 333.163 276.838C332.627 276.953 332.069 276.89 331.572 276.659C330.751 276.156 330.693 274.345 329.658 274.224C328.75 274.12 327.327 276.075 326.714 276.659Z" fill="#252117"/>
<path d="M340.396 290.782C338.262 288.74 337.325 285.779 335.77 283.263C334.71 281.571 333.357 280.083 331.773 278.868C330.977 278.342 330.247 277.722 329.599 277.023C329.049 276.346 328.633 275.444 327.8 275.183C327.456 275.109 327.099 275.118 326.759 275.212C326.42 275.306 326.108 275.48 325.851 275.721C325.341 276.207 324.858 276.721 324.405 277.26C321.953 279.799 317.644 280.151 315.701 283.09C315.177 283.712 314.82 284.459 314.666 285.258C314.106 289.535 315.212 293.862 317.754 297.346C318.246 298.153 319.002 298.766 319.894 299.081C319.773 300.159 319.916 301.251 320.31 302.262C321.381 305.922 322.697 309.507 324.249 312.99C323.878 314.353 323.619 315.744 323.474 317.149C323.069 320.683 323.445 324.268 323.063 327.808C322.751 330.7 321.907 333.516 321.878 336.414C321.878 336.876 321.918 337.426 322.317 337.663C322.529 337.772 322.767 337.822 323.005 337.808L330.119 338.022C334.249 338.143 338.418 338.264 342.484 337.501C343.026 337.421 343.551 337.255 344.04 337.009C345.417 336.24 345.873 334.505 346.093 332.961C346.38 330.958 346.494 328.934 346.434 326.911C347.296 329.635 348.32 332.452 350.923 333.632C352.299 334.256 353.872 334.21 355.382 334.17C358.635 334.025 361.877 333.691 365.092 333.169C365.29 333.194 365.491 333.172 365.679 333.105C365.867 333.037 366.037 332.927 366.175 332.783C366.313 332.638 366.415 332.463 366.473 332.272C366.531 332.081 366.543 331.879 366.509 331.683L366.544 328.525C366.613 322.111 365.023 315.981 364.404 309.595C364.207 307.583 364.225 305.547 363.733 303.575C363.531 302.748 363.236 301.938 363.056 301.105C362.902 300.29 362.805 299.465 362.767 298.636L362.316 292.274C362.102 289.33 361.796 286.49 361.57 283.552C361.446 280.691 361.031 277.85 360.332 275.074C359.829 273.338 358.782 271.372 356.972 271.158C356.006 271.048 355.069 271.47 354.15 271.765C351.889 272.477 349.464 272.467 347.209 271.736C346.513 271.461 345.787 271.267 345.046 271.158C344.674 271.107 344.294 271.157 343.946 271.301C343.599 271.445 343.296 271.679 343.068 271.979C342.844 272.431 342.739 272.933 342.762 273.437C342.49 279.215 341.987 285.166 340.396 290.782Z" fill="white"/>
<path d="M340.396 290.782C338.262 288.74 337.325 285.779 335.77 283.263C334.71 281.571 333.357 280.083 331.773 278.868C330.977 278.342 330.247 277.722 329.599 277.023C329.049 276.346 328.633 275.444 327.8 275.183C327.456 275.109 327.099 275.118 326.759 275.212C326.42 275.306 326.108 275.48 325.851 275.721C325.341 276.207 324.858 276.721 324.405 277.26C321.953 279.799 317.644 280.151 315.701 283.09C315.177 283.712 314.82 284.459 314.666 285.258C314.106 289.535 315.212 293.862 317.754 297.346C318.246 298.153 319.002 298.766 319.894 299.081C319.773 300.159 319.916 301.251 320.31 302.262C321.381 305.922 322.697 309.507 324.249 312.99C323.878 314.353 323.619 315.744 323.474 317.149C323.069 320.683 323.445 324.268 323.063 327.808C322.751 330.7 321.907 333.516 321.878 336.414C321.878 336.876 321.918 337.426 322.317 337.663C322.529 337.772 322.767 337.822 323.005 337.808L330.119 338.022C334.249 338.143 338.418 338.264 342.484 337.501C343.026 337.421 343.551 337.255 344.04 337.009C345.417 336.24 345.873 334.505 346.093 332.961C346.38 330.958 346.494 328.934 346.434 326.911C347.296 329.635 348.32 332.452 350.923 333.632C352.299 334.256 353.872 334.21 355.382 334.17C358.635 334.025 361.877 333.691 365.092 333.169C365.29 333.194 365.491 333.172 365.679 333.105C365.867 333.037 366.037 332.927 366.175 332.783C366.313 332.638 366.415 332.463 366.473 332.272C366.531 332.081 366.543 331.879 366.509 331.683L366.544 328.525C366.613 322.111 365.023 315.981 364.404 309.595C364.207 307.583 364.225 305.547 363.733 303.575C363.531 302.748 363.236 301.938 363.056 301.105C362.902 300.29 362.805 299.465 362.767 298.636L362.316 292.274C362.102 289.33 361.796 286.49 361.57 283.552C361.446 280.691 361.031 277.85 360.332 275.074C359.829 273.338 358.782 271.372 356.972 271.158C356.006 271.048 355.069 271.47 354.15 271.765C351.889 272.477 349.464 272.467 347.209 271.736C346.513 271.461 345.787 271.267 345.046 271.158C344.674 271.107 344.294 271.157 343.946 271.301C343.599 271.445 343.296 271.679 343.068 271.979C342.844 272.431 342.739 272.933 342.762 273.437C342.49 279.215 341.987 285.166 340.396 290.782Z" fill="url(#paint8_linear_8654_21180)" fill-opacity="0.8"/>
<path d="M340.396 290.782C338.262 288.74 337.325 285.779 335.77 283.263C334.71 281.571 333.357 280.083 331.773 278.868C330.977 278.342 330.247 277.722 329.599 277.023C329.049 276.346 328.633 275.444 327.8 275.183C327.456 275.109 327.099 275.118 326.759 275.212C326.42 275.306 326.108 275.48 325.851 275.721C325.341 276.207 324.858 276.721 324.405 277.26C321.953 279.799 317.644 280.151 315.701 283.09C315.177 283.712 314.82 284.459 314.666 285.258C314.106 289.535 315.212 293.862 317.754 297.346C318.246 298.153 319.002 298.766 319.894 299.081C319.773 300.159 319.916 301.251 320.31 302.262C321.381 305.922 322.697 309.507 324.249 312.99C323.878 314.353 323.619 315.744 323.474 317.149C323.069 320.683 323.445 324.268 323.063 327.808C322.751 330.7 321.907 333.516 321.878 336.414C321.878 336.876 321.918 337.426 322.317 337.663C322.529 337.772 322.767 337.822 323.005 337.808L330.119 338.022C334.249 338.143 338.418 338.264 342.484 337.501C343.026 337.421 343.551 337.255 344.04 337.009C345.417 336.24 345.873 334.505 346.093 332.961C346.38 330.958 346.494 328.934 346.434 326.911C347.296 329.635 348.32 332.452 350.923 333.632C352.299 334.256 353.872 334.21 355.382 334.17C358.635 334.025 361.877 333.691 365.092 333.169C365.29 333.194 365.491 333.172 365.679 333.105C365.867 333.037 366.037 332.927 366.175 332.783C366.313 332.638 366.415 332.463 366.473 332.272C366.531 332.081 366.543 331.879 366.509 331.683L366.544 328.525C366.613 322.111 365.023 315.981 364.404 309.595C364.207 307.583 364.225 305.547 363.733 303.575C363.531 302.748 363.236 301.938 363.056 301.105C362.902 300.29 362.805 299.465 362.767 298.636L362.316 292.274C362.102 289.33 361.796 286.49 361.57 283.552C361.446 280.691 361.031 277.85 360.332 275.074C359.829 273.338 358.782 271.372 356.972 271.158C356.006 271.048 355.069 271.47 354.15 271.765C351.889 272.477 349.464 272.467 347.209 271.736C346.513 271.461 345.787 271.267 345.046 271.158C344.674 271.107 344.294 271.157 343.946 271.301C343.599 271.445 343.296 271.679 343.068 271.979C342.844 272.431 342.739 272.933 342.762 273.437C342.49 279.215 341.987 285.166 340.396 290.782Z" fill="url(#paint9_linear_8654_21180)" fill-opacity="0.8"/>
<path d="M331.091 290.955C328.425 288.144 325.689 285.282 322.254 283.494C320.9 282.789 319.362 282.257 317.864 282.523C316.366 282.789 314.972 284.09 315.042 285.611C315.088 286.554 315.66 287.387 315.84 288.312C316.048 289.353 315.747 290.464 316.071 291.47C316.334 292.133 316.728 292.737 317.228 293.246L321.322 298.098C323.058 300.122 324.793 302.175 327.025 303.575C329.257 304.975 332.149 305.628 334.601 304.633C336.346 303.822 337.797 302.491 338.754 300.822C339.772 299.203 340.489 297.433 341.443 295.761C342.929 293.091 344.889 290.713 347.227 288.746C346.024 288.434 344.514 287.994 343.757 287.011C343.541 286.698 343.357 286.365 343.207 286.016L342.27 283.992C341.952 283.975 341.633 284.025 341.335 284.137C341.036 284.25 340.764 284.423 340.535 284.645C340.134 285.11 339.703 285.548 339.246 285.958C338.43 286.571 337.326 286.739 336.585 287.439C336.299 287.739 336.039 288.064 335.81 288.41C335.25 289.146 334.54 289.754 333.726 290.193C332.912 290.632 332.013 290.892 331.091 290.955V290.955Z" fill="#252117"/>
<path d="M347.441 278.863C349.448 275.202 349.355 270.813 349.928 266.677C349.99 265.582 350.374 264.53 351.032 263.652C352.189 262.345 354.231 262.328 355.977 262.496C356.492 262.554 357.134 262.797 357.105 263.311C357.065 263.496 356.975 263.666 356.845 263.803C355.152 265.988 354.156 268.632 353.988 271.391C354.896 272.021 356.301 270.726 357.175 271.391C357.753 271.877 357.487 272.837 357.14 273.531C356.334 275.139 355.503 276.735 354.647 278.32C353.964 279.716 353.073 281.001 352.004 282.131C351.27 282.836 350.408 283.392 349.662 284.086C347.927 285.711 346.88 288.007 345.087 289.592C344.936 289.756 344.73 289.86 344.509 289.887C344.281 289.87 344.066 289.774 343.901 289.615C343.006 288.886 342.263 287.988 341.715 286.972C341.033 285.711 341.137 285.341 342.213 284.45C344.225 282.86 346.186 281.153 347.441 278.863Z" fill="#8A4621"/>
<path d="M327.737 288.469C328.084 288.683 328.512 288.926 328.894 288.747C329.05 288.652 329.182 288.524 329.281 288.371C329.942 287.488 330.494 286.529 330.924 285.514C330.998 285.37 331.039 285.212 331.045 285.051C331.045 284.681 330.715 284.409 330.409 284.195C328.766 283.148 327.001 282.309 325.152 281.696C323.625 281.118 322.029 280.615 320.409 280.759C319.801 280.8 319.207 280.964 318.663 281.24C318.119 281.516 317.637 281.9 317.246 282.367C316.089 283.854 318.026 284.305 319.241 284.843C322.052 286.121 325.094 286.861 327.737 288.469Z" fill="white"/>
<path d="M327.737 288.469C328.084 288.683 328.512 288.926 328.894 288.747C329.05 288.652 329.182 288.524 329.281 288.371C329.942 287.488 330.494 286.529 330.924 285.514C330.998 285.37 331.039 285.212 331.045 285.051C331.045 284.681 330.715 284.409 330.409 284.195C328.766 283.148 327.001 282.309 325.152 281.696C323.625 281.118 322.029 280.615 320.409 280.759C319.801 280.8 319.207 280.964 318.663 281.24C318.119 281.516 317.637 281.9 317.246 282.367C316.089 283.854 318.026 284.305 319.241 284.843C322.052 286.121 325.094 286.861 327.737 288.469Z" fill="url(#paint10_linear_8654_21180)" fill-opacity="0.8"/>
<path d="M327.737 288.469C328.084 288.683 328.512 288.926 328.894 288.747C329.05 288.652 329.182 288.524 329.281 288.371C329.942 287.488 330.494 286.529 330.924 285.514C330.998 285.37 331.039 285.212 331.045 285.051C331.045 284.681 330.715 284.409 330.409 284.195C328.766 283.148 327.001 282.309 325.152 281.696C323.625 281.118 322.029 280.615 320.409 280.759C319.801 280.8 319.207 280.964 318.663 281.24C318.119 281.516 317.637 281.9 317.246 282.367C316.089 283.854 318.026 284.305 319.241 284.843C322.052 286.121 325.094 286.861 327.737 288.469Z" fill="url(#paint11_linear_8654_21180)" fill-opacity="0.8"/>
<path opacity="0.1" d="M325.915 298.302C325.896 298.434 325.908 298.569 325.95 298.695C325.992 298.822 326.063 298.937 326.158 299.031C326.326 298.209 326.106 297.342 326.28 296.515C326.534 295.271 327.743 294.334 327.847 293.085C325.632 292.651 325.933 296.96 325.915 298.302Z" fill="#0E0A01"/>
<path opacity="0.2" d="M427.891 253.074V258.771L404.375 260.2L403.664 254.497L427.891 253.074Z" fill="#0E0A01"/>
<path d="M323.705 262.287C325.174 261.09 324.324 258.58 325.318 256.972C325.897 256.093 326.874 255.63 327.834 255.237C328.993 254.695 330.234 254.351 331.507 254.219C332.144 254.158 332.787 254.241 333.388 254.462C333.988 254.684 334.532 255.037 334.977 255.497C335.353 255.925 335.607 256.446 335.96 256.891C336.397 257.411 336.966 257.802 337.608 258.024C338.249 258.246 338.939 258.29 339.604 258.152C340.373 257.978 341.171 257.394 341.119 256.608C341.032 256.129 340.788 255.694 340.425 255.37L338.771 253.537C336.891 251.455 334.803 249.245 332.045 248.725C330.125 248.36 328.158 248.875 326.307 249.494C325.561 249.743 324.723 250.113 324.515 250.871C324.376 251.391 324.584 251.958 324.462 252.484C324.225 253.531 322.884 253.884 322.259 254.763C321.634 255.642 321.825 256.683 321.646 257.655C321.467 258.626 320.946 259.575 320.882 260.581C320.842 261.188 321.148 262.316 321.831 262.536C322.513 262.756 323.283 261.564 323.705 262.287Z" fill="#252117"/>
<path d="M340.562 255.775C340.074 253.231 339.023 250.828 337.485 248.743C336.118 246.794 334.215 245.284 332.008 244.393C330.905 243.962 329.718 243.787 328.537 243.88C327.356 243.973 326.211 244.332 325.189 244.931C323.672 246.014 322.491 247.504 321.783 249.228C320.285 252.456 319.73 256.4 321.47 259.5C322.164 258.656 323.356 259.037 324.408 258.731C325.727 258.355 326.843 257.476 328.098 256.926C331.887 255.255 336.513 256.608 340.562 255.775Z" fill="white"/>
<path d="M340.562 255.775C340.074 253.231 339.023 250.828 337.485 248.743C336.118 246.794 334.215 245.284 332.008 244.393C330.905 243.962 329.718 243.787 328.537 243.88C327.356 243.973 326.211 244.332 325.189 244.931C323.672 246.014 322.491 247.504 321.783 249.228C320.285 252.456 319.73 256.4 321.47 259.5C322.164 258.656 323.356 259.037 324.408 258.731C325.727 258.355 326.843 257.476 328.098 256.926C331.887 255.255 336.513 256.608 340.562 255.775Z" fill="url(#paint12_linear_8654_21180)" fill-opacity="0.8"/>
<path d="M340.562 255.775C340.074 253.231 339.023 250.828 337.485 248.743C336.118 246.794 334.215 245.284 332.008 244.393C330.905 243.962 329.718 243.787 328.537 243.88C327.356 243.973 326.211 244.332 325.189 244.931C323.672 246.014 322.491 247.504 321.783 249.228C320.285 252.456 319.73 256.4 321.47 259.5C322.164 258.656 323.356 259.037 324.408 258.731C325.727 258.355 326.843 257.476 328.098 256.926C331.887 255.255 336.513 256.608 340.562 255.775Z" fill="url(#paint13_linear_8654_21180)" fill-opacity="0.8"/>
<path opacity="0.1" d="M322.353 255.596C322.22 254.555 322.134 253.346 322.874 252.606C322.911 252.561 322.958 252.524 323.011 252.5C323.064 252.476 323.122 252.465 323.18 252.467C323.232 252.484 323.28 252.511 323.32 252.547C323.361 252.583 323.394 252.626 323.418 252.675C323.845 253.35 324.209 254.062 324.505 254.804C324.074 254.704 323.623 254.737 323.21 254.896C322.798 255.056 322.443 255.336 322.191 255.7" fill="#0E0A01"/>
<path opacity="0.1" d="M335.869 252.658L335.661 250.593C335.628 250.423 335.642 250.247 335.702 250.084C335.789 249.948 335.924 249.849 336.079 249.806C336.235 249.764 336.402 249.78 336.546 249.853C336.831 250.011 337.065 250.245 337.223 250.53C337.704 251.269 338.104 252.058 338.414 252.884C337.483 252.704 336.524 252.716 335.598 252.918" fill="#0E0A01"/>
<path opacity="0.1" d="M341.046 336.455V341.174L337.061 341.44H316.102V336.455H341.046Z" fill="#0E0A01"/>
<path d="M341.044 336.455V341.44H316.1L249.832 258.429V254.508H263.724L341.044 336.455Z" fill="#D5AD98"/>
<path opacity="0.1" d="M341.044 336.455V341.44H316.1L249.832 258.429V254.508H263.724L341.044 336.455Z" fill="#0E0A01"/>
<path opacity="0.1" d="M341.044 336.455V341.44H316.1L249.832 258.429V254.508L316.458 336.455H341.044Z" fill="#0E0A01"/>
<path d="M258.519 419.658C258.563 419.892 258.557 420.133 258.504 420.366C258.45 420.598 258.349 420.817 258.206 421.009C258.064 421.201 257.884 421.361 257.677 421.48C257.47 421.598 257.241 421.673 257.004 421.699C255.396 422.243 253.69 422.781 252.55 424.013C251.411 425.245 251.185 427.529 252.55 428.53C253.248 428.951 254.049 429.169 254.864 429.16C257.484 429.339 260.214 429.305 262.591 428.194C264.291 427.408 265.893 426.066 267.761 426.187C268.727 426.245 269.756 426.696 270.618 426.257C271.48 425.817 271.723 424.591 271.729 423.568C271.751 421.43 271.428 419.304 270.774 417.269C270.688 416.992 267.009 416.778 266.57 416.691L262.111 416.113C261.266 416.003 259.444 415.366 258.779 416.072C258.114 416.778 258.519 418.819 258.519 419.658Z" fill="white"/>
<path d="M258.519 419.658C258.563 419.892 258.557 420.133 258.504 420.366C258.45 420.598 258.349 420.817 258.206 421.009C258.064 421.201 257.884 421.361 257.677 421.48C257.47 421.598 257.241 421.673 257.004 421.699C255.396 422.243 253.69 422.781 252.55 424.013C251.411 425.245 251.185 427.529 252.55 428.53C253.248 428.951 254.049 429.169 254.864 429.16C257.484 429.339 260.214 429.305 262.591 428.194C264.291 427.408 265.893 426.066 267.761 426.187C268.727 426.245 269.756 426.696 270.618 426.257C271.48 425.817 271.723 424.591 271.729 423.568C271.751 421.43 271.428 419.304 270.774 417.269C270.688 416.992 267.009 416.778 266.57 416.691L262.111 416.113C261.266 416.003 259.444 415.366 258.779 416.072C258.114 416.778 258.519 418.819 258.519 419.658Z" fill="url(#paint14_linear_8654_21180)" fill-opacity="0.8"/>
<path d="M258.519 419.658C258.563 419.892 258.557 420.133 258.504 420.366C258.45 420.598 258.349 420.817 258.206 421.009C258.064 421.201 257.884 421.361 257.677 421.48C257.47 421.598 257.241 421.673 257.004 421.699C255.396 422.243 253.69 422.781 252.55 424.013C251.411 425.245 251.185 427.529 252.55 428.53C253.248 428.951 254.049 429.169 254.864 429.16C257.484 429.339 260.214 429.305 262.591 428.194C264.291 427.408 265.893 426.066 267.761 426.187C268.727 426.245 269.756 426.696 270.618 426.257C271.48 425.817 271.723 424.591 271.729 423.568C271.751 421.43 271.428 419.304 270.774 417.269C270.688 416.992 267.009 416.778 266.57 416.691L262.111 416.113C261.266 416.003 259.444 415.366 258.779 416.072C258.114 416.778 258.519 418.819 258.519 419.658Z" fill="url(#paint15_linear_8654_21180)" fill-opacity="0.8"/>
<path d="M285.131 405.221C285.32 406.263 285.627 407.28 286.045 408.252C286.664 409.825 287.456 411.496 288.971 412.26C290.348 412.948 292.037 412.699 293.436 412.046C294.021 411.804 294.532 411.416 294.923 410.918C295.374 410.131 295.576 409.226 295.501 408.321C295.501 406.083 295.368 403.77 294.344 401.78C293.465 400.045 291.933 398.553 291.91 396.633L286.641 397.651C286.359 397.678 286.09 397.784 285.866 397.957C285.699 398.133 285.583 398.351 285.53 398.588C284.968 400.752 284.832 403.005 285.131 405.221V405.221Z" fill="white"/>
<path d="M285.131 405.221C285.32 406.263 285.627 407.28 286.045 408.252C286.664 409.825 287.456 411.496 288.971 412.26C290.348 412.948 292.037 412.699 293.436 412.046C294.021 411.804 294.532 411.416 294.923 410.918C295.374 410.131 295.576 409.226 295.501 408.321C295.501 406.083 295.368 403.77 294.344 401.78C293.465 400.045 291.933 398.553 291.91 396.633L286.641 397.651C286.359 397.678 286.09 397.784 285.866 397.957C285.699 398.133 285.583 398.351 285.53 398.588C284.968 400.752 284.832 403.005 285.131 405.221V405.221Z" fill="url(#paint16_linear_8654_21180)" fill-opacity="0.8"/>
<path d="M285.131 405.221C285.32 406.263 285.627 407.28 286.045 408.252C286.664 409.825 287.456 411.496 288.971 412.26C290.348 412.948 292.037 412.699 293.436 412.046C294.021 411.804 294.532 411.416 294.923 410.918C295.374 410.131 295.576 409.226 295.501 408.321C295.501 406.083 295.368 403.77 294.344 401.78C293.465 400.045 291.933 398.553 291.91 396.633L286.641 397.651C286.359 397.678 286.09 397.784 285.866 397.957C285.699 398.133 285.583 398.351 285.53 398.588C284.968 400.752 284.832 403.005 285.131 405.221V405.221Z" fill="url(#paint17_linear_8654_21180)" fill-opacity="0.8"/>
<path d="M222.212 350.278C221.992 352.14 222.085 354.136 223.056 355.744C224.028 357.351 226.075 358.416 227.845 357.774C227.936 357.75 228.021 357.709 228.095 357.653C228.17 357.596 228.232 357.525 228.279 357.444C228.326 357.249 228.299 357.043 228.204 356.866C227.422 354.781 227.487 352.473 228.383 350.434C228.499 350.168 228.747 349.856 229.019 349.96C229.133 350.018 229.224 350.111 229.279 350.226C229.559 350.711 229.7 351.263 229.684 351.822C229.603 352.329 229.587 352.844 229.638 353.355C229.748 353.852 230.28 354.321 230.743 354.107C230.876 354.025 230.992 353.916 231.083 353.788C231.173 353.66 231.237 353.514 231.269 353.361C232.559 349.63 231.975 345.553 231.385 341.649C231.39 341.56 231.375 341.47 231.341 341.387C231.308 341.303 231.256 341.228 231.191 341.167C231.125 341.106 231.047 341.06 230.961 341.032C230.876 341.005 230.786 340.996 230.696 341.007C227.967 340.735 226.474 340.082 224.913 342.621C223.571 344.761 222.212 347.705 222.212 350.278Z" fill="white"/>
<path d="M222.212 350.278C221.992 352.14 222.085 354.136 223.056 355.744C224.028 357.351 226.075 358.416 227.845 357.774C227.936 357.75 228.021 357.709 228.095 357.653C228.17 357.596 228.232 357.525 228.279 357.444C228.326 357.249 228.299 357.043 228.204 356.866C227.422 354.781 227.487 352.473 228.383 350.434C228.499 350.168 228.747 349.856 229.019 349.96C229.133 350.018 229.224 350.111 229.279 350.226C229.559 350.711 229.7 351.263 229.684 351.822C229.603 352.329 229.587 352.844 229.638 353.355C229.748 353.852 230.28 354.321 230.743 354.107C230.876 354.025 230.992 353.916 231.083 353.788C231.173 353.66 231.237 353.514 231.269 353.361C232.559 349.63 231.975 345.553 231.385 341.649C231.39 341.56 231.375 341.47 231.341 341.387C231.308 341.303 231.256 341.228 231.191 341.167C231.125 341.106 231.047 341.06 230.961 341.032C230.876 341.005 230.786 340.996 230.696 341.007C227.967 340.735 226.474 340.082 224.913 342.621C223.571 344.761 222.212 347.705 222.212 350.278Z" fill="url(#paint18_linear_8654_21180)" fill-opacity="0.8"/>
<path d="M222.212 350.278C221.992 352.14 222.085 354.136 223.056 355.744C224.028 357.351 226.075 358.416 227.845 357.774C227.936 357.75 228.021 357.709 228.095 357.653C228.17 357.596 228.232 357.525 228.279 357.444C228.326 357.249 228.299 357.043 228.204 356.866C227.422 354.781 227.487 352.473 228.383 350.434C228.499 350.168 228.747 349.856 229.019 349.96C229.133 350.018 229.224 350.111 229.279 350.226C229.559 350.711 229.7 351.263 229.684 351.822C229.603 352.329 229.587 352.844 229.638 353.355C229.748 353.852 230.28 354.321 230.743 354.107C230.876 354.025 230.992 353.916 231.083 353.788C231.173 353.66 231.237 353.514 231.269 353.361C232.559 349.63 231.975 345.553 231.385 341.649C231.39 341.56 231.375 341.47 231.341 341.387C231.308 341.303 231.256 341.228 231.191 341.167C231.125 341.106 231.047 341.06 230.961 341.032C230.876 341.005 230.786 340.996 230.696 341.007C227.967 340.735 226.474 340.082 224.913 342.621C223.571 344.761 222.212 347.705 222.212 350.278Z" fill="url(#paint19_linear_8654_21180)" fill-opacity="0.8"/>
<path d="M254.126 340.788C253.317 344.154 252.501 347.56 252.449 351.019C252.463 353.173 252.626 355.324 252.935 357.456L253.542 362.464C253.751 364.153 253.953 365.836 254.248 367.508C254.436 368.369 254.539 369.246 254.554 370.128C254.498 370.996 254.36 371.858 254.144 372.701C253.78 374.472 253.577 376.273 253.537 378.08C253.473 380.972 253.831 383.864 254.057 386.755C254.507 392.518 254.44 398.309 253.855 404.06C253.621 405.612 253.958 407.196 254.803 408.519C255.146 408.936 255.428 409.399 255.642 409.895C256.076 411.22 255.063 412.544 254.803 413.903C254.637 414.963 254.898 416.046 255.529 416.913C256.16 417.781 257.11 418.362 258.169 418.53C262.796 419.08 267.55 418.831 271.72 420.948C272.16 419.664 271.199 418.206 271.639 416.899C271.917 416.089 272.68 415.563 273.201 414.881C273.9 413.841 274.248 412.605 274.195 411.353C274.216 409.719 273.925 408.095 273.339 406.57C272.848 405.297 272.142 404.042 272.183 402.677C272.183 402.007 272.42 401.301 272.148 400.682C271.962 400.327 271.708 400.01 271.402 399.751C269.673 397.857 268.611 395.451 268.377 392.897C268.152 390.364 268.233 387.812 268.62 385.298C268.903 382.903 269.285 380.376 270.806 378.508C270.101 372.844 270.515 367.096 272.027 361.591C272.177 361.082 272.414 360.492 272.935 360.371C273.141 360.35 273.35 360.379 273.543 360.455C273.737 360.532 273.909 360.653 274.045 360.81C274.953 361.661 275.387 362.892 275.78 364.072C276.214 365.35 276.653 366.715 276.324 368.022C276.185 368.601 275.907 369.11 275.745 369.665C275.393 370.781 275.455 371.986 275.919 373.06C276.145 373.452 276.287 373.888 276.335 374.338C276.282 374.725 276.164 375.1 275.988 375.449C275.774 376.133 275.706 376.855 275.788 377.567C275.871 378.28 276.103 378.967 276.468 379.584C277.205 380.812 278.115 381.928 279.169 382.898C278.666 385.118 278.796 387.434 279.545 389.584C279.599 389.68 279.634 389.787 279.647 389.897C279.659 390.007 279.651 390.119 279.62 390.225C279.516 390.445 279.25 390.526 279.042 390.682C278.464 391.157 278.822 392.053 279.21 392.672C280.272 394.37 281.444 395.997 282.72 397.542C283.877 398.924 283.773 401.59 285.496 402.088C286.221 402.244 286.97 402.244 287.694 402.088C289.394 401.827 291.291 401.336 292.124 399.832C292.466 399.213 292.604 398.461 293.136 397.999C293.669 397.536 294.357 397.455 294.652 396.9C294.947 396.344 294.617 395.616 294.715 394.974C294.814 394.332 295.375 393.817 295.554 393.14C295.982 391.579 294.16 390.295 293.911 388.699C293.553 386.385 296.468 384.65 296.346 382.337C296.092 377.311 295.93 372.262 295.67 367.236C295.343 362.734 295.297 358.216 295.531 353.708C295.733 350.903 296.109 347.965 295.08 345.357C293.599 341.678 289.516 339.614 285.566 339.22C281.616 338.827 277.677 339.764 273.762 340.377C267.263 341.379 260.661 341.517 254.126 340.788V340.788Z" fill="#252117"/>
<path d="M265.867 285.507C270.984 285.507 275.132 281.359 275.132 276.242C275.132 271.125 270.984 266.977 265.867 266.977C260.75 266.977 256.602 271.125 256.602 276.242C256.602 281.359 260.75 285.507 265.867 285.507Z" fill="#BE6F46"/>
<path d="M262.097 287.238C261.782 287.971 261.253 288.591 260.578 289.018C259.904 289.444 259.117 289.656 258.32 289.627C257.984 291.015 258.788 292.414 259.708 293.507C261.617 295.729 264.085 297.402 266.856 298.353C269.628 299.303 272.603 299.497 275.474 298.915C276.591 298.715 277.651 298.273 278.58 297.619C279.831 296.574 280.671 295.119 280.951 293.513C281.217 291.918 281.293 290.297 281.176 288.684C281.209 288.365 281.118 288.047 280.922 287.793C280.691 287.614 280.405 287.52 280.112 287.527C278.157 287.354 276.116 287.278 274.398 286.318C272.68 285.358 271.46 283.19 272.287 281.408C272.154 281.686 268.777 281.819 268.331 281.877C266.937 282.073 265.544 282.293 264.156 282.548C263.489 282.584 262.829 282.709 262.195 282.918C261.356 283.351 261.669 283.137 261.865 283.924C262.16 285.127 262.594 285.989 262.097 287.238Z" fill="#BE6F46"/>
<path d="M269.144 292.871C267.896 292.885 266.651 292.747 265.436 292.46C264.21 292.174 263.129 291.452 262.394 290.43C261.966 289.782 261.689 288.967 261.006 288.602C259.89 288.024 258.618 289.001 257.727 289.898C256.916 290.782 255.976 291.538 254.939 292.142C253.702 292.795 252.256 293.027 251.087 293.796C250.175 294.486 249.391 295.331 248.774 296.294L240.579 307.457C237.288 311.945 234.425 316.762 231.493 321.499C228.954 325.6 227.624 330.319 225.709 334.743C225.558 335.014 225.495 335.326 225.53 335.634C225.599 335.935 225.964 336.178 226.218 336.004C225.356 336.86 226.114 338.318 225.912 339.521C225.682 340.362 225.202 341.114 224.535 341.678C225.808 341.512 227.1 341.572 228.352 341.857C229.646 342.224 230.867 342.811 231.961 343.592C232.661 343.482 232.597 342.239 233.118 341.776C233.43 341.504 233.893 341.539 234.304 341.458C235.848 341.157 236.461 339.301 237.646 338.254C238.635 337.381 240.035 337.097 241.082 336.276C242.782 334.94 243.147 332.563 244.037 330.591C244.795 328.919 245.986 327.462 246.651 325.75C247.085 324.64 247.293 323.437 247.912 322.413C248.901 320.759 250.764 319.88 252.539 319.087C253.661 318.584 254.852 318.064 256.061 318.145C255.998 320.834 255.656 323.483 256.241 326.109C256.443 327.034 256.726 327.936 256.969 328.856C258.074 332.997 258.334 337.311 258.386 341.58C261.043 340.971 263.758 340.646 266.483 340.608C268.629 340.544 270.769 340.822 272.914 340.781C275.459 340.735 277.975 340.243 280.52 340.07C283.065 339.896 285.725 340.07 287.975 341.227C287.792 337.561 287.895 333.887 288.281 330.238L288.894 324.489C289.033 322.819 289.29 321.161 289.664 319.527C289.999 318.208 290.485 316.936 290.855 315.623C292.156 310.996 291.919 306.057 291.671 301.239C291.543 298.764 290.589 296.329 289.467 294.126C289.061 293.307 288.597 292.519 288.079 291.766C286.723 289.898 284.916 288.404 282.827 287.423C280.737 286.442 278.433 286.006 276.13 286.156C275.836 286.165 275.546 286.228 275.274 286.341C274.786 286.654 274.405 287.107 274.181 287.642C272.984 289.793 271.248 291.595 269.144 292.871Z" fill="#252117"/>
<path d="M257.715 279.314C257.975 278.735 258.675 278.521 259.103 278.059C259.924 277.18 259.554 275.774 259.681 274.589C259.89 272.854 261.33 271.402 262.978 270.783C264.659 270.244 266.448 270.13 268.183 270.453C269.019 270.514 269.826 270.783 270.531 271.234C270.832 271.454 271.11 271.737 271.393 271.94C271.91 272.252 272.528 272.35 273.116 272.213C273.703 272.076 274.214 271.714 274.539 271.205C272.492 268.741 270.225 266.139 267.113 265.381C266.046 265.163 264.958 265.061 263.869 265.075C262.429 265.046 260.942 265.023 259.612 265.572C257.802 266.318 256.529 268.036 255.876 269.887C255.304 271.763 254.999 273.709 254.968 275.67C254.849 276.978 254.849 278.295 254.968 279.603C255.191 281.39 255.855 283.093 256.9 284.559C257.041 284.787 257.24 284.973 257.478 285.097C260.115 286.254 257.501 279.794 257.715 279.314Z" fill="#252117"/>
<path d="M274.24 269.777C273.922 267.053 271.979 264.803 269.914 262.993C268.25 261.423 266.267 260.23 264.101 259.494C261.921 258.852 259.411 258.991 257.543 260.292C256.039 261.339 255.085 263.004 254.35 264.682C253.385 266.661 252.908 268.842 252.957 271.044C253.101 273.23 254.165 275.445 256.062 276.549C256.745 275.543 257.93 275.023 259.07 274.612C264.036 272.728 269.1 271.114 274.24 269.777V269.777Z" fill="white"/>
<path d="M274.24 269.777C273.922 267.053 271.979 264.803 269.914 262.993C268.25 261.423 266.267 260.23 264.101 259.494C261.921 258.852 259.411 258.991 257.543 260.292C256.039 261.339 255.085 263.004 254.35 264.682C253.385 266.661 252.908 268.842 252.957 271.044C253.101 273.23 254.165 275.445 256.062 276.549C256.745 275.543 257.93 275.023 259.07 274.612C264.036 272.728 269.1 271.114 274.24 269.777V269.777Z" fill="url(#paint20_linear_8654_21180)" fill-opacity="0.8"/>
<path d="M274.24 269.777C273.922 267.053 271.979 264.803 269.914 262.993C268.25 261.423 266.267 260.23 264.101 259.494C261.921 258.852 259.411 258.991 257.543 260.292C256.039 261.339 255.085 263.004 254.35 264.682C253.385 266.661 252.908 268.842 252.957 271.044C253.101 273.23 254.165 275.445 256.062 276.549C256.745 275.543 257.93 275.023 259.07 274.612C264.036 272.728 269.1 271.114 274.24 269.777V269.777Z" fill="url(#paint21_linear_8654_21180)" fill-opacity="0.8"/>
<path opacity="0.1" d="M256.699 268.643C256.884 268.643 257.006 268.834 257.098 268.99C257.569 269.724 257.974 270.498 258.307 271.303C257.63 271.448 256.468 271.61 256.133 271.014C255.953 270.713 256.167 268.614 256.699 268.643Z" fill="#0E0A01"/>
<path opacity="0.1" d="M269.879 267.336C269.741 267.469 269.579 267.198 269.579 267.001V264.757C269.575 264.694 269.589 264.632 269.619 264.578C269.643 264.55 269.672 264.528 269.705 264.512C269.738 264.496 269.774 264.487 269.81 264.485C270.279 264.433 270.666 264.832 270.967 265.214C271.423 265.832 271.82 266.493 272.152 267.186L269.706 267.111" fill="#0E0A01"/>
<path d="M300.411 304.496C300.943 303.99 301.511 303.525 302.111 303.102C303.713 302.032 305.651 301.61 307.449 300.927C309.248 300.245 311.076 299.14 311.775 297.347C312.126 296.226 312.24 295.044 312.111 293.877C312.128 293.388 312.041 292.901 311.856 292.449C311.636 292.048 311.323 291.707 310.943 291.454C308.502 289.649 305.228 289.505 302.198 289.69C295.516 290.104 288.967 291.739 282.875 294.513C282.553 294.62 282.271 294.821 282.065 295.092C281.947 295.342 281.893 295.619 281.909 295.896C281.802 297.601 282.023 299.311 282.563 300.933C283.361 302.992 285.003 304.652 285.692 306.751C286.004 307.694 286.108 308.694 286.38 309.643C286.603 310.623 287.182 311.484 288.005 312.06C290.29 313.425 292.447 311.592 294.032 310.169L300.411 304.496Z" fill="#252117"/>
<path d="M270.491 312.506L267.558 306.109C267.129 305.223 266.758 304.309 266.448 303.373C266.113 302.257 265.951 301.1 265.638 299.978C264.609 296.242 262.012 293.131 260.745 289.47C260.665 289.139 260.502 288.835 260.271 288.585C260.086 288.454 259.875 288.366 259.652 288.326C259.429 288.286 259.2 288.295 258.982 288.354C257.212 288.66 255.829 290.008 254.21 290.771C253.458 291.118 252.649 291.349 251.897 291.748C251.521 291.926 251.188 292.183 250.92 292.502C250.653 292.82 250.457 293.193 250.347 293.593C250.167 294.478 250.607 295.328 250.977 296.19C252.55 299.741 252.909 303.709 252.978 307.595C253.03 310.21 252.897 313.015 251.353 315.114C248.386 319.162 250.283 325.108 251.393 330.007C251.527 330.585 251.683 331.21 251.775 331.823C251.873 332.59 251.918 333.363 251.908 334.136C251.908 336.733 251.764 339.411 250.676 341.765C251.75 342.336 252.933 342.671 254.146 342.748C257.505 343.176 260.877 343.476 264.262 343.65C265.323 343.75 266.392 343.695 267.437 343.488C268.678 343.153 269.772 342.413 270.546 341.387C271.32 340.361 271.73 339.106 271.711 337.82C271.896 339.422 272.237 341.163 273.4 342.273C274.562 343.384 276.257 343.552 277.836 343.638C282.292 343.875 286.76 343.749 291.196 343.262C291.479 343.25 291.757 343.185 292.017 343.072C292.873 342.644 292.919 341.464 292.85 340.515C292.723 338.74 292.59 336.964 292.376 335.2C292.194 334.076 292.101 332.939 292.098 331.799C292.186 330.628 292.38 329.466 292.676 328.329C293.451 324.72 294.064 321.036 293.804 317.341C293.701 316.44 293.665 315.534 293.694 314.628C293.845 312.587 294.92 310.643 294.718 308.613C294.14 302.645 293.671 296.52 292.005 290.76C291.705 289.73 291.323 288.625 290.427 288.035C289.27 287.26 287.645 287.665 286.32 287.174C285.699 286.885 285.108 286.534 284.556 286.127C283.358 285.377 281.984 284.955 280.571 284.901C279.507 284.86 278.322 285.097 277.68 285.953C277.382 286.435 277.186 286.972 277.101 287.532C276.263 291.06 275.28 294.548 274.296 298.035L273.354 301.378L270.826 310.354C270.577 311.308 270.745 311.603 270.491 312.506Z" fill="white"/>
<path d="M270.491 312.506L267.558 306.109C267.129 305.223 266.758 304.309 266.448 303.373C266.113 302.257 265.951 301.1 265.638 299.978C264.609 296.242 262.012 293.131 260.745 289.47C260.665 289.139 260.502 288.835 260.271 288.585C260.086 288.454 259.875 288.366 259.652 288.326C259.429 288.286 259.2 288.295 258.982 288.354C257.212 288.66 255.829 290.008 254.21 290.771C253.458 291.118 252.649 291.349 251.897 291.748C251.521 291.926 251.188 292.183 250.92 292.502C250.653 292.82 250.457 293.193 250.347 293.593C250.167 294.478 250.607 295.328 250.977 296.19C252.55 299.741 252.909 303.709 252.978 307.595C253.03 310.21 252.897 313.015 251.353 315.114C248.386 319.162 250.283 325.108 251.393 330.007C251.527 330.585 251.683 331.21 251.775 331.823C251.873 332.59 251.918 333.363 251.908 334.136C251.908 336.733 251.764 339.411 250.676 341.765C251.75 342.336 252.933 342.671 254.146 342.748C257.505 343.176 260.877 343.476 264.262 343.65C265.323 343.75 266.392 343.695 267.437 343.488C268.678 343.153 269.772 342.413 270.546 341.387C271.32 340.361 271.73 339.106 271.711 337.82C271.896 339.422 272.237 341.163 273.4 342.273C274.562 343.384 276.257 343.552 277.836 343.638C282.292 343.875 286.76 343.749 291.196 343.262C291.479 343.25 291.757 343.185 292.017 343.072C292.873 342.644 292.919 341.464 292.85 340.515C292.723 338.74 292.59 336.964 292.376 335.2C292.194 334.076 292.101 332.939 292.098 331.799C292.186 330.628 292.38 329.466 292.676 328.329C293.451 324.72 294.064 321.036 293.804 317.341C293.701 316.44 293.665 315.534 293.694 314.628C293.845 312.587 294.92 310.643 294.718 308.613C294.14 302.645 293.671 296.52 292.005 290.76C291.705 289.73 291.323 288.625 290.427 288.035C289.27 287.26 287.645 287.665 286.32 287.174C285.699 286.885 285.108 286.534 284.556 286.127C283.358 285.377 281.984 284.955 280.571 284.901C279.507 284.86 278.322 285.097 277.68 285.953C277.382 286.435 277.186 286.972 277.101 287.532C276.263 291.06 275.28 294.548 274.296 298.035L273.354 301.378L270.826 310.354C270.577 311.308 270.745 311.603 270.491 312.506Z" fill="url(#paint22_linear_8654_21180)" fill-opacity="0.8"/>
<path d="M270.491 312.506L267.558 306.109C267.129 305.223 266.758 304.309 266.448 303.373C266.113 302.257 265.951 301.1 265.638 299.978C264.609 296.242 262.012 293.131 260.745 289.47C260.665 289.139 260.502 288.835 260.271 288.585C260.086 288.454 259.875 288.366 259.652 288.326C259.429 288.286 259.2 288.295 258.982 288.354C257.212 288.66 255.829 290.008 254.21 290.771C253.458 291.118 252.649 291.349 251.897 291.748C251.521 291.926 251.188 292.183 250.92 292.502C250.653 292.82 250.457 293.193 250.347 293.593C250.167 294.478 250.607 295.328 250.977 296.19C252.55 299.741 252.909 303.709 252.978 307.595C253.03 310.21 252.897 313.015 251.353 315.114C248.386 319.162 250.283 325.108 251.393 330.007C251.527 330.585 251.683 331.21 251.775 331.823C251.873 332.59 251.918 333.363 251.908 334.136C251.908 336.733 251.764 339.411 250.676 341.765C251.75 342.336 252.933 342.671 254.146 342.748C257.505 343.176 260.877 343.476 264.262 343.65C265.323 343.75 266.392 343.695 267.437 343.488C268.678 343.153 269.772 342.413 270.546 341.387C271.32 340.361 271.73 339.106 271.711 337.82C271.896 339.422 272.237 341.163 273.4 342.273C274.562 343.384 276.257 343.552 277.836 343.638C282.292 343.875 286.76 343.749 291.196 343.262C291.479 343.25 291.757 343.185 292.017 343.072C292.873 342.644 292.919 341.464 292.85 340.515C292.723 338.74 292.59 336.964 292.376 335.2C292.194 334.076 292.101 332.939 292.098 331.799C292.186 330.628 292.38 329.466 292.676 328.329C293.451 324.72 294.064 321.036 293.804 317.341C293.701 316.44 293.665 315.534 293.694 314.628C293.845 312.587 294.92 310.643 294.718 308.613C294.14 302.645 293.671 296.52 292.005 290.76C291.705 289.73 291.323 288.625 290.427 288.035C289.27 287.26 287.645 287.665 286.32 287.174C285.699 286.885 285.108 286.534 284.556 286.127C283.358 285.377 281.984 284.955 280.571 284.901C279.507 284.86 278.322 285.097 277.68 285.953C277.382 286.435 277.186 286.972 277.101 287.532C276.263 291.06 275.28 294.548 274.296 298.035L273.354 301.378L270.826 310.354C270.577 311.308 270.745 311.603 270.491 312.506Z" fill="url(#paint23_linear_8654_21180)" fill-opacity="0.8"/>
<path d="M285.279 277.486L341.223 336.276V341.261H316.279L274.238 286.393" fill="#D5AD98"/>
<path opacity="0.1" d="M285.279 277.486L341.223 336.276V341.261H316.279L274.238 286.393" fill="#0E0A01"/>
<path opacity="0.1" d="M275.129 285.617L275.308 285.681L316.637 336.275H341.223V341.261H316.279L274.238 286.392L275.129 285.617Z" fill="#0E0A01"/>
<path d="M281.57 286.856C279.545 287.741 277.296 288.875 276.688 291.003C276.568 291.377 276.543 291.774 276.613 292.16C276.761 292.614 277.043 293.012 277.422 293.302C277.801 293.592 278.259 293.761 278.736 293.785C279.688 293.808 280.635 293.635 281.518 293.276L293.461 289.332C293.784 289.228 294.155 289.072 294.236 288.753C294.256 288.553 294.216 288.352 294.12 288.175C293.75 287.273 293.385 285.428 292.61 284.797C291.974 284.289 290.713 284.468 289.944 284.479C286.983 284.503 284.201 285.7 281.57 286.856Z" fill="white"/>
<path d="M281.57 286.856C279.545 287.741 277.296 288.875 276.688 291.003C276.568 291.377 276.543 291.774 276.613 292.16C276.761 292.614 277.043 293.012 277.422 293.302C277.801 293.592 278.259 293.761 278.736 293.785C279.688 293.808 280.635 293.635 281.518 293.276L293.461 289.332C293.784 289.228 294.155 289.072 294.236 288.753C294.256 288.553 294.216 288.352 294.12 288.175C293.75 287.273 293.385 285.428 292.61 284.797C291.974 284.289 290.713 284.468 289.944 284.479C286.983 284.503 284.201 285.7 281.57 286.856Z" fill="url(#paint24_linear_8654_21180)" fill-opacity="0.8"/>
<path d="M281.57 286.856C279.545 287.741 277.296 288.875 276.688 291.003C276.568 291.377 276.543 291.774 276.613 292.16C276.761 292.614 277.043 293.012 277.422 293.302C277.801 293.592 278.259 293.761 278.736 293.785C279.688 293.808 280.635 293.635 281.518 293.276L293.461 289.332C293.784 289.228 294.155 289.072 294.236 288.753C294.256 288.553 294.216 288.352 294.12 288.175C293.75 287.273 293.385 285.428 292.61 284.797C291.974 284.289 290.713 284.468 289.944 284.479C286.983 284.503 284.201 285.7 281.57 286.856Z" fill="url(#paint25_linear_8654_21180)" fill-opacity="0.8"/>
<path d="M292.215 289.799C294.227 289.794 296.227 290.104 298.143 290.719C300.067 291.344 301.771 292.508 303.053 294.074C303.426 294.511 303.692 295.03 303.828 295.589C303.944 296.167 305.829 296.514 305.413 296.907C306.679 296.705 306.378 297.301 307.662 297.289C308.946 297.278 310.334 296.948 311.104 295.924C311.638 295.083 311.876 294.088 311.78 293.096C311.797 292.409 311.667 291.727 311.399 291.095C310.82 289.88 309.49 289.227 308.264 288.666L297.935 283.941C297.335 283.622 296.692 283.394 296.026 283.264C295.465 283.211 294.9 283.225 294.343 283.305L289.664 283.842C290.687 284.505 291.52 285.422 292.081 286.504C292.642 287.586 292.911 288.796 292.862 290.013" fill="#252117"/>
</g>
<defs>
<linearGradient id="paint0_linear_8654_21180" x1="768.49" y1="464.983" x2="394.551" y2="-142.989" gradientUnits="userSpaceOnUse">
<stop stop-color="#252117"/>
<stop offset="1" stop-opacity="0"/>
</linearGradient>
<linearGradient id="paint1_linear_8654_21180" x1="87.2812" y1="46" x2="450.945" y2="648.746" gradientUnits="userSpaceOnUse">
<stop offset="0.484375" stop-color="#4BAA73"/>
<stop offset="1" stop-opacity="0"/>
</linearGradient>
<linearGradient id="paint2_linear_8654_21180" x1="703.134" y1="465.001" x2="699.31" y2="400.625" gradientUnits="userSpaceOnUse">
<stop stop-color="#252117"/>
<stop offset="1" stop-opacity="0"/>
</linearGradient>
<linearGradient id="paint3_linear_8654_21180" x1="159.418" y1="432.699" x2="163.099" y2="495.869" gradientUnits="userSpaceOnUse">
<stop offset="0.484375" stop-color="#4BAA73"/>
<stop offset="1" stop-opacity="0"/>
</linearGradient>
<linearGradient id="paint4_linear_8654_21180" x1="351.667" y1="429.915" x2="333.804" y2="411.579" gradientUnits="userSpaceOnUse">
<stop stop-color="#252117"/>
<stop offset="1" stop-opacity="0"/>
</linearGradient>
<linearGradient id="paint5_linear_8654_21180" x1="333.324" y1="412.047" x2="350.837" y2="430.374" gradientUnits="userSpaceOnUse">
<stop offset="0.484375" stop-color="#4BAA73"/>
<stop offset="1" stop-opacity="0"/>
</linearGradient>
<linearGradient id="paint6_linear_8654_21180" x1="364.378" y1="425.897" x2="347.037" y2="413.024" gradientUnits="userSpaceOnUse">
<stop stop-color="#252117"/>
<stop offset="1" stop-opacity="0"/>
</linearGradient>
<linearGradient id="paint7_linear_8654_21180" x1="350.93" y1="407.779" x2="368.036" y2="420.724" gradientUnits="userSpaceOnUse">
<stop offset="0.484375" stop-color="#4BAA73"/>
<stop offset="1" stop-opacity="0"/>
</linearGradient>
<linearGradient id="paint8_linear_8654_21180" x1="366.546" y1="338.112" x2="301.655" y2="287.706" gradientUnits="userSpaceOnUse">
<stop stop-color="#252117"/>
<stop offset="1" stop-opacity="0"/>
</linearGradient>
<linearGradient id="paint9_linear_8654_21180" x1="314.523" y1="271.139" x2="378.483" y2="321.785" gradientUnits="userSpaceOnUse">
<stop offset="0.484375" stop-color="#4BAA73"/>
<stop offset="1" stop-opacity="0"/>
</linearGradient>
<linearGradient id="paint10_linear_8654_21180" x1="331.045" y1="288.809" x2="324.095" y2="276.625" gradientUnits="userSpaceOnUse">
<stop stop-color="#252117"/>
<stop offset="1" stop-opacity="0"/>
</linearGradient>
<linearGradient id="paint11_linear_8654_21180" x1="316.891" y1="280.734" x2="323.643" y2="292.8" gradientUnits="userSpaceOnUse">
<stop offset="0.484375" stop-color="#4BAA73"/>
<stop offset="1" stop-opacity="0"/>
</linearGradient>
<linearGradient id="paint12_linear_8654_21180" x1="340.562" y1="259.5" x2="325.409" y2="239.963" gradientUnits="userSpaceOnUse">
<stop stop-color="#252117"/>
<stop offset="1" stop-opacity="0"/>
</linearGradient>
<linearGradient id="paint13_linear_8654_21180" x1="320.391" y1="243.855" x2="335.184" y2="263.299" gradientUnits="userSpaceOnUse">
<stop offset="0.484375" stop-color="#4BAA73"/>
<stop offset="1" stop-opacity="0"/>
</linearGradient>
<linearGradient id="paint14_linear_8654_21180" x1="271.73" y1="429.242" x2="259.241" y2="410.625" gradientUnits="userSpaceOnUse">
<stop stop-color="#252117"/>
<stop offset="1" stop-opacity="0"/>
</linearGradient>
<linearGradient id="paint15_linear_8654_21180" x1="251.609" y1="415.744" x2="263.772" y2="434.226" gradientUnits="userSpaceOnUse">
<stop offset="0.484375" stop-color="#4BAA73"/>
<stop offset="1" stop-opacity="0"/>
</linearGradient>
<linearGradient id="paint16_linear_8654_21180" x1="295.516" y1="412.671" x2="280.795" y2="402.996" gradientUnits="userSpaceOnUse">
<stop stop-color="#252117"/>
<stop offset="1" stop-opacity="0"/>
</linearGradient>
<linearGradient id="paint17_linear_8654_21180" x1="284.977" y1="396.633" x2="299.529" y2="406.382" gradientUnits="userSpaceOnUse">
<stop offset="0.484375" stop-color="#4BAA73"/>
<stop offset="1" stop-opacity="0"/>
</linearGradient>
<linearGradient id="paint18_linear_8654_21180" x1="232.042" y1="357.963" x2="217.132" y2="349.374" gradientUnits="userSpaceOnUse">
<stop stop-color="#252117"/>
<stop offset="1" stop-opacity="0"/>
</linearGradient>
<linearGradient id="paint19_linear_8654_21180" x1="222.113" y1="340.727" x2="236.882" y2="349.399" gradientUnits="userSpaceOnUse">
<stop offset="0.484375" stop-color="#4BAA73"/>
<stop offset="1" stop-opacity="0"/>
</linearGradient>
<linearGradient id="paint20_linear_8654_21180" x1="274.24" y1="276.549" x2="257.154" y2="255.681" gradientUnits="userSpaceOnUse">
<stop stop-color="#252117"/>
<stop offset="1" stop-opacity="0"/>
</linearGradient>
<linearGradient id="paint21_linear_8654_21180" x1="252.953" y1="259.121" x2="269.65" y2="279.91" gradientUnits="userSpaceOnUse">
<stop offset="0.484375" stop-color="#4BAA73"/>
<stop offset="1" stop-opacity="0"/>
</linearGradient>
<linearGradient id="paint22_linear_8654_21180" x1="294.743" y1="343.754" x2="237.952" y2="300.356" gradientUnits="userSpaceOnUse">
<stop stop-color="#252117"/>
<stop offset="1" stop-opacity="0"/>
</linearGradient>
<linearGradient id="paint23_linear_8654_21180" x1="249.766" y1="284.896" x2="305.758" y2="328.515" gradientUnits="userSpaceOnUse">
<stop offset="0.484375" stop-color="#4BAA73"/>
<stop offset="1" stop-opacity="0"/>
</linearGradient>
<linearGradient id="paint24_linear_8654_21180" x1="294.241" y1="293.787" x2="286.512" y2="279.181" gradientUnits="userSpaceOnUse">
<stop stop-color="#252117"/>
<stop offset="1" stop-opacity="0"/>
</linearGradient>
<linearGradient id="paint25_linear_8654_21180" x1="276.574" y1="284.439" x2="284.074" y2="298.889" gradientUnits="userSpaceOnUse">
<stop offset="0.484375" stop-color="#4BAA73"/>
<stop offset="1" stop-opacity="0"/>
</linearGradient>
<clipPath id="clip0_8654_21180">
<rect width="681.197" height="419" fill="white" transform="translate(87.293 46)"/>
</clipPath>
</defs>
</svg>
