<svg width="12" height="8" viewBox="0 0 12 8" fill="none" xmlns="http://www.w3.org/2000/svg">
<path d="M7.47318 0.258013L7.52865 0.195213C7.76899 -0.0450844 8.14715 -0.0635316 8.40866 0.139845L8.47146 0.195311L11.8025 3.52707C12.0427 3.76729 12.0613 4.14519 11.8582 4.40671L11.8028 4.46951L8.47173 7.80514C8.21156 8.06567 7.78945 8.06596 7.52892 7.80579C7.28843 7.56563 7.26969 7.18749 7.47286 6.92582L7.52828 6.86298L9.72067 4.66667H0.666667C0.324776 4.66667 0.0429954 4.40931 0.00448529 4.07775L0 4C0 3.65811 0.25736 3.37633 0.588919 3.33782L0.666667 3.33333H9.72267L7.52855 1.13802C7.28825 0.897675 7.2698 0.519519 7.47318 0.258013L7.52865 0.195213L7.47318 0.258013Z" fill="#4BAA73"/>
</svg>
