<svg width="19" height="21" viewBox="0 0 19 21" fill="none" xmlns="http://www.w3.org/2000/svg">
<path d="M16.5 20.5H2.5C1.96957 20.5 1.46086 20.2893 1.08579 19.9142C0.710714 19.5391 0.5 19.0304 0.5 18.5V4.5C0.5 3.96957 0.710714 3.46086 1.08579 3.08579C1.46086 2.71071 1.96957 2.5 2.5 2.5H4.5V0.5H6.5V2.5H12.5V0.5H14.5V2.5H16.5C17.0304 2.5 17.5391 2.71071 17.9142 3.08579C18.2893 3.46086 18.5 3.96957 18.5 4.5V18.5C18.5 19.0304 18.2893 19.5391 17.9142 19.9142C17.5391 20.2893 17.0304 20.5 16.5 20.5ZM2.5 8.5V18.5H16.5V8.5H2.5ZM2.5 4.5V6.5H16.5V4.5H2.5ZM14.5 16.5H12.5V14.5H14.5V16.5ZM10.5 16.5H8.5V14.5H10.5V16.5ZM6.5 16.5H4.5V14.5H6.5V16.5ZM14.5 12.5H12.5V10.5H14.5V12.5ZM10.5 12.5H8.5V10.5H10.5V12.5ZM6.5 12.5H4.5V10.5H6.5V12.5Z" fill="#A0AFBF"/>
</svg>
