<svg width="10" height="10" viewBox="0 0 10 10" fill="none" xmlns="http://www.w3.org/2000/svg">
<path d="M6.43791 5.01639L9.70588 1.73771C10.098 1.34426 10.098 0.688525 9.70588 0.295082C9.31373 -0.0983607 8.66012 -0.0983607 8.26797 0.295082L4.99999 3.57377L1.73201 0.295082C1.33986 -0.0983607 0.686275 -0.0983607 0.294118 0.295082C-0.0980393 0.688525 -0.0980393 1.34426 0.294118 1.73771L3.56209 5.01639L0.294118 8.29508C-0.0980393 8.68853 -0.0980393 9.34426 0.294118 9.7377C0.424837 9.86885 0.686275 10 0.947713 10C1.20915 10 1.47059 9.86885 1.60131 9.7377L4.86928 6.45902L8.13726 9.7377C8.26798 9.86885 8.52942 10 8.79085 10C9.05229 10 9.31373 9.86885 9.44445 9.7377C9.83661 9.34426 9.83661 8.68853 9.44445 8.29508L6.43791 5.01639Z" fill="#252117"/>
</svg>
