<svg width="18" height="19" viewBox="0 0 18 19" fill="none" xmlns="http://www.w3.org/2000/svg">
<path d="M9.77161 3.78906L9.38661 3.80656L11.6091 6.02906L12.3966 5.2474C14.2924 6.16323 15.6574 8.0124 15.8674 10.2057H16.7424C16.4449 6.6124 13.4408 3.78906 9.77161 3.78906ZM9.77161 6.1224C8.64578 6.1224 7.72995 7.03823 7.72995 8.16406C7.72995 9.2899 8.64578 10.2057 9.77161 10.2057C10.8974 10.2057 11.8133 9.2899 11.8133 8.16406C11.8133 7.03823 10.8974 6.1224 9.77161 6.1224ZM2.80078 11.3724C3.09828 14.9657 6.10245 17.7891 9.77161 17.7891L10.1566 17.7716L7.93411 15.5491L7.14661 16.3307C5.25078 15.4207 3.88578 13.5657 3.67578 11.3724H2.80078ZM9.77161 11.3724C7.51411 11.3724 5.68828 12.2882 5.68828 13.4141V14.2891H13.8549V13.4141C13.8549 12.2882 12.0291 11.3724 9.77161 11.3724Z" fill="#4BAA73"/>
<path d="M9.24818 3.03906L8.86318 3.05656L11.0857 5.27906L11.8732 4.4974C13.769 5.41323 15.134 7.2624 15.344 9.45573H16.219C15.9215 5.8624 12.9173 3.03906 9.24818 3.03906ZM9.24818 5.3724C8.12234 5.3724 7.20651 6.28823 7.20651 7.41406C7.20651 8.5399 8.12234 9.45573 9.24818 9.45573C10.374 9.45573 11.2898 8.5399 11.2898 7.41406C11.2898 6.28823 10.374 5.3724 9.24818 5.3724ZM2.27734 10.6224C2.57484 14.2157 5.57901 17.0391 9.24818 17.0391L9.63318 17.0216L7.41068 14.7991L6.62318 15.5807C4.72734 14.6707 3.36234 12.8157 3.15234 10.6224H2.27734ZM9.24818 10.6224C6.99068 10.6224 5.16484 11.5382 5.16484 12.6641V13.5391H13.3315V12.6641C13.3315 11.5382 11.5057 10.6224 9.24818 10.6224Z" fill="#252117"/>
</svg>
