<svg width="32" height="32" viewBox="0 0 32 32" fill="none" xmlns="http://www.w3.org/2000/svg">
<path d="M16 32C24.8365 32 32 24.8366 32 16C32 7.16344 24.8365 0 16 0C7.16342 0 0 7.16344 0 16C0 24.8366 7.16342 32 16 32Z" fill="#EBEBEB"/>
<path d="M17.9734 16.0008L21.9186 12.0556C22.5762 11.3981 22.5762 10.5214 21.9186 10.083C21.2611 9.64464 20.3844 9.42546 19.946 10.083L16.0008 14.0282L12.0556 10.083C11.3981 9.42546 10.5214 9.42546 10.083 10.083C9.64464 10.7405 9.42546 11.6172 10.083 12.0556L14.0282 16.0008L10.083 19.946C9.42546 20.6035 9.42546 21.4803 10.083 21.9186C10.3022 22.1378 10.7405 22.357 11.1789 22.357C11.6172 22.357 11.8364 22.1378 12.2748 21.9186L16.22 17.9734L20.1652 21.9186C20.3844 22.1378 20.8227 22.357 21.2611 22.357C21.6994 22.357 21.9186 22.1378 22.357 21.9186C23.0145 21.2611 23.0145 20.3844 22.357 19.946L17.9734 16.0008Z" fill="#252117"/>
</svg>
