<svg width="24" height="24" viewBox="0 0 24 24" fill="none" xmlns="http://www.w3.org/2000/svg">
<g opacity="0.25">
<path d="M12 24C18.6274 24 24 18.6274 24 12C24 5.37258 18.6274 0 12 0C5.37257 0 0 5.37258 0 12C0 18.6274 5.37257 24 12 24Z" fill="#EBEBEB"/>
</g>
<path d="M13.4791 11.9996L16.438 9.04072C16.9312 8.54757 16.9312 7.89004 16.438 7.56127C15.9449 7.2325 15.2873 7.06812 14.9585 7.56127L11.9996 10.5202L9.04074 7.56127C8.54759 7.06812 7.89004 7.06812 7.56127 7.56127C7.2325 8.05442 7.06812 8.71196 7.56127 9.04072L10.5202 11.9996L7.56127 14.9585C7.06812 15.4517 7.06812 16.1092 7.56127 16.438C7.72565 16.6024 8.05442 16.7668 8.38319 16.7668C8.71196 16.7668 8.87634 16.6024 9.20511 16.438L12.164 13.4791L15.1229 16.438C15.2873 16.6024 15.6161 16.7668 15.9448 16.7668C16.2736 16.7668 16.438 16.6024 16.7668 16.438C17.2599 15.9448 17.2599 15.2873 16.7668 14.9585L13.4791 11.9996Z" fill="#A0AFBF"/>
</svg>
