<svg width="78" height="59" viewBox="0 0 78 59" fill="none" xmlns="http://www.w3.org/2000/svg">
<path d="M71.3249 38.8569V35.6695C71.3249 32.8363 70.4143 30.509 68.5929 28.6877C66.7716 26.8663 64.4443 25.9557 61.6111 25.9557H42.1834V19.4292C44.0047 19.4292 45.5478 18.7968 46.8126 17.5319C48.0775 16.2671 48.7099 14.724 48.7099 12.9027V6.52796C48.7099 4.70661 48.0775 3.16353 46.8126 1.8987C45.5478 0.633877 44.0047 0.00146484 42.1834 0.00146484H35.8087C33.9873 0.00146484 32.4442 0.633877 31.1794 1.8987C29.9146 3.16353 29.2822 4.70661 29.2822 6.52796V12.9027C29.2822 14.724 29.9146 16.2671 31.1794 17.5319C32.4442 18.7968 33.9873 19.4292 35.8087 19.4292V25.9557H16.381C13.5478 25.9557 11.2205 26.8663 9.39914 28.6877C7.57779 30.509 6.66712 32.8363 6.66712 35.6695V38.8569C4.84577 38.8569 3.30269 39.4893 2.03786 40.7541C0.773037 42.0189 0.140625 43.562 0.140625 45.3834V51.7581C0.140625 53.5794 0.773037 55.1225 2.03786 56.3873C3.30269 57.6521 4.84577 58.2846 6.66712 58.2846H13.0418C14.8632 58.2846 16.4063 57.6521 17.6711 56.3873C18.9359 55.1225 19.5683 53.5794 19.5683 51.7581V45.3834C19.5683 43.562 18.9359 42.0189 17.6711 40.7541C16.4063 39.4893 14.8632 38.8569 13.0418 38.8569V35.6695C13.0418 33.4434 14.1549 32.3304 16.381 32.3304H35.8087V38.8569C33.9873 38.8569 32.4442 39.4893 31.1794 40.7541C29.9146 42.0189 29.2822 43.562 29.2822 45.3834V51.7581C29.2822 53.5794 29.9146 55.1225 31.1794 56.3873C32.4442 57.6521 33.9873 58.2846 35.8087 58.2846H42.1834C44.0047 58.2846 45.5478 57.6521 46.8126 56.3873C48.0775 55.1225 48.7099 53.5794 48.7099 51.7581V45.3834C48.7099 43.562 48.0775 42.0189 46.8126 40.7541C45.5478 39.4893 44.0047 38.8569 42.1834 38.8569V32.3304H61.6111C63.8372 32.3304 64.9502 33.4434 64.9502 35.6695V38.8569C63.1289 38.8569 61.5858 39.4893 60.321 40.7541C59.0561 42.0189 58.4237 43.562 58.4237 45.3834V51.7581C58.4237 53.5794 59.0561 55.1225 60.321 56.3873C61.5858 57.6521 63.1289 58.2846 64.9502 58.2846H71.3249C73.1463 58.2846 74.6894 57.6521 75.9542 56.3873C77.219 55.1225 77.8514 53.5794 77.8514 51.7581V45.3834C77.8514 43.562 77.219 42.0189 75.9542 40.7541C74.6894 39.4893 73.1463 38.8569 71.3249 38.8569ZM35.8087 6.52796H42.1834V12.9027H35.8087V6.52796ZM13.0418 51.7581H6.66712V45.3834H13.0418V51.7581ZM42.1834 51.7581H35.8087V45.3834H42.1834V51.7581ZM64.9502 51.7581V45.3834H71.3249V51.7581H64.9502Z" fill="#A0AFBF"/>
</svg>
