<svg width="36" height="36" viewBox="0 0 36 36" fill="none" xmlns="http://www.w3.org/2000/svg">
<g opacity="0.8">
<rect x="0.853516" y="1.26953" width="34.2291" height="34.23" rx="6.5" fill="white" stroke="#DCDCDC"/>
<path d="M17.5929 20.5619L14.524 23.2709L15.6141 24.1778C16.1147 24.6197 15.7601 25.3753 15.0522 25.3753H11.3438C10.905 25.3753 10.5508 25.0612 10.5508 24.6738V21.4003C10.5508 20.7753 11.4051 20.4624 11.9057 20.9043L12.9347 21.8679L16.0036 19.1589C16.2104 18.9763 16.5459 18.9763 16.7528 19.1589L17.5929 19.9005C17.7998 20.0831 17.7998 20.3792 17.5929 20.5619ZM18.3421 17.0946L21.4109 14.3856L20.3209 13.4787C19.8202 13.0368 20.1748 12.2812 20.8828 12.2812H24.5911C25.03 12.2812 25.3842 12.5953 25.3842 12.9827V16.2562C25.3842 16.8812 24.5298 17.1941 24.0292 16.7522L23.0002 15.7886L19.9314 18.4976C19.7245 18.6802 19.3891 18.6802 19.1822 18.4976L18.3421 17.756C18.1352 17.5734 18.1352 17.2773 18.3421 17.0946Z" fill="#A0AFBF"/>
</g>
</svg>
