<svg width="55" height="41" viewBox="0 0 55 41" fill="none" xmlns="http://www.w3.org/2000/svg">
<g clip-path="url(#clip0_279:3356)">
<path d="M40.1278 34.7033C34.1142 38.2973 29.1635 38.8447 23.5884 36.5316C21.1856 35.5414 18.6638 34.0209 15.7629 31.8105C13.381 28.5177 12.1064 24.5241 12.1302 20.4281C12.154 16.3321 13.4748 12.3543 15.8948 9.09061C18.74 6.92962 21.2283 5.44904 23.5903 4.47022C29.1654 2.15718 34.1142 2.70266 40.1297 6.29861C40.3005 6.40057 40.4893 6.46712 40.6853 6.49446C40.8813 6.52179 41.0806 6.50938 41.2719 6.45794C41.4632 6.40649 41.6427 6.31701 41.8002 6.19462C41.9576 6.07222 42.09 5.9193 42.1897 5.74459C42.2894 5.56987 42.3545 5.37678 42.3812 5.17635C42.4079 4.97592 42.3958 4.77206 42.3455 4.57643C42.2952 4.38079 42.2077 4.1972 42.088 4.03615C41.9683 3.87509 41.8188 3.73972 41.648 3.63776C34.8297 -0.433354 28.9126 -1.05865 22.4586 1.61741C16.6828 4.01218 10.3606 9.02979 0.641427 18.9225C0.43825 19.1293 0.277025 19.3751 0.167012 19.6458C0.0569992 19.9165 0.000366211 20.2068 0.000366211 20.5C0.000366211 20.7932 0.0569992 21.0834 0.167012 21.3541C0.277025 21.6249 0.43825 21.8707 0.641427 22.0775C10.3606 31.9759 16.6828 36.9897 22.4586 39.3845C25.0603 40.4583 27.556 41.0019 30.0778 41C33.8206 41 37.5782 39.7988 41.6554 37.3603C42.0004 37.1544 42.2513 36.8167 42.3529 36.4216C42.4545 36.0265 42.3985 35.6063 42.1971 35.2535C41.9958 34.9006 41.6656 34.644 41.2793 34.5401C40.893 34.4362 40.4821 34.4935 40.1371 34.6995L40.1278 34.7033Z" fill="black"/>
<path d="M54.7063 5.44312C53.8886 5.73011 53.0598 6.0247 52.2644 6.39342L51.6623 6.66711C51.4634 6.76024 51.272 6.86667 51.075 6.96741C50.6885 7.17457 50.2871 7.36844 49.9043 7.58891C48.3679 8.47406 46.8915 9.46398 45.4851 10.552C44.0783 11.6391 42.7422 12.8042 41.4413 14.0092L40.4935 14.9329C40.1739 15.2408 39.8617 15.5506 39.5644 15.8661L38.6463 16.8164L37.7432 17.7667C36.6746 18.928 35.5243 20.0208 34.4223 21.1422C34.2903 21.0281 34.1565 20.916 34.0227 20.8077C33.2218 20.1699 32.3482 19.6338 31.421 19.2112C30.5055 18.7887 29.5375 18.4971 28.5443 18.3445C28.2953 18.3084 28.0407 18.2856 27.7917 18.2665C27.5426 18.2475 27.2825 18.2494 27.0334 18.2551C26.7796 18.2657 26.5266 18.2899 26.2752 18.3274C26.0236 18.3739 25.7753 18.4374 25.5319 18.5174L25.4055 19.1883C25.5765 19.3784 25.7419 19.5171 25.8943 19.6806C26.0466 19.8441 26.1972 19.9999 26.3403 20.1653C26.6265 20.4903 26.8978 20.8096 27.1487 21.1327C27.275 21.298 27.4014 21.452 27.5203 21.6135C27.6393 21.7751 27.7619 21.9366 27.879 22.0944C27.9961 22.2521 28.1076 22.4213 28.2191 22.5809C28.3306 22.7406 28.4365 22.9059 28.5461 23.0599C28.9717 23.6985 29.3638 24.3276 29.7058 24.9415C30.0281 25.5089 30.3094 26.0997 30.5476 26.7091C30.6126 26.8478 30.6442 26.9809 30.6944 27.1101L30.7297 27.207L30.7483 27.2545V27.2659L30.7669 27.3078C30.8016 27.3825 30.8387 27.4547 30.8784 27.5244C31.199 28.1184 31.6572 28.6228 32.2127 28.9936C33.0421 29.5476 34.0389 29.7773 35.0204 29.6409C36.002 29.5044 36.9026 29.0108 37.5573 28.2505C37.6112 28.1896 37.6614 28.1269 37.7116 28.0604L37.7636 27.9939L37.8119 27.9293L37.9086 27.8C38.4121 27.1059 38.8786 26.3846 39.3061 25.639C39.7353 24.8902 40.146 24.1375 40.5679 23.3887C40.9897 22.6399 41.432 21.9119 41.9003 21.2087L42.6046 20.152L43.3183 19.1085C43.7884 18.4053 44.2772 17.7287 44.7603 17.0387C45.2435 16.3488 45.7341 15.6703 46.247 15.0108C46.4998 14.6801 46.7432 14.3323 47.0052 14.0111L47.7876 13.0304C48.0478 12.7035 48.3228 12.3937 48.5923 12.0801L48.99 11.5935L49.4118 11.1316C49.6943 10.8275 49.9693 10.5044 50.2611 10.2099C50.5528 9.91526 50.8465 9.61686 51.1401 9.31466C51.4337 9.01246 51.7478 8.74448 52.0544 8.45368C52.2086 8.31304 52.361 8.16479 52.519 8.02795L53.0022 7.62502L53.4872 7.22209C53.5671 7.15367 53.647 7.08334 53.7306 7.01682L53.9834 6.82676C54.3216 6.57335 54.6604 6.31676 54.9999 6.05701L54.7063 5.44312ZM32.2201 23.6738L32.209 23.689L32.2294 23.6605L32.2201 23.6738Z" fill="black"/>
</g>
<defs>
<clipPath id="clip0_279:3356">
<rect width="55" height="41" fill="white"/>
</clipPath>
</defs>
</svg>
