<svg width="31" height="24" viewBox="0 0 31 24" fill="none" xmlns="http://www.w3.org/2000/svg">
<path d="M22.6093 19.7936C19.2135 21.8449 16.4323 22.1581 13.2872 20.8385C11.937 20.2708 10.5108 19.4085 8.87759 18.1442C7.53464 16.2652 6.81587 13.9862 6.82899 11.6486C6.84211 9.31104 7.58641 7.04081 8.95036 5.17817C10.5544 3.94403 11.9564 3.10006 13.2872 2.54076C16.4323 1.22122 19.22 1.53603 22.6093 3.584C22.705 3.65466 22.8138 3.70391 22.9289 3.72865C23.044 3.75338 23.1628 3.75304 23.2778 3.72766C23.3927 3.70228 23.5013 3.6524 23.5967 3.58121C23.692 3.51002 23.772 3.41906 23.8316 3.31412C23.8911 3.20918 23.929 3.09256 23.9426 2.97166C23.9563 2.85077 23.9456 2.72825 23.9111 2.61189C23.8766 2.49553 23.8191 2.38788 23.7422 2.29578C23.6654 2.20368 23.5708 2.12914 23.4647 2.07691C19.6227 -0.249033 16.2867 -0.602363 12.6501 0.921474C9.39504 2.2879 5.83275 5.1497 0.360778 10.8013C0.246421 10.9194 0.155689 11.0596 0.0937797 11.2141C0.0318706 11.3685 0 11.5341 0 11.7014C0 11.8686 0.0318706 12.0342 0.0937797 12.1886C0.155689 12.3431 0.246421 12.4834 0.360778 12.6014C5.83922 18.2497 9.4015 21.1115 12.6501 22.4812C14.0124 23.0713 15.4731 23.3797 16.9497 23.3888C19.0518 23.3888 21.175 22.7023 23.4744 21.3107C23.659 21.1884 23.7908 20.9969 23.8422 20.7762C23.8935 20.5556 23.8605 20.3229 23.75 20.1269C23.6395 19.9309 23.46 19.7868 23.2492 19.7246C23.0384 19.6625 22.8126 19.6872 22.619 19.7936H22.6093Z" fill="#4BAA73"/>
<path d="M30.8316 3.09766C30.3708 3.26511 29.9035 3.43256 29.4556 3.64021L29.1144 3.79594C29.0028 3.84953 28.8945 3.90981 28.791 3.9634C28.5727 4.08229 28.3463 4.19281 28.1312 4.32007C27.265 4.82475 26.4325 5.38923 25.6394 6.00969C24.8487 6.63094 24.0935 7.29574 23.3627 7.9823L22.8274 8.50978C22.6474 8.68617 22.4717 8.86367 22.3003 9.04229L21.7828 9.58317L21.2735 10.1307C20.6703 10.8006 20.0235 11.4168 19.4026 12.0565C19.3282 11.9912 19.2522 11.9275 19.1762 11.8656C18.724 11.5018 18.231 11.196 17.708 10.9546C17.1938 10.7111 16.6497 10.542 16.0909 10.4523C15.9503 10.4322 15.8064 10.4171 15.6673 10.407C15.5282 10.397 15.3795 10.397 15.2388 10.407C15.0981 10.4171 14.9509 10.4322 14.8119 10.4489C14.6696 10.4732 14.5291 10.5079 14.3915 10.5527L14.3203 10.9362C14.4173 11.0383 14.5095 11.1237 14.5968 11.2175C14.6841 11.3113 14.7666 11.3984 14.8475 11.4921C15.0092 11.678 15.1595 11.8605 15.3035 12.0447C15.3746 12.1402 15.4458 12.2273 15.5137 12.3194C15.5816 12.4115 15.6495 12.5036 15.7158 12.594C15.7821 12.6844 15.8435 12.7815 15.9082 12.8703C15.9729 12.959 16.0295 13.0562 16.0926 13.1449C16.3319 13.51 16.5518 13.8683 16.7394 14.2183C16.9203 14.541 17.0787 14.8768 17.2132 15.223C17.2503 15.3017 17.2681 15.3771 17.2956 15.4508L17.315 15.506L17.3263 15.5328L17.336 15.5563C17.3571 15.5981 17.3765 15.6383 17.3991 15.6785C17.5801 16.0169 17.8383 16.3043 18.151 16.5158C18.6184 16.832 19.1803 16.9633 19.7335 16.8855C20.2868 16.8077 20.7945 16.526 21.1635 16.0921L21.2508 15.9849L21.2799 15.9464L21.3074 15.9096L21.3608 15.8359C21.645 15.4398 21.9079 15.0278 22.1483 14.6018C22.3908 14.1748 22.6221 13.7461 22.8598 13.3191C23.0975 12.8921 23.3449 12.4818 23.6117 12.0749L24.0078 11.4721L24.4105 10.8759C24.6741 10.474 24.9506 10.0889 25.219 9.70373C25.4874 9.31859 25.7688 8.92172 26.0566 8.54662C26.1989 8.3574 26.3363 8.1598 26.4835 7.9756L26.9249 7.41631C27.0721 7.22876 27.2273 7.05293 27.3777 6.86873L27.6073 6.59578L27.8434 6.33288C28.0051 6.16542 28.1571 5.97452 28.3285 5.80539C28.4999 5.63627 28.6519 5.47049 28.8249 5.30303C28.9979 5.13558 29.1677 4.97817 29.3391 4.81239C29.4265 4.73201 29.5122 4.64493 29.6027 4.56958L29.8744 4.34017L30.1476 4.10573L30.2851 3.98851L30.4274 3.88134C30.6182 3.73733 30.809 3.59109 30.9998 3.44261L30.8316 3.09766ZM18.1559 13.5016L18.1672 13.4849L18.1559 13.5016Z" fill="#4BAA73"/>
</svg>
