<svg width="7" height="6" viewBox="0 0 7 6" fill="none" xmlns="http://www.w3.org/2000/svg">
<path d="M3.5 0C3.59946 0 3.69484 0.0395089 3.76517 0.109835C3.83549 0.180161 3.875 0.275544 3.875 0.375V2.625H6.125C6.22446 2.625 6.31984 2.66451 6.39017 2.73484C6.46049 2.80516 6.5 2.90054 6.5 3C6.5 3.09946 6.46049 3.19484 6.39017 3.26517C6.31984 3.33549 6.22446 3.375 6.125 3.375H3.875V5.625C3.875 5.72446 3.83549 5.81984 3.76517 5.89017C3.69484 5.96049 3.59946 6 3.5 6C3.40054 6 3.30516 5.96049 3.23484 5.89017C3.16451 5.81984 3.125 5.72446 3.125 5.625V3.375H0.875C0.775544 3.375 0.680161 3.33549 0.609835 3.26517C0.539509 3.19484 0.5 3.09946 0.5 3C0.5 2.90054 0.539509 2.80516 0.609835 2.73484C0.680161 2.66451 0.775544 2.625 0.875 2.625H3.125V0.375C3.125 0.275544 3.16451 0.180161 3.23484 0.109835C3.30516 0.0395089 3.40054 0 3.5 0V0Z" fill="#434240"/>
</svg>
