<svg width="24" height="24" viewBox="0 0 24 24" fill="none" xmlns="http://www.w3.org/2000/svg">
<path d="M20.25 15.3751H18.2653C18.1039 14.8334 17.7719 14.3583 17.3186 14.0204C16.8654 13.6826 16.3153 13.5001 15.75 13.5001C15.1847 13.5001 14.6346 13.6826 14.1814 14.0204C13.7281 14.3583 13.3961 14.8334 13.2347 15.3751H3.75C3.55109 15.3751 3.36032 15.4542 3.21967 15.5948C3.07902 15.7355 3 15.9262 3 16.1251C3 16.3241 3.07902 16.5148 3.21967 16.6555C3.36032 16.7961 3.55109 16.8751 3.75 16.8751H13.2347C13.3961 17.4169 13.7281 17.892 14.1814 18.2299C14.6346 18.5677 15.1847 18.7502 15.75 18.7502C16.3153 18.7502 16.8654 18.5677 17.3186 18.2299C17.7719 17.892 18.1039 17.4169 18.2653 16.8751H20.25C20.4489 16.8751 20.6397 16.7961 20.7803 16.6555C20.921 16.5148 21 16.3241 21 16.1251C21 15.9262 20.921 15.7355 20.7803 15.5948C20.6397 15.4542 20.4489 15.3751 20.25 15.3751ZM15.75 17.2501C15.5275 17.2501 15.31 17.1842 15.125 17.0605C14.94 16.9369 14.7958 16.7612 14.7106 16.5557C14.6255 16.3501 14.6032 16.1239 14.6466 15.9057C14.69 15.6874 14.7972 15.487 14.9545 15.3297C15.1118 15.1723 15.3123 15.0652 15.5305 15.0218C15.7488 14.9784 15.975 15.0006 16.1805 15.0858C16.3861 15.1709 16.5618 15.3151 16.6854 15.5001C16.809 15.6851 16.875 15.9026 16.875 16.1251C16.8747 16.4234 16.756 16.7094 16.5451 16.9203C16.3342 17.1312 16.0483 17.2498 15.75 17.2501ZM3.75 8.62505H7.23469C7.39613 9.16678 7.72815 9.64192 8.18135 9.97976C8.63456 10.3176 9.18473 10.5001 9.75 10.5001C10.3153 10.5001 10.8654 10.3176 11.3186 9.97976C11.7719 9.64192 12.1039 9.16678 12.2653 8.62505H20.25C20.4489 8.62505 20.6397 8.54604 20.7803 8.40538C20.921 8.26473 21 8.07396 21 7.87505C21 7.67614 20.921 7.48537 20.7803 7.34472C20.6397 7.20407 20.4489 7.12505 20.25 7.12505H12.2653C12.1039 6.58332 11.7719 6.10819 11.3186 5.77034C10.8654 5.4325 10.3153 5.25 9.75 5.25C9.18473 5.25 8.63456 5.4325 8.18135 5.77034C7.72815 6.10819 7.39613 6.58332 7.23469 7.12505H3.75C3.55109 7.12505 3.36032 7.20407 3.21967 7.34472C3.07902 7.48537 3 7.67614 3 7.87505C3 8.07396 3.07902 8.26473 3.21967 8.40538C3.36032 8.54604 3.55109 8.62505 3.75 8.62505ZM9.75 6.75005C9.9725 6.75005 10.19 6.81603 10.375 6.93965C10.56 7.06327 10.7042 7.23897 10.7894 7.44453C10.8745 7.6501 10.8968 7.8763 10.8534 8.09453C10.81 8.31276 10.7028 8.51321 10.5455 8.67055C10.3882 8.82788 10.1877 8.93503 9.96948 8.97844C9.75125 9.02184 9.52505 8.99957 9.31948 8.91442C9.11391 8.82927 8.93821 8.68507 8.8146 8.50007C8.69098 8.31506 8.625 8.09756 8.625 7.87505C8.62532 7.57678 8.74395 7.29082 8.95486 7.07991C9.16577 6.86901 9.45173 6.75037 9.75 6.75005Z" fill="#252117"/>
</svg>
