<svg width="114" height="27" viewBox="0 0 114 27" fill="none" xmlns="http://www.w3.org/2000/svg">
<g clip-path="url(#clip0_8654_21273)">
<path d="M0 20.7481V3.50195H11.7773V6.03982H3.31352V11.0409H10.6898V13.559H3.31352V18.2399H11.7773V20.7526L0 20.7481Z" fill="#252117"/>
<path d="M22.5595 8.28289H26.1309L18.0054 26.3915H14.8714L17.5377 20.0064L11.9727 8.2793H15.5706L19.142 16.8282L22.5595 8.28289Z" fill="#252117"/>
<path d="M54.4115 13.8753C54.4115 11.707 53.5054 10.5739 51.9785 10.5739C50.5282 10.5739 49.1053 11.6333 49.0278 14.3681V20.7532H45.8438V8.28241H49.0278V10.3769C49.7261 8.84808 51.2009 8.01172 52.8837 8.01172C54.5145 8.01172 56.1197 8.62775 56.9738 10.3499C58.0132 8.35436 59.8471 8.01172 61.2709 8.01172C64.661 8.01172 66.1368 10.2537 66.1368 13.8501V20.7487H62.9527V13.8753C62.9527 11.707 62.0466 10.5739 60.5198 10.5739C59.0704 10.5739 57.6466 11.6333 57.5691 14.3681V20.7532H54.4115V13.8753Z" fill="#252117"/>
<path d="M82.4831 8.28241V20.7487H79.2991V18.8764C78.3675 20.2316 76.7367 21.0194 74.8215 21.0194C70.9383 21.0194 68.4023 18.1128 68.4023 14.4661C68.4023 10.9435 70.8353 8.01172 74.847 8.01172C76.6072 8.01172 78.238 8.70149 79.2991 10.1305V8.28241H82.4831ZM75.4668 18.4842C77.6399 18.4842 79.3747 17.0795 79.3747 14.6172C79.3747 12.2025 77.7439 10.5514 75.3884 10.5514C72.9819 10.5514 71.6091 12.35 71.6091 14.494C71.61 16.7081 73.0849 18.4842 75.4668 18.4842Z" fill="#252117"/>
<path d="M88.7766 11.0415C89.216 8.92272 90.9498 8.01172 92.3481 8.01172C92.7884 8.01172 93.0473 8.08546 93.4356 8.18349V11.1647C92.952 11.0051 92.4442 10.9219 91.9324 10.9183C90.7674 10.9183 88.8258 11.5343 88.8258 14.9832V20.7487H85.6445V8.28241H88.7766V11.0415Z" fill="#252117"/>
<path d="M102.23 8.28198H105.751V8.6516L101.191 13.998L103.158 16.9046C103.831 17.8408 104.244 18.2842 105.203 18.2842C105.486 18.2842 106.242 18.2104 106.756 17.8408L107.89 19.9353C106.802 20.9452 105.405 21.019 104.758 21.019C102.765 21.019 101.652 19.9848 100.746 18.7527L98.1059 14.7121V20.7483H94.9219V2.93555H98.1059V13.4315L102.23 8.28198Z" fill="#252117"/>
<path d="M39.0232 18.7337C37.0391 19.8353 35.414 20.0035 33.5763 19.2949C32.7873 18.99 31.954 18.5268 30.9997 17.8479C30.215 16.8388 29.7951 15.6148 29.8027 14.3594C29.8104 13.104 30.2453 11.8848 31.0422 10.8845C31.9795 10.2217 32.7987 9.7684 33.5763 9.46803C35.414 8.75937 37.0429 8.92844 39.0232 10.0283C39.0791 10.0663 39.1427 10.0927 39.21 10.106C39.2772 10.1193 39.3467 10.1191 39.4138 10.1055C39.481 10.0918 39.5445 10.065 39.6002 10.0268C39.6559 9.98857 39.7026 9.93972 39.7374 9.88337C39.7722 9.82701 39.7943 9.76438 39.8023 9.69945C39.8103 9.63452 39.804 9.56872 39.7839 9.50623C39.7637 9.44374 39.7301 9.38593 39.6852 9.33646C39.6403 9.287 39.5851 9.24697 39.523 9.21892C37.2781 7.96977 35.3289 7.78002 33.204 8.59839C31.3021 9.33224 29.2206 10.8692 26.0233 13.9044C25.9565 13.9678 25.9035 14.0431 25.8673 14.1261C25.8311 14.209 25.8125 14.2979 25.8125 14.3877C25.8125 14.4775 25.8311 14.5665 25.8673 14.6494C25.9035 14.7324 25.9565 14.8077 26.0233 14.8711C29.2244 17.9045 31.3058 19.4414 33.204 20.1771C34 20.494 34.8535 20.6596 35.7163 20.6645C36.9446 20.6645 38.1852 20.2958 39.5287 19.5485C39.6366 19.4828 39.7136 19.3799 39.7436 19.2614C39.7736 19.1429 39.7543 19.018 39.6897 18.9127C39.6252 18.8074 39.5203 18.73 39.3971 18.6966C39.274 18.6633 39.142 18.6766 39.0289 18.7337H39.0232Z" fill="#4BAA73"/>
<path d="M43.8273 9.76562C43.5581 9.85556 43.285 9.94549 43.0233 10.057L42.8239 10.1406C42.7587 10.1694 42.6954 10.2018 42.635 10.2306C42.5074 10.2944 42.3751 10.3538 42.2495 10.4221C41.7433 10.6932 41.2569 10.9963 40.7935 11.3295C40.3315 11.6632 39.8902 12.0202 39.4632 12.3889L39.1504 12.6722C39.0452 12.7669 38.9426 12.8623 38.8424 12.9582L38.5401 13.2487L38.2425 13.5427C37.89 13.9025 37.5121 14.2334 37.1493 14.577C37.1058 14.5419 37.0614 14.5077 37.017 14.4744C36.7528 14.2791 36.4647 14.1148 36.1591 13.9852C35.8587 13.8544 35.5407 13.7636 35.2143 13.7154C35.1321 13.7046 35.048 13.6965 34.9667 13.6911C34.8855 13.6857 34.7986 13.6857 34.7164 13.6911C34.6342 13.6965 34.5482 13.7046 34.4669 13.7136C34.3838 13.7267 34.3017 13.7453 34.2213 13.7694L34.1797 13.9753C34.2364 14.0302 34.2902 14.076 34.3413 14.1264C34.3923 14.1768 34.4405 14.2235 34.4877 14.2739C34.5822 14.3737 34.6701 14.4717 34.7541 14.5707C34.7957 14.6219 34.8373 14.6687 34.877 14.7182C34.9167 14.7676 34.9563 14.8171 34.9951 14.8656C35.0338 14.9142 35.0697 14.9664 35.1075 15.014C35.1453 15.0617 35.1784 15.1139 35.2152 15.1615C35.3551 15.3576 35.4836 15.55 35.5932 15.738C35.6989 15.9113 35.7914 16.0916 35.87 16.2776C35.8917 16.3198 35.9021 16.3603 35.9182 16.3999L35.9295 16.4296L35.9361 16.4439L35.9418 16.4565C35.9541 16.479 35.9654 16.5006 35.9786 16.5222C36.0844 16.7039 36.2352 16.8583 36.418 16.9718C36.6911 17.1417 37.0194 17.2122 37.3427 17.1704C37.6659 17.1286 37.9626 16.9773 38.1782 16.7443L38.2292 16.6868L38.2462 16.6661L38.2623 16.6463L38.2935 16.6067C38.4595 16.394 38.6131 16.1727 38.7536 15.9439C38.8953 15.7146 39.0304 15.4844 39.1693 15.255C39.3082 15.0257 39.4528 14.8054 39.6087 14.5869L39.8402 14.2631L40.0754 13.9429C40.2294 13.7271 40.391 13.5203 40.5478 13.3134C40.7047 13.1066 40.8691 12.8934 41.0373 12.692C41.1204 12.5904 41.2007 12.4843 41.2867 12.3853L41.5446 12.085C41.6306 11.9842 41.7213 11.8898 41.8092 11.7909L41.9433 11.6443L42.0813 11.5031C42.1758 11.4132 42.2646 11.3106 42.3647 11.2198C42.4649 11.129 42.5537 11.04 42.6548 10.95C42.7559 10.8601 42.8551 10.7756 42.9553 10.6865C43.0063 10.6434 43.0564 10.5966 43.1093 10.5561L43.268 10.4329L43.4277 10.307L43.508 10.2441L43.5911 10.1865C43.7026 10.1092 43.8141 10.0306 43.9256 9.95088L43.8273 9.76562ZM36.4208 15.3531L36.4274 15.3441L36.4208 15.3531Z" fill="#4BAA73"/>
</g>
<defs>
<clipPath id="clip0_8654_21273">
<rect width="113.468" height="26.073" fill="white" transform="translate(0 0.318359)"/>
</clipPath>
</defs>
</svg>
