<svg width="8" height="5" viewBox="0 0 8 5" fill="none" xmlns="http://www.w3.org/2000/svg">
<path d="M4 4.986C3.93142 4.98609 3.8635 4.97262 3.80014 4.94637C3.73678 4.92013 3.67924 4.88162 3.63081 4.83306L0.149934 1.35218C0.0533328 1.25399 -0.00055653 1.12161 4.33449e-06 0.983873C0.000565199 0.846133 0.0555309 0.714194 0.152929 0.616796C0.250326 0.519398 0.382265 0.464432 0.520005 0.463872C0.657745 0.463311 0.790127 0.5172 0.888315 0.613802L4 3.72544L7.11168 0.613802C7.20987 0.5172 7.34225 0.463311 7.47999 0.463872C7.61773 0.464432 7.74967 0.519398 7.84707 0.616796C7.94447 0.714194 7.99943 0.846133 8 0.983873C8.00056 1.12161 7.94667 1.25399 7.85007 1.35218L4.36919 4.83306C4.32076 4.88162 4.26322 4.92013 4.19986 4.94637C4.1365 4.97262 4.06858 4.98609 4 4.986Z" fill="#ADADAD"/>
</svg>
