<svg width="33" height="96" viewBox="0 0 33 96" fill="none" xmlns="http://www.w3.org/2000/svg">
<path d="M0.5 0H20.5C27.1274 0 32.5 5.37258 32.5 12V84C32.5 90.6274 27.1274 96 20.5 96H0.5V0Z" fill="black" fill-opacity="0.6"/>
<path d="M14.2396 48C14.2395 47.9314 14.253 47.8635 14.2792 47.8001C14.3055 47.7368 14.344 47.6792 14.3925 47.6308L17.8734 44.1499C17.9716 44.0533 18.104 43.9994 18.2417 44C18.3795 44.0006 18.5114 44.0555 18.6088 44.1529C18.7062 44.2503 18.7612 44.3823 18.7617 44.52C18.7623 44.6577 18.7084 44.7901 18.6118 44.8883L15.5001 48L18.6118 51.1117C18.7084 51.2099 18.7623 51.3423 18.7617 51.48C18.7612 51.6177 18.7062 51.7497 18.6088 51.8471C18.5114 51.9445 18.3795 51.9994 18.2417 52C18.104 52.0006 17.9716 51.9467 17.8734 51.8501L14.3925 48.3692C14.344 48.3208 14.3055 48.2632 14.2792 48.1999C14.253 48.1365 14.2395 48.0686 14.2396 48Z" fill="white"/>
</svg>
