<svg width="150" height="150" viewBox="0 0 150 150" fill="none" xmlns="http://www.w3.org/2000/svg">
<rect width="150" height="150" rx="75" fill="white"/>
<rect width="150" height="150" rx="75" fill="url(#paint0_diamond_7811_12878)" fill-opacity="0.8"/>
<g clip-path="url(#clip0_7811_12878)">
<path d="M98.3535 89.0652L94.7993 78.4H90.8993L93.0651 88.8H54.9335L57.0993 78.4H53.1993L49.6425 89.0652C48.7403 91.7796 50.3393 94 53.1993 94H94.7993C97.6593 94 99.2583 91.7796 98.3535 89.0652ZM86.9993 55C86.9993 51.5522 85.6297 48.2456 83.1917 45.8076C80.7537 43.3696 77.4471 42 73.9993 42C70.5515 42 67.2449 43.3696 64.8069 45.8076C62.3689 48.2456 60.9993 51.5522 60.9993 55C60.9993 67.415 73.9993 81 73.9993 81C73.9993 81 86.9993 67.415 86.9993 55ZM66.9793 55.156C66.9793 54.2342 67.1609 53.3215 67.5137 52.47C67.8665 51.6184 68.3837 50.8447 69.0356 50.193C69.6875 49.5414 70.4614 49.0245 71.3131 48.672C72.1648 48.3195 73.0776 48.1383 73.9993 48.1386C75.8608 48.1386 77.646 48.8781 78.9623 50.1943C80.2785 51.5106 81.018 53.2958 81.018 55.1573C81.018 57.0188 80.2785 58.804 78.9623 60.1203C77.646 61.4365 75.8608 62.176 73.9993 62.176C72.1375 62.176 70.3519 61.4364 69.0354 60.1199C67.7189 58.8034 66.9793 57.0178 66.9793 55.156Z" fill="white"/>
</g>
<defs>
<radialGradient id="paint0_diamond_7811_12878" cx="0" cy="0" r="1" gradientUnits="userSpaceOnUse" gradientTransform="translate(73.5718 75) rotate(45.5508) scale(105.061 214.201)">
<stop stop-color="#4BAA73"/>
<stop offset="1" stop-color="#F0F5F3"/>
</radialGradient>
<clipPath id="clip0_7811_12878">
<rect width="52" height="52" fill="white" transform="translate(48 42)"/>
</clipPath>
</defs>
</svg>
