<svg width="10" height="9" viewBox="0 0 10 9" fill="none" xmlns="http://www.w3.org/2000/svg">
<path d="M9.73077 0.829344C9.68584 0.794274 9.63352 0.769904 9.57777 0.758086C9.52202 0.746268 9.4643 0.747313 9.40902 0.76114L6.54364 1.47744L3.66772 0.0395L3.66519 0.0384686C3.65209 0.0320144 3.63863 0.0263328 3.62488 0.021453C3.62239 0.0205624 3.61991 0.019953 3.61747 0.0191093C3.60603 0.0153593 3.59442 0.0121405 3.58264 0.00945298C3.57876 0.00859366 3.57487 0.00779675 3.57097 0.00706242C3.55981 0.00490617 3.54855 0.00326557 3.53717 0.00214057C3.53389 0.00181244 3.53061 0.00134372 3.52733 0.00110935C3.51267 -2.23188e-05 3.49796 -0.000288505 3.48327 0.000312374L3.48223 0.000406073C3.46833 0.00113535 3.45448 0.0026377 3.44075 0.0049061C3.43606 0.0056561 3.43147 0.00673434 3.42678 0.00762497C3.42088 0.00879684 3.41497 0.00964045 3.40902 0.0111405L0.409016 0.76114C0.327889 0.78143 0.255872 0.828254 0.204412 0.89417C0.152951 0.960087 0.125 1.04131 0.125 1.12494V7.87494C0.125 7.93193 0.137989 7.98817 0.162981 8.03939C0.187974 8.09061 0.224311 8.13546 0.269233 8.17053C0.314155 8.2056 0.36648 8.22997 0.422232 8.24179C0.477984 8.25361 0.535696 8.25256 0.590984 8.23873L3.45645 7.52239L6.33233 8.96033C6.33402 8.96117 6.3358 8.96173 6.33748 8.96258C6.34767 8.96748 6.35805 8.97192 6.36861 8.97589L6.37447 8.97823C6.38699 8.98266 6.39975 8.98642 6.41267 8.98948L6.41867 8.9908C6.42992 8.9933 6.44133 8.99528 6.45289 8.99675C6.45523 8.99703 6.45758 8.99741 6.46002 8.99764C6.4895 9.00115 6.51931 9.0008 6.5487 8.99661C6.55395 8.99591 6.55911 8.99459 6.56431 8.9937C6.57322 8.99216 6.58213 8.99098 6.59103 8.98873L9.59103 8.23873C9.67215 8.21844 9.74415 8.17161 9.79561 8.10569C9.84706 8.03978 9.875 7.95856 9.875 7.87494V1.12494C9.875 1.06795 9.86202 1.0117 9.83702 0.960482C9.81203 0.909261 9.77569 0.864413 9.73077 0.829344ZM0.875 1.41772L3.125 0.855219V6.83216L0.875 7.39466V1.41772ZM6.125 8.01819L3.875 6.89319V0.981687L6.125 2.10669V8.01819ZM9.125 7.58216L6.875 8.14466V2.16772L9.125 1.60522V7.58216Z" fill="#4BAA73"/>
</svg>
