<svg width="14" height="17" viewBox="0 0 14 17" fill="none" xmlns="http://www.w3.org/2000/svg">
<path d="M6.94215 0V7.28571H0V17H6.94215H13.8843V0H6.94215ZM2.54545 12.7211H0.92562V11.102H2.54545V12.7211ZM2.54545 9.71428H0.92562V7.97959H2.54545V9.71428ZM5.66942 12.7211H3.93388V11.102H5.55372V12.7211H5.66942ZM5.66942 9.71428H3.93388V7.97959H5.55372V9.71428H5.66942ZM9.83471 8.90476H8.09917V7.17007H9.71901V8.90476H9.83471ZM9.83471 5.78231H8.09917V4.04762H9.71901V5.78231H9.83471ZM9.83471 2.65986H8.09917V0.92517H9.71901V2.65986H9.83471ZM12.843 8.90476H11.2231V7.17007H12.843V8.90476ZM12.843 5.78231H11.2231V4.04762H12.843V5.78231ZM12.843 2.65986H11.2231V0.92517H12.843V2.65986Z" fill="#C8C8C8"/>
</svg>
