<svg width="389" height="279" viewBox="0 0 389 279" fill="none" xmlns="http://www.w3.org/2000/svg">
<g clip-path="url(#clip0_8578_18193)">
<path d="M184.143 275.953H0.0898438V276.753H184.143V275.953Z" fill="#C8C8C8"/>
<path d="M268.941 249.415L268.941 248.615C270.532 248.614 272.147 248.581 273.742 248.518L273.774 249.317C272.169 249.382 270.543 249.414 268.941 249.415ZM264.11 249.322C262.51 249.26 260.887 249.164 259.286 249.038L259.349 248.24C260.939 248.366 262.552 248.461 264.141 248.523L264.11 249.322ZM278.598 249.027L278.534 248.229C280.122 248.102 281.729 247.941 283.311 247.75L283.407 248.545C281.815 248.737 280.197 248.899 278.598 249.027ZM254.476 248.561C252.881 248.37 251.27 248.144 249.69 247.891L249.817 247.101C251.387 247.353 252.986 247.576 254.571 247.766L254.476 248.561ZM288.192 247.869L288.064 247.079C289.634 246.825 291.223 246.535 292.787 246.217L292.946 247.001C291.372 247.322 289.772 247.614 288.192 247.869H288.192ZM244.935 247.028C243.36 246.709 241.773 246.354 240.218 245.973L240.408 245.196C241.953 245.574 243.529 245.927 245.093 246.243L244.935 247.028ZM297.662 245.941L297.471 245.164C299.02 244.783 300.58 244.365 302.108 243.922L302.331 244.691C300.793 245.137 299.222 245.557 297.662 245.941ZM235.548 244.728C234.005 244.283 232.452 243.801 230.932 243.295L231.185 242.536C232.694 243.038 234.237 243.517 235.769 243.959L235.548 244.728ZM306.945 243.252L306.691 242.493C308.202 241.988 309.723 241.446 311.213 240.88L311.497 241.627C309.997 242.197 308.465 242.744 306.945 243.252ZM226.365 241.671C224.864 241.102 223.352 240.494 221.871 239.863L222.184 239.127C223.656 239.753 225.158 240.358 226.649 240.922L226.365 241.671ZM315.967 239.825L315.653 239.089C317.116 238.464 318.585 237.802 320.018 237.12L320.362 237.843C318.919 238.529 317.44 239.196 315.967 239.825ZM217.454 237.875C216.001 237.185 214.543 236.456 213.123 235.71L213.495 235.002C214.906 235.743 216.353 236.467 217.797 237.152L217.454 237.875ZM324.676 235.684L324.303 234.976C325.712 234.235 327.124 233.455 328.499 232.66L328.9 233.352C327.516 234.153 326.094 234.938 324.676 235.684H324.676ZM208.884 233.372C207.49 232.566 206.097 231.723 204.744 230.866L205.173 230.19C206.516 231.041 207.9 231.878 209.285 232.68L208.884 233.372ZM333.028 230.852L332.599 230.176C333.941 229.326 335.286 228.435 336.598 227.528L337.053 228.186C335.732 229.1 334.378 229.996 333.028 230.852H333.028ZM200.71 228.196C199.386 227.281 198.067 226.33 196.786 225.366L197.268 224.727C198.539 225.684 199.85 226.629 201.165 227.538L200.71 228.196ZM340.969 225.361L340.488 224.722C341.756 223.768 343.027 222.772 344.263 221.762L344.77 222.381C343.525 223.398 342.246 224.401 340.969 225.361ZM192.981 222.382C191.738 221.367 190.5 220.313 189.299 219.248L189.829 218.65C191.022 219.707 192.253 220.754 193.487 221.762L192.981 222.382ZM348.449 219.25L347.918 218.652C349.11 217.595 350.297 216.5 351.446 215.397L352 215.974C350.844 217.084 349.649 218.187 348.449 219.25H348.449ZM185.745 215.971C184.591 214.862 183.441 213.712 182.327 212.554L182.904 211.999C184.011 213.15 185.153 214.292 186.3 215.393L185.745 215.971ZM355.419 212.557L354.842 212.002C355.945 210.855 357.041 209.669 358.1 208.475L358.699 209.006C357.633 210.207 356.529 211.402 355.419 212.557V212.557ZM179.049 209.005C177.982 207.802 176.928 206.565 175.916 205.327L176.536 204.82C177.541 206.05 178.588 207.279 179.648 208.473L179.049 209.005ZM361.834 205.326L361.215 204.82C362.226 203.583 363.224 202.312 364.181 201.041L364.82 201.522C363.857 202.802 362.852 204.081 361.834 205.326V205.326ZM172.933 201.528C171.969 200.248 171.018 198.931 170.106 197.614L170.764 197.158C171.67 198.467 172.615 199.775 173.573 201.047L172.933 201.528ZM367.652 197.6L366.994 197.145C367.903 195.831 368.796 194.483 369.648 193.139L370.324 193.567C369.466 194.92 368.567 196.277 367.652 197.6V197.6ZM167.439 193.59C166.581 192.238 165.739 190.85 164.936 189.463L165.628 189.062C166.426 190.439 167.263 191.818 168.114 193.161L167.439 193.59ZM372.833 189.429L372.141 189.028C372.942 187.643 373.724 186.227 374.465 184.818L375.173 185.191C374.427 186.609 373.64 188.035 372.833 189.429H372.833ZM162.602 185.24C161.857 183.824 161.129 182.373 160.441 180.927L161.163 180.584C161.847 182.02 162.57 183.461 163.31 184.867L162.602 185.24ZM377.34 180.861L376.618 180.518C377.303 179.077 377.968 177.601 378.595 176.132L379.331 176.446C378.7 177.925 378.03 179.411 377.34 180.861ZM158.456 176.534C157.826 175.06 157.219 173.557 156.651 172.065L157.399 171.78C157.963 173.262 158.566 174.755 159.192 176.219L158.456 176.534ZM381.142 171.952L380.393 171.668C380.961 170.171 381.505 168.645 382.009 167.134L382.768 167.387C382.26 168.909 381.713 170.445 381.142 171.952ZM155.024 167.513C154.515 165.992 154.03 164.44 153.583 162.9L154.351 162.677C154.795 164.207 155.277 165.748 155.783 167.259L155.024 167.513ZM384.204 162.771L383.435 162.549C383.877 161.022 384.294 159.462 384.675 157.911L385.451 158.102C385.068 159.663 384.648 161.234 384.204 162.771V162.771ZM152.33 158.232C151.946 156.674 151.588 155.088 151.268 153.517L152.052 153.357C152.37 154.917 152.725 156.493 153.107 158.04L152.33 158.232ZM386.509 153.386L385.724 153.227C386.041 151.668 386.33 150.079 386.584 148.504L387.374 148.631C387.118 150.217 386.827 151.817 386.509 153.386V153.386ZM150.397 148.763C150.14 147.183 149.912 145.574 149.719 143.978L150.513 143.882C150.705 145.467 150.932 147.066 151.187 148.635L150.397 148.763ZM388.047 143.845L387.252 143.749C387.442 142.165 387.603 140.558 387.729 138.973L388.527 139.036C388.399 140.632 388.238 142.25 388.047 143.844V143.845ZM149.234 139.17C149.104 137.572 149.006 135.949 148.941 134.346L149.74 134.313C149.805 135.905 149.903 137.518 150.031 139.106L149.234 139.17ZM388.814 134.212L388.015 134.181C388.077 132.586 388.109 130.971 388.109 129.381L388.109 129.115H388.909L388.909 129.379C388.909 130.981 388.877 132.607 388.814 134.212H388.814ZM149.64 129.513H148.84L148.84 129.379C148.84 127.818 148.87 126.237 148.93 124.682L149.73 124.713C149.67 126.258 149.64 127.828 149.64 129.381L149.64 129.513ZM388.003 124.317C387.937 122.728 387.838 121.115 387.707 119.525L388.505 119.459C388.636 121.061 388.736 122.684 388.803 124.283L388.003 124.317ZM150.01 119.92L149.212 119.858C149.338 118.255 149.498 116.637 149.687 115.048L150.482 115.143C150.294 116.721 150.135 118.329 150.01 119.92ZM387.221 114.749C387.028 113.17 386.799 111.572 386.542 109.996L387.332 109.867C387.591 111.453 387.821 113.063 388.015 114.652L387.221 114.749ZM151.144 110.388L150.354 110.262C150.608 108.677 150.897 107.077 151.215 105.506L151.999 105.664C151.684 107.225 151.396 108.814 151.144 110.388ZM385.671 105.275C385.35 103.711 384.993 102.136 384.61 100.593L385.387 100.401C385.773 101.954 386.132 103.54 386.455 105.114L385.671 105.275ZM153.044 100.978L152.266 100.789C152.647 99.231 153.065 97.6595 153.509 96.1172L154.278 96.3386C153.837 97.8705 153.422 99.4315 153.044 100.978H153.044ZM383.361 95.9578C382.916 94.4295 382.433 92.8882 381.925 91.377L382.684 91.1222C383.195 92.6436 383.681 94.1952 384.13 95.7339L383.361 95.9578ZM155.699 91.7531L154.939 91.5007C155.446 89.977 155.991 88.4404 156.561 86.9337L157.31 87.2166C156.744 88.7133 156.202 90.2396 155.699 91.7531ZM380.303 86.8581C379.735 85.3696 379.13 83.8768 378.506 82.4209L379.241 82.1056C379.87 83.5712 380.479 85.074 381.051 86.5725L380.303 86.8581ZM159.103 82.7507L158.366 82.4373C158.995 80.959 159.663 79.4726 160.352 78.02L161.075 78.3627C160.391 79.8057 159.727 81.2821 159.103 82.7507ZM376.529 78.0583C375.844 76.6239 375.121 75.1837 374.378 73.7776L375.086 73.4039C375.833 74.8195 376.562 76.2693 377.251 77.7137L376.529 78.0583ZM163.223 74.0593L162.515 73.6877C163.26 72.266 164.046 70.8394 164.85 69.4474L165.543 69.8475C164.745 71.2302 163.964 72.6474 163.223 74.0593L163.223 74.0593ZM372.055 69.5858C371.255 68.2082 370.417 66.8301 369.564 65.4893L370.24 65.0598C371.098 66.4096 371.941 67.7971 372.747 69.1837L372.055 69.5858ZM168.03 65.7341L167.354 65.3062C168.212 63.949 169.11 62.591 170.022 61.2701L170.68 61.7247C169.774 63.0368 168.883 64.3856 168.03 65.7341V65.7341ZM366.91 61.4949C366.002 60.187 365.056 58.8795 364.098 57.6096L364.736 57.1275C365.701 58.406 366.654 59.722 367.567 61.039L366.91 61.4949ZM173.489 57.8259L172.849 57.3453C173.813 56.0618 174.817 54.7809 175.831 53.538L176.451 54.044C175.443 55.2785 174.447 56.5509 173.489 57.8259L173.489 57.8259ZM361.131 53.839C360.121 52.6076 359.073 51.3797 358.015 50.1895L358.612 49.6577C359.678 50.8559 360.733 52.092 361.75 53.3318L361.131 53.839ZM179.562 50.3843L178.963 49.8541C180.025 48.6537 181.127 47.4577 182.239 46.2992L182.816 46.8532C181.712 48.0039 180.617 49.1922 179.562 50.3843V50.3843ZM354.754 46.6665C353.647 45.5175 352.503 44.3769 351.354 43.2762L351.908 42.6983C353.064 43.8064 354.216 44.9546 355.33 46.1112L354.754 46.6665ZM186.208 43.4556L185.653 42.8788C186.808 41.7678 188.002 40.6643 189.201 39.5988L189.733 40.197C188.541 41.2555 187.355 42.3519 186.208 43.4556L186.208 43.4556ZM347.822 40.0239C346.626 38.9668 345.394 37.9208 344.161 36.9152L344.666 36.2949C345.908 37.3073 347.148 38.3602 348.352 39.4245L347.822 40.0239ZM193.384 37.0828L192.877 36.4639C194.119 35.447 195.396 34.443 196.674 33.4795L197.156 34.1183C195.886 35.0754 194.617 36.073 193.384 37.0828L193.384 37.0828ZM340.376 33.9552C339.1 32.9971 337.787 32.0529 336.476 31.1487L336.93 30.4899C338.25 31.4002 339.571 32.3506 340.857 33.3152L340.376 33.9552ZM201.044 31.3072L200.588 30.6495C201.907 29.7354 203.26 28.8373 204.61 27.98L205.039 28.6556C203.698 29.507 202.354 30.3991 201.044 31.3071V31.3072ZM332.465 28.5005C331.116 27.6483 329.732 26.8123 328.35 26.0158L328.75 25.3226C330.141 26.1244 331.534 26.9661 332.893 27.8239L332.465 28.5005ZM209.137 26.1676L208.735 25.4752C210.119 24.6728 211.539 23.8866 212.956 23.139L213.33 23.8466C211.922 24.5894 210.511 25.3703 209.137 26.1676V26.1676ZM324.138 23.6983C322.724 22.9579 321.276 22.236 319.833 21.5528L320.176 20.8295C321.628 21.5172 323.087 22.244 324.509 22.9895L324.138 23.6983ZM217.612 21.6977L217.267 20.9752C218.71 20.2874 220.188 19.6188 221.66 18.9882L221.975 19.7237C220.513 20.35 219.045 21.0141 217.612 21.6977V21.6977ZM315.444 19.5829C313.973 18.9583 312.471 18.3559 310.977 17.7921L311.26 17.0435C312.763 17.611 314.277 18.2176 315.757 18.8463L315.444 19.5829ZM226.414 17.9283L226.129 17.1804C227.626 16.6095 229.157 16.0614 230.679 15.5509L230.933 16.3097C229.422 16.8166 227.901 17.3613 226.414 17.9283V17.9283ZM306.439 16.1838C304.927 15.6823 303.384 15.205 301.853 14.7652L302.074 13.9963C303.616 14.439 305.169 14.9194 306.691 15.4242L306.439 16.1838ZM235.515 14.8752L235.292 14.107C236.831 13.6593 238.401 13.2369 239.959 12.8514L240.151 13.6282C238.604 14.0111 237.044 14.4308 235.515 14.8752V14.8752ZM297.213 13.534C295.668 13.1572 294.091 12.8065 292.527 12.4917L292.684 11.7071C294.259 12.024 295.847 12.3773 297.402 12.7565L297.213 13.534ZM244.834 12.5707L244.673 11.7868C246.242 11.4656 247.841 11.1718 249.427 10.9133L249.555 11.703C247.98 11.9599 246.392 12.2518 244.834 12.5707ZM287.802 11.6399C286.228 11.3891 284.628 11.1667 283.047 10.9796L283.141 10.1848C284.733 10.3733 286.344 10.597 287.928 10.8498L287.802 11.6399ZM254.308 11.0266L254.211 10.2323C255.803 10.0385 257.421 9.87413 259.019 9.74443L259.084 10.5419C257.496 10.6711 255.889 10.834 254.308 11.0266H254.308ZM278.269 10.5107C276.683 10.387 275.07 10.2936 273.476 10.2333L273.507 9.43342C275.111 9.49437 276.734 9.58836 278.331 9.71279L278.269 10.5107ZM263.876 10.2487L263.843 9.44925C265.443 9.38321 267.069 9.34843 268.675 9.3457L268.676 10.1459C267.081 10.1487 265.466 10.1832 263.876 10.2487H263.876Z" fill="#DCDCDC"/>
<path d="M226.488 204.292C269.137 204.292 303.71 169.719 303.71 127.07C303.71 84.4213 269.137 49.8477 226.488 49.8477C183.839 49.8477 149.266 84.4213 149.266 127.07C149.266 169.719 183.839 204.292 226.488 204.292Z" fill="#252117"/>
<path d="M199.08 183.485C221.73 183.485 240.092 158.226 240.092 127.069C240.092 95.9108 221.73 70.6523 199.08 70.6523C176.43 70.6523 158.068 95.9108 158.068 127.069C158.068 158.226 176.43 183.485 199.08 183.485Z" fill="white"/>
<path d="M185.485 157.026C191.806 157.026 196.931 148.965 196.931 139.021C196.931 129.077 191.806 121.016 185.485 121.016C179.164 121.016 174.039 129.077 174.039 139.021C174.039 148.965 179.164 157.026 185.485 157.026Z" fill="white"/>
<path d="M185.485 157.026C191.806 157.026 196.931 148.965 196.931 139.021C196.931 129.077 191.806 121.016 185.485 121.016C179.164 121.016 174.039 129.077 174.039 139.021C174.039 148.965 179.164 157.026 185.485 157.026Z" fill="url(#paint0_diamond_8578_18193)" fill-opacity="0.8"/>
<path d="M378.208 91.5462C382.406 91.5462 385.81 88.1426 385.81 83.944C385.81 79.7454 382.406 76.3418 378.208 76.3418C374.009 76.3418 370.605 79.7454 370.605 83.944C370.605 88.1426 374.009 91.5462 378.208 91.5462Z" fill="white"/>
<path d="M378.208 91.5462C382.406 91.5462 385.81 88.1426 385.81 83.944C385.81 79.7454 382.406 76.3418 378.208 76.3418C374.009 76.3418 370.605 79.7454 370.605 83.944C370.605 88.1426 374.009 91.5462 378.208 91.5462Z" fill="url(#paint1_diamond_8578_18193)" fill-opacity="0.8"/>
<path d="M290.393 22.4065C296.58 22.4065 301.596 17.3906 301.596 11.2032C301.596 5.01586 296.58 0 290.393 0C284.205 0 279.189 5.01586 279.189 11.2032C279.189 17.3906 284.205 22.4065 290.393 22.4065Z" fill="white"/>
<path d="M290.393 22.4065C296.58 22.4065 301.596 17.3906 301.596 11.2032C301.596 5.01586 296.58 0 290.393 0C284.205 0 279.189 5.01586 279.189 11.2032C279.189 17.3906 284.205 22.4065 290.393 22.4065Z" fill="url(#paint2_diamond_8578_18193)" fill-opacity="0.8"/>
<path d="M282.969 255.755C287.168 255.755 290.572 252.352 290.572 248.153C290.572 243.954 287.168 240.551 282.969 240.551C278.771 240.551 275.367 243.954 275.367 248.153C275.367 252.352 278.771 255.755 282.969 255.755Z" fill="white"/>
<path d="M282.969 255.755C287.168 255.755 290.572 252.352 290.572 248.153C290.572 243.954 287.168 240.551 282.969 240.551C278.771 240.551 275.367 243.954 275.367 248.153C275.367 252.352 278.771 255.755 282.969 255.755Z" fill="url(#paint3_diamond_8578_18193)" fill-opacity="0.8"/>
<path d="M296.811 7.32031C296.604 7.39171 296.395 7.46311 296.194 7.55165L296.041 7.61805C295.991 7.6409 295.943 7.6666 295.897 7.68945C295.799 7.74014 295.697 7.78727 295.601 7.84153C295.213 8.05672 294.84 8.2974 294.485 8.56196C294.13 8.82685 293.792 9.11031 293.465 9.40305L293.225 9.62796C293.144 9.70317 293.066 9.77885 292.989 9.85501L292.757 10.0856L292.529 10.3191C292.259 10.6047 291.969 10.8675 291.691 11.1402C291.657 11.1124 291.623 11.0852 291.589 11.0588C291.387 10.9037 291.166 10.7733 290.932 10.6704C290.701 10.5665 290.458 10.4945 290.207 10.4562C290.144 10.4476 290.08 10.4412 290.017 10.4369C289.955 10.4326 289.889 10.4326 289.826 10.4369C289.762 10.4412 289.697 10.4476 289.634 10.4548C289.571 10.4651 289.508 10.4799 289.446 10.499L289.414 10.6625C289.458 10.7061 289.499 10.7425 289.538 10.7825C289.577 10.8225 289.614 10.8596 289.65 10.8996C289.723 10.9788 289.79 11.0567 289.854 11.1352C289.886 11.1759 289.918 11.213 289.949 11.2523C289.979 11.2916 290.01 11.3308 290.039 11.3694C290.069 11.408 290.096 11.4494 290.125 11.4872C290.154 11.5251 290.18 11.5665 290.208 11.6043C290.315 11.76 290.414 11.9128 290.498 12.062C290.579 12.1996 290.65 12.3428 290.71 12.4904C290.727 12.5239 290.735 12.5561 290.747 12.5875L290.756 12.611L290.761 12.6225L290.765 12.6325C290.774 12.6503 290.783 12.6675 290.793 12.6846C290.874 12.8289 290.99 12.9514 291.13 13.0416C291.34 13.1764 291.591 13.2324 291.839 13.1992C292.087 13.166 292.314 13.046 292.48 12.8609L292.519 12.8153L292.532 12.7988L292.544 12.7831L292.568 12.7517C292.695 12.5828 292.813 12.4071 292.921 12.2255C293.029 12.0434 293.133 11.8606 293.24 11.6786C293.346 11.4965 293.457 11.3216 293.576 11.1481L293.754 10.891L293.934 10.6368C294.052 10.4655 294.176 10.3013 294.296 10.137C294.417 9.97282 294.543 9.8036 294.672 9.64367C294.735 9.56298 294.797 9.47873 294.863 9.40019L295.061 9.16172C295.127 9.08175 295.196 9.00678 295.263 8.92824L295.366 8.81186L295.472 8.69976C295.544 8.62836 295.613 8.54696 295.689 8.47485C295.766 8.40274 295.834 8.33205 295.912 8.26065C295.989 8.18925 296.065 8.12213 296.142 8.05145C296.181 8.01718 296.22 7.98005 296.26 7.94792L296.382 7.8501L296.504 7.75014L296.566 7.70016L296.63 7.65446C296.715 7.59306 296.801 7.5307 296.886 7.4674L296.811 7.32031ZM291.132 11.7564L291.137 11.7493L291.132 11.7564Z" fill="white"/>
<path d="M293.128 14.4397C291.607 15.3143 290.361 15.4478 288.952 14.8852C288.347 14.6432 287.709 14.2755 286.977 13.7364C286.375 12.9352 286.053 11.9635 286.059 10.9668C286.065 9.97008 286.399 9.00209 287.01 8.20789C287.728 7.68167 288.356 7.32182 288.952 7.08334C290.361 6.52071 291.61 6.65494 293.128 7.52816C293.171 7.55829 293.22 7.57929 293.272 7.58984C293.323 7.60038 293.376 7.60024 293.428 7.58941C293.479 7.57859 293.528 7.55733 293.571 7.52697C293.613 7.49662 293.649 7.45783 293.676 7.41309C293.703 7.36834 293.72 7.31862 293.726 7.26707C293.732 7.21552 293.727 7.16328 293.712 7.11367C293.696 7.06405 293.67 7.01815 293.636 6.97888C293.601 6.93961 293.559 6.90783 293.512 6.88556C291.79 5.89382 290.296 5.74316 288.667 6.3929C287.209 6.97553 285.613 8.19575 283.162 10.6055C283.11 10.6558 283.07 10.7157 283.042 10.7815C283.014 10.8474 283 10.918 283 10.9893C283 11.0606 283.014 11.1312 283.042 11.197C283.07 11.2629 283.11 11.3227 283.162 11.3731C285.616 13.7814 287.212 15.0016 288.667 15.5856C289.277 15.8372 289.932 15.9687 290.593 15.9726C291.535 15.9726 292.486 15.6799 293.516 15.0866C293.599 15.0344 293.658 14.9527 293.681 14.8587C293.704 14.7646 293.689 14.6654 293.639 14.5818C293.59 14.4982 293.509 14.4368 293.415 14.4103C293.321 14.3838 293.219 14.3943 293.133 14.4397H293.128Z" fill="white"/>
<path d="M382.684 81.9258C382.539 81.9758 382.393 82.0259 382.252 82.088L382.145 82.1345C382.11 82.1506 382.076 82.1686 382.043 82.1846C381.975 82.2201 381.904 82.2532 381.836 82.2912C381.564 82.4421 381.302 82.6109 381.053 82.7964C380.805 82.9821 380.568 83.1809 380.338 83.3861L380.17 83.5438C380.114 83.5965 380.058 83.6496 380.005 83.703L379.842 83.8647L379.682 84.0284C379.493 84.2287 379.289 84.4129 379.094 84.6041C379.071 84.5846 379.047 84.5656 379.023 84.5471C378.881 84.4383 378.726 84.3469 378.562 84.2747C378.401 84.2019 378.23 84.1514 378.054 84.1245C378.01 84.1185 377.965 84.114 377.921 84.111C377.877 84.108 377.831 84.108 377.787 84.111C377.742 84.114 377.696 84.1185 377.652 84.1235C377.608 84.1308 377.564 84.1412 377.52 84.1546L377.498 84.2692C377.529 84.2998 377.557 84.3253 377.585 84.3533C377.612 84.3814 377.638 84.4074 377.664 84.4354C377.714 84.491 377.762 84.5456 377.807 84.6006C377.829 84.6292 377.852 84.6552 377.873 84.6827C377.894 84.7103 377.916 84.7378 377.936 84.7648C377.957 84.7919 377.976 84.8209 377.997 84.8474C378.017 84.874 378.035 84.903 378.055 84.9295C378.13 85.0387 378.199 85.1458 378.258 85.2504C378.315 85.3469 378.364 85.4473 378.407 85.5508C378.418 85.5743 378.424 85.5969 378.433 85.6189L378.439 85.6354L378.442 85.6434L378.445 85.6504C378.452 85.663 378.458 85.675 378.465 85.687C378.522 85.7881 378.603 85.8741 378.701 85.9373C378.848 86.0318 379.025 86.0711 379.198 86.0478C379.372 86.0246 379.532 85.9404 379.647 85.8106L379.675 85.7786L379.684 85.7671L379.693 85.7561L379.709 85.734C379.799 85.6156 379.881 85.4925 379.957 85.3651C380.033 85.2374 380.106 85.1093 380.18 84.9816C380.255 84.8539 380.333 84.7313 380.416 84.6096L380.541 84.4294L380.667 84.2512C380.75 84.131 380.837 84.0159 380.921 83.9008C381.006 83.7856 381.094 83.667 381.184 83.5548C381.229 83.4982 381.272 83.4392 381.318 83.3841L381.457 83.2169C381.503 83.1608 381.552 83.1083 381.599 83.0532L381.671 82.9716L381.746 82.893C381.796 82.8429 381.844 82.7859 381.898 82.7353C381.952 82.6847 382 82.6352 382.054 82.5851C382.108 82.535 382.162 82.488 382.215 82.4384C382.243 82.4144 382.27 82.3884 382.298 82.3658L382.384 82.2972L382.469 82.2272L382.513 82.1921L382.557 82.1601C382.617 82.117 382.677 82.0733 382.737 82.0289L382.684 81.9258ZM378.703 85.0362L378.706 85.0312L378.703 85.0362Z" fill="white"/>
<path d="M380.102 86.9175C379.035 87.5308 378.161 87.6244 377.174 87.2299C376.749 87.0602 376.301 86.8024 375.788 86.4244C375.367 85.8627 375.141 85.1814 375.145 84.4825C375.149 83.7837 375.383 83.1049 375.811 82.5481C376.315 82.1791 376.756 81.9268 377.174 81.7596C378.161 81.3651 379.037 81.4592 380.102 82.0715C380.132 82.0926 380.166 82.1073 380.202 82.1147C380.238 82.1221 380.275 82.122 380.312 82.1144C380.348 82.1068 380.382 82.0919 380.412 82.0706C380.442 82.0494 380.467 82.0222 380.485 81.9908C380.504 81.9594 380.516 81.9246 380.52 81.8884C380.525 81.8523 380.521 81.8156 380.51 81.7809C380.5 81.7461 380.482 81.7139 380.457 81.6864C380.433 81.6588 380.404 81.6365 380.37 81.6209C379.163 80.9255 378.116 80.8199 376.973 81.2755C375.951 81.684 374.832 82.5396 373.113 84.2292C373.077 84.2645 373.049 84.3064 373.029 84.3526C373.01 84.3988 373 84.4483 373 84.4983C373 84.5483 373.01 84.5978 373.029 84.6439C373.049 84.6901 373.077 84.7321 373.113 84.7674C374.834 86.456 375.953 87.3115 376.973 87.7211C377.401 87.8975 377.86 87.9896 378.324 87.9924C378.984 87.9924 379.651 87.7871 380.373 87.3711C380.431 87.3345 380.473 87.2773 380.489 87.2113C380.505 87.1454 380.495 87.0758 380.46 87.0172C380.425 86.9586 380.369 86.9155 380.303 86.8969C380.236 86.8784 380.165 86.8857 380.105 86.9175H380.102Z" fill="white"/>
<path d="M287.684 245.926C287.539 245.976 287.393 246.026 287.252 246.088L287.145 246.135C287.11 246.151 287.076 246.169 287.043 246.185C286.975 246.22 286.904 246.253 286.836 246.291C286.564 246.442 286.302 246.611 286.053 246.796C285.805 246.982 285.568 247.181 285.338 247.386L285.17 247.544C285.114 247.597 285.058 247.65 285.005 247.703L284.842 247.865L284.682 248.028C284.493 248.229 284.289 248.413 284.094 248.604C284.071 248.585 284.047 248.566 284.023 248.547C283.881 248.438 283.726 248.347 283.562 248.275C283.401 248.202 283.23 248.151 283.054 248.125C283.01 248.119 282.965 248.114 282.921 248.111C282.877 248.108 282.831 248.108 282.787 248.111C282.742 248.114 282.696 248.119 282.652 248.124C282.608 248.131 282.564 248.141 282.52 248.155L282.498 248.269C282.529 248.3 282.557 248.325 282.585 248.353C282.612 248.381 282.638 248.407 282.664 248.435C282.714 248.491 282.762 248.546 282.807 248.601C282.829 248.629 282.852 248.655 282.873 248.683C282.894 248.71 282.916 248.738 282.936 248.765C282.957 248.792 282.976 248.821 282.997 248.847C283.017 248.874 283.035 248.903 283.055 248.93C283.13 249.039 283.199 249.146 283.258 249.25C283.315 249.347 283.364 249.447 283.407 249.551C283.418 249.574 283.424 249.597 283.433 249.619L283.439 249.635L283.442 249.643L283.445 249.65C283.452 249.663 283.458 249.675 283.465 249.687C283.522 249.788 283.603 249.874 283.701 249.937C283.848 250.032 284.025 250.071 284.198 250.048C284.372 250.025 284.532 249.94 284.647 249.811L284.675 249.779L284.684 249.767L284.693 249.756L284.709 249.734C284.799 249.616 284.881 249.492 284.957 249.365C285.033 249.237 285.106 249.109 285.18 248.982C285.255 248.854 285.333 248.731 285.416 248.61L285.541 248.429L285.667 248.251C285.75 248.131 285.837 248.016 285.921 247.901C286.006 247.786 286.094 247.667 286.184 247.555C286.229 247.498 286.272 247.439 286.318 247.384L286.457 247.217C286.503 247.161 286.552 247.108 286.599 247.053L286.671 246.972L286.746 246.893C286.796 246.843 286.844 246.786 286.898 246.735C286.952 246.685 287 246.635 287.054 246.585C287.108 246.535 287.162 246.488 287.215 246.438C287.243 246.414 287.27 246.388 287.298 246.366L287.384 246.297L287.469 246.227L287.513 246.192L287.557 246.16C287.617 246.117 287.677 246.073 287.737 246.029L287.684 245.926ZM283.703 249.036L283.706 249.031L283.703 249.036Z" fill="white"/>
<path d="M285.102 250.918C284.035 251.531 283.161 251.624 282.174 251.23C281.749 251.06 281.301 250.802 280.788 250.424C280.367 249.863 280.141 249.181 280.145 248.483C280.149 247.784 280.383 247.105 280.811 246.548C281.315 246.179 281.756 245.927 282.174 245.76C283.161 245.365 284.037 245.459 285.102 246.071C285.132 246.093 285.166 246.107 285.202 246.115C285.238 246.122 285.275 246.122 285.312 246.114C285.348 246.107 285.382 246.092 285.412 246.071C285.442 246.049 285.467 246.022 285.485 245.991C285.504 245.959 285.516 245.925 285.52 245.888C285.525 245.852 285.521 245.816 285.51 245.781C285.5 245.746 285.482 245.714 285.457 245.686C285.433 245.659 285.404 245.637 285.37 245.621C284.163 244.926 283.116 244.82 281.973 245.275C280.951 245.684 279.832 246.54 278.113 248.229C278.077 248.264 278.049 248.306 278.029 248.353C278.01 248.399 278 248.448 278 248.498C278 248.548 278.01 248.598 278.029 248.644C278.049 248.69 278.077 248.732 278.113 248.767C279.834 250.456 280.953 251.312 281.973 251.721C282.401 251.897 282.86 251.99 283.324 251.992C283.984 251.992 284.651 251.787 285.373 251.371C285.431 251.335 285.473 251.277 285.489 251.211C285.505 251.145 285.495 251.076 285.46 251.017C285.425 250.959 285.369 250.915 285.303 250.897C285.236 250.878 285.165 250.886 285.105 250.918H285.102Z" fill="white"/>
<path opacity="0.1" d="M113.884 149.945C113.865 150.074 113.876 150.206 113.918 150.33C113.959 150.454 114.029 150.567 114.122 150.659C114.287 149.854 114.071 149.003 114.241 148.192C114.491 146.973 115.676 146.054 115.778 144.829C113.606 144.403 113.901 148.629 113.884 149.945Z" fill="black"/>
<path opacity="0.1" d="M128.719 187.361V191.989L124.812 192.25H104.258V187.361H128.719Z" fill="black"/>
<path d="M128.718 187.36V192.249H104.256L39.2715 110.845V107H52.8946L128.718 187.36Z" fill="#D5AD98"/>
<path opacity="0.1" d="M128.718 187.36V192.249H104.256L39.2715 110.845V107H52.8946L128.718 187.36Z" fill="black"/>
<path opacity="0.1" d="M128.718 187.36V192.249H104.256L39.2715 110.845V107L104.608 187.36H128.718Z" fill="black"/>
<path d="M47.7915 268.951C47.8342 269.181 47.8291 269.418 47.7763 269.646C47.7236 269.874 47.6244 270.088 47.4849 270.276C47.3454 270.464 47.1687 270.621 46.9658 270.738C46.7629 270.854 46.5381 270.928 46.3055 270.953C44.7288 271.486 43.0557 272.014 41.9384 273.222C40.8211 274.43 40.5999 276.67 41.9384 277.651C42.6226 278.064 43.4081 278.278 44.207 278.27C46.7762 278.445 49.4532 278.411 51.7842 277.322C53.4517 276.551 55.0227 275.235 56.8546 275.354C57.8018 275.411 58.8113 275.854 59.6564 275.422C60.5014 274.991 60.7396 273.789 60.7453 272.785C60.7668 270.69 60.4509 268.604 59.8095 266.609C59.7244 266.337 56.1173 266.127 55.6863 266.042L51.3135 265.475C50.4854 265.367 48.6989 264.743 48.0467 265.435C47.3945 266.127 47.7915 268.129 47.7915 268.951Z" fill="white"/>
<path d="M47.7915 268.951C47.8342 269.181 47.8291 269.418 47.7763 269.646C47.7236 269.874 47.6244 270.088 47.4849 270.276C47.3454 270.464 47.1687 270.621 46.9658 270.738C46.7629 270.854 46.5381 270.928 46.3055 270.953C44.7288 271.486 43.0557 272.014 41.9384 273.222C40.8211 274.43 40.5999 276.67 41.9384 277.651C42.6226 278.064 43.4081 278.278 44.207 278.27C46.7762 278.445 49.4532 278.411 51.7842 277.322C53.4517 276.551 55.0227 275.235 56.8546 275.354C57.8018 275.411 58.8113 275.854 59.6564 275.422C60.5014 274.991 60.7396 273.789 60.7453 272.785C60.7668 270.69 60.4509 268.604 59.8095 266.609C59.7244 266.337 56.1173 266.127 55.6863 266.042L51.3135 265.475C50.4854 265.367 48.6989 264.743 48.0467 265.435C47.3945 266.127 47.7915 268.129 47.7915 268.951Z" fill="url(#paint4_linear_8578_18193)" fill-opacity="0.8"/>
<path d="M47.7915 268.951C47.8342 269.181 47.8291 269.418 47.7763 269.646C47.7236 269.874 47.6244 270.088 47.4849 270.276C47.3454 270.464 47.1687 270.621 46.9658 270.738C46.7629 270.854 46.5381 270.928 46.3055 270.953C44.7288 271.486 43.0557 272.014 41.9384 273.222C40.8211 274.43 40.5999 276.67 41.9384 277.651C42.6226 278.064 43.4081 278.278 44.207 278.27C46.7762 278.445 49.4532 278.411 51.7842 277.322C53.4517 276.551 55.0227 275.235 56.8546 275.354C57.8018 275.411 58.8113 275.854 59.6564 275.422C60.5014 274.991 60.7396 273.789 60.7453 272.785C60.7668 270.69 60.4509 268.604 59.8095 266.609C59.7244 266.337 56.1173 266.127 55.6863 266.042L51.3135 265.475C50.4854 265.367 48.6989 264.743 48.0467 265.435C47.3945 266.127 47.7915 268.129 47.7915 268.951Z" fill="url(#paint5_linear_8578_18193)" fill-opacity="0.8"/>
<path d="M73.886 254.795C74.0711 255.817 74.3718 256.814 74.7821 257.767C75.389 259.31 76.166 260.949 77.6519 261.698C79.0018 262.372 80.6579 262.129 82.0304 261.488C82.6032 261.25 83.1052 260.87 83.488 260.382C83.9307 259.61 84.1285 258.722 84.0551 257.835C84.0551 255.64 83.9247 253.372 82.9208 251.421C82.0587 249.719 80.5558 248.256 80.5331 246.373L75.3663 247.371C75.0897 247.398 74.8263 247.502 74.6063 247.672C74.4426 247.844 74.3289 248.058 74.2774 248.29C73.7257 250.412 73.5928 252.622 73.886 254.795Z" fill="white"/>
<path d="M73.886 254.795C74.0711 255.817 74.3718 256.814 74.7821 257.767C75.389 259.31 76.166 260.949 77.6519 261.698C79.0018 262.372 80.6579 262.129 82.0304 261.488C82.6032 261.25 83.1052 260.87 83.488 260.382C83.9307 259.61 84.1285 258.722 84.0551 257.835C84.0551 255.64 83.9247 253.372 82.9208 251.421C82.0587 249.719 80.5558 248.256 80.5331 246.373L75.3663 247.371C75.0897 247.398 74.8263 247.502 74.6063 247.672C74.4426 247.844 74.3289 248.058 74.2774 248.29C73.7257 250.412 73.5928 252.622 73.886 254.795Z" fill="url(#paint6_linear_8578_18193)" fill-opacity="0.8"/>
<path d="M73.886 254.795C74.0711 255.817 74.3718 256.814 74.7821 257.767C75.389 259.31 76.166 260.949 77.6519 261.698C79.0018 262.372 80.6579 262.129 82.0304 261.488C82.6032 261.25 83.1052 260.87 83.488 260.382C83.9307 259.61 84.1285 258.722 84.0551 257.835C84.0551 255.64 83.9247 253.372 82.9208 251.421C82.0587 249.719 80.5558 248.256 80.5331 246.373L75.3663 247.371C75.0897 247.398 74.8263 247.502 74.6063 247.672C74.4426 247.844 74.3289 248.058 74.2774 248.29C73.7257 250.412 73.5928 252.622 73.886 254.795Z" fill="url(#paint7_linear_8578_18193)" fill-opacity="0.8"/>
<path d="M12.1866 200.916C11.9711 202.742 12.0619 204.698 13.0147 206.275C13.9675 207.852 15.9753 208.895 17.7108 208.266C17.7997 208.243 17.8831 208.203 17.9562 208.147C18.0293 208.092 18.0904 208.022 18.1361 207.943C18.1823 207.751 18.156 207.549 18.0624 207.375C17.2962 205.331 17.3593 203.068 18.2382 201.069C18.3516 200.808 18.5955 200.502 18.8621 200.604C18.9736 200.66 19.0633 200.752 19.1173 200.865C19.3919 201.34 19.5293 201.881 19.5143 202.43C19.4343 202.927 19.419 203.432 19.4689 203.933C19.5767 204.421 20.0985 204.88 20.5522 204.67C20.6834 204.59 20.7968 204.483 20.8855 204.357C20.9742 204.232 21.0364 204.089 21.0683 203.938C22.3331 200.28 21.7603 196.282 21.1818 192.454C21.1866 192.366 21.1721 192.278 21.1392 192.196C21.1063 192.114 21.0559 192.041 20.9915 191.981C20.9272 191.921 20.8504 191.876 20.7666 191.849C20.6829 191.822 20.5942 191.813 20.5068 191.824C17.8299 191.558 16.3666 190.917 14.8353 193.406C13.5195 195.505 12.1866 198.392 12.1866 200.916Z" fill="white"/>
<path d="M12.1866 200.916C11.9711 202.742 12.0619 204.698 13.0147 206.275C13.9675 207.852 15.9753 208.895 17.7108 208.266C17.7997 208.243 17.8831 208.203 17.9562 208.147C18.0293 208.092 18.0904 208.022 18.1361 207.943C18.1823 207.751 18.156 207.549 18.0624 207.375C17.2962 205.331 17.3593 203.068 18.2382 201.069C18.3516 200.808 18.5955 200.502 18.8621 200.604C18.9736 200.66 19.0633 200.752 19.1173 200.865C19.3919 201.34 19.5293 201.881 19.5143 202.43C19.4343 202.927 19.419 203.432 19.4689 203.933C19.5767 204.421 20.0985 204.88 20.5522 204.67C20.6834 204.59 20.7968 204.483 20.8855 204.357C20.9742 204.232 21.0364 204.089 21.0683 203.938C22.3331 200.28 21.7603 196.282 21.1818 192.454C21.1866 192.366 21.1721 192.278 21.1392 192.196C21.1063 192.114 21.0559 192.041 20.9915 191.981C20.9272 191.921 20.8504 191.876 20.7666 191.849C20.6829 191.822 20.5942 191.813 20.5068 191.824C17.8299 191.558 16.3666 190.917 14.8353 193.406C13.5195 195.505 12.1866 198.392 12.1866 200.916Z" fill="url(#paint8_linear_8578_18193)" fill-opacity="0.8"/>
<path d="M12.1866 200.916C11.9711 202.742 12.0619 204.698 13.0147 206.275C13.9675 207.852 15.9753 208.895 17.7108 208.266C17.7997 208.243 17.8831 208.203 17.9562 208.147C18.0293 208.092 18.0904 208.022 18.1361 207.943C18.1823 207.751 18.156 207.549 18.0624 207.375C17.2962 205.331 17.3593 203.068 18.2382 201.069C18.3516 200.808 18.5955 200.502 18.8621 200.604C18.9736 200.66 19.0633 200.752 19.1173 200.865C19.3919 201.34 19.5293 201.881 19.5143 202.43C19.4343 202.927 19.419 203.432 19.4689 203.933C19.5767 204.421 20.0985 204.88 20.5522 204.67C20.6834 204.59 20.7968 204.483 20.8855 204.357C20.9742 204.232 21.0364 204.089 21.0683 203.938C22.3331 200.28 21.7603 196.282 21.1818 192.454C21.1866 192.366 21.1721 192.278 21.1392 192.196C21.1063 192.114 21.0559 192.041 20.9915 191.981C20.9272 191.921 20.8504 191.876 20.7666 191.849C20.6829 191.822 20.5942 191.813 20.5068 191.824C17.8299 191.558 16.3666 190.917 14.8353 193.406C13.5195 195.505 12.1866 198.392 12.1866 200.916Z" fill="url(#paint9_linear_8578_18193)" fill-opacity="0.8"/>
<path d="M43.4826 191.607C42.6886 194.908 41.8889 198.249 41.8379 201.64C41.8518 203.753 42.011 205.862 42.3143 207.953L42.9098 212.864C43.114 214.52 43.3125 216.171 43.6018 217.81C43.7863 218.654 43.887 219.515 43.9023 220.379C43.8467 221.231 43.7119 222.076 43.4997 222.903C43.143 224.64 42.9437 226.405 42.9041 228.177C42.8418 231.013 43.1934 233.849 43.4146 236.685C43.8562 242.336 43.7897 248.015 43.2161 253.654C42.9871 255.176 43.3175 256.73 44.1462 258.027C44.4825 258.436 44.7594 258.89 44.9686 259.377C45.394 260.675 44.4014 261.974 44.1462 263.307C43.983 264.346 44.2389 265.408 44.8578 266.259C45.4767 267.109 46.408 267.68 47.4471 267.844C51.9843 268.383 56.6463 268.139 60.7355 270.215C61.1666 268.956 60.2251 267.527 60.6561 266.245C60.9284 265.451 61.677 264.935 62.1875 264.266C62.8732 263.246 63.215 262.034 63.163 260.806C63.183 259.203 62.8982 257.612 62.3236 256.116C61.8415 254.868 61.1496 253.637 61.1893 252.299C61.1893 251.641 61.4218 250.949 61.1552 250.342C60.9724 249.993 60.724 249.683 60.4236 249.429C58.7286 247.572 57.6869 245.212 57.4574 242.708C57.2362 240.223 57.3162 237.721 57.6956 235.256C57.9735 232.907 58.3478 230.429 59.8394 228.597C59.1477 223.042 59.5543 217.406 61.0361 212.008C61.1836 211.509 61.4161 210.93 61.9266 210.811C62.1294 210.79 62.3341 210.819 62.5237 210.894C62.7132 210.969 62.8819 211.088 63.0155 211.242C63.9059 212.076 64.3313 213.284 64.717 214.441C65.1423 215.694 65.5734 217.033 65.2501 218.315C65.114 218.882 64.8418 219.381 64.6829 219.925C64.3379 221.019 64.3983 222.201 64.8531 223.255C65.0748 223.639 65.2138 224.066 65.2615 224.508C65.2089 224.887 65.0939 225.255 64.9212 225.597C64.7108 226.268 64.644 226.976 64.7251 227.675C64.8062 228.373 65.0334 229.047 65.3919 229.652C66.1148 230.856 67.0068 231.951 68.0405 232.902C67.5466 235.079 67.6743 237.35 68.4092 239.458C68.4622 239.553 68.496 239.658 68.5087 239.766C68.5213 239.874 68.5126 239.983 68.4829 240.088C68.3808 240.303 68.1199 240.383 67.9157 240.536C67.3486 241.001 67.7002 241.88 68.0802 242.487C69.1217 244.152 70.2717 245.748 71.5229 247.262C72.6572 248.618 72.5551 251.232 74.2452 251.72C74.9554 251.873 75.6902 251.873 76.4004 251.72C78.0678 251.465 79.9281 250.983 80.7448 249.508C81.0794 248.901 81.2156 248.164 81.7373 247.71C82.2591 247.257 82.934 247.177 83.2233 246.633C83.5125 246.088 83.1893 245.374 83.2857 244.744C83.3821 244.115 83.9322 243.61 84.1081 242.946C84.5278 241.415 82.7412 240.156 82.4973 238.59C82.1457 236.322 85.0042 234.62 84.8851 232.352C84.6355 227.423 84.4767 222.472 84.2215 217.543C83.9012 213.128 83.8557 208.698 84.0854 204.277C84.2839 201.527 84.6525 198.646 83.643 196.088C82.1911 192.481 78.1869 190.456 74.3133 190.07C70.4396 189.684 66.5773 190.603 62.7376 191.204C56.3651 192.187 49.8907 192.322 43.4826 191.607Z" fill="#252117"/>
<path d="M54.9941 137.4C60.012 137.4 64.0799 133.332 64.0799 128.314C64.0799 123.296 60.012 119.229 54.9941 119.229C49.9761 119.229 45.9082 123.296 45.9082 128.314C45.9082 133.332 49.9761 137.4 54.9941 137.4Z" fill="#8A4621"/>
<path d="M51.2954 139.094C50.9867 139.813 50.4677 140.421 49.8067 140.839C49.1456 141.257 48.3735 141.465 47.5918 141.436C47.2629 142.797 48.0512 144.17 48.953 145.242C50.8256 147.421 53.2454 149.061 55.9631 149.993C58.6808 150.925 61.5979 151.116 64.4137 150.545C65.5094 150.349 66.549 149.915 67.4593 149.274C68.6866 148.25 69.5105 146.823 69.7847 145.248C70.0457 143.683 70.12 142.094 70.0059 140.512C70.0377 140.199 69.9484 139.887 69.7563 139.638C69.5295 139.463 69.2491 139.371 68.9623 139.377C67.0453 139.207 65.0432 139.134 63.3588 138.192C61.6743 137.251 60.4776 135.124 61.2887 133.377C61.1582 133.649 57.846 133.78 57.4093 133.836C56.0425 134.029 54.6756 134.245 53.3145 134.494C52.6604 134.53 52.0139 134.652 51.3918 134.857C50.5694 135.283 50.8757 135.073 51.0685 135.844C51.3578 137.024 51.7831 137.869 51.2954 139.094Z" fill="#8A4621"/>
<path d="M58.2096 144.617C56.9859 144.631 55.7651 144.496 54.5741 144.214C53.3717 143.933 52.3118 143.226 51.5909 142.224C51.1712 141.588 50.899 140.789 50.2297 140.431C49.1351 139.864 47.8874 140.823 47.014 141.702C46.2187 142.569 45.2971 143.311 44.2803 143.902C43.0665 144.543 41.6486 144.77 40.503 145.524C39.608 146.201 38.8399 147.03 38.2344 147.975L30.1978 158.921C26.9706 163.322 24.1632 168.046 21.2877 172.691C18.7979 176.712 17.4935 181.34 15.6162 185.679C15.4675 185.945 15.406 186.25 15.4404 186.552C15.5084 186.847 15.8657 187.086 16.1153 186.915C15.2702 187.755 16.0132 189.184 15.8147 190.364C15.589 191.189 15.1184 191.927 14.4648 192.479C15.7132 192.316 16.9805 192.376 18.2081 192.655C19.4768 193.015 20.674 193.59 21.7471 194.357C22.4334 194.249 22.371 193.029 22.8815 192.576C23.1877 192.309 23.6414 192.343 24.0441 192.264C25.5584 191.969 26.1596 190.148 27.3223 189.122C28.2921 188.265 29.6646 187.987 30.6912 187.182C32.3586 185.872 32.7159 183.541 33.5894 181.607C34.3323 179.968 35.5007 178.539 36.1529 176.86C36.5783 175.771 36.7825 174.591 37.3893 173.587C38.3591 171.965 40.1854 171.103 41.9266 170.326C43.0268 169.833 44.1952 169.322 45.3805 169.402C45.3182 172.039 44.9835 174.637 45.5564 177.211C45.7549 178.119 46.0328 179.004 46.271 179.905C47.3542 183.966 47.6095 188.197 47.6605 192.383C50.2663 191.787 52.9278 191.467 55.6007 191.43C57.7049 191.368 59.8033 191.64 61.9075 191.6C64.403 191.555 66.8701 191.073 69.3656 190.903C71.8611 190.732 74.47 190.903 76.6762 192.037C76.4971 188.443 76.5976 184.84 76.9768 181.261L77.578 175.623C77.7137 173.985 77.9658 172.359 78.3323 170.757C78.6613 169.464 79.1377 168.216 79.5007 166.929C80.7768 162.392 80.5443 157.548 80.3004 152.824C80.1756 150.396 79.2398 148.009 78.1395 145.848C77.7413 145.045 77.2864 144.272 76.7783 143.534C75.4487 141.702 73.6768 140.236 71.6278 139.274C69.5789 138.312 67.3196 137.885 65.0609 138.032C64.7724 138.041 64.4879 138.103 64.2215 138.214C63.7428 138.52 63.3689 138.965 63.1496 139.49C61.9761 141.599 60.2736 143.366 58.2096 144.617Z" fill="#252117"/>
<path d="M47.0039 131.325C47.2591 130.758 47.9453 130.548 48.365 130.094C49.1704 129.232 48.8074 127.854 48.9322 126.691C49.1364 124.99 50.5486 123.566 52.165 122.959C53.8134 122.43 55.5674 122.319 57.2694 122.636C58.0886 122.696 58.8801 122.959 59.572 123.402C59.867 123.617 60.1392 123.895 60.4171 124.094C60.9237 124.4 61.5299 124.496 62.1063 124.361C62.6828 124.227 63.1838 123.872 63.5024 123.373C61.4947 120.957 59.2714 118.405 56.2201 117.662C55.1734 117.448 54.1067 117.348 53.0384 117.362C51.6262 117.333 50.1686 117.311 48.8641 117.849C47.0889 118.581 45.8412 120.265 45.2003 122.08C44.6398 123.92 44.3401 125.829 44.3099 127.752C44.1936 129.035 44.1936 130.326 44.3099 131.609C44.5291 133.361 45.18 135.031 46.2042 136.469C46.3426 136.692 46.5385 136.875 46.7713 136.997C49.3575 138.131 46.794 131.796 47.0039 131.325Z" fill="#252117"/>
<path d="M63.2067 121.971C62.8948 119.3 60.9891 117.093 58.9644 115.318C57.3325 113.779 55.3885 112.609 53.2645 111.887C51.1263 111.257 48.6648 111.394 46.8329 112.67C45.3583 113.696 44.4225 115.33 43.7022 116.974C42.756 118.915 42.2874 121.054 42.3354 123.213C42.4772 125.357 43.5207 127.529 45.381 128.612C46.0503 127.626 47.2129 127.115 48.3302 126.712C53.1999 124.865 58.166 123.282 63.2067 121.971Z" fill="white"/>
<path d="M63.2067 121.971C62.8948 119.3 60.9891 117.093 58.9644 115.318C57.3325 113.779 55.3885 112.609 53.2645 111.887C51.1263 111.257 48.6648 111.394 46.8329 112.67C45.3583 113.696 44.4225 115.33 43.7022 116.974C42.756 118.915 42.2874 121.054 42.3354 123.213C42.4772 125.357 43.5207 127.529 45.381 128.612C46.0503 127.626 47.2129 127.115 48.3302 126.712C53.1999 124.865 58.166 123.282 63.2067 121.971Z" fill="url(#paint10_linear_8578_18193)" fill-opacity="0.8"/>
<path d="M63.2067 121.971C62.8948 119.3 60.9891 117.093 58.9644 115.318C57.3325 113.779 55.3885 112.609 53.2645 111.887C51.1263 111.257 48.6648 111.394 46.8329 112.67C45.3583 113.696 44.4225 115.33 43.7022 116.974C42.756 118.915 42.2874 121.054 42.3354 123.213C42.4772 125.357 43.5207 127.529 45.381 128.612C46.0503 127.626 47.2129 127.115 48.3302 126.712C53.1999 124.865 58.166 123.282 63.2067 121.971Z" fill="url(#paint11_linear_8578_18193)" fill-opacity="0.8"/>
<path opacity="0.1" d="M46.0036 120.862C46.185 120.862 46.3042 121.049 46.3949 121.202C46.8567 121.921 47.2534 122.681 47.5803 123.471C46.9167 123.612 45.7767 123.771 45.4477 123.187C45.2719 122.892 45.4818 120.833 46.0036 120.862Z" fill="black"/>
<path opacity="0.1" d="M58.9303 119.58C58.7942 119.71 58.6354 119.444 58.6354 119.251V117.05C58.6317 116.989 58.6454 116.928 58.6751 116.875C58.6986 116.848 58.7273 116.826 58.7594 116.81C58.7916 116.795 58.8265 116.786 58.8622 116.784C59.3216 116.733 59.7016 117.124 59.9965 117.498C60.4441 118.105 60.8334 118.753 61.1592 119.432L58.7601 119.359" fill="black"/>
<path d="M88.8724 156.018C89.3943 155.523 89.9516 155.066 90.5398 154.651C92.1108 153.602 94.0108 153.188 95.7747 152.519C97.5385 151.85 99.3307 150.766 100.017 149.008C100.361 147.909 100.473 146.75 100.346 145.605C100.362 145.126 100.277 144.649 100.096 144.204C99.8805 143.812 99.5731 143.477 99.2003 143.229C96.8069 141.459 93.5968 141.318 90.6249 141.499C84.0728 141.905 77.6506 143.509 71.6762 146.229C71.3603 146.334 71.0834 146.531 70.8822 146.796C70.7659 147.042 70.7132 147.313 70.7291 147.585C70.6234 149.257 70.841 150.934 71.37 152.525C72.1526 154.544 73.7634 156.171 74.4383 158.23C74.7446 159.155 74.8466 160.136 75.1132 161.066C75.3319 162.027 75.8999 162.872 76.7069 163.437C78.9472 164.775 81.0627 162.977 82.6167 161.582L88.8724 156.018Z" fill="#252117"/>
<path d="M59.5328 163.873L56.6574 157.601C56.2358 156.731 55.872 155.835 55.5684 154.918C55.2395 153.823 55.0807 152.689 54.7744 151.589C53.7649 147.925 51.2183 144.874 49.9763 141.284C49.8977 140.959 49.7376 140.661 49.5112 140.416C49.3299 140.288 49.1226 140.201 48.9041 140.162C48.6855 140.122 48.461 140.132 48.2464 140.189C46.5109 140.49 45.1554 141.811 43.5674 142.56C42.8301 142.9 42.0361 143.127 41.2988 143.518C40.9302 143.693 40.6037 143.945 40.3414 144.257C40.079 144.569 39.8872 144.934 39.7788 145.327C39.603 146.195 40.034 147.029 40.397 147.874C41.9397 151.356 42.2913 155.247 42.3594 159.058C42.4104 161.622 42.28 164.373 40.7657 166.431C37.8561 170.401 39.7164 176.232 40.8053 181.036C40.9358 181.603 41.0889 182.215 41.1797 182.816C41.2756 183.569 41.3192 184.327 41.3101 185.085C41.3101 187.632 41.1683 190.258 40.1021 192.566C41.1548 193.126 42.315 193.455 43.505 193.53C46.7983 193.95 50.1048 194.245 53.4246 194.415C54.4647 194.513 55.5135 194.459 56.5383 194.256C57.7552 193.927 58.8279 193.202 59.587 192.196C60.346 191.189 60.748 189.958 60.7295 188.698C60.911 190.269 61.2457 191.976 62.3856 193.065C63.5256 194.154 65.1874 194.318 66.7357 194.403C71.1056 194.635 75.4871 194.512 79.837 194.035C80.1147 194.022 80.3877 193.959 80.6424 193.848C81.4818 193.428 81.5272 192.271 81.4591 191.341C81.3343 189.6 81.2039 187.858 80.994 186.129C80.8161 185.026 80.7251 183.911 80.7218 182.794C80.8083 181.645 80.9981 180.506 81.289 179.391C82.0489 175.852 82.6501 172.239 82.3949 168.615C82.294 167.732 82.258 166.843 82.2872 165.955C82.4346 163.953 83.4895 162.047 83.291 160.056C82.7239 154.203 82.2645 148.197 80.6311 142.548C80.3361 141.539 79.9618 140.456 79.0827 139.877C77.9484 139.117 76.3547 139.514 75.0559 139.032C74.4465 138.748 73.867 138.404 73.3261 138.005C72.1508 137.27 70.8036 136.856 69.4184 136.803C68.3748 136.763 67.2121 136.996 66.5826 137.835C66.2911 138.308 66.0982 138.835 66.0154 139.384C65.1931 142.843 64.2289 146.263 63.2647 149.683L62.3403 152.961L59.8618 161.764C59.6179 162.699 59.7824 162.989 59.5328 163.873Z" fill="white"/>
<path d="M59.5328 163.873L56.6574 157.601C56.2358 156.731 55.872 155.835 55.5684 154.918C55.2395 153.823 55.0807 152.689 54.7744 151.589C53.7649 147.925 51.2183 144.874 49.9763 141.284C49.8977 140.959 49.7376 140.661 49.5112 140.416C49.3299 140.288 49.1226 140.201 48.9041 140.162C48.6855 140.122 48.461 140.132 48.2464 140.189C46.5109 140.49 45.1554 141.811 43.5674 142.56C42.8301 142.9 42.0361 143.127 41.2988 143.518C40.9302 143.693 40.6037 143.945 40.3414 144.257C40.079 144.569 39.8872 144.934 39.7788 145.327C39.603 146.195 40.034 147.029 40.397 147.874C41.9397 151.356 42.2913 155.247 42.3594 159.058C42.4104 161.622 42.28 164.373 40.7657 166.431C37.8561 170.401 39.7164 176.232 40.8053 181.036C40.9358 181.603 41.0889 182.215 41.1797 182.816C41.2756 183.569 41.3192 184.327 41.3101 185.085C41.3101 187.632 41.1683 190.258 40.1021 192.566C41.1548 193.126 42.315 193.455 43.505 193.53C46.7983 193.95 50.1048 194.245 53.4246 194.415C54.4647 194.513 55.5135 194.459 56.5383 194.256C57.7552 193.927 58.8279 193.202 59.587 192.196C60.346 191.189 60.748 189.958 60.7295 188.698C60.911 190.269 61.2457 191.976 62.3856 193.065C63.5256 194.154 65.1874 194.318 66.7357 194.403C71.1056 194.635 75.4871 194.512 79.837 194.035C80.1147 194.022 80.3877 193.959 80.6424 193.848C81.4818 193.428 81.5272 192.271 81.4591 191.341C81.3343 189.6 81.2039 187.858 80.994 186.129C80.8161 185.026 80.7251 183.911 80.7218 182.794C80.8083 181.645 80.9981 180.506 81.289 179.391C82.0489 175.852 82.6501 172.239 82.3949 168.615C82.294 167.732 82.258 166.843 82.2872 165.955C82.4346 163.953 83.4895 162.047 83.291 160.056C82.7239 154.203 82.2645 148.197 80.6311 142.548C80.3361 141.539 79.9618 140.456 79.0827 139.877C77.9484 139.117 76.3547 139.514 75.0559 139.032C74.4465 138.748 73.867 138.404 73.3261 138.005C72.1508 137.27 70.8036 136.856 69.4184 136.803C68.3748 136.763 67.2121 136.996 66.5826 137.835C66.2911 138.308 66.0982 138.835 66.0154 139.384C65.1931 142.843 64.2289 146.263 63.2647 149.683L62.3403 152.961L59.8618 161.764C59.6179 162.699 59.7824 162.989 59.5328 163.873Z" fill="url(#paint12_linear_8578_18193)" fill-opacity="0.8"/>
<path d="M59.5328 163.873L56.6574 157.601C56.2358 156.731 55.872 155.835 55.5684 154.918C55.2395 153.823 55.0807 152.689 54.7744 151.589C53.7649 147.925 51.2183 144.874 49.9763 141.284C49.8977 140.959 49.7376 140.661 49.5112 140.416C49.3299 140.288 49.1226 140.201 48.9041 140.162C48.6855 140.122 48.461 140.132 48.2464 140.189C46.5109 140.49 45.1554 141.811 43.5674 142.56C42.8301 142.9 42.0361 143.127 41.2988 143.518C40.9302 143.693 40.6037 143.945 40.3414 144.257C40.079 144.569 39.8872 144.934 39.7788 145.327C39.603 146.195 40.034 147.029 40.397 147.874C41.9397 151.356 42.2913 155.247 42.3594 159.058C42.4104 161.622 42.28 164.373 40.7657 166.431C37.8561 170.401 39.7164 176.232 40.8053 181.036C40.9358 181.603 41.0889 182.215 41.1797 182.816C41.2756 183.569 41.3192 184.327 41.3101 185.085C41.3101 187.632 41.1683 190.258 40.1021 192.566C41.1548 193.126 42.315 193.455 43.505 193.53C46.7983 193.95 50.1048 194.245 53.4246 194.415C54.4647 194.513 55.5135 194.459 56.5383 194.256C57.7552 193.927 58.8279 193.202 59.587 192.196C60.346 191.189 60.748 189.958 60.7295 188.698C60.911 190.269 61.2457 191.976 62.3856 193.065C63.5256 194.154 65.1874 194.318 66.7357 194.403C71.1056 194.635 75.4871 194.512 79.837 194.035C80.1147 194.022 80.3877 193.959 80.6424 193.848C81.4818 193.428 81.5272 192.271 81.4591 191.341C81.3343 189.6 81.2039 187.858 80.994 186.129C80.8161 185.026 80.7251 183.911 80.7218 182.794C80.8083 181.645 80.9981 180.506 81.289 179.391C82.0489 175.852 82.6501 172.239 82.3949 168.615C82.294 167.732 82.258 166.843 82.2872 165.955C82.4346 163.953 83.4895 162.047 83.291 160.056C82.7239 154.203 82.2645 148.197 80.6311 142.548C80.3361 141.539 79.9618 140.456 79.0827 139.877C77.9484 139.117 76.3547 139.514 75.0559 139.032C74.4465 138.748 73.867 138.404 73.3261 138.005C72.1508 137.27 70.8036 136.856 69.4184 136.803C68.3748 136.763 67.2121 136.996 66.5826 137.835C66.2911 138.308 66.0982 138.835 66.0154 139.384C65.1931 142.843 64.2289 146.263 63.2647 149.683L62.3403 152.961L59.8618 161.764C59.6179 162.699 59.7824 162.989 59.5328 163.873Z" fill="url(#paint13_linear_8578_18193)" fill-opacity="0.8"/>
<path d="M74.034 129.533L128.895 187.185V192.074H104.434L63.207 138.267" fill="#D5AD98"/>
<path opacity="0.1" d="M74.034 129.533L128.895 187.185V192.074H104.434L63.207 138.267" fill="black"/>
<path opacity="0.1" d="M64.0805 137.508L64.2563 137.57L104.785 187.185H128.895V192.074H104.434L63.207 138.268L64.0805 137.508Z" fill="black"/>
<path d="M70.3908 138.722C68.4058 139.589 66.1995 140.701 65.604 142.788C65.4864 143.155 65.4611 143.544 65.5303 143.923C65.6753 144.368 65.9519 144.758 66.3236 145.043C66.6952 145.327 67.1443 145.492 67.6117 145.516C68.5457 145.539 69.4743 145.369 70.3398 145.017L82.0516 141.149C82.3692 141.047 82.7321 140.894 82.8115 140.582C82.8319 140.386 82.7924 140.188 82.6981 140.015C82.3351 139.13 81.9778 137.321 81.2178 136.703C80.594 136.204 79.3576 136.379 78.6033 136.391C75.6994 136.413 72.9714 137.587 70.3908 138.722Z" fill="white"/>
<path d="M70.3908 138.722C68.4058 139.589 66.1995 140.701 65.604 142.788C65.4864 143.155 65.4611 143.544 65.5303 143.923C65.6753 144.368 65.9519 144.758 66.3236 145.043C66.6952 145.327 67.1443 145.492 67.6117 145.516C68.5457 145.539 69.4743 145.369 70.3398 145.017L82.0516 141.149C82.3692 141.047 82.7321 140.894 82.8115 140.582C82.8319 140.386 82.7924 140.188 82.6981 140.015C82.3351 139.13 81.9778 137.321 81.2178 136.703C80.594 136.204 79.3576 136.379 78.6033 136.391C75.6994 136.413 72.9714 137.587 70.3908 138.722Z" fill="url(#paint14_linear_8578_18193)" fill-opacity="0.8"/>
<path d="M70.3908 138.722C68.4058 139.589 66.1995 140.701 65.604 142.788C65.4864 143.155 65.4611 143.544 65.5303 143.923C65.6753 144.368 65.9519 144.758 66.3236 145.043C66.6952 145.327 67.1443 145.492 67.6117 145.516C68.5457 145.539 69.4743 145.369 70.3398 145.017L82.0516 141.149C82.3692 141.047 82.7321 140.894 82.8115 140.582C82.8319 140.386 82.7924 140.188 82.6981 140.015C82.3351 139.13 81.9778 137.321 81.2178 136.703C80.594 136.204 79.3576 136.379 78.6033 136.391C75.6994 136.413 72.9714 137.587 70.3908 138.722Z" fill="url(#paint15_linear_8578_18193)" fill-opacity="0.8"/>
<path d="M80.8351 141.608C82.8082 141.602 84.7699 141.906 86.6485 142.51C88.5355 143.122 90.2068 144.264 91.4636 145.799C91.8297 146.228 92.09 146.737 92.2236 147.285C92.3371 147.852 94.186 148.193 93.7776 148.578C95.0197 148.38 94.7248 148.964 95.9839 148.953C97.243 148.941 98.6041 148.618 99.3585 147.614C99.8825 146.789 100.116 145.813 100.022 144.841C100.039 144.167 99.9109 143.498 99.6477 142.878C99.0805 141.687 97.7761 141.046 96.5737 140.496L86.4443 135.863C85.8567 135.55 85.226 135.326 84.5727 135.199C84.0229 135.147 83.4689 135.16 82.9223 135.239L78.334 135.766C79.3374 136.415 80.1543 137.315 80.7043 138.376C81.2543 139.437 81.5183 140.623 81.4704 141.818" fill="#252117"/>
</g>
<defs>
<radialGradient id="paint0_diamond_8578_18193" cx="0" cy="0" r="1" gradientUnits="userSpaceOnUse" gradientTransform="translate(185.267 139.021) rotate(58.0526) scale(21.2192 38.856)">
<stop stop-color="#4BAA73"/>
<stop offset="1" stop-color="#F0F5F3"/>
</radialGradient>
<radialGradient id="paint1_diamond_8578_18193" cx="0" cy="0" r="1" gradientUnits="userSpaceOnUse" gradientTransform="translate(378.063 83.944) rotate(45.5508) scale(10.6493 21.712)">
<stop stop-color="#4BAA73"/>
<stop offset="1" stop-color="#F0F5F3"/>
</radialGradient>
<radialGradient id="paint2_diamond_8578_18193" cx="0" cy="0" r="1" gradientUnits="userSpaceOnUse" gradientTransform="translate(290.179 11.2032) rotate(45.5508) scale(15.6936 31.9966)">
<stop stop-color="#4BAA73"/>
<stop offset="1" stop-color="#F0F5F3"/>
</radialGradient>
<radialGradient id="paint3_diamond_8578_18193" cx="0" cy="0" r="1" gradientUnits="userSpaceOnUse" gradientTransform="translate(282.825 248.153) rotate(45.5507) scale(10.6492 21.712)">
<stop stop-color="#4BAA73"/>
<stop offset="1" stop-color="#F0F5F3"/>
</radialGradient>
<linearGradient id="paint4_linear_8578_18193" x1="60.7463" y1="278.349" x2="48.4991" y2="260.093" gradientUnits="userSpaceOnUse">
<stop stop-color="#252117"/>
<stop offset="1" stop-opacity="0"/>
</linearGradient>
<linearGradient id="paint5_linear_8578_18193" x1="41.0156" y1="265.113" x2="52.9427" y2="283.238" gradientUnits="userSpaceOnUse">
<stop offset="0.484375" stop-color="#4BAA73"/>
<stop offset="1" stop-opacity="0"/>
</linearGradient>
<linearGradient id="paint6_linear_8578_18193" x1="84.0701" y1="262.1" x2="69.6336" y2="252.613" gradientUnits="userSpaceOnUse">
<stop stop-color="#252117"/>
<stop offset="1" stop-opacity="0"/>
</linearGradient>
<linearGradient id="paint7_linear_8578_18193" x1="73.7344" y1="246.373" x2="88.0048" y2="255.933" gradientUnits="userSpaceOnUse">
<stop offset="0.484375" stop-color="#4BAA73"/>
<stop offset="1" stop-opacity="0"/>
</linearGradient>
<linearGradient id="paint8_linear_8578_18193" x1="21.8266" y1="208.452" x2="7.20481" y2="200.029" gradientUnits="userSpaceOnUse">
<stop stop-color="#252117"/>
<stop offset="1" stop-opacity="0"/>
</linearGradient>
<linearGradient id="paint9_linear_8578_18193" x1="12.0898" y1="191.549" x2="26.5729" y2="200.053" gradientUnits="userSpaceOnUse">
<stop offset="0.484375" stop-color="#4BAA73"/>
<stop offset="1" stop-opacity="0"/>
</linearGradient>
<linearGradient id="paint10_linear_8578_18193" x1="63.2067" y1="128.612" x2="46.4519" y2="108.148" gradientUnits="userSpaceOnUse">
<stop stop-color="#252117"/>
<stop offset="1" stop-opacity="0"/>
</linearGradient>
<linearGradient id="paint11_linear_8578_18193" x1="42.332" y1="111.521" x2="58.7056" y2="131.908" gradientUnits="userSpaceOnUse">
<stop offset="0.484375" stop-color="#4BAA73"/>
<stop offset="1" stop-opacity="0"/>
</linearGradient>
<linearGradient id="paint12_linear_8578_18193" x1="83.3158" y1="194.517" x2="27.6241" y2="151.959" gradientUnits="userSpaceOnUse">
<stop stop-color="#252117"/>
<stop offset="1" stop-opacity="0"/>
</linearGradient>
<linearGradient id="paint13_linear_8578_18193" x1="39.209" y1="136.799" x2="94.1174" y2="179.573" gradientUnits="userSpaceOnUse">
<stop offset="0.484375" stop-color="#4BAA73"/>
<stop offset="1" stop-opacity="0"/>
</linearGradient>
<linearGradient id="paint14_linear_8578_18193" x1="82.8168" y1="145.518" x2="75.2381" y2="131.195" gradientUnits="userSpaceOnUse">
<stop stop-color="#252117"/>
<stop offset="1" stop-opacity="0"/>
</linearGradient>
<linearGradient id="paint15_linear_8578_18193" x1="65.4922" y1="136.352" x2="72.847" y2="150.522" gradientUnits="userSpaceOnUse">
<stop offset="0.484375" stop-color="#4BAA73"/>
<stop offset="1" stop-opacity="0"/>
</linearGradient>
<clipPath id="clip0_8578_18193">
<rect width="388.819" height="279" fill="white" transform="translate(0.0898438)"/>
</clipPath>
</defs>
</svg>
