<svg width="22" height="22" viewBox="0 0 22 22" fill="none" xmlns="http://www.w3.org/2000/svg">
<path d="M1.8124 0.903826C1.75354 0.840666 1.68257 0.790007 1.60372 0.754871C1.52486 0.719735 1.43973 0.700842 1.35342 0.699319C1.2671 0.697796 1.18136 0.713674 1.10131 0.746006C1.02127 0.778339 0.948552 0.826463 0.887507 0.887507C0.826463 0.948552 0.778339 1.02127 0.746006 1.10131C0.713674 1.18136 0.697796 1.2671 0.699319 1.35342C0.700842 1.43973 0.719735 1.52486 0.754871 1.60372C0.790007 1.68257 0.840666 1.75354 0.903826 1.8124L3.92611 4.83554C3.08583 6.1679 2.64115 7.71148 2.64383 9.28668C2.64383 12.7393 5.01554 16.4944 9.69811 20.5907L10.0213 20.8718C10.2932 21.1063 10.6403 21.2354 10.9994 21.2357C11.3584 21.236 11.7057 21.1075 11.9781 20.8735C13.5673 19.5081 14.9027 18.1813 15.981 16.8904L20.1895 21.099C20.3108 21.216 20.4733 21.2807 20.6418 21.2792C20.8104 21.2776 20.9716 21.21 21.0907 21.0907C21.2098 20.9715 21.2774 20.8102 21.2788 20.6416C21.2801 20.4731 21.2153 20.3107 21.0981 20.1895L1.8124 0.903826ZM11.5461 12.4547C11.039 12.542 10.5184 12.5063 10.0279 12.3506C9.53751 12.1949 9.09163 11.9237 8.72779 11.5599C8.36394 11.196 8.09276 10.7501 7.93705 10.2597C7.78134 9.76928 7.74565 9.24863 7.83297 8.74154L11.5461 12.4547ZM5.61983 2.8924L9.29097 6.5644C9.90751 6.17725 10.6372 6.01086 11.3606 6.09247C12.0841 6.17409 12.7584 6.49887 13.2731 7.01365C13.7879 7.52844 14.1127 8.20273 14.1943 8.92616C14.2759 9.64958 14.1095 10.3793 13.7224 10.9958L17.5238 14.7973C18.7444 12.8781 19.3581 11.043 19.3581 9.28668C19.3581 7.07023 18.4776 4.94456 16.9104 3.37729C15.3431 1.81002 13.2174 0.92954 11.001 0.92954C9.03153 0.926616 7.12484 1.62211 5.61983 2.8924Z" fill="#E4AA24"/>
</svg>
