<svg width="375" height="279" viewBox="0 0 375 279" fill="none" xmlns="http://www.w3.org/2000/svg">
<g clip-path="url(#clip0_8578_17960)">
<path d="M374.189 261.892C374.189 263.433 372.779 264.93 370.14 266.351C356.6 273.638 310.685 279 256.122 279C253.975 279 251.843 278.991 249.726 278.974C187.493 278.493 138.055 271.029 138.055 261.892C138.055 252.443 190.914 244.783 256.122 244.783C273.979 244.783 290.907 245.359 306.079 246.385C309.892 246.644 313.589 246.931 317.171 247.246C318.66 247.374 320.128 247.509 321.574 247.652C328.391 248.31 334.708 249.07 340.424 249.916C343.199 250.326 345.827 250.754 348.309 251.202C354.772 252.371 360.194 253.665 364.383 255.052C370.689 257.15 374.189 259.463 374.189 261.892Z" fill="#F0F0F0"/>
<path d="M236.945 175.222C236.945 181.452 184.086 186.502 118.878 186.502C108.101 186.502 97.6634 186.363 87.7442 186.104C49.4889 185.111 18.9681 182.321 6.67635 178.741C2.87108 177.636 0.810547 176.451 0.810547 175.222C0.810547 173.815 3.51028 172.466 8.43981 171.225C11.3162 170.499 14.9522 169.811 19.2539 169.164C19.2878 169.16 19.3253 169.157 19.3629 169.149C29.2144 167.679 42.5439 166.438 58.2424 165.543C75.9639 164.524 96.7083 163.941 118.878 163.941C184.086 163.941 236.945 168.991 236.945 175.222Z" fill="#F0F0F0"/>
<path d="M231.581 119.836L222.96 117.436C222.96 117.436 219.583 116.762 221.646 110.167C223.71 103.572 227.802 105.417 227.802 105.417L235.45 107.639L238.469 108.572L234.221 114.532L233.865 118.505L231.581 119.836Z" fill="#3F3D56"/>
<path d="M248.239 102.411L250.944 113.215L237.085 126.647L235.894 126.945L232.715 126.052L230.01 115.248L232.75 112.367L229.949 111.633L235.926 105.831L239.045 106.486L241.546 104.002L239.857 103.327L239.698 102.692L241.744 101.082L248.239 102.411Z" fill="#3F3D56"/>
<path d="M235.254 117.65L237.044 124.8L245.304 116.991L243.236 109.742L235.254 117.65Z" fill="white"/>
<path d="M235.254 117.65L237.044 124.8L245.304 116.991L243.236 109.742L235.254 117.65Z" fill="url(#paint0_diamond_8578_17960)" fill-opacity="0.8"/>
<path d="M248.239 102.411L248.618 103.926L234.837 117.332L233.646 117.63L230.567 116.797L230.397 116.793L230.01 115.248L232.75 112.367L229.949 111.633L235.926 105.831L239.045 106.486L241.546 104.002L239.857 103.327L239.698 102.692L241.744 101.082L248.239 102.411Z" stroke="#3F3D56" stroke-miterlimit="10"/>
<path d="M242.062 103.03C242.677 102.876 243.09 102.413 242.986 101.997C242.881 101.58 242.299 101.367 241.684 101.52C241.07 101.674 240.657 102.137 240.761 102.554C240.866 102.97 241.448 103.184 242.062 103.03Z" fill="white"/>
<path d="M242.062 103.03C242.677 102.876 243.09 102.413 242.986 101.997C242.881 101.58 242.299 101.367 241.684 101.52C241.07 101.674 240.657 102.137 240.761 102.554C240.866 102.97 241.448 103.184 242.062 103.03Z" fill="url(#paint1_diamond_8578_17960)" fill-opacity="0.8"/>
<path d="M233.307 114.592C233.921 114.438 234.334 113.976 234.23 113.559C234.125 113.142 233.543 112.929 232.929 113.083C232.314 113.237 231.901 113.699 232.005 114.116C232.11 114.533 232.692 114.746 233.307 114.592Z" fill="white"/>
<path d="M233.307 114.592C233.921 114.438 234.334 113.976 234.23 113.559C234.125 113.142 233.543 112.929 232.929 113.083C232.314 113.237 231.901 113.699 232.005 114.116C232.11 114.533 232.692 114.746 233.307 114.592Z" fill="url(#paint2_diamond_8578_17960)" fill-opacity="0.8"/>
<path d="M225.853 133.296L227.733 126.904C227.733 126.904 222.845 115.248 228.485 114.12C234.126 112.992 234.502 125.024 234.502 125.024L232.245 132.168L225.853 133.296Z" fill="#8A4621"/>
<path d="M260.758 120.867C269.007 120.867 275.695 114.179 275.695 105.93C275.695 97.6813 269.007 90.9941 260.758 90.9941C252.509 90.9941 245.822 97.6813 245.822 105.93C245.822 114.179 252.509 120.867 260.758 120.867Z" fill="#8A4621"/>
<path d="M255.926 116.474C255.926 116.474 255.047 127.456 252.851 128.335C250.654 129.213 276.573 135.364 276.573 135.364L269.984 127.895C269.984 127.895 268.666 116.474 271.741 113.838L255.926 116.474Z" fill="#8A4621"/>
<path d="M234.877 129.912L228.861 129.16C228.861 129.16 221.716 132.92 221.716 137.808C221.716 142.697 217.58 150.593 217.58 150.593C217.58 150.593 214.572 161.121 221.34 161.873C228.109 162.625 234.125 150.593 234.125 150.593L234.877 129.912Z" fill="white"/>
<path d="M234.877 129.912L228.861 129.16C228.861 129.16 221.716 132.92 221.716 137.808C221.716 142.697 217.58 150.593 217.58 150.593C217.58 150.593 214.572 161.121 221.34 161.873C228.109 162.625 234.125 150.593 234.125 150.593L234.877 129.912Z" fill="url(#paint3_linear_8578_17960)" fill-opacity="0.8"/>
<path d="M234.877 129.912L228.861 129.16C228.861 129.16 221.716 132.92 221.716 137.808C221.716 142.697 217.58 150.593 217.58 150.593C217.58 150.593 214.572 161.121 221.34 161.873C228.109 162.625 234.125 150.593 234.125 150.593L234.877 129.912Z" fill="url(#paint4_linear_8578_17960)" fill-opacity="0.8"/>
<path d="M231.494 189.697C231.494 189.697 218.333 177.289 214.573 178.041C210.813 178.793 203.293 179.921 203.293 185.561C203.293 191.201 215.701 204.361 215.701 204.361C215.701 204.361 225.102 225.042 234.126 225.794C240.062 226.332 245.963 227.211 251.798 228.426C251.798 228.426 247.662 243.467 249.918 247.603C252.174 251.739 260.823 256.627 261.575 256.251C262.327 255.875 272.855 246.099 277.367 232.186C281.879 218.274 284.887 207.746 280.751 206.993C276.615 206.241 231.494 189.697 231.494 189.697Z" fill="#252117"/>
<path d="M204.42 184.434C204.42 184.434 201.788 184.058 202.164 190.45C202.54 196.842 203.668 219.779 205.548 224.291C207.428 228.803 207.804 234.067 207.052 235.947C206.3 237.827 204.796 240.835 207.428 241.211C210.06 241.588 220.964 240.083 222.092 239.707C223.22 239.331 224.348 232.939 223.596 232.939C222.844 232.939 220.964 232.563 221.716 229.931C222.468 227.299 222.844 227.299 221.716 226.547C220.588 225.795 217.58 224.667 218.332 223.915C219.084 223.163 219.836 205.49 219.836 205.49L204.42 184.434Z" fill="#252117"/>
<path d="M208.181 240.083C208.181 240.083 201.788 238.203 201.036 242.339C201.036 242.339 199.908 248.731 204.796 250.987C207.951 252.478 210.97 254.24 213.821 256.252C213.821 256.252 221.717 259.26 222.093 255.5C222.469 251.74 220.589 238.203 220.589 238.203L208.181 240.083Z" fill="#252117"/>
<path d="M250.669 244.595L262.702 234.818C262.702 234.818 260.446 246.851 263.454 249.107L264.828 253.124L260.98 256.271C260.98 256.271 249.165 254.371 250.669 244.595Z" fill="#252117"/>
<path d="M267.589 228.051C267.589 228.051 259.693 230.307 260.821 238.203C261.949 246.1 263.396 254.678 263.396 254.678C263.396 254.678 263.829 275.804 269.469 277.308C275.11 278.813 276.614 275.804 276.614 275.804C276.614 275.804 283.025 259.296 281.126 254.372C278.827 248.412 275.515 241.72 276.614 239.707C277.695 237.728 275.862 226.923 267.589 228.051Z" fill="#252117"/>
<path d="M272.101 124.271C272.101 124.271 269.093 124.647 264.205 125.399C259.317 126.151 255.933 122.391 253.301 123.143C250.669 123.895 228.86 129.159 228.86 129.159L232.244 155.104C232.244 155.104 228.108 185.185 228.86 190.449C229.612 195.713 219.836 194.961 225.476 201.353C231.116 207.745 240.893 213.386 260.821 211.505C280.75 209.625 283.382 210.001 283.382 206.993C283.382 203.985 278.87 178.417 280.374 176.16C281.878 173.904 284.886 171.272 283.382 168.64C281.878 166.008 280.374 164.504 282.63 162.248C284.886 159.992 286.014 157.736 286.014 156.608C286.014 155.48 291.278 137.055 291.278 137.055C291.278 137.055 289.022 128.031 286.39 127.655C283.758 127.279 281.502 125.399 279.622 125.399C277.742 125.399 276.614 125.775 275.486 125.399L272.101 124.271Z" fill="white"/>
<path d="M272.101 124.271C272.101 124.271 269.093 124.647 264.205 125.399C259.317 126.151 255.933 122.391 253.301 123.143C250.669 123.895 228.86 129.159 228.86 129.159L232.244 155.104C232.244 155.104 228.108 185.185 228.86 190.449C229.612 195.713 219.836 194.961 225.476 201.353C231.116 207.745 240.893 213.386 260.821 211.505C280.75 209.625 283.382 210.001 283.382 206.993C283.382 203.985 278.87 178.417 280.374 176.16C281.878 173.904 284.886 171.272 283.382 168.64C281.878 166.008 280.374 164.504 282.63 162.248C284.886 159.992 286.014 157.736 286.014 156.608C286.014 155.48 291.278 137.055 291.278 137.055C291.278 137.055 289.022 128.031 286.39 127.655C283.758 127.279 281.502 125.399 279.622 125.399C277.742 125.399 276.614 125.775 275.486 125.399L272.101 124.271Z" fill="url(#paint5_linear_8578_17960)" fill-opacity="0.8"/>
<path d="M272.101 124.271C272.101 124.271 269.093 124.647 264.205 125.399C259.317 126.151 255.933 122.391 253.301 123.143C250.669 123.895 228.86 129.159 228.86 129.159L232.244 155.104C232.244 155.104 228.108 185.185 228.86 190.449C229.612 195.713 219.836 194.961 225.476 201.353C231.116 207.745 240.893 213.386 260.821 211.505C280.75 209.625 283.382 210.001 283.382 206.993C283.382 203.985 278.87 178.417 280.374 176.16C281.878 173.904 284.886 171.272 283.382 168.64C281.878 166.008 280.374 164.504 282.63 162.248C284.886 159.992 286.014 157.736 286.014 156.608C286.014 155.48 291.278 137.055 291.278 137.055C291.278 137.055 289.022 128.031 286.39 127.655C283.758 127.279 281.502 125.399 279.622 125.399C277.742 125.399 276.614 125.775 275.486 125.399L272.101 124.271Z" fill="url(#paint6_linear_8578_17960)" fill-opacity="0.8"/>
<path d="M239.294 103.247C241.026 103.019 242.813 101.98 243.772 101.344C244.864 102.399 251.584 108.482 263.133 110.247C263.133 110.247 263.158 110.018 263.225 109.631L267.182 110.307L274.502 109.594C274.465 109.718 274.443 109.787 274.443 109.787C274.443 109.787 275.489 109.504 275.852 107.139C275.922 106.685 276.006 106.235 276.105 105.786C276.694 103.101 278.122 93.4208 270.018 86.952C264.118 82.2425 257.317 83.7286 253.018 85.5259C251.27 86.2491 249.687 87.3176 248.363 88.6674C247.039 90.0171 246.001 91.6204 245.311 93.381C244.96 94.2614 244.725 95.1842 244.613 96.1256L244.445 96.6037C243.14 96.7855 240.519 95.6897 239.11 96.2083C237.185 96.9172 236.238 99.8228 236.045 100.692C235.851 101.561 236.756 103.58 239.294 103.247ZM264.225 105.978C265.267 103.295 267.234 100.365 270.838 100.511C274.576 100.663 275.232 103.631 275.1 106.169L265.801 106.507L264.225 105.978Z" fill="#2F2E41"/>
<path d="M265.096 84.4653C265.154 84.1264 264.475 83.7278 263.579 83.5749C262.684 83.4221 261.911 83.5729 261.853 83.9118C261.795 84.2507 262.474 84.6493 263.37 84.8022C264.265 84.955 265.038 84.8042 265.096 84.4653Z" fill="#2F2E41"/>
<path d="M165.663 145.858C160.467 152.676 166.422 165.952 166.422 165.952C166.422 165.952 180.802 168.175 185.998 161.358C191.194 154.541 185.239 141.264 185.239 141.264C185.239 141.264 170.859 139.041 165.663 145.858Z" fill="#252117"/>
<path d="M66.8276 157.017C71.1297 162.032 82.0977 159.682 82.0977 159.682C82.0977 159.682 86.0906 149.199 81.7885 144.184C77.4864 139.168 66.5185 141.519 66.5185 141.519C66.5185 141.519 62.5256 152.001 66.8276 157.017Z" fill="#252117"/>
<path d="M184.5 175.175C142.457 152.313 109.324 153.527 88.9341 158.571C66.8619 164.032 54.578 175.013 54.4564 175.123L53.9512 174.567C54.0738 174.455 66.4991 163.347 88.7535 157.841C101.816 154.61 115.664 153.908 129.919 155.754C147.722 158.06 166.207 164.372 184.859 174.514L184.5 175.175Z" fill="#252117"/>
<path d="M119.818 107.916H119.066V155.126H119.818V107.916Z" fill="#252117"/>
<path d="M119.629 148.524C134.581 148.524 146.702 136.404 146.702 121.452C146.702 106.5 134.581 94.3789 119.629 94.3789C104.678 94.3789 92.5566 106.5 92.5566 121.452C92.5566 136.404 104.678 148.524 119.629 148.524Z" fill="#252117"/>
<path d="M119.631 96.2596C130.845 96.2596 139.935 87.1689 139.935 75.955C139.935 64.7411 130.845 55.6504 119.631 55.6504C108.417 55.6504 99.3262 64.7411 99.3262 75.955C99.3262 87.1689 108.417 96.2596 119.631 96.2596Z" fill="#252117"/>
<path d="M119.63 57.9052C128.352 57.9052 135.423 50.8347 135.423 42.1128C135.423 33.3908 128.352 26.3203 119.63 26.3203C110.908 26.3203 103.838 33.3908 103.838 42.1128C103.838 50.8347 110.908 57.9052 119.63 57.9052Z" fill="#252117"/>
</g>
<defs>
<radialGradient id="paint0_diamond_8578_17960" cx="0" cy="0" r="1" gradientUnits="userSpaceOnUse" gradientTransform="translate(240.183 117.271) rotate(56.7864) scale(8.999 16.8195)">
<stop stop-color="#4BAA73"/>
<stop offset="1" stop-color="#F0F5F3"/>
</radialGradient>
<radialGradient id="paint1_diamond_8578_17960" cx="0" cy="0" r="1" gradientUnits="userSpaceOnUse" gradientTransform="translate(241.852 102.28) rotate(20.6165) scale(1.36756 2.60946)">
<stop stop-color="#4BAA73"/>
<stop offset="1" stop-color="#F0F5F3"/>
</radialGradient>
<radialGradient id="paint2_diamond_8578_17960" cx="0" cy="0" r="1" gradientUnits="userSpaceOnUse" gradientTransform="translate(233.096 113.843) rotate(20.6166) scale(1.36757 2.60952)">
<stop stop-color="#4BAA73"/>
<stop offset="1" stop-color="#F0F5F3"/>
</radialGradient>
<linearGradient id="paint3_linear_8578_17960" x1="234.877" y1="161.907" x2="207.261" y2="146.759" gradientUnits="userSpaceOnUse">
<stop stop-color="#252117"/>
<stop offset="1" stop-opacity="0"/>
</linearGradient>
<linearGradient id="paint4_linear_8578_17960" x1="216.914" y1="129.16" x2="244.287" y2="144.467" gradientUnits="userSpaceOnUse">
<stop offset="0.484375" stop-color="#4BAA73"/>
<stop offset="1" stop-opacity="0"/>
</linearGradient>
<linearGradient id="paint5_linear_8578_17960" x1="291.278" y1="211.872" x2="205.674" y2="146.763" gradientUnits="userSpaceOnUse">
<stop stop-color="#252117"/>
<stop offset="1" stop-opacity="0"/>
</linearGradient>
<linearGradient id="paint6_linear_8578_17960" x1="223.715" y1="123.043" x2="308.122" y2="188.489" gradientUnits="userSpaceOnUse">
<stop offset="0.484375" stop-color="#4BAA73"/>
<stop offset="1" stop-opacity="0"/>
</linearGradient>
<clipPath id="clip0_8578_17960">
<rect width="373.379" height="279" fill="white" transform="translate(0.810547)"/>
</clipPath>
</defs>
</svg>
