<svg width="355" height="279" viewBox="0 0 355 279" fill="none" xmlns="http://www.w3.org/2000/svg">
<g clip-path="url(#clip0_8578_17649)">
<path d="M55.5635 203.382L33.1717 195.558C30.7065 183.348 31.2593 170.72 34.7821 158.771C43.2767 179.222 69.7709 184.94 84.4815 201.493C89.03 206.69 92.3506 212.845 94.1971 219.501C96.0436 226.156 96.3687 233.142 95.1484 239.94L99.436 256.207C88.3586 254.937 77.6883 251.28 68.1603 245.489C58.6323 239.697 50.473 231.909 44.2447 222.661C40.802 217.438 38.0307 211.803 35.9963 205.887C45.662 205.202 55.5635 203.382 55.5635 203.382Z" fill="#F2F2F2"/>
<path d="M81.2706 154.54L65.6337 136.706C69.5007 124.864 76.1998 114.145 85.1493 105.48C82.4727 127.463 102.717 145.485 107.37 167.136C108.769 173.899 108.629 180.891 106.959 187.593C105.289 194.295 102.132 200.536 97.7223 205.852L93.4441 222.121C84.4283 215.561 76.9419 207.124 71.5007 197.392C66.0595 187.66 62.7928 176.863 61.9258 165.747C61.5011 159.506 61.8641 153.237 63.0062 147.086C71.7565 151.249 81.2706 154.54 81.2706 154.54Z" fill="#F2F2F2"/>
<path d="M211.918 211.709H98.8591C95.5371 211.709 92.8359 212.378 92.8359 213.204V257.425H217.957V213.204C217.957 212.378 215.256 211.709 211.918 211.709Z" fill="#F2F2F2"/>
<path d="M350.671 257.847L1.38357 257.991C1.23626 257.991 1.09498 257.932 0.990817 257.828C0.886651 257.724 0.828125 257.582 0.828125 257.435C0.828125 257.288 0.886651 257.147 0.990817 257.042C1.09498 256.938 1.23626 256.88 1.38357 256.88L350.671 256.736C350.818 256.737 350.959 256.795 351.063 256.9C351.167 257.004 351.225 257.145 351.225 257.292C351.225 257.439 351.167 257.58 351.063 257.684C350.959 257.788 350.818 257.847 350.671 257.847Z" fill="#CACACA"/>
<path d="M127.379 254.734L126.322 263.342L159.018 271.513L160.578 258.809L127.379 254.734Z" fill="#9E616A"/>
<path d="M133.619 252.649L132.752 266.501L126.861 265.778L116.227 277.743C115.702 278.334 115.002 278.742 114.229 278.906C113.456 279.071 112.65 278.985 111.929 278.659C111.209 278.334 110.611 277.786 110.224 277.097C109.836 276.408 109.679 275.613 109.776 274.828L111.785 258.457L117.959 256.351L112.267 254.534L113.024 248.361L133.619 252.649Z" fill="#252117"/>
<path d="M222.896 258.971L231.311 261.068L243.404 229.611L230.985 226.516L222.896 258.971Z" fill="#9E616A"/>
<path d="M244.375 272.844L233.795 260.832L235.231 255.07L233.734 254.791H233.725L224.376 253.046L221.586 252.523L214.822 272.443L220.859 273.95L223.354 268.52L224.399 273.506L224.693 274.901L240.699 278.89C241.465 279.081 242.273 279.022 243.004 278.721C243.735 278.421 244.351 277.895 244.761 277.219C245.172 276.544 245.356 275.755 245.286 274.968C245.217 274.181 244.897 273.437 244.375 272.844Z" fill="#2F2E41"/>
<path d="M152.293 255.699L155.344 255.219C152.069 258.629 148.925 260.882 145.939 261.582L147.386 256.469L152.293 255.699Z" fill="#2F2E41"/>
<path d="M241.411 240.348C238.524 246.804 236.443 250.937 236.443 250.937L235.412 250.396L232.697 248.973L226.231 245.582L225.121 244.999L225.438 238.831L226.847 211.56L227.444 200.066L202.799 213.09L173.639 228.503C172.445 230.584 171.258 232.608 170.08 234.577L150.268 220.988L170.373 191.65L182.092 186.174L179.563 185.684C180.21 184.75 180.941 183.877 181.747 183.076L182.633 182.577C182.633 182.577 238.393 151.863 254.436 167.612C255.819 169.02 256.857 170.73 257.468 172.608C262.968 188.403 249.23 222.882 241.411 240.348Z" fill="#252117"/>
<path d="M229.143 269.238C227.942 271.034 226.311 272.501 224.399 273.507C222.779 274.393 221.064 275.092 219.286 275.592C195.644 282.501 143.905 268.772 143.905 268.772L145.939 261.583L147.386 256.47L152.293 255.701L155.344 255.22L191.833 249.496L181.78 242.601L170.08 234.578L150.268 220.989L126.524 210.311C99.0008 188.385 122.046 163.801 122.046 163.801L137.449 152.885L142.45 149.34L173.173 165.061L182.093 186.174L184.836 192.663L202.8 213.091L225.439 238.832L225.617 239.033C226.271 239.53 226.887 240.075 227.459 240.665C227.669 240.871 227.888 241.099 228.112 241.347C230.147 243.548 231.708 246.144 232.698 248.974C233.341 250.84 233.691 252.794 233.734 254.768C233.736 254.771 233.737 254.775 233.737 254.779C233.737 254.783 233.736 254.787 233.734 254.791C233.836 258.901 232.656 263.748 229.143 269.238Z" fill="#252117"/>
<path d="M111.514 174.177C110.289 173.807 109.666 173.357 109.552 172.76C109.385 171.885 110.369 171.104 111.509 170.2C112.304 169.57 114.401 168.473 113.635 168.135C102.011 163.017 130.271 90.3569 138.471 82.1004C140.137 80.4228 139.938 77.017 142.159 73.987C148.225 65.7119 153.546 64.2126 164.148 61.2265C165.008 60.984 165.905 60.7301 166.837 60.4647C168.044 60.1204 166.772 63.5482 167.401 61.25C168.1 58.6959 168.823 56.0545 170.559 54.7914L170.672 54.709L170.811 54.718C174.024 54.9305 184.512 56.6911 189.892 60.4892L189.966 60.5423L190.009 60.6223C191.001 62.472 190.299 65.2632 189.621 67.9622C189.064 70.178 190.404 66.6723 190.937 67.8112C195.014 76.5165 202.024 78.4874 202.095 78.5073L202.444 78.6015L202.374 78.9553C204.207 88.4566 191.638 117.894 188.921 137.716C186.16 157.854 201.897 180.536 178.771 176.723C178.824 176.898 187.306 194.311 187.168 194.45C185.065 196.555 116.132 175.572 111.514 174.177Z" fill="white"/>
<path d="M111.514 174.177C110.289 173.807 109.666 173.357 109.552 172.76C109.385 171.885 110.369 171.104 111.509 170.2C112.304 169.57 114.401 168.473 113.635 168.135C102.011 163.017 130.271 90.3569 138.471 82.1004C140.137 80.4228 139.938 77.017 142.159 73.987C148.225 65.7119 153.546 64.2126 164.148 61.2265C165.008 60.984 165.905 60.7301 166.837 60.4647C168.044 60.1204 166.772 63.5482 167.401 61.25C168.1 58.6959 168.823 56.0545 170.559 54.7914L170.672 54.709L170.811 54.718C174.024 54.9305 184.512 56.6911 189.892 60.4892L189.966 60.5423L190.009 60.6223C191.001 62.472 190.299 65.2632 189.621 67.9622C189.064 70.178 190.404 66.6723 190.937 67.8112C195.014 76.5165 202.024 78.4874 202.095 78.5073L202.444 78.6015L202.374 78.9553C204.207 88.4566 191.638 117.894 188.921 137.716C186.16 157.854 201.897 180.536 178.771 176.723C178.824 176.898 187.306 194.311 187.168 194.45C185.065 196.555 116.132 175.572 111.514 174.177Z" fill="url(#paint0_linear_8578_17649)" fill-opacity="0.8"/>
<path d="M111.514 174.177C110.289 173.807 109.666 173.357 109.552 172.76C109.385 171.885 110.369 171.104 111.509 170.2C112.304 169.57 114.401 168.473 113.635 168.135C102.011 163.017 130.271 90.3569 138.471 82.1004C140.137 80.4228 139.938 77.017 142.159 73.987C148.225 65.7119 153.546 64.2126 164.148 61.2265C165.008 60.984 165.905 60.7301 166.837 60.4647C168.044 60.1204 166.772 63.5482 167.401 61.25C168.1 58.6959 168.823 56.0545 170.559 54.7914L170.672 54.709L170.811 54.718C174.024 54.9305 184.512 56.6911 189.892 60.4892L189.966 60.5423L190.009 60.6223C191.001 62.472 190.299 65.2632 189.621 67.9622C189.064 70.178 190.404 66.6723 190.937 67.8112C195.014 76.5165 202.024 78.4874 202.095 78.5073L202.444 78.6015L202.374 78.9553C204.207 88.4566 191.638 117.894 188.921 137.716C186.16 157.854 201.897 180.536 178.771 176.723C178.824 176.898 187.306 194.311 187.168 194.45C185.065 196.555 116.132 175.572 111.514 174.177Z" fill="url(#paint1_linear_8578_17649)" fill-opacity="0.8"/>
<path d="M264.524 67.3416C264.691 68.2937 264.648 69.2708 264.396 70.2041C264.145 71.1374 263.692 72.0043 263.069 72.7436C262.447 73.4829 261.67 74.0768 260.793 74.4832C259.916 74.8897 258.96 75.099 257.994 75.0963L250.229 97.272L242.83 87.5595L251.338 67.9901C251.45 66.3666 252.154 64.8406 253.316 63.7014C254.478 62.5621 256.018 61.8887 257.643 61.8088C259.269 61.7289 260.867 62.248 262.135 63.2677C263.403 64.2874 264.253 65.737 264.524 67.3416Z" fill="#9E616A"/>
<path d="M230.354 129.138L216.28 126.095C190.894 118.057 182.189 108.137 179.351 101.228C176.323 93.8576 179.083 88.4627 179.202 88.2373L179.274 88.1401L188.379 79.2796C189.536 78.1542 190.918 77.2874 192.435 76.7368C193.952 76.1863 195.568 75.9644 197.178 76.086C198.787 76.2076 200.352 76.6698 201.769 77.4421C203.186 78.2143 204.422 79.2789 205.397 80.5653L223.885 104.978L232.447 93.379L236.599 90.0562L238.839 83.7772L247.43 74.4316L257.377 79.034L253.632 101.633L248.621 104.696L248.385 108.023L248.302 108.121L230.354 129.138Z" fill="white"/>
<path d="M230.354 129.138L216.28 126.095C190.894 118.057 182.189 108.137 179.351 101.228C176.323 93.8576 179.083 88.4627 179.202 88.2373L179.274 88.1401L188.379 79.2796C189.536 78.1542 190.918 77.2874 192.435 76.7368C193.952 76.1863 195.568 75.9644 197.178 76.086C198.787 76.2076 200.352 76.6698 201.769 77.4421C203.186 78.2143 204.422 79.2789 205.397 80.5653L223.885 104.978L232.447 93.379L236.599 90.0562L238.839 83.7772L247.43 74.4316L257.377 79.034L253.632 101.633L248.621 104.696L248.385 108.023L248.302 108.121L230.354 129.138Z" fill="url(#paint2_linear_8578_17649)" fill-opacity="0.8"/>
<path d="M230.354 129.138L216.28 126.095C190.894 118.057 182.189 108.137 179.351 101.228C176.323 93.8576 179.083 88.4627 179.202 88.2373L179.274 88.1401L188.379 79.2796C189.536 78.1542 190.918 77.2874 192.435 76.7368C193.952 76.1863 195.568 75.9644 197.178 76.086C198.787 76.2076 200.352 76.6698 201.769 77.4421C203.186 78.2143 204.422 79.2789 205.397 80.5653L223.885 104.978L232.447 93.379L236.599 90.0562L238.839 83.7772L247.43 74.4316L257.377 79.034L253.632 101.633L248.621 104.696L248.385 108.023L248.302 108.121L230.354 129.138Z" fill="url(#paint3_linear_8578_17649)" fill-opacity="0.8"/>
<path d="M159.839 199.957C159.77 199.957 159.7 199.956 159.63 199.953C158.812 199.924 158.014 199.697 157.303 199.292C156.591 198.888 155.988 198.317 155.545 197.63C152.223 192.665 148.147 188.25 143.463 184.543C140.628 182.276 137.665 180.169 134.8 178.131C127.408 172.875 120.447 167.925 116.582 161.085C108.157 146.17 118.079 125.396 132.253 116.08C148.152 105.631 169.063 103.992 189.293 103.777C191.396 103.755 193.499 103.744 195.604 103.744C232.054 103.758 268.427 107.084 304.275 113.681C316.195 115.88 328.673 118.574 338.7 125.112C348.667 131.612 354.725 141.847 354.134 151.188C353.271 164.825 338.815 175.015 325.652 177.679C313.105 180.216 300.071 178.501 286.272 176.686C283.225 176.285 280.075 175.871 276.961 175.51C243.109 171.598 179.516 183.658 176.826 184.173L174.157 184.684L163.8 198.012C163.335 198.619 162.735 199.111 162.048 199.448C161.36 199.786 160.605 199.96 159.839 199.957Z" fill="white"/>
<path d="M310.583 133.433H167.504C166.679 133.432 165.888 133.104 165.305 132.52C164.722 131.936 164.395 131.145 164.395 130.32C164.395 129.495 164.722 128.704 165.305 128.12C165.888 127.536 166.679 127.208 167.504 127.207H310.583C311.408 127.208 312.199 127.536 312.782 128.12C313.365 128.704 313.693 129.495 313.693 130.32C313.693 131.145 313.365 131.936 312.782 132.52C312.199 133.104 311.408 133.432 310.583 133.433Z" fill="white"/>
<path d="M310.583 133.433H167.504C166.679 133.432 165.888 133.104 165.305 132.52C164.722 131.936 164.395 131.145 164.395 130.32C164.395 129.495 164.722 128.704 165.305 128.12C165.888 127.536 166.679 127.208 167.504 127.207H310.583C311.408 127.208 312.199 127.536 312.782 128.12C313.365 128.704 313.693 129.495 313.693 130.32C313.693 131.145 313.365 131.936 312.782 132.52C312.199 133.104 311.408 133.432 310.583 133.433Z" fill="url(#paint4_diamond_8578_17649)" fill-opacity="0.8"/>
<path d="M310.583 152.541H167.503C167.094 152.541 166.689 152.461 166.311 152.305C165.933 152.15 165.589 151.921 165.3 151.632C165.01 151.343 164.78 151 164.623 150.622C164.466 150.245 164.385 149.84 164.385 149.431C164.384 149.022 164.464 148.617 164.621 148.239C164.777 147.861 165.006 147.517 165.295 147.228C165.584 146.938 165.927 146.709 166.305 146.552C166.683 146.395 167.088 146.315 167.497 146.314H310.583C311.408 146.315 312.198 146.644 312.781 147.228C313.364 147.811 313.692 148.603 313.692 149.428C313.692 150.252 313.364 151.044 312.781 151.627C312.198 152.211 311.408 152.54 310.583 152.541Z" fill="white"/>
<path d="M310.583 152.541H167.503C167.094 152.541 166.689 152.461 166.311 152.305C165.933 152.15 165.589 151.921 165.3 151.632C165.01 151.343 164.78 151 164.623 150.622C164.466 150.245 164.385 149.84 164.385 149.431C164.384 149.022 164.464 148.617 164.621 148.239C164.777 147.861 165.006 147.517 165.295 147.228C165.584 146.938 165.927 146.709 166.305 146.552C166.683 146.395 167.088 146.315 167.497 146.314H310.583C311.408 146.315 312.198 146.644 312.781 147.228C313.364 147.811 313.692 148.603 313.692 149.428C313.692 150.252 313.364 151.044 312.781 151.627C312.198 152.211 311.408 152.54 310.583 152.541Z" fill="url(#paint5_diamond_8578_17649)" fill-opacity="0.8"/>
<path d="M184.178 171.648H167.504C166.679 171.647 165.888 171.319 165.305 170.735C164.722 170.151 164.395 169.36 164.395 168.535C164.395 167.71 164.722 166.919 165.305 166.335C165.888 165.751 166.679 165.423 167.504 165.422H184.178C185.003 165.423 185.793 165.751 186.376 166.335C186.959 166.919 187.287 167.71 187.287 168.535C187.287 169.36 186.959 170.151 186.376 170.735C185.793 171.319 185.003 171.647 184.178 171.648Z" fill="white"/>
<path d="M184.178 171.648H167.504C166.679 171.647 165.888 171.319 165.305 170.735C164.722 170.151 164.395 169.36 164.395 168.535C164.395 167.71 164.722 166.919 165.305 166.335C165.888 165.751 166.679 165.423 167.504 165.422H184.178C185.003 165.423 185.793 165.751 186.376 166.335C186.959 166.919 187.287 167.71 187.287 168.535C187.287 169.36 186.959 170.151 186.376 170.735C185.793 171.319 185.003 171.647 184.178 171.648Z" fill="url(#paint6_diamond_8578_17649)" fill-opacity="0.8"/>
<path d="M264.787 68.2091C276.557 68.2091 286.098 58.668 286.098 46.8985C286.098 35.129 276.557 25.5879 264.787 25.5879C253.018 25.5879 243.477 35.129 243.477 46.8985C243.477 58.668 253.018 68.2091 264.787 68.2091Z" fill="white"/>
<path d="M264.786 68.4696C260.519 68.4696 256.349 67.2045 252.802 64.8343C249.254 62.4641 246.489 59.0952 244.857 55.1537C243.224 51.2122 242.797 46.875 243.629 42.6907C244.462 38.5064 246.516 34.6628 249.533 31.6461C252.549 28.6294 256.393 26.575 260.577 25.7426C264.762 24.9103 269.099 25.3375 273.04 26.9701C276.982 28.6027 280.351 31.3674 282.721 34.9147C285.091 38.462 286.356 42.6325 286.356 46.8988C286.35 52.6177 284.075 58.1005 280.031 62.1445C275.987 66.1884 270.505 68.4631 264.786 68.4696Z" fill="#252117"/>
<path d="M263.191 55.4157C263.146 55.4157 263.1 55.4142 263.055 55.412C262.653 55.3926 262.261 55.2866 261.904 55.1014C261.548 54.9161 261.236 54.6559 260.989 54.3386L257.428 49.7601C257.203 49.4711 257.037 49.1406 256.94 48.7875C256.843 48.4345 256.816 48.0657 256.861 47.7023C256.907 47.339 257.023 46.9881 257.204 46.6697C257.385 46.3514 257.627 46.0719 257.916 45.8471L258.044 45.7473C258.333 45.5223 258.664 45.3564 259.017 45.2592C259.37 45.162 259.739 45.1353 260.103 45.1808C260.466 45.2262 260.817 45.3428 261.135 45.5239C261.454 45.705 261.733 45.9471 261.958 46.2364C262.138 46.4673 262.366 46.6567 262.626 46.7916C262.885 46.9265 263.171 47.0037 263.464 47.0179C263.756 47.0322 264.048 46.9831 264.32 46.8741C264.591 46.7651 264.836 46.5987 265.038 46.3863L272.269 38.7524C272.778 38.2163 273.479 37.9039 274.218 37.8838C274.957 37.8638 275.674 38.1376 276.211 38.6453L276.33 38.7583C276.595 39.0101 276.809 39.3118 276.958 39.6462C277.108 39.9806 277.19 40.3411 277.199 40.7072C277.209 41.0732 277.147 41.4376 277.016 41.7796C276.885 42.1216 276.688 42.4343 276.436 42.7001L265.214 54.5447C264.954 54.8199 264.64 55.039 264.293 55.1888C263.945 55.3385 263.57 55.4157 263.191 55.4157Z" fill="white"/>
<path d="M155.191 157.318C154.237 157.16 153.33 156.795 152.533 156.249C151.735 155.702 151.068 154.988 150.576 154.155C150.085 153.323 149.782 152.393 149.689 151.431C149.596 150.469 149.715 149.498 150.038 148.587L131.688 133.913L143.303 130.15L158.948 144.661C160.443 145.305 161.649 146.475 162.339 147.949C163.029 149.422 163.154 151.098 162.691 152.658C162.228 154.218 161.209 155.554 159.827 156.413C158.444 157.272 156.795 157.594 155.191 157.318Z" fill="#9E616A"/>
<path d="M108.205 104.604L115.739 92.3326C131.734 71.0439 143.978 66.1177 151.436 65.7288C159.394 65.3138 163.57 69.7048 163.743 69.8921L163.811 69.9924L169.155 81.5185C169.833 82.9826 170.193 84.5742 170.21 86.1878C170.227 87.8015 169.901 89.4003 169.253 90.8783C168.605 92.3563 167.65 93.6796 166.452 94.7607C165.254 95.8418 163.84 96.6558 162.303 97.1489L133.144 106.505L141.251 118.426L143.011 123.445L148.193 127.639L154.164 138.841L146.526 146.7L126.445 135.68L125.214 129.937L122.153 128.612L122.089 128.502L108.205 104.604Z" fill="white"/>
<path d="M108.205 104.604L115.739 92.3326C131.734 71.0439 143.978 66.1177 151.436 65.7288C159.394 65.3138 163.57 69.7048 163.743 69.8921L163.811 69.9924L169.155 81.5185C169.833 82.9826 170.193 84.5742 170.21 86.1878C170.227 87.8015 169.901 89.4003 169.253 90.8783C168.605 92.3563 167.65 93.6796 166.452 94.7607C165.254 95.8418 163.84 96.6558 162.303 97.1489L133.144 106.505L141.251 118.426L143.011 123.445L148.193 127.639L154.164 138.841L146.526 146.7L126.445 135.68L125.214 129.937L122.153 128.612L122.089 128.502L108.205 104.604Z" fill="url(#paint7_linear_8578_17649)" fill-opacity="0.8"/>
<path d="M108.205 104.604L115.739 92.3326C131.734 71.0439 143.978 66.1177 151.436 65.7288C159.394 65.3138 163.57 69.7048 163.743 69.8921L163.811 69.9924L169.155 81.5185C169.833 82.9826 170.193 84.5742 170.21 86.1878C170.227 87.8015 169.901 89.4003 169.253 90.8783C168.605 92.3563 167.65 93.6796 166.452 94.7607C165.254 95.8418 163.84 96.6558 162.303 97.1489L133.144 106.505L141.251 118.426L143.011 123.445L148.193 127.639L154.164 138.841L146.526 146.7L126.445 135.68L125.214 129.937L122.153 128.612L122.089 128.502L108.205 104.604Z" fill="url(#paint8_linear_8578_17649)" fill-opacity="0.8"/>
<path d="M211.955 55.9915L211.974 55.9931C212.982 56.0802 213.983 55.7633 214.757 55.1122C215.532 54.461 216.016 53.529 216.103 52.5211L217.948 31.3147C218.282 27.5157 217.849 23.6882 216.674 20.0599C214.372 12.9785 209.426 7.05871 202.867 3.53414C199.48 1.71911 195.761 0.608604 191.933 0.269555C176.275 -1.11752 170.578 2.17961 161.069 26.1106C151.561 50.0415 159.221 47.3493 159.221 47.3493C159.176 47.8604 159.235 48.3753 159.393 48.8634C159.704 49.8155 160.37 50.6109 161.253 51.0833C161.706 51.3251 162.204 51.4734 162.715 51.5193C181.247 56.0992 199.947 60.9253 211.958 55.9917L211.955 55.9915Z" fill="#252117"/>
<path d="M177.284 20.4487C174.985 23.9002 173.76 27.9557 173.764 32.103C173.768 36.2503 175.001 40.3034 177.307 43.7504C179.613 47.1974 182.889 49.8837 186.721 51.4701C190.553 53.0564 194.769 53.4716 198.837 52.6632C201.529 52.1368 204.091 51.0813 206.373 49.5578C208.655 48.0344 210.612 46.0733 212.13 43.7881C214.425 40.3378 215.647 36.2854 215.641 32.1418C215.636 27.9981 214.404 23.9488 212.101 20.5044C209.797 17.0599 206.526 14.3746 202.698 12.7869C198.871 11.1992 194.659 10.7803 190.594 11.583C187.899 12.1064 185.335 13.1596 183.05 14.6817C180.765 16.2037 178.806 18.1642 177.284 20.4495L177.284 20.4487Z" fill="#9E616A"/>
<path d="M224.523 33.6258C224.787 30.6212 224.445 27.5942 223.516 24.7246C223.258 17.6916 221.175 11.3336 212.597 11.658C209.935 10.2328 207.014 9.35762 204.007 9.08442L199.765 8.69388C199.717 8.68945 199.669 8.68518 199.622 8.68106C193.686 8.1683 187.789 10.0346 183.229 13.8695C178.669 17.7043 175.819 23.1935 175.306 29.1295L175.27 29.5543L184.245 30.3717L188.051 22.0846L187.918 30.7079L192.554 31.1319L194.473 26.9508L194.407 31.2987C201.326 37.3113 211.759 37.5597 224.482 34.051L224.523 33.6258Z" fill="#252117"/>
<path d="M195.965 53.9269C196.046 54.6247 195.93 55.3312 195.629 55.9661C195.478 56.2913 195.281 56.5936 195.046 56.8642C194.845 57.0948 194.617 57.3007 194.367 57.4777C193.627 58 192.726 58.2416 191.824 58.1592C191.768 58.1538 191.712 58.1473 191.656 58.1398C191.6 58.1323 191.544 58.1235 191.488 58.1133C191.432 58.1036 191.376 58.0924 191.32 58.0797C191.265 58.0669 191.209 58.0531 191.153 58.0381L188.017 57.1817L184.443 47.422L183.696 56.0117L169.434 52.1427L172.605 15.6914L196.885 17.9213L196.224 18.5665C194.027 20.7332 192.47 23.464 191.726 26.4583C190.987 29.4925 190.774 32.6308 191.095 35.7371C191.396 38.8782 191.999 41.983 192.894 45.0089C193.674 47.6884 194.607 50.3208 195.689 52.8929C195.829 53.223 195.922 53.5711 195.965 53.9269Z" fill="#252117"/>
</g>
<defs>
<linearGradient id="paint0_linear_8578_17649" x1="202.556" y1="194.598" x2="73.5541" y2="108.815" gradientUnits="userSpaceOnUse">
<stop stop-color="#252117"/>
<stop offset="1" stop-opacity="0"/>
</linearGradient>
<linearGradient id="paint1_linear_8578_17649" x1="109.533" y1="54.709" x2="237.026" y2="141.135" gradientUnits="userSpaceOnUse">
<stop offset="0.484375" stop-color="#4BAA73"/>
<stop offset="1" stop-opacity="0"/>
</linearGradient>
<linearGradient id="paint2_linear_8578_17649" x1="257.377" y1="129.138" x2="206.267" y2="54.9223" gradientUnits="userSpaceOnUse">
<stop stop-color="#252117"/>
<stop offset="1" stop-opacity="0"/>
</linearGradient>
<linearGradient id="paint3_linear_8578_17649" x1="177.938" y1="74.4316" x2="227.732" y2="148.142" gradientUnits="userSpaceOnUse">
<stop offset="0.484375" stop-color="#4BAA73"/>
<stop offset="1" stop-opacity="0"/>
</linearGradient>
<radialGradient id="paint4_diamond_8578_17649" cx="0" cy="0" r="1" gradientUnits="userSpaceOnUse" gradientTransform="translate(237.622 130.32) rotate(2.43432) scale(73.2936 12.685)">
<stop stop-color="#4BAA73"/>
<stop offset="1" stop-color="#F0F5F3"/>
</radialGradient>
<radialGradient id="paint5_diamond_8578_17649" cx="0" cy="0" r="1" gradientUnits="userSpaceOnUse" gradientTransform="translate(237.617 149.428) rotate(2.43417) scale(73.298 12.6849)">
<stop stop-color="#4BAA73"/>
<stop offset="1" stop-color="#F0F5F3"/>
</radialGradient>
<radialGradient id="paint6_diamond_8578_17649" cx="0" cy="0" r="1" gradientUnits="userSpaceOnUse" gradientTransform="translate(175.623 168.535) rotate(15.4964) scale(11.6518 12.2349)">
<stop stop-color="#4BAA73"/>
<stop offset="1" stop-color="#F0F5F3"/>
</radialGradient>
<linearGradient id="paint7_linear_8578_17649" x1="170.211" y1="146.7" x2="92.0196" y2="86.8447" gradientUnits="userSpaceOnUse">
<stop stop-color="#252117"/>
<stop offset="1" stop-opacity="0"/>
</linearGradient>
<linearGradient id="paint8_linear_8578_17649" x1="108.205" y1="65.7012" x2="185.294" y2="125.859" gradientUnits="userSpaceOnUse">
<stop offset="0.484375" stop-color="#4BAA73"/>
<stop offset="1" stop-opacity="0"/>
</linearGradient>
<clipPath id="clip0_8578_17649">
<rect width="353.345" height="279" fill="white" transform="translate(0.828125)"/>
</clipPath>
</defs>
</svg>
