<svg width="386" height="279" viewBox="0 0 386 279" fill="none" xmlns="http://www.w3.org/2000/svg">
<g clip-path="url(#clip0_8578_17133)">
<path fill-rule="evenodd" clip-rule="evenodd" d="M195.063 3.82986C230.296 -1.61994 266.876 -3.20576 297.294 15.4077C336.4 39.337 378.902 71.9211 381.218 117.742C383.576 164.389 343.52 200.474 308.19 230.983C276.001 258.78 237.556 277.221 195.063 278.498C151.157 279.817 107.088 267.949 74.9323 237.994C41.6828 207.019 12.2283 162.031 22.4987 117.742C32.143 76.1532 84.5906 66.305 120.197 42.8007C144.608 26.6868 166.165 8.2997 195.063 3.82986Z" fill="white"/>
<path d="M338.616 135.898H335.18V271.756H338.616V135.898Z" fill="#383734"/>
<path d="M370.323 153.212C370.541 200.718 337.152 239.384 337.152 239.384C337.152 239.384 303.407 201.028 303.189 153.522C302.97 106.016 336.36 67.3496 336.36 67.3496C336.36 67.3496 370.104 105.706 370.323 153.212Z" fill="#383734"/>
<path d="M269.912 199.822H268.145V269.697H269.912V199.822Z" fill="#383734"/>
<path d="M286.221 208.725C286.333 233.159 269.16 253.046 269.16 253.046C269.16 253.046 251.804 233.318 251.692 208.885C251.579 184.451 268.753 164.564 268.753 164.564C268.753 164.564 286.108 184.292 286.221 208.725Z" fill="#383734"/>
<path d="M304.743 279C331.187 279 352.623 275.711 352.623 271.653C352.623 267.596 331.187 264.307 304.743 264.307C278.3 264.307 256.863 267.596 256.863 271.653C256.863 275.711 278.3 279 304.743 279Z" fill="#383734"/>
<path d="M308.692 100.431C304.636 93.5702 296.61 93.2505 296.61 93.2505C296.61 93.2505 288.79 92.2494 283.773 102.699C279.097 112.439 272.644 121.843 282.734 124.123L284.557 118.444L285.686 124.545C287.122 124.649 288.564 124.673 290.003 124.619C300.809 124.27 311.1 124.721 310.769 120.84C310.328 115.68 312.595 107.033 308.692 100.431Z" fill="#252117"/>
<path d="M294.086 113.351C294.086 113.351 299.328 120.698 296.183 126.645C293.037 132.592 303.522 138.89 303.522 138.89L311.211 122.097C311.211 122.097 302.124 116.15 304.571 110.553L294.086 113.351Z" fill="#A0616A"/>
<path d="M297.579 116.5C302.597 116.5 306.666 112.428 306.666 107.404C306.666 102.381 302.597 98.3086 297.579 98.3086C292.56 98.3086 288.492 102.381 288.492 107.404C288.492 112.428 292.56 116.5 297.579 116.5Z" fill="#A0616A"/>
<path d="M266.133 117.919L273.727 108.112C273.727 108.112 276.4 97.832 280.273 98.3531C284.145 98.8743 278.743 110.681 278.743 110.681L271.198 121.537L266.133 117.919Z" fill="#A0616A"/>
<path d="M304.57 248.389L307.017 261.333L312.259 262.733L310.861 247.34L304.57 248.389Z" fill="#A0616A"/>
<path d="M357.344 234.396L366.78 247.34L370.624 249.089L373.77 243.842L364.334 231.598L357.344 234.396Z" fill="#A0616A"/>
<path d="M302.472 133.292L296.642 125.61C296.642 125.61 285.347 127.695 284.298 128.744C283.25 129.794 287.094 149.035 287.094 149.035C287.094 149.035 287.793 154.282 290.939 157.081L294.084 159.18L319.946 153.933L320.919 142.414C321.273 138.218 320.748 133.995 319.377 130.015C318.005 126.034 315.819 122.384 312.957 119.299L308.457 119.915L302.472 133.292Z" fill="white"/>
<path d="M302.472 133.292L296.642 125.61C296.642 125.61 285.347 127.695 284.298 128.744C283.25 129.794 287.094 149.035 287.094 149.035C287.094 149.035 287.793 154.282 290.939 157.081L294.084 159.18L319.946 153.933L320.919 142.414C321.273 138.218 320.748 133.995 319.377 130.015C318.005 126.034 315.819 122.384 312.957 119.299L308.457 119.915L302.472 133.292Z" fill="url(#paint0_diamond_8578_17133)" fill-opacity="0.8"/>
<path d="M285.698 129.446L283.951 128.746L275.912 128.046C275.912 128.046 273.117 127.347 273.816 125.947C274.515 124.548 275.214 124.198 273.816 123.848C272.418 123.498 272.068 123.148 272.418 122.099C272.767 121.049 274.864 118.95 274.864 118.95L268.923 114.053C268.923 114.053 268.601 114.28 268.081 114.702C265.132 117.092 255.798 125.718 262.632 134.343C270.67 144.489 280.106 150.436 287.795 148.337L285.698 129.446Z" fill="white"/>
<path d="M285.698 129.446L283.951 128.746L275.912 128.046C275.912 128.046 273.117 127.347 273.816 125.947C274.515 124.548 275.214 124.198 273.816 123.848C272.418 123.498 272.068 123.148 272.418 122.099C272.767 121.049 274.864 118.95 274.864 118.95L268.923 114.053C268.923 114.053 268.601 114.28 268.081 114.702C265.132 117.092 255.798 125.718 262.632 134.343C270.67 144.489 280.106 150.436 287.795 148.337L285.698 129.446Z" fill="url(#paint1_diamond_8578_17133)" fill-opacity="0.8"/>
<path d="M293.385 157.432V162.33C293.385 162.33 290.24 168.277 291.288 173.874C292.337 179.472 292.686 182.27 292.686 182.27C292.8 187.031 293.625 191.747 295.133 196.264C297.579 203.261 289.541 249.089 299.676 249.789C309.811 250.489 315.403 251.188 318.548 247.69C321.694 244.191 313.306 184.02 313.306 184.02C313.306 184.02 341.964 243.842 347.905 241.393C353.847 238.944 368.875 233.347 367.127 230.198C365.38 227.049 321.344 157.082 321.344 157.082L319.946 153.934L293.385 157.432Z" fill="#0E0A01"/>
<path d="M310.16 258.884C310.16 258.884 304.568 258.534 304.568 260.283C304.568 262.033 301.772 267.98 301.772 267.98C301.772 267.98 299.675 274.977 305.267 274.277C310.859 273.577 314.353 267.28 314.353 267.28L312.956 260.633L310.16 258.884Z" fill="#252117"/>
<path d="M368.526 246.641C368.526 246.641 363.633 243.492 363.983 245.591C364.332 247.69 364.682 253.288 367.128 253.637C369.575 253.987 376.914 256.086 377.263 256.786C377.613 257.486 386 260.284 386 255.736C386 251.189 380.758 247.69 380.758 247.69L374.817 243.142C374.817 243.142 370.972 242.792 370.274 245.241C369.575 247.69 368.526 246.641 368.526 246.641Z" fill="#252117"/>
<path d="M297.592 99.0938C300.797 99.0938 303.395 96.4932 303.395 93.2852C303.395 90.0772 300.797 87.4766 297.592 87.4766C294.387 87.4766 291.789 90.0772 291.789 93.2852C291.789 96.4932 294.387 99.0938 297.592 99.0938Z" fill="#252117"/>
<path d="M291.179 91.7578C291.179 90.3232 291.709 88.9394 292.668 87.873C293.627 86.8066 294.945 86.1329 296.371 85.9819C296.168 85.9604 295.964 85.9495 295.76 85.9492C294.221 85.9492 292.745 86.5612 291.657 87.6505C290.568 88.7398 289.957 90.2173 289.957 91.7578C289.957 93.2984 290.568 94.7758 291.657 95.8651C292.745 96.9544 294.221 97.5664 295.76 97.5664C295.964 97.5662 296.168 97.5553 296.371 97.5338C294.945 97.3827 293.627 96.7091 292.668 95.6426C291.709 94.5762 291.179 93.1924 291.179 91.7578Z" fill="#252117"/>
<path d="M306.897 99.7707L298.969 95.6133L288.019 97.3142L285.754 107.329L291.393 107.112L292.969 103.433V107.052L295.571 106.951L297.081 101.093L298.025 107.329L307.275 107.14L306.897 99.7707Z" fill="#252117"/>
<path d="M306.424 158.242L294.196 158.573C294.196 158.573 283.763 160.605 284.348 156.39C284.933 152.174 295.112 153.649 295.112 153.649L306.254 151.947L306.424 158.242Z" fill="#A0616A"/>
<path d="M316.1 118.707C316.715 118.614 317.343 118.744 317.87 119.072C318.398 119.401 318.791 119.908 318.979 120.501C321.373 128.052 328.747 153.32 321.42 156.787C312.79 160.87 306.492 160.691 306.492 160.691L303.121 152.383L306.19 149.5L309.466 128.414L311.036 119.475L316.1 118.707Z" fill="white"/>
<path d="M316.1 118.707C316.715 118.614 317.343 118.744 317.87 119.072C318.398 119.401 318.791 119.908 318.979 120.501C321.373 128.052 328.747 153.32 321.42 156.787C312.79 160.87 306.492 160.691 306.492 160.691L303.121 152.383L306.19 149.5L309.466 128.414L311.036 119.475L316.1 118.707Z" fill="url(#paint2_diamond_8578_17133)" fill-opacity="0.8"/>
<path opacity="0.4" d="M313.829 132.768L312.431 146.761L300.199 152.009L313.829 148.86V132.768Z" fill="black"/>
<path d="M247.861 86.5723C251.801 87.6173 255.21 90.0959 257.42 93.5234L258.564 95.2956L258.621 95.3688L278.677 101.243C279.044 101.351 279.355 101.599 279.542 101.933C279.729 102.268 279.777 102.663 279.676 103.033L278.119 108.747C278.069 108.933 277.982 109.108 277.863 109.26C277.745 109.412 277.598 109.54 277.43 109.635C277.263 109.73 277.078 109.791 276.886 109.815C276.695 109.838 276.501 109.823 276.315 109.771L256.255 104.159L256.255 104.159L254.24 104.922C250.53 106.326 246.461 106.464 242.664 105.316L247.861 86.5723Z" fill="#383734"/>
<path d="M268.982 103.144C269.172 102.494 268.339 101.678 267.122 101.322C265.905 100.965 264.764 101.203 264.574 101.853C264.384 102.503 265.217 103.318 266.434 103.675C267.652 104.031 268.792 103.794 268.982 103.144Z" fill="white"/>
<path d="M267.959 103.744C268.424 103.744 268.801 103.367 268.801 102.901C268.801 102.436 268.424 102.059 267.959 102.059C267.494 102.059 267.117 102.436 267.117 102.901C267.117 103.367 267.494 103.744 267.959 103.744Z" fill="#383734"/>
<path d="M249.541 97.3955C251.213 92.2328 250.678 87.4339 248.346 86.6769C246.013 85.9199 242.767 89.4914 241.095 94.6541C239.422 99.8168 239.957 104.616 242.289 105.373C244.622 106.13 247.868 102.558 249.541 97.3955Z" fill="white"/>
<path opacity="0.4" d="M248.914 97.2131C250.526 92.2385 250.088 87.6023 247.967 86.5938C248.095 86.6097 248.22 86.6376 248.343 86.677C250.675 87.4341 251.21 92.2329 249.538 97.3957C247.865 102.558 244.619 106.13 242.287 105.373C242.202 105.345 242.119 105.312 242.039 105.274C244.333 105.566 247.33 102.104 248.914 97.2131Z" fill="black"/>
<path d="M248.126 86.5898L202.61 51.2475C194.561 44.9527 186.837 38.2522 179.468 31.172C166.493 18.792 148.88 8.89408 128.372 3.62432C78.5489 -9.17888 39.0784 13.5228 21.1262 46.8565C-6.30685 97.7941 -27.3306 180.452 94.3071 136.453C120.909 126.831 147.837 125.808 168.254 120.739L242.185 105.481L248.126 86.5898Z" fill="white"/>
<path d="M248.126 86.5898L202.61 51.2475C194.561 44.9527 186.837 38.2522 179.468 31.172C166.493 18.792 148.88 8.89408 128.372 3.62432C78.5489 -9.17888 39.0784 13.5228 21.1262 46.8565C-6.30685 97.7941 -27.3306 180.452 94.3071 136.453C120.909 126.831 147.837 125.808 168.254 120.739L242.185 105.481L248.126 86.5898Z" fill="url(#paint3_diamond_8578_17133)" fill-opacity="0.8"/>
<path d="M111.478 27.1184C112.829 27.1184 113.924 26.022 113.924 24.6696C113.924 23.3171 112.829 22.2207 111.478 22.2207C110.127 22.2207 109.031 23.3171 109.031 24.6696C109.031 26.022 110.127 27.1184 111.478 27.1184Z" fill="#F2F2F2"/>
<path d="M159 30.3288H158.363V29.6914H158.238V30.3288H157.602V30.4534H158.238V31.0908H158.363V30.4534H159V30.3288Z" fill="#F2F2F2"/>
<path d="M222.957 83.5046H222.32V82.8672H222.195V83.5046H221.559V83.6291H222.195V84.2665H222.32V83.6291H222.957V83.5046Z" fill="#F2F2F2"/>
<path d="M218.414 99.946H217.777V99.3086H217.652V99.946H217.016V100.071H217.652V100.708H217.777V100.071H218.414V99.946Z" fill="#F2F2F2"/>
<path d="M23.0503 113.94H22.4135V113.303H22.2891V113.94H21.6523V114.065H22.2891V114.702H22.4135V114.065H23.0503V113.94Z" fill="#F2F2F2"/>
<path d="M51.0073 37.6765H50.3706V37.0391H50.2461V37.6765H49.6094V37.801H50.2461V38.4384H50.3706V37.801H51.0073V37.6765Z" fill="#F2F2F2"/>
<path d="M159.699 102.745H159.062V102.107H158.938V102.745H158.301V102.869H158.938V103.507H159.062V102.869H159.699V102.745Z" fill="#F2F2F2"/>
<path d="M92.9448 15.2858H92.3081V14.6484H92.1836V15.2858H91.5469V15.4104H92.1836V16.0478H92.3081V15.4104H92.9448V15.2858Z" fill="#F2F2F2"/>
<path d="M93.1918 65.6543L92.3984 65.7767C92.6466 67.365 92.8423 68.9882 92.9856 70.594L93.7859 70.524C93.6426 68.8973 93.4434 67.2601 93.1918 65.6543Z" fill="#E6E6E6"/>
<path d="M91.0189 56.0898L90.25 56.3242C90.7148 57.8635 91.1307 59.4413 91.4837 61.0121L92.27 60.8336C91.9101 59.2454 91.4872 57.6501 91.0189 56.0898Z" fill="#E6E6E6"/>
<path d="M87.5586 46.918L86.8281 47.2538C87.4991 48.7196 88.1282 50.2239 88.6979 51.7282L89.4493 51.4449C88.8726 49.923 88.2401 48.3978 87.5586 46.918Z" fill="#E6E6E6"/>
<path d="M82.8733 38.3184L82.1953 38.7487C83.0586 40.106 83.8868 41.5124 84.6557 42.9222L85.3617 42.5374C84.5858 41.1101 83.7471 39.6897 82.8733 38.3184Z" fill="#E6E6E6"/>
<path d="M77.053 30.4375L76.4414 30.9588C77.4829 32.1832 78.4964 33.4636 79.454 34.758L80.0971 34.2787C79.1324 32.9703 78.1084 31.6759 77.053 30.4375Z" fill="#E6E6E6"/>
<path d="M70.2105 23.4199L69.6758 24.0181C70.878 25.0921 72.0558 26.2221 73.1777 27.3731L73.7543 26.8098C72.6185 25.6449 71.4267 24.5044 70.2105 23.4199Z" fill="#E6E6E6"/>
<path d="M62.4782 17.3945L62.0273 18.0592C63.3624 18.9583 64.6835 19.9169 65.9521 20.9069L66.4484 20.2737C65.1623 19.2732 63.8272 18.3041 62.4782 17.3945Z" fill="#E6E6E6"/>
<path d="M55.4414 13.2109V14.1205C56.2767 14.5578 57.105 15.0161 57.9158 15.4849L58.3177 14.7887C57.3741 14.2429 56.4153 13.717 55.4414 13.2109Z" fill="#E6E6E6"/>
<path d="M93.2461 75.5576L94.0495 75.543C94.0642 76.355 94.0653 77.1713 94.0528 77.9695L93.2495 77.9569C93.2617 77.1678 93.2606 76.3606 93.2461 75.5576Z" fill="#E6E6E6"/>
<path d="M46.0082 134.572L45.2148 134.695C45.463 136.283 45.6587 137.906 45.802 139.512L46.6023 139.442C46.459 137.815 46.2598 136.178 46.0082 134.572Z" fill="#E6E6E6"/>
<path d="M43.8392 125.008L43.0703 125.242C43.5351 126.781 43.951 128.359 44.304 129.93L45.0904 129.752C44.7304 128.163 44.3075 126.568 43.8392 125.008Z" fill="#E6E6E6"/>
<path d="M40.375 115.836L39.6445 116.172C40.3156 117.638 40.9446 119.142 41.5143 120.646L42.2657 120.363C41.689 118.841 41.0565 117.316 40.375 115.836Z" fill="#E6E6E6"/>
<path d="M35.6936 107.236L35.0156 107.667C35.8789 109.024 36.7072 110.43 37.476 111.84L38.182 111.455C37.4062 110.028 36.5674 108.608 35.6936 107.236Z" fill="#E6E6E6"/>
<path d="M29.8694 99.3555L29.2578 99.8767C30.2993 101.101 31.3128 102.382 32.2704 103.676L32.9135 103.197C31.9488 101.888 30.9248 100.594 29.8694 99.3555Z" fill="#E6E6E6"/>
<path d="M23.0269 92.3379L22.4922 92.9361C23.6944 94.0101 24.8722 95.1401 25.9941 96.291L26.5707 95.7278C25.4349 94.5628 24.2431 93.4224 23.0269 92.3379Z" fill="#E6E6E6"/>
<path d="M15.2985 86.3125L14.8477 86.9772C16.1827 87.8763 17.5038 88.8348 18.7724 89.8249L19.2687 89.1916C17.9826 88.1911 16.6475 87.2221 15.2985 86.3125Z" fill="#E6E6E6"/>
<path d="M8.26172 82.1289V83.0385C9.097 83.4758 9.92529 83.9341 10.7361 84.4029L11.138 83.7067C10.1944 83.1609 9.23562 82.635 8.26172 82.1289Z" fill="#E6E6E6"/>
<path d="M46.0625 144.476L46.8659 144.461C46.8806 145.273 46.8817 146.089 46.8691 146.887L46.0659 146.875C46.0781 146.086 46.077 145.279 46.0625 144.476Z" fill="#E6E6E6"/>
<path d="M207.473 99.9395L206.68 100.062C206.928 101.65 207.124 103.273 207.267 104.879L208.067 104.809C207.924 103.182 207.725 101.545 207.473 99.9395Z" fill="#E6E6E6"/>
<path d="M205.304 90.375L204.535 90.6094C205 92.1487 205.416 93.7264 205.769 95.2972L206.555 95.1188C206.195 93.5305 205.772 91.9353 205.304 90.375Z" fill="#E6E6E6"/>
<path d="M201.84 81.2012L201.109 81.537C201.78 83.0028 202.409 84.5071 202.979 86.0114L203.731 85.7281C203.154 84.2063 202.521 82.681 201.84 81.2012Z" fill="#E6E6E6"/>
<path d="M197.158 72.6035L196.48 73.0338C197.344 74.3912 198.172 75.7975 198.941 77.2074L199.647 76.8225C198.871 75.3952 198.032 73.9749 197.158 72.6035Z" fill="#E6E6E6"/>
<path d="M191.334 64.7207L190.723 65.242C191.764 66.4664 192.778 67.7468 193.735 69.0412L194.378 68.5619C193.414 67.2535 192.39 65.9591 191.334 64.7207Z" fill="#E6E6E6"/>
<path d="M184.492 57.7031L183.957 58.3013C185.159 59.3753 186.337 60.5053 187.459 61.6563L188.036 61.093C186.9 59.9281 185.708 58.7876 184.492 57.7031Z" fill="#E6E6E6"/>
<path d="M176.759 51.6797L176.309 52.3444C177.644 53.2435 178.965 54.202 180.233 55.192L180.73 54.5588C179.444 53.5583 178.108 52.5893 176.759 51.6797Z" fill="#E6E6E6"/>
<path d="M169.727 47.4941V48.4037C170.562 48.841 171.39 49.2993 172.201 49.7681L172.603 49.0719C171.659 48.5261 170.7 48.0002 169.727 47.4941Z" fill="#E6E6E6"/>
<path d="M207.527 109.841L208.331 109.826C208.345 110.638 208.347 111.454 208.334 112.253L207.531 112.24C207.543 111.451 207.542 110.644 207.527 109.841Z" fill="#E6E6E6"/>
<path d="M52.1758 69.9312H51.5834V69.3379H51.4677V69.9312H50.875V70.0467H51.4677V70.64H51.5834V70.0467H52.1758V69.9312Z" fill="#F2F2F2"/>
<path d="M45.3477 105.738H44.7553V105.145H44.6396V105.738H44.0469V105.854H44.6396V106.447H44.7553V105.854H45.3477V105.738Z" fill="#F2F2F2"/>
<path d="M25.3086 137.122H24.7159V136.529H24.6002V137.122H24.0078V137.238H24.6002V137.831H24.7159V137.238H25.3086V137.122Z" fill="#F2F2F2"/>
<g filter="url(#filter0_b_8578_17133)">
<path fill-rule="evenodd" clip-rule="evenodd" d="M116.342 30.4538C128.793 30.1047 141.108 34.7764 149.734 43.7707C158.205 52.6026 161.62 64.9612 161.17 77.1959C160.738 88.966 155.555 99.7924 147.365 108.249C139.03 116.855 128.313 123.764 116.342 123.484C104.578 123.209 94.8788 115.336 86.7354 106.832C78.807 98.5528 72.384 88.6587 72.0162 77.1959C71.6373 65.3909 76.6466 54.1586 84.7701 45.5923C93.1218 36.7854 104.216 30.7938 116.342 30.4538Z" fill="#F9F9F9"/>
</g>
<path d="M116.423 48.7793C126.263 48.7793 133.032 54.2424 133.032 62.0956C133.032 67.296 130.513 70.8943 125.659 73.7571C121.094 76.4099 119.546 78.3535 119.546 81.7154C119.546 81.9879 119.492 82.2577 119.388 82.5094C119.284 82.7612 119.131 82.9899 118.938 83.1826C118.746 83.3752 118.518 83.5281 118.266 83.6324C118.015 83.7366 117.745 83.7903 117.473 83.7903H112.443C111.905 83.7903 111.389 83.5815 111.003 83.2079C110.616 82.8344 110.39 82.3252 110.371 81.7877L110.362 81.5315C109.916 76.121 111.805 72.7591 116.554 69.975C120.989 67.3223 122.852 65.6413 122.852 62.3845C122.852 59.1276 119.703 56.7375 115.793 56.7375C112.822 56.7375 110.47 58.1854 109.392 60.5492C109.013 61.3494 108.412 62.0242 107.662 62.4937C106.912 62.9633 106.043 63.2079 105.159 63.1987C101.75 63.1987 99.4989 59.5707 101.093 56.5551C103.614 51.7849 108.934 48.7793 116.423 48.7793ZM109.522 93.7972C109.522 90.7767 112.041 88.3866 115.137 88.3866C118.26 88.3866 120.779 90.7505 120.779 93.7972C120.779 96.8439 118.26 99.2078 115.137 99.2078C112.015 99.2078 109.522 96.8439 109.522 93.7972Z" fill="white"/>
<path d="M116.423 48.7793C126.263 48.7793 133.032 54.2424 133.032 62.0956C133.032 67.296 130.513 70.8943 125.659 73.7571C121.094 76.4099 119.546 78.3535 119.546 81.7154C119.546 81.9879 119.492 82.2577 119.388 82.5094C119.284 82.7612 119.131 82.9899 118.938 83.1826C118.746 83.3752 118.518 83.5281 118.266 83.6324C118.015 83.7366 117.745 83.7903 117.473 83.7903H112.443C111.905 83.7903 111.389 83.5815 111.003 83.2079C110.616 82.8344 110.39 82.3252 110.371 81.7877L110.362 81.5315C109.916 76.121 111.805 72.7591 116.554 69.975C120.989 67.3223 122.852 65.6413 122.852 62.3845C122.852 59.1276 119.703 56.7375 115.793 56.7375C112.822 56.7375 110.47 58.1854 109.392 60.5492C109.013 61.3494 108.412 62.0242 107.662 62.4937C106.912 62.9633 106.043 63.2079 105.159 63.1987C101.75 63.1987 99.4989 59.5707 101.093 56.5551C103.614 51.7849 108.934 48.7793 116.423 48.7793ZM109.522 93.7972C109.522 90.7767 112.041 88.3866 115.137 88.3866C118.26 88.3866 120.779 90.7505 120.779 93.7972C120.779 96.8439 118.26 99.2078 115.137 99.2078C112.015 99.2078 109.522 96.8439 109.522 93.7972Z" fill="url(#paint4_diamond_8578_17133)" fill-opacity="0.8"/>
</g>
<defs>
<filter id="filter0_b_8578_17133" x="21.9961" y="-19.5645" width="189.215" height="193.057" filterUnits="userSpaceOnUse" color-interpolation-filters="sRGB">
<feFlood flood-opacity="0" result="BackgroundImageFix"/>
<feGaussianBlur in="BackgroundImage" stdDeviation="25"/>
<feComposite in2="SourceAlpha" operator="in" result="effect1_backgroundBlur_8578_17133"/>
<feBlend mode="normal" in="SourceGraphic" in2="effect1_backgroundBlur_8578_17133" result="shape"/>
</filter>
<radialGradient id="paint0_diamond_8578_17133" cx="0" cy="0" r="1" gradientUnits="userSpaceOnUse" gradientTransform="translate(302.22 139.24) rotate(47.7655) scale(26.9323 54.6647)">
<stop stop-color="#4BAA73"/>
<stop offset="1" stop-color="#F0F5F3"/>
</radialGradient>
<radialGradient id="paint1_diamond_8578_17133" cx="0" cy="0" r="1" gradientUnits="userSpaceOnUse" gradientTransform="translate(273.726 131.405) rotate(52.0284) scale(22.0112 43.5413)">
<stop stop-color="#4BAA73"/>
<stop offset="1" stop-color="#F0F5F3"/>
</radialGradient>
<radialGradient id="paint2_diamond_8578_17133" cx="0" cy="0" r="1" gradientUnits="userSpaceOnUse" gradientTransform="translate(313.648 139.685) rotate(63.3845) scale(23.497 38.3827)">
<stop stop-color="#4BAA73"/>
<stop offset="1" stop-color="#F0F5F3"/>
</radialGradient>
<radialGradient id="paint3_diamond_8578_17133" cx="0" cy="0" r="1" gradientUnits="userSpaceOnUse" gradientTransform="translate(121.701 74.4608) rotate(31.4598) scale(142.673 259.042)">
<stop stop-color="#4BAA73"/>
<stop offset="1" stop-color="#F0F5F3"/>
</radialGradient>
<radialGradient id="paint4_diamond_8578_17133" cx="0" cy="0" r="1" gradientUnits="userSpaceOnUse" gradientTransform="translate(116.492 73.9935) rotate(57.729) scale(29.8206 54.9055)">
<stop stop-color="#4BAA73"/>
<stop offset="1" stop-color="#F0F5F3"/>
</radialGradient>
<clipPath id="clip0_8578_17133">
<rect width="386" height="279" fill="white"/>
</clipPath>
</defs>
</svg>
