<svg width="150" height="150" viewBox="0 0 150 150" fill="none" xmlns="http://www.w3.org/2000/svg">
<rect width="150" height="150" rx="75" fill="white"/>
<rect width="150" height="150" rx="75" fill="url(#paint0_diamond_9807_39001)" fill-opacity="0.8"/>
<g clip-path="url(#clip0_9807_39001)">
<path d="M84.4663 86.1656H79.8498V81.3692H70.6166V86.1656H66V81.3692C66.0012 80.0975 66.488 78.8782 67.3535 77.979C68.219 77.0798 69.3926 76.574 70.6166 76.5727H79.8498C81.0738 76.574 82.2473 77.0798 83.1128 77.979C83.9783 78.8782 84.4651 80.0975 84.4663 81.3692V86.1656ZM75.2332 74.1745C73.8636 74.1745 72.5247 73.7526 71.3859 72.962C70.2471 72.1714 69.3595 71.0478 68.8354 69.7331C68.3113 68.4185 68.1742 66.9719 68.4414 65.5762C68.7085 64.1806 69.3681 62.8986 70.3365 61.8924C71.305 60.8862 72.5389 60.201 73.8822 59.9234C75.2255 59.6458 76.6179 59.7883 77.8832 60.3328C79.1486 60.8774 80.2301 61.7995 80.991 62.9827C81.7519 64.1658 82.1581 65.5569 82.1581 66.9798C82.1562 68.8874 81.426 70.7163 80.1278 72.0651C78.8295 73.414 77.0692 74.1726 75.2332 74.1745ZM75.2332 64.5816C74.7766 64.5816 74.3303 64.7223 73.9508 64.9858C73.5712 65.2493 73.2753 65.6239 73.1006 66.0621C72.9259 66.5003 72.8802 66.9825 72.9692 67.4477C73.0583 67.9129 73.2781 68.3402 73.601 68.6756C73.9238 69.011 74.3351 69.2394 74.7828 69.332C75.2306 69.4245 75.6947 69.377 76.1165 69.1955C76.5383 69.014 76.8988 68.7066 77.1524 68.3122C77.4061 67.9178 77.5415 67.4542 77.5415 66.9798C77.5409 66.344 77.2975 65.7344 76.8647 65.2847C76.4319 64.8351 75.8452 64.5822 75.2332 64.5816Z" fill="white"/>
<path d="M74.9983 107.951L55.2727 84.5173C54.9986 84.1655 54.7274 83.8114 54.459 83.4551C51.0895 78.984 49.2692 73.5229 49.2774 67.9094C49.2774 61.0378 51.9872 54.4476 56.8109 49.5887C61.6345 44.7297 68.1767 42 74.9983 42C81.8199 42 88.3622 44.7297 93.1858 49.5887C98.0094 54.4476 100.719 61.0378 100.719 67.9094C100.727 73.5203 98.908 78.979 95.54 83.448L95.5377 83.4551C95.5377 83.4551 94.8362 84.3831 94.731 84.5079L74.9983 107.951ZM58.1908 80.6168C58.1955 80.6168 58.738 81.3423 58.8619 81.4977L74.9983 100.668L91.1558 81.4718C91.2586 81.3423 91.8058 80.6121 91.8081 80.6097C94.5606 76.9568 96.0481 72.4954 96.0427 67.9094C96.0427 62.2872 93.8256 56.8952 89.879 52.9197C85.9324 48.9442 80.5796 46.7108 74.9983 46.7108C69.417 46.7108 64.0643 48.9442 60.1177 52.9197C56.1711 56.8952 53.9539 62.2872 53.9539 67.9094C53.949 72.4983 55.4382 76.9622 58.1932 80.6168H58.1908Z" fill="white"/>
</g>
<defs>
<radialGradient id="paint0_diamond_9807_39001" cx="0" cy="0" r="1" gradientUnits="userSpaceOnUse" gradientTransform="translate(73.5718 75) rotate(45.5508) scale(105.061 214.201)">
<stop stop-color="#4BAA73"/>
<stop offset="1" stop-color="#F0F5F3"/>
</radialGradient>
<clipPath id="clip0_9807_39001">
<rect width="52" height="65.9512" fill="white" transform="translate(49 42)"/>
</clipPath>
</defs>
</svg>
