<svg width="40" height="40" viewBox="0 0 40 40" fill="none" xmlns="http://www.w3.org/2000/svg">
<path d="M20 3.33203C16.0218 3.33203 12.2064 4.91238 9.3934 7.72543C6.58035 10.5385 5 14.3538 5 18.332C5 25.282 9.73333 31.1154 16.15 32.8154L20 36.6654L23.85 32.8154C30.2667 31.1154 35 25.282 35 18.332C35 14.3538 33.4196 10.5385 30.6066 7.72543C27.7936 4.91238 23.9782 3.33203 20 3.33203ZM20 6.66536C22.7667 6.66536 25 8.8987 25 11.6654C25 14.432 22.7667 16.6654 20 16.6654C17.2333 16.6654 15 14.432 15 11.6654C15 8.8987 17.2333 6.66536 20 6.66536ZM20 30.4987C18.0198 30.4987 16.0703 30.0087 14.3255 29.0723C12.5806 28.1359 11.0946 26.7822 10 25.132C10.05 21.8154 16.6667 19.9987 20 19.9987C23.3167 19.9987 29.95 21.8154 30 25.132C28.9054 26.7822 27.4194 28.1359 25.6745 29.0723C23.9297 30.0087 21.9802 30.4987 20 30.4987Z" fill="#0E0A01"/>
<ellipse cx="20.0004" cy="18.3325" rx="12.7778" ry="12.7778" fill="#F0F5F3"/>
<path d="M26.4755 16.4442V13.8123C26.4755 13.3144 26.0487 12.8876 25.5508 12.8876H17.0863L16.6595 11.6784C16.5172 11.3228 16.1616 11.1094 15.8059 11.1094H12.036C11.5381 11.1094 11.1113 11.465 11.1113 12.0341V12.9588V14.8082V25.8334L14.8812 17.0843C15.0235 16.7287 15.3792 16.5153 15.7348 16.5153H26.4755V16.4442Z" fill="black"/>
<path d="M26.4766 16.4297V25.7478L29.962 17.71C30.2465 17.0699 29.7486 16.4297 29.1084 16.4297H26.4766Z" fill="white"/>
<path d="M26.4766 16.4297V25.7478L29.962 17.71C30.2465 17.0699 29.7486 16.4297 29.1084 16.4297H26.4766Z" fill="url(#paint0_linear_7578_9670)" fill-opacity="0.8"/>
<path d="M26.4766 16.4297V25.7478L29.962 17.71C30.2465 17.0699 29.7486 16.4297 29.1084 16.4297H26.4766Z" fill="url(#paint1_linear_7578_9670)" fill-opacity="0.8"/>
<path d="M14.8812 17.0339L11.1113 25.8541H26.4755V16.4648H15.7348C15.3792 16.4648 15.0235 16.7494 14.8812 17.0339Z" fill="white"/>
<path d="M14.8812 17.0339L11.1113 25.8541H26.4755V16.4648H15.7348C15.3792 16.4648 15.0235 16.7494 14.8812 17.0339Z" fill="url(#paint2_linear_7578_9670)" fill-opacity="0.8"/>
<path d="M14.8812 17.0339L11.1113 25.8541H26.4755V16.4648H15.7348C15.3792 16.4648 15.0235 16.7494 14.8812 17.0339Z" fill="url(#paint3_linear_7578_9670)" fill-opacity="0.8"/>
<defs>
<linearGradient id="paint0_linear_7578_9670" x1="30.0439" y1="25.7478" x2="23.8213" y2="23.3655" gradientUnits="userSpaceOnUse">
<stop stop-color="#252117"/>
<stop offset="1" stop-opacity="0"/>
</linearGradient>
<linearGradient id="paint1_linear_7578_9670" x1="26.4766" y1="16.4297" x2="32.6693" y2="18.8466" gradientUnits="userSpaceOnUse">
<stop offset="0.484375" stop-color="#4BAA73"/>
<stop offset="1" stop-opacity="0"/>
</linearGradient>
<linearGradient id="paint2_linear_7578_9670" x1="26.4755" y1="25.8541" x2="18.1202" y2="12.1817" gradientUnits="userSpaceOnUse">
<stop stop-color="#252117"/>
<stop offset="1" stop-opacity="0"/>
</linearGradient>
<linearGradient id="paint3_linear_7578_9670" x1="11.1113" y1="16.4648" x2="19.2363" y2="30.0184" gradientUnits="userSpaceOnUse">
<stop offset="0.484375" stop-color="#4BAA73"/>
<stop offset="1" stop-opacity="0"/>
</linearGradient>
</defs>
</svg>