<svg width="13" height="12" viewBox="0 0 13 12" fill="none" xmlns="http://www.w3.org/2000/svg">
<path d="M6.50105 2.99719V5.7085L8.84918 7.06413C8.96402 7.13043 9.04783 7.23964 9.08215 7.36774C9.11648 7.49583 9.09851 7.63231 9.03221 7.74716C8.9659 7.86201 8.85669 7.94581 8.7286 7.98013C8.60051 8.01446 8.46402 7.99649 8.34918 7.93019L5.75105 6.43019C5.74712 6.42788 5.74355 6.42519 5.73962 6.42281C5.73108 6.41765 5.7227 6.41223 5.71449 6.40657C5.70805 6.40207 5.70187 6.39725 5.69574 6.3925C5.68932 6.38762 5.68303 6.38257 5.67687 6.37738C5.66999 6.37148 5.66328 6.3654 5.65674 6.35913C5.64 6.34331 5.62439 6.32633 5.61005 6.30831C5.59466 6.28894 5.58072 6.26844 5.56837 6.247C5.56421 6.23983 5.56023 6.23256 5.55643 6.22519C5.54166 6.1961 5.52965 6.1657 5.52055 6.13438C5.51871 6.12775 5.517 6.12108 5.51543 6.11438C5.51326 6.1056 5.51134 6.09676 5.50968 6.08788C5.50825 6.07991 5.50702 6.07191 5.50599 6.06388C5.50499 6.05619 5.50393 6.0485 5.50324 6.04075C5.50245 6.03077 5.50195 6.02076 5.50174 6.01075C5.50162 6.00619 5.50105 6.00175 5.50105 5.99719V2.99719C5.50105 2.86458 5.55373 2.73741 5.6475 2.64364C5.74127 2.54987 5.86844 2.49719 6.00105 2.49719C6.13366 2.49719 6.26084 2.54987 6.35461 2.64364C6.44837 2.73741 6.50105 2.86458 6.50105 2.99719V2.99719ZM12.4273 4.507C12.4319 4.50006 12.4359 4.49282 12.4402 4.48575C12.4443 4.47888 12.4486 4.47213 12.4524 4.46507C12.4564 4.45769 12.4597 4.45019 12.4632 4.44269C12.4667 4.43538 12.4703 4.42819 12.4734 4.42069C12.4764 4.41344 12.4789 4.40594 12.4815 4.39856C12.4844 4.39056 12.4874 4.38269 12.4899 4.37457C12.4921 4.36707 12.4938 4.35957 12.4957 4.35207C12.4978 4.34375 12.5001 4.33556 12.5018 4.32706C12.5035 4.31838 12.5046 4.30963 12.5058 4.30088C12.5068 4.2935 12.5082 4.28625 12.5089 4.27875C12.5106 4.26238 12.5114 4.24588 12.5114 4.22938V1.72938C12.5114 1.59677 12.4587 1.46959 12.365 1.37582C12.2712 1.28206 12.144 1.22938 12.0114 1.22938C11.8788 1.22938 11.7516 1.28206 11.6579 1.37582C11.5641 1.46959 11.5114 1.59677 11.5114 1.72938V3.02232L10.2437 1.75457C9.40473 0.916402 8.33613 0.345779 7.17294 0.114829C6.00975 -0.116121 4.8042 0.00296861 3.70869 0.457045C2.61317 0.911122 1.67687 1.6798 1.01813 2.66591C0.359401 3.65202 0.0078125 4.8113 0.0078125 5.99719C0.0078125 7.18308 0.359401 8.34236 1.01813 9.32847C1.67687 10.3146 2.61317 11.0833 3.70869 11.5373C4.8042 11.9914 6.00975 12.1105 7.17294 11.8796C8.33613 11.6486 9.40473 11.078 10.2437 10.2398C10.2906 10.1935 10.3278 10.1383 10.3533 10.0776C10.3788 10.0168 10.3921 9.95155 10.3923 9.88563C10.3925 9.81972 10.3796 9.75441 10.3545 9.69348C10.3293 9.63254 10.2924 9.57718 10.2458 9.53057C10.1992 9.48396 10.1438 9.44703 10.0829 9.4219C10.0219 9.39677 9.95664 9.38394 9.89072 9.38414C9.82481 9.38434 9.75958 9.39758 9.6988 9.42308C9.63802 9.44859 9.58288 9.48586 9.53655 9.53275C8.83729 10.232 7.94637 10.7082 6.97647 10.9011C6.00657 11.094 5.00124 10.995 4.08761 10.6166C3.17399 10.2381 2.3931 9.59728 1.84369 8.77503C1.29429 7.95279 1.00105 6.98609 1.00105 5.99719C1.00105 5.00829 1.29429 4.04159 1.84369 3.21935C2.3931 2.3971 3.17399 1.75624 4.08761 1.3778C5.00124 0.99936 6.00657 0.900338 6.97647 1.09326C7.94637 1.28618 8.83729 1.76237 9.53655 2.46163L10.8044 3.72944H9.51149C9.37888 3.72944 9.2517 3.78212 9.15794 3.87589C9.06417 3.96965 9.01149 4.09683 9.01149 4.22944C9.01149 4.36205 9.06417 4.48923 9.15794 4.58299C9.2517 4.67676 9.37888 4.72944 9.51149 4.72944H12.0113C12.0279 4.72944 12.0444 4.72857 12.0609 4.72694C12.068 4.72625 12.0749 4.72488 12.0819 4.72388C12.0911 4.72263 12.1002 4.7215 12.1092 4.71975C12.1175 4.71806 12.1254 4.71581 12.1336 4.71375C12.1413 4.71188 12.1491 4.71013 12.1567 4.70788C12.1647 4.70538 12.1724 4.70238 12.1803 4.69956C12.1878 4.69688 12.1954 4.69438 12.2028 4.69132C12.2102 4.68825 12.2172 4.68469 12.2245 4.68131C12.232 4.67769 12.2397 4.67432 12.2471 4.67038C12.2541 4.66663 12.2607 4.66238 12.2675 4.65832C12.2747 4.654 12.282 4.64994 12.2891 4.64519C12.2966 4.64019 12.3037 4.63457 12.311 4.62913C12.3167 4.62475 12.3227 4.62075 12.3283 4.61613C12.3538 4.5952 12.3772 4.57182 12.3982 4.54632C12.4027 4.54069 12.4067 4.53488 12.411 4.52919C12.4165 4.52182 12.4222 4.51463 12.4272 4.507H12.4273Z" fill="#A0AFBF"/>
</svg>
