<svg width="18" height="21" viewBox="0 0 18 21" fill="none" xmlns="http://www.w3.org/2000/svg">
<g clip-path="url(#clip0)">
<path d="M9.89995 3.70605C5.91424 3.70605 2.69995 6.79429 2.69995 10.6237C2.69995 14.4531 5.91424 17.5413 9.89995 17.5413C13.8857 17.5413 17.1 14.4531 17.1 10.6237C17.1 6.79429 13.8857 3.70605 9.89995 3.70605ZM9.89995 16.3061C6.68567 16.3061 3.98567 13.7119 3.98567 10.6237C3.98567 7.53547 6.68567 4.94135 9.89995 4.94135C13.1142 4.94135 15.8142 7.53547 15.8142 10.6237C15.8142 13.7119 13.1142 16.3061 9.89995 16.3061Z" fill="#E2E8F0"/>
<path d="M9.90006 6.17676C7.32863 6.17676 5.27148 8.15323 5.27148 10.6238C5.27148 13.0944 7.32863 15.0709 9.90006 15.0709C12.4715 15.0709 14.5286 13.0944 14.5286 10.6238C14.5286 8.15323 12.4715 6.17676 9.90006 6.17676ZM9.90006 13.8356C8.10006 13.8356 6.5572 12.3532 6.5572 10.6238C6.5572 8.77088 8.10006 7.41205 9.90006 7.41205C11.7001 7.41205 13.2429 8.8944 13.2429 10.6238C13.2429 12.3532 11.7001 13.8356 9.90006 13.8356Z" fill="#E2E8F0"/>
<path d="M9.90001 8.77051C8.87144 8.77051 7.97144 9.63521 7.97144 10.6234C7.97144 11.6117 8.87144 12.4764 9.90001 12.4764C10.9286 12.4764 11.8286 11.6117 11.8286 10.6234C11.8286 9.63521 10.9286 8.77051 9.90001 8.77051Z" fill="#E2E8F0"/>
<path d="M9.51422 10.0059H4.24279V11.2412H7.97136L1.28564 17.6647L2.18564 18.5294L8.87136 12.1059V15.6882H10.1571V10.6235C10.1571 10.2529 9.89993 10.0059 9.51422 10.0059Z" fill="#C8C8C8"/>
</g>
<defs>
<clipPath id="clip0">
<rect width="15.8143" height="14.8235" fill="white" transform="translate(1.28564 3.70605)"/>
</clipPath>
</defs>
</svg>
