<svg width="13" height="13" viewBox="0 0 13 13" fill="none" xmlns="http://www.w3.org/2000/svg">
<g clip-path="url(#clip0)">
<path d="M5.2 1.5C7.2 1.5 8.9 3.1 8.9 5.2C8.9 7.3 7.2 8.8 5.2 8.8C3.2 8.8 1.5 7.2 1.5 5.1C1.5 3 3.1 1.5 5.2 1.5ZM5.2 0C2.3 0 0 2.3 0 5.2C0 8.1 2.3 10.4 5.2 10.4C8.1 10.4 10.4 8.1 10.4 5.2C10.3 2.3 8 0 5.2 0Z" fill="#718195"/>
<path d="M8.69995 8.40039L11.9 11.5004" stroke="#718195" stroke-width="1.5" stroke-miterlimit="10" stroke-linecap="round" stroke-linejoin="round"/>
</g>
<defs>
<clipPath id="clip0">
<rect width="12.7" height="12.3" fill="white"/>
</clipPath>
</defs>
</svg>
