<svg width="14" height="16" viewBox="0 0 14 16" fill="none" xmlns="http://www.w3.org/2000/svg">
<path d="M12.75 7.24973C12.9312 7.24974 13.1063 7.31537 13.2429 7.4345C13.3795 7.55362 13.4684 7.71818 13.493 7.89773L13.5 7.99973V13.2497C13.5 13.95 13.2329 14.6239 12.7531 15.134C12.2733 15.6441 11.617 15.952 10.918 15.9947L10.75 15.9997H3.25C2.54971 15.9998 1.87579 15.7326 1.3657 15.2528C0.855612 14.773 0.547781 14.1167 0.505 13.4177L0.5 13.2497V7.99973C0.500058 7.80971 0.572245 7.62679 0.701973 7.48794C0.831701 7.34909 1.0093 7.26466 1.19888 7.25171C1.38846 7.23875 1.57589 7.29825 1.7233 7.41816C1.87071 7.53808 1.9671 7.70948 1.993 7.89773L2 7.99973V13.2497C2 13.8967 2.492 14.4297 3.122 14.4937L3.25 14.4997H10.75C11.0593 14.4996 11.3576 14.3849 11.5871 14.1776C11.8167 13.9704 11.9613 13.6854 11.993 13.3777L12 13.2497V7.99973C12 7.80082 12.079 7.61005 12.2197 7.4694C12.3603 7.32875 12.5511 7.24973 12.75 7.24973ZM2.227 4.46173L6.47 0.219732C6.59699 0.0927148 6.76534 0.0154866 6.94445 0.00209013C7.12356 -0.0113063 7.30153 0.0400186 7.446 0.146732L7.53 0.219732L11.773 4.46173C11.9089 4.59518 11.989 4.77533 11.9969 4.96563C12.0048 5.15594 11.9401 5.34213 11.8158 5.48643C11.6914 5.63073 11.5169 5.72233 11.3275 5.74263C11.1381 5.76293 10.9481 5.71041 10.796 5.59573L10.712 5.52273L7.75 2.55973V10.2497C7.74999 10.431 7.68436 10.6061 7.56523 10.7427C7.44611 10.8793 7.28155 10.9681 7.102 10.9927L7 10.9997C6.81876 10.9997 6.64366 10.9341 6.50707 10.815C6.37048 10.6958 6.28165 10.5313 6.257 10.3517L6.25 10.2497V2.55973L3.288 5.52273C3.16095 5.65001 2.9924 5.7274 2.81307 5.7408C2.63373 5.7542 2.45555 5.70272 2.311 5.59573L2.227 5.52273C2.09972 5.39569 2.02233 5.22714 2.00893 5.0478C1.99553 4.86846 2.04701 4.69028 2.154 4.54573L2.227 4.46173L6.47 0.219732L2.227 4.46173Z" fill="#252117"/>
</svg>
