<svg width="9" height="9" viewBox="0 0 9 9" fill="none" xmlns="http://www.w3.org/2000/svg">
<path d="M4.73984 0.5C3.33984 0.5 2.03984 1.3 1.23984 2.5C0.539844 3.7 0.539844 5.3 1.23984 6.5C1.93984 7.7 3.23984 8.5 4.73984 8.5C6.13984 8.5 7.43984 7.7 8.23984 6.5C8.93984 5.3 8.93984 3.7 8.23984 2.5C7.43984 1.3 6.13984 0.5 4.73984 0.5Z" fill="white"/>
<path d="M4.73984 0.5C3.33984 0.5 2.03984 1.3 1.23984 2.5C0.539844 3.7 0.539844 5.3 1.23984 6.5C1.93984 7.7 3.23984 8.5 4.73984 8.5C6.13984 8.5 7.43984 7.7 8.23984 6.5C8.93984 5.3 8.93984 3.7 8.23984 2.5C7.43984 1.3 6.13984 0.5 4.73984 0.5Z" fill="url(#paint0_linear_10124_21636)" fill-opacity="0.8"/>
<path d="M4.73984 0.5C3.33984 0.5 2.03984 1.3 1.23984 2.5C0.539844 3.7 0.539844 5.3 1.23984 6.5C1.93984 7.7 3.23984 8.5 4.73984 8.5C6.13984 8.5 7.43984 7.7 8.23984 6.5C8.93984 5.3 8.93984 3.7 8.23984 2.5C7.43984 1.3 6.13984 0.5 4.73984 0.5Z" fill="url(#paint1_linear_10124_21636)" fill-opacity="0.8"/>
<path d="M4.64102 3.2C4.97239 3.2 5.24102 2.93137 5.24102 2.6C5.24102 2.26863 4.97239 2 4.64102 2C4.30964 2 4.04102 2.26863 4.04102 2.6C4.04102 2.93137 4.30964 3.2 4.64102 3.2Z" fill="white"/>
<path d="M5.04063 6.2V4H3.64062V4.8H4.34062V6.2H3.64062V6.9H5.84062V6.2H5.04063Z" fill="white"/>
<defs>
<linearGradient id="paint0_linear_10124_21636" x1="8.76484" y1="8.5" x2="0.764999" y2="0.450156" gradientUnits="userSpaceOnUse">
<stop stop-color="#252117"/>
<stop offset="1" stop-opacity="0"/>
</linearGradient>
<linearGradient id="paint1_linear_10124_21636" x1="0.714844" y1="0.5" x2="8.56141" y2="8.54888" gradientUnits="userSpaceOnUse">
<stop offset="0.484375" stop-color="#D1CDB2"/>
<stop offset="1" stop-opacity="0"/>
</linearGradient>
</defs>
</svg>
