<svg width="8" height="7" viewBox="0 0 8 7" fill="none" xmlns="http://www.w3.org/2000/svg">
<path d="M7.92063 0C7.69959 0.0802191 7.47554 0.162563 7.26053 0.265626L7.09777 0.342127C7.04402 0.368158 6.99228 0.397908 6.93903 0.426064C6.83454 0.483971 6.72603 0.538159 6.62254 0.599784C6.20722 0.847199 5.80812 1.1239 5.42794 1.42801C5.04766 1.73188 4.68647 2.05754 4.33482 2.39435L4.07862 2.65254C3.99221 2.73861 3.90782 2.8252 3.82744 2.91339L3.57928 3.17901L3.33513 3.44464C3.04628 3.76924 2.73532 4.07471 2.43743 4.38814C2.40176 4.35627 2.36559 4.32493 2.32942 4.29464C2.11291 4.11637 1.87675 3.96653 1.62612 3.84839C1.37864 3.73032 1.11697 3.6488 0.848477 3.60614C0.781162 3.59605 0.712339 3.58967 0.645023 3.58436C0.577708 3.57905 0.507378 3.57958 0.440063 3.58117C0.371457 3.58414 0.303044 3.59087 0.235102 3.60136C0.167088 3.61437 0.0999611 3.63212 0.0341598 3.65449L0 3.84202C0.0462166 3.89514 0.0909257 3.93392 0.132119 3.97961C0.173312 4.0253 0.214003 4.06886 0.252684 4.11508C0.330047 4.20592 0.40339 4.29518 0.471208 4.38549C0.505368 4.43171 0.539529 4.47474 0.571679 4.5199C0.60383 4.56505 0.636986 4.61021 0.668634 4.6543C0.700283 4.6984 0.730424 4.74568 0.760565 4.7903C0.790706 4.83493 0.81934 4.88115 0.848979 4.92418C0.964019 5.10268 1.07002 5.27852 1.16245 5.45012C1.24958 5.60873 1.32564 5.77385 1.39002 5.94418C1.4076 5.98296 1.41614 6.02015 1.4297 6.05628L1.43925 6.08337L1.44427 6.09665V6.09984L1.44929 6.11153C1.45867 6.13242 1.46872 6.15261 1.47943 6.17209C1.56611 6.3381 1.68995 6.47911 1.84013 6.58275C2.06433 6.73759 2.33378 6.80182 2.59912 6.76367C2.86446 6.72552 3.10792 6.58755 3.2849 6.37503C3.29947 6.35803 3.31303 6.3405 3.32659 6.3219L3.34066 6.30331L3.35372 6.28525L3.37984 6.24912C3.51596 6.05512 3.64207 5.85348 3.75761 5.64509C3.87366 5.43577 3.98468 5.2254 4.09871 5.01609C4.21275 4.80677 4.33231 4.6033 4.4589 4.40674L4.64929 4.11136L4.8422 3.8197C4.96929 3.62314 5.10141 3.43402 5.23203 3.24117C5.36264 3.04833 5.49526 2.85867 5.63391 2.67432C5.70223 2.58189 5.76804 2.48467 5.83887 2.39489L6.05036 2.12076C6.12069 2.02938 6.19504 1.94279 6.26788 1.85513L6.37538 1.71913L6.48942 1.59004C6.56578 1.50504 6.64013 1.41473 6.719 1.33238C6.79786 1.25004 6.87724 1.16663 6.95661 1.08216C7.03598 0.997692 7.12088 0.922785 7.20377 0.841504C7.24546 0.802191 7.28666 0.760754 7.32936 0.722503L7.45997 0.609878L7.59108 0.497252C7.61269 0.478127 7.63429 0.458471 7.65689 0.439877L7.72521 0.386752C7.81664 0.315918 7.90824 0.244199 8 0.171595L7.92063 0ZM1.84214 5.09577L1.83912 5.10002L1.84465 5.09205L1.84214 5.09577Z" fill="#02903C"/>
</svg>
