<svg width="20" height="24" viewBox="0 0 20 24" fill="none" xmlns="http://www.w3.org/2000/svg">
<path d="M18.3038 10.9152C18.5656 10.9152 18.8185 11.01 19.0158 11.1821C19.2131 11.3541 19.3414 11.5918 19.377 11.8512L19.3872 11.9985V19.5819C19.3872 20.5934 19.0014 21.5668 18.3083 22.3036C17.6153 23.0404 16.6672 23.4851 15.6576 23.5469L15.4149 23.5541H4.5816C3.57007 23.5541 2.59663 23.1683 1.85983 22.4752C1.12304 21.7822 0.678392 20.8342 0.616597 19.8245L0.609375 19.5819V11.9985C0.609459 11.724 0.713728 11.4598 0.901113 11.2593C1.0885 11.0587 1.34503 10.9368 1.61887 10.918C1.89271 10.8993 2.16344 10.9853 2.37636 11.1585C2.58928 11.3317 2.72852 11.5793 2.76593 11.8512L2.77604 11.9985V19.5819C2.77604 20.5164 3.48671 21.2863 4.39671 21.3787L4.5816 21.3874H15.4149C15.8617 21.3873 16.2925 21.2215 16.6241 20.9221C16.9558 20.6228 17.1646 20.2111 17.2104 19.7668L17.2205 19.5819V11.9985C17.2205 11.7112 17.3346 11.4357 17.5378 11.2325C17.741 11.0293 18.0165 10.9152 18.3038 10.9152ZM3.10393 6.88808L9.23271 0.760751C9.41614 0.577281 9.65931 0.465729 9.91803 0.446378C10.1767 0.427028 10.4338 0.501164 10.6425 0.655306L10.7638 0.760751L16.8926 6.88808C17.0889 7.08083 17.2045 7.34106 17.216 7.61594C17.2275 7.89082 17.1339 8.15977 16.9544 8.36821C16.7748 8.57664 16.5226 8.70894 16.2491 8.73826C15.9755 8.76758 15.701 8.69173 15.4814 8.52608L15.36 8.42064L11.0816 4.14075V15.2485C11.0816 15.5103 10.9868 15.7632 10.8147 15.9605C10.6426 16.1578 10.405 16.2861 10.1456 16.3217L9.99826 16.3319C9.73648 16.3319 9.48355 16.237 9.28625 16.065C9.08896 15.8929 8.96065 15.6552 8.92504 15.3959L8.91493 15.2485V4.14075L4.63649 8.42064C4.45298 8.60449 4.20951 8.71628 3.95047 8.73563C3.69143 8.75499 3.43406 8.68062 3.22526 8.52608L3.10393 8.42064C2.92008 8.23713 2.80829 7.99367 2.78894 7.73462C2.76958 7.47558 2.84395 7.21821 2.99849 7.00942L3.10393 6.88808L9.23271 0.760751L3.10393 6.88808Z" fill="white"/>
</svg>
