<svg width="108" height="27" viewBox="0 0 108 27" fill="none" xmlns="http://www.w3.org/2000/svg">
<g clip-path="url(#clip0_11675_23671)">
<path d="M0 21.1572V3.29785H11.2097V5.92596H3.15383V11.1049H10.1746V13.7125H3.15383V18.5599H11.2097V21.1619L0 21.1572Z" fill="white"/>
<path d="M21.475 8.24738H24.8744L17.1404 26.9999H14.1575L16.6953 20.3877L11.3984 8.24365H14.823L18.2223 17.0965L21.475 8.24738Z" fill="white"/>
<path d="M51.7876 14.0393C51.7876 11.794 50.9252 10.6205 49.4719 10.6205C48.0915 10.6205 46.7372 11.7176 46.6634 14.5497V21.1618H43.6328V8.2476H46.6634V10.4166C47.328 8.83339 48.7318 7.96729 50.3335 7.96729C51.8857 7.96729 53.4136 8.60522 54.2265 10.3886C55.2157 8.32211 56.9613 7.96729 58.3165 7.96729C61.5432 7.96729 62.9479 10.289 62.9479 14.0132V21.1572H59.9173V14.0393C59.9173 11.794 59.0548 10.6205 57.6016 10.6205C56.2221 10.6205 54.8668 11.7176 54.7931 14.5497V21.1618H51.7876V14.0393Z" fill="white"/>
<path d="M78.5077 8.2476V21.1572H75.477V19.2182C74.5903 20.6217 73.0382 21.4375 71.2153 21.4375C67.5192 21.4375 65.1055 18.4275 65.1055 14.6512C65.1055 11.0033 67.4212 7.96729 71.2396 7.96729C72.915 7.96729 74.4671 8.68159 75.477 10.1614V8.2476H78.5077ZM71.8295 18.8122C73.8979 18.8122 75.549 17.3575 75.549 14.8076C75.549 12.3071 73.9968 10.5973 71.7549 10.5973C69.4644 10.5973 68.1577 12.4598 68.1577 14.68C68.1586 16.9729 69.5624 18.8122 71.8295 18.8122Z" fill="white"/>
<path d="M84.4968 11.1048C84.915 8.91068 86.5652 7.96729 87.8961 7.96729C88.3152 7.96729 88.5616 8.04365 88.9312 8.14516V11.2324C88.4709 11.0671 87.9876 10.9809 87.5004 10.9772C86.3916 10.9772 84.5436 11.6152 84.5436 15.1867V21.1572H81.5156V8.2476H84.4968V11.1048Z" fill="white"/>
<path d="M97.3037 8.24746H100.654V8.63022L96.3145 14.1667L98.1868 17.1767C98.8271 18.1462 99.221 18.6053 100.133 18.6053C100.403 18.6053 101.122 18.5289 101.611 18.1462L102.69 20.3151C101.655 21.361 100.325 21.4373 99.7093 21.4373C97.8127 21.4373 96.7533 20.3664 95.8909 19.0905L93.3783 14.9062V21.157H90.3477V2.71094H93.3783V13.58L97.3037 8.24746Z" fill="white"/>
<path d="M37.1405 19.0692C35.2519 20.21 33.7052 20.3841 31.956 19.6503C31.2051 19.3346 30.4119 18.855 29.5036 18.1518C28.7568 17.1069 28.357 15.8394 28.3643 14.5394C28.3716 13.2393 28.7856 11.9768 29.5441 10.9409C30.4362 10.2545 31.2159 9.78512 31.956 9.47407C33.7052 8.74021 35.2555 8.91529 37.1405 10.0543C37.1937 10.0936 37.2542 10.121 37.3182 10.1347C37.3822 10.1485 37.4483 10.1483 37.5122 10.1342C37.5762 10.12 37.6366 10.0923 37.6896 10.0527C37.7426 10.0131 37.7871 9.96253 37.8202 9.90417C37.8534 9.84581 37.8744 9.78095 37.882 9.71371C37.8896 9.64648 37.8836 9.57834 37.8645 9.51363C37.8453 9.44891 37.8133 9.38904 37.7705 9.33782C37.7278 9.2866 37.6752 9.24515 37.6162 9.2161C35.4795 7.92254 33.6242 7.72603 31.6017 8.57351C29.7914 9.33344 27.8103 10.925 24.7671 14.0681C24.7035 14.1338 24.653 14.2118 24.6186 14.2977C24.5841 14.3836 24.5664 14.4757 24.5664 14.5687C24.5664 14.6617 24.5841 14.7538 24.6186 14.8397C24.653 14.9256 24.7035 15.0036 24.7671 15.0693C27.8139 18.2105 29.795 19.8021 31.6017 20.5639C32.3593 20.8921 33.1717 21.0635 33.9929 21.0686C35.162 21.0686 36.3428 20.6868 37.6216 19.9129C37.7243 19.8449 37.7976 19.7384 37.8261 19.6157C37.8547 19.4929 37.8363 19.3635 37.7749 19.2545C37.7134 19.1455 37.6136 19.0654 37.4964 19.0308C37.3791 18.9963 37.2535 19.01 37.1459 19.0692H37.1405Z" fill="#4BAA73"/>
<path d="M41.714 9.7832C41.4577 9.87633 41.1978 9.96946 40.9487 10.0849L40.7589 10.1716C40.6969 10.2014 40.6366 10.2349 40.579 10.2647C40.4576 10.3308 40.3317 10.3923 40.2121 10.463C39.7304 10.7437 39.2674 11.0577 38.8263 11.4027C38.3866 11.7482 37.9666 12.1179 37.5601 12.4998L37.2624 12.7931C37.1623 12.8912 37.0646 12.9899 36.9693 13.0893L36.6815 13.3901L36.3982 13.6946C36.0628 14.0671 35.7031 14.4099 35.3577 14.7656C35.3164 14.7293 35.2741 14.6939 35.2318 14.6594C34.9803 14.4572 34.7062 14.2871 34.4153 14.1528C34.1293 14.0174 33.8267 13.9234 33.516 13.8734C33.4377 13.8623 33.3577 13.8539 33.2804 13.8483C33.203 13.8427 33.1203 13.8427 33.0421 13.8483C32.9638 13.8539 32.882 13.8623 32.8046 13.8716C32.7255 13.8851 32.6473 13.9044 32.5708 13.9293L32.5312 14.1426C32.5852 14.1994 32.6365 14.2469 32.685 14.299C32.7336 14.3512 32.7795 14.3996 32.8244 14.4518C32.9144 14.5551 32.998 14.6566 33.078 14.7591C33.1176 14.8122 33.1572 14.8606 33.1949 14.9118C33.2327 14.963 33.2705 15.0143 33.3073 15.0646C33.3442 15.1148 33.3784 15.1689 33.4144 15.2182C33.4503 15.2676 33.4818 15.3216 33.5169 15.3709C33.65 15.574 33.7723 15.7733 33.8766 15.9679C33.9772 16.1474 34.0653 16.3341 34.1401 16.5267C34.1608 16.5705 34.1707 16.6124 34.186 16.6533L34.1967 16.6841L34.203 16.699L34.2084 16.712C34.2201 16.7353 34.2309 16.7576 34.2435 16.78C34.3442 16.9682 34.4877 17.128 34.6617 17.2456C34.9216 17.4215 35.2341 17.4945 35.5418 17.4512C35.8495 17.408 36.1318 17.2513 36.3371 17.01L36.3856 16.9504L36.4018 16.929L36.4171 16.9085L36.4468 16.8675C36.6048 16.6472 36.751 16.4181 36.8847 16.1812C37.0196 15.9437 37.1482 15.7053 37.2804 15.4678C37.4126 15.2303 37.5502 15.0022 37.6986 14.7759L37.9189 14.4406L38.1429 14.109C38.2894 13.8855 38.4432 13.6713 38.5925 13.4571C38.7418 13.2429 38.8983 13.0222 39.0583 12.8136C39.1375 12.7084 39.2139 12.5985 39.2957 12.4961L39.5413 12.185C39.6231 12.0807 39.7094 11.9829 39.7931 11.8805L39.9208 11.7287L40.0521 11.5825C40.142 11.4893 40.2265 11.3832 40.3218 11.2891C40.4172 11.195 40.5017 11.1028 40.5979 11.0097C40.6942 10.9166 40.7886 10.829 40.8839 10.7368C40.9325 10.6921 40.9801 10.6437 41.0305 10.6018L41.1816 10.4742L41.3336 10.3438L41.41 10.2786L41.4891 10.219C41.5952 10.139 41.7014 10.0576 41.8075 9.97505L41.714 9.7832ZM34.6644 15.5693L34.6707 15.56L34.6644 15.5693Z" fill="#4BAA73"/>
</g>
<defs>
<clipPath id="clip0_11675_23671">
<rect width="108" height="27" fill="white"/>
</clipPath>
</defs>
</svg>
