<svg width="16" height="11" viewBox="0 0 16 11" fill="none" xmlns="http://www.w3.org/2000/svg">
<path d="M11.3029 9.19362C9.72614 10.1294 8.43471 10.2722 6.97435 9.67029C6.3474 9.41133 5.68517 9.01792 4.92683 8.44117C4.30326 7.58403 3.96951 6.54437 3.9756 5.47799C3.98169 4.41162 4.3273 3.37598 4.96062 2.52627C5.70544 1.96327 6.35641 1.57826 6.97435 1.32312C8.43471 0.721164 9.72914 0.864778 11.3029 1.79903C11.3473 1.83126 11.3979 1.85373 11.4513 1.86502C11.5048 1.8763 11.5599 1.87614 11.6133 1.86457C11.6667 1.85299 11.7171 1.83024 11.7614 1.79776C11.8056 1.76528 11.8428 1.72379 11.8704 1.67592C11.8981 1.62804 11.9157 1.57484 11.922 1.51969C11.9284 1.46454 11.9234 1.40865 11.9074 1.35557C11.8913 1.30249 11.8646 1.25338 11.8289 1.21136C11.7933 1.16935 11.7494 1.13535 11.7001 1.11152C9.9161 0.0504571 8.36714 -0.110727 6.67852 0.584425C5.1671 1.20777 3.51302 2.51328 0.972208 5.09145C0.919108 5.14532 0.876979 5.20931 0.848232 5.27977C0.819486 5.35023 0.804688 5.42577 0.804688 5.50205C0.804688 5.57834 0.819486 5.65388 0.848232 5.72434C0.876979 5.79479 0.919108 5.85879 0.972208 5.91265C3.51602 8.4893 5.1701 9.79481 6.67852 10.4197C7.31109 10.6889 7.98932 10.8295 8.67498 10.8337C9.65106 10.8337 10.6369 10.5205 11.7046 9.88571C11.7903 9.82991 11.8515 9.74254 11.8753 9.64188C11.8992 9.54123 11.8839 9.43508 11.8325 9.34567C11.7812 9.25625 11.6979 9.19049 11.6 9.16215C11.5022 9.13381 11.3973 9.14509 11.3074 9.19362H11.3029Z" fill="white"/>
<path d="M15.1199 1.57812C14.9059 1.65452 14.6889 1.73091 14.4809 1.82563L14.3225 1.89667C14.2707 1.92112 14.2204 1.94862 14.1723 1.97306C14.0709 2.0273 13.9658 2.07772 13.866 2.13577C13.4637 2.366 13.0772 2.62351 12.7089 2.90655C12.3418 3.18996 11.9911 3.49323 11.6518 3.80643L11.4032 4.04706C11.3197 4.12752 11.2381 4.2085 11.1585 4.28998L10.9182 4.53672L10.6817 4.78652C10.4016 5.09208 10.1013 5.37319 9.81299 5.665C9.77845 5.63521 9.74316 5.60618 9.70787 5.57792C9.49788 5.41199 9.26898 5.27246 9.02612 5.16236C8.78737 5.05125 8.53472 4.97413 8.27529 4.93319C8.20996 4.92402 8.14314 4.91714 8.07857 4.91256C8.014 4.90798 7.94492 4.90798 7.8796 4.91256C7.81428 4.91714 7.74595 4.92402 7.68138 4.93166C7.61529 4.94274 7.55005 4.95857 7.48616 4.97902L7.45312 5.15395C7.49817 5.20055 7.54097 5.23951 7.58152 5.28229C7.62206 5.32507 7.66035 5.36479 7.6979 5.40757C7.77298 5.49236 7.84281 5.57563 7.90963 5.65966C7.94267 5.7032 7.9757 5.74292 8.00724 5.78494C8.03877 5.82695 8.07031 5.86897 8.10109 5.91022C8.13188 5.95147 8.16041 5.99577 8.19044 6.03626C8.22047 6.07675 8.24675 6.12105 8.27604 6.16154C8.38716 6.32807 8.48927 6.49155 8.57637 6.6512C8.6604 6.79842 8.73392 6.9516 8.79636 7.10955C8.81363 7.14545 8.82189 7.17982 8.83466 7.21344L8.84366 7.23864L8.84892 7.25087L8.85343 7.26156C8.86319 7.28066 8.8722 7.29899 8.88271 7.31733C8.96677 7.47168 9.08662 7.60279 9.23184 7.69928C9.44888 7.84355 9.70975 7.90342 9.96665 7.86793C10.2236 7.83243 10.4593 7.70394 10.6306 7.50601L10.6712 7.45712L10.6847 7.43955L10.6975 7.42274L10.7222 7.38913C10.8542 7.20844 10.9763 7.02049 11.0879 6.82614C11.2005 6.63134 11.3079 6.43578 11.4183 6.24099C11.5286 6.04619 11.6435 5.85904 11.7674 5.67341L11.9514 5.3984L12.1383 5.12645C12.2607 4.94312 12.3891 4.76742 12.5137 4.59172C12.6384 4.41602 12.769 4.23498 12.9027 4.06386C12.9687 3.97754 13.0325 3.8874 13.1009 3.80337L13.3059 3.54823C13.3742 3.46267 13.4463 3.38246 13.5161 3.29843L13.6227 3.17392L13.7323 3.05399C13.8074 2.97759 13.878 2.89051 13.9576 2.81336C14.0372 2.7362 14.1077 2.66058 14.1881 2.58418C14.2684 2.50779 14.3473 2.43599 14.4268 2.36036C14.4674 2.32369 14.5072 2.28397 14.5492 2.24959L14.6754 2.14494L14.8023 2.03799L14.8661 1.98452L14.9322 1.93563C15.0207 1.86994 15.1093 1.80322 15.1979 1.73549L15.1199 1.57812ZM9.2341 6.32425L9.23935 6.31661L9.2341 6.32425Z" fill="white"/>
</svg>
