<svg width="552" height="282" viewBox="0 0 552 282" fill="none" xmlns="http://www.w3.org/2000/svg">
<path fill-rule="evenodd" clip-rule="evenodd" d="M-89.1964 1.26896C-138.723 -1.48303 -187.773 14.7773 -217.81 30.647L-218.442 29.8423C-188.323 13.9293 -139.104 -2.40222 -89.3293 0.363524C-64.4338 1.74686 -39.3766 7.90933 -16.502 21.3126C6.37793 34.7188 27.031 55.344 43.1455 85.5903C83.3155 160.988 124.343 224.71 172.045 271.099C219.726 317.468 274.07 346.514 340.922 352.587C350.516 353.458 360.404 354.195 370.463 354.945C397.417 356.953 425.598 359.053 452.63 364.08C489.766 370.986 524.858 383.432 551.792 408.836L551.124 409.39C524.453 384.234 489.648 371.854 452.614 364.967C425.65 359.953 397.57 357.861 370.636 355.854C360.562 355.103 350.649 354.364 341.015 353.489C273.838 347.387 219.222 318.182 171.362 271.64C123.523 225.117 82.428 161.266 42.2448 85.8434C26.218 55.7616 5.71727 35.316 -16.9339 22.0437C-39.5904 8.76831 -64.4415 2.64449 -89.1964 1.26896ZM-99.8112 19.6542C-149.338 16.9022 -198.388 33.1626 -228.425 49.0323L-229.056 48.2275C-198.937 32.3146 -149.718 15.983 -99.944 18.7488C-75.0485 20.1321 -49.9913 26.2946 -27.1167 39.6978C-4.23679 53.1041 16.4163 73.7293 32.5307 103.976C72.7008 179.373 113.729 243.095 161.43 289.484C209.112 335.854 263.455 364.899 330.307 370.972C339.901 371.843 349.79 372.58 359.849 373.33C386.803 375.338 414.983 377.438 442.016 382.465C479.151 389.371 514.244 401.817 541.177 427.221L540.509 427.775C513.838 402.619 479.034 390.239 441.999 383.353C415.036 378.339 386.955 376.246 360.021 374.239C349.948 373.488 340.034 372.75 330.4 371.874C263.223 365.772 208.607 336.567 160.748 290.025C112.908 243.502 71.8133 179.651 31.6301 104.229C15.6033 74.1469 -4.89745 53.7012 -27.5487 40.4289C-50.2051 27.1535 -75.0562 21.0297 -99.8112 19.6542ZM-110.426 38.0394C-159.953 35.2874 -209.003 51.5478 -239.04 67.4175L-239.671 66.6127C-209.552 50.6998 -160.333 34.3682 -110.559 37.134C-85.6633 38.5173 -60.606 44.6798 -37.7314 58.083C-14.8515 71.4893 5.80156 92.1145 21.916 122.361C62.0861 197.758 103.114 261.481 150.815 307.869C198.497 354.239 252.841 383.284 319.692 389.357C329.287 390.229 339.175 390.965 349.234 391.715C376.188 393.724 404.368 395.824 431.401 400.85C468.537 407.756 503.629 420.202 530.563 445.606L529.894 446.16C503.224 421.005 468.419 408.625 431.385 401.738C404.421 396.724 376.34 394.631 349.407 392.624C339.333 391.873 329.42 391.135 319.785 390.26C252.609 384.157 197.992 354.952 150.133 308.41C102.293 261.887 61.1986 198.036 21.0154 122.614C4.98855 92.5321 -15.5122 72.0864 -38.1634 58.8141C-60.8198 45.5388 -85.6709 39.4149 -110.426 38.0394ZM-121.041 56.4246C-170.567 53.6727 -219.617 69.933 -249.654 85.8027L-250.286 84.998C-220.167 69.085 -170.948 52.7535 -121.173 55.5192C-96.278 56.9025 -71.2208 63.065 -48.3461 76.4682C-25.4662 89.8745 -4.81316 110.5 11.3013 140.746C51.4713 216.144 92.4991 279.866 140.201 326.255C187.882 372.624 242.226 401.67 309.078 407.742C318.672 408.614 328.56 409.351 338.619 410.1C365.573 412.109 393.753 414.209 420.786 419.236C457.922 426.141 493.014 438.588 519.948 463.991L519.28 464.546C492.609 439.39 457.804 427.01 420.77 420.123C393.806 415.109 365.725 413.017 338.792 411.009C328.718 410.259 318.805 409.52 309.171 408.645C241.994 402.543 187.378 373.338 139.518 326.795C91.6785 280.272 50.5839 216.422 10.4007 140.999C-5.62616 110.917 -26.1269 90.4716 -48.7781 77.1993C-71.4345 63.924 -96.2857 57.8002 -121.041 56.4246ZM-131.655 74.8099C-181.182 72.0579 -230.232 88.3183 -260.269 104.188L-260.9 103.383C-230.782 87.4703 -181.562 71.1387 -131.788 73.9044C-106.893 75.2878 -81.8355 81.4502 -58.9608 94.8535C-36.0809 108.26 -15.4279 128.885 0.686595 159.131C40.8566 234.529 81.8844 298.251 129.586 344.64C177.268 391.009 231.611 420.055 298.463 426.127C308.057 426.999 317.945 427.736 328.004 428.486C354.959 430.494 383.139 432.594 410.172 437.621C447.307 444.526 482.4 456.973 509.333 482.376L508.665 482.931C481.994 457.775 447.19 445.395 410.155 438.508C383.192 433.494 355.111 431.402 328.177 429.395C318.103 428.644 308.19 427.905 298.556 427.03C231.379 420.928 176.763 391.723 128.903 345.181C81.0638 298.658 39.9692 234.807 -0.214057 159.384C-16.2409 129.303 -36.7416 108.857 -59.3928 95.5846C-82.0492 82.3092 -106.9 76.1854 -131.655 74.8099ZM-142.27 93.1951C-191.797 90.4431 -240.847 106.703 -270.884 122.573L-271.515 121.768C-241.396 105.855 -192.177 89.5239 -142.403 92.2897C-117.507 93.673 -92.4502 99.8355 -69.5755 113.239C-46.6957 126.645 -26.0426 147.27 -9.92812 177.516C30.2419 252.914 71.2697 316.636 118.971 363.025C166.653 409.394 220.996 438.44 287.848 444.513C297.442 445.384 307.331 446.121 317.39 446.871C344.344 448.879 372.524 450.979 399.557 456.006C436.692 462.912 471.785 475.358 498.718 500.762L498.05 501.316C471.38 476.16 436.575 463.78 399.541 456.894C372.577 451.88 344.496 449.787 317.562 447.78C307.489 447.029 297.575 446.29 287.941 445.415C220.765 439.313 166.148 410.108 118.289 363.566C70.4491 317.043 29.3545 253.192 -10.8288 177.77C-26.8556 147.688 -47.3563 127.242 -70.0075 113.97C-92.6639 100.694 -117.515 94.5706 -142.27 93.1951ZM-152.885 111.58C-202.411 108.828 -251.461 125.089 -281.498 140.958L-282.13 140.154C-252.011 124.241 -202.792 107.909 -153.018 110.675C-128.122 112.058 -103.065 118.221 -80.1903 131.624C-57.3104 145.03 -36.6573 165.655 -20.5428 195.902C19.6272 271.299 60.6549 335.022 108.356 381.41C156.038 427.78 210.382 456.825 277.233 462.898C286.828 463.769 296.716 464.506 306.775 465.256C333.729 467.265 361.909 469.365 388.942 474.391C426.078 481.297 461.17 493.743 488.104 519.147L487.435 519.701C460.765 494.546 425.96 482.165 388.926 475.279C361.962 470.265 333.881 468.172 306.948 466.165C296.874 465.414 286.961 464.676 277.326 463.8C210.15 457.698 155.533 428.493 107.674 381.951C59.8344 335.428 18.7397 271.577 -21.4435 196.155C-37.4703 166.073 -57.971 145.627 -80.6222 132.355C-103.279 119.08 -128.13 112.956 -152.885 111.58ZM-163.499 129.966C-213.026 127.214 -262.076 143.474 -292.113 159.344L-292.745 158.539C-262.626 142.626 -213.407 126.294 -163.632 129.06C-138.737 130.443 -113.68 136.606 -90.805 150.009C-67.9251 163.415 -47.272 184.041 -31.1576 214.287C9.01248 289.685 50.0402 353.407 97.7417 399.795C145.423 446.165 199.767 475.21 266.619 481.283C276.213 482.155 286.101 482.892 296.16 483.641C323.114 485.65 351.294 487.75 378.327 492.777C415.463 499.682 450.555 512.128 477.489 537.532L476.821 538.086C450.15 512.931 415.345 500.551 378.311 493.664C351.347 488.65 323.267 486.557 296.333 484.55C286.259 483.8 276.346 483.061 266.712 482.186C199.535 476.083 144.919 446.879 97.0593 400.336C49.2196 353.813 8.12503 289.962 -32.0582 214.54C-48.085 184.458 -68.5857 164.013 -91.2369 150.74C-113.893 137.465 -138.745 131.341 -163.499 129.966ZM-174.114 148.351C-223.641 145.599 -272.691 161.859 -302.728 177.729L-303.359 176.924C-273.24 161.011 -224.021 144.68 -174.247 147.445C-149.352 148.829 -124.294 154.991 -101.42 168.394C-78.5398 181.801 -57.8867 202.426 -41.7723 232.672C-1.60223 308.07 39.4255 371.792 87.127 418.181C134.809 464.55 189.152 493.596 256.004 499.668C265.598 500.54 275.486 501.277 285.545 502.026C312.499 504.035 340.68 506.135 367.713 511.162C404.848 518.067 439.941 530.514 466.874 555.917L466.206 556.472C439.535 531.316 404.731 518.936 367.696 512.049C340.733 507.035 312.652 504.943 285.718 502.936C275.645 502.185 265.731 501.446 256.097 500.571C188.92 494.469 134.304 465.264 86.4446 418.721C38.6049 372.198 -2.48969 308.348 -42.6729 232.925C-58.6997 202.843 -79.2005 182.398 -101.852 169.125C-124.508 155.85 -149.359 149.726 -174.114 148.351ZM-184.729 166.736C-234.256 163.984 -283.306 180.244 -313.343 196.114L-313.974 195.309C-283.855 179.396 -234.636 163.065 -184.862 165.831C-159.966 167.214 -134.909 173.376 -112.034 186.78C-89.1545 200.186 -68.5015 220.811 -52.387 251.057C-12.217 326.455 28.8108 390.177 76.5123 436.566C124.194 482.935 178.538 511.981 245.389 518.054C254.983 518.925 264.872 519.662 274.93 520.412C301.885 522.42 330.065 524.52 357.098 529.547C394.233 536.453 429.326 548.899 456.26 574.303L455.591 574.857C428.921 549.701 394.116 537.321 357.082 530.434C330.118 525.42 302.037 523.328 275.104 521.321C265.03 520.57 255.117 519.831 245.482 518.956C178.306 512.854 123.689 483.649 75.8299 437.107C27.9902 390.584 -13.1044 326.733 -53.2876 251.31C-69.3145 221.229 -89.8152 200.783 -112.466 187.511C-135.123 174.235 -159.974 168.112 -184.729 166.736ZM-195.344 185.121C-244.87 182.369 -293.92 198.63 -323.957 214.499L-324.589 213.695C-294.47 197.782 -245.251 181.45 -195.476 184.216C-170.581 185.599 -145.524 191.762 -122.649 205.165C-99.7692 218.571 -79.1162 239.196 -63.0017 269.443C-22.8317 344.84 18.1961 408.562 65.8976 454.951C113.579 501.321 167.923 530.366 234.775 536.439C244.369 537.31 254.257 538.047 264.316 538.797C291.27 540.805 319.45 542.905 346.483 547.932C383.619 554.838 418.711 567.284 445.645 592.688L444.977 593.242C418.306 568.087 383.501 555.706 346.467 548.82C319.503 543.806 291.422 541.713 264.489 539.706C254.415 538.955 244.502 538.217 234.868 537.341C167.691 531.239 113.075 502.034 65.2152 455.492C17.3755 408.969 -23.7191 345.118 -63.9023 269.696C-79.9292 239.614 -100.43 219.168 -123.081 205.896C-145.738 192.621 -170.589 186.497 -195.344 185.121Z" fill="#F0F5F3"/>
</svg>
