<svg width="285" height="70" viewBox="0 0 285 70" fill="none" xmlns="http://www.w3.org/2000/svg">
<g clip-path="url(#clip0_7486_9378)">
<path d="M0 54.8519V8.5498H29.5812V15.3634H8.32261V28.7902H26.8497V35.5507H8.32261V48.118H29.5812V54.864L0 54.8519Z" fill="black"/>
<path d="M56.6653 21.3827H65.6357L45.2267 70.0003H37.355L44.052 52.8576L30.0742 21.373H39.1111L48.0816 44.3249L56.6653 21.3827Z" fill="black"/>
<path d="M136.664 36.3975C136.664 30.5763 134.388 27.5341 130.553 27.5341C126.911 27.5341 123.337 30.3783 123.142 37.7207V54.8633H115.145V21.382H123.142V27.0053C124.896 22.9007 128.6 20.6553 132.827 20.6553C136.923 20.6553 140.955 22.3092 143.1 26.9329C145.711 21.5752 150.317 20.6553 153.893 20.6553C162.408 20.6553 166.115 26.6745 166.115 36.3299V54.8513H158.117V36.3975C158.117 30.5763 155.842 27.5341 152.007 27.5341C148.366 27.5341 144.79 30.3783 144.595 37.7207V54.8633H136.664V36.3975Z" fill="black"/>
<path d="M207.176 21.382V54.8512H199.178V49.8244C196.838 53.4629 192.742 55.578 187.932 55.578C178.178 55.578 171.809 47.7745 171.809 37.9838C171.809 28.5264 177.919 20.6553 187.996 20.6553C192.417 20.6553 196.513 22.5072 199.178 26.3437V21.382H207.176ZM189.553 48.7716C195.011 48.7716 199.368 45.0003 199.368 38.3895C199.368 31.9067 195.272 27.4737 189.356 27.4737C183.311 27.4737 179.863 32.3026 179.863 38.0587C179.865 44.0031 183.57 48.7716 189.553 48.7716Z" fill="black"/>
<path d="M222.98 28.7896C224.084 23.1011 228.439 20.6553 231.951 20.6553C233.057 20.6553 233.707 20.8533 234.682 21.1164V29.1204C233.468 28.6919 232.192 28.4684 230.907 28.4588C227.98 28.4588 223.104 30.1127 223.104 39.3722V54.8512H215.113V21.382H222.98V28.7896Z" fill="black"/>
<path d="M256.774 21.3823H265.617V22.3746L254.164 36.7286L259.105 44.5321C260.794 47.0456 261.834 48.2359 264.24 48.2359C264.952 48.2359 266.851 48.0379 268.142 47.0456L270.989 52.6688C268.258 55.3803 264.748 55.5783 263.122 55.5783C258.117 55.5783 255.322 52.8016 253.046 49.4938L246.415 38.6457V54.8515H238.418V7.02832H246.415V35.2075L256.774 21.3823Z" fill="black"/>
<path d="M98.0096 49.439C93.0261 52.3967 88.9443 52.8482 84.3285 50.9456C82.3469 50.1271 80.2538 48.8837 77.8569 47.0608C75.886 44.3516 74.8311 41.0656 74.8504 37.6951C74.8697 34.3246 75.962 31.0513 77.9637 28.3656C80.3179 26.5862 82.3754 25.3693 84.3285 24.5628C88.9443 22.6602 93.0355 23.1142 98.0096 26.067C98.1501 26.1689 98.3099 26.2399 98.4788 26.2756C98.6477 26.3113 98.822 26.3108 98.9908 26.2742C99.1595 26.2376 99.3189 26.1657 99.4588 26.063C99.5987 25.9604 99.7161 25.8292 99.8035 25.6779C99.8909 25.5266 99.9464 25.3584 99.9665 25.1841C99.9866 25.0098 99.9708 24.8332 99.9202 24.6654C99.8695 24.4976 99.7851 24.3424 99.6724 24.2096C99.5596 24.0768 99.4209 23.9693 99.265 23.894C93.6265 20.5403 88.7307 20.0309 83.3935 22.228C78.6163 24.1982 73.3883 28.3246 65.3576 36.4734C65.1898 36.6436 65.0566 36.8459 64.9658 37.0686C64.8749 37.2913 64.8281 37.53 64.8281 37.7711C64.8281 38.0123 64.8749 38.251 64.9658 38.4737C65.0566 38.6964 65.1898 38.8987 65.3576 39.0689C73.3978 47.2129 78.6258 51.3392 83.3935 53.3142C85.3928 54.165 87.5365 54.6096 89.7037 54.6228C92.7887 54.6228 95.9047 53.6329 99.2793 51.6265C99.5502 51.4501 99.7436 51.174 99.819 50.8558C99.8944 50.5377 99.8459 50.2022 99.6838 49.9196C99.5216 49.637 99.2582 49.4291 98.9488 49.3396C98.6395 49.25 98.308 49.2856 98.0239 49.439H98.0096Z" fill="#4BAA73"/>
<path d="M110.08 25.3643C109.403 25.6057 108.718 25.8471 108.06 26.1465L107.56 26.3711C107.396 26.4483 107.237 26.5353 107.085 26.6125C106.765 26.784 106.432 26.9433 106.117 27.1268C104.845 27.8545 103.624 28.6684 102.46 29.563C101.299 30.4588 100.191 31.4173 99.1183 32.4072L98.3328 33.1678C98.0686 33.4221 97.8107 33.678 97.5591 33.9356L96.7997 34.7155L96.0522 35.505C95.167 36.4708 94.2177 37.3593 93.3064 38.2816C93.1973 38.1874 93.0857 38.0957 92.9742 38.0064C92.3105 37.4819 91.587 37.0409 90.8194 36.6929C90.0648 36.3417 89.2662 36.098 88.4462 35.9686C88.2398 35.9396 88.0286 35.9179 87.8245 35.9034C87.6204 35.8889 87.4021 35.8889 87.1956 35.9034C86.9891 35.9179 86.7732 35.9396 86.5691 35.9637C86.3602 35.9988 86.154 36.0488 85.9521 36.1134L85.8477 36.6663C85.99 36.8136 86.1253 36.9368 86.2535 37.072C86.3816 37.2072 86.5026 37.3327 86.6213 37.4679C86.8586 37.7359 87.0793 37.9991 87.2905 38.2647C87.3949 38.4023 87.4994 38.5279 87.599 38.6607C87.6987 38.7935 87.7984 38.9263 87.8957 39.0566C87.993 39.187 88.0832 39.3271 88.1781 39.455C88.273 39.583 88.3561 39.723 88.4486 39.851C88.7999 40.3774 89.1226 40.8941 89.3979 41.3987C89.6635 41.864 89.8959 42.3481 90.0932 42.8473C90.1478 42.9608 90.1739 43.0695 90.2142 43.1757L90.2427 43.2554L90.2593 43.294L90.2736 43.3278C90.3044 43.3882 90.3329 43.4461 90.3661 43.5041C90.6318 43.9919 91.0106 44.4064 91.4696 44.7113C92.1556 45.1673 92.9802 45.3565 93.7921 45.2444C94.6041 45.1322 95.3492 44.7261 95.8908 44.1004L96.0189 43.9459L96.0617 43.8904L96.102 43.8373L96.1803 43.731C96.5974 43.1599 96.9832 42.5659 97.336 41.9516C97.692 41.3359 98.0314 40.7178 98.3802 40.1021C98.7291 39.4864 99.0922 38.8949 99.4837 38.3082L100.065 37.439L100.656 36.5794C101.043 35.9999 101.449 35.4446 101.843 34.8893C102.237 34.334 102.65 33.7617 103.072 33.2209C103.281 32.9481 103.482 32.6632 103.698 32.3976L104.346 31.5911C104.562 31.3207 104.79 31.0672 105.011 30.8016L105.348 30.4081L105.694 30.029C105.932 29.7875 106.155 29.5123 106.406 29.2684C106.658 29.0246 106.881 28.7855 107.135 28.5441C107.389 28.3027 107.638 28.0757 107.889 27.8367C108.018 27.7208 108.143 27.5952 108.276 27.4866L108.675 27.1558L109.076 26.8178L109.278 26.6487L109.487 26.4942C109.767 26.2866 110.047 26.0757 110.327 25.8616L110.08 25.3643ZM91.4767 40.3653L91.4934 40.3411L91.4767 40.3653Z" fill="#4BAA73"/>
<path d="M278.245 0C282.042 0 285.001 3.15328 285.001 7.02849C285.001 10.9037 282.054 14.057 278.245 14.057C274.436 14.057 271.488 10.9037 271.488 7.02849C271.488 3.15328 274.436 0 278.245 0ZM278.245 12.7725C281.33 12.7725 283.738 10.2035 283.738 7.02849C283.738 3.85348 281.325 1.28449 278.245 1.28449C275.164 1.28449 272.753 3.87521 272.753 7.02849C272.753 10.1818 275.145 12.7725 278.245 12.7725ZM279.642 7.92425C280.187 8.7683 280.68 9.6465 281.116 10.5536H279.393L278.112 8.08119H277.459V10.5536H275.834V3.48406H278.8C280.224 3.48406 281.019 4.5754 281.019 5.84058C281.019 6.83533 280.542 7.61279 279.642 7.92425ZM278.608 6.77497C279.082 6.77497 279.374 6.34761 279.374 5.84058C279.374 5.3939 279.068 4.8096 278.608 4.8096H277.459V6.77497H278.608Z" fill="black"/>
</g>
<defs>
<clipPath id="clip0_7486_9378">
<rect width="285" height="70" fill="white"/>
</clipPath>
</defs>
</svg>
