<svg width="496" height="190" viewBox="0 0 496 190" fill="none" xmlns="http://www.w3.org/2000/svg">
<path fill-rule="evenodd" clip-rule="evenodd" d="M235.804 -402.731C186.277 -405.483 137.227 -389.223 107.19 -373.353L106.558 -374.158C136.677 -390.071 185.896 -406.402 235.671 -403.636C260.566 -402.253 285.623 -396.091 308.498 -382.687C331.378 -369.281 352.031 -348.656 368.145 -318.41C408.315 -243.012 449.343 -179.29 497.045 -132.901C544.726 -86.5317 599.07 -57.4862 665.922 -51.4134C675.516 -50.5419 685.404 -49.805 695.463 -49.0555C722.417 -47.0468 750.598 -44.9468 777.63 -39.92C814.766 -33.0145 849.858 -20.5682 876.792 4.83555L876.124 5.38982C849.453 -19.7658 814.648 -32.146 777.614 -39.0326C750.65 -44.0466 722.57 -46.1392 695.636 -48.1463C685.562 -48.897 675.649 -49.6358 666.015 -50.5109C598.838 -56.6132 544.222 -85.8181 496.362 -132.36C448.523 -178.883 407.428 -242.734 367.245 -318.157C351.218 -348.238 330.717 -368.684 308.066 -381.956C285.41 -395.232 260.558 -401.356 235.804 -402.731ZM225.189 -384.346C175.662 -387.098 126.612 -370.837 96.5751 -354.968L95.9437 -355.772C126.063 -371.685 175.282 -388.017 225.056 -385.251C249.951 -383.868 275.009 -377.705 297.883 -364.302C320.763 -350.896 341.416 -330.271 357.531 -300.024C397.701 -224.627 438.729 -160.905 486.43 -114.516C534.112 -68.1465 588.455 -39.1009 655.307 -33.0282C664.901 -32.1567 674.79 -31.4198 684.849 -30.6702C711.803 -28.6615 739.983 -26.5616 767.016 -21.5348C804.151 -14.6293 839.244 -2.18296 866.177 23.2208L865.509 23.775C838.838 -1.38056 804.034 -13.7607 766.999 -20.6474C740.036 -25.6614 711.955 -27.754 685.021 -29.7611C674.948 -30.5118 665.034 -31.2505 655.4 -32.1257C588.223 -38.228 533.607 -67.4329 485.748 -113.975C437.908 -160.498 396.813 -224.349 356.63 -299.771C340.603 -329.853 320.103 -350.299 297.451 -363.571C274.795 -376.846 249.944 -382.97 225.189 -384.346ZM214.574 -365.961C165.047 -368.713 115.997 -352.452 85.9604 -336.582L85.329 -337.387C115.448 -353.3 164.667 -369.632 214.441 -366.866C239.337 -365.483 264.394 -359.32 287.269 -345.917C310.148 -332.511 330.802 -311.886 346.916 -281.639C387.086 -206.242 428.114 -142.519 475.815 -96.1307C523.497 -49.7613 577.841 -20.7157 644.692 -14.643C654.287 -13.7715 664.175 -13.0346 674.234 -12.2849C701.188 -10.2763 729.368 -8.17636 756.401 -3.14954C793.537 3.75595 828.629 16.2023 855.563 41.606L854.894 42.1603C828.224 17.0047 793.419 4.62448 756.385 -2.26213C729.421 -7.27614 701.34 -9.36874 674.407 -11.3759C664.333 -12.1265 654.42 -12.8653 644.785 -13.7405C577.609 -19.8427 522.992 -49.0476 475.133 -95.5899C427.293 -142.113 386.199 -205.964 346.015 -281.386C329.989 -311.468 309.488 -331.914 286.837 -345.186C264.18 -358.461 239.329 -364.585 214.574 -365.961ZM203.959 -347.575C154.433 -350.327 105.383 -334.067 75.3456 -318.197L74.7143 -319.002C104.833 -334.915 154.052 -351.247 203.827 -348.481C228.722 -347.097 253.779 -340.935 276.654 -327.532C299.534 -314.125 320.187 -293.5 336.301 -263.254C376.471 -187.856 417.499 -124.134 465.201 -77.7455C512.882 -31.376 567.226 -2.33048 634.078 3.74223C643.672 4.61377 653.56 5.35067 663.619 6.10028C690.573 8.1089 718.753 10.2089 745.786 15.2357C782.922 22.1412 818.014 34.5875 844.948 59.9912L844.28 60.5455C817.609 35.3899 782.804 23.0097 745.77 16.1231C718.806 11.1091 690.725 9.0165 663.792 7.00938C653.718 6.25868 643.805 5.51994 634.171 4.64477C566.994 -1.45751 512.378 -30.6624 464.518 -77.2047C416.679 -123.728 375.584 -187.578 335.401 -263.001C319.374 -293.083 298.873 -313.528 276.222 -326.801C253.565 -340.076 228.714 -346.2 203.959 -347.575ZM193.345 -329.19C143.818 -331.942 94.768 -315.682 64.7309 -299.812L64.0995 -300.617C94.2184 -316.53 143.438 -332.861 193.212 -330.096C218.107 -328.712 243.165 -322.55 266.039 -309.147C288.919 -295.74 309.572 -275.115 325.687 -244.869C365.857 -169.471 406.884 -105.749 454.586 -59.3603C502.268 -12.9908 556.611 16.0547 623.463 22.1275C633.057 22.999 642.945 23.7359 653.004 24.4855C679.959 26.4941 708.139 28.5941 735.171 33.6209C772.307 40.5264 807.4 52.9727 834.333 78.3765L833.665 78.9307C806.994 53.7751 772.19 41.3949 735.155 34.5083C708.192 29.4943 680.111 27.4017 653.177 25.3946C643.103 24.6439 633.19 23.9052 623.556 23.03C556.379 16.9277 501.763 -12.2772 453.903 -58.8194C406.064 -105.342 364.969 -169.193 324.786 -244.616C308.759 -274.697 288.258 -295.143 265.607 -308.415C242.951 -321.691 218.1 -327.815 193.345 -329.19ZM182.73 -310.805C133.203 -313.557 84.1532 -297.297 54.1162 -281.427L53.4848 -282.232C83.6037 -298.145 132.823 -314.476 182.597 -311.71C207.493 -310.327 232.55 -304.165 255.424 -290.761C278.304 -277.355 298.957 -256.73 315.072 -226.484C355.242 -151.086 396.27 -87.3637 443.971 -40.9751C491.653 5.39443 545.996 34.44 612.848 40.5127C622.442 41.3842 632.331 42.1211 642.39 42.8707C669.344 44.8794 697.524 46.9793 724.557 52.0061C761.692 58.9116 796.785 71.358 823.718 96.7617L823.05 97.316C796.379 72.1603 761.575 59.7802 724.541 52.8936C697.577 47.8795 669.496 45.787 642.562 43.7798C632.489 43.0291 622.575 42.2904 612.941 41.4152C545.765 35.313 491.148 6.10804 443.289 -40.4342C395.449 -86.9573 354.354 -150.808 314.171 -226.23C298.144 -256.312 277.644 -276.758 254.992 -290.03C232.336 -303.306 207.485 -309.429 182.73 -310.805ZM172.115 -292.42C122.589 -295.172 73.5385 -278.911 43.5015 -263.042L42.8701 -263.846C72.989 -279.759 122.208 -296.091 171.982 -293.325C196.878 -291.942 221.935 -285.779 244.81 -272.376C267.69 -258.97 288.343 -238.345 304.457 -208.098C344.627 -132.701 385.655 -68.9785 433.356 -22.5898C481.038 23.7796 535.382 52.8252 602.233 58.8979C611.828 59.7694 621.716 60.5063 631.775 61.2559C658.729 63.2645 686.909 65.3645 713.942 70.3914C751.078 77.2969 786.17 89.7432 813.104 115.147L812.435 115.701C785.765 90.5456 750.96 78.1654 713.926 71.2788C686.962 66.2648 658.881 64.1722 631.948 62.1651C621.874 61.4144 611.961 60.6756 602.326 59.8004C535.15 53.6982 480.533 24.4933 432.674 -22.049C384.834 -68.572 343.74 -132.423 303.557 -207.845C287.53 -237.927 267.029 -258.373 244.378 -271.645C221.721 -284.92 196.87 -291.044 172.115 -292.42ZM161.501 -274.034C111.974 -276.786 62.9238 -260.526 32.8868 -244.656L32.2554 -245.461C62.3743 -261.374 111.593 -277.706 161.368 -274.94C186.263 -273.557 211.32 -267.394 234.195 -253.991C257.075 -240.585 277.728 -219.959 293.842 -189.713C334.012 -114.315 375.04 -50.5933 422.742 -4.2046C470.423 42.1649 524.767 71.2104 591.619 77.2831C601.213 78.1547 611.101 78.8915 621.16 79.6411C648.114 81.6497 676.294 83.7498 703.327 88.7766C740.463 95.6821 775.555 108.128 802.489 133.532L801.821 134.086C775.15 108.931 740.345 96.5506 703.311 89.664C676.347 84.65 648.267 82.5574 621.333 80.5503C611.259 79.7996 601.346 79.0608 591.712 78.1857C524.535 72.0834 469.919 42.8785 422.059 -3.66376C374.22 -50.1868 333.125 -114.038 292.942 -189.46C276.915 -219.542 256.414 -239.987 233.763 -253.26C211.107 -266.535 186.255 -272.659 161.501 -274.034ZM150.886 -255.649C101.359 -258.401 52.3091 -242.141 22.2721 -226.271L21.6407 -227.076C51.7596 -242.989 100.979 -259.32 150.753 -256.555C175.648 -255.171 200.706 -249.009 223.58 -235.606C246.46 -222.199 267.113 -201.574 283.228 -171.328C323.398 -95.9303 364.426 -32.208 412.127 14.1806C459.809 60.5501 514.152 89.5957 581.004 95.6684C590.598 96.5399 600.486 97.2767 610.545 98.0263C637.499 100.035 665.68 102.135 692.713 107.162C729.848 114.067 764.941 126.514 791.874 151.917L791.206 152.472C764.535 127.316 729.731 114.936 692.696 108.049C665.733 103.035 637.652 100.943 610.718 98.9355C600.645 98.1848 590.731 97.446 581.097 96.5709C513.92 90.4686 459.304 61.2637 411.445 14.7215C363.605 -31.8016 322.51 -95.6524 282.327 -171.075C266.3 -201.157 245.8 -221.602 223.148 -234.875C200.492 -248.15 175.641 -254.274 150.886 -255.649ZM140.271 -237.264C90.7444 -240.016 41.6944 -223.756 11.6573 -207.886L11.026 -208.691C41.1449 -224.604 90.364 -240.935 140.138 -238.169C165.034 -236.786 190.091 -230.624 212.966 -217.22C235.845 -203.814 256.499 -183.189 272.613 -152.943C312.783 -77.545 353.811 -13.8228 401.512 32.5659C449.194 78.9353 503.538 107.981 570.389 114.054C579.983 114.925 589.872 115.662 599.93 116.412C626.885 118.42 655.065 120.52 682.098 125.547C719.233 132.453 754.326 144.899 781.26 170.303L780.591 170.857C753.921 145.701 719.116 133.321 682.082 126.434C655.118 121.42 627.037 119.328 600.104 117.321C590.03 116.57 580.117 115.831 570.482 114.956C503.306 108.854 448.689 79.6489 400.83 33.1067C352.99 -13.4164 311.896 -77.2671 271.712 -152.69C255.686 -182.771 235.185 -203.217 212.534 -216.489C189.877 -229.765 165.026 -235.888 140.271 -237.264ZM129.656 -218.879C80.1297 -221.631 31.0797 -205.37 1.04262 -189.501L0.411236 -190.305C30.5301 -206.218 79.7493 -222.55 129.524 -219.784C154.419 -218.401 179.476 -212.238 202.351 -198.835C225.231 -185.429 245.884 -164.804 261.998 -134.557C302.168 -59.1598 343.196 4.5624 390.898 50.9511C438.579 97.3206 492.923 126.366 559.775 132.439C569.369 133.31 579.257 134.047 589.316 134.797C616.27 136.805 644.45 138.905 671.483 143.932C708.619 150.838 743.711 163.284 770.645 188.688L769.977 189.242C743.306 164.087 708.501 151.706 671.467 144.82C644.503 139.806 616.422 137.713 589.489 135.706C579.415 134.955 569.502 134.217 559.868 133.341C492.691 127.239 438.075 98.0342 390.215 51.4919C342.375 4.96887 301.281 -58.8819 261.098 -134.304C245.071 -164.386 224.57 -184.832 201.919 -198.104C179.262 -211.379 154.411 -217.503 129.656 -218.879Z" fill="#FCF6E8"/>
</svg>
