<svg width="352" height="78" viewBox="0 0 352 78" fill="none" xmlns="http://www.w3.org/2000/svg">
<g opacity="0.1">
<path d="M352 2.64381C352.006 8.29535 351.296 13.9265 349.887 19.4125C349.413 21.261 348.862 23.071 348.234 24.8427C347.467 27.0295 346.577 29.1748 345.569 31.2692C345.061 32.3288 344.524 33.3672 343.958 34.3845C343.967 40.18 342.729 45.9143 340.321 51.2252C335.968 60.7538 328.207 68.4584 318.451 72.9346C312.351 75.7385 305.685 77.2131 298.927 77.2535H66.8263C56.4997 77.2747 46.3514 74.661 37.4133 69.6782L37.2758 69.6033C36.0027 68.8855 34.7615 68.1254 33.5521 67.323C30.8311 65.512 28.2747 63.4815 25.9105 61.2536C22.7105 58.2408 19.8907 54.8747 17.5097 51.2252C11.9176 42.6704 8.95518 32.7645 8.96556 22.6545C3.30232 13.0811 0 1.61305 0 -10.7101C0 -26.258 5.24784 -40.4411 13.8697 -51.1778C15.6672 -53.4209 17.6362 -55.5315 19.7601 -57.4919C21.8558 -59.4319 24.1082 -61.2082 26.4962 -62.8041C28.4068 -64.0823 30.4036 -65.2366 32.4733 -66.2592C33.337 -66.6824 34.2036 -67.0827 35.0852 -67.4541C35.8593 -67.7852 36.6423 -68.0933 37.4342 -68.3841C38.3846 -68.7315 39.3469 -69.0511 40.3211 -69.3429C41.2954 -69.6346 42.2567 -69.8899 43.205 -70.1087C44.5997 -70.437 46.0182 -70.7038 47.4607 -70.9092C48.6561 -71.0791 49.8515 -71.1971 51.0469 -71.2864C51.9973 -71.3555 52.9566 -71.3929 53.9219 -71.4044H54.4449C55.5088 -71.4044 56.5667 -71.3641 57.6157 -71.295C57.7263 -71.5081 57.8458 -71.724 57.9564 -71.9342C58.3748 -72.7029 58.8081 -73.4688 59.2444 -74.2174C59.2435 -74.2241 59.2435 -74.2309 59.2444 -74.2376C59.3191 -74.37 59.3939 -74.4996 59.4716 -74.6263C59.8242 -75.2395 60.1918 -75.8471 60.5684 -76.4488C60.7417 -76.7368 60.912 -77.0074 61.0884 -77.278C61.1257 -77.3453 61.1666 -77.4107 61.2109 -77.4738C61.3902 -77.7618 61.5725 -78.0497 61.7578 -78.3376C62.6802 -79.758 63.6396 -81.1535 64.6357 -82.524L64.8898 -82.8753C65.0452 -83.0884 65.1886 -83.2957 65.3619 -83.5087C65.7744 -84.0644 66.1987 -84.623 66.6261 -85.17C66.9249 -85.5616 67.2238 -85.9503 67.5465 -86.3217C68.3236 -87.2815 69.1205 -88.2412 69.9374 -89.201C70.7542 -90.1607 71.603 -91.108 72.4836 -92.0428C72.6031 -92.1723 72.7227 -92.299 72.8482 -92.4257L74.1243 -93.7674C74.187 -93.8308 74.2408 -93.8884 74.3006 -93.9459C74.453 -94.1043 74.5994 -94.2627 74.7638 -94.4153C75.4482 -95.1149 76.1505 -95.8002 76.8558 -96.4826C80.4452 -99.9269 84.269 -103.137 88.3018 -106.091C88.4602 -106.212 88.6216 -106.327 88.78 -106.442C89.5391 -106.992 90.3101 -107.536 91.0811 -108.071C95.3222 -111.003 99.7554 -113.667 104.353 -116.047C104.67 -116.223 104.993 -116.387 105.318 -116.548C109.44 -118.649 113.68 -120.529 118.017 -122.18C120.381 -123.081 122.798 -123.927 125.231 -124.702C126.851 -125.214 128.477 -125.701 130.123 -126.159C132.697 -126.873 135.289 -127.513 137.899 -128.079C145.589 -129.742 153.411 -130.768 161.281 -131.149C163.672 -131.266 166.09 -131.326 168.535 -131.33C180.33 -131.345 192.08 -129.913 203.5 -127.069C203.618 -126.897 203.78 -126.757 203.97 -126.661C204.159 -126.566 204.371 -126.519 204.585 -126.525H205.589C206.026 -126.409 206.459 -126.294 206.895 -126.173C209.332 -125.498 211.734 -124.76 214.101 -123.959L214.698 -123.752C220.54 -121.75 226.224 -119.345 231.706 -116.554C236.647 -114.044 241.405 -111.212 245.946 -108.077C246.646 -107.594 247.335 -107.106 248.014 -106.615C248.839 -107.123 249.678 -107.611 250.531 -108.077C253.824 -109.884 257.321 -111.321 260.955 -112.359C268.551 -114.524 276.588 -114.827 284.337 -113.24C294.274 -111.21 303.269 -106.171 310.534 -99.0048C313.492 -96.0726 316.125 -92.8516 318.391 -89.3939C318.555 -89.1463 318.72 -88.8958 318.878 -88.6424C320.825 -85.5821 322.499 -82.3678 323.881 -79.0344C323.932 -78.9106 323.983 -78.7954 324.027 -78.6745C325.303 -75.5531 326.332 -72.3432 327.106 -69.0722C327.141 -68.9052 327.183 -68.7411 327.219 -68.5741C327.942 -65.4086 328.434 -62.198 328.69 -58.9661C328.69 -58.8509 328.689 -58.7329 328.713 -58.612C328.839 -56.9401 328.903 -55.2509 328.905 -53.5445C328.905 -52.0185 328.851 -50.504 328.752 -49.0011C328.752 -48.8369 328.728 -48.6671 328.713 -48.4972C328.686 -48.0624 328.648 -47.6334 328.609 -47.1958C330.891 -45.422 333.027 -43.4804 334.998 -41.3884C335.869 -40.4728 336.712 -39.5226 337.527 -38.5379C340.009 -35.5409 342.19 -32.3238 344.042 -28.9299C349.095 -19.7394 352 -8.92783 352 2.64381Z" fill="white"/>
<path d="M352 2.64381C352.006 8.29535 351.296 13.9265 349.887 19.4125C349.413 21.261 348.862 23.071 348.234 24.8427C347.467 27.0295 346.577 29.1748 345.569 31.2692C345.061 32.3288 344.524 33.3672 343.958 34.3845C343.967 40.18 342.729 45.9143 340.321 51.2252C335.968 60.7538 328.207 68.4584 318.451 72.9346C312.351 75.7385 305.685 77.2131 298.927 77.2535H66.8263C56.4997 77.2747 46.3514 74.661 37.4133 69.6782L37.2758 69.6033C36.0027 68.8855 34.7615 68.1254 33.5521 67.323C30.8311 65.512 28.2747 63.4815 25.9105 61.2536C22.7105 58.2408 19.8907 54.8747 17.5097 51.2252C11.9176 42.6704 8.95518 32.7645 8.96556 22.6545C3.30232 13.0811 0 1.61305 0 -10.7101C0 -26.258 5.24784 -40.4411 13.8697 -51.1778C15.6672 -53.4209 17.6362 -55.5315 19.7601 -57.4919C21.8558 -59.4319 24.1082 -61.2082 26.4962 -62.8041C28.4068 -64.0823 30.4036 -65.2366 32.4733 -66.2592C33.337 -66.6824 34.2036 -67.0827 35.0852 -67.4541C35.8593 -67.7852 36.6423 -68.0933 37.4342 -68.3841C38.3846 -68.7315 39.3469 -69.0511 40.3211 -69.3429C41.2954 -69.6346 42.2567 -69.8899 43.205 -70.1087C44.5997 -70.437 46.0182 -70.7038 47.4607 -70.9092C48.6561 -71.0791 49.8515 -71.1971 51.0469 -71.2864C51.9973 -71.3555 52.9566 -71.3929 53.9219 -71.4044H54.4449C55.5088 -71.4044 56.5667 -71.3641 57.6157 -71.295C57.7263 -71.5081 57.8458 -71.724 57.9564 -71.9342C58.3748 -72.7029 58.8081 -73.4688 59.2444 -74.2174C59.2435 -74.2241 59.2435 -74.2309 59.2444 -74.2376C59.3191 -74.37 59.3939 -74.4996 59.4716 -74.6263C59.8242 -75.2395 60.1918 -75.8471 60.5684 -76.4488C60.7417 -76.7368 60.912 -77.0074 61.0884 -77.278C61.1257 -77.3453 61.1666 -77.4107 61.2109 -77.4738C61.3902 -77.7618 61.5725 -78.0497 61.7578 -78.3376C62.6802 -79.758 63.6396 -81.1535 64.6357 -82.524L64.8898 -82.8753C65.0452 -83.0884 65.1886 -83.2957 65.3619 -83.5087C65.7744 -84.0644 66.1987 -84.623 66.6261 -85.17C66.9249 -85.5616 67.2238 -85.9503 67.5465 -86.3217C68.3236 -87.2815 69.1205 -88.2412 69.9374 -89.201C70.7542 -90.1607 71.603 -91.108 72.4836 -92.0428C72.6031 -92.1723 72.7227 -92.299 72.8482 -92.4257L74.1243 -93.7674C74.187 -93.8308 74.2408 -93.8884 74.3006 -93.9459C74.453 -94.1043 74.5994 -94.2627 74.7638 -94.4153C75.4482 -95.1149 76.1505 -95.8002 76.8558 -96.4826C80.4452 -99.9269 84.269 -103.137 88.3018 -106.091C88.4602 -106.212 88.6216 -106.327 88.78 -106.442C89.5391 -106.992 90.3101 -107.536 91.0811 -108.071C95.3222 -111.003 99.7554 -113.667 104.353 -116.047C104.67 -116.223 104.993 -116.387 105.318 -116.548C109.44 -118.649 113.68 -120.529 118.017 -122.18C120.381 -123.081 122.798 -123.927 125.231 -124.702C126.851 -125.214 128.477 -125.701 130.123 -126.159C132.697 -126.873 135.289 -127.513 137.899 -128.079C145.589 -129.742 153.411 -130.768 161.281 -131.149C163.672 -131.266 166.09 -131.326 168.535 -131.33C180.33 -131.345 192.08 -129.913 203.5 -127.069C203.618 -126.897 203.78 -126.757 203.97 -126.661C204.159 -126.566 204.371 -126.519 204.585 -126.525H205.589C206.026 -126.409 206.459 -126.294 206.895 -126.173C209.332 -125.498 211.734 -124.76 214.101 -123.959L214.698 -123.752C220.54 -121.75 226.224 -119.345 231.706 -116.554C236.647 -114.044 241.405 -111.212 245.946 -108.077C246.646 -107.594 247.335 -107.106 248.014 -106.615C248.839 -107.123 249.678 -107.611 250.531 -108.077C253.824 -109.884 257.321 -111.321 260.955 -112.359C268.551 -114.524 276.588 -114.827 284.337 -113.24C294.274 -111.21 303.269 -106.171 310.534 -99.0048C313.492 -96.0726 316.125 -92.8516 318.391 -89.3939C318.555 -89.1463 318.72 -88.8958 318.878 -88.6424C320.825 -85.5821 322.499 -82.3678 323.881 -79.0344C323.932 -78.9106 323.983 -78.7954 324.027 -78.6745C325.303 -75.5531 326.332 -72.3432 327.106 -69.0722C327.141 -68.9052 327.183 -68.7411 327.219 -68.5741C327.942 -65.4086 328.434 -62.198 328.69 -58.9661C328.69 -58.8509 328.689 -58.7329 328.713 -58.612C328.839 -56.9401 328.903 -55.2509 328.905 -53.5445C328.905 -52.0185 328.851 -50.504 328.752 -49.0011C328.752 -48.8369 328.728 -48.6671 328.713 -48.4972C328.686 -48.0624 328.648 -47.6334 328.609 -47.1958C330.891 -45.422 333.027 -43.4804 334.998 -41.3884C335.869 -40.4728 336.712 -39.5226 337.527 -38.5379C340.009 -35.5409 342.19 -32.3238 344.042 -28.9299C349.095 -19.7394 352 -8.92783 352 2.64381Z" fill="url(#paint0_linear_8651_20737)" fill-opacity="0.8"/>
<path d="M352 2.64381C352.006 8.29535 351.296 13.9265 349.887 19.4125C349.413 21.261 348.862 23.071 348.234 24.8427C347.467 27.0295 346.577 29.1748 345.569 31.2692C345.061 32.3288 344.524 33.3672 343.958 34.3845C343.967 40.18 342.729 45.9143 340.321 51.2252C335.968 60.7538 328.207 68.4584 318.451 72.9346C312.351 75.7385 305.685 77.2131 298.927 77.2535H66.8263C56.4997 77.2747 46.3514 74.661 37.4133 69.6782L37.2758 69.6033C36.0027 68.8855 34.7615 68.1254 33.5521 67.323C30.8311 65.512 28.2747 63.4815 25.9105 61.2536C22.7105 58.2408 19.8907 54.8747 17.5097 51.2252C11.9176 42.6704 8.95518 32.7645 8.96556 22.6545C3.30232 13.0811 0 1.61305 0 -10.7101C0 -26.258 5.24784 -40.4411 13.8697 -51.1778C15.6672 -53.4209 17.6362 -55.5315 19.7601 -57.4919C21.8558 -59.4319 24.1082 -61.2082 26.4962 -62.8041C28.4068 -64.0823 30.4036 -65.2366 32.4733 -66.2592C33.337 -66.6824 34.2036 -67.0827 35.0852 -67.4541C35.8593 -67.7852 36.6423 -68.0933 37.4342 -68.3841C38.3846 -68.7315 39.3469 -69.0511 40.3211 -69.3429C41.2954 -69.6346 42.2567 -69.8899 43.205 -70.1087C44.5997 -70.437 46.0182 -70.7038 47.4607 -70.9092C48.6561 -71.0791 49.8515 -71.1971 51.0469 -71.2864C51.9973 -71.3555 52.9566 -71.3929 53.9219 -71.4044H54.4449C55.5088 -71.4044 56.5667 -71.3641 57.6157 -71.295C57.7263 -71.5081 57.8458 -71.724 57.9564 -71.9342C58.3748 -72.7029 58.8081 -73.4688 59.2444 -74.2174C59.2435 -74.2241 59.2435 -74.2309 59.2444 -74.2376C59.3191 -74.37 59.3939 -74.4996 59.4716 -74.6263C59.8242 -75.2395 60.1918 -75.8471 60.5684 -76.4488C60.7417 -76.7368 60.912 -77.0074 61.0884 -77.278C61.1257 -77.3453 61.1666 -77.4107 61.2109 -77.4738C61.3902 -77.7618 61.5725 -78.0497 61.7578 -78.3376C62.6802 -79.758 63.6396 -81.1535 64.6357 -82.524L64.8898 -82.8753C65.0452 -83.0884 65.1886 -83.2957 65.3619 -83.5087C65.7744 -84.0644 66.1987 -84.623 66.6261 -85.17C66.9249 -85.5616 67.2238 -85.9503 67.5465 -86.3217C68.3236 -87.2815 69.1205 -88.2412 69.9374 -89.201C70.7542 -90.1607 71.603 -91.108 72.4836 -92.0428C72.6031 -92.1723 72.7227 -92.299 72.8482 -92.4257L74.1243 -93.7674C74.187 -93.8308 74.2408 -93.8884 74.3006 -93.9459C74.453 -94.1043 74.5994 -94.2627 74.7638 -94.4153C75.4482 -95.1149 76.1505 -95.8002 76.8558 -96.4826C80.4452 -99.9269 84.269 -103.137 88.3018 -106.091C88.4602 -106.212 88.6216 -106.327 88.78 -106.442C89.5391 -106.992 90.3101 -107.536 91.0811 -108.071C95.3222 -111.003 99.7554 -113.667 104.353 -116.047C104.67 -116.223 104.993 -116.387 105.318 -116.548C109.44 -118.649 113.68 -120.529 118.017 -122.18C120.381 -123.081 122.798 -123.927 125.231 -124.702C126.851 -125.214 128.477 -125.701 130.123 -126.159C132.697 -126.873 135.289 -127.513 137.899 -128.079C145.589 -129.742 153.411 -130.768 161.281 -131.149C163.672 -131.266 166.09 -131.326 168.535 -131.33C180.33 -131.345 192.08 -129.913 203.5 -127.069C203.618 -126.897 203.78 -126.757 203.97 -126.661C204.159 -126.566 204.371 -126.519 204.585 -126.525H205.589C206.026 -126.409 206.459 -126.294 206.895 -126.173C209.332 -125.498 211.734 -124.76 214.101 -123.959L214.698 -123.752C220.54 -121.75 226.224 -119.345 231.706 -116.554C236.647 -114.044 241.405 -111.212 245.946 -108.077C246.646 -107.594 247.335 -107.106 248.014 -106.615C248.839 -107.123 249.678 -107.611 250.531 -108.077C253.824 -109.884 257.321 -111.321 260.955 -112.359C268.551 -114.524 276.588 -114.827 284.337 -113.24C294.274 -111.21 303.269 -106.171 310.534 -99.0048C313.492 -96.0726 316.125 -92.8516 318.391 -89.3939C318.555 -89.1463 318.72 -88.8958 318.878 -88.6424C320.825 -85.5821 322.499 -82.3678 323.881 -79.0344C323.932 -78.9106 323.983 -78.7954 324.027 -78.6745C325.303 -75.5531 326.332 -72.3432 327.106 -69.0722C327.141 -68.9052 327.183 -68.7411 327.219 -68.5741C327.942 -65.4086 328.434 -62.198 328.69 -58.9661C328.69 -58.8509 328.689 -58.7329 328.713 -58.612C328.839 -56.9401 328.903 -55.2509 328.905 -53.5445C328.905 -52.0185 328.851 -50.504 328.752 -49.0011C328.752 -48.8369 328.728 -48.6671 328.713 -48.4972C328.686 -48.0624 328.648 -47.6334 328.609 -47.1958C330.891 -45.422 333.027 -43.4804 334.998 -41.3884C335.869 -40.4728 336.712 -39.5226 337.527 -38.5379C340.009 -35.5409 342.19 -32.3238 344.042 -28.9299C349.095 -19.7394 352 -8.92783 352 2.64381Z" fill="url(#paint1_linear_8651_20737)" fill-opacity="0.8"/>
</g>
<defs>
<linearGradient id="paint0_linear_8651_20737" x1="352" y1="77.2536" x2="169.043" y2="-231.499" gradientUnits="userSpaceOnUse">
<stop stop-color="#252117"/>
<stop offset="1" stop-opacity="0"/>
</linearGradient>
<linearGradient id="paint1_linear_8651_20737" x1="0" y1="-131.33" x2="177.831" y2="174.599" gradientUnits="userSpaceOnUse">
<stop offset="0.484375" stop-color="#4BAA73"/>
<stop offset="1" stop-opacity="0"/>
</linearGradient>
</defs>
</svg>
