<svg width="383" height="294" viewBox="0 0 383 294" fill="none" xmlns="http://www.w3.org/2000/svg">
<g opacity="0.1">
<path d="M383 188.917C383.008 196.871 382.011 204.797 380.029 212.518C379.362 215.119 378.587 217.667 377.705 220.16C376.625 223.238 375.373 226.257 373.956 229.205C373.241 230.696 372.486 232.158 371.691 233.589C371.704 241.746 369.962 249.816 366.576 257.291C360.455 270.702 349.541 281.545 335.821 287.845C327.244 291.791 317.87 293.867 308.366 293.923H-18.0255C-32.5473 293.953 -46.8183 290.275 -59.3876 283.262L-59.5809 283.157C-61.3712 282.146 -63.1167 281.076 -64.8173 279.947C-68.6437 277.398 -72.2387 274.541 -75.5634 271.405C-80.0634 267.165 -84.0286 262.427 -87.3769 257.291C-95.2409 245.251 -99.4068 231.309 -99.3922 217.08C-107.356 203.607 -112 187.466 -112 170.123C-112 148.241 -104.62 128.279 -92.4957 113.168C-89.968 110.011 -87.1991 107.041 -84.2124 104.282C-81.2653 101.551 -78.0978 99.0513 -74.7397 96.8053C-72.053 95.0063 -69.245 93.3818 -66.3345 91.9426C-65.1199 91.3469 -63.9012 90.7836 -62.6614 90.2609C-61.5729 89.7949 -60.4718 89.3613 -59.3581 88.952C-58.0217 88.463 -56.6685 88.0132 -55.2984 87.6026C-53.9284 87.192 -52.5765 86.8327 -51.2429 86.5247C-49.2817 86.0627 -47.2868 85.6872 -45.2584 85.3982C-43.5774 85.1591 -41.8963 84.9929 -40.2153 84.8673C-38.8788 84.7701 -37.5298 84.7174 -36.1724 84.7012H-35.4369C-33.9408 84.7012 -32.453 84.7579 -30.9779 84.8552C-30.8224 84.5553 -30.6543 84.2514 -30.4988 83.9556C-29.9105 82.8736 -29.3011 81.7957 -28.6875 80.7421C-28.6889 80.7327 -28.6889 80.7232 -28.6875 80.7137C-28.5825 80.5273 -28.4774 80.345 -28.3681 80.1667C-27.8722 79.3036 -27.3553 78.4485 -26.8258 77.6016C-26.582 77.1964 -26.3425 76.8155 -26.0945 76.4346C-26.042 76.3399 -25.9845 76.2479 -25.9222 76.159C-25.67 75.7538 -25.4137 75.3486 -25.1531 74.9433C-23.8559 72.9442 -22.5069 70.9802 -21.106 69.0513L-20.7488 68.557C-20.5303 68.2571 -20.3285 67.9653 -20.0848 67.6655C-19.5048 66.8834 -18.908 66.0973 -18.3071 65.3273C-17.8868 64.7762 -17.4666 64.2292 -17.0127 63.7064C-15.92 62.3557 -14.7993 61.0049 -13.6506 59.6542C-12.5019 58.3034 -11.3083 56.9702 -10.07 55.6546C-9.90186 55.4722 -9.73375 55.2939 -9.55724 55.1156L-7.76273 53.2273C-7.67448 53.1381 -7.59883 53.0571 -7.51478 52.976C-7.30045 52.7532 -7.09453 52.5303 -6.86338 52.3155C-5.90099 51.3308 -4.91337 50.3664 -3.92155 49.406C1.12598 44.5585 6.50326 40.041 12.1744 35.8836C12.3972 35.7134 12.6241 35.5513 12.8469 35.3892C13.9143 34.6152 14.9986 33.8494 16.0829 33.0956C22.0468 28.9702 28.2811 25.2208 34.7466 21.8709C35.1921 21.6237 35.646 21.3927 36.1041 21.1658C41.9006 18.2089 47.8619 15.5628 53.961 13.2396C57.2852 11.9712 60.6851 10.7799 64.106 9.68979C66.3839 8.96849 68.6701 8.28366 70.9857 7.63935C74.6056 6.63439 78.2506 5.73344 81.9209 4.93649C92.7339 2.59706 103.734 1.15191 114.802 0.616785C118.164 0.451993 121.564 0.366896 125.002 0.361493C141.59 0.340319 158.113 2.35564 174.172 6.35884C174.338 6.60079 174.565 6.79804 174.832 6.93202C175.099 7.06601 175.397 7.13232 175.698 7.12471H177.11C177.724 7.2868 178.333 7.44889 178.947 7.61909C182.373 8.57002 185.751 9.60875 189.079 10.7353L189.919 11.027C198.135 13.8437 206.128 17.2295 213.837 21.1577C220.785 24.6903 227.476 28.6761 233.862 33.0875C234.845 33.7683 235.815 34.4545 236.77 35.1461C237.93 34.4302 239.11 33.744 240.309 33.0875C244.94 30.5445 249.858 28.5227 254.967 27.0618C265.65 24.0138 276.952 23.5876 287.849 25.8218C301.822 28.6787 314.472 35.7701 324.689 45.8562C328.849 49.983 332.551 54.5162 335.737 59.3827C335.969 59.7312 336.2 60.0837 336.422 60.4403C339.161 64.7474 341.514 69.2712 343.458 73.9627C343.529 74.1369 343.6 74.299 343.664 74.4692C345.458 78.8623 346.905 83.38 347.992 87.9835C348.043 88.2185 348.101 88.4495 348.152 88.6845C349.169 93.1397 349.86 97.6583 350.22 102.207C350.22 102.369 350.22 102.535 350.253 102.705C350.43 105.058 350.519 107.436 350.522 109.837C350.522 111.985 350.447 114.117 350.308 116.232C350.308 116.463 350.274 116.702 350.253 116.941C350.215 117.553 350.161 118.157 350.106 118.773C353.316 121.269 356.32 124.002 359.091 126.946C360.316 128.235 361.501 129.572 362.647 130.958C366.137 135.176 369.205 139.704 371.808 144.48C378.915 157.415 383 172.631 383 188.917Z" fill="white"/>
<path d="M383 188.917C383.008 196.871 382.011 204.797 380.029 212.518C379.362 215.119 378.587 217.667 377.705 220.16C376.625 223.238 375.373 226.257 373.956 229.205C373.241 230.696 372.486 232.158 371.691 233.589C371.704 241.746 369.962 249.816 366.576 257.291C360.455 270.702 349.541 281.545 335.821 287.845C327.244 291.791 317.87 293.867 308.366 293.923H-18.0255C-32.5473 293.953 -46.8183 290.275 -59.3876 283.262L-59.5809 283.157C-61.3712 282.146 -63.1167 281.076 -64.8173 279.947C-68.6437 277.398 -72.2387 274.541 -75.5634 271.405C-80.0634 267.165 -84.0286 262.427 -87.3769 257.291C-95.2409 245.251 -99.4068 231.309 -99.3922 217.08C-107.356 203.607 -112 187.466 -112 170.123C-112 148.241 -104.62 128.279 -92.4957 113.168C-89.968 110.011 -87.1991 107.041 -84.2124 104.282C-81.2653 101.551 -78.0978 99.0513 -74.7397 96.8053C-72.053 95.0063 -69.245 93.3818 -66.3345 91.9426C-65.1199 91.3469 -63.9012 90.7836 -62.6614 90.2609C-61.5729 89.7949 -60.4718 89.3613 -59.3581 88.952C-58.0217 88.463 -56.6685 88.0132 -55.2984 87.6026C-53.9284 87.192 -52.5765 86.8327 -51.2429 86.5247C-49.2817 86.0627 -47.2868 85.6872 -45.2584 85.3982C-43.5774 85.1591 -41.8963 84.9929 -40.2153 84.8673C-38.8788 84.7701 -37.5298 84.7174 -36.1724 84.7012H-35.4369C-33.9408 84.7012 -32.453 84.7579 -30.9779 84.8552C-30.8224 84.5553 -30.6543 84.2514 -30.4988 83.9556C-29.9105 82.8736 -29.3011 81.7957 -28.6875 80.7421C-28.6889 80.7327 -28.6889 80.7232 -28.6875 80.7137C-28.5825 80.5273 -28.4774 80.345 -28.3681 80.1667C-27.8722 79.3036 -27.3553 78.4485 -26.8258 77.6016C-26.582 77.1964 -26.3425 76.8155 -26.0945 76.4346C-26.042 76.3399 -25.9845 76.2479 -25.9222 76.159C-25.67 75.7538 -25.4137 75.3486 -25.1531 74.9433C-23.8559 72.9442 -22.5069 70.9802 -21.106 69.0513L-20.7488 68.557C-20.5303 68.2571 -20.3285 67.9653 -20.0848 67.6655C-19.5048 66.8834 -18.908 66.0973 -18.3071 65.3273C-17.8868 64.7762 -17.4666 64.2292 -17.0127 63.7064C-15.92 62.3557 -14.7993 61.0049 -13.6506 59.6542C-12.5019 58.3034 -11.3083 56.9702 -10.07 55.6546C-9.90186 55.4722 -9.73375 55.2939 -9.55724 55.1156L-7.76273 53.2273C-7.67448 53.1381 -7.59883 53.0571 -7.51478 52.976C-7.30045 52.7532 -7.09453 52.5303 -6.86338 52.3155C-5.90099 51.3308 -4.91337 50.3664 -3.92155 49.406C1.12598 44.5585 6.50326 40.041 12.1744 35.8836C12.3972 35.7134 12.6241 35.5513 12.8469 35.3892C13.9143 34.6152 14.9986 33.8494 16.0829 33.0956C22.0468 28.9702 28.2811 25.2208 34.7466 21.8709C35.1921 21.6237 35.646 21.3927 36.1041 21.1658C41.9006 18.2089 47.8619 15.5628 53.961 13.2396C57.2852 11.9712 60.6851 10.7799 64.106 9.68979C66.3839 8.96849 68.6701 8.28366 70.9857 7.63935C74.6056 6.63439 78.2506 5.73344 81.9209 4.93649C92.7339 2.59706 103.734 1.15191 114.802 0.616785C118.164 0.451993 121.564 0.366896 125.002 0.361493C141.59 0.340319 158.113 2.35564 174.172 6.35884C174.338 6.60079 174.565 6.79804 174.832 6.93202C175.099 7.06601 175.397 7.13232 175.698 7.12471H177.11C177.724 7.2868 178.333 7.44889 178.947 7.61909C182.373 8.57002 185.751 9.60875 189.079 10.7353L189.919 11.027C198.135 13.8437 206.128 17.2295 213.837 21.1577C220.785 24.6903 227.476 28.6761 233.862 33.0875C234.845 33.7683 235.815 34.4545 236.77 35.1461C237.93 34.4302 239.11 33.744 240.309 33.0875C244.94 30.5445 249.858 28.5227 254.967 27.0618C265.65 24.0138 276.952 23.5876 287.849 25.8218C301.822 28.6787 314.472 35.7701 324.689 45.8562C328.849 49.983 332.551 54.5162 335.737 59.3827C335.969 59.7312 336.2 60.0837 336.422 60.4403C339.161 64.7474 341.514 69.2712 343.458 73.9627C343.529 74.1369 343.6 74.299 343.664 74.4692C345.458 78.8623 346.905 83.38 347.992 87.9835C348.043 88.2185 348.101 88.4495 348.152 88.6845C349.169 93.1397 349.86 97.6583 350.22 102.207C350.22 102.369 350.22 102.535 350.253 102.705C350.43 105.058 350.519 107.436 350.522 109.837C350.522 111.985 350.447 114.117 350.308 116.232C350.308 116.463 350.274 116.702 350.253 116.941C350.215 117.553 350.161 118.157 350.106 118.773C353.316 121.269 356.32 124.002 359.091 126.946C360.316 128.235 361.501 129.572 362.647 130.958C366.137 135.176 369.205 139.704 371.808 144.48C378.915 157.415 383 172.631 383 188.917Z" fill="url(#paint0_linear_8651_20734)" fill-opacity="0.8"/>
<path d="M383 188.917C383.008 196.871 382.011 204.797 380.029 212.518C379.362 215.119 378.587 217.667 377.705 220.16C376.625 223.238 375.373 226.257 373.956 229.205C373.241 230.696 372.486 232.158 371.691 233.589C371.704 241.746 369.962 249.816 366.576 257.291C360.455 270.702 349.541 281.545 335.821 287.845C327.244 291.791 317.87 293.867 308.366 293.923H-18.0255C-32.5473 293.953 -46.8183 290.275 -59.3876 283.262L-59.5809 283.157C-61.3712 282.146 -63.1167 281.076 -64.8173 279.947C-68.6437 277.398 -72.2387 274.541 -75.5634 271.405C-80.0634 267.165 -84.0286 262.427 -87.3769 257.291C-95.2409 245.251 -99.4068 231.309 -99.3922 217.08C-107.356 203.607 -112 187.466 -112 170.123C-112 148.241 -104.62 128.279 -92.4957 113.168C-89.968 110.011 -87.1991 107.041 -84.2124 104.282C-81.2653 101.551 -78.0978 99.0513 -74.7397 96.8053C-72.053 95.0063 -69.245 93.3818 -66.3345 91.9426C-65.1199 91.3469 -63.9012 90.7836 -62.6614 90.2609C-61.5729 89.7949 -60.4718 89.3613 -59.3581 88.952C-58.0217 88.463 -56.6685 88.0132 -55.2984 87.6026C-53.9284 87.192 -52.5765 86.8327 -51.2429 86.5247C-49.2817 86.0627 -47.2868 85.6872 -45.2584 85.3982C-43.5774 85.1591 -41.8963 84.9929 -40.2153 84.8673C-38.8788 84.7701 -37.5298 84.7174 -36.1724 84.7012H-35.4369C-33.9408 84.7012 -32.453 84.7579 -30.9779 84.8552C-30.8224 84.5553 -30.6543 84.2514 -30.4988 83.9556C-29.9105 82.8736 -29.3011 81.7957 -28.6875 80.7421C-28.6889 80.7327 -28.6889 80.7232 -28.6875 80.7137C-28.5825 80.5273 -28.4774 80.345 -28.3681 80.1667C-27.8722 79.3036 -27.3553 78.4485 -26.8258 77.6016C-26.582 77.1964 -26.3425 76.8155 -26.0945 76.4346C-26.042 76.3399 -25.9845 76.2479 -25.9222 76.159C-25.67 75.7538 -25.4137 75.3486 -25.1531 74.9433C-23.8559 72.9442 -22.5069 70.9802 -21.106 69.0513L-20.7488 68.557C-20.5303 68.2571 -20.3285 67.9653 -20.0848 67.6655C-19.5048 66.8834 -18.908 66.0973 -18.3071 65.3273C-17.8868 64.7762 -17.4666 64.2292 -17.0127 63.7064C-15.92 62.3557 -14.7993 61.0049 -13.6506 59.6542C-12.5019 58.3034 -11.3083 56.9702 -10.07 55.6546C-9.90186 55.4722 -9.73375 55.2939 -9.55724 55.1156L-7.76273 53.2273C-7.67448 53.1381 -7.59883 53.0571 -7.51478 52.976C-7.30045 52.7532 -7.09453 52.5303 -6.86338 52.3155C-5.90099 51.3308 -4.91337 50.3664 -3.92155 49.406C1.12598 44.5585 6.50326 40.041 12.1744 35.8836C12.3972 35.7134 12.6241 35.5513 12.8469 35.3892C13.9143 34.6152 14.9986 33.8494 16.0829 33.0956C22.0468 28.9702 28.2811 25.2208 34.7466 21.8709C35.1921 21.6237 35.646 21.3927 36.1041 21.1658C41.9006 18.2089 47.8619 15.5628 53.961 13.2396C57.2852 11.9712 60.6851 10.7799 64.106 9.68979C66.3839 8.96849 68.6701 8.28366 70.9857 7.63935C74.6056 6.63439 78.2506 5.73344 81.9209 4.93649C92.7339 2.59706 103.734 1.15191 114.802 0.616785C118.164 0.451993 121.564 0.366896 125.002 0.361493C141.59 0.340319 158.113 2.35564 174.172 6.35884C174.338 6.60079 174.565 6.79804 174.832 6.93202C175.099 7.06601 175.397 7.13232 175.698 7.12471H177.11C177.724 7.2868 178.333 7.44889 178.947 7.61909C182.373 8.57002 185.751 9.60875 189.079 10.7353L189.919 11.027C198.135 13.8437 206.128 17.2295 213.837 21.1577C220.785 24.6903 227.476 28.6761 233.862 33.0875C234.845 33.7683 235.815 34.4545 236.77 35.1461C237.93 34.4302 239.11 33.744 240.309 33.0875C244.94 30.5445 249.858 28.5227 254.967 27.0618C265.65 24.0138 276.952 23.5876 287.849 25.8218C301.822 28.6787 314.472 35.7701 324.689 45.8562C328.849 49.983 332.551 54.5162 335.737 59.3827C335.969 59.7312 336.2 60.0837 336.422 60.4403C339.161 64.7474 341.514 69.2712 343.458 73.9627C343.529 74.1369 343.6 74.299 343.664 74.4692C345.458 78.8623 346.905 83.38 347.992 87.9835C348.043 88.2185 348.101 88.4495 348.152 88.6845C349.169 93.1397 349.86 97.6583 350.22 102.207C350.22 102.369 350.22 102.535 350.253 102.705C350.43 105.058 350.519 107.436 350.522 109.837C350.522 111.985 350.447 114.117 350.308 116.232C350.308 116.463 350.274 116.702 350.253 116.941C350.215 117.553 350.161 118.157 350.106 118.773C353.316 121.269 356.32 124.002 359.091 126.946C360.316 128.235 361.501 129.572 362.647 130.958C366.137 135.176 369.205 139.704 371.808 144.48C378.915 157.415 383 172.631 383 188.917Z" fill="url(#paint1_linear_8651_20734)" fill-opacity="0.8"/>
</g>
<defs>
<linearGradient id="paint0_linear_8651_20734" x1="383" y1="293.924" x2="125.403" y2="-140.432" gradientUnits="userSpaceOnUse">
<stop stop-color="#252117"/>
<stop offset="1" stop-opacity="0"/>
</linearGradient>
<linearGradient id="paint1_linear_8651_20734" x1="-112" y1="0.361328" x2="138.383" y2="430.749" gradientUnits="userSpaceOnUse">
<stop offset="0.484375" stop-color="#4BAA73"/>
<stop offset="1" stop-opacity="0"/>
</linearGradient>
</defs>
</svg>
