<svg width="122" height="294" viewBox="0 0 122 294" fill="none" xmlns="http://www.w3.org/2000/svg">
<g opacity="0.1">
<path d="M495 188.917C495.008 196.871 494.011 204.797 492.029 212.518C491.362 215.119 490.587 217.667 489.705 220.16C488.625 223.238 487.373 226.257 485.956 229.205C485.241 230.696 484.486 232.158 483.691 233.589C483.704 241.746 481.962 249.816 478.576 257.291C472.455 270.702 461.541 281.545 447.821 287.845C439.244 291.791 429.87 293.867 420.366 293.923H93.9745C79.4527 293.953 65.1817 290.275 52.6124 283.262L52.4191 283.157C50.6288 282.146 48.8833 281.076 47.1827 279.947C43.3563 277.398 39.7613 274.541 36.4366 271.405C31.9366 267.165 27.9714 262.427 24.6231 257.291C16.7591 245.251 12.5932 231.309 12.6078 217.08C4.64388 203.607 0 187.466 0 170.123C0 148.241 7.37978 128.279 19.5043 113.168C22.032 110.011 24.8009 107.041 27.7876 104.282C30.7347 101.551 33.9022 99.0513 37.2603 96.8053C39.947 95.0063 42.755 93.3818 45.6655 91.9426C46.8801 91.3469 48.0988 90.7836 49.3386 90.2609C50.4271 89.7949 51.5282 89.3613 52.6419 88.952C53.9783 88.463 55.3315 88.0132 56.7016 87.6026C58.0716 87.192 59.4235 86.8327 60.7571 86.5247C62.7183 86.0627 64.7132 85.6872 66.7416 85.3982C68.4226 85.1591 70.1037 84.9929 71.7847 84.8673C73.1212 84.7701 74.4702 84.7174 75.8276 84.7012H76.5631C78.0592 84.7012 79.547 84.7579 81.0221 84.8552C81.1776 84.5553 81.3457 84.2514 81.5012 83.9556C82.0895 82.8736 82.6989 81.7957 83.3125 80.7421C83.3111 80.7327 83.3111 80.7232 83.3125 80.7137C83.4175 80.5273 83.5226 80.345 83.6319 80.1667C84.1278 79.3036 84.6447 78.4485 85.1742 77.6016C85.418 77.1964 85.6575 76.8155 85.9055 76.4346C85.958 76.3399 86.0155 76.2479 86.0778 76.159C86.33 75.7538 86.5863 75.3486 86.8469 74.9433C88.1441 72.9442 89.4931 70.9802 90.894 69.0513L91.2512 68.557C91.4697 68.2571 91.6715 67.9653 91.9152 67.6655C92.4952 66.8834 93.092 66.0973 93.6929 65.3273C94.1132 64.7762 94.5334 64.2292 94.9873 63.7064C96.08 62.3557 97.2007 61.0049 98.3494 59.6542C99.4981 58.3034 100.692 56.9702 101.93 55.6546C102.098 55.4722 102.266 55.2939 102.443 55.1156L104.237 53.2273C104.326 53.1381 104.401 53.0571 104.485 52.976C104.7 52.7532 104.905 52.5303 105.137 52.3155C106.099 51.3308 107.087 50.3664 108.078 49.406C113.126 44.5585 118.503 40.041 124.174 35.8836C124.397 35.7134 124.624 35.5513 124.847 35.3892C125.914 34.6152 126.999 33.8494 128.083 33.0956C134.047 28.9702 140.281 25.2208 146.747 21.8709C147.192 21.6237 147.646 21.3927 148.104 21.1658C153.901 18.2089 159.862 15.5628 165.961 13.2396C169.285 11.9712 172.685 10.7799 176.106 9.68979C178.384 8.96849 180.67 8.28366 182.986 7.63935C186.606 6.63439 190.251 5.73344 193.921 4.93649C204.734 2.59706 215.734 1.15191 226.802 0.616785C230.164 0.451993 233.564 0.366896 237.002 0.361493C253.59 0.340319 270.113 2.35564 286.172 6.35884C286.338 6.60079 286.565 6.79804 286.832 6.93202C287.099 7.06601 287.397 7.13232 287.698 7.12471H289.11C289.724 7.2868 290.333 7.44889 290.947 7.61909C294.373 8.57002 297.751 9.60875 301.079 10.7353L301.919 11.027C310.135 13.8437 318.128 17.2295 325.837 21.1577C332.785 24.6903 339.476 28.6761 345.862 33.0875C346.845 33.7683 347.815 34.4545 348.77 35.1461C349.93 34.4302 351.11 33.744 352.309 33.0875C356.94 30.5445 361.858 28.5227 366.967 27.0618C377.65 24.0138 388.952 23.5876 399.849 25.8218C413.822 28.6787 426.472 35.7701 436.689 45.8562C440.849 49.983 444.551 54.5162 447.737 59.3827C447.969 59.7312 448.2 60.0837 448.422 60.4403C451.161 64.7474 453.514 69.2712 455.458 73.9627C455.529 74.1369 455.6 74.299 455.664 74.4692C457.458 78.8623 458.905 83.38 459.992 87.9835C460.043 88.2185 460.101 88.4495 460.152 88.6845C461.169 93.1397 461.86 97.6583 462.22 102.207C462.22 102.369 462.22 102.535 462.253 102.705C462.43 105.058 462.519 107.436 462.522 109.837C462.522 111.985 462.447 114.117 462.308 116.232C462.308 116.463 462.274 116.702 462.253 116.941C462.215 117.553 462.161 118.157 462.106 118.773C465.316 121.269 468.32 124.002 471.091 126.946C472.316 128.235 473.501 129.572 474.647 130.958C478.137 135.176 481.205 139.704 483.808 144.48C490.915 157.415 495 172.631 495 188.917Z" fill="white"/>
<path d="M495 188.917C495.008 196.871 494.011 204.797 492.029 212.518C491.362 215.119 490.587 217.667 489.705 220.16C488.625 223.238 487.373 226.257 485.956 229.205C485.241 230.696 484.486 232.158 483.691 233.589C483.704 241.746 481.962 249.816 478.576 257.291C472.455 270.702 461.541 281.545 447.821 287.845C439.244 291.791 429.87 293.867 420.366 293.923H93.9745C79.4527 293.953 65.1817 290.275 52.6124 283.262L52.4191 283.157C50.6288 282.146 48.8833 281.076 47.1827 279.947C43.3563 277.398 39.7613 274.541 36.4366 271.405C31.9366 267.165 27.9714 262.427 24.6231 257.291C16.7591 245.251 12.5932 231.309 12.6078 217.08C4.64388 203.607 0 187.466 0 170.123C0 148.241 7.37978 128.279 19.5043 113.168C22.032 110.011 24.8009 107.041 27.7876 104.282C30.7347 101.551 33.9022 99.0513 37.2603 96.8053C39.947 95.0063 42.755 93.3818 45.6655 91.9426C46.8801 91.3469 48.0988 90.7836 49.3386 90.2609C50.4271 89.7949 51.5282 89.3613 52.6419 88.952C53.9783 88.463 55.3315 88.0132 56.7016 87.6026C58.0716 87.192 59.4235 86.8327 60.7571 86.5247C62.7183 86.0627 64.7132 85.6872 66.7416 85.3982C68.4226 85.1591 70.1037 84.9929 71.7847 84.8673C73.1212 84.7701 74.4702 84.7174 75.8276 84.7012H76.5631C78.0592 84.7012 79.547 84.7579 81.0221 84.8552C81.1776 84.5553 81.3457 84.2514 81.5012 83.9556C82.0895 82.8736 82.6989 81.7957 83.3125 80.7421C83.3111 80.7327 83.3111 80.7232 83.3125 80.7137C83.4175 80.5273 83.5226 80.345 83.6319 80.1667C84.1278 79.3036 84.6447 78.4485 85.1742 77.6016C85.418 77.1964 85.6575 76.8155 85.9055 76.4346C85.958 76.3399 86.0155 76.2479 86.0778 76.159C86.33 75.7538 86.5863 75.3486 86.8469 74.9433C88.1441 72.9442 89.4931 70.9802 90.894 69.0513L91.2512 68.557C91.4697 68.2571 91.6715 67.9653 91.9152 67.6655C92.4952 66.8834 93.092 66.0973 93.6929 65.3273C94.1132 64.7762 94.5334 64.2292 94.9873 63.7064C96.08 62.3557 97.2007 61.0049 98.3494 59.6542C99.4981 58.3034 100.692 56.9702 101.93 55.6546C102.098 55.4722 102.266 55.2939 102.443 55.1156L104.237 53.2273C104.326 53.1381 104.401 53.0571 104.485 52.976C104.7 52.7532 104.905 52.5303 105.137 52.3155C106.099 51.3308 107.087 50.3664 108.078 49.406C113.126 44.5585 118.503 40.041 124.174 35.8836C124.397 35.7134 124.624 35.5513 124.847 35.3892C125.914 34.6152 126.999 33.8494 128.083 33.0956C134.047 28.9702 140.281 25.2208 146.747 21.8709C147.192 21.6237 147.646 21.3927 148.104 21.1658C153.901 18.2089 159.862 15.5628 165.961 13.2396C169.285 11.9712 172.685 10.7799 176.106 9.68979C178.384 8.96849 180.67 8.28366 182.986 7.63935C186.606 6.63439 190.251 5.73344 193.921 4.93649C204.734 2.59706 215.734 1.15191 226.802 0.616785C230.164 0.451993 233.564 0.366896 237.002 0.361493C253.59 0.340319 270.113 2.35564 286.172 6.35884C286.338 6.60079 286.565 6.79804 286.832 6.93202C287.099 7.06601 287.397 7.13232 287.698 7.12471H289.11C289.724 7.2868 290.333 7.44889 290.947 7.61909C294.373 8.57002 297.751 9.60875 301.079 10.7353L301.919 11.027C310.135 13.8437 318.128 17.2295 325.837 21.1577C332.785 24.6903 339.476 28.6761 345.862 33.0875C346.845 33.7683 347.815 34.4545 348.77 35.1461C349.93 34.4302 351.11 33.744 352.309 33.0875C356.94 30.5445 361.858 28.5227 366.967 27.0618C377.65 24.0138 388.952 23.5876 399.849 25.8218C413.822 28.6787 426.472 35.7701 436.689 45.8562C440.849 49.983 444.551 54.5162 447.737 59.3827C447.969 59.7312 448.2 60.0837 448.422 60.4403C451.161 64.7474 453.514 69.2712 455.458 73.9627C455.529 74.1369 455.6 74.299 455.664 74.4692C457.458 78.8623 458.905 83.38 459.992 87.9835C460.043 88.2185 460.101 88.4495 460.152 88.6845C461.169 93.1397 461.86 97.6583 462.22 102.207C462.22 102.369 462.22 102.535 462.253 102.705C462.43 105.058 462.519 107.436 462.522 109.837C462.522 111.985 462.447 114.117 462.308 116.232C462.308 116.463 462.274 116.702 462.253 116.941C462.215 117.553 462.161 118.157 462.106 118.773C465.316 121.269 468.32 124.002 471.091 126.946C472.316 128.235 473.501 129.572 474.647 130.958C478.137 135.176 481.205 139.704 483.808 144.48C490.915 157.415 495 172.631 495 188.917Z" fill="url(#paint0_linear_8651_20735)" fill-opacity="0.8"/>
<path d="M495 188.917C495.008 196.871 494.011 204.797 492.029 212.518C491.362 215.119 490.587 217.667 489.705 220.16C488.625 223.238 487.373 226.257 485.956 229.205C485.241 230.696 484.486 232.158 483.691 233.589C483.704 241.746 481.962 249.816 478.576 257.291C472.455 270.702 461.541 281.545 447.821 287.845C439.244 291.791 429.87 293.867 420.366 293.923H93.9745C79.4527 293.953 65.1817 290.275 52.6124 283.262L52.4191 283.157C50.6288 282.146 48.8833 281.076 47.1827 279.947C43.3563 277.398 39.7613 274.541 36.4366 271.405C31.9366 267.165 27.9714 262.427 24.6231 257.291C16.7591 245.251 12.5932 231.309 12.6078 217.08C4.64388 203.607 0 187.466 0 170.123C0 148.241 7.37978 128.279 19.5043 113.168C22.032 110.011 24.8009 107.041 27.7876 104.282C30.7347 101.551 33.9022 99.0513 37.2603 96.8053C39.947 95.0063 42.755 93.3818 45.6655 91.9426C46.8801 91.3469 48.0988 90.7836 49.3386 90.2609C50.4271 89.7949 51.5282 89.3613 52.6419 88.952C53.9783 88.463 55.3315 88.0132 56.7016 87.6026C58.0716 87.192 59.4235 86.8327 60.7571 86.5247C62.7183 86.0627 64.7132 85.6872 66.7416 85.3982C68.4226 85.1591 70.1037 84.9929 71.7847 84.8673C73.1212 84.7701 74.4702 84.7174 75.8276 84.7012H76.5631C78.0592 84.7012 79.547 84.7579 81.0221 84.8552C81.1776 84.5553 81.3457 84.2514 81.5012 83.9556C82.0895 82.8736 82.6989 81.7957 83.3125 80.7421C83.3111 80.7327 83.3111 80.7232 83.3125 80.7137C83.4175 80.5273 83.5226 80.345 83.6319 80.1667C84.1278 79.3036 84.6447 78.4485 85.1742 77.6016C85.418 77.1964 85.6575 76.8155 85.9055 76.4346C85.958 76.3399 86.0155 76.2479 86.0778 76.159C86.33 75.7538 86.5863 75.3486 86.8469 74.9433C88.1441 72.9442 89.4931 70.9802 90.894 69.0513L91.2512 68.557C91.4697 68.2571 91.6715 67.9653 91.9152 67.6655C92.4952 66.8834 93.092 66.0973 93.6929 65.3273C94.1132 64.7762 94.5334 64.2292 94.9873 63.7064C96.08 62.3557 97.2007 61.0049 98.3494 59.6542C99.4981 58.3034 100.692 56.9702 101.93 55.6546C102.098 55.4722 102.266 55.2939 102.443 55.1156L104.237 53.2273C104.326 53.1381 104.401 53.0571 104.485 52.976C104.7 52.7532 104.905 52.5303 105.137 52.3155C106.099 51.3308 107.087 50.3664 108.078 49.406C113.126 44.5585 118.503 40.041 124.174 35.8836C124.397 35.7134 124.624 35.5513 124.847 35.3892C125.914 34.6152 126.999 33.8494 128.083 33.0956C134.047 28.9702 140.281 25.2208 146.747 21.8709C147.192 21.6237 147.646 21.3927 148.104 21.1658C153.901 18.2089 159.862 15.5628 165.961 13.2396C169.285 11.9712 172.685 10.7799 176.106 9.68979C178.384 8.96849 180.67 8.28366 182.986 7.63935C186.606 6.63439 190.251 5.73344 193.921 4.93649C204.734 2.59706 215.734 1.15191 226.802 0.616785C230.164 0.451993 233.564 0.366896 237.002 0.361493C253.59 0.340319 270.113 2.35564 286.172 6.35884C286.338 6.60079 286.565 6.79804 286.832 6.93202C287.099 7.06601 287.397 7.13232 287.698 7.12471H289.11C289.724 7.2868 290.333 7.44889 290.947 7.61909C294.373 8.57002 297.751 9.60875 301.079 10.7353L301.919 11.027C310.135 13.8437 318.128 17.2295 325.837 21.1577C332.785 24.6903 339.476 28.6761 345.862 33.0875C346.845 33.7683 347.815 34.4545 348.77 35.1461C349.93 34.4302 351.11 33.744 352.309 33.0875C356.94 30.5445 361.858 28.5227 366.967 27.0618C377.65 24.0138 388.952 23.5876 399.849 25.8218C413.822 28.6787 426.472 35.7701 436.689 45.8562C440.849 49.983 444.551 54.5162 447.737 59.3827C447.969 59.7312 448.2 60.0837 448.422 60.4403C451.161 64.7474 453.514 69.2712 455.458 73.9627C455.529 74.1369 455.6 74.299 455.664 74.4692C457.458 78.8623 458.905 83.38 459.992 87.9835C460.043 88.2185 460.101 88.4495 460.152 88.6845C461.169 93.1397 461.86 97.6583 462.22 102.207C462.22 102.369 462.22 102.535 462.253 102.705C462.43 105.058 462.519 107.436 462.522 109.837C462.522 111.985 462.447 114.117 462.308 116.232C462.308 116.463 462.274 116.702 462.253 116.941C462.215 117.553 462.161 118.157 462.106 118.773C465.316 121.269 468.32 124.002 471.091 126.946C472.316 128.235 473.501 129.572 474.647 130.958C478.137 135.176 481.205 139.704 483.808 144.48C490.915 157.415 495 172.631 495 188.917Z" fill="url(#paint1_linear_8651_20735)" fill-opacity="0.8"/>
</g>
<defs>
<linearGradient id="paint0_linear_8651_20735" x1="495" y1="293.924" x2="237.403" y2="-140.432" gradientUnits="userSpaceOnUse">
<stop stop-color="#252117"/>
<stop offset="1" stop-opacity="0"/>
</linearGradient>
<linearGradient id="paint1_linear_8651_20735" x1="0" y1="0.361328" x2="250.383" y2="430.749" gradientUnits="userSpaceOnUse">
<stop offset="0.484375" stop-color="#4BAA73"/>
<stop offset="1" stop-opacity="0"/>
</linearGradient>
</defs>
</svg>
