<svg width="406" height="357" viewBox="0 0 406 357" fill="none" xmlns="http://www.w3.org/2000/svg">
<g clip-path="url(#clip0_8651_20610)">
<path d="M297.245 343.51C352.382 343.51 397.08 298.823 397.08 243.7C397.08 188.577 352.382 143.891 297.245 143.891C242.108 143.891 197.41 188.577 197.41 243.7C197.41 298.823 242.108 343.51 297.245 343.51Z" fill="#F2F2F2"/>
<path d="M301.031 356.999C353.354 356.999 395.77 349.221 395.77 339.626C395.77 330.03 353.354 322.252 301.031 322.252C248.709 322.252 206.293 330.03 206.293 339.626C206.293 349.221 248.709 356.999 301.031 356.999Z" fill="#0E0A01"/>
<path d="M385.181 339.133C385.083 338.974 382.777 335.124 381.978 327.131C381.244 319.798 381.716 307.437 388.128 290.195C400.276 257.53 385.328 231.175 385.176 230.912L385.913 230.484C385.952 230.551 389.809 237.271 392.087 247.971C395.098 262.156 394.002 276.906 388.927 290.492C376.8 323.101 385.816 338.537 385.908 338.69L385.181 339.133Z" fill="#0E0A01"/>
<path d="M380.43 228.993C383.49 228.993 385.97 226.513 385.97 223.454C385.97 220.396 383.49 217.916 380.43 217.916C377.371 217.916 374.891 220.396 374.891 223.454C374.891 226.513 377.371 228.993 380.43 228.993Z" fill="#0E0A01"/>
<path d="M397.903 249.444C400.963 249.444 403.443 246.964 403.443 243.906C403.443 240.847 400.963 238.367 397.903 238.367C394.844 238.367 392.363 240.847 392.363 243.906C392.363 246.964 394.844 249.444 397.903 249.444Z" fill="#0E0A01"/>
<path d="M385.97 263.077C389.029 263.077 391.509 260.597 391.509 257.538C391.509 254.48 389.029 252 385.97 252C382.91 252 380.43 254.48 380.43 257.538C380.43 260.597 382.91 263.077 385.97 263.077Z" fill="white"/>
<path d="M385.97 263.077C389.029 263.077 391.509 260.597 391.509 257.538C391.509 254.48 389.029 252 385.97 252C382.91 252 380.43 254.48 380.43 257.538C380.43 260.597 382.91 263.077 385.97 263.077Z" fill="url(#paint0_diamond_8651_20610)" fill-opacity="0.8"/>
<path d="M400.462 274.579C403.521 274.579 406.002 272.099 406.002 269.04C406.002 265.982 403.521 263.502 400.462 263.502C397.402 263.502 394.922 265.982 394.922 269.04C394.922 272.099 397.402 274.579 400.462 274.579Z" fill="white"/>
<path d="M400.462 274.579C403.521 274.579 406.002 272.099 406.002 269.04C406.002 265.982 403.521 263.502 400.462 263.502C397.402 263.502 394.922 265.982 394.922 269.04C394.922 272.099 397.402 274.579 400.462 274.579Z" fill="url(#paint1_diamond_8651_20610)" fill-opacity="0.8"/>
<path d="M381.712 292.473C384.771 292.473 387.252 289.994 387.252 286.935C387.252 283.876 384.771 281.396 381.712 281.396C378.652 281.396 376.172 283.876 376.172 286.935C376.172 289.994 378.652 292.473 381.712 292.473Z" fill="#0E0A01"/>
<path d="M388.527 339.336C388.527 339.336 382.987 325.703 399.607 315.479L388.527 339.336Z" fill="#0E0A01"/>
<path d="M381.715 339.089C381.715 339.089 379.194 324.591 359.68 324.716L381.715 339.089Z" fill="#0E0A01"/>
<path d="M35.5977 179.621L123.048 239.028L131.376 232.61L138.745 233.249L124.73 246.874L35.5977 190.83V179.621Z" fill="#0E0A01"/>
<path d="M214.68 151.879L251.701 195.593L244.389 204.56L200.969 155.802L214.68 151.879Z" fill="#252117"/>
<path d="M31.6743 176.819C36.3184 176.819 40.0831 172.553 40.0831 167.291C40.0831 162.029 36.3184 157.764 31.6743 157.764C27.0303 157.764 23.2656 162.029 23.2656 167.291C23.2656 172.553 27.0303 176.819 31.6743 176.819Z" fill="white"/>
<path d="M31.6743 176.819C36.3184 176.819 40.0831 172.553 40.0831 167.291C40.0831 162.029 36.3184 157.764 31.6743 157.764C27.0303 157.764 23.2656 162.029 23.2656 167.291C23.2656 172.553 27.0303 176.819 31.6743 176.819Z" fill="url(#paint2_diamond_8651_20610)" fill-opacity="0.8"/>
<path d="M226.057 148.801C241.089 92.4077 220.473 37.9531 180.01 27.1735C139.547 16.3939 94.5605 53.3715 79.5292 109.765C64.4978 166.159 85.1139 220.614 125.577 231.393C166.039 242.173 211.026 205.195 226.057 148.801Z" fill="#0E0A01"/>
<path opacity="0.1" d="M219.87 147.153C233.631 95.5237 214.757 45.6699 177.713 35.801C140.669 25.9321 99.4836 59.7852 85.7221 111.414C71.9606 163.043 90.8347 212.897 127.879 222.766C164.922 232.635 206.108 198.781 219.87 147.153Z" fill="white"/>
<path d="M137.061 127.499C137.989 127.499 138.742 126.747 138.742 125.818C138.742 124.889 137.989 124.137 137.061 124.137C136.132 124.137 135.379 124.889 135.379 125.818C135.379 126.747 136.132 127.499 137.061 127.499Z" fill="white"/>
<path d="M137.061 127.499C137.989 127.499 138.742 126.747 138.742 125.818C138.742 124.889 137.989 124.137 137.061 124.137C136.132 124.137 135.379 124.889 135.379 125.818C135.379 126.747 136.132 127.499 137.061 127.499Z" fill="url(#paint3_diamond_8651_20610)" fill-opacity="0.8"/>
<path d="M127.533 167.29C128.462 167.29 129.215 166.538 129.215 165.609C129.215 164.68 128.462 163.928 127.533 163.928C126.605 163.928 125.852 164.68 125.852 165.609C125.852 166.538 126.605 167.29 127.533 167.29Z" fill="white"/>
<path d="M127.533 167.29C128.462 167.29 129.215 166.538 129.215 165.609C129.215 164.68 128.462 163.928 127.533 163.928C126.605 163.928 125.852 164.68 125.852 165.609C125.852 166.538 126.605 167.29 127.533 167.29Z" fill="url(#paint4_diamond_8651_20610)" fill-opacity="0.8"/>
<path d="M174.623 130.863C175.552 130.863 176.305 130.11 176.305 129.181C176.305 128.253 175.552 127.5 174.623 127.5C173.694 127.5 172.941 128.253 172.941 129.181C172.941 130.11 173.694 130.863 174.623 130.863Z" fill="white"/>
<path d="M174.623 130.863C175.552 130.863 176.305 130.11 176.305 129.181C176.305 128.253 175.552 127.5 174.623 127.5C173.694 127.5 172.941 128.253 172.941 129.181C172.941 130.11 173.694 130.863 174.623 130.863Z" fill="url(#paint5_diamond_8651_20610)" fill-opacity="0.8"/>
<path d="M165.092 171.214C166.021 171.214 166.774 170.461 166.774 169.533C166.774 168.604 166.021 167.852 165.092 167.852C164.163 167.852 163.41 168.604 163.41 169.533C163.41 170.461 164.163 171.214 165.092 171.214Z" fill="white"/>
<path d="M165.092 171.214C166.021 171.214 166.774 170.461 166.774 169.533C166.774 168.604 166.021 167.852 165.092 167.852C164.163 167.852 163.41 168.604 163.41 169.533C163.41 170.461 164.163 171.214 165.092 171.214Z" fill="url(#paint6_diamond_8651_20610)" fill-opacity="0.8"/>
<path d="M38.3998 193.633L32.8837 194.737L32.794 194.753L19.9006 191.391L15.9766 165.611L18.3534 164.501L24.3853 161.688C35.0363 161.688 37.2787 167.852 37.2787 167.852L38.3998 193.633Z" fill="#0E0A01"/>
<path opacity="0.1" d="M32.8837 194.736L32.794 194.753L19.9006 191.39L15.9766 165.61L18.3534 164.5C23.2697 165.15 29.0213 166.546 31.1123 169.533L32.8837 194.736Z" fill="black"/>
<path d="M59.4206 130.582C59.118 130.582 58.8211 130.5 58.5614 130.345C41.9777 120.467 25.8538 120.467 9.27016 130.345C8.88704 130.572 8.42942 130.638 7.99773 130.529C7.56603 130.419 7.19552 130.142 6.9675 129.76C6.73949 129.377 6.67261 128.92 6.78152 128.488C6.89044 128.056 7.16626 127.685 7.54846 127.457C25.0447 117.035 42.7868 117.035 60.2831 127.457C60.5995 127.645 60.8453 127.932 60.9826 128.274C61.12 128.616 61.1413 128.993 61.0433 129.348C60.9454 129.703 60.7336 130.016 60.4404 130.239C60.1472 130.462 59.789 130.583 59.4206 130.582H59.4206Z" fill="white"/>
<path d="M59.4206 130.582C59.118 130.582 58.8211 130.5 58.5614 130.345C41.9777 120.467 25.8538 120.467 9.27016 130.345C8.88704 130.572 8.42942 130.638 7.99773 130.529C7.56603 130.419 7.19552 130.142 6.9675 129.76C6.73949 129.377 6.67261 128.92 6.78152 128.488C6.89044 128.056 7.16626 127.685 7.54846 127.457C25.0447 117.035 42.7868 117.035 60.2831 127.457C60.5995 127.645 60.8453 127.932 60.9826 128.274C61.12 128.616 61.1413 128.993 61.0433 129.348C60.9454 129.703 60.7336 130.016 60.4404 130.239C60.1472 130.462 59.789 130.583 59.4206 130.582H59.4206Z" fill="url(#paint7_diamond_8651_20610)" fill-opacity="0.8"/>
<path d="M52.9745 144.516C52.6719 144.516 52.375 144.434 52.1153 144.279C39.6807 136.873 27.5915 136.873 15.1569 144.279C14.7738 144.506 14.3161 144.572 13.8844 144.462C13.4528 144.353 13.0822 144.076 12.8542 143.694C12.6262 143.311 12.5593 142.854 12.6682 142.422C12.7772 141.99 13.053 141.619 13.4352 141.39C26.8399 133.406 40.4323 133.406 53.837 141.39C54.1534 141.579 54.3992 141.866 54.5365 142.208C54.6739 142.55 54.6952 142.927 54.5973 143.282C54.4993 143.637 54.2875 143.95 53.9943 144.173C53.7012 144.396 53.3429 144.517 52.9745 144.516Z" fill="white"/>
<path d="M52.9745 144.516C52.6719 144.516 52.375 144.434 52.1153 144.279C39.6807 136.873 27.5915 136.873 15.1569 144.279C14.7738 144.506 14.3161 144.572 13.8844 144.462C13.4528 144.353 13.0822 144.076 12.8542 143.694C12.6262 143.311 12.5593 142.854 12.6682 142.422C12.7772 141.99 13.053 141.619 13.4352 141.39C26.8399 133.406 40.4323 133.406 53.837 141.39C54.1534 141.579 54.3992 141.866 54.5365 142.208C54.6739 142.55 54.6952 142.927 54.5973 143.282C54.4993 143.637 54.2875 143.95 53.9943 144.173C53.7012 144.396 53.3429 144.517 52.9745 144.516Z" fill="url(#paint8_diamond_8651_20610)" fill-opacity="0.8"/>
<path d="M64.4642 114.891C64.1616 114.891 63.8647 114.809 63.605 114.654C47.0553 104.796 19.0913 104.796 2.54158 114.654C2.35184 114.767 2.14157 114.843 1.9228 114.875C1.70403 114.907 1.48104 114.896 1.26662 114.842C1.0522 114.788 0.850552 114.692 0.673211 114.56C0.495871 114.428 0.346321 114.262 0.233127 114.072C0.119933 113.882 0.0453136 113.672 0.0135424 113.453C-0.0182288 113.234 -0.00653089 113.011 0.0479699 112.797C0.102471 112.583 0.198705 112.381 0.33116 112.204C0.463614 112.027 0.629688 111.878 0.81988 111.765C18.303 101.352 47.8436 101.352 65.3267 111.765C65.6432 111.954 65.8889 112.241 66.0263 112.583C66.1636 112.924 66.1849 113.302 66.087 113.657C65.989 114.012 65.7772 114.325 65.484 114.548C65.1909 114.771 64.8326 114.891 64.4642 114.891H64.4642Z" fill="white"/>
<path d="M64.4642 114.891C64.1616 114.891 63.8647 114.809 63.605 114.654C47.0553 104.796 19.0913 104.796 2.54158 114.654C2.35184 114.767 2.14157 114.843 1.9228 114.875C1.70403 114.907 1.48104 114.896 1.26662 114.842C1.0522 114.788 0.850552 114.692 0.673211 114.56C0.495871 114.428 0.346321 114.262 0.233127 114.072C0.119933 113.882 0.0453136 113.672 0.0135424 113.453C-0.0182288 113.234 -0.00653089 113.011 0.0479699 112.797C0.102471 112.583 0.198705 112.381 0.33116 112.204C0.463614 112.027 0.629688 111.878 0.81988 111.765C18.303 101.352 47.8436 101.352 65.3267 111.765C65.6432 111.954 65.8889 112.241 66.0263 112.583C66.1636 112.924 66.1849 113.302 66.087 113.657C65.989 114.012 65.7772 114.325 65.484 114.548C65.1909 114.771 64.8326 114.891 64.4642 114.891H64.4642Z" fill="url(#paint9_diamond_8651_20610)" fill-opacity="0.8"/>
<path d="M340.688 306.455L344.239 320.654L328.616 324.915L327.195 310.005L340.688 306.455Z" fill="#8A4621"/>
<path d="M283.874 324.203V337.692L268.251 340.532L265.41 333.432L271.091 321.363L283.874 324.203Z" fill="#8A4621"/>
<path d="M315.121 177.24L312.991 196.409L314.411 233.328C314.411 233.328 316.541 233.328 316.541 235.457C316.541 237.587 314.411 236.877 316.541 238.297C317.684 239.073 318.869 239.784 320.092 240.427L342.817 309.294C342.817 309.294 337.135 316.394 326.483 314.264L324.353 307.164C324.353 307.164 320.092 302.904 320.092 300.774C320.092 298.644 321.512 297.934 320.092 295.805C318.672 293.675 297.367 250.367 297.367 250.367L287.425 232.618L284.585 256.756C284.585 256.756 290.266 287.285 288.846 301.484C287.425 315.684 284.585 330.593 284.585 330.593L267.541 327.753C267.464 325.462 266.724 323.243 265.411 321.363C263.28 318.524 260.44 319.233 263.28 317.104C266.121 314.974 269.672 317.104 266.831 314.264C263.99 311.424 263.99 308.584 263.99 308.584V306.454L259.73 251.787L251.918 180.08L315.121 177.24Z" fill="#252117"/>
<path d="M266.83 48.0276C277.42 48.0276 286.004 39.4453 286.004 28.8585C286.004 18.2717 277.42 9.68945 266.83 9.68945C256.241 9.68945 247.656 18.2717 247.656 28.8585C247.656 39.4453 256.241 48.0276 266.83 48.0276Z" fill="#8A4621"/>
<path d="M283.518 29.2129L291.33 48.382L272.866 61.8713L261.504 41.9921L283.518 29.2129Z" fill="#8A4621"/>
<path d="M284.586 43.7666L291.687 40.2168L295.948 50.1563C295.948 50.1563 323.644 58.6759 321.513 97.7241C319.383 136.772 314.412 151.682 314.412 151.682C314.412 151.682 326.484 177.24 319.383 180.08C312.282 182.92 251.919 193.57 250.499 183.63C249.079 173.69 255.47 115.473 255.47 115.473C255.47 115.473 253.339 73.5852 271.093 65.0656L267.542 57.256L284.586 43.7666Z" fill="white"/>
<path d="M284.586 43.7666L291.687 40.2168L295.948 50.1563C295.948 50.1563 323.644 58.6759 321.513 97.7241C319.383 136.772 314.412 151.682 314.412 151.682C314.412 151.682 326.484 177.24 319.383 180.08C312.282 182.92 251.919 193.57 250.499 183.63C249.079 173.69 255.47 115.473 255.47 115.473C255.47 115.473 253.339 73.5852 271.093 65.0656L267.542 57.256L284.586 43.7666Z" fill="url(#paint10_linear_8651_20610)" fill-opacity="0.8"/>
<path d="M284.586 43.7666L291.687 40.2168L295.948 50.1563C295.948 50.1563 323.644 58.6759 321.513 97.7241C319.383 136.772 314.412 151.682 314.412 151.682C314.412 151.682 326.484 177.24 319.383 180.08C312.282 182.92 251.919 193.57 250.499 183.63C249.079 173.69 255.47 115.473 255.47 115.473C255.47 115.473 253.339 73.5852 271.093 65.0656L267.542 57.256L284.586 43.7666Z" fill="url(#paint11_linear_8651_20610)" fill-opacity="0.8"/>
<path d="M245.526 181.5C245.526 181.5 229.193 198.539 238.425 202.799C247.657 207.059 253.338 183.63 253.338 183.63L245.526 181.5Z" fill="#8A4621"/>
<path d="M278.905 334.143L286.716 331.303C286.716 331.303 295.238 350.472 288.137 350.472H269.673C269.673 350.472 259.021 346.922 253.339 346.922C247.658 346.922 237.006 336.273 244.818 331.303C252.629 326.333 262.571 327.753 262.571 327.753L265.412 321.363L268.963 331.303C268.963 331.303 273.224 338.402 278.905 334.143Z" fill="#252117"/>
<path d="M336.428 318.523C336.428 318.523 340.875 315.718 343.267 316.766C345.66 317.813 347.08 329.173 347.08 329.173C347.08 329.173 354.182 337.693 338.558 339.112C322.935 340.532 319.384 337.693 317.964 333.433C316.544 329.173 319.384 324.913 319.384 324.913L323.645 323.493C323.645 323.493 328.616 319.943 327.196 318.523C325.776 317.104 327.196 314.264 327.196 314.264C327.196 314.264 332.167 324.203 336.428 318.523Z" fill="#252117"/>
<path d="M273.391 28.5507C273.313 27.9303 273.173 27.3193 272.974 26.7266C271.944 24.5651 267.923 25.196 267.206 22.9112C267.066 22.464 267.095 21.9776 266.958 21.5296C266.608 20.3871 265.264 19.8205 264.07 19.8753C262.876 19.9301 261.757 20.4403 260.608 20.7665C257.798 21.5636 254.81 21.2593 251.906 20.9486C250.622 20.8113 249.29 20.658 248.191 19.9817C247.091 19.3054 246.299 17.9441 246.699 16.717C247.083 15.5405 248.371 14.894 248.95 13.8003C249.869 12.0635 248.745 9.82044 249.491 8.00242C250.688 5.08603 255.216 5.67162 257.516 3.51602C258.075 2.99279 258.477 2.32391 259.012 1.777C260.6 0.154381 263.108 -0.159725 265.367 0.0641268C267.627 0.287979 269.847 0.951331 272.118 0.911192C274.271 0.873124 276.528 0.21764 278.511 1.05488C279.715 1.56283 280.635 2.5564 281.515 3.52156L286.603 9.10087C287.302 9.75953 287.84 10.5698 288.176 11.4692C288.482 12.5383 288.2 13.686 288.331 14.7903C288.629 17.3088 290.987 19.211 291.305 21.727C291.37 22.5073 291.332 23.2926 291.193 24.0632L290.48 29.3172C290.445 29.8296 290.308 30.3298 290.079 30.7895C289.871 31.1435 289.558 31.4231 289.325 31.7606C288.666 32.7134 288.726 33.9728 288.399 35.0839C288.071 36.1948 286.897 37.2943 285.87 36.7589C285.2 36.4095 284.757 33.5205 283.943 32.7705C282.809 31.7257 282.217 31.8545 280.817 31.8722C278.015 31.9076 274.288 32.1479 273.391 28.5507Z" fill="#252117"/>
<path d="M276.774 70.0368C276.774 70.0368 298.078 78.5564 291.687 97.7255C285.296 116.895 268.252 175.822 268.252 175.822L258.31 180.792L255.469 188.601L241.977 183.631L244.107 172.982C244.107 172.982 244.817 172.272 244.817 169.432C244.817 166.592 241.977 165.882 245.527 165.882C249.078 165.882 249.078 162.332 249.078 162.332L261.861 82.8162C261.861 82.8162 261.861 69.3269 276.774 70.0368Z" fill="white"/>
<path d="M276.774 70.0368C276.774 70.0368 298.078 78.5564 291.687 97.7255C285.296 116.895 268.252 175.822 268.252 175.822L258.31 180.792L255.469 188.601L241.977 183.631L244.107 172.982C244.107 172.982 244.817 172.272 244.817 169.432C244.817 166.592 241.977 165.882 245.527 165.882C249.078 165.882 249.078 162.332 249.078 162.332L261.861 82.8162C261.861 82.8162 261.861 69.3269 276.774 70.0368Z" fill="url(#paint12_linear_8651_20610)" fill-opacity="0.8"/>
<path d="M276.774 70.0368C276.774 70.0368 298.078 78.5564 291.687 97.7255C285.296 116.895 268.252 175.822 268.252 175.822L258.31 180.792L255.469 188.601L241.977 183.631L244.107 172.982C244.107 172.982 244.817 172.272 244.817 169.432C244.817 166.592 241.977 165.882 245.527 165.882C249.078 165.882 249.078 162.332 249.078 162.332L261.861 82.8162C261.861 82.8162 261.861 69.3269 276.774 70.0368Z" fill="url(#paint13_linear_8651_20610)" fill-opacity="0.8"/>
<path opacity="0.1" d="M292.75 101.629L270.736 176.885L261.504 186.115L266.83 176.53L292.75 101.629Z" fill="black"/>
</g>
<defs>
<radialGradient id="paint0_diamond_8651_20610" cx="0" cy="0" r="1" gradientUnits="userSpaceOnUse" gradientTransform="translate(385.864 257.538) rotate(45.5435) scale(7.75932 15.82)">
<stop stop-color="#4BAA73"/>
<stop offset="1" stop-color="#F0F5F3"/>
</radialGradient>
<radialGradient id="paint1_diamond_8651_20610" cx="0" cy="0" r="1" gradientUnits="userSpaceOnUse" gradientTransform="translate(400.356 269.04) rotate(45.5434) scale(7.75933 15.82)">
<stop stop-color="#4BAA73"/>
<stop offset="1" stop-color="#F0F5F3"/>
</radialGradient>
<radialGradient id="paint2_diamond_8651_20610" cx="0" cy="0" r="1" gradientUnits="userSpaceOnUse" gradientTransform="translate(31.5142 167.291) rotate(49.115) scale(12.6021 25.4335)">
<stop stop-color="#4BAA73"/>
<stop offset="1" stop-color="#F0F5F3"/>
</radialGradient>
<radialGradient id="paint3_diamond_8651_20610" cx="0" cy="0" r="1" gradientUnits="userSpaceOnUse" gradientTransform="translate(137.029 125.818) rotate(45.5436) scale(2.3555 4.80248)">
<stop stop-color="#4BAA73"/>
<stop offset="1" stop-color="#F0F5F3"/>
</radialGradient>
<radialGradient id="paint4_diamond_8651_20610" cx="0" cy="0" r="1" gradientUnits="userSpaceOnUse" gradientTransform="translate(127.501 165.609) rotate(45.5436) scale(2.35552 4.80251)">
<stop stop-color="#4BAA73"/>
<stop offset="1" stop-color="#F0F5F3"/>
</radialGradient>
<radialGradient id="paint5_diamond_8651_20610" cx="0" cy="0" r="1" gradientUnits="userSpaceOnUse" gradientTransform="translate(174.591 129.181) rotate(45.5435) scale(2.35551 4.80249)">
<stop stop-color="#4BAA73"/>
<stop offset="1" stop-color="#F0F5F3"/>
</radialGradient>
<radialGradient id="paint6_diamond_8651_20610" cx="0" cy="0" r="1" gradientUnits="userSpaceOnUse" gradientTransform="translate(165.06 169.533) rotate(45.5434) scale(2.35551 4.8025)">
<stop stop-color="#4BAA73"/>
<stop offset="1" stop-color="#F0F5F3"/>
</radialGradient>
<radialGradient id="paint7_diamond_8651_20610" cx="0" cy="0" r="1" gradientUnits="userSpaceOnUse" gradientTransform="translate(33.3995 125.112) rotate(11.5929) scale(27.2244 21.8575)">
<stop stop-color="#4BAA73"/>
<stop offset="1" stop-color="#F0F5F3"/>
</radialGradient>
<radialGradient id="paint8_diamond_8651_20610" cx="0" cy="0" r="1" gradientUnits="userSpaceOnUse" gradientTransform="translate(33.2372 139.959) rotate(12.462) scale(21.1176 18.1474)">
<stop stop-color="#4BAA73"/>
<stop offset="1" stop-color="#F0F5F3"/>
</radialGradient>
<radialGradient id="paint9_diamond_8651_20610" cx="0" cy="0" r="1" gradientUnits="userSpaceOnUse" gradientTransform="translate(32.442 109.424) rotate(9.56733) scale(32.9035 21.9937)">
<stop stop-color="#4BAA73"/>
<stop offset="1" stop-color="#F0F5F3"/>
</radialGradient>
<linearGradient id="paint10_linear_8651_20610" x1="321.63" y1="187.785" x2="205.982" y2="131.878" gradientUnits="userSpaceOnUse">
<stop stop-color="#252117"/>
<stop offset="1" stop-opacity="0"/>
</linearGradient>
<linearGradient id="paint11_linear_8651_20610" x1="250.293" y1="40.2168" x2="365.11" y2="96.7993" gradientUnits="userSpaceOnUse">
<stop offset="0.484375" stop-color="#4BAA73"/>
<stop offset="1" stop-opacity="0"/>
</linearGradient>
<linearGradient id="paint12_linear_8651_20610" x1="292.883" y1="188.601" x2="206.912" y2="151.697" gradientUnits="userSpaceOnUse">
<stop stop-color="#252117"/>
<stop offset="1" stop-opacity="0"/>
</linearGradient>
<linearGradient id="paint13_linear_8651_20610" x1="241.977" y1="70.0098" x2="327.443" y2="107.409" gradientUnits="userSpaceOnUse">
<stop offset="0.484375" stop-color="#4BAA73"/>
<stop offset="1" stop-opacity="0"/>
</linearGradient>
<clipPath id="clip0_8651_20610">
<rect width="406" height="357" fill="white"/>
</clipPath>
</defs>
</svg>
